<svg width="78" height="24" viewBox="0 0 78 24" fill="none" xmlns="http://www.w3.org/2000/svg">
<g clip-path="url(#clip0_2097_8093)">
<path d="M66.0589 9.48288C66.0767 9.44737 66.0855 9.41185 66.0855 9.37633C66.1033 9.34082 66.1299 9.3053 66.1654 9.26979C66.201 9.21651 66.2365 9.17212 66.272 9.1366C66.3075 9.08333 66.343 9.03893 66.3785 9.00341C66.4141 8.98566 66.4496 8.94126 66.4851 8.87023C66.5739 8.72816 66.6538 8.5861 66.7248 8.44403C66.8136 8.30197 66.9024 8.15991 66.9912 8.01784C67.08 7.85802 67.1777 7.6982 67.2842 7.53837C67.4085 7.36079 67.5506 7.19209 67.7104 7.03227C67.8525 6.90796 67.9945 6.80141 68.1366 6.71262C68.2964 6.62383 68.4296 6.54392 68.5362 6.47289C68.6072 6.43737 68.6693 6.40186 68.7226 6.36634C68.7759 6.33083 68.838 6.29531 68.9091 6.25979C68.9623 6.22428 69.0156 6.19764 69.0689 6.17988C69.1222 6.14437 69.1666 6.11773 69.2021 6.09997C69.2554 6.0467 69.3797 5.98454 69.575 5.91351C69.7703 5.82472 69.9834 5.74481 70.2143 5.67378C70.4451 5.60275 70.6582 5.54059 70.8536 5.48732C71.0667 5.43404 71.2176 5.40741 71.3064 5.40741C71.3597 5.40741 71.413 5.41629 71.4662 5.43404C71.5373 5.4518 71.6083 5.46068 71.6793 5.46068C71.6971 5.44292 71.7237 5.42517 71.7592 5.40741C71.8125 5.37189 71.8924 5.33638 71.999 5.30086C72.0522 5.2831 72.1055 5.26534 72.1588 5.24759C72.2298 5.22983 72.3097 5.22095 72.3985 5.22095C72.5228 5.22095 72.6294 5.23871 72.7182 5.27422C72.807 5.30974 72.8691 5.33638 72.9046 5.35413C73.0467 5.42517 73.1355 5.47844 73.171 5.51396C73.2776 5.58499 73.3486 5.62938 73.3841 5.64714C73.4906 5.64714 73.615 5.67378 73.757 5.72705C73.9168 5.78033 74.0411 5.8336 74.1299 5.88688C74.2187 5.94015 74.2898 5.99342 74.343 6.0467C74.4141 6.09997 74.4762 6.14437 74.5295 6.17988C74.6538 6.30419 74.7426 6.40186 74.7959 6.47289C74.8847 6.56168 74.9468 6.63271 74.9823 6.68599C75.0178 6.7215 75.0356 6.73926 75.0356 6.73926C75.0356 6.75702 75.0445 6.7659 75.0622 6.7659C75.2753 6.89021 75.4795 7.00563 75.6749 7.11218C75.7104 7.1477 75.7459 7.18321 75.7814 7.21873C75.8702 7.30752 75.9413 7.40519 75.9945 7.51174C76.0301 7.56501 76.0567 7.61828 76.0744 7.67156C76.11 7.70708 76.1277 7.73371 76.1277 7.75147C76.1632 7.78699 76.181 7.80474 76.181 7.80474C76.2343 7.85802 76.2787 7.89354 76.3142 7.91129C76.3497 7.96457 76.3941 8.02672 76.4474 8.09775C76.5006 8.16879 76.545 8.25757 76.5806 8.36412C76.6338 8.48843 76.6605 8.6305 76.6605 8.79032C76.6605 8.9679 76.6427 9.14548 76.6072 9.32306C76.5717 9.48288 76.5362 9.65158 76.5006 9.82916C76.5006 10.0245 76.4562 10.2198 76.3674 10.4152C76.2964 10.4862 76.252 10.5484 76.2343 10.6016C76.181 10.6372 76.1366 10.6993 76.1011 10.7881C76.0656 10.8414 76.0212 10.8946 75.9679 10.9479C75.9324 11.0012 75.8969 11.0545 75.8613 11.1077C75.7548 11.2143 75.5772 11.3564 75.3286 11.5339C75.08 11.6938 74.8935 11.8003 74.7692 11.8536C74.3253 12.1022 73.8724 12.2975 73.4107 12.4396C72.9668 12.5639 72.5051 12.6793 72.0256 12.7859C71.848 12.8214 71.6704 12.848 71.4929 12.8658C71.333 12.8835 71.1732 12.9102 71.0134 12.9457C70.8713 12.9812 70.6494 13.0523 70.3475 13.1588C70.0456 13.2476 69.8236 13.3186 69.6815 13.3719C69.646 13.4429 69.6105 13.5051 69.575 13.5584C69.5395 13.6116 69.5128 13.6471 69.4951 13.6649C69.4596 13.6827 69.4329 13.7004 69.4152 13.7182C69.4152 13.7359 69.3974 13.7448 69.3619 13.7448C69.3974 13.8336 69.4152 13.9046 69.4152 13.9579C69.4329 14.0112 69.4596 14.0556 69.4951 14.0911C69.5128 14.1089 69.5306 14.1266 69.5484 14.1444C69.5661 14.1444 69.5839 14.1621 69.6016 14.1976C69.6727 14.2154 69.7615 14.2953 69.868 14.4374C69.8858 14.4729 69.9124 14.5262 69.9479 14.5972C70.0012 14.6505 70.0545 14.7215 70.1077 14.8103C70.161 14.8991 70.1965 14.9524 70.2143 14.9701C70.3208 15.0412 70.3919 15.0855 70.4274 15.1033C70.8003 15.2809 71.1555 15.4851 71.4929 15.716C71.5461 15.7337 71.6083 15.7515 71.6793 15.7692C71.7504 15.7692 71.8303 15.7781 71.9191 15.7959C72.0078 15.8136 72.0789 15.8314 72.1322 15.8491C72.2032 15.8491 72.2742 15.858 72.3453 15.8758C72.3985 15.8935 72.4607 15.9024 72.5317 15.9024C72.5672 15.8847 72.5939 15.8758 72.6116 15.8758C72.6294 15.858 72.656 15.8403 72.6915 15.8225C72.9579 15.6982 73.2332 15.5561 73.5173 15.3963C73.8192 15.2365 74.0855 15.0678 74.3164 14.8902C74.3342 14.8725 74.3519 14.8458 74.3697 14.8103C74.4052 14.7748 74.4407 14.7393 74.4762 14.7037C74.5828 14.5617 74.6893 14.4019 74.7959 14.2243C74.8669 14.1355 74.9202 14.0556 74.9557 13.9845C75.009 13.9135 75.0622 13.8425 75.1155 13.7715C75.151 13.7359 75.1865 13.7004 75.2221 13.6649C75.2576 13.6294 75.302 13.5939 75.3552 13.5584C75.444 13.4696 75.5328 13.4163 75.6216 13.3985C75.7282 13.363 75.8258 13.3453 75.9146 13.3453C76.181 13.3453 76.4385 13.434 76.6871 13.6116C76.9535 13.7715 77.0867 14.0023 77.0867 14.3042C77.0867 14.4463 77.0511 14.6238 76.9801 14.8369C76.9091 15.0323 76.8203 15.2365 76.7137 15.4496C76.6072 15.6449 76.4918 15.8314 76.3674 16.009C76.2609 16.1865 76.1632 16.3197 76.0744 16.4085C76.0034 16.4796 75.888 16.595 75.7282 16.7548C75.5861 16.9146 75.4352 17.0656 75.2753 17.2076C75.1865 17.2964 75.0977 17.3763 75.009 17.4474C74.9202 17.5184 74.8314 17.5983 74.7426 17.6871C74.6538 17.7404 74.5561 17.8025 74.4496 17.8736C74.343 17.9446 74.2276 17.9979 74.1033 18.0334C73.9435 18.0689 73.7748 18.1044 73.5972 18.1399C73.4374 18.1754 73.2864 18.211 73.1444 18.2465L73.1177 18.2731C73.1 18.2731 73.0822 18.282 73.0645 18.2998C72.9401 18.3708 72.8158 18.4241 72.6915 18.4596C72.585 18.4951 72.514 18.5129 72.4784 18.5129C72.3541 18.5129 72.2565 18.4951 72.1854 18.4596C72.1322 18.4418 72.07 18.4241 71.999 18.4063C71.9457 18.3885 71.8924 18.3797 71.8391 18.3797C71.7504 18.3797 71.5994 18.4063 71.3863 18.4596C71.2975 18.5129 71.1821 18.5572 71.04 18.5928C70.898 18.6283 70.7825 18.646 70.6938 18.646C70.605 18.646 70.4718 18.6194 70.2942 18.5661C70.1166 18.5306 69.9302 18.4862 69.7348 18.4329C69.5572 18.3797 69.3885 18.3175 69.2287 18.2465C69.0689 18.1754 68.9446 18.1133 68.8558 18.06C68.8025 18.0067 68.7226 17.9446 68.6161 17.8736C68.5805 17.838 68.545 17.8203 68.5095 17.8203H68.403C68.3675 17.8025 68.3231 17.7936 68.2698 17.7936C68.2343 17.7936 68.1987 17.7848 68.1632 17.767C67.9857 17.7315 67.8436 17.6693 67.737 17.5806C67.6305 17.4918 67.5595 17.4207 67.5239 17.3675C67.3996 17.2787 67.2931 17.1366 67.2043 16.9413C66.9557 16.5861 66.716 16.1954 66.4851 15.7692C66.343 15.5739 66.2276 15.4052 66.1388 15.2631C66.0678 15.1033 66.0145 14.908 65.979 14.6771V14.3308C65.9612 14.2953 65.9435 14.2509 65.9257 14.1976C65.9257 14.1266 65.9168 14.0645 65.8991 14.0112C65.8636 13.8869 65.8369 13.7803 65.8192 13.6915C65.8192 13.585 65.8103 13.5051 65.7925 13.4518C65.757 13.3097 65.7393 13.2032 65.7393 13.1322C65.7393 12.9546 65.757 12.8392 65.7925 12.7859C65.828 12.6793 65.8636 12.5994 65.8991 12.5461C65.9346 12.4751 65.9612 12.4307 65.979 12.413C65.9612 12.3952 65.9524 12.3774 65.9524 12.3597C65.9524 12.3419 65.9435 12.3153 65.9257 12.2798C65.908 12.2443 65.8813 12.1732 65.8458 12.0667C65.828 11.9424 65.8192 11.8625 65.8192 11.8269C65.8192 11.7204 65.8369 11.6138 65.8724 11.5073C65.8902 11.4718 65.9168 11.4008 65.9524 11.2942C65.9701 11.2587 65.979 11.2232 65.979 11.1877C65.9968 11.1521 66.0145 11.1166 66.0323 11.0811C66.05 11.0633 66.0589 11.0367 66.0589 11.0012C66.0944 10.8769 66.1211 10.7437 66.1388 10.6016C66.1743 10.4418 66.201 10.2909 66.2187 10.1488C66.1477 10.0778 66.0855 10.0156 66.0323 9.96235C65.979 9.90908 65.9524 9.86468 65.9524 9.82916L65.9257 9.66934L66.0589 9.48288ZM73.1976 8.76368C73.3397 8.72816 73.4551 8.71041 73.5439 8.71041H73.1976V8.76368ZM68.9091 11.2676C68.9623 11.2498 69.0067 11.2409 69.0423 11.2409C69.0955 11.2409 69.1399 11.232 69.1754 11.2143C69.2287 11.2143 69.2554 11.2054 69.2554 11.1877C69.3086 11.1521 69.353 11.1255 69.3885 11.1077C69.4418 11.09 69.4951 11.0722 69.5484 11.0545C69.7615 10.8946 70.0012 10.7792 70.2676 10.7082C70.5517 10.6372 70.8269 10.6016 71.0933 10.6016C71.2354 10.5839 71.3863 10.575 71.5461 10.575C71.706 10.5572 71.8658 10.5395 72.0256 10.5217C72.2742 10.4685 72.4873 10.3974 72.6649 10.3086C72.8425 10.2021 72.9313 10.0067 72.9313 9.72261C72.8602 9.58055 72.8247 9.44737 72.8247 9.32306C72.8247 9.16324 72.878 9.03005 72.9845 8.9235C72.9845 8.71041 72.9579 8.52395 72.9046 8.36412C72.8336 8.18654 72.7004 8.0356 72.5051 7.91129H72.2121H71.8125H71.6261C71.555 7.92905 71.4307 7.98233 71.2531 8.07112C71.0756 8.15991 70.898 8.25757 70.7204 8.36412C70.5428 8.45291 70.383 8.5417 70.2409 8.63049C70.1166 8.71928 70.0456 8.77256 70.0278 8.79032C70.0456 8.79032 70.0367 8.82583 70.0012 8.89687C69.9657 8.9679 69.9302 9.03005 69.8946 9.08333C69.8769 9.11884 69.8502 9.15436 69.8147 9.18987C69.797 9.20763 69.7792 9.22539 69.7615 9.24315C69.7437 9.24315 69.7259 9.26091 69.7082 9.29642C69.6727 9.3497 69.6105 9.46512 69.5217 9.6427C69.4507 9.82028 69.3708 10.0067 69.282 10.2021C69.1932 10.3974 69.1133 10.5839 69.0423 10.7615C68.9712 10.939 68.9357 11.0456 68.9357 11.0811C68.9357 11.1166 68.9268 11.1521 68.9091 11.1877C68.9091 11.2054 68.9091 11.232 68.9091 11.2676Z" fill="#4596FF"/>
<path d="M60.2608 16.515C60.2253 16.3374 60.2075 16.1865 60.2075 16.0622C60.2075 15.9556 60.2164 15.8491 60.2342 15.7425C60.2697 15.636 60.3052 15.5561 60.3407 15.5028C60.3052 15.3962 60.2874 15.343 60.2874 15.343C60.2874 15.3252 60.2874 15.3074 60.2874 15.2897C60.2519 15.1831 60.2253 15.0677 60.2075 14.9434C60.1898 14.8013 60.1809 14.6859 60.1809 14.5971V14.0644C60.1631 14.0466 60.1543 14.02 60.1543 13.9845C60.1543 13.949 60.1454 13.9223 60.1276 13.9046C60.1276 13.8868 60.1276 13.869 60.1276 13.8513C60.1631 13.3896 60.1898 12.9367 60.2075 12.4928C60.243 12.0311 60.2608 11.5694 60.2608 11.1077C60.2608 10.8768 60.243 10.6548 60.2075 10.4417C60.172 10.2286 60.1543 10.0155 60.1543 9.80245C60.1543 9.67814 60.1631 9.55383 60.1809 9.42953C60.2164 9.30522 60.2342 9.18091 60.2342 9.05661V8.49723C60.2342 8.26637 60.2253 8.03552 60.2075 7.80467C60.1898 7.57381 60.172 7.34296 60.1543 7.1121C60.1543 6.91676 60.1543 6.7303 60.1543 6.55272C60.172 6.37514 60.1809 6.19756 60.1809 6.01998C60.1809 5.91343 60.1631 5.80688 60.1276 5.70034C60.1099 5.59379 60.101 5.47836 60.101 5.35405C60.101 5.26526 60.101 5.10544 60.101 4.87459C60.1187 4.64373 60.1187 4.39512 60.101 4.12875C60.101 3.88013 60.0743 3.64928 60.0211 3.43618V3.38291H59.9678C59.9145 3.41843 59.8524 3.44506 59.7813 3.46282C59.7281 3.46282 59.6748 3.4717 59.6215 3.48946L59.3285 3.59601L58.6892 3.19645L58.6359 2.95672C58.6182 2.85017 58.6004 2.74362 58.5827 2.63707C58.5649 2.51276 58.556 2.38846 58.556 2.26415C58.556 2.21088 58.5649 2.1576 58.5827 2.10433C58.5827 2.01554 58.5915 1.94451 58.6093 1.89123C58.6271 1.80244 58.6892 1.67814 58.7958 1.51831C58.9023 1.34073 59.1154 1.25194 59.4351 1.25194C59.7014 1.25194 59.9589 1.24306 60.2075 1.22531C60.4561 1.20755 60.7136 1.18091 60.98 1.14539C61.0155 1.14539 61.0422 1.14539 61.0599 1.14539C61.0777 1.12764 61.1043 1.10988 61.1398 1.09212C61.1753 1.0566 61.2109 1.02997 61.2464 1.01221C61.2997 0.994451 61.3529 0.967814 61.4062 0.932297C61.5127 0.879024 61.6193 0.82575 61.7258 0.772475C61.8502 0.701443 61.9833 0.63929 62.1254 0.586016C62.2675 0.514984 62.3918 0.45283 62.4983 0.399556C62.6049 0.328523 62.7114 0.275249 62.818 0.239734C62.8712 0.204217 62.9156 0.17758 62.9511 0.159822C63.0044 0.142064 63.0488 0.124306 63.0843 0.106549C63.2797 0.0355162 63.4129 0 63.4839 0C63.8035 0 64.0166 0.0976691 64.1232 0.293007C64.2297 0.470588 64.283 0.603773 64.283 0.692565C64.283 0.781355 64.2031 0.932298 64.0433 1.14539C63.99 1.25194 63.9634 1.32298 63.9634 1.35849C63.9456 1.51831 63.919 1.67814 63.8834 1.83796C63.8657 1.99778 63.8568 2.1576 63.8568 2.31743C63.8568 2.35294 63.8657 2.37958 63.8834 2.39734C63.8834 2.43285 63.8834 2.45949 63.8834 2.47725C63.9012 2.47725 63.9101 2.49501 63.9101 2.53052C63.9278 2.56604 63.9367 2.60155 63.9367 2.63707C63.9545 2.67259 63.9722 2.7081 63.99 2.74362C63.99 2.79689 63.99 2.85017 63.99 2.90344C64.0078 2.93896 64.0166 2.98335 64.0166 3.03663C64.0166 3.16093 64.0078 3.2586 63.99 3.32964C63.9722 3.36515 63.9634 3.40067 63.9634 3.43618C63.9634 3.4717 63.9545 3.50722 63.9367 3.54273C63.919 3.57825 63.9101 3.60488 63.9101 3.62264C63.9101 3.6404 63.9012 3.66704 63.8834 3.70255V3.83574C63.8834 3.96005 63.8923 4.08435 63.9101 4.20866C63.9456 4.33297 63.9634 4.46615 63.9634 4.60821C63.9634 4.99889 63.9545 5.39845 63.9367 5.80688C63.9367 6.19756 63.919 6.59712 63.8834 7.00555C63.8479 7.14762 63.8302 7.27192 63.8302 7.37847C63.8302 7.41399 63.8479 7.44063 63.8834 7.45838C63.9722 7.60045 64.0255 7.74251 64.0433 7.88458C64.061 8.00888 64.0699 8.15983 64.0699 8.33741C64.0699 8.58602 64.0433 8.84351 63.99 9.10988C63.9367 9.37625 63.9101 9.63375 63.9101 9.88236C63.9101 9.98891 63.9101 10.1043 63.9101 10.2286C63.9101 10.3352 63.9278 10.4417 63.9634 10.5483C64.0344 10.9212 64.0788 11.303 64.0965 11.6937C64.1143 12.0844 64.1232 12.475 64.1232 12.8657C64.1232 13.1321 64.0965 13.3896 64.0433 13.6382C64.0433 13.6559 64.0433 13.6826 64.0433 13.7181C64.061 13.7359 64.0699 13.7536 64.0699 13.7714C64.1232 13.8957 64.1498 14.0377 64.1498 14.1976C64.1498 14.2331 64.1409 14.2864 64.1232 14.3574C64.1232 14.4107 64.1143 14.4817 64.0965 14.5705C64.1321 14.7125 64.1498 14.8457 64.1498 14.97C64.1143 15.1654 64.0788 15.3607 64.0433 15.5561C64.0255 15.7514 64.0078 15.9467 63.99 16.1421C63.99 16.1776 63.9811 16.2131 63.9634 16.2486C63.9634 16.2664 63.9634 16.293 63.9634 16.3285C64.0521 16.3463 64.1409 16.364 64.2297 16.3818C64.3363 16.3818 64.4339 16.3996 64.5227 16.4351C64.6115 16.4528 64.7181 16.4795 64.8424 16.515C64.9844 16.5505 65.1176 16.6127 65.2419 16.7014C65.3662 16.7725 65.4728 16.8702 65.5616 16.9945C65.6504 17.1188 65.6948 17.2697 65.6948 17.4473C65.6948 17.4828 65.677 17.5538 65.6415 17.6604C65.6237 17.7492 65.5793 17.838 65.5083 17.9268C65.4195 18.1043 65.2952 18.2375 65.1354 18.3263C64.9756 18.4151 64.8513 18.4595 64.7625 18.4595C64.4073 18.4595 64.0521 18.4329 63.697 18.3796C63.3418 18.3086 62.9778 18.273 62.6049 18.273C62.5161 18.273 62.4362 18.2819 62.3651 18.2997C62.3119 18.2997 62.2408 18.3174 62.152 18.3529C62.01 18.3885 61.8768 18.424 61.7525 18.4595C61.6459 18.4773 61.5305 18.495 61.4062 18.5128C61.3174 18.5305 61.2375 18.5394 61.1665 18.5394C61.0954 18.5394 61.0155 18.5483 60.9267 18.566C60.7847 18.566 60.7048 18.5749 60.687 18.5927C60.6337 18.5927 60.5183 18.6282 60.3407 18.6992C60.2697 18.717 60.1809 18.7436 60.0743 18.7791C59.9145 18.8324 59.7902 18.8591 59.7014 18.8591C59.6126 18.8591 59.4883 18.8147 59.3285 18.7259C59.1864 18.6548 59.0799 18.5305 59.0089 18.3529C58.9733 18.3174 58.9645 18.2997 58.9822 18.2997C58.9467 18.2642 58.8934 18.1931 58.8224 18.0866C58.7869 18.0333 58.7514 17.9712 58.7159 17.9001C58.6981 17.8113 58.6892 17.7137 58.6892 17.6071C58.6892 17.5716 58.6892 17.5272 58.6892 17.4739C58.707 17.4207 58.7336 17.3585 58.7691 17.2875C58.8046 17.2164 58.8846 17.1454 59.0089 17.0744C59.1509 16.9856 59.3019 16.9057 59.4617 16.8346C59.6215 16.7458 59.7725 16.6748 59.9145 16.6215C60.0566 16.5683 60.1543 16.5416 60.2075 16.5416L60.2608 16.515Z" fill="#4596FF"/>
<path d="M58.8295 18.9924C58.794 19.2765 58.7585 19.5606 58.7229 19.8448C58.7052 20.1466 58.6519 20.4308 58.5631 20.6971C58.4921 20.9635 58.3767 21.2121 58.2168 21.443C58.057 21.6738 57.8262 21.8603 57.5243 22.0024C57.471 22.0556 57.4177 22.0912 57.3645 22.1089C57.3467 22.1267 57.3289 22.1355 57.3112 22.1355C57.2934 22.1533 57.2757 22.1711 57.2579 22.1888C57.1514 22.2599 57.0626 22.3309 56.9915 22.4019C56.9205 22.4552 56.8406 22.5085 56.7518 22.5617C56.6808 22.6328 56.6009 22.7038 56.5121 22.7748C55.8195 23.0945 55.1269 23.3786 54.4344 23.6272C53.7418 23.8758 52.9516 24.0001 52.0637 24.0001C51.5664 24.0001 51.0781 23.9557 50.5986 23.867C50.1369 23.7959 49.6752 23.7071 49.2135 23.6006C49.1425 23.5651 49.0448 23.5384 48.9205 23.5207C48.814 23.5029 48.6896 23.4763 48.5476 23.4408C48.4765 23.423 48.4055 23.4052 48.3345 23.3875C48.2635 23.3875 48.2013 23.3697 48.148 23.3342C48.0947 23.3165 48.0237 23.2987 47.9349 23.2809C47.8639 23.2632 47.7929 23.2365 47.7218 23.201C47.6153 23.1478 47.4821 23.0501 47.3223 22.908C47.1802 22.766 47.0381 22.6061 46.8961 22.4286C46.754 22.2687 46.6297 22.1178 46.5232 21.9757C46.4166 21.8337 46.3545 21.736 46.3367 21.6827C46.2479 21.5584 46.2035 21.443 46.2035 21.3364C46.1858 21.2299 46.1769 21.1322 46.1769 21.0434C46.1769 20.9014 46.1946 20.7327 46.2302 20.5373C46.2657 20.342 46.3189 20.1466 46.39 19.9513C46.4432 19.7737 46.5232 19.605 46.6297 19.4452C46.7363 19.3031 46.8606 19.1877 47.0026 19.0989C47.0381 19.0634 47.0825 19.019 47.1358 18.9657C47.1891 18.9302 47.2335 18.8947 47.269 18.8592C47.3933 18.7704 47.5087 18.6727 47.6153 18.5662C47.7218 18.4419 47.8373 18.3353 47.9616 18.2465C48.0148 18.1755 48.0947 18.0867 48.2013 17.9802C48.1835 17.9624 48.1658 17.9535 48.148 17.9535C48.1303 17.9358 48.1125 17.9091 48.0947 17.8736C47.8461 17.6783 47.6419 17.4119 47.4821 17.0745C47.34 16.7371 47.269 16.4441 47.269 16.1955C47.269 16.1067 47.2868 16.0445 47.3223 16.009C47.3755 15.9557 47.4466 15.8936 47.5354 15.8226C47.5709 15.7515 47.5975 15.6894 47.6153 15.6361C47.6863 15.5296 47.7307 15.4674 47.7485 15.4496C47.784 15.3431 47.8373 15.2543 47.9083 15.1833C48.0681 14.9879 48.2457 14.8015 48.441 14.6239C48.6364 14.4463 48.8317 14.2599 49.027 14.0645L49.0537 14.0379C48.9471 13.9668 48.8583 13.8781 48.7873 13.7715C48.7163 13.6472 48.6541 13.5318 48.6009 13.4252C48.5121 13.3009 48.4322 13.1766 48.3611 13.0523C48.3078 12.928 48.2457 12.7948 48.1747 12.6527C48.1391 12.5817 48.1214 12.5107 48.1214 12.4396C48.1214 12.3686 48.1125 12.2887 48.0947 12.1999C48.0237 12.0934 47.9527 11.9868 47.8817 11.8803C47.8106 11.7737 47.7396 11.6672 47.6686 11.5606C47.5798 11.4363 47.5087 11.3031 47.4555 11.1611C47.4022 11.0012 47.3755 10.8148 47.3755 10.6017C47.3755 10.4951 47.3933 10.3264 47.4288 10.0956C47.4821 9.86473 47.5442 9.625 47.6153 9.37639C47.6863 9.12777 47.7662 8.88804 47.855 8.65718C47.9438 8.42633 48.0237 8.25763 48.0947 8.15108C48.2013 8.00902 48.3522 7.84031 48.5476 7.64497C48.7607 7.43188 48.9827 7.22766 49.2135 7.03232C49.4621 6.83698 49.7107 6.65052 49.9593 6.47294C50.208 6.29536 50.4388 6.17106 50.6519 6.10002C50.6874 6.08227 50.7052 6.07339 50.7052 6.07339C50.7229 6.07339 50.7496 6.06451 50.7851 6.04675C50.8384 6.01123 50.8828 5.9846 50.9183 5.96684C50.9716 5.93132 51.0248 5.90469 51.0781 5.88693C51.2557 5.83365 51.4333 5.79814 51.6108 5.78038C51.8062 5.76262 51.966 5.75374 52.0903 5.75374C52.4632 5.75374 52.8717 5.79814 53.3156 5.88693C53.4222 5.90469 53.5198 5.93132 53.6086 5.96684C53.6974 6.00235 53.7773 6.03787 53.8484 6.07339C53.7951 5.96684 53.7684 5.83365 53.7684 5.67383C53.7684 5.30091 53.9016 4.95463 54.168 4.63499C54.4344 4.31534 54.8694 4.15552 55.4732 4.15552C55.9704 4.15552 56.3966 4.2887 56.7518 4.55507C57.1247 4.80369 57.3112 5.18548 57.3112 5.70047C57.3112 6.41079 57.0626 7.0412 56.5653 7.5917C56.7252 7.78704 56.885 8.00014 57.0448 8.23099C57.2224 8.44409 57.3289 8.58615 57.3645 8.65718C57.4 8.79925 57.4177 8.88804 57.4177 8.92355V9.16329V9.50957C57.4177 9.54509 57.4177 9.57172 57.4177 9.58948C57.4355 9.58948 57.4444 9.60724 57.4444 9.64276C57.4621 9.69603 57.471 9.81146 57.471 9.98904C57.471 10.1844 57.4444 10.3708 57.3911 10.5484C57.3556 10.726 57.3378 10.9125 57.3378 11.1078C57.3733 11.1788 57.4 11.241 57.4177 11.2943C57.4355 11.3475 57.4444 11.4008 57.4444 11.4541C57.4444 11.5784 57.4177 11.7027 57.3645 11.827C57.3289 11.9335 57.2934 12.0312 57.2579 12.12C57.2046 12.2088 57.1514 12.2976 57.0981 12.3864C57.0626 12.4574 57.027 12.5284 56.9915 12.5995C56.9027 12.7238 56.814 12.8392 56.7252 12.9458C56.6541 13.0523 56.5742 13.15 56.4854 13.2388C56.3256 13.3453 56.1658 13.4785 56.006 13.6383C55.9704 13.6738 55.9261 13.7182 55.8728 13.7715C55.8195 13.807 55.7574 13.8514 55.6863 13.9047C55.6508 13.958 55.5975 14.0201 55.5265 14.0911C55.4555 14.1444 55.3933 14.1888 55.34 14.2243C55.2868 14.2421 55.2424 14.2599 55.2069 14.2776C55.047 14.3309 54.8694 14.3575 54.6741 14.3575C54.6031 14.3575 54.5676 14.3575 54.5676 14.3575C54.532 14.393 54.4965 14.4286 54.461 14.4641C54.4255 14.4996 54.39 14.5351 54.3545 14.5706C54.2302 14.6239 54.0881 14.6772 53.9283 14.7304C53.7507 14.7837 53.5731 14.7926 53.3955 14.7571H53.0759C52.9871 14.7748 52.8983 14.7926 52.8095 14.8103C52.7207 14.8103 52.6231 14.8192 52.5165 14.837C52.2857 14.8903 52.0548 14.9169 51.8239 14.9169C51.7707 14.9169 51.673 14.908 51.5309 14.8903C51.3889 14.8725 51.3001 14.8459 51.2646 14.8103C51.229 14.7926 51.2113 14.7837 51.2113 14.7837C51.087 14.8725 50.9893 14.9791 50.9183 15.1034C50.7585 15.2809 50.6785 15.4408 50.6785 15.5828C50.7496 15.6183 50.8206 15.645 50.8916 15.6627C50.9627 15.6805 51.0248 15.6983 51.0781 15.716C51.5931 15.7693 52.1081 15.7959 52.6231 15.7959C52.8184 15.7959 53.0137 15.7782 53.2091 15.7426C53.4044 15.7071 53.5997 15.6894 53.7951 15.6894C54.239 15.6894 54.7363 15.7249 55.2868 15.7959C55.855 15.8492 56.37 15.9735 56.8317 16.1688C57.0626 16.2576 57.2934 16.4086 57.5243 16.6217C57.7551 16.817 57.9682 17.0479 58.1636 17.3142C58.3589 17.5806 58.5187 17.8647 58.643 18.1666C58.7673 18.4508 58.8295 18.726 58.8295 18.9924ZM50.0393 19.2055C49.9682 19.3653 49.9061 19.5251 49.8528 19.6849C49.8173 19.8448 49.7995 19.9957 49.7995 20.1378C49.7995 20.3509 49.835 20.5284 49.9061 20.6705C49.9593 20.7948 50.128 20.9369 50.4122 21.0967C50.7141 21.2565 50.9627 21.3542 51.158 21.3897C51.4777 21.4075 51.7973 21.4252 52.1169 21.443C52.4543 21.4607 52.774 21.4696 53.0759 21.4696H53.3156C53.3867 21.4696 53.4222 21.4607 53.4222 21.443C53.7063 21.4075 54.097 21.3187 54.5942 21.1766C54.7007 21.1411 54.8073 21.1056 54.9138 21.0701C55.0204 21.0523 55.1181 21.0257 55.2069 20.9902C55.2601 20.9724 55.3312 20.9635 55.4199 20.9635C55.4377 20.9458 55.4555 20.928 55.4732 20.9102C55.5087 20.8925 55.5354 20.8747 55.5531 20.857C55.5886 20.8215 55.6242 20.7859 55.6597 20.7504C55.713 20.7149 55.7574 20.6794 55.7929 20.6439C55.8817 20.5551 55.9616 20.4752 56.0326 20.4041C56.1036 20.3331 56.1569 20.2798 56.1924 20.2443V20.0046C56.2279 19.8625 56.2635 19.7471 56.299 19.6583C56.37 19.5873 56.4233 19.5251 56.4588 19.4718C56.4588 19.4363 56.4499 19.4008 56.4322 19.3653C56.4322 19.3475 56.4233 19.312 56.4055 19.2587C56.3878 19.2232 56.3789 19.1966 56.3789 19.1788C56.3789 19.1611 56.37 19.1344 56.3522 19.0989C56.2812 19.0279 56.1303 18.9746 55.8994 18.9391C55.6863 18.9036 55.4466 18.8681 55.1802 18.8325C54.9316 18.8148 54.683 18.797 54.4344 18.7793C54.2035 18.7793 54.0348 18.7793 53.9283 18.7793C53.5731 18.7793 53.2179 18.7882 52.8628 18.8059C52.5254 18.8414 52.1791 18.8592 51.8239 18.8592C51.6819 18.8592 51.5309 18.8592 51.3711 18.8592C51.2113 18.8592 51.0603 18.8414 50.9183 18.8059C50.794 18.8059 50.7141 18.797 50.6785 18.7793C50.643 18.7615 50.6164 18.7526 50.5986 18.7526C50.5809 18.7526 50.5454 18.7704 50.4921 18.8059C50.4566 18.8414 50.3767 18.9125 50.2524 19.019C50.2168 19.0545 50.1813 19.0812 50.1458 19.0989C50.1103 19.1344 50.0748 19.17 50.0393 19.2055ZM51.5043 12.0401C51.6286 12.0756 51.7263 12.12 51.7973 12.1733C51.8328 12.191 51.8683 12.2177 51.9039 12.2532C51.9394 12.2887 51.9838 12.3331 52.037 12.3864C52.1436 12.4574 52.2146 12.5196 52.2501 12.5728C52.3034 12.6084 52.3478 12.6439 52.3833 12.6794C52.4188 12.6971 52.4632 12.7238 52.5165 12.7593C52.5875 12.7948 52.7118 12.8481 52.8894 12.9191C52.9249 12.9014 52.9516 12.9014 52.9693 12.9191C53.0049 12.9191 53.0404 12.9102 53.0759 12.8925C53.2179 12.857 53.3067 12.8303 53.3423 12.8126L53.4222 12.7327C53.4577 12.6971 53.4754 12.6705 53.4754 12.6527C53.4932 12.635 53.5198 12.6084 53.5554 12.5728C53.5909 12.5373 53.6175 12.5107 53.6353 12.4929C53.6708 12.4574 53.7063 12.4219 53.7418 12.3864C53.7596 12.3509 53.7862 12.3242 53.8217 12.3065C53.8572 12.2709 53.8928 12.2354 53.9283 12.1999C53.9638 12.1822 54.0082 12.1466 54.0615 12.0934C54.0792 12.0756 54.1059 12.0401 54.1414 11.9868C54.1414 11.9691 54.1414 11.9513 54.1414 11.9335C54.1591 11.898 54.168 11.8625 54.168 11.827V11.5606V11.1344C54.168 11.0812 54.1591 11.0279 54.1414 10.9746C54.1414 10.9213 54.1325 10.8592 54.1147 10.7882C54.1147 10.7349 54.1059 10.6994 54.0881 10.6816L53.9283 10.362C53.9105 10.2554 53.8839 10.1755 53.8484 10.1222C53.8484 10.0157 53.8395 9.92688 53.8217 9.85585V9.61612V9.48293C53.7152 9.42966 53.6175 9.35863 53.5287 9.26984C53.4932 9.25208 53.4577 9.22544 53.4222 9.18993C53.3866 9.13665 53.3511 9.09226 53.3156 9.05674C53.1203 8.96795 52.9871 8.87028 52.9161 8.76373C52.8805 8.67494 52.8539 8.60391 52.8361 8.55064C52.8184 8.4796 52.8006 8.41745 52.7829 8.36418C52.7829 8.3109 52.7651 8.21323 52.7296 8.07117V7.99126C52.6408 8.00902 52.5609 8.01789 52.4899 8.01789C52.4188 8.01789 52.3656 8.01789 52.33 8.01789C52.2057 8.01789 52.0903 8.05341 51.9838 8.12444C51.8772 8.19548 51.7618 8.23099 51.6375 8.23099C51.5487 8.28426 51.4688 8.31978 51.3977 8.33754C51.3445 8.3553 51.3001 8.38193 51.2646 8.41745C51.2468 8.41745 51.2113 8.45297 51.158 8.524C51.1047 8.63055 51.0692 8.74597 51.0515 8.87028C51.0515 8.99459 51.0515 9.11889 51.0515 9.2432C51.0515 9.47405 51.0692 9.70491 51.1047 9.93576C51.1403 10.1489 51.1758 10.362 51.2113 10.5751C51.229 10.6638 51.229 10.7526 51.2113 10.8414C51.2113 10.9302 51.2202 11.019 51.2379 11.1078C51.2557 11.2499 51.2912 11.4363 51.3445 11.6672C51.4155 11.8803 51.4688 12.0046 51.5043 12.0401Z" fill="#4596FF"/>
<path d="M33.9599 18.8857C33.7112 18.8146 33.5248 18.6814 33.4005 18.4861C33.2584 18.2908 33.1874 18.0688 33.1874 17.8202C33.1874 17.4295 33.2939 17.1542 33.507 16.9944C33.7201 16.8346 33.9421 16.7192 34.173 16.6481C34.2085 16.6481 34.2795 16.6304 34.386 16.5949C34.4216 16.5771 34.4571 16.5682 34.4926 16.5682C34.5281 16.515 34.5636 16.4794 34.5991 16.4617C34.6347 16.4262 34.6613 16.3906 34.6791 16.3551V16.3818L34.8655 16.0089V15.7958C34.8655 15.6714 34.8744 15.556 34.8922 15.4495C34.9277 15.3252 34.9454 15.2097 34.9454 15.1032V14.9434C34.8744 14.8723 34.8389 14.8279 34.8389 14.8102C34.8389 14.7214 34.8833 14.6148 34.9721 14.4905C34.9721 14.4017 34.9721 14.3307 34.9721 14.2774C34.9898 14.2064 34.9987 14.1443 34.9987 14.091C34.8744 13.8779 34.8122 13.7092 34.8122 13.5849C34.8122 13.4783 34.83 13.3718 34.8655 13.2652C34.8122 13.1587 34.7856 13.0433 34.7856 12.9189V11.8268C34.7856 11.667 34.7945 11.5161 34.8122 11.374C34.8478 11.2319 34.8655 11.0899 34.8655 10.9478C34.8655 10.9123 34.8566 10.8857 34.8389 10.8679C34.8389 10.7969 34.83 10.7436 34.8122 10.7081C34.8122 10.6726 34.8034 10.6459 34.7856 10.6282C34.7856 10.6104 34.7856 10.5838 34.7856 10.5482C34.7678 10.495 34.759 10.4062 34.759 10.2819C34.759 10.1043 34.7678 9.9356 34.7856 9.77577C34.8211 9.61595 34.8389 9.43837 34.8389 9.24303C34.8389 9.18976 34.8389 9.1276 34.8389 9.05657C34.8389 8.98554 34.83 8.91451 34.8122 8.84348C34.7767 8.73693 34.7501 8.67477 34.7323 8.65702L34.6258 8.52383L34.5991 8.33737L34.466 8.20419C34.3061 8.13315 34.1463 8.04436 33.9865 7.93782C33.7379 7.77799 33.6136 7.55602 33.6136 7.27189C33.6136 7.1831 33.6225 7.11207 33.6402 7.05879C33.658 6.98776 33.6668 6.91673 33.6668 6.84569C33.6668 6.81018 33.6491 6.78354 33.6136 6.76578C33.5781 6.74803 33.5603 6.72139 33.5603 6.68587C33.5603 6.52605 33.6313 6.38399 33.7734 6.25968C33.8267 6.20641 33.8711 6.17089 33.9066 6.15313C34.0131 6.06434 34.1286 6.00219 34.2529 5.96667C34.3949 5.9134 34.4837 5.88676 34.5192 5.88676C34.537 5.88676 34.5547 5.9134 34.5725 5.96667C34.5903 6.00219 34.6169 6.01995 34.6524 6.01995C34.83 6.01995 35.0165 6.01107 35.2118 5.99331C35.4071 5.97555 35.5758 5.94891 35.7179 5.9134C35.931 5.84236 36.1263 5.77133 36.3039 5.7003C36.4993 5.62927 36.6946 5.54936 36.8899 5.46057C36.9965 5.42505 37.0764 5.38953 37.1297 5.35402C37.1652 5.33626 37.2096 5.3185 37.2629 5.30074C37.3339 5.26523 37.4138 5.22971 37.5026 5.1942C37.5203 5.1942 37.5381 5.20307 37.5559 5.22083C37.5736 5.22083 37.6003 5.21195 37.6358 5.1942L38.0353 5.08765L38.3017 5.30074C38.355 5.35402 38.426 5.44281 38.5148 5.56711C38.6036 5.69142 38.648 5.78909 38.648 5.86012C38.648 5.98443 38.6391 6.09986 38.6213 6.20641C38.6036 6.2952 38.5947 6.40174 38.5947 6.52605C38.5947 6.61484 38.6036 6.67699 38.6213 6.71251C38.7101 6.64148 38.7989 6.57932 38.8877 6.52605C38.9765 6.45502 39.0742 6.37511 39.1807 6.28632C39.2695 6.19753 39.3583 6.12649 39.4471 6.07322C39.5536 6.00219 39.6513 5.94003 39.7401 5.88676C39.9177 5.7447 40.113 5.64703 40.3261 5.59375C40.5747 5.50496 40.8145 5.45169 41.0453 5.43393C41.2939 5.39841 41.5425 5.38065 41.7912 5.38065C41.8977 5.38065 42.0309 5.38953 42.1907 5.40729C42.3505 5.42505 42.5192 5.45169 42.6968 5.4872C42.8744 5.52272 43.0342 5.56711 43.1763 5.62039C43.3361 5.67366 43.4693 5.72694 43.5758 5.78021C43.6824 5.83349 43.7801 5.90452 43.8688 5.99331C43.9754 6.0821 44.0553 6.19753 44.1086 6.33959C44.1263 6.37511 44.1352 6.41062 44.1352 6.44614C44.1352 6.48165 44.1441 6.51717 44.1619 6.55269H44.2418C44.295 6.5882 44.3483 6.61484 44.4016 6.6326C44.4549 6.6326 44.4993 6.65036 44.5348 6.68587C44.8367 6.88121 45.0498 7.09431 45.1741 7.32516C45.3161 7.55602 45.4227 7.84015 45.4937 8.17755C45.5115 8.2841 45.5203 8.4084 45.5203 8.55047C45.5203 8.67477 45.5203 8.8346 45.5203 9.02994C45.5203 9.08321 45.5203 9.13648 45.5203 9.18976C45.5381 9.22527 45.5559 9.27855 45.5736 9.34958L45.6535 9.58931V9.88232C45.6535 9.98887 45.6447 10.0954 45.6269 10.202C45.6091 10.2908 45.6003 10.3884 45.6003 10.495C45.6003 10.5305 45.6091 10.566 45.6269 10.6015C45.6447 10.637 45.6535 10.6726 45.6535 10.7081C45.6535 10.7258 45.6624 10.7525 45.6802 10.788C45.6979 10.8413 45.7157 10.8945 45.7334 10.9478C45.7512 10.9833 45.769 11.0188 45.7867 11.0544C45.8222 11.1964 45.84 11.3296 45.84 11.4539C45.84 11.5605 45.8311 11.6492 45.8134 11.7203C45.8134 11.7558 45.8045 11.7913 45.7867 11.8268C45.7867 11.8623 45.7867 11.8979 45.7867 11.9334C45.769 11.9689 45.7601 11.9955 45.7601 12.0133C45.7601 12.031 45.7512 12.0577 45.7334 12.0932V12.1997C45.7334 12.3418 45.7512 12.475 45.7867 12.5993C45.8222 12.7236 45.84 12.8479 45.84 12.9722C45.84 13.1143 45.8222 13.2475 45.7867 13.3718C45.769 13.4783 45.7601 13.6026 45.7601 13.7447C45.7601 13.9578 45.7512 14.1709 45.7334 14.384C45.7157 14.5793 45.7068 14.7835 45.7068 14.9966C45.7068 15.192 45.7246 15.3873 45.7601 15.5827C45.7956 15.7602 45.8134 15.9467 45.8134 16.142C45.8134 16.2131 45.7956 16.3196 45.7601 16.4617C46.133 16.4617 46.4882 16.5327 46.8256 16.6748C47.0919 16.7636 47.2518 16.8435 47.305 16.9145C47.3761 16.9855 47.4471 17.1187 47.5181 17.3141L47.598 17.4206V17.6071C47.598 17.6603 47.5714 17.7403 47.5181 17.8468C47.5181 17.9356 47.4915 18.0066 47.4382 18.0599C47.3494 18.2552 47.2162 18.3973 47.0387 18.4861C46.8611 18.5749 46.7368 18.6193 46.6657 18.6193C46.2928 18.6193 45.9199 18.5838 45.547 18.5127C45.1918 18.4417 44.8278 18.4062 44.4549 18.4062C44.3661 18.4062 44.2773 18.4151 44.1885 18.4328C44.0997 18.4328 44.002 18.4417 43.8955 18.4595C43.7357 18.5305 43.5314 18.5838 43.2828 18.6193C43.052 18.6726 42.8478 18.6992 42.6702 18.6992H42.4038C42.3683 18.6992 42.315 18.7081 42.244 18.7258C42.1907 18.7613 42.1286 18.7969 42.0575 18.8324C42.0043 18.8501 41.9599 18.859 41.9243 18.859C41.8888 18.8768 41.8533 18.8945 41.8178 18.9123C41.658 18.9656 41.5248 18.9922 41.4182 18.9922C41.3294 18.9922 41.214 18.9478 41.072 18.859C40.9299 18.788 40.8145 18.6814 40.7257 18.5394C40.7257 18.4861 40.7168 18.4595 40.699 18.4595C40.6813 18.4239 40.6369 18.3707 40.5658 18.2996C40.4415 18.1576 40.3794 17.9978 40.3794 17.8202C40.3794 17.7491 40.3972 17.6426 40.4327 17.5005L40.4859 17.3407L40.699 17.2075C40.7346 17.1898 40.7967 17.1542 40.8855 17.101C40.992 17.0477 41.0897 16.9944 41.1785 16.9411C41.2851 16.9234 41.3827 16.879 41.4715 16.808C41.5603 16.7724 41.6225 16.7458 41.658 16.7281C41.7112 16.7103 41.7556 16.6925 41.7912 16.6748C41.8267 16.6748 41.8622 16.6748 41.8977 16.6748C41.9332 16.657 41.9687 16.6481 42.0043 16.6481C42.0043 16.6304 41.9954 16.6126 41.9776 16.5949C41.9776 16.5416 41.9687 16.5061 41.951 16.4883V16.2486C41.951 16 42.0043 15.8046 42.1108 15.6626C42.093 15.6271 42.0842 15.6004 42.0842 15.5827C42.1019 15.5649 42.1019 15.5471 42.0842 15.5294C42.0486 15.4406 42.0131 15.3518 41.9776 15.263C41.9599 15.1565 41.951 15.0322 41.951 14.8901C41.951 14.7658 41.9776 14.6504 42.0309 14.5438C42.0309 14.5261 42.0309 14.5172 42.0309 14.5172C42.0487 14.4994 42.0575 14.4817 42.0575 14.4639C42.022 14.3751 41.9954 14.2952 41.9776 14.2242C41.9599 14.1531 41.951 14.0732 41.951 13.9844C41.951 13.7536 41.9687 13.5227 42.0043 13.2919C42.0398 13.061 42.0575 12.8302 42.0575 12.5993C42.0575 12.4572 42.0487 12.3241 42.0309 12.1997C42.0131 12.0754 41.9865 11.96 41.951 11.8535C41.8977 11.5338 41.8533 11.2763 41.8178 11.081C41.8 10.8857 41.7912 10.6193 41.7912 10.2819C41.7912 10.1931 41.7734 10.1309 41.7379 10.0954C41.6136 9.84681 41.5514 9.68698 41.5514 9.61595C41.5514 9.5094 41.5603 9.41173 41.5781 9.32294C41.5958 9.23415 41.6136 9.13648 41.6313 9.02994C41.5958 8.99442 41.5603 8.9589 41.5248 8.92339C41.507 8.88787 41.4804 8.85236 41.4449 8.81684C41.3561 8.74581 41.2762 8.68365 41.2051 8.63038C41.1341 8.55935 41.072 8.50607 41.0187 8.47056C41.0009 8.4528 40.992 8.4528 40.992 8.47056C40.992 8.47056 40.9743 8.46168 40.9388 8.44392C40.85 8.42616 40.7434 8.41728 40.6191 8.41728H40.4859C40.3084 8.48831 40.1485 8.52383 40.0065 8.52383C39.8289 8.55935 39.6957 8.5771 39.6069 8.5771C39.5714 8.59486 39.5448 8.61262 39.527 8.63038C39.5092 8.63038 39.4826 8.64814 39.4471 8.68365C39.3938 8.73693 39.3317 8.7902 39.2606 8.84348C39.1896 8.89675 39.1186 8.96778 39.0475 9.05657C38.8522 9.19864 38.6924 9.33182 38.5681 9.45613C38.4615 9.58043 38.3994 9.65147 38.3816 9.66923C38.3283 9.68698 38.3017 9.77577 38.3017 9.9356C38.3017 9.98887 38.3195 10.0333 38.355 10.0688C38.3727 10.1221 38.3994 10.1842 38.4349 10.2552C38.4704 10.3618 38.4882 10.4683 38.4882 10.5749V11.1875C38.4882 11.2941 38.4704 11.4006 38.4349 11.5072C38.4349 11.5605 38.426 11.6137 38.4082 11.667C38.4082 11.7025 38.3994 11.7469 38.3816 11.8002C38.3639 11.8357 38.3461 11.8712 38.3283 11.9067C38.3283 11.9245 38.3195 11.9511 38.3017 11.9867V12.7325C38.3017 12.7858 38.3017 12.839 38.3017 12.8923C38.3195 12.9456 38.3283 12.9989 38.3283 13.0521C38.3283 13.0877 38.3283 13.1232 38.3283 13.1587C38.3461 13.1764 38.355 13.1942 38.355 13.212C38.3905 13.3185 38.4082 13.3895 38.4082 13.4251C38.4082 13.5849 38.3639 13.7269 38.2751 13.8512C38.2751 13.869 38.2662 13.8868 38.2484 13.9045C38.2484 13.9045 38.2484 13.9223 38.2484 13.9578C38.3727 14.1354 38.4349 14.2863 38.4349 14.4106C38.4349 14.5349 38.4082 14.6504 38.355 14.7569C38.3905 14.8279 38.426 14.9167 38.4615 15.0233C38.5148 15.2541 38.5414 15.4939 38.5414 15.7425C38.5592 15.9911 38.5681 16.2308 38.5681 16.4617C38.5681 16.4794 38.5503 16.5061 38.5148 16.5416C38.5681 16.5594 38.6213 16.5771 38.6746 16.5949C38.7456 16.5949 38.7989 16.6037 38.8344 16.6215C39.1008 16.6748 39.2961 16.7724 39.4205 16.9145C39.456 16.9323 39.5092 16.9944 39.5803 17.101C39.6691 17.2963 39.7135 17.4206 39.7135 17.4739C39.7312 17.5094 39.7401 17.536 39.7401 17.5538C39.7579 17.5893 39.7667 17.616 39.7667 17.6337C39.7667 17.6515 39.7756 17.6781 39.7934 17.7136L39.9266 18.3796L39.1274 18.3529C38.9854 18.3352 38.8433 18.3263 38.7013 18.3263C38.5769 18.3263 38.4438 18.3263 38.3017 18.3263C38.1952 18.3263 38.0797 18.3263 37.9554 18.3263C37.8489 18.3263 37.7334 18.3352 37.6091 18.3529C37.4848 18.3884 37.3605 18.4062 37.2362 18.4062C37.1297 18.4062 37.0142 18.4151 36.8899 18.4328H36.224C36.0819 18.4328 35.9221 18.4417 35.7445 18.4595C35.5847 18.4595 35.4338 18.4772 35.2917 18.5127C35.1319 18.5483 34.9987 18.5838 34.8922 18.6193C34.7856 18.6548 34.7146 18.6903 34.6791 18.7258L34.386 19.0455L33.9599 18.8857Z" fill="#4596FF"/>
<path d="M23.788 18.0598C23.4506 17.9887 23.202 17.8733 23.0422 17.7135C22.8823 17.5537 22.7314 17.3228 22.5893 17.0209C22.5361 16.9144 22.4828 16.8078 22.4295 16.7013C22.3762 16.577 22.323 16.4704 22.2697 16.3816C22.1809 16.1863 22.0743 15.9998 21.95 15.8223C21.8257 15.6447 21.7192 15.4582 21.6304 15.2629C21.5238 15.0675 21.4706 14.8544 21.4706 14.6236C21.4706 14.4815 21.4794 14.3483 21.4972 14.224C21.5327 14.082 21.5505 13.9399 21.5505 13.7978C21.515 13.7268 21.4794 13.6647 21.4439 13.6114C21.4084 13.5581 21.3551 13.4604 21.2841 13.3184C21.2486 13.2651 21.2308 13.123 21.2308 12.8922C21.2308 12.8389 21.2308 12.7856 21.2308 12.7324C21.2308 12.6613 21.2397 12.5992 21.2575 12.5459C21.293 12.4926 21.3107 12.4482 21.3107 12.4127C21.3285 12.3594 21.3551 12.315 21.3907 12.2795C21.4262 12.2085 21.4439 12.1463 21.4439 12.0931C21.4617 12.0753 21.4706 12.0487 21.4706 12.0132C21.4706 11.9954 21.4617 11.9776 21.4439 11.9599C21.4439 11.9421 21.4439 11.9244 21.4439 11.9066C21.4084 11.8001 21.3907 11.7379 21.3907 11.7202C21.3551 11.5781 21.3374 11.4982 21.3374 11.4804C21.3374 11.3384 21.3551 11.2052 21.3907 11.0809C21.4439 10.9388 21.4883 10.8234 21.5238 10.7346C21.5416 10.6991 21.5505 10.6635 21.5505 10.628C21.5682 10.5925 21.586 10.557 21.6038 10.5215C21.6215 10.486 21.6304 10.4682 21.6304 10.4682C21.6304 10.3794 21.6215 10.2995 21.6038 10.2285C21.586 10.1574 21.5771 10.0953 21.5771 10.042C21.5771 9.81116 21.6126 9.55367 21.6837 9.26954C21.7725 8.96765 21.8701 8.66577 21.9767 8.36388C22.101 8.06199 22.2253 7.77787 22.3496 7.51149C22.4917 7.24512 22.616 7.02315 22.7225 6.84557C22.7758 6.75678 22.8291 6.67687 22.8823 6.60583C22.9534 6.5348 23.0155 6.45489 23.0688 6.3661C23.2464 6.09973 23.4595 5.87775 23.7081 5.70017C23.9745 5.50483 24.2586 5.35389 24.5605 5.24734C24.6493 5.21183 24.7292 5.19407 24.8002 5.19407C24.889 5.17631 24.9689 5.14967 25.0399 5.11416L25.4395 4.95433C25.5816 4.86554 25.7236 4.81227 25.8657 4.79451C26.0255 4.759 26.1765 4.74124 26.3185 4.74124C26.4606 4.72348 26.5849 4.7146 26.6914 4.7146C26.8157 4.7146 26.9312 4.7146 27.0377 4.7146C27.1443 4.7146 27.2952 4.7146 27.4906 4.7146C27.6859 4.7146 27.8812 4.72348 28.0766 4.74124C28.2009 4.74124 28.3074 4.75012 28.3962 4.76788C28.5028 4.76788 28.6004 4.77675 28.6892 4.79451C28.778 4.83003 28.8757 4.86554 28.9822 4.90106C29.1065 4.91882 29.2131 4.95433 29.3019 5.00761C29.3019 5.00761 29.3374 5.02537 29.4084 5.06088C29.4617 5.07864 29.5061 5.08752 29.5416 5.08752C29.5949 5.08752 29.6482 5.10528 29.7014 5.14079C30.0388 5.21183 30.2874 5.41604 30.4473 5.75345C30.4828 5.78896 30.5094 5.8156 30.5272 5.83336C30.5627 5.85112 30.5982 5.87775 30.6337 5.91327C30.7048 5.94878 30.7669 5.99318 30.8202 6.04645C30.8912 6.09973 30.9623 6.153 31.0333 6.20628C31.1398 6.31283 31.2197 6.43713 31.273 6.5792C31.5394 6.86333 31.788 7.20961 32.0189 7.61804C32.2497 8.00872 32.445 8.42603 32.6049 8.86998C32.7647 9.29618 32.889 9.73125 32.9778 10.1752C33.0666 10.6192 33.111 11.0453 33.111 11.4538C33.111 11.7912 33.0755 12.1996 33.0044 12.6791C32.9512 13.1408 32.8535 13.6114 32.7114 14.0909C32.5871 14.5703 32.4184 15.0409 32.2053 15.5026C32.01 15.9466 31.7791 16.3284 31.5128 16.648C31.4417 16.7368 31.3352 16.8611 31.1931 17.0209C31.0688 17.1808 30.9179 17.3406 30.7403 17.5004C30.5805 17.678 30.4206 17.8378 30.2608 17.9799C30.1187 18.1219 29.9145 18.2374 29.6482 18.3261C29.5594 18.3617 29.4617 18.3972 29.3551 18.4327C29.2486 18.4505 29.1421 18.4771 29.0355 18.5126C28.8579 18.5304 28.7159 18.5748 28.6093 18.6458C28.5738 18.6636 28.5028 18.6902 28.3962 18.7257C28.1831 18.8145 28.0144 18.8589 27.8901 18.8589C27.8013 18.8589 27.7214 18.85 27.6504 18.8323C27.5793 18.8145 27.4994 18.7967 27.4106 18.779C27.3929 18.7612 27.3662 18.7523 27.3307 18.7523H27.1975C27.162 18.7701 27.1176 18.7879 27.0644 18.8056C27.0111 18.8234 26.9667 18.8411 26.9312 18.8589C26.8601 18.8944 26.7536 18.9299 26.6115 18.9654C26.4695 19.0365 26.3096 19.072 26.1321 19.072C25.8657 19.072 25.5727 19.001 25.253 18.8589C24.9511 18.7346 24.7114 18.628 24.5338 18.5392C24.4983 18.5037 24.4539 18.4771 24.4006 18.4593C24.3651 18.4238 24.3296 18.3883 24.2941 18.3528C24.2408 18.2995 24.1787 18.2551 24.1076 18.2196C24.0188 18.1486 23.9656 18.1131 23.9478 18.1131C23.9123 18.0953 23.8857 18.0864 23.8679 18.0864C23.8501 18.0864 23.8235 18.0775 23.788 18.0598ZM26.1853 15.3428C26.3274 15.4138 26.4783 15.4937 26.6382 15.5825C26.8157 15.6713 27.0022 15.7601 27.1975 15.8489C27.5705 16.0265 27.8368 16.1153 27.9967 16.1153C28.0499 16.0798 28.121 16.0442 28.2098 16.0087C28.2985 15.9554 28.3785 15.9111 28.4495 15.8755C28.5205 15.84 28.5827 15.8045 28.6359 15.769C28.6892 15.7335 28.7425 15.698 28.7958 15.6624C28.8313 15.6269 28.8757 15.5914 28.929 15.5559C28.9822 15.5204 29.0266 15.4849 29.0621 15.4493C29.0799 15.4316 29.0888 15.4138 29.0888 15.3961C29.1065 15.3783 29.1243 15.3606 29.1421 15.3428C29.1776 15.2718 29.222 15.1652 29.2752 15.0232C29.3463 14.8811 29.4084 14.7301 29.4617 14.5703C29.5327 14.4105 29.586 14.2684 29.6215 14.1441C29.6748 14.0021 29.7014 13.9044 29.7014 13.8511C29.7014 13.7801 29.7014 13.7179 29.7014 13.6647C29.7192 13.5936 29.7281 13.5137 29.7281 13.4249C29.7281 13.0342 29.7192 12.6525 29.7014 12.2795C29.6837 11.8889 29.6304 11.5071 29.5416 11.1341C29.5238 11.0986 29.5061 11.0809 29.4883 11.0809C29.4883 11.0631 29.4795 11.0365 29.4617 11.001C29.4439 10.9477 29.3995 10.8678 29.3285 10.7612C29.2397 10.6014 29.1776 10.4771 29.1421 10.3883C29.1243 10.2818 29.1154 10.1308 29.1154 9.93547C28.7247 9.65134 28.5294 9.26954 28.5294 8.79007C28.5116 8.71904 28.485 8.63025 28.4495 8.5237C28.3962 8.38164 28.3252 8.16854 28.2364 7.88441C28.2186 7.8489 28.2009 7.8045 28.1831 7.75123C28.1831 7.69795 28.1654 7.65356 28.1298 7.61804V7.56477C28.0233 7.45822 27.8812 7.33391 27.7036 7.19185C27.5438 7.04978 27.384 6.97875 27.2242 6.97875C27.1887 6.97875 27.162 6.98763 27.1443 7.00539C27.0732 7.02315 26.9489 7.07642 26.7713 7.16521C26.6115 7.23624 26.4428 7.32503 26.2652 7.43158C26.0877 7.53813 25.9278 7.64468 25.7858 7.75123C25.6437 7.84002 25.5549 7.91993 25.5194 7.99096C25.3773 8.27509 25.2353 8.55034 25.0932 8.81671C24.9511 9.08308 24.8357 9.35833 24.7469 9.64246C24.5161 10.2107 24.4006 10.7435 24.4006 11.2407C24.4006 11.436 24.4095 11.6047 24.4273 11.7468C24.4628 11.8889 24.4983 12.0309 24.5338 12.173C24.5694 12.3328 24.6049 12.5015 24.6404 12.6791C24.6937 12.8389 24.7381 13.0165 24.7736 13.2118C24.7736 13.2473 24.7736 13.2917 24.7736 13.345C24.7913 13.3983 24.8002 13.4516 24.8002 13.5048C24.8357 13.6114 24.8624 13.7091 24.8801 13.7978C24.9156 13.8866 24.9778 13.9754 25.0666 14.0642C25.1199 14.1352 25.1731 14.2152 25.2264 14.3039C25.2974 14.375 25.3596 14.4549 25.4129 14.5437C25.4484 14.5792 25.4661 14.6147 25.4661 14.6502C25.4839 14.6857 25.5105 14.7213 25.546 14.7568C25.5816 14.8278 25.6082 14.89 25.626 14.9432C25.6437 14.9965 25.6526 15.032 25.6526 15.0498C25.6704 15.0498 25.6881 15.0587 25.7059 15.0764C25.7236 15.0764 25.7947 15.1208 25.919 15.2096C26.061 15.2806 26.1498 15.325 26.1853 15.3428Z" fill="#4596FF"/>
<path d="M1.54495 12.5726V12.4128C1.54495 12.2352 1.54495 12.0665 1.54495 11.9067C1.56271 11.7469 1.57159 11.5782 1.57159 11.4006C1.57159 11.2408 1.57159 11.0987 1.57159 10.9744C1.58935 10.8323 1.59823 10.6903 1.59823 10.5482C1.59823 10.4061 1.58047 10.2907 1.54495 10.2019C1.52719 10.0954 1.51831 9.97995 1.51831 9.85565C1.51831 9.69582 1.52719 9.536 1.54495 9.37618C1.58047 9.21636 1.59823 9.04765 1.59823 8.87007C1.59823 8.79904 1.59823 8.72801 1.59823 8.65698C1.59823 8.56819 1.58047 8.4794 1.54495 8.39061V8.33733C1.50943 8.30182 1.49168 8.2663 1.49168 8.23078C1.42064 8.12423 1.37625 8.01769 1.35849 7.91114C1.28746 7.87562 1.22531 7.84899 1.17203 7.83123C1.13652 7.79571 1.08324 7.76019 1.01221 7.72468C0.958935 7.68916 0.91454 7.65365 0.879024 7.61813C0.665927 7.47607 0.532742 7.36952 0.479467 7.29849C0.426193 7.19194 0.399556 7.06763 0.399556 6.92557C0.399556 6.85453 0.408435 6.7835 0.426193 6.71247C0.443951 6.64144 0.45283 6.57928 0.45283 6.52601C0.45283 6.49049 0.435072 6.46386 0.399556 6.4461C0.36404 6.42834 0.346282 6.4017 0.346282 6.36619C0.346282 6.22412 0.390677 6.1087 0.479467 6.01991C0.568258 5.91336 0.665927 5.81569 0.772475 5.7269C0.861266 5.67362 0.941177 5.62923 1.01221 5.59371C1.08324 5.5582 1.16315 5.54044 1.25194 5.54044C1.30522 5.54044 1.33185 5.5582 1.33185 5.59371C1.34961 5.62923 1.38513 5.64699 1.4384 5.64699C1.61598 5.64699 1.79356 5.64699 1.97114 5.64699C2.14872 5.62923 2.31743 5.59371 2.47725 5.54044C2.56604 5.52268 2.69035 5.48716 2.85017 5.43389C3.00999 5.36286 3.18757 5.28295 3.38291 5.19416C3.48946 5.15864 3.58713 5.132 3.67592 5.11425C3.78247 5.07873 3.87126 5.04321 3.94229 5.0077C4.01332 4.98994 4.10211 4.9633 4.20866 4.92779C4.38624 4.89227 4.48391 4.87451 4.50167 4.87451C4.75028 4.87451 4.94562 4.9633 5.08768 5.14088C5.22975 5.3007 5.30078 5.44277 5.30078 5.56708C5.30078 5.65587 5.2919 5.75353 5.27414 5.86008C5.25638 5.96663 5.24751 6.0643 5.24751 6.15309V6.33955C5.3363 6.26852 5.41621 6.20637 5.48724 6.15309C5.57603 6.09982 5.66482 6.02878 5.75361 5.93999C5.8424 5.86896 5.93119 5.79793 6.01998 5.7269C6.10877 5.65586 6.19756 5.60259 6.28635 5.56708C6.606 5.37174 6.92564 5.23855 7.24529 5.16752C7.56493 5.09649 7.91121 5.06097 8.28413 5.06097C8.4262 5.06097 8.5949 5.07873 8.79024 5.11425C9.00333 5.14976 9.20755 5.18528 9.40289 5.22079C9.63375 5.29183 9.82908 5.37174 9.98891 5.46053C10.0777 5.49604 10.1754 5.5582 10.2819 5.64699C10.3885 5.73578 10.4684 5.8512 10.5216 5.99327C10.5394 6.02878 10.5483 6.0643 10.5483 6.09982C10.5483 6.11758 10.5572 6.14421 10.5749 6.17973C10.6282 6.21524 10.6815 6.25076 10.7347 6.28628C10.8058 6.30404 10.8768 6.33067 10.9478 6.36619C11.0366 6.4017 11.1343 6.46386 11.2408 6.55265C11.3474 6.62368 11.4362 6.73023 11.5072 6.87229C11.6493 7.08539 11.7381 7.29849 11.7736 7.51158L12.0133 7.27185C12.0488 7.23633 12.0844 7.2097 12.1199 7.19194C12.1731 7.17418 12.2175 7.14754 12.2531 7.11203C12.2708 7.09427 12.2886 7.07651 12.3063 7.05875C12.3241 7.04099 12.3507 7.01436 12.3862 6.97884C12.4218 6.94333 12.4573 6.89893 12.4928 6.84566C12.5461 6.79238 12.5905 6.74799 12.626 6.71247C12.8213 6.55265 13.0255 6.38395 13.2386 6.20637C13.4517 6.02878 13.6826 5.86008 13.9312 5.70026C14.0733 5.61147 14.2242 5.54932 14.384 5.5138C14.5616 5.47829 14.7214 5.45165 14.8635 5.43389C15.0056 5.39837 15.1387 5.38062 15.263 5.38062C15.4051 5.38062 15.5294 5.38062 15.636 5.38062C15.7603 5.38062 15.9112 5.38949 16.0888 5.40725C16.2664 5.40725 16.444 5.43389 16.6215 5.48716C16.6748 5.50492 16.7636 5.54044 16.8879 5.59371C17.0122 5.62923 17.1365 5.69138 17.2608 5.78017C17.4029 5.8512 17.5272 5.93999 17.6338 6.04654C17.7581 6.13533 17.838 6.25076 17.8735 6.39282C17.8912 6.42834 17.9001 6.46386 17.9001 6.49937C17.9001 6.51713 17.909 6.54377 17.9268 6.57928C18.4062 6.79238 18.7259 7.04987 18.8857 7.35176C19.0455 7.65365 19.1521 8.03544 19.2053 8.49715V9.18972C19.2053 9.3673 19.2497 9.54488 19.3385 9.72246C19.3385 9.77573 19.3385 9.82901 19.3385 9.88228C19.3563 9.93556 19.3652 9.98883 19.3652 10.0421C19.3652 10.1487 19.3563 10.2641 19.3385 10.3884C19.3208 10.5127 19.3119 10.6281 19.3119 10.7347C19.3119 10.8412 19.3474 10.9655 19.4184 11.1076C19.4362 11.1609 19.454 11.2141 19.4717 11.2674C19.4895 11.3207 19.5072 11.374 19.525 11.4272C19.5605 11.5338 19.5783 11.6581 19.5783 11.8002C19.5783 11.9245 19.5694 12.0221 19.5516 12.0932C19.5339 12.1287 19.525 12.1731 19.525 12.2263C19.525 12.2619 19.5161 12.2974 19.4983 12.3329C19.4983 12.3684 19.4895 12.4039 19.4717 12.4394C19.4717 12.4572 19.4717 12.4838 19.4717 12.5194C19.454 12.5371 19.4451 12.5815 19.4451 12.6525C19.4451 12.7768 19.4628 12.9012 19.4983 13.0255C19.5339 13.132 19.5516 13.2474 19.5516 13.3717C19.5516 13.5316 19.5339 13.6825 19.4983 13.8246C19.4806 13.9666 19.4717 14.1087 19.4717 14.2508C19.4717 14.4461 19.4717 14.6503 19.4717 14.8634C19.4717 15.0588 19.454 15.2541 19.4184 15.4494C19.4007 15.6093 19.3918 15.7691 19.3918 15.9289C19.3918 16.0887 19.3829 16.2663 19.3652 16.4616C19.4184 16.4616 19.4628 16.4883 19.4983 16.5416C19.5339 16.5771 19.5871 16.6126 19.6582 16.6481C19.6582 16.6659 19.6848 16.6747 19.7381 16.6747C19.8091 16.6925 19.8801 16.7103 19.9512 16.728C20.0222 16.728 20.0932 16.7369 20.1643 16.7547C20.3596 16.7902 20.5549 16.879 20.7503 17.021C20.9634 17.1631 21.0699 17.3939 21.0699 17.7136C21.0699 17.7846 21.0255 17.9267 20.9367 18.1398C20.9012 18.1931 20.8657 18.2463 20.8302 18.2996C20.8124 18.3351 20.7947 18.3618 20.7769 18.3795C20.6881 18.5393 20.5638 18.637 20.404 18.6725C20.2619 18.708 20.1465 18.7258 20.0577 18.7258C19.9867 18.7258 19.9245 18.7169 19.8713 18.6992C19.8357 18.6992 19.8002 18.6992 19.7647 18.6992C19.4451 18.6459 19.1165 18.6015 18.7791 18.566C18.4417 18.5305 18.1043 18.5127 17.7669 18.5127C17.5361 18.5127 17.2164 18.5393 16.808 18.5926C16.3996 18.6636 16.0444 18.7347 15.7425 18.8057C15.5649 18.9833 15.3341 19.0721 15.05 19.0721C15.0322 19.0721 14.9789 19.0632 14.8901 19.0454C14.8191 19.0277 14.7658 19.0099 14.7303 18.9922L14.4639 18.8856L14.384 18.6992C14.384 18.6636 14.3751 18.6281 14.3574 18.5926C14.3396 18.5748 14.313 18.5393 14.2775 18.4861C14.242 18.415 14.2064 18.3529 14.1709 18.2996C14.1354 18.2463 14.1088 18.1931 14.091 18.1398L14.0111 17.9533L14.0644 17.7935C14.0821 17.7047 14.1177 17.6248 14.1709 17.5538C14.2242 17.465 14.2864 17.4028 14.3574 17.3673C14.4107 17.3318 14.4639 17.2963 14.5172 17.2608C14.5882 17.2252 14.6415 17.1897 14.677 17.1542C14.7125 17.1364 14.7481 17.1187 14.7836 17.1009C14.8191 17.0832 14.8546 17.0654 14.8901 17.0477C14.9789 16.9411 15.05 16.8701 15.1032 16.8346C15.1565 16.799 15.2009 16.7635 15.2364 16.728C15.2897 16.6925 15.3518 16.6659 15.4229 16.6481C15.4939 16.6126 15.5738 16.5859 15.6626 16.5682V16.4616C15.6626 16.3373 15.6892 16.213 15.7425 16.0887C15.778 16.1598 15.7958 16.2042 15.7958 16.2219V15.849L15.8491 15.6093C15.8491 15.627 15.8402 15.6359 15.8224 15.6359C15.8224 15.6536 15.8135 15.6625 15.7958 15.6625C15.8135 15.627 15.8224 15.5649 15.8224 15.4761C15.8402 15.3695 15.8491 15.2719 15.8491 15.1831C15.8491 15.0943 15.8491 15.0321 15.8491 14.9966C15.8491 14.9611 15.8402 14.9433 15.8224 14.9433C15.8224 14.9256 15.8224 14.9078 15.8224 14.8901C15.8047 14.819 15.7869 14.7569 15.7692 14.7036C15.7692 14.6503 15.7692 14.5882 15.7692 14.5171C15.7692 14.304 15.778 14.0998 15.7958 13.9045C15.8313 13.6914 15.8491 13.4872 15.8491 13.2918C15.8491 13.1498 15.8491 13.0255 15.8491 12.9189C15.8668 12.7946 15.8668 12.6703 15.8491 12.546C15.8491 12.5105 15.8402 12.475 15.8224 12.4394C15.8224 12.4039 15.8224 12.3595 15.8224 12.3063C15.8047 12.253 15.7869 12.1997 15.7692 12.1464C15.7514 12.0932 15.7336 12.0399 15.7159 11.9866C15.6804 11.8978 15.6448 11.7735 15.6093 11.6137C15.5916 11.4539 15.5827 11.3296 15.5827 11.2408C15.5827 11.1165 15.5827 11.001 15.5827 10.8945C15.6005 10.7702 15.6093 10.6459 15.6093 10.5216C15.6093 10.4328 15.5916 10.3706 15.5561 10.3351L15.4761 10.1753C15.4051 10.1043 15.3696 9.98883 15.3696 9.82901C15.3696 9.72246 15.3785 9.61591 15.3962 9.50936C15.4318 9.38506 15.4495 9.26963 15.4495 9.16308C15.414 9.10981 15.3696 9.06541 15.3163 9.0299C15.263 8.97662 15.2187 8.92335 15.1831 8.87007C15.1299 8.83456 15.0766 8.79904 15.0233 8.76353C14.9878 8.71025 14.9523 8.66586 14.9168 8.63034C14.8635 8.61258 14.8013 8.59482 14.7303 8.57707C14.677 8.55931 14.6149 8.55043 14.5438 8.55043C14.4728 8.55043 14.3929 8.55931 14.3041 8.57707C14.1976 8.61258 14.1265 8.63922 14.091 8.65698C14.0377 8.65698 13.9845 8.66586 13.9312 8.68361C13.8779 8.68361 13.8246 8.68361 13.7714 8.68361C13.7359 8.70137 13.6915 8.71025 13.6382 8.71025C13.6027 8.69249 13.5583 8.68361 13.505 8.68361C13.505 8.66586 13.4872 8.69249 13.4517 8.76353C13.4162 8.78128 13.3629 8.82568 13.2919 8.89671C13.2564 8.93223 13.2209 8.97662 13.1854 9.0299C13.1676 9.06541 13.141 9.10093 13.1054 9.13644C13.0344 9.18972 12.9634 9.24299 12.8923 9.29627C12.8391 9.34954 12.7769 9.42057 12.7059 9.50936C12.6171 9.5804 12.5461 9.64255 12.4928 9.69582C12.4395 9.73134 12.3951 9.77573 12.3596 9.82901C12.3596 9.86453 12.3507 9.89116 12.333 9.90892C12.333 9.92668 12.333 9.95332 12.333 9.98883C12.3152 10.0599 12.3063 10.1664 12.3063 10.3085C12.3063 10.4505 12.2619 10.5926 12.1731 10.7347C12.2087 10.8412 12.2264 10.9389 12.2264 11.0277C12.2264 11.1697 12.2087 11.3118 12.1731 11.4539C12.1376 11.5782 12.1199 11.7114 12.1199 11.8534V11.9333C12.1376 11.9511 12.1465 11.9866 12.1465 12.0399C12.182 12.1109 12.1998 12.1731 12.1998 12.2263C12.2175 12.2619 12.2264 12.3063 12.2264 12.3595C12.2264 12.395 12.2264 12.4306 12.2264 12.4661C12.2264 12.8035 12.1998 13.1409 12.1465 13.4783C12.0932 13.7979 12.0666 14.1265 12.0666 14.4639C12.0666 14.7302 12.0844 15.0055 12.1199 15.2896C12.1731 15.556 12.1998 15.8224 12.1998 16.0887C12.1998 16.1598 12.182 16.2663 12.1465 16.4084C12.3951 16.4084 12.6526 16.4528 12.919 16.5416C13.1854 16.6303 13.4162 16.7458 13.6115 16.8878L13.798 16.9677L13.8246 17.1542C13.8779 17.2785 13.9046 17.4028 13.9046 17.5271C13.9046 17.5449 13.8868 17.607 13.8513 17.7136C13.8335 17.8201 13.7891 17.9356 13.7181 18.0599C13.6471 18.1842 13.5494 18.2996 13.4251 18.4061C13.3185 18.4949 13.1854 18.5482 13.0255 18.566C12.7947 18.6192 12.5283 18.6281 12.2264 18.5926H11.5605C11.0455 18.5926 10.5305 18.6104 10.0155 18.6459C9.51832 18.6814 9.02109 18.6992 8.52387 18.6992C8.43508 18.6992 8.34629 18.6992 8.2575 18.6992C8.16871 18.7169 8.07992 18.7258 7.99113 18.7258C7.77803 18.7258 7.60045 18.6725 7.45838 18.566C7.31632 18.4772 7.20089 18.3706 7.1121 18.2463C7.02331 18.122 6.95228 17.9977 6.899 17.8734C6.86349 17.7491 6.84573 17.6603 6.84573 17.607C6.84573 17.465 6.87237 17.3495 6.92564 17.2608C6.99667 17.1542 7.07658 17.0654 7.16538 16.9944C7.25417 16.9234 7.34296 16.879 7.43175 16.8612C7.52054 16.8257 7.59157 16.799 7.64484 16.7813C7.82242 16.7458 7.94673 16.7103 8.01776 16.6747C8.08879 16.6747 8.13319 16.6659 8.15095 16.6481L8.44395 16.5682C8.44395 16.5149 8.43508 16.4616 8.41732 16.4084C8.41732 16.3373 8.41732 16.2663 8.41732 16.1953C8.41732 16.0887 8.43508 15.9822 8.47059 15.8756C8.50611 15.7691 8.53275 15.6892 8.5505 15.6359C8.5505 15.6181 8.5505 15.6093 8.5505 15.6093C8.56826 15.6093 8.57714 15.6004 8.57714 15.5826C8.55938 15.5649 8.54162 15.5471 8.52387 15.5293C8.52387 15.4938 8.51499 15.4583 8.49723 15.4228C8.49723 15.3873 8.48835 15.3518 8.47059 15.3162C8.47059 15.263 8.46171 15.1919 8.44395 15.1032V14.8101V14.304C8.44395 14.233 8.46171 14.1265 8.49723 13.9844C8.51499 13.9489 8.52387 13.9134 8.52387 13.8778C8.52387 13.8423 8.51499 13.8157 8.49723 13.7979C8.44396 13.6914 8.41732 13.5671 8.41732 13.425C8.41732 13.1942 8.43508 12.9722 8.47059 12.7591C8.50611 12.546 8.52387 12.324 8.52387 12.0932C8.52387 11.9689 8.51499 11.8534 8.49723 11.7469C8.47947 11.6226 8.45283 11.5071 8.41732 11.4006C8.36404 11.081 8.31965 10.8235 8.28413 10.6281C8.26637 10.4328 8.2575 10.1664 8.2575 9.82901C8.2575 9.75798 8.23974 9.7047 8.20422 9.66919C8.07992 9.42057 8.01776 9.26075 8.01776 9.18972C8.01776 9.08317 8.02664 8.9855 8.0444 8.89671C8.07992 8.79016 8.09767 8.68361 8.09767 8.57707C8.07992 8.54155 8.05328 8.52379 8.01776 8.52379C8 8.50603 7.97337 8.4794 7.93785 8.44388C7.86682 8.39061 7.78691 8.32845 7.69812 8.25742C7.62709 8.18639 7.57381 8.13311 7.53829 8.0976C7.52054 8.07984 7.50278 8.07984 7.48502 8.0976C7.48502 8.0976 7.46726 8.08872 7.43175 8.07096C7.37847 8.07096 7.31632 8.07096 7.24529 8.07096C7.19201 8.0532 7.14762 8.04432 7.1121 8.04432C7.05883 8.04432 7.02331 8.0532 7.00555 8.07096C6.97004 8.07096 6.93452 8.07984 6.899 8.0976C6.88125 8.0976 6.85461 8.0976 6.81909 8.0976L6.57936 8.17751C6.50833 8.17751 6.4373 8.18639 6.36626 8.20415C6.31299 8.20415 6.25084 8.20415 6.1798 8.20415C6.14429 8.22191 6.12653 8.23966 6.12653 8.25742C6.12653 8.25742 6.10877 8.2663 6.07326 8.28406C6.00222 8.31957 5.93119 8.37285 5.86016 8.44388C5.78913 8.51491 5.72697 8.58595 5.6737 8.65698C5.49612 8.79904 5.34517 8.92335 5.22087 9.0299C5.11432 9.13644 5.04329 9.20748 5.00777 9.24299C4.97226 9.27851 4.9545 9.3673 4.9545 9.50936C4.9545 9.52712 4.97226 9.57152 5.00777 9.64255L5.08768 9.80237C5.1232 9.90892 5.14096 10.0155 5.14096 10.122V10.7347C5.14096 10.8412 5.1232 10.9478 5.08768 11.0543C5.08768 11.2141 5.04329 11.3651 4.9545 11.5071V11.6403V12.2263C4.97226 12.2974 4.98113 12.395 4.98113 12.5194C4.99889 12.5549 5.00777 12.5904 5.00777 12.6259C5.00777 12.6437 5.00777 12.6614 5.00777 12.6792C5.04329 12.7857 5.06993 12.9012 5.08768 13.0255C5.1232 13.132 5.16759 13.2297 5.22087 13.3185C5.22087 13.354 5.23863 13.4073 5.27414 13.4783C5.34517 13.6204 5.38069 13.7358 5.38069 13.8246C5.38069 14.0022 5.37181 14.1797 5.35405 14.3573C5.3363 14.5171 5.32742 14.677 5.32742 14.8368C5.34517 14.8901 5.36293 14.9344 5.38069 14.97C5.39845 15.0055 5.41621 15.0499 5.43397 15.1032C5.46948 15.334 5.49612 15.5649 5.51388 15.7957C5.53163 16.0088 5.54051 16.2308 5.54051 16.4616V16.4883C5.52276 16.4883 5.51388 16.506 5.51388 16.5416C5.54939 16.5416 5.57603 16.5504 5.59379 16.5682C5.64706 16.5682 5.70922 16.5859 5.78025 16.6215C5.92231 16.657 6.01998 16.6925 6.07326 16.728C6.30411 16.8523 6.45505 16.9766 6.52609 17.1009C6.61488 17.2252 6.65927 17.4117 6.65927 17.6603L6.84573 18.3529L6.01998 18.3262C5.91343 18.3085 5.80688 18.2996 5.70034 18.2996C5.61155 18.2996 5.51388 18.2996 5.40733 18.2996C5.26526 18.2996 5.1232 18.2996 4.98113 18.2996C4.85683 18.2996 4.73252 18.3085 4.60822 18.3262C4.43063 18.3618 4.26193 18.3973 4.10211 18.4328C3.94229 18.4505 3.79135 18.4772 3.64928 18.5127C3.4717 18.5482 3.28524 18.5748 3.0899 18.5926C2.91232 18.6104 2.72586 18.6192 2.53052 18.6192C2.3707 18.6192 2.21088 18.6104 2.05106 18.5926C1.90899 18.5748 1.75805 18.566 1.59823 18.566C1.42064 18.566 1.32298 18.5748 1.30522 18.5926C1.23418 18.6281 1.14539 18.6636 1.03885 18.6992C0.950056 18.7347 0.887903 18.7524 0.852387 18.7524C0.408435 18.7524 0.133185 18.5393 0.0266371 18.1131C0.00887903 18.0244 0 17.9444 0 17.8734C0 17.8024 0 17.7491 0 17.7136V17.5804C0.106548 17.0654 0.408435 16.7546 0.905661 16.6481C1.04773 16.5948 1.18979 16.5682 1.33185 16.5682C1.38513 16.5504 1.4384 16.5416 1.49168 16.5416C1.52719 16.506 1.55383 16.4883 1.57159 16.4883C1.58935 16.4705 1.61598 16.4439 1.6515 16.4084C1.6515 16.3196 1.64262 16.2308 1.62486 16.142C1.62486 16.0354 1.62486 15.9378 1.62486 15.849C1.62486 15.7069 1.63374 15.5826 1.6515 15.4761C1.68702 15.3695 1.70477 15.2541 1.70477 15.1298C1.70477 15.112 1.69589 15.0943 1.67814 15.0765C1.64262 14.9344 1.62486 14.8101 1.62486 14.7036C1.62486 14.5083 1.64262 14.3129 1.67814 14.1176C1.71365 13.9222 1.73141 13.7269 1.73141 13.5316C1.69589 13.4428 1.66038 13.3629 1.62486 13.2918C1.58935 13.203 1.57159 13.1231 1.57159 13.0521C1.57159 12.9455 1.58047 12.8745 1.59823 12.839L1.54495 12.5726Z" fill="#4596FF"/>
</g>
<defs>
<clipPath id="clip0_2097_8093">
<rect width="77.0867" height="24" fill="white"/>
</clipPath>
</defs>
</svg>
