<svg width="327" height="29" viewBox="0 0 327 29" fill="none" xmlns="http://www.w3.org/2000/svg">
<path d="M128.5 0C127.948 0 127.5 0.447715 127.5 1V28C127.5 28.5523 127.948 29 128.5 29C129.052 29 129.5 28.5523 129.5 28V1C129.5 0.447716 129.052 0 128.5 0Z" fill="#747A81"/>
<path d="M177.5 2C176.948 2 176.5 2.44772 176.5 3V26C176.5 26.5523 176.948 27 177.5 27C178.052 27 178.5 26.5523 178.5 26V3C178.5 2.44772 178.052 2 177.5 2Z" fill="#747A81"/>
<path d="M51.5 4C50.9477 4 50.5 4.44772 50.5 5V24C50.5 24.5523 50.9477 25 51.5 25C52.0523 25 52.5 24.5523 52.5 24V5C52.5 4.44772 52.0523 4 51.5 4Z" fill="#747A81"/>
<path d="M303.5 5C302.948 5 302.5 5.44772 302.5 6V23C302.5 23.5523 302.948 24 303.5 24C304.052 24 304.5 23.5523 304.5 23V6C304.5 5.44772 304.052 5 303.5 5Z" fill="#747A81"/>
<path d="M275.5 5C274.948 5 274.5 5.44772 274.5 6V23C274.5 23.5523 274.948 24 275.5 24C276.052 24 276.5 23.5523 276.5 23V6C276.5 5.44772 276.052 5 275.5 5Z" fill="#747A81"/>
<path d="M268.5 5C267.948 5 267.5 5.44772 267.5 6V23C267.5 23.5523 267.948 24 268.5 24C269.052 24 269.5 23.5523 269.5 23V6C269.5 5.44772 269.052 5 268.5 5Z" fill="#747A81"/>
<path d="M254.5 5C253.948 5 253.5 5.44772 253.5 6V23C253.5 23.5523 253.948 24 254.5 24C255.052 24 255.5 23.5523 255.5 23V6C255.5 5.44772 255.052 5 254.5 5Z" fill="#747A81"/>
<path d="M226.5 5C225.948 5 225.5 5.44772 225.5 6V23C225.5 23.5523 225.948 24 226.5 24C227.052 24 227.5 23.5523 227.5 23V6C227.5 5.44772 227.052 5 226.5 5Z" fill="#747A81"/>
<path d="M219.5 5C218.948 5 218.5 5.44772 218.5 6V23C218.5 23.5523 218.948 24 219.5 24C220.052 24 220.5 23.5523 220.5 23V6C220.5 5.44772 220.052 5 219.5 5Z" fill="#747A81"/>
<path d="M198.5 5C197.948 5 197.5 5.44772 197.5 6V23C197.5 23.5523 197.948 24 198.5 24C199.052 24 199.5 23.5523 199.5 23V6C199.5 5.44772 199.052 5 198.5 5Z" fill="#747A81"/>
<path d="M163.5 5C162.948 5 162.5 5.44772 162.5 6V23C162.5 23.5523 162.948 24 163.5 24C164.052 24 164.5 23.5523 164.5 23V6C164.5 5.44772 164.052 5 163.5 5Z" fill="#747A81"/>
<path d="M142.5 5C141.948 5 141.5 5.44772 141.5 6V23C141.5 23.5523 141.948 24 142.5 24C143.052 24 143.5 23.5523 143.5 23V6C143.5 5.44772 143.052 5 142.5 5Z" fill="#747A81"/>
<path d="M114.5 5C113.948 5 113.5 5.44772 113.5 6V23C113.5 23.5523 113.948 24 114.5 24C115.052 24 115.5 23.5523 115.5 23V6C115.5 5.44772 115.052 5 114.5 5Z" fill="#747A81"/>
<path d="M86.5 5C85.9477 5 85.5 5.44772 85.5 6V23C85.5 23.5523 85.9477 24 86.5 24C87.0523 24 87.5 23.5523 87.5 23V6C87.5 5.44772 87.0523 5 86.5 5Z" fill="#747A81"/>
<path d="M72.5 5C71.9477 5 71.5 5.44772 71.5 6V23C71.5 23.5523 71.9477 24 72.5 24C73.0523 24 73.5 23.5523 73.5 23V6C73.5 5.44772 73.0523 5 72.5 5Z" fill="#747A81"/>
<path d="M37.5 5C36.9477 5 36.5 5.44772 36.5 6V23C36.5 23.5523 36.9477 24 37.5 24C38.0523 24 38.5 23.5523 38.5 23V6C38.5 5.44772 38.0523 5 37.5 5Z" fill="#747A81"/>
<path d="M16.5 5C15.9477 5 15.5 5.44772 15.5 6V23C15.5 23.5523 15.9477 24 16.5 24C17.0523 24 17.5 23.5523 17.5 23V6C17.5 5.44772 17.0523 5 16.5 5Z" fill="#747A81"/>
<path d="M310.5 7C309.948 7 309.5 7.44772 309.5 8V21C309.5 21.5523 309.948 22 310.5 22C311.052 22 311.5 21.5523 311.5 21V8C311.5 7.44772 311.052 7 310.5 7Z" fill="#747A81"/>
<path d="M317.5 9C316.948 9 316.5 9.44772 316.5 10V19C316.5 19.5523 316.948 20 317.5 20C318.052 20 318.5 19.5523 318.5 19V10C318.5 9.44772 318.052 9 317.5 9Z" fill="#747A81"/>
<path d="M296.5 9C295.948 9 295.5 9.44772 295.5 10V19C295.5 19.5523 295.948 20 296.5 20C297.052 20 297.5 19.5523 297.5 19V10C297.5 9.44772 297.052 9 296.5 9Z" fill="#747A81"/>
<path d="M282.5 9C281.948 9 281.5 9.44772 281.5 10V19C281.5 19.5523 281.948 20 282.5 20C283.052 20 283.5 19.5523 283.5 19V10C283.5 9.44772 283.052 9 282.5 9Z" fill="#747A81"/>
<path d="M261.5 9C260.948 9 260.5 9.44772 260.5 10V19C260.5 19.5523 260.948 20 261.5 20C262.052 20 262.5 19.5523 262.5 19V10C262.5 9.44772 262.052 9 261.5 9Z" fill="#747A81"/>
<path d="M247.5 9C246.948 9 246.5 9.44772 246.5 10V19C246.5 19.5523 246.948 20 247.5 20C248.052 20 248.5 19.5523 248.5 19V10C248.5 9.44772 248.052 9 247.5 9Z" fill="#747A81"/>
<path d="M233.5 9C232.948 9 232.5 9.44772 232.5 10V19C232.5 19.5523 232.948 20 233.5 20C234.052 20 234.5 19.5523 234.5 19V10C234.5 9.44772 234.052 9 233.5 9Z" fill="#747A81"/>
<path d="M212.5 9C211.948 9 211.5 9.44772 211.5 10V19C211.5 19.5523 211.948 20 212.5 20C213.052 20 213.5 19.5523 213.5 19V10C213.5 9.44772 213.052 9 212.5 9Z" fill="#747A81"/>
<path d="M191.5 9C190.948 9 190.5 9.44772 190.5 10V19C190.5 19.5523 190.948 20 191.5 20C192.052 20 192.5 19.5523 192.5 19V10C192.5 9.44772 192.052 9 191.5 9Z" fill="#747A81"/>
<path d="M184.5 9C183.948 9 183.5 9.44772 183.5 10V19C183.5 19.5523 183.948 20 184.5 20C185.052 20 185.5 19.5523 185.5 19V10C185.5 9.44772 185.052 9 184.5 9Z" fill="#747A81"/>
<path d="M170.5 9C169.948 9 169.5 9.44772 169.5 10V19C169.5 19.5523 169.948 20 170.5 20C171.052 20 171.5 19.5523 171.5 19V10C171.5 9.44772 171.052 9 170.5 9Z" fill="#747A81"/>
<path d="M156.5 9C155.948 9 155.5 9.44772 155.5 10V19C155.5 19.5523 155.948 20 156.5 20C157.052 20 157.5 19.5523 157.5 19V10C157.5 9.44772 157.052 9 156.5 9Z" fill="#747A81"/>
<path d="M149.5 9C148.948 9 148.5 9.44772 148.5 10V19C148.5 19.5523 148.948 20 149.5 20C150.052 20 150.5 19.5523 150.5 19V10C150.5 9.44772 150.052 9 149.5 9Z" fill="#747A81"/>
<path d="M135.5 9C134.948 9 134.5 9.44772 134.5 10V19C134.5 19.5523 134.948 20 135.5 20C136.052 20 136.5 19.5523 136.5 19V10C136.5 9.44772 136.052 9 135.5 9Z" fill="#747A81"/>
<path d="M121.5 9C120.948 9 120.5 9.44772 120.5 10V19C120.5 19.5523 120.948 20 121.5 20C122.052 20 122.5 19.5523 122.5 19V10C122.5 9.44772 122.052 9 121.5 9Z" fill="#747A81"/>
<path d="M107.5 9C106.948 9 106.5 9.44772 106.5 10V19C106.5 19.5523 106.948 20 107.5 20C108.052 20 108.5 19.5523 108.5 19V10C108.5 9.44772 108.052 9 107.5 9Z" fill="#747A81"/>
<path d="M93.5 9C92.9477 9 92.5 9.44772 92.5 10V19C92.5 19.5523 92.9477 20 93.5 20C94.0523 20 94.5 19.5523 94.5 19V10C94.5 9.44772 94.0523 9 93.5 9Z" fill="#747A81"/>
<path d="M65.5 9C64.9477 9 64.5 9.44772 64.5 10V19C64.5 19.5523 64.9477 20 65.5 20C66.0523 20 66.5 19.5523 66.5 19V10C66.5 9.44772 66.0523 9 65.5 9Z" fill="#747A81"/>
<path d="M58.5 9C57.9477 9 57.5 9.44772 57.5 10V19C57.5 19.5523 57.9477 20 58.5 20C59.0523 20 59.5 19.5523 59.5 19V10C59.5 9.44772 59.0523 9 58.5 9Z" fill="#747A81"/>
<path d="M44.5 9C43.9477 9 43.5 9.44772 43.5 10V19C43.5 19.5523 43.9477 20 44.5 20C45.0523 20 45.5 19.5523 45.5 19V10C45.5 9.44772 45.0523 9 44.5 9Z" fill="#747A81"/>
<path d="M30.5 9C29.9477 9 29.5 9.44772 29.5 10V19C29.5 19.5523 29.9477 20 30.5 20C31.0523 20 31.5 19.5523 31.5 19V10C31.5 9.44772 31.0523 9 30.5 9Z" fill="#747A81"/>
<path d="M23.5 9C22.9477 9 22.5 9.44772 22.5 10V19C22.5 19.5523 22.9477 20 23.5 20C24.0523 20 24.5 19.5523 24.5 19V10C24.5 9.44772 24.0523 9 23.5 9Z" fill="#747A81"/>
<path d="M9.5 9C8.94772 9 8.5 9.44772 8.5 10V19C8.5 19.5523 8.94772 20 9.5 20C10.0523 20 10.5 19.5523 10.5 19V10C10.5 9.44772 10.0523 9 9.5 9Z" fill="#747A81"/>
<path d="M289.5 11C288.948 11 288.5 11.4477 288.5 12V17C288.5 17.5523 288.948 18 289.5 18C290.052 18 290.5 17.5523 290.5 17V12C290.5 11.4477 290.052 11 289.5 11Z" fill="#747A81"/>
<path d="M240.5 11C239.948 11 239.5 11.4477 239.5 12V17C239.5 17.5523 239.948 18 240.5 18C241.052 18 241.5 17.5523 241.5 17V12C241.5 11.4477 241.052 11 240.5 11Z" fill="#747A81"/>
<path d="M205.5 11C204.948 11 204.5 11.4477 204.5 12V17C204.5 17.5523 204.948 18 205.5 18C206.052 18 206.5 17.5523 206.5 17V12C206.5 11.4477 206.052 11 205.5 11Z" fill="#747A81"/>
<path d="M100.5 11C99.9477 11 99.5 11.4477 99.5 12V17C99.5 17.5523 99.9477 18 100.5 18C101.052 18 101.5 17.5523 101.5 17V12C101.5 11.4477 101.052 11 100.5 11Z" fill="#747A81"/>
<path d="M79.5 11C78.9477 11 78.5 11.4477 78.5 12V17C78.5 17.5523 78.9477 18 79.5 18C80.0523 18 80.5 17.5523 80.5 17V12C80.5 11.4477 80.0523 11 79.5 11Z" fill="#747A81"/>
</svg>
