<?xml version="1.0" encoding="UTF-8"?>
<svg id="_레이어_1" data-name="레이어 1" xmlns="http://www.w3.org/2000/svg" xmlns:xlink="http://www.w3.org/1999/xlink" viewBox="0 0 342.6 253.33">
  <defs>
    <style>
      .cls-1 {
        fill: none;
      }

      .cls-2 {
        fill: #0e90ee;
      }

      .cls-3 {
        clip-path: url(#clippath);
      }

      .cls-4 {
        fill: #ff9ac4;
      }
    </style>
    <clipPath id="clippath">
      <path class="cls-1" d="M17.8,239.42L15.8,15.42l309-1.5,2,223.5-309,2Z"/>
    </clipPath>
  </defs>
  <g class="cls-3">
    <rect class="cls-4" x="6.6" y="-83.13" width="329.28" height="329.28"/>
    <g>
      <path class="cls-2" d="M27.68-9.83c.42,3.55,1.01,7.29,3.28,10.05,2.07,2.51,5.23,3.84,8.33,4.81,21.44,6.68,46.53-.5,61.18-17.52,2.21-2.57,4.22-5.37,5.43-8.54,1.21-3.17,1.58-6.6,1.45-9.99-.16-4.11-1.15-8.37-3.83-11.49-2.68-3.12-7.35-4.78-11.08-3.05-3.88,1.79-5.54,6.31-6.82,10.38.08-7.4-.06-15.46-4.73-21.21-1.23-1.51-2.83-2.84-4.74-3.21-1.48-.28-3.02.03-4.45.5-10.34,3.38-16.95,15.47-14.21,26-.81-5.32-2.05-10.76-5.23-15.1-3.18-4.34-8.74-7.33-13.97-6.06-4.16,1.01-7.37,4.5-9.13,8.41-4.91,10.93-2.83,24.53-1.48,36Z"/>
      <path class="cls-2" d="M132.54-9.83c.42,3.55,1.01,7.29,3.28,10.05,2.07,2.51,5.23,3.84,8.33,4.81,21.44,6.68,46.53-.5,61.18-17.52,2.21-2.57,4.22-5.37,5.43-8.54,1.21-3.17,1.58-6.6,1.45-9.99-.16-4.11-1.15-8.37-3.83-11.49-2.68-3.12-7.35-4.78-11.08-3.05-3.88,1.79-5.54,6.31-6.82,10.38.08-7.4-.06-15.46-4.73-21.21-1.23-1.51-2.83-2.84-4.74-3.21-1.48-.28-3.02.03-4.45.5-10.34,3.38-16.95,15.47-14.21,26-.81-5.32-2.05-10.76-5.23-15.1-3.18-4.34-8.74-7.33-13.97-6.06-4.16,1.01-7.37,4.5-9.13,8.41-4.91,10.93-2.83,24.53-1.48,36Z"/>
      <path class="cls-2" d="M236.84-9.83c.42,3.55,1.01,7.29,3.28,10.05,2.07,2.51,5.23,3.84,8.33,4.81,21.44,6.68,46.53-.5,61.18-17.52,2.21-2.57,4.22-5.37,5.43-8.54,1.21-3.17,1.58-6.6,1.45-9.99-.16-4.11-1.15-8.37-3.83-11.49-2.68-3.12-7.35-4.78-11.08-3.05-3.88,1.79-5.54,6.31-6.82,10.38.08-7.4-.06-15.46-4.73-21.21-1.23-1.51-2.83-2.84-4.74-3.21-1.48-.28-3.02.03-4.45.5-10.34,3.38-16.95,15.47-14.21,26-.81-5.32-2.05-10.76-5.23-15.1-3.18-4.34-8.74-7.33-13.97-6.06-4.16,1.01-7.37,4.5-9.13,8.41-4.91,10.93-2.83,24.53-1.48,36Z"/>
      <path class="cls-2" d="M-23.92,75.27c.42,3.55,1.01,7.29,3.28,10.05,2.07,2.51,5.23,3.84,8.33,4.81,21.44,6.68,46.53-.5,61.18-17.52,2.21-2.57,4.22-5.37,5.43-8.54,1.21-3.17,1.58-6.6,1.45-9.99-.16-4.11-1.15-8.37-3.83-11.49-2.68-3.12-7.35-4.78-11.08-3.05-3.88,1.79-5.54,6.31-6.82,10.38.08-7.4-.06-15.46-4.73-21.21-1.23-1.51-2.83-2.84-4.74-3.21-1.48-.28-3.02.03-4.45.5-10.34,3.38-16.95,15.47-14.21,26-.81-5.32-2.05-10.76-5.23-15.1-3.18-4.34-8.74-7.33-13.97-6.06-4.16,1.01-7.37,4.5-9.13,8.41-4.91,10.93-2.83,24.53-1.48,36Z"/>
      <path class="cls-2" d="M80.93,75.27c.42,3.55,1.01,7.29,3.28,10.05,2.07,2.51,5.23,3.84,8.33,4.81,21.44,6.68,46.53-.5,61.18-17.52,2.21-2.57,4.22-5.37,5.43-8.54,1.21-3.17,1.58-6.6,1.45-9.99-.16-4.11-1.15-8.37-3.83-11.49-2.68-3.12-7.35-4.78-11.08-3.05-3.88,1.79-5.54,6.31-6.82,10.38.08-7.4-.06-15.46-4.73-21.21-1.23-1.51-2.83-2.84-4.74-3.21-1.48-.28-3.02.03-4.45.5-10.34,3.38-16.95,15.47-14.21,26-.81-5.32-2.05-10.76-5.23-15.1-3.18-4.34-8.74-7.33-13.97-6.06-4.16,1.01-7.37,4.5-9.13,8.41-4.91,10.93-2.83,24.53-1.48,36Z"/>
      <path class="cls-2" d="M185.24,75.27c.42,3.55,1.01,7.29,3.28,10.05,2.07,2.51,5.23,3.84,8.33,4.81,21.44,6.68,46.53-.5,61.18-17.52,2.21-2.57,4.22-5.37,5.43-8.54,1.21-3.17,1.58-6.6,1.45-9.99-.16-4.11-1.15-8.37-3.83-11.49-2.68-3.12-7.35-4.78-11.08-3.05-3.88,1.79-5.54,6.31-6.82,10.38.08-7.4-.06-15.46-4.73-21.21-1.23-1.51-2.83-2.84-4.74-3.21-1.48-.28-3.02.03-4.45.5-10.34,3.38-16.95,15.47-14.21,26-.81-5.32-2.05-10.76-5.23-15.1-3.18-4.34-8.74-7.33-13.97-6.06-4.16,1.01-7.37,4.5-9.13,8.41-4.91,10.93-2.83,24.53-1.48,36Z"/>
      <path class="cls-2" d="M288.44,75.27c.42,3.55,1.01,7.29,3.28,10.05,2.07,2.51,5.23,3.84,8.33,4.81,21.44,6.68,46.53-.5,61.18-17.52,2.21-2.57,4.22-5.37,5.43-8.54,1.21-3.17,1.58-6.6,1.45-9.99-.16-4.11-1.15-8.37-3.83-11.49-2.68-3.12-7.35-4.78-11.08-3.05-3.88,1.79-5.54,6.31-6.82,10.38.08-7.4-.06-15.46-4.73-21.21-1.23-1.51-2.83-2.84-4.74-3.21-1.48-.28-3.02.03-4.45.5-10.34,3.38-16.95,15.47-14.21,26-.81-5.32-2.05-10.76-5.23-15.1-3.18-4.34-8.74-7.33-13.97-6.06-4.16,1.01-7.37,4.5-9.13,8.41-4.91,10.93-2.83,24.53-1.48,36Z"/>
      <path class="cls-2" d="M27.68,162.85c.42,3.55,1.01,7.29,3.28,10.05,2.07,2.51,5.23,3.84,8.33,4.81,21.44,6.68,46.53-.5,61.18-17.52,2.21-2.57,4.22-5.37,5.43-8.54,1.21-3.17,1.58-6.6,1.45-9.99-.16-4.11-1.15-8.37-3.83-11.49-2.68-3.12-7.35-4.78-11.08-3.05-3.88,1.79-5.54,6.31-6.82,10.38.08-7.4-.06-15.46-4.73-21.21-1.23-1.51-2.83-2.84-4.74-3.21-1.48-.28-3.02.03-4.45.5-10.34,3.38-16.95,15.47-14.21,26-.81-5.32-2.05-10.76-5.23-15.1-3.18-4.34-8.74-7.33-13.97-6.06-4.16,1.01-7.37,4.5-9.13,8.41-4.91,10.93-2.83,24.53-1.48,36Z"/>
      <path class="cls-2" d="M132.54,162.85c.42,3.55,1.01,7.29,3.28,10.05,2.07,2.51,5.23,3.84,8.33,4.81,21.44,6.68,46.53-.5,61.18-17.52,2.21-2.57,4.22-5.37,5.43-8.54,1.21-3.17,1.58-6.6,1.45-9.99-.16-4.11-1.15-8.37-3.83-11.49-2.68-3.12-7.35-4.78-11.08-3.05-3.88,1.79-5.54,6.31-6.82,10.38.08-7.4-.06-15.46-4.73-21.21-1.23-1.51-2.83-2.84-4.74-3.21-1.48-.28-3.02.03-4.45.5-10.34,3.38-16.95,15.47-14.21,26-.81-5.32-2.05-10.76-5.23-15.1-3.18-4.34-8.74-7.33-13.97-6.06-4.16,1.01-7.37,4.5-9.13,8.41-4.91,10.93-2.83,24.53-1.48,36Z"/>
      <path class="cls-2" d="M236.84,162.85c.42,3.55,1.01,7.29,3.28,10.05,2.07,2.51,5.23,3.84,8.33,4.81,21.44,6.68,46.53-.5,61.18-17.52,2.21-2.57,4.22-5.37,5.43-8.54,1.21-3.17,1.58-6.6,1.45-9.99-.16-4.11-1.15-8.37-3.83-11.49-2.68-3.12-7.35-4.78-11.08-3.05-3.88,1.79-5.54,6.31-6.82,10.38.08-7.4-.06-15.46-4.73-21.21-1.23-1.51-2.83-2.84-4.74-3.21-1.48-.28-3.02.03-4.45.5-10.34,3.38-16.95,15.47-14.21,26-.81-5.32-2.05-10.76-5.23-15.1-3.18-4.34-8.74-7.33-13.97-6.06-4.16,1.01-7.37,4.5-9.13,8.41-4.91,10.93-2.83,24.53-1.48,36Z"/>
      <path class="cls-2" d="M-23.92,247.94c.42,3.55,1.01,7.29,3.28,10.05,2.07,2.51,5.23,3.84,8.33,4.81,21.44,6.68,46.53-.5,61.18-17.52,2.21-2.57,4.22-5.37,5.43-8.54,1.21-3.17,1.58-6.6,1.45-9.99-.16-4.11-1.15-8.37-3.83-11.49-2.68-3.12-7.35-4.78-11.08-3.05-3.88,1.79-5.54,6.31-6.82,10.38.08-7.4-.06-15.46-4.73-21.21-1.23-1.51-2.83-2.84-4.74-3.21-1.48-.28-3.02.03-4.45.5-10.34,3.38-16.95,15.47-14.21,26-.81-5.32-2.05-10.76-5.23-15.1-3.18-4.34-8.74-7.33-13.97-6.06-4.16,1.01-7.37,4.5-9.13,8.41-4.91,10.93-2.83,24.53-1.48,36Z"/>
      <path class="cls-2" d="M80.93,247.94c.42,3.55,1.01,7.29,3.28,10.05,2.07,2.51,5.23,3.84,8.33,4.81,21.44,6.68,46.53-.5,61.18-17.52,2.21-2.57,4.22-5.37,5.43-8.54,1.21-3.17,1.58-6.6,1.45-9.99-.16-4.11-1.15-8.37-3.83-11.49-2.68-3.12-7.35-4.78-11.08-3.05-3.88,1.79-5.54,6.31-6.82,10.38.08-7.4-.06-15.46-4.73-21.21-1.23-1.51-2.83-2.84-4.74-3.21-1.48-.28-3.02.03-4.45.5-10.34,3.38-16.95,15.47-14.21,26-.81-5.32-2.05-10.76-5.23-15.1-3.18-4.34-8.74-7.33-13.97-6.06-4.16,1.01-7.37,4.5-9.13,8.41-4.91,10.93-2.83,24.53-1.48,36Z"/>
      <path class="cls-2" d="M185.24,247.94c.42,3.55,1.01,7.29,3.28,10.05,2.07,2.51,5.23,3.84,8.33,4.81,21.44,6.68,46.53-.5,61.18-17.52,2.21-2.57,4.22-5.37,5.43-8.54,1.21-3.17,1.58-6.6,1.45-9.99-.16-4.11-1.15-8.37-3.83-11.49-2.68-3.12-7.35-4.78-11.08-3.05-3.88,1.79-5.54,6.31-6.82,10.38.08-7.4-.06-15.46-4.73-21.21-1.23-1.51-2.83-2.84-4.74-3.21-1.48-.28-3.02.03-4.45.5-10.34,3.38-16.95,15.47-14.21,26-.81-5.32-2.05-10.76-5.23-15.1-3.18-4.34-8.74-7.33-13.97-6.06-4.16,1.01-7.37,4.5-9.13,8.41-4.91,10.93-2.83,24.53-1.48,36Z"/>
      <path class="cls-2" d="M288.44,247.94c.42,3.55,1.01,7.29,3.28,10.05,2.07,2.51,5.23,3.84,8.33,4.81,21.44,6.68,46.53-.5,61.18-17.52,2.21-2.57,4.22-5.37,5.43-8.54,1.21-3.17,1.58-6.6,1.45-9.99-.16-4.11-1.15-8.37-3.83-11.49-2.68-3.12-7.35-4.78-11.08-3.05-3.88,1.79-5.54,6.31-6.82,10.38.08-7.4-.06-15.46-4.73-21.21-1.23-1.51-2.83-2.84-4.74-3.21-1.48-.28-3.02.03-4.45.5-10.34,3.38-16.95,15.47-14.21,26-.81-5.32-2.05-10.76-5.23-15.1-3.18-4.34-8.74-7.33-13.97-6.06-4.16,1.01-7.37,4.5-9.13,8.41-4.91,10.93-2.83,24.53-1.48,36Z"/>
    </g>
  </g>
</svg>