<?xml version="1.0" encoding="UTF-8"?>
<svg id="_레이어_1" data-name="레이어 1" xmlns="http://www.w3.org/2000/svg" xmlns:xlink="http://www.w3.org/1999/xlink" viewBox="0 0 342.6 253.33">
  <defs>
    <style>
      .cls-1 {
        fill: none;
      }

      .cls-2 {
        fill: #dce5d3;
      }

      .cls-3 {
        fill: #5c6b5a;
      }

      .cls-4 {
        clip-path: url(#clippath);
      }
    </style>
    <clipPath id="clippath">
      <path class="cls-1" d="M17.8,239.42L15.8,15.42l309-1.5,2,223.5-309,2Z"/>
    </clipPath>
  </defs>
  <g class="cls-4">
    <g>
      <path class="cls-2" d="M346.71,17.74c-1.5.34-2.85,1.54-2.81,3.21s1.23,3.14,2.84,3.3l.12,19.9c-1.59-.01-2.8,1.44-2.83,2.98-.04,1.69,1.18,3.18,2.87,3.32l.12,19.67c-1.64.14-2.86,1.4-2.91,2.98-.06,1.78,1.18,3.25,2.95,3.31l.12,19.9c-1.59-.05-2.79,1.42-2.83,2.97-.04,1.7,1.21,3.06,2.87,3.33l.12,19.9c-1.72.08-2.8,1.46-2.81,3.2,0,1.59,1.26,2.86,2.85,3.33l.12,19.45c-1.2.18-2.28.87-2.65,1.91-.49,1.36-.25,2.76.85,3.66.53.43,1.26.65,1.84.72l.12,19.9c-1.62-.02-2.75,1.41-2.84,2.99s1.24,3.08,2.88,3.31l.12,19.9c-.88.04-1.92.6-2.34,1.31-.55.94-.57,2.06-.25,3.01.42,1.24,1.44,1.91,2.63,1.98l.12,19.67c-1.03.14-2.22.92-2.59,1.74-.58,1.28-.38,2.55.42,3.5.62.74,1.35,1.05,2.21,1.05l.12,19.9c-1.61,0-2.77,1.42-2.81,2.98-.04,1.67,1.16,3.17,2.84,3.31l.06,10.43-9.71.06c.48-1.9-1.03-3.71-2.97-3.75s-3.65,1.82-3.32,3.79l-19.9.12c.19-1.6-.72-3.1-2.3-3.53-1.47-.4-3.2.26-3.78,1.89-.14.41-.12,1.29-.22,1.68l-19.67.12c.15-1.02-.01-2-.69-2.72-.73-.77-1.67-1-2.88-.82-1.67.25-2.76,1.99-2.72,3.58l-19.9.12c.46-1.95-1.01-3.68-3.02-3.73s-3.66,1.8-3.28,3.77l-19.9.12c0-.87-.14-2.05-.78-2.65-1.11-1.06-2.59-1.22-3.87-.59-1.17.58-1.72,1.94-1.65,3.28l-19.67.12c.14-1.04.01-2.01-.7-2.71-.75-.75-1.68-1.01-2.87-.84-1.71.25-2.76,1.97-2.73,3.59l-19.67.12c-.03-.53-.17-1.49-.4-1.94-.82-1.57-2.5-2.1-3.93-1.62-1.53.52-2.38,2.03-2.18,3.6l-19.9.12c.16-1.62-.82-3.42-2.58-3.56-1.18-.09-2.18.09-2.87.87-.64.72-.8,1.74-.84,2.73l-19.67.12c.12-.99-.04-2.04-.69-2.71-.8-.83-1.84-1.02-3.09-.79-1.62.29-2.56,2.01-2.52,3.54l-19.9.12c.5-1.93-1.05-3.67-2.99-3.75-2.03-.08-3.61,1.8-3.31,3.78l-19.9.12c.2-1.61-.89-3.34-2.59-3.56-1.2-.15-2.14.11-2.87.87-.69.72-.81,1.69-.84,2.73l-19.67.12c.1-.95-.08-2.04-.72-2.69-.77-.8-1.87-1.07-3.07-.82-1.59.33-2.56,2.05-2.52,3.55l-19.9.12c.16-.99.01-1.96-.69-2.7s-1.67-1.24-2.79-1.03c-1.88.34-3.01,2.01-2.94,3.77l-28.66.17L-11.62,3.25,346.6,1.1l.1,16.65ZM337.26,33.92c-.15-1.87-1.77-3.15-3.56-2.95s-3.09,1.78-2.82,3.66c.24,1.68,1.73,2.95,3.69,2.74,1.5-.16,2.84-1.65,2.7-3.45ZM337.74,112.22c-.24-2.08-1.96-3.13-3.77-2.84-1.68.26-2.81,1.82-2.62,3.64.17,1.65,1.77,3.02,3.68,2.74,1.46-.21,2.92-1.73,2.71-3.54ZM338.19,190.54c-.24-1.93-2.02-3.11-3.74-2.8s-2.84,1.87-2.62,3.65,1.77,3.04,3.68,2.74c1.54-.24,2.91-1.7,2.68-3.59ZM336.88,6.98c-.56-1.88-2.43-2.6-4.1-2.02-1.53.53-2.34,2.37-1.9,3.89.51,1.75,2.22,2.57,3.97,2.07,1.55-.44,2.55-2.17,2.03-3.93ZM337.17,59.35c-.58-1.8-2.59-2.4-4.25-1.77-1.44.55-2.25,2.42-1.65,3.96s2.34,2.49,3.96,1.86,2.53-2.2,1.93-4.04ZM334.4,89.44c1.73-.01,3.13-1.42,3.12-3.15s-1.42-3.13-3.15-3.12-3.13,1.42-3.12,3.15,1.42,3.13,3.15,3.12ZM336.69,141.27c1.41-.99,1.51-3.47.26-4.69s-3.39-1.16-4.52.02-1.16,3.17-.12,4.29,2.78,1.51,4.38.38ZM337.84,163.79c-.47-1.8-2.33-2.6-3.89-2.13-1.78.53-2.57,2.25-2.11,3.9.5,1.83,2.19,2.53,3.99,2.08,1.56-.39,2.45-2.17,2.02-3.85ZM338.09,216.07c-.58-1.78-2.61-2.42-4.18-1.73s-2.32,2.38-1.69,3.94,2.42,2.39,4.02,1.86,2.45-2.24,1.86-4.07ZM333.39,240.59c-1.09.74-1.4,2.02-1.12,3.32.2.91,1.05,1.92,2.15,2.14,1.66.34,3.09-.22,3.74-1.67.56-1.26.32-2.79-.83-3.76-1.03-.87-2.56-.95-3.93-.03ZM323.99,20.48c-.37-1.99-2.22-2.89-3.91-2.49s-2.7,2.03-2.38,3.76,2.03,2.88,3.83,2.54c1.61-.31,2.82-1.9,2.47-3.8ZM320.33,50.5c1.53.22,2.57-.19,3.37-1.3,1.13-1.58.51-3.85-1.18-4.68-1.79-.88-3.92-.02-4.52,1.82s.27,3.86,2.34,4.16ZM320.93,76.5c1.28.12,2.09-.22,2.75-.92s.88-1.6.72-2.71c-.24-1.66-1.81-2.79-3.38-2.55s-2.72,1.37-2.83,3c-.09,1.41,1.06,3.03,2.73,3.18ZM321.34,102.72c1.79-.01,3.23-1.47,3.22-3.26-.01-1.79-1.47-3.23-3.26-3.22s-3.23,1.47-3.22,3.26,1.47,3.23,3.26,3.22ZM319.26,128.15c1.45,1.26,3.55.99,4.55-.13,1.22-1.38,1.21-3.31.03-4.47s-3.1-1.37-4.51-.2-1.47,3.58-.06,4.81ZM324.62,153.16c.68-1.57.19-3.21-1.08-3.99-1.19-.74-2.64-.71-3.86.33-1.5,1.27-1.34,3.68.22,4.83s3.87.78,4.72-1.18ZM324.45,179.79c.8-1.33.76-2.72-.16-3.91-.73-.94-2.02-1.52-3.35-1.1-1.12.35-2.32,1.27-2.35,2.66-.02.97.17,2.06.78,2.68,1.43,1.46,4.21,1.12,5.08-.34ZM319.29,205.98c1.1,1.75,3.65,1.77,5.04.34,1.22-1.27,1.09-3.21,0-4.39-1.18-1.27-3.03-1.32-4.39-.27-1.21.93-1.64,2.74-.64,4.33ZM319.14,230.39c.06,1.45,1.04,2.35,2.01,2.72,1.14.43,2.39.29,3.4-.62s1.14-2.8.36-4.03c-.47-.75-1.57-1.41-2.47-1.43-1.78-.04-3.38,1.54-3.3,3.37ZM325.36,255.35c-.55-1.89-2.58-2.74-4.04-2.22-1.76.63-2.57,2.31-2.18,3.94.44,1.82,2.31,2.7,4.05,2.29,1.59-.38,2.69-2.21,2.16-4.01ZM305.75,5.83c-1.46,1.25-1.5,3.28-.32,4.61s3.14,1.4,4.5.32,1.52-3.18.42-4.44c-1.28-1.47-3.05-1.82-4.6-.49ZM308.18,63.63c1.78-.01,3.22-1.47,3.21-3.25s-1.47-3.22-3.25-3.21-3.22,1.47-3.21,3.25,1.47,3.22,3.25,3.21ZM305.81,88.67c1.33,1.65,3.49,1.59,4.84.26s1.14-3.65-.43-4.86c-1.29-1-3.23-.8-4.31.41-.99,1.11-1.17,2.86-.1,4.19ZM309.29,141.91c1.67-.28,2.66-1.81,2.56-3.22-.11-1.52-.9-2.71-2.51-3-2.09-.39-3.88,1-3.95,3.03-.06,1.95,1.66,3.56,3.89,3.19ZM308.8,168.27c1.78-.01,3.22-1.47,3.21-3.25s-1.47-3.22-3.25-3.21-3.22,1.47-3.21,3.25,1.47,3.22,3.25,3.21ZM309.12,220.38c1.78-.01,3.21-1.46,3.2-3.23s-1.46-3.21-3.23-3.2-3.21,1.46-3.2,3.23,1.46,3.21,3.23,3.2ZM312.32,242.43c-.57-1.9-2.59-2.64-4.27-2.01s-2.45,2.33-1.89,4.02,2.32,2.56,4.03,2.06,2.7-2.2,2.13-4.08ZM305.88,36.85c1.3,1.1,3.48.72,4.38-.58,1.1-1.58.83-3.45-.57-4.45s-3.33-.77-4.35.56c-1,1.31-.9,3.26.54,4.48ZM308.31,115.87c1.74-.01,3.14-1.43,3.13-3.17s-1.43-3.14-3.17-3.13-3.14,1.43-3.13,3.17,1.43,3.14,3.17,3.13ZM305.69,190.43c-.25,1.67.5,2.95,1.79,3.55s2.77.22,3.66-.8c.95-1.08.97-2.6.16-3.91-.61-.99-2.02-1.54-3.17-1.28s-2.24,1.09-2.44,2.44ZM292.04,74.52c.56,2.19,2.9,2.88,4.73,1.86,1.7-.94,2.09-3.26.75-4.97-.88-1.12-2.76-1.35-3.95-.65-1.29.75-1.95,2.08-1.53,3.76ZM292.49,152.88c.41,2.05,2.6,2.71,4.31,2.11s2.38-2.41,1.78-4.25c-.42-1.29-1.82-2.02-3.14-1.96-1.21.05-2.48.73-2.9,2.1-.13.42-.16,1.42-.05,2ZM299.23,229.8c-.21-1.71-2.12-2.93-3.74-2.62-1.88.36-2.92,1.99-2.59,3.84s1.93,2.87,3.85,2.49c1.6-.32,2.72-1.78,2.48-3.71ZM294.81,24.63c1.74-.01,3.14-1.43,3.13-3.16s-1.43-3.14-3.16-3.13-3.14,1.43-3.13,3.16,1.43,3.14,3.16,3.13ZM297.87,46.19c-.71-1.79-2.74-2.45-4.16-1.76-1.66.81-2.3,2.4-1.73,4.04s2.46,2.37,4.12,1.81c1.56-.52,2.44-2.36,1.76-4.09ZM295.28,103c1.74-.01,3.14-1.43,3.13-3.16-.01-1.74-1.43-3.14-3.16-3.13s-3.14,1.43-3.13,3.16,1.43,3.14,3.16,3.13ZM295.43,128.88c1.74-.01,3.14-1.43,3.13-3.16s-1.43-3.14-3.16-3.13-3.14,1.43-3.13,3.16,1.43,3.14,3.16,3.13ZM295.76,181.38c1.73-.01,3.13-1.42,3.12-3.16-.01-1.73-1.42-3.13-3.16-3.12s-3.13,1.42-3.12,3.16,1.42,3.13,3.16,3.12ZM295.35,207.15c1.21.16,2.39-.21,3.03-1.07,1.19-1.6.68-3.93-1-4.75s-3.87-.11-4.44,1.67.23,3.84,2.41,4.14ZM294.68,259.38c1.37.63,2.77.41,3.73-.46s1.13-2.37.65-3.63c-.54-1.42-1.97-1.93-3.43-1.75-1.25.15-2.29,1.15-2.5,2.39-.23,1.37.19,2.83,1.55,3.46ZM284.69,7.54c-.55-1.91-2.54-2.69-4.03-2.21-1.85.6-2.6,2.25-2.23,3.91.41,1.84,2.3,2.7,4.08,2.28,1.57-.37,2.69-2.21,2.18-3.97ZM278.77,34.51c.06,2.17,2.05,3.41,3.8,3.08,1.95-.37,2.89-2.34,2.29-4.28-.45-1.47-2.01-2.16-3.45-1.9s-2.69,1.37-2.64,3.09ZM281.92,63.8c1.79-.01,3.23-1.47,3.22-3.26s-1.47-3.23-3.26-3.22-3.23,1.47-3.22,3.26,1.47,3.23,3.26,3.22ZM281.87,90.04c1.64.2,3.02-1.18,3.35-2.61.35-1.52-.62-3.27-2.15-3.7s-2.86.13-3.7,1.3c-.71.99-.82,2.62.03,3.71.52.67,1.57,1.19,2.46,1.3ZM282.41,116.01c1.74-.01,3.14-1.43,3.13-3.17s-1.43-3.14-3.17-3.13-3.14,1.43-3.13,3.17,1.43,3.14,3.17,3.13ZM282.38,142.18c1.79-.01,3.22-1.47,3.21-3.25s-1.47-3.22-3.25-3.21c-1.79.01-3.22,1.47-3.21,3.25s1.47,3.22,3.25,3.21ZM285.69,164.55c-.42-1.91-2.14-2.89-4.02-2.46-1.65.38-2.68,2.13-2.27,4.01.33,1.54,2.22,2.67,3.89,2.25s2.79-2.03,2.4-3.79ZM283.01,188.12c-2.15,0-3.47,1.67-3.25,3.54.21,1.78,1.87,2.97,3.55,2.69,1.89-.31,2.99-1.97,2.59-3.95-.25-1.24-1.54-2.29-2.89-2.28ZM282.18,220.42c1.76.29,3.12-.54,3.67-1.91s.12-2.87-1.18-3.87c-1.61-1.22-3.97-.4-4.75,1.36s.15,4.06,2.26,4.42ZM283.01,246.8c1.79-.01,3.22-1.47,3.21-3.25-.01-1.79-1.47-3.22-3.25-3.21s-3.22,1.47-3.21,3.25,1.47,3.22,3.25,3.21ZM268.75,24.65c1.78-.01,3.22-1.46,3.21-3.24s-1.46-3.22-3.24-3.21-3.22,1.46-3.21,3.24,1.46,3.22,3.24,3.21ZM271.14,50.07c1.32-1.15,1.26-3.6,0-4.72-1.38-1.21-3.49-1.11-4.62.17s-1.21,3.14.07,4.45c1.08,1.1,3.05,1.41,4.55.11ZM269.23,103.03c1.78-.01,3.21-1.46,3.2-3.23s-1.46-3.21-3.23-3.2-3.21,1.46-3.2,3.23,1.46,3.21,3.23,3.2ZM269.84,129.25c2.06-.35,3.05-1.96,2.64-3.88s-2.05-2.83-4.03-2.38c-1.44.33-2.63,2.04-2.28,3.75.32,1.54,1.85,2.81,3.67,2.5ZM267.09,180.21c.68,1.02,2.14,1.32,3.38,1.09,2-.37,2.97-2.62,2.14-4.49-.69-1.55-2.96-2.39-4.48-1.45-1.61.99-2.25,3.04-1.03,4.86ZM269.84,207.69c1.78-.01,3.22-1.46,3.21-3.24s-1.46-3.22-3.24-3.21-3.22,1.46-3.21,3.24,1.46,3.22,3.24,3.21ZM269.64,259.74c2.38.22,3.95-1.48,3.71-3.51-.24-1.96-1.93-3.21-4.08-2.75-1.45.31-2.39,1.78-2.34,3.22.05,1.4,1.1,2.89,2.71,3.04ZM271.94,73.17c-.27-1.88-2.15-2.88-3.74-2.51-1.73.4-2.66,1.95-2.42,3.6.26,1.81,1.85,2.83,3.7,2.55,1.58-.24,2.74-1.72,2.46-3.64ZM272.43,151.53c-.32-1.85-2.12-2.86-3.73-2.49-1.77.41-2.71,1.93-2.42,3.76.24,1.49,1.97,2.81,3.56,2.45,1.72-.39,2.93-1.75,2.59-3.73ZM271.06,227.64c-1.91-.91-4.05.39-4.34,2.24-.31,1.97,1.1,3.78,3,3.77s3.55-1.66,3.18-3.62c-.22-1.16-.71-1.84-1.85-2.39ZM258.91,34.41c-.18-1.91-1.75-3.13-3.57-2.96s-3.04,1.78-2.82,3.65c.21,1.71,1.68,2.95,3.68,2.73,1.46-.17,2.87-1.68,2.71-3.42ZM253.28,111.48c-.69,1.45-.32,2.98.62,3.87,1.02.96,2.44,1.19,3.78.58s1.94-2.17,1.68-3.44-1.36-2.43-2.53-2.62c-1.4-.23-2.9.26-3.55,1.61ZM259.84,191.12c-.18-1.88-1.91-3.22-3.74-2.94-1.6.25-2.88,1.92-2.69,3.53.22,1.85,1.69,3.09,3.57,2.92,1.59-.14,3.03-1.69,2.86-3.51ZM255.56,11.55c1.74-.01,3.14-1.43,3.13-3.17s-1.43-3.14-3.17-3.13-3.14,1.43-3.13,3.17,1.43,3.14,3.17,3.13ZM253.45,58.85c-1.18,1.5-.86,3.26.28,4.38s2.97,1.02,4.16.06,1.5-2.9.5-4.28c-1.11-1.54-3.75-1.68-4.94-.16ZM256,89.9c1.73-.01,3.12-1.42,3.11-3.15s-1.42-3.12-3.15-3.11-3.12,1.42-3.11,3.15,1.42,3.12,3.15,3.11ZM256.34,142.42c1.74-.01,3.14-1.43,3.13-3.16s-1.43-3.14-3.16-3.13-3.14,1.43-3.13,3.16,1.43,3.14,3.16,3.13ZM256.48,168.29c1.74-.01,3.14-1.43,3.13-3.16s-1.43-3.14-3.16-3.13-3.14,1.43-3.13,3.16,1.43,3.14,3.16,3.13ZM256.79,220.79c1.74-.01,3.13-1.43,3.12-3.16s-1.43-3.13-3.16-3.12-3.13,1.43-3.12,3.16,1.43,3.13,3.16,3.12ZM256.61,246.61c1.1.06,2.1-.28,2.69-.93.56-.61.82-1.55.75-2.47-.14-1.76-1.67-2.81-3.27-2.79s-2.96,1.38-2.98,2.95.94,3.14,2.81,3.24ZM239.28,21.11c-.21,1.74.86,3.19,2.22,3.56,1.59.43,3.07-.15,3.84-1.56.68-1.23.41-3.21-.81-4.01-1.04-.69-2.19-.95-3.31-.53-.9.34-1.78,1.26-1.94,2.54ZM242.65,51.1c1.79-.01,3.24-1.47,3.23-3.26s-1.47-3.24-3.26-3.23-3.24,1.47-3.23,3.26,1.47,3.24,3.26,3.23ZM245.96,72.95c-.44-1.71-2.4-2.52-3.9-2.08-1.76.53-2.58,2.33-2.1,3.87.57,1.84,2.27,2.6,3.98,2.11s2.48-2.13,2.02-3.91ZM242.95,103.21c1.79-.01,3.23-1.47,3.22-3.25s-1.47-3.23-3.25-3.22-3.23,1.47-3.22,3.25,1.47,3.23,3.25,3.22ZM239.93,125.63c-.29,2.17,1.01,3.52,2.88,3.81,1.65.26,3.23-.99,3.51-2.74.26-1.64-.87-3.34-2.62-3.61s-3.52.75-3.76,2.54ZM246.4,151.27c-.6-1.87-2.44-2.46-3.98-1.93-1.72.59-2.49,2.29-1.95,3.95s2.37,2.56,3.81,2.06c1.79-.61,2.72-2.2,2.12-4.09ZM243.43,181.57c1.78-.01,3.21-1.46,3.2-3.24s-1.46-3.21-3.24-3.2-3.21,1.46-3.2,3.24,1.46,3.21,3.24,3.2ZM242.52,207.68c1.45.37,2.93-.07,3.62-1.05.78-1.11.91-2.43.24-3.67-.71-1.3-2.32-1.83-3.75-1.39-1.26.39-2.23,1.49-2.24,2.9-.01,1.33.58,2.8,2.14,3.2ZM246.88,229.72c-.54-1.76-2.47-2.63-3.98-2-1.66.69-2.54,2.36-1.98,3.91.61,1.68,2.24,2.43,3.83,2.05,1.74-.42,2.65-2.24,2.13-3.95ZM243.91,259.96c1.78-.01,3.21-1.46,3.2-3.24s-1.46-3.21-3.24-3.2-3.21,1.46-3.2,3.24c.01,1.78,1.46,3.21,3.24,3.2ZM229.5,12c1.79-.01,3.24-1.47,3.22-3.26s-1.47-3.24-3.26-3.22-3.24,1.47-3.22,3.26,1.47,3.24,3.26,3.22ZM229.81,64.1c1.78-.01,3.22-1.46,3.21-3.25-.01-1.78-1.46-3.22-3.25-3.21s-3.22,1.46-3.21,3.25,1.46,3.22,3.25,3.21ZM229.44,83.97c-1.88.26-2.91,1.96-2.68,3.63.22,1.59,1.68,2.86,3.37,2.76,1.49-.09,2.98-1.39,3.04-3.03.03-1.03-.34-1.96-.95-2.58-.66-.67-1.66-.93-2.78-.78ZM230.29,142.46c1.78-.01,3.21-1.46,3.2-3.24-.01-1.78-1.46-3.21-3.24-3.2s-3.21,1.46-3.2,3.24,1.46,3.21,3.24,3.2ZM230.44,168.73c1.78-.01,3.22-1.47,3.21-3.25s-1.47-3.22-3.25-3.21-3.22,1.47-3.21,3.25,1.47,3.22,3.25,3.21ZM230.03,220.72c1.29.22,2.46-.09,3.15-.94,1.29-1.6.9-3.93-.79-4.93s-3.77-.29-4.62,1.47.19,4.03,2.26,4.39ZM228.19,245.6c.84,1.2,2.13,1.77,3.44,1.44,1.11-.28,2.2-1.08,2.42-2.34.27-1.62-.38-3.02-1.72-3.72-1.23-.64-2.88-.3-3.83.72s-1.2,2.62-.3,3.91ZM228.93,37.87c1.16.11,2.24-.25,2.88-.97.54-.61.81-1.68.71-2.61-.17-1.68-1.69-2.66-3.16-2.6-1.62.07-2.92,1.29-3.02,2.72-.11,1.61.75,3.28,2.59,3.46ZM232.43,115.09c.87-1.07.77-3.11-.15-4.04-1.36-1.36-3.45-1.27-4.6-.1-1.24,1.27-1.18,3.37.16,4.58,1.25,1.13,3.28,1.16,4.59-.44ZM232.48,193.92c1.26-.98,1.31-3.01.39-4.34-.69-.99-2.16-1.29-3.36-1-2.07.51-2.82,2.78-1.8,4.55.91,1.59,3.01,2.15,4.77.78ZM220.89,230.65c-.09-1.95-1.7-3.21-3.54-3.04-1.67.16-2.99,1.69-2.9,3.41s1.54,3.07,3.35,3.04,3.17-1.42,3.08-3.41ZM216.44,25.1c1.74-.01,3.14-1.43,3.13-3.17s-1.43-3.14-3.17-3.13-3.14,1.43-3.13,3.17,1.43,3.14,3.17,3.13ZM216.59,50.96c1.74-.01,3.14-1.43,3.13-3.17s-1.43-3.14-3.17-3.13-3.14,1.43-3.13,3.17,1.43,3.14,3.17,3.13ZM216.75,77.3c1.78-.01,3.21-1.46,3.2-3.24s-1.46-3.21-3.24-3.2-3.21,1.46-3.2,3.24,1.46,3.21,3.24,3.2ZM216.31,97.29c-1.85.29-2.69,1.8-2.53,3.44.14,1.47,1.44,2.69,3.01,2.75s2.94-1,3.17-2.66c.15-1.11-.18-2.08-.87-2.79s-1.65-.92-2.78-.74ZM216.53,129.26c1.13.16,2.22-.22,2.88-.91s.91-1.83.7-2.86c-.34-1.69-1.84-2.58-3.38-2.41s-2.79,1.43-2.83,2.96.79,2.96,2.63,3.22ZM219.56,154.71c1.26-1.32,1.06-3.8-.29-4.79-1.26-.93-2.77-.91-3.9-.15s-1.56,2.22-1.22,3.69c.26,1.1,1.28,1.93,2.21,2.13,1.1.24,2.33.04,3.2-.87ZM220.38,177.91c-.45-1.84-2.18-2.63-3.98-2.19-1.59.39-2.56,2.2-2.02,3.92.51,1.62,2.19,2.58,3.86,2.09s2.58-2.03,2.15-3.82ZM217.54,207.72c1.74-.01,3.14-1.43,3.13-3.17s-1.43-3.14-3.17-3.13-3.14,1.43-3.13,3.17,1.43,3.14,3.17,3.13ZM219.96,259.45c.87-.69,1.15-2.14.9-3.2-.49-2.05-2.65-2.81-4.41-1.96-1.67.8-2.25,2.88-1.25,4.49.93,1.51,3.1,2,4.76.67ZM206.34,8.18c-.36-1.85-2.27-2.88-3.84-2.45-1.82.5-2.78,2.15-2.42,3.89.37,1.77,1.96,2.72,3.7,2.44s2.96-1.87,2.56-3.89ZM206.45,33.78c-.71-1.82-2.67-2.29-4.15-1.7-1.58.63-2.22,2.55-1.7,3.95.65,1.76,2.54,2.41,4.13,1.86s2.37-2.45,1.73-4.1ZM203.57,64.24c1.78-.01,3.22-1.46,3.21-3.25s-1.46-3.22-3.25-3.21-3.22,1.46-3.21,3.25,1.46,3.22,3.25,3.21ZM201.52,84.85c-1.7,1.51-1.27,4.29.51,5.24s3.54.32,4.47-1.21c.86-1.4.4-3.36-1.13-4.38-1-.67-2.84-.55-3.86.35ZM204.05,116.48c1.73-.01,3.13-1.42,3.12-3.16-.01-1.73-1.42-3.13-3.16-3.12s-3.13,1.42-3.12,3.16,1.42,3.13,3.16,3.12ZM203.59,142.59c1.72.12,2.99-.76,3.49-2.15s-.05-2.99-1.23-3.73c-1.24-.77-2.74-.74-4.01.28-.96.77-1.3,2.23-.87,3.46.36,1.02,1.19,2.03,2.62,2.13ZM207.32,165.01c-.36-1.91-2.17-2.81-3.98-2.44-1.75.36-2.69,2.06-2.29,4,.32,1.56,2.18,2.68,3.88,2.25s2.73-2.01,2.39-3.81ZM201.88,190.09c-1.16,1.77-.22,3.92,1.64,4.6,1.71.62,3.74-.47,4.04-2.41.24-1.58-.5-3.02-1.93-3.5-1.34-.45-2.82-.11-3.75,1.31ZM206.55,220.32c.96-.69,1.3-2.02,1.08-3.23-.18-.98-.97-2.08-2.14-2.4-1.4-.38-2.97.13-3.64,1.17-.79,1.24-.79,2.76.12,3.99,1.02,1.36,3.11,1.51,4.57.47ZM207.73,243.08c-.58-1.88-2.57-2.67-4.26-2.05-1.51.56-2.44,2.38-1.9,4.05s2.32,2.57,4.02,2.03c1.58-.51,2.71-2.2,2.14-4.02ZM189.34,24.95c1.35.37,2.49.1,3.3-.7s1.1-1.75.89-2.98c-.28-1.59-1.71-2.63-3.21-2.59s-2.89,1.18-3.12,2.64c-.24,1.52.51,3.18,2.15,3.63ZM189.9,51.3c1.52.17,2.79-.3,3.42-1.47s.57-2.61-.24-3.6-1.92-1.44-3.44-1.14c-1.4.27-2.41,1.81-2.33,3.17.09,1.49,1.06,2.87,2.58,3.04ZM190.87,103.53c1.78-.01,3.22-1.47,3.21-3.25s-1.47-3.22-3.25-3.21-3.22,1.47-3.21,3.25,1.47,3.22,3.25,3.21ZM189.36,129.3c1.32.9,3.03.54,3.98-.48s1.16-2.72.5-3.83c-.78-1.32-2.06-1.85-3.7-1.56-1.23.22-2.15,1.51-2.31,2.59-.2,1.33.35,2.46,1.55,3.28ZM190.82,181.82c1.24.11,2.28-.23,2.92-.94.6-.68.9-1.65.78-2.68-.21-1.71-1.84-2.9-3.41-2.77s-2.88,1.43-3,2.99c-.11,1.55.93,3.25,2.71,3.41ZM191.5,208.15c1.78-.01,3.22-1.47,3.21-3.25s-1.47-3.22-3.25-3.21-3.22,1.47-3.21,3.25,1.47,3.22,3.25,3.21ZM191.82,260.29c1.78-.01,3.22-1.46,3.21-3.24s-1.46-3.22-3.24-3.21-3.22,1.46-3.21,3.24,1.46,3.22,3.24,3.21ZM193.53,73.45c-.48-1.9-2.26-2.71-3.87-2.27-1.73.47-2.6,2.1-2.19,3.93.34,1.52,2.1,2.55,3.66,2.19,1.68-.4,2.87-1.98,2.4-3.85ZM194.02,151.86c-.33-1.75-2.31-2.78-3.87-2.31-1.71.52-2.63,2.17-2.19,3.88.41,1.62,2.05,2.55,3.67,2.22s2.73-1.97,2.38-3.8ZM191.47,234.13c1.74-.01,3.14-1.43,3.13-3.17s-1.43-3.14-3.17-3.13-3.14,1.43-3.13,3.17c.01,1.74,1.43,3.14,3.17,3.13ZM181.03,113.24c-.2-1.93-1.91-3.19-3.79-2.92-1.6.23-2.92,1.83-2.67,3.52.27,1.79,1.73,3.01,3.57,2.89,1.57-.1,3.06-1.71,2.88-3.49ZM181.49,191.59c-.17-1.82-1.97-3.2-3.75-2.9-1.66.28-2.89,1.9-2.71,3.53.2,1.82,1.76,3.01,3.58,2.88,1.66-.12,3.05-1.64,2.88-3.51ZM177.19,12c1.73-.01,3.13-1.43,3.12-3.16s-1.43-3.13-3.16-3.12-3.13,1.43-3.12,3.16,1.43,3.13,3.16,3.12ZM174.23,35.99c.33,1.66,2.26,2.67,3.85,2.28,1.72-.42,2.71-2.12,2.35-3.94s-2.19-2.74-3.87-2.34c-1.78.42-2.74,2.03-2.34,4.01ZM177.5,64.51c1.73-.01,3.13-1.42,3.12-3.16s-1.42-3.13-3.16-3.12-3.13,1.42-3.12,3.16c.01,1.73,1.42,3.13,3.16,3.12ZM180.63,86.37c-.48-1.78-2.29-2.56-3.91-2.11-1.73.48-2.51,2.31-2.07,3.89.5,1.77,2.25,2.53,3.97,2.09,1.59-.41,2.46-2.18,2.01-3.86ZM175.74,141.96c1.19,1.31,3.06,1.2,4.26.18s1.45-2.73.56-4.18c-.99-1.62-3.72-1.77-4.95-.33-1.13,1.32-1.03,3.06.13,4.33ZM181.08,164.66c-.57-1.84-2.53-2.56-4.03-2-1.66.62-2.41,2.28-1.97,3.86.48,1.75,2.26,2.54,3.99,2.06,1.55-.44,2.55-2.17,2.01-3.92ZM179.33,215.14c-2.08-.51-3.88.77-4.03,2.7s1.23,3.5,3.23,3.44c1.88-.05,3.25-1.78,2.94-3.78-.18-1.18-.9-2.05-2.15-2.36ZM178.59,247.14c1.74-.01,3.13-1.43,3.12-3.16s-1.43-3.13-3.16-3.12-3.13,1.43-3.12,3.16,1.43,3.13,3.16,3.12ZM167.26,21.41c-.38-1.92-2.29-2.89-3.94-2.5-1.73.42-2.69,2.1-2.36,3.76.37,1.86,1.96,2.89,3.83,2.54,1.6-.3,2.84-1.87,2.46-3.8ZM162.7,45.47c-1.39.99-1.84,2.18-1.55,3.58.23,1.12,1.07,2.16,2.36,2.38,1.81.31,3.24-.42,3.85-2.09.49-1.35-.06-2.95-1.57-3.87-.69-.42-2.44-.47-3.09,0ZM164.64,77.53c1.74-.01,3.14-1.43,3.13-3.17s-1.43-3.14-3.17-3.13-3.14,1.43-3.13,3.17,1.43,3.14,3.17,3.13ZM161.4,99.94c-.17,1.71.68,3.01,2.03,3.53s2.79.13,3.69-1c.92-1.17.96-2.76.04-4.04-.77-1.06-2.22-1.39-3.41-1.05s-2.2,1.08-2.35,2.57ZM162.08,128.57c1.16,1.84,4.03,1.77,5.21.12.63-.88.9-1.87.59-2.88-.21-.68-.86-1.62-1.72-2-1.26-.56-2.94-.31-3.89.74s-1,2.74-.19,4.03ZM165.11,155.91c1.73-.01,3.13-1.43,3.12-3.16s-1.43-3.13-3.16-3.12-3.13,1.43-3.12,3.16,1.43,3.13,3.16,3.12ZM162.3,180.59c.74,1.32,2.39,1.69,3.64,1.33,1.33-.38,2.36-1.58,2.35-3.09,0-1.38-1.04-2.67-2.06-2.99-1.48-.47-2.94-.04-3.71.94-.82,1.04-.95,2.52-.22,3.8ZM167.38,207.51c.88-.71,1.25-2.23.99-3.28-.48-1.95-2.79-2.85-4.36-2.15-1.94.86-2.52,2.95-1.55,4.68.92,1.64,3.2,2.15,4.92.75ZM168.53,230.18c-.54-1.75-2.47-2.61-4-1.98-1.64.67-2.52,2.4-1.96,3.9.62,1.66,2.32,2.55,3.83,2.07,1.75-.57,2.67-2.23,2.13-3.99ZM165.54,260.44c1.78-.01,3.22-1.46,3.21-3.25s-1.46-3.22-3.25-3.21-3.22,1.46-3.21,3.25,1.46,3.22,3.25,3.21ZM154.21,8.37c-.45-1.82-2.46-2.76-3.99-2.24-1.82.63-2.65,2.26-2.21,3.99.43,1.69,2.31,2.58,3.83,2.25,1.88-.41,2.83-2.13,2.37-4ZM151.46,64.57c1.78-.01,3.22-1.47,3.21-3.25s-1.47-3.22-3.25-3.21-3.22,1.47-3.21,3.25,1.47,3.22,3.25,3.21ZM153.23,84.8c-1.57-.76-3.3-.42-4.23.86-.87,1.21-.92,2.85.17,4.08.9,1.02,2.46,1.42,3.91.74,1.11-.52,1.67-1.71,1.69-2.82s-.41-2.31-1.54-2.86ZM154.99,138.82c-.51-1.94-2.45-2.6-4.08-2.17-1.71.46-2.53,2.33-2.15,3.87.44,1.83,2.35,2.71,4,2.3s2.73-2.13,2.23-4ZM152.07,169.21c1.78-.01,3.22-1.47,3.21-3.25s-1.47-3.22-3.25-3.21-3.22,1.47-3.21,3.25,1.47,3.22,3.25,3.21ZM153.43,221.13c1.47-.38,2.17-1.82,2.14-3.15-.03-1.24-.8-2.48-2.11-2.9-1.39-.45-2.92.03-3.66,1.01-.92,1.23-.86,2.78-.11,3.83.84,1.17,2.18,1.62,3.73,1.22ZM155.59,243.36c-.58-1.89-2.6-2.63-4.26-2s-2.38,2.36-1.89,4.04c.5,1.71,2.37,2.53,4.03,2.07s2.7-2.19,2.11-4.1ZM149.01,37.69c.6.58,1.54.71,2.39.67,1.59-.07,2.68-1.48,2.81-2.9.14-1.5-.85-2.77-2.14-3.16-1.48-.45-2.93.12-3.63,1.3-.77,1.29-.6,2.95.57,4.1ZM151.59,116.83c1.74-.01,3.15-1.43,3.14-3.18s-1.43-3.15-3.18-3.14-3.15,1.43-3.14,3.18,1.43,3.15,3.18,3.14ZM148.93,191.59c-.09,1.17.32,2.18,1.01,2.81s1.75.99,2.71.76c1.7-.4,2.7-1.89,2.47-3.55-.2-1.47-1.42-2.67-2.92-2.69-1.55-.02-3.12.82-3.26,2.67ZM135.36,73.48c-.53,1.91.25,3.37,1.83,4.06,1.43.62,3.16.08,4.03-1.42.98-1.7.14-3.74-1.52-4.51s-3.82,0-4.33,1.87ZM142.07,152.64c-.16-1.89-1.93-3.16-3.75-2.91s-2.83,1.76-2.68,3.53c.15,1.8,1.68,3.06,3.53,2.87,1.71-.17,3.06-1.57,2.9-3.49ZM142.52,230.9c-.22-1.86-2.02-3.08-3.73-2.79s-2.87,1.91-2.69,3.53c.21,1.91,1.72,3.01,3.57,2.86,1.66-.14,3.08-1.59,2.84-3.6ZM138.09,25.56c1.74-.01,3.14-1.43,3.12-3.16-.01-1.74-1.43-3.14-3.16-3.12s-3.14,1.43-3.12,3.16,1.43,3.14,3.16,3.12ZM138.24,51.43c1.73-.01,3.13-1.43,3.12-3.16s-1.43-3.13-3.16-3.12-3.13,1.43-3.12,3.16,1.43,3.13,3.16,3.12ZM138.55,103.95c1.74-.01,3.14-1.43,3.13-3.17-.01-1.74-1.43-3.14-3.17-3.13s-3.14,1.43-3.13,3.17,1.43,3.14,3.17,3.13ZM137.14,129.4c1.86.88,3.91.12,4.53-1.69s-.41-3.68-2.31-4.11c-1.74-.39-3.64.88-3.77,2.8-.09,1.26.33,2.42,1.55,3ZM141.99,178.32c-.57-1.91-2.38-2.63-4.11-2.05-1.52.5-2.33,2.24-1.86,3.86s2.23,2.62,3.88,2.09c1.54-.5,2.61-2.14,2.09-3.89ZM140.88,207.71c1.81-1.22,1.8-3.71.41-5-1.33-1.22-3.7-.99-4.69.51s-.64,3.9,1.21,4.68c.8.34,2.29.33,3.08-.2ZM142.49,256.67c-.56-1.92-2.39-2.6-4.13-2.05-1.59.5-2.32,2.18-1.85,3.88.43,1.56,2.23,2.63,3.91,2.09,1.54-.5,2.59-2.17,2.08-3.91ZM122.76,11.87c1.36,1.08,2.92.9,4.05.06,1.19-.89,1.66-2.33,1.07-3.79-.46-1.15-1.65-2.1-3.17-1.98-.66.05-1.83.5-2.31,1.05-1.15,1.32-.96,3.6.37,4.66ZM122.74,37.38c.92,1.11,2.03,1.38,3.23,1.13,1.11-.24,2.01-1.04,2.26-2.33.29-1.51-.39-3.03-1.75-3.62-1.26-.55-2.92-.17-3.78.93s-.87,2.79.05,3.9ZM128.31,60.72c-.42-1.86-2.24-2.75-3.93-2.35-1.81.42-2.73,2.23-2.32,3.93.46,1.86,2.16,2.77,3.99,2.3,1.62-.42,2.65-2.1,2.25-3.87ZM128.46,87.08c-.55-2.04-2.27-2.88-4.14-2.38-1.61.43-2.52,2.11-2.11,3.95.35,1.53,2.15,2.79,3.86,2.28,1.58-.48,2.88-2.02,2.39-3.84ZM123.51,111.55c-1.23,1.04-1.29,2.96-.39,4.09s2.56,1.65,3.87,1.03,2.02-2.09,1.73-3.7c-.19-1.03-1.22-1.95-2.11-2.19-1.04-.28-2.17-.01-3.09.76ZM125.11,143.04c1.81.25,3.47-.94,3.73-2.61.25-1.59-.71-3.37-2.33-3.67-2.01-.37-3.7.72-4.03,2.47s.74,3.55,2.62,3.81ZM122.76,165.04c-.51,1.75.19,3.23,1.54,3.97s2.97.37,3.99-.76.91-2.98.08-4.1c-.95-1.29-2.69-1.51-4.15-.84-.68.31-1.23.94-1.46,1.73ZM125.48,189.18c-1.73.23-2.63,1.87-2.47,3.43.15,1.43,1.5,2.73,2.97,2.76,1.59.03,3.01-.97,3.22-2.62.15-1.18-.1-2.15-.86-2.86-.71-.65-1.63-.87-2.87-.7ZM126.14,221.51c1.78-.01,3.22-1.47,3.21-3.25s-1.47-3.22-3.25-3.21-3.22,1.47-3.21,3.25,1.47,3.22,3.25,3.21ZM126.3,247.76c1.79-.01,3.23-1.47,3.22-3.26-.01-1.79-1.47-3.23-3.26-3.22s-3.23,1.47-3.22,3.26,1.47,3.23,3.26,3.22ZM115.05,21.31c-.63-1.91-2.63-2.54-4.19-1.96-1.69.63-2.39,2.41-1.93,4.02.51,1.8,2.43,2.58,4.13,2.06s2.59-2.31,1.99-4.12ZM115.24,47.71c-.59-1.88-2.44-2.63-4.18-2.1-1.52.46-2.48,2.37-2,3.92.55,1.79,2.21,2.6,3.99,2.19,1.61-.37,2.78-2.15,2.19-4.01ZM112.51,104c1.79-.01,3.23-1.47,3.22-3.25s-1.47-3.23-3.25-3.22-3.23,1.47-3.22,3.25c.01,1.79,1.47,3.23,3.25,3.22ZM114.52,129.68c1.2-.74,1.57-2.26,1.22-3.63-.28-1.11-1.53-2.09-2.69-2.21-1.39-.15-2.64.46-3.32,1.76-.71,1.38-.26,2.95.85,3.88s2.52,1.07,3.94.2ZM112.24,182.25c1.25.2,2.31-.07,3-.77s1.04-1.66.91-2.81c-.19-1.68-1.69-2.75-3.26-2.75s-2.88,1.28-3.13,2.8.74,3.26,2.48,3.54ZM114.58,208.31c1.41-.6,1.96-2.3,1.65-3.67s-1.4-2.28-2.74-2.42-2.82.51-3.32,1.86c-.54,1.45-.24,2.7.78,3.67.88.84,2.23,1.15,3.64.56ZM115.09,260.34c1.89-1.13,2.02-3.66.71-5.01-1.37-1.42-3.78-1.36-4.98.29-1.07,1.48-.8,3.68,1.04,4.76.76.44,2.33.5,3.22-.04ZM109.05,75.23c.16,1.47,1.52,2.46,2.71,2.61,1.42.18,2.69-.64,3.19-1.75.61-1.36.31-2.71-.77-3.78-.93-.93-2.37-.98-3.49-.39s-1.82,1.71-1.64,3.32ZM113.17,150.01c-2-.4-3.76,1.24-3.69,3.09.07,1.87,1.56,3.35,3.47,3.13s3.12-1.93,2.7-3.8c-.29-1.3-1.01-2.12-2.48-2.41ZM110.11,230.41c-.44,1.68.22,3.12,1.55,3.84s2.81.37,3.78-.75c.91-1.04,1.11-2.64.2-3.8-.74-.95-1.87-1.49-2.91-1.33-1.14.18-2.3.81-2.62,2.04ZM98.99,38.81c1.78-.01,3.22-1.47,3.21-3.25s-1.47-3.22-3.25-3.21-3.22,1.47-3.21,3.25,1.47,3.22,3.25,3.21ZM96.29,114.47c.26,2.26,2.64,3.32,4.51,2.44,1.73-.81,2.38-2.96,1.4-4.66s-3.31-1.99-4.96-.72c-.78.6-1.09,1.72-.95,2.94ZM97.67,194.76c1.46,1.19,3.32,1.06,4.55-.12,1.12-1.07,1.31-3,.21-4.29-1.03-1.2-2.81-1.74-4.1-.84-.92.64-1.6,1.56-1.64,2.49s.19,2.1.98,2.75ZM98.82,12.48c1.74-.01,3.14-1.43,3.13-3.17s-1.43-3.14-3.17-3.13-3.14,1.43-3.13,3.17,1.43,3.14,3.17,3.13ZM99.14,64.98c1.74-.01,3.14-1.43,3.13-3.17s-1.43-3.14-3.17-3.13-3.14,1.43-3.13,3.17,1.43,3.14,3.17,3.13ZM96.48,89.18c.83,1.7,2.98,2.09,4.46,1.15,1.47-.94,1.96-2.87.92-4.4-.97-1.44-2.84-1.64-4.26-.86s-1.85,2.61-1.12,4.11ZM102.54,139.15c-.62-1.86-2.54-2.4-4.25-1.79-1.47.52-2.24,2.4-1.65,3.96s2.35,2.41,3.98,1.85,2.52-2.22,1.91-4.03ZM102.72,165.13c-.56-1.85-2.55-2.55-4.03-2-1.67.62-2.4,2.31-1.98,3.86.49,1.8,2.25,2.52,4.01,2.07,1.52-.39,2.53-2.19,2-3.93ZM103,217.48c-.58-1.75-2.64-2.43-4.19-1.73s-2.27,2.34-1.68,3.94,2.47,2.47,3.99,1.87c1.61-.64,2.49-2.24,1.87-4.09ZM100.23,247.61c1.73-.01,3.13-1.43,3.12-3.16s-1.43-3.13-3.16-3.12-3.13,1.43-3.12,3.16,1.43,3.13,3.16,3.12ZM88.92,21.75c-.42-1.8-2.32-2.75-3.98-2.35-1.76.43-2.76,2.29-2.32,3.96.48,1.81,2.24,2.75,4.05,2.29,1.57-.4,2.66-2.14,2.25-3.9ZM89.1,48.21c-.45-1.95-2.12-2.93-4.03-2.49-1.61.37-2.7,2.13-2.27,3.98.37,1.58,2.09,2.65,3.89,2.26,1.54-.33,2.79-2.11,2.42-3.74ZM86.28,77.98c1.74-.01,3.14-1.43,3.13-3.16s-1.43-3.14-3.16-3.13-3.14,1.43-3.13,3.16c.01,1.74,1.43,3.14,3.16,3.13ZM86.24,104.16c1.79-.01,3.23-1.47,3.22-3.25s-1.47-3.23-3.25-3.22-3.23,1.47-3.22,3.25c.01,1.79,1.47,3.23,3.25,3.22ZM86.28,130.42c1.47.1,2.74-1.01,3.2-2.33.63-1.85-.69-3.73-2.41-4.03-1.97-.34-3.65.84-3.87,2.78-.2,1.79.95,3.44,3.09,3.58ZM86.73,156.36c1.73-.01,3.13-1.43,3.12-3.16-.01-1.73-1.43-3.13-3.16-3.12s-3.13,1.43-3.12,3.16,1.43,3.13,3.16,3.12ZM83.55,178.56c-.33,2.1.91,3.72,2.71,3.92s3.4-.92,3.65-2.88c.21-1.61-1.06-3.31-2.84-3.46-1.63-.14-3.25.71-3.52,2.42ZM84.18,207.43c.6.99,1.99,1.48,3.08,1.35s2.1-.93,2.58-2.01c.66-1.46-.04-3.18-1.23-3.93-1.32-.83-2.95-.57-4.01.44s-1.34,2.63-.42,4.15ZM87.22,234.76c1.74-.01,3.14-1.43,3.13-3.17s-1.43-3.14-3.17-3.13-3.14,1.43-3.13,3.17,1.43,3.14,3.17,3.13ZM90.34,257.1c-.46-1.95-2.09-2.96-4.02-2.51-1.59.38-2.72,2.09-2.27,4.01.36,1.52,2.15,2.68,3.84,2.24,1.59-.42,2.85-2.01,2.44-3.75ZM74.86,12.16c1.47-1.17,1.45-3.61.1-4.82s-3.42-1.13-4.59.17c-1.09,1.22-1.2,3.13.08,4.43,1.04,1.06,2.91,1.4,4.41.22ZM73.09,65.04c1.79-.01,3.22-1.47,3.21-3.25s-1.47-3.22-3.25-3.21-3.22,1.47-3.21,3.25,1.47,3.22,3.25,3.21ZM75.23,90.64c1.26-.9,1.54-2.93.78-4.18-1.05-1.73-3.14-2.11-4.72-.99-1.34.95-1.76,3.07-.7,4.47s2.96,1.9,4.64.7ZM73.01,137.07c-2.22.25-3.18,2.61-2.47,4.37.76,1.89,3.07,2.5,4.76,1.45,1.7-1.05,1.96-3.37.54-4.98-.6-.68-1.7-.97-2.83-.84ZM76.7,165.28c-.65-1.88-2.69-2.42-4.37-1.74-1.56.62-2.25,2.47-1.63,4.07.66,1.69,2.47,2.48,4.11,1.9s2.54-2.36,1.89-4.23ZM74.03,221.79c1.78-.01,3.22-1.46,3.2-3.24-.01-1.78-1.46-3.22-3.24-3.2s-3.22,1.46-3.2,3.24,1.46,3.22,3.24,3.2ZM74.18,248.06c1.78-.01,3.22-1.47,3.21-3.25-.01-1.78-1.47-3.22-3.25-3.21s-3.22,1.47-3.21,3.25,1.47,3.22,3.25,3.21ZM75.71,34.74c-.56-1.82-2.44-2.45-4.01-1.95-1.72.55-2.46,2.33-1.94,4s2.19,2.42,3.81,1.98c1.72-.47,2.72-2.17,2.14-4.03ZM72.41,111.14c-1.96.41-2.75,2.35-2.12,4.14.57,1.63,2.42,2.39,4.07,1.74,1.65-.66,2.39-2.32,1.71-4.08-.58-1.48-1.91-2.17-3.66-1.8ZM70.6,191.92c-.23,1.5.44,2.76,1.63,3.38,1.25.65,2.54.43,3.61-.51.92-.81,1.23-2.27.69-3.47-.61-1.36-1.93-2.12-3.29-1.93-1.29.18-2.43,1.14-2.64,2.53ZM60.56,71.81c-1.79-.23-3.21.9-3.67,2.34s.33,3.03,1.65,3.76c1.39.77,3.11.32,4.07-.95s.82-2.98-.25-4.22c-.38-.44-1.08-.83-1.8-.93ZM57.25,153.9c.29,1.35,1.18,2.13,2.08,2.48,1.23.49,2.31.27,3.32-.57,1.2-1,1.39-2.84.6-4.12s-2.49-1.88-4-1.3c-1.22.47-2.33,1.98-2,3.5ZM60.97,235.02c1.79-.01,3.23-1.47,3.22-3.26s-1.47-3.23-3.26-3.22-3.23,1.47-3.22,3.26,1.47,3.23,3.26,3.22ZM58.88,19.89c-2.17.48-2.86,2.86-1.9,4.58s3.11,2.05,4.64.92,1.68-3.49.23-4.79c-.77-.69-1.81-.97-2.97-.71ZM58.11,46.15c-1.46,1.06-1.74,2.81-1.02,4.13s2.39,1.93,3.88,1.39c1.39-.49,2.32-2,1.95-3.69-.43-2-3.09-3.08-4.81-1.84ZM59.48,104.37c1.45.37,2.71-.43,3.36-1.44.73-1.14.6-2.61-.17-3.58-.79-.99-2.08-1.39-3.43-1.09-1.45.33-2.29,1.78-2.18,3.18.09,1.28.91,2.54,2.43,2.92ZM63.25,125.98c-.66-1.79-2.67-2.32-4.16-1.73-1.62.63-2.22,2.49-1.72,3.99.58,1.75,2.48,2.34,4.09,1.81s2.46-2.29,1.8-4.07ZM60.66,182.79c1.73-.01,3.12-1.42,3.11-3.15s-1.42-3.12-3.15-3.11-3.12,1.42-3.11,3.15c.01,1.73,1.42,3.12,3.15,3.11ZM60.82,208.67c1.74-.01,3.14-1.43,3.13-3.17s-1.43-3.14-3.17-3.13-3.14,1.43-3.13,3.17,1.43,3.14,3.17,3.13ZM64.11,257.14c-.59-1.87-2.45-2.66-4.12-2.05-1.55.57-2.37,2.25-1.89,3.87s2.18,2.51,3.93,2.06c1.54-.4,2.64-2.11,2.08-3.88ZM46.51,13.08c1.79-.01,3.23-1.47,3.22-3.26s-1.47-3.23-3.26-3.22-3.23,1.47-3.22,3.26,1.47,3.23,3.26,3.22ZM48.43,38.62c1.31-.69,1.67-2.16,1.42-3.54-.21-1.14-1.3-2.04-2.63-2.27-1.17-.21-2.54.41-3.18,1.61-.69,1.3-.26,2.77.64,3.69s2.46,1.19,3.75.51ZM49.92,61.17c-.4-1.87-2.19-2.67-3.86-2.33-1.87.39-2.8,2.22-2.36,3.92.48,1.84,2.2,2.77,4,2.3,1.68-.43,2.62-2.06,2.22-3.9ZM46.99,91.45c1.78-.01,3.22-1.46,3.21-3.25-.01-1.78-1.46-3.22-3.25-3.21s-3.22,1.46-3.21,3.25,1.46,3.22,3.25,3.21ZM47.31,117.44c1.74-.01,3.13-1.43,3.12-3.16s-1.43-3.13-3.16-3.12-3.13,1.43-3.12,3.16,1.43,3.13,3.16,3.12ZM50.41,139.68c-.4-2-2.24-2.84-3.84-2.47-1.83.43-2.73,2.04-2.45,3.73.32,1.88,2.02,2.9,3.84,2.51,1.67-.36,2.83-1.87,2.45-3.78ZM48.18,169.74c1.19-.34,1.94-1.2,2.26-2.07.38-1.05.25-2.21-.46-3.08-1.05-1.3-2.89-1.53-4.28-.68-1.31.8-1.85,2.48-1.19,4.06.51,1.23,2.1,2.21,3.67,1.77ZM47.79,195.8c1.73-.01,3.12-1.42,3.11-3.15-.01-1.73-1.42-3.13-3.15-3.11s-3.12,1.42-3.11,3.15,1.42,3.13,3.15,3.11ZM47.31,221.88c1.14.06,2.14-.19,2.8-.83.57-.55.88-1.62.85-2.56-.08-2.13-2.15-3.36-4.23-2.83-1.48.38-2.31,1.91-2.17,3.43.11,1.24,1.18,2.72,2.76,2.8ZM47.93,248.23c1.79-.01,3.23-1.47,3.22-3.26s-1.47-3.23-3.26-3.22-3.23,1.47-3.22,3.26,1.47,3.23,3.26,3.22ZM36.67,21.76c-.59-1.85-2.66-2.49-4.17-1.91-1.69.64-2.43,2.41-1.95,3.98.55,1.81,2.47,2.61,4.09,2.06,1.75-.59,2.64-2.21,2.03-4.13ZM35.18,52.06c1.59-.65,2.06-2.47,1.68-3.84-.41-1.49-1.76-2.38-3.33-2.29-1.46.08-2.64,1.13-2.95,2.72-.25,1.31.56,2.99,2.07,3.49.6.2,1.88.18,2.52-.08ZM37.2,100.34c-.49-1.88-2.5-2.7-4.05-2.19-1.78.59-2.56,2.24-2.16,3.85.46,1.87,2.21,2.79,3.99,2.33s2.73-2.08,2.23-3.99ZM33.77,124.35c-2.05.33-3.12,2.21-2.62,4s2.12,2.63,3.86,2.27,2.78-2.16,2.36-3.99c-.39-1.66-1.77-2.57-3.6-2.28ZM33.86,176.52c-1.8.33-2.73,2.13-2.45,3.61.32,1.7,1.54,2.65,3.19,2.68,1.52.03,2.99-1.03,3.18-2.73.12-1.05-.2-2.19-.89-2.79-.75-.66-1.84-.98-3.03-.76ZM37.81,204.98c-.46-1.78-2.41-2.7-4.09-2.16-1.75.56-2.53,2.28-2.03,4.05s2.24,2.52,3.99,2.09,2.6-2.18,2.13-3.98ZM35.03,261.18c1.89,0,3.2-1.24,3.24-2.98.05-1.98-1.4-3.43-3.25-3.4-1.71.03-3.13,1.29-3.2,3.11-.06,1.7,1.22,3.28,3.21,3.27ZM36.77,74.14c-.49-1.68-2.58-2.48-4.01-1.98-1.69.59-2.47,2.34-1.94,4.03.49,1.56,2.24,2.47,3.79,2,1.66-.51,2.71-2.15,2.15-4.05ZM35.79,150.81c-1.44-.72-3.12-.38-3.99.76-.96,1.25-.9,3.01.12,4.12s2.63,1.32,3.98.54c1.26-.73,1.77-2.24,1.31-3.76-.21-.71-.75-1.32-1.42-1.66ZM37.74,231.09c-.44-1.78-2.4-2.61-3.82-2.2-1.84.53-2.6,2.17-2.21,3.88s2,2.6,3.75,2.2c1.65-.38,2.76-1.99,2.28-3.88ZM21.1,117.68c1.79-.01,3.23-1.47,3.22-3.26s-1.47-3.23-3.26-3.22-3.23,1.47-3.22,3.26,1.47,3.23,3.26,3.22ZM19.17,195.05c.88,1.06,2.49,1.26,3.73.71,1.02-.46,1.99-1.68,1.91-3-.09-1.48-1.21-2.72-2.42-3.05-1.49-.41-2.88.27-3.63,1.48-.71,1.15-.61,2.65.4,3.87ZM23.45,8.95c-.51-1.78-2.27-2.67-3.99-2.16-1.59.47-2.51,2.39-2.05,3.95.52,1.75,2.25,2.56,4,2.07,1.55-.44,2.51-2.19,2.04-3.85ZM20.61,39.29c1.78-.01,3.22-1.46,3.21-3.25s-1.46-3.22-3.25-3.21-3.22,1.46-3.21,3.25,1.46,3.22,3.25,3.21ZM23.76,61.46c-.46-1.86-2.32-2.59-3.83-2.18-1.79.48-2.66,2.15-2.19,3.85s2.12,2.65,3.71,2.25c1.7-.42,2.78-2.03,2.31-3.92ZM20.92,91.32c1.73-.01,3.13-1.42,3.12-3.16s-1.42-3.13-3.16-3.12-3.13,1.42-3.12,3.16,1.42,3.13,3.16,3.12ZM24.23,139.91c-.44-1.78-2.22-2.64-3.98-2.2-1.58.4-2.51,2.22-2.04,3.96.41,1.52,2.29,2.52,3.85,2.05,1.65-.5,2.61-2,2.16-3.81ZM24.36,165.59c-.56-1.86-2.53-2.56-4.02-2-1.69.64-2.4,2.27-1.95,3.86.51,1.82,2.2,2.53,3.99,2.07,1.55-.39,2.51-2.18,1.99-3.93ZM23.68,221.52c1.5-1.08,1.55-3.57.15-4.79-1.24-1.08-3.28-1.06-4.38.09-1.19,1.24-1.14,3.12-.1,4.32s2.81,1.48,4.34.37ZM21.1,247.96c2.07.38,3.7-.8,3.87-2.75.15-1.72-1.09-3.37-3.03-3.4-1.62-.03-3.17,1.23-3.22,3.07-.04,1.49.81,2.79,2.38,3.08ZM10.56,22.37c-.42-2.03-2.24-2.88-3.94-2.49s-2.73,2.02-2.38,3.74,2.01,2.95,3.83,2.53c1.59-.36,2.87-1.93,2.49-3.78ZM7.58,52.49c1.78-.01,3.22-1.46,3.2-3.24s-1.46-3.22-3.24-3.2-3.22,1.46-3.2,3.24,1.46,3.22,3.24,3.2ZM10.66,76.84c.6-1.23.4-2.72-.44-3.64-.71-.78-2.01-1.33-3.1-.95-1.54.53-2.39,1.62-2.35,3.11s.89,2.63,2.32,3c1.25.33,2.9-.15,3.57-1.53ZM10.98,100.5c-.48-1.95-2.46-2.66-4.06-2.21-1.71.48-2.6,2.26-2.17,3.91.47,1.81,2.22,2.76,3.99,2.28,1.63-.44,2.7-2.08,2.24-3.97ZM5.45,129.62c1.08,1.53,3.27,1.59,4.53.58,1.37-1.1,1.76-2.99.68-4.42-1.09-1.44-3.16-1.8-4.48-.85-1.47,1.05-1.86,3.08-.73,4.69ZM8.12,156.85c2.09.26,3.66-1.74,3.32-3.75-.27-1.65-1.89-2.72-3.4-2.53-1.73.22-2.83,1.46-2.81,3.16.02,1.52,1.02,2.89,2.88,3.12ZM7.94,182.93c1.18.08,2.36-.29,2.96-1.14,1.06-1.49.82-3.67-.62-4.64-1.28-.87-2.59-.76-3.77-.05-1.12.67-1.62,1.99-1.33,3.43.24,1.16,1.12,2.29,2.75,2.41ZM6.01,208.11c1.36,1.7,3.74,1.42,5.09-.18,1.08-1.28.74-3.29-.45-4.33-1.28-1.12-3.17-.98-4.41.15-1.13,1.04-1.33,2.98-.22,4.36ZM8.86,235.24c1.73-.01,3.13-1.42,3.12-3.16s-1.42-3.13-3.16-3.12-3.13,1.42-3.12,3.16,1.42,3.13,3.16,3.12ZM5.98,259.66c.88,1.47,2.47,2.04,4.06,1.48,1.26-.44,2.21-1.96,1.95-3.47-.23-1.33-1.29-2.6-2.81-2.69-1.35-.08-2.45.4-3.1,1.38-.6.9-.72,2.26-.1,3.3ZM-2.53,9.3c-.48-1.81-2.32-2.72-4.16-2.18-1.56.45-2.55,2.33-1.99,4.06.54,1.63,2.27,2.57,3.94,2.08s2.7-2.1,2.21-3.96ZM-5.28,65.53c1.78-.01,3.22-1.46,3.21-3.25s-1.46-3.22-3.25-3.21-3.22,1.46-3.21,3.25,1.46,3.22,3.25,3.21ZM-7.52,90.69c1.34,1.54,3.64,1.42,4.81.03,1.22-1.45,1-3.57-.52-4.75-1.3-1.01-3.22-.81-4.31.4s-1.18,2.95.02,4.32ZM-5.31,143.81c1.91.25,3.38-.77,3.63-2.51.29-1.93-.8-3.53-2.69-3.81-1.71-.25-3.24.74-3.65,2.55-.38,1.69.75,3.51,2.7,3.76ZM-4.66,170.15c1.79-.01,3.22-1.47,3.21-3.25s-1.47-3.22-3.25-3.21-3.22,1.47-3.21,3.25,1.47,3.22,3.25,3.21ZM-3.45,222.12c1.58-.34,2.39-1.93,2.28-3.41-.1-1.31-1.22-2.61-2.63-2.81-2.16-.3-3.88,1.28-3.79,3.27s1.85,3.44,4.14,2.95ZM-1.16,244.3c-.54-1.88-2.58-2.64-4.25-2-1.52.58-2.45,2.39-1.9,4.02.56,1.66,2.39,2.57,4.03,2.07s2.67-2.14,2.11-4.1ZM-5.94,39.3c1.45.1,2.66-.53,3.13-1.69.75-1.86-.07-3.8-1.82-4.37s-3.71.48-4.05,2.17c-.38,1.89.69,3.74,2.75,3.88ZM-7.58,112.56c-1.13,1.5-.86,3.41.43,4.5,1.17.99,2.94.94,4.21-.25s1.15-3.32-.12-4.53c-1.18-1.12-3.4-1.2-4.52.28ZM-5.78,195.93c1.33.58,2.83.01,3.55-1,.78-1.1.85-2.36.17-3.65-.61-1.16-2.22-1.65-3.46-1.37-1.34.31-2.25,1.58-2.3,2.84-.05,1.38.6,2.55,2.03,3.17Z"/>
      <g>
        <circle class="cls-3" cx="242.63" cy="47.85" r="3.25" transform="translate(-.28 1.46) rotate(-.34)"/>
        <path class="cls-3" d="M97.67,194.76c-.79-.65-1.03-1.78-.98-2.75s.72-1.85,1.64-2.49c1.29-.9,3.07-.36,4.1.84,1.11,1.29.91,3.22-.21,4.29-1.23,1.17-3.09,1.31-4.55.12Z"/>
        <path class="cls-3" d="M253.28,111.48c.64-1.35,2.14-1.83,3.55-1.61,1.17.19,2.26,1.31,2.53,2.62s-.39,2.85-1.68,3.44-2.76.38-3.78-.58c-.94-.89-1.31-2.41-.62-3.87Z"/>
        <path class="cls-3" d="M5.45,129.62c-1.13-1.61-.74-3.64.73-4.69,1.32-.95,3.39-.59,4.48.85,1.08,1.43.69,3.32-.68,4.42-1.26,1.01-3.46.95-4.53-.58Z"/>
        <path class="cls-3" d="M292.49,152.88c-.12-.58-.08-1.58.05-2,.42-1.37,1.69-2.05,2.9-2.1,1.32-.05,2.72.67,3.14,1.96.6,1.84-.14,3.67-1.78,4.25s-3.9-.07-4.31-2.11Z"/>
        <path class="cls-3" d="M57.25,153.9c-.33-1.52.78-3.04,2-3.5,1.52-.58,3.22.01,4,1.3s.6,3.12-.6,4.12c-1.01.84-2.09,1.05-3.32.57-.9-.35-1.79-1.13-2.08-2.48Z"/>
        <path class="cls-3" d="M142.07,152.64c.16,1.92-1.19,3.32-2.9,3.49-1.84.19-3.37-1.07-3.53-2.87-.15-1.77.94-3.3,2.68-3.53,1.82-.25,3.59,1.03,3.75,2.91Z"/>
        <path class="cls-3" d="M206.55,220.32c-1.45,1.04-3.55.9-4.57-.47-.92-1.23-.91-2.76-.12-3.99.66-1.04,2.24-1.54,3.64-1.17,1.17.31,1.96,1.41,2.14,2.4.22,1.21-.12,2.54-1.08,3.23Z"/>
        <path class="cls-3" d="M142.52,230.9c.24,2.01-1.18,3.46-2.84,3.6-1.85.15-3.35-.96-3.57-2.86-.18-1.62,1.04-3.26,2.69-3.53s3.5.94,3.73,2.79Z"/>
        <path class="cls-3" d="M122.76,11.87c-1.33-1.06-1.52-3.33-.37-4.66.48-.55,1.64-1,2.31-1.05,1.53-.12,2.71.83,3.17,1.98.59,1.46.13,2.9-1.07,3.79-1.13.84-2.68,1.01-4.05-.06Z"/>
        <path class="cls-3" d="M201.52,84.85c1.02-.91,2.85-1.02,3.86-.35,1.53,1.02,1.98,2.98,1.13,4.38-.93,1.53-2.7,2.15-4.47,1.21s-2.21-3.73-.51-5.24Z"/>
        <path class="cls-3" d="M155.59,243.36c.58,1.91-.45,3.64-2.11,4.1s-3.53-.35-4.03-2.07c-.49-1.68.29-3.43,1.89-4.04s3.69.12,4.26,2Z"/>
        <path class="cls-3" d="M162.08,128.57c-.81-1.28-.73-3.02.19-4.03s2.64-1.3,3.89-.74c.86.38,1.51,1.32,1.72,2,.31,1.01.04,2-.59,2.88-1.18,1.65-4.05,1.72-5.21-.12Z"/>
        <path class="cls-3" d="M161.4,99.94c.15-1.49,1.19-2.25,2.35-2.57s2.64,0,3.41,1.05c.93,1.28.88,2.88-.04,4.04-.89,1.14-2.29,1.54-3.69,1s-2.21-1.82-2.03-3.53Z"/>
        <path class="cls-3" d="M181.03,113.24c.18,1.78-1.31,3.39-2.88,3.49-1.84.12-3.31-1.1-3.57-2.89-.25-1.69,1.07-3.29,2.67-3.52,1.87-.27,3.59.99,3.79,2.92Z"/>
        <path class="cls-3" d="M115.05,21.31c.6,1.81-.34,3.61-1.99,4.12s-3.62-.25-4.13-2.06c-.46-1.61.24-3.39,1.93-4.02,1.56-.58,3.56.05,4.19,1.96Z"/>
        <path class="cls-3" d="M312.32,242.43c.57,1.88-.49,3.59-2.13,4.08s-3.47-.38-4.03-2.06.3-3.42,1.89-4.02c1.67-.63,3.69.11,4.27,2.01Z"/>
        <path class="cls-3" d="M60.56,71.81c.72.09,1.42.49,1.8.93,1.07,1.24,1.18,3,.25,4.22s-2.68,1.72-4.07.95c-1.32-.73-2.12-2.26-1.65-3.76s1.88-2.57,3.67-2.34Z"/>
        <circle class="cls-3" cx="46.49" cy="9.84" r="3.24" transform="translate(-.06 .28) rotate(-.34)"/>
        <path class="cls-3" d="M7.94,182.93c-1.63-.11-2.51-1.24-2.75-2.41-.29-1.44.21-2.75,1.33-3.43,1.18-.71,2.49-.82,3.77.05,1.44.97,1.68,3.15.62,4.64-.6.85-1.79,1.23-2.96,1.14Z"/>
        <path class="cls-3" d="M122.76,165.04c.23-.79.77-1.42,1.46-1.73,1.46-.66,3.2-.45,4.15.84.82,1.12.93,2.96-.08,4.1s-2.65,1.49-3.99.76-2.05-2.22-1.54-3.97Z"/>
        <circle class="cls-3" cx="321.32" cy="99.48" r="3.24" transform="translate(-.59 1.93) rotate(-.34)"/>
        <circle class="cls-3" cx="229.48" cy="8.75" r="3.24" transform="translate(-.05 1.38) rotate(-.34)"/>
        <circle class="cls-3" cx="47.91" cy="244.99" r="3.24" transform="translate(-1.47 .29) rotate(-.34)"/>
        <circle class="cls-3" cx="21.08" cy="114.44" r="3.24" transform="translate(-.69 .13) rotate(-.34)"/>
        <path class="cls-3" d="M88.92,21.75c.41,1.76-.67,3.5-2.25,3.9-1.81.46-3.58-.48-4.05-2.29-.44-1.66.56-3.53,2.32-3.96,1.66-.4,3.56.55,3.98,2.35Z"/>
        <path class="cls-3" d="M239.28,21.11c.16-1.28,1.04-2.2,1.94-2.54,1.13-.42,2.27-.16,3.31.53,1.22.8,1.49,2.78.81,4.01-.77,1.41-2.25,1.99-3.84,1.56-1.36-.37-2.44-1.82-2.22-3.56Z"/>
        <path class="cls-3" d="M181.49,191.59c.17,1.87-1.22,3.39-2.88,3.51-1.82.13-3.38-1.06-3.58-2.88-.18-1.64,1.06-3.26,2.71-3.53,1.78-.3,3.58,1.08,3.75,2.9Z"/>
        <circle class="cls-3" cx="242.93" cy="99.98" r="3.23" transform="translate(-.6 1.46) rotate(-.34)"/>
        <circle class="cls-3" cx="126.28" cy="244.53" r="3.24" transform="translate(-1.47 .76) rotate(-.34)"/>
        <circle class="cls-3" cx="281.9" cy="60.56" r="3.24" transform="translate(-.36 1.7) rotate(-.34)"/>
        <path class="cls-3" d="M189.36,129.3c-1.2-.82-1.75-1.95-1.55-3.28.16-1.08,1.08-2.36,2.31-2.59,1.65-.3,2.92.24,3.7,1.56.66,1.11.49,2.77-.5,3.83s-2.66,1.38-3.98.48Z"/>
        <path class="cls-3" d="M76.7,165.28c.65,1.87-.19,3.63-1.89,4.23s-3.45-.21-4.11-1.9c-.62-1.6.07-3.45,1.63-4.07,1.68-.67,3.72-.13,4.37,1.74Z"/>
        <path class="cls-3" d="M37.2,100.34c.5,1.91-.52,3.55-2.23,3.99s-3.53-.46-3.99-2.33c-.4-1.62.39-3.26,2.16-3.85,1.55-.52,3.56.31,4.05,2.19Z"/>
        <path class="cls-3" d="M19.17,195.05c-1.02-1.22-1.11-2.72-.4-3.87.75-1.21,2.14-1.89,3.63-1.48,1.21.33,2.32,1.57,2.42,3.05.08,1.32-.89,2.54-1.91,3-1.24.56-2.85.35-3.73-.71Z"/>
        <path class="cls-3" d="M220.89,230.65c.09,2-1.35,3.39-3.08,3.41s-3.26-1.27-3.35-3.04,1.23-3.26,2.9-3.41c1.83-.17,3.45,1.1,3.54,3.04Z"/>
        <path class="cls-3" d="M96.29,114.47c-.14-1.22.17-2.34.95-2.94,1.65-1.26,3.99-.96,4.96.72s.34,3.85-1.4,4.66c-1.88.88-4.25-.18-4.51-2.44Z"/>
        <path class="cls-3" d="M167.38,207.51c-1.72,1.4-4,.89-4.92-.75-.97-1.73-.39-3.82,1.55-4.68,1.57-.7,3.88.2,4.36,2.15.26,1.05-.12,2.57-.99,3.28Z"/>
        <circle class="cls-3" cx="60.95" cy="231.78" r="3.24" transform="translate(-1.39 .37) rotate(-.34)"/>
        <path class="cls-3" d="M269.84,129.25c-1.82.31-3.35-.96-3.67-2.5-.35-1.71.84-3.42,2.28-3.75,1.98-.46,3.63.5,4.03,2.38s-.58,3.53-2.64,3.88Z"/>
        <path class="cls-3" d="M207.32,165.01c.34,1.8-.76,3.4-2.39,3.81s-3.56-.68-3.88-2.25c-.4-1.94.54-3.64,2.29-4,1.81-.37,3.62.53,3.98,2.44Z"/>
        <path class="cls-3" d="M259.84,191.12c.17,1.82-1.27,3.38-2.86,3.51-1.88.16-3.35-1.07-3.57-2.92-.19-1.61,1.08-3.28,2.69-3.53,1.83-.28,3.57,1.06,3.74,2.94Z"/>
        <path class="cls-3" d="M319.26,128.15c-1.41-1.22-1.29-3.69.06-4.81s3.3-.98,4.51.2,1.2,3.08-.03,4.47c-.99,1.12-3.1,1.39-4.55.13Z"/>
        <path class="cls-3" d="M10.98,100.5c.46,1.89-.62,3.53-2.24,3.97-1.77.48-3.52-.47-3.99-2.28-.42-1.64.46-3.42,2.17-3.91,1.6-.45,3.58.26,4.06,2.21Z"/>
        <path class="cls-3" d="M324.45,179.79c-.87,1.45-3.65,1.8-5.08.34-.61-.62-.8-1.71-.78-2.68.03-1.4,1.23-2.31,2.35-2.66,1.34-.42,2.63.16,3.35,1.1.92,1.19.95,2.58.16,3.91Z"/>
        <path class="cls-3" d="M189.34,24.95c-1.63-.45-2.38-2.11-2.15-3.63.23-1.46,1.6-2.59,3.12-2.64s2.94,1,3.21,2.59c.22,1.24-.09,2.2-.89,2.98s-1.95,1.07-3.3.7Z"/>
        <path class="cls-3" d="M167.26,21.41c.38,1.93-.86,3.5-2.46,3.8-1.87.35-3.46-.69-3.83-2.54-.33-1.66.63-3.34,2.36-3.76s3.56.58,3.94,2.5Z"/>
        <path class="cls-3" d="M203.59,142.59c-1.42-.1-2.25-1.12-2.62-2.13-.44-1.22-.09-2.68.87-3.46,1.27-1.02,2.77-1.06,4.01-.28s1.71,2.39,1.23,3.73-1.76,2.27-3.49,2.15Z"/>
        <path class="cls-3" d="M219.56,154.71c-.87.91-2.09,1.11-3.2.87-.92-.2-1.95-1.03-2.21-2.13-.34-1.47.05-2.91,1.22-3.69s2.63-.78,3.9.15c1.35,1,1.55,3.48.29,4.79Z"/>
        <path class="cls-3" d="M49.92,61.17c.39,1.83-.54,3.46-2.22,3.9-1.79.46-3.51-.46-4-2.3-.45-1.69.48-3.53,2.36-3.92,1.67-.35,3.46.45,3.86,2.33Z"/>
        <path class="cls-3" d="M228.19,245.6c-.9-1.28-.63-2.91.3-3.91s2.6-1.36,3.83-.72c1.35.71,2,2.11,1.72,3.72-.21,1.26-1.31,2.06-2.42,2.34-1.31.33-2.6-.24-3.44-1.44Z"/>
        <path class="cls-3" d="M284.69,7.54c.51,1.76-.61,3.6-2.18,3.97-1.78.42-3.67-.43-4.08-2.28-.37-1.65.38-3.3,2.23-3.91,1.49-.48,3.48.3,4.03,2.21Z"/>
        <path class="cls-3" d="M47.31,221.88c-1.58-.08-2.65-1.56-2.76-2.8-.14-1.51.69-3.05,2.17-3.43,2.08-.53,4.15.7,4.23,2.83.03.94-.28,2.01-.85,2.56-.66.64-1.66.89-2.8.83Z"/>
        <path class="cls-3" d="M299.23,229.8c.24,1.93-.87,3.39-2.48,3.71-1.91.38-3.53-.73-3.85-2.49-.33-1.85.71-3.48,2.59-3.84,1.61-.31,3.52.91,3.74,2.62Z"/>
        <path class="cls-3" d="M128.31,60.72c.4,1.77-.64,3.45-2.25,3.87-1.83.47-3.53-.43-3.99-2.3-.41-1.69.5-3.5,2.32-3.93,1.68-.39,3.51.49,3.93,2.35Z"/>
        <path class="cls-3" d="M337.74,112.22c.21,1.82-1.25,3.33-2.71,3.54-1.9.28-3.51-1.1-3.68-2.74-.19-1.82.94-3.38,2.62-3.64,1.81-.28,3.53.77,3.77,2.84Z"/>
        <circle class="cls-3" cx="282.36" cy="138.94" r="3.23" transform="translate(-.83 1.7) rotate(-.34)"/>
        <path class="cls-3" d="M323.99,20.48c.35,1.9-.86,3.49-2.47,3.8-1.8.34-3.5-.77-3.83-2.54s.64-3.35,2.38-3.76,3.54.51,3.91,2.49Z"/>
        <path class="cls-3" d="M114.52,129.68c-1.41.86-2.88.69-3.94-.2-1.11-.93-1.56-2.5-.85-3.88.67-1.3,1.92-1.9,3.32-1.76,1.16.12,2.41,1.1,2.69,2.21.35,1.37-.02,2.89-1.22,3.63Z"/>
        <circle class="cls-3" cx="282.99" cy="243.57" r="3.23" transform="translate(-1.46 1.71) rotate(-.34)"/>
        <circle class="cls-3" cx="73.07" cy="61.81" r="3.23" transform="translate(-.37 .44) rotate(-.34)"/>
        <path class="cls-3" d="M10.56,22.37c.38,1.85-.9,3.42-2.49,3.78-1.82.42-3.46-.74-3.83-2.53s.64-3.34,2.38-3.74,3.52.46,3.94,2.49Z"/>
        <circle class="cls-3" cx="112.49" cy="100.76" r="3.24" transform="translate(-.6 .68) rotate(-.34)"/>
        <path class="cls-3" d="M206.34,8.18c.4,2.01-.77,3.59-2.56,3.89s-3.33-.67-3.7-2.44c-.36-1.75.6-3.39,2.42-3.89,1.57-.43,3.48.59,3.84,2.45Z"/>
        <path class="cls-3" d="M292.04,74.52c-.43-1.68.24-3.01,1.53-3.76,1.19-.69,3.07-.47,3.95.65,1.34,1.71.94,4.03-.75,4.97-1.83,1.01-4.17.33-4.73-1.86Z"/>
        <path class="cls-3" d="M125.11,143.04c-1.88-.26-2.96-2.02-2.62-3.81s2.01-2.85,4.03-2.47c1.61.3,2.57,2.08,2.33,3.67-.26,1.68-1.92,2.87-3.73,2.61Z"/>
        <path class="cls-3" d="M190.82,181.82c-1.78-.16-2.82-1.86-2.71-3.41.11-1.55,1.39-2.85,3-2.99s3.2,1.06,3.41,2.77c.13,1.03-.17,2-.78,2.68-.64.72-1.68,1.05-2.92.94Z"/>
        <path class="cls-3" d="M239.93,125.63c.24-1.78,2.06-2.79,3.76-2.54s2.88,1.97,2.62,3.61c-.28,1.75-1.86,3-3.51,2.74-1.87-.3-3.17-1.64-2.88-3.81Z"/>
        <circle class="cls-3" cx="74.16" cy="244.83" r="3.23" transform="translate(-1.47 .45) rotate(-.34)"/>
        <path class="cls-3" d="M33.77,124.35c1.82-.29,3.21.62,3.6,2.28.43,1.83-.55,3.62-2.36,3.99s-3.37-.52-3.86-2.27.57-3.66,2.62-4Z"/>
        <circle class="cls-3" cx="86.22" cy="100.92" r="3.23" transform="translate(-.61 .52) rotate(-.34)"/>
        <path class="cls-3" d="M267.09,180.21c-1.22-1.82-.58-3.86,1.03-4.86,1.52-.93,3.79-.1,4.48,1.45.83,1.87-.13,4.13-2.14,4.49-1.23.23-2.69-.07-3.38-1.09Z"/>
        <path class="cls-3" d="M242.52,207.68c-1.56-.4-2.15-1.87-2.14-3.2.01-1.41.99-2.51,2.24-2.9,1.44-.44,3.04.09,3.75,1.39.67,1.23.54,2.56-.24,3.67-.69.98-2.17,1.43-3.62,1.05Z"/>
        <path class="cls-3" d="M128.46,87.08c.49,1.83-.81,3.37-2.39,3.84-1.71.52-3.51-.75-3.86-2.28-.42-1.84.5-3.52,2.11-3.95,1.87-.5,3.59.34,4.14,2.38Z"/>
        <path class="cls-3" d="M305.75,5.83c1.55-1.33,3.32-.98,4.6.49,1.1,1.26.92,3.37-.42,4.44s-3.3,1.03-4.5-.32-1.14-3.36.32-4.61Z"/>
        <path class="cls-3" d="M285.69,164.55c.39,1.76-.77,3.37-2.4,3.79s-3.56-.71-3.89-2.25c-.4-1.88.63-3.63,2.27-4.01,1.87-.43,3.6.55,4.02,2.46Z"/>
        <path class="cls-3" d="M325.36,255.35c.53,1.81-.57,3.63-2.16,4.01-1.74.42-3.61-.47-4.05-2.29-.39-1.64.42-3.32,2.18-3.94,1.46-.52,3.48.33,4.04,2.22Z"/>
        <path class="cls-3" d="M36.67,21.76c.61,1.93-.28,3.55-2.03,4.13-1.63.54-3.54-.25-4.09-2.06-.48-1.57.26-3.34,1.95-3.98,1.51-.57,3.58.06,4.17,1.91Z"/>
        <path class="cls-3" d="M271.14,50.07c-1.5,1.31-3.48.99-4.55-.11-1.28-1.31-1.16-3.2-.07-4.45s3.24-1.38,4.62-.17c1.27,1.11,1.33,3.57,0,4.72Z"/>
        <path class="cls-3" d="M112.24,182.25c-1.74-.28-2.73-2.02-2.48-3.54s1.55-2.8,3.13-2.8,3.07,1.08,3.26,2.75c.13,1.15-.19,2.09-.91,2.81s-1.75.97-3,.77Z"/>
        <path class="cls-3" d="M89.1,48.21c.38,1.64-.88,3.42-2.42,3.74-1.8.39-3.52-.69-3.89-2.26-.43-1.84.66-3.6,2.27-3.98,1.91-.44,3.59.55,4.03,2.49Z"/>
        <path class="cls-3" d="M319.29,205.98c-1-1.58-.57-3.39.64-4.33,1.36-1.05,3.21-.99,4.39.27,1.1,1.18,1.23,3.12,0,4.39-1.38,1.44-3.93,1.42-5.04-.34Z"/>
        <path class="cls-3" d="M75.23,90.64c-1.68,1.2-3.59.68-4.64-.7s-.64-3.52.7-4.47c1.58-1.12,3.68-.74,4.72.99.76,1.25.48,3.28-.78,4.18Z"/>
        <path class="cls-3" d="M162.3,180.59c-.73-1.29-.6-2.76.22-3.8.77-.99,2.23-1.42,3.71-.94,1.02.32,2.05,1.61,2.06,2.99,0,1.5-1.02,2.7-2.35,3.09-1.25.36-2.9-.01-3.64-1.33Z"/>
        <circle class="cls-3" cx="151.44" cy="61.34" r="3.23" transform="translate(-.37 .91) rotate(-.34)"/>
        <path class="cls-3" d="M153.23,84.8c1.14.55,1.57,1.77,1.54,2.86s-.59,2.3-1.69,2.82c-1.45.68-3.01.28-3.91-.74-1.09-1.23-1.04-2.87-.17-4.08.93-1.28,2.66-1.62,4.23-.86Z"/>
        <circle class="cls-3" cx="269.82" cy="204.47" r="3.23" transform="translate(-1.22 1.63) rotate(-.34)"/>
        <path class="cls-3" d="M154.99,138.82c.5,1.88-.51,3.58-2.23,4s-3.56-.48-4-2.3c-.37-1.54.45-3.41,2.15-3.87s3.56.23,4.08,2.17Z"/>
        <circle class="cls-3" cx="152.06" cy="165.98" r="3.23" transform="translate(-1 .92) rotate(-.34)"/>
        <path class="cls-3" d="M153.43,221.13c-1.55.4-2.89-.05-3.73-1.22-.75-1.05-.82-2.6.11-3.83.74-.98,2.28-1.46,3.66-1.01,1.3.42,2.08,1.66,2.11,2.9.03,1.33-.67,2.77-2.14,3.15Z"/>
        <path class="cls-3" d="M305.81,88.67c-1.07-1.32-.89-3.08.1-4.19,1.08-1.21,3.02-1.41,4.31-.41,1.57,1.21,1.8,3.5.43,4.86s-3.51,1.39-4.84-.26Z"/>
        <circle class="cls-3" cx="203.55" cy="61.02" r="3.23" transform="translate(-.36 1.23) rotate(-.34)"/>
        <circle class="cls-3" cx="229.79" cy="60.87" r="3.23" transform="translate(-.36 1.38) rotate(-.34)"/>
        <path class="cls-3" d="M229.44,83.97c1.12-.15,2.12.11,2.78.78.61.62.99,1.55.95,2.58-.05,1.64-1.54,2.94-3.04,3.03-1.7.1-3.15-1.16-3.37-2.76-.23-1.67.8-3.37,2.68-3.63Z"/>
        <circle class="cls-3" cx="126.12" cy="218.28" r="3.23" transform="translate(-1.31 .76) rotate(-.34)"/>
        <circle class="cls-3" cx="230.42" cy="165.5" r="3.23" transform="translate(-.99 1.39) rotate(-.34)"/>
        <path class="cls-3" d="M230.03,220.72c-2.07-.36-3.09-2.68-2.26-4.39s2.94-2.46,4.62-1.47,2.08,3.33.79,4.93c-.69.85-1.86,1.17-3.15.94Z"/>
        <path class="cls-3" d="M207.73,243.08c.56,1.82-.56,3.52-2.14,4.02-1.69.54-3.49-.38-4.02-2.03s.39-3.49,1.9-4.05c1.69-.62,3.68.17,4.26,2.05Z"/>
        <path class="cls-3" d="M320.33,50.5c-2.07-.3-2.92-2.38-2.34-4.16s2.73-2.69,4.52-1.82c1.69.83,2.31,3.1,1.18,4.68-.8,1.12-1.84,1.52-3.37,1.3Z"/>
        <circle class="cls-3" cx="74.01" cy="218.57" r="3.22" transform="translate(-1.31 .45) rotate(-.34)"/>
        <circle class="cls-3" cx="190.85" cy="100.3" r="3.23" transform="translate(-.6 1.15) rotate(-.34)"/>
        <path class="cls-3" d="M86.28,130.42c-2.14-.14-3.29-1.8-3.09-3.58.22-1.94,1.91-3.12,3.87-2.78,1.72.3,3.04,2.18,2.41,4.03-.45,1.32-1.72,2.43-3.2,2.33Z"/>
        <circle class="cls-3" cx="308.16" cy="60.4" r="3.23" transform="translate(-.36 1.85) rotate(-.34)"/>
        <path class="cls-3" d="M50.41,139.68c.38,1.91-.78,3.42-2.45,3.78-1.82.39-3.53-.63-3.84-2.51-.28-1.69.62-3.3,2.45-3.73,1.6-.38,3.44.47,3.84,2.47Z"/>
        <path class="cls-3" d="M135.36,73.48c.51-1.86,2.69-2.62,4.33-1.87s2.5,2.82,1.52,4.51c-.86,1.5-2.6,2.04-4.03,1.42-1.58-.69-2.36-2.15-1.83-4.06Z"/>
        <path class="cls-3" d="M162.7,45.47c.66-.47,2.41-.42,3.09,0,1.51.92,2.06,2.52,1.57,3.87-.61,1.67-2.04,2.39-3.85,2.09-1.29-.22-2.13-1.26-2.36-2.38-.29-1.41.16-2.59,1.55-3.58Z"/>
        <circle class="cls-3" cx="308.78" cy="165.04" r="3.23" transform="translate(-.99 1.86) rotate(-.34)"/>
        <path class="cls-3" d="M338.19,190.54c.23,1.9-1.14,3.35-2.68,3.59-1.91.3-3.47-1.04-3.68-2.74s.9-3.33,2.62-3.65,3.51.86,3.74,2.8Z"/>
        <path class="cls-3" d="M84.18,207.43c-.92-1.53-.67-3.11.42-4.15s2.68-1.27,4.01-.44c1.2.75,1.89,2.47,1.23,3.93-.48,1.08-1.54,1.88-2.58,2.01s-2.48-.36-3.08-1.35Z"/>
        <circle class="cls-3" cx="191.48" cy="204.92" r="3.23" transform="translate(-1.23 1.16) rotate(-.34)"/>
        <path class="cls-3" d="M33.86,176.52c1.18-.22,2.27.1,3.03.76.69.6,1.01,1.75.89,2.79-.19,1.71-1.67,2.76-3.18,2.73-1.65-.03-2.87-.98-3.19-2.68-.28-1.48.65-3.27,2.45-3.61Z"/>
        <path class="cls-3" d="M6.01,208.11c-1.11-1.38-.91-3.33.22-4.36,1.24-1.13,3.13-1.27,4.41-.15,1.19,1.05,1.54,3.05.45,4.33-1.35,1.6-3.73,1.88-5.09.18Z"/>
        <path class="cls-3" d="M281.87,90.04c-.9-.11-1.94-.63-2.46-1.3-.85-1.09-.74-2.72-.03-3.71.84-1.17,2.14-1.73,3.7-1.3s2.49,2.17,2.15,3.7c-.32,1.42-1.71,2.81-3.35,2.61Z"/>
        <circle class="cls-3" cx="268.73" cy="21.43" r="3.22" transform="translate(-.12 1.62) rotate(-.34)"/>
        <path class="cls-3" d="M74.86,12.16c-1.5,1.19-3.36.84-4.41-.22-1.28-1.31-1.18-3.22-.08-4.43,1.17-1.3,3.25-1.38,4.59-.17s1.37,3.65-.1,4.82Z"/>
        <path class="cls-3" d="M174.23,35.99c-.4-1.97.56-3.59,2.34-4.01,1.68-.4,3.5.51,3.87,2.34s-.63,3.52-2.35,3.94c-1.59.39-3.52-.62-3.85-2.28Z"/>
        <circle class="cls-3" cx="20.59" cy="36.06" r="3.23" transform="translate(-.22 .12) rotate(-.34)"/>
        <path class="cls-3" d="M337.26,33.92c.14,1.8-1.2,3.29-2.7,3.45-1.96.21-3.45-1.06-3.69-2.74-.26-1.88,1.06-3.46,2.82-3.66s3.41,1.07,3.56,2.95Z"/>
        <path class="cls-3" d="M154.21,8.37c.46,1.87-.49,3.59-2.37,4-1.52.33-3.4-.55-3.83-2.25-.44-1.73.39-3.36,2.21-3.99,1.53-.53,3.54.41,3.99,2.24Z"/>
        <path class="cls-3" d="M258.91,34.41c.16,1.74-1.25,3.26-2.71,3.42-2,.23-3.47-1.01-3.68-2.73-.23-1.87,1.05-3.48,2.82-3.65s3.39,1.04,3.57,2.96Z"/>
        <circle class="cls-3" cx="46.97" cy="88.23" r="3.23" transform="translate(-.53 .28) rotate(-.34)"/>
        <path class="cls-3" d="M35.18,52.06c-.64.26-1.92.28-2.52.08-1.52-.51-2.33-2.18-2.07-3.49.31-1.59,1.49-2.63,2.95-2.72,1.57-.09,2.92.8,3.33,2.29.38,1.38-.1,3.19-1.68,3.84Z"/>
        <path class="cls-3" d="M282.18,220.42c-2.12-.35-3.04-2.65-2.26-4.42s3.14-2.59,4.75-1.36c1.31.99,1.73,2.5,1.18,3.87s-1.9,2.21-3.67,1.91Z"/>
        <path class="cls-3" d="M37.81,204.98c.47,1.8-.44,3.56-2.13,3.98s-3.5-.35-3.99-2.09.28-3.49,2.03-4.05c1.68-.54,3.62.38,4.09,2.16Z"/>
        <path class="cls-3" d="M73.01,137.07c1.13-.13,2.24.16,2.83.84,1.41,1.61,1.16,3.93-.54,4.98-1.7,1.05-4,.44-4.76-1.45-.71-1.76.25-4.12,2.47-4.37Z"/>
        <circle class="cls-3" cx="98.97" cy="35.58" r="3.23" transform="translate(-.21 .6) rotate(-.34)"/>
        <path class="cls-3" d="M83.55,178.56c.27-1.7,1.89-2.56,3.52-2.42,1.78.15,3.05,1.85,2.84,3.46-.25,1.96-1.79,3.09-3.65,2.88s-3.05-1.82-2.71-3.92Z"/>
        <circle class="cls-3" cx="7.56" cy="49.27" r="3.22" transform="translate(-.3 .05) rotate(-.34)"/>
        <path class="cls-3" d="M114.58,208.31c-1.41.6-2.76.28-3.64-.56-1.02-.97-1.32-2.22-.78-3.67.5-1.35,1.92-2.01,3.32-1.86s2.43,1.08,2.74,2.42-.23,3.07-1.65,3.67Z"/>
        <path class="cls-3" d="M189.9,51.3c-1.52-.17-2.5-1.55-2.58-3.04-.08-1.35.93-2.9,2.33-3.17,1.52-.29,2.59.1,3.44,1.14s.88,2.44.24,3.6-1.9,1.64-3.42,1.47Z"/>
        <path class="cls-3" d="M48.18,169.74c-1.57.44-3.15-.54-3.67-1.77-.66-1.58-.12-3.26,1.19-4.06,1.39-.85,3.23-.62,4.28.68.71.87.84,2.03.46,3.08-.32.87-1.06,1.73-2.26,2.07Z"/>
        <path class="cls-3" d="M115.24,47.71c.59,1.86-.59,3.65-2.19,4.01-1.78.41-3.44-.4-3.99-2.19-.47-1.55.48-3.46,2-3.92,1.74-.53,3.59.22,4.18,2.1Z"/>
        <path class="cls-3" d="M309.29,141.91c-2.24.37-3.95-1.24-3.89-3.19.06-2.04,1.86-3.42,3.95-3.03,1.61.3,2.4,1.49,2.51,3,.1,1.4-.9,2.94-2.56,3.22Z"/>
        <circle class="cls-3" cx="269.21" cy="99.82" r="3.22" transform="translate(-.6 1.62) rotate(-.34)"/>
        <circle class="cls-3" cx="243.41" cy="178.35" r="3.22" transform="translate(-1.07 1.47) rotate(-.34)"/>
        <circle class="cls-3" cx="230.27" cy="139.25" r="3.22" transform="translate(-.83 1.39) rotate(-.34)"/>
        <circle class="cls-3" cx="216.73" cy="74.08" r="3.22" transform="translate(-.44 1.3) rotate(-.34)"/>
        <circle class="cls-3" cx="309.1" cy="217.17" r="3.22" transform="translate(-1.3 1.86) rotate(-.34)"/>
        <circle class="cls-3" cx="151.57" cy="113.67" r="3.16" transform="translate(-.68 .91) rotate(-.34)"/>
        <path class="cls-3" d="M297.87,46.19c.68,1.73-.2,3.57-1.76,4.09-1.67.56-3.52-.1-4.12-1.81s.06-3.23,1.73-4.04c1.41-.69,3.45-.03,4.16,1.76Z"/>
        <path class="cls-3" d="M246.4,151.27c.6,1.89-.33,3.47-2.12,4.09-1.44.49-3.3-.47-3.81-2.06s.22-3.36,1.95-3.95c1.55-.53,3.39.06,3.98,1.93Z"/>
        <path class="cls-3" d="M272.43,151.53c.34,1.97-.87,3.34-2.59,3.73-1.59.36-3.32-.96-3.56-2.45-.3-1.83.65-3.36,2.42-3.76,1.61-.37,3.41.64,3.73,2.49Z"/>
        <path class="cls-3" d="M324.62,153.16c-.85,1.95-3.19,2.3-4.72,1.18s-1.72-3.56-.22-4.83c1.22-1.04,2.67-1.07,3.86-.33,1.27.78,1.76,2.42,1.08,3.99Z"/>
        <path class="cls-3" d="M305.69,190.43c.2-1.35,1.32-2.19,2.44-2.44s2.55.29,3.17,1.28c.81,1.31.79,2.83-.16,3.91-.89,1.02-2.43,1.38-3.66.8s-2.04-1.88-1.79-3.55Z"/>
        <path class="cls-3" d="M75.71,34.74c.58,1.86-.42,3.56-2.14,4.03-1.62.44-3.29-.32-3.81-1.98s.22-3.45,1.94-4c1.56-.5,3.44.13,4.01,1.95Z"/>
        <path class="cls-3" d="M216.53,129.26c-1.83-.26-2.66-1.65-2.63-3.22s1.23-2.78,2.83-2.96,3.04.71,3.38,2.41c.21,1.02-.03,2.15-.7,2.86s-1.75,1.07-2.88.91Z"/>
        <path class="cls-3" d="M336.88,6.98c.52,1.76-.48,3.49-2.03,3.93-1.76.5-3.47-.31-3.97-2.07-.44-1.52.37-3.35,1.9-3.89,1.67-.58,3.54.14,4.1,2.02Z"/>
        <path class="cls-3" d="M271.06,227.64c1.14.54,1.63,1.23,1.85,2.39.37,1.97-1.2,3.61-3.18,3.62s-3.31-1.8-3-3.77c.29-1.85,2.43-3.15,4.34-2.24Z"/>
        <path class="cls-3" d="M63.25,125.98c.66,1.78-.17,3.54-1.8,4.07s-3.51-.07-4.09-1.81c-.5-1.5.11-3.36,1.72-3.99,1.5-.59,3.5-.06,4.16,1.73Z"/>
        <path class="cls-3" d="M8.12,156.85c-1.87-.24-2.87-1.6-2.88-3.12-.02-1.7,1.08-2.94,2.81-3.16,1.51-.19,3.13.88,3.4,2.53.33,2.01-1.24,4.02-3.32,3.75Z"/>
        <path class="cls-3" d="M23.45,8.95c.47,1.67-.49,3.41-2.04,3.85-1.75.5-3.48-.32-4-2.07-.46-1.55.46-3.47,2.05-3.95,1.72-.51,3.48.38,3.99,2.16Z"/>
        <path class="cls-3" d="M336.69,141.27c-1.6,1.12-3.31.77-4.38-.38s-1.06-3.06.12-4.29,3.3-1.22,4.52-.02,1.14,3.71-.26,4.69Z"/>
        <circle class="cls-3" cx="217.52" cy="204.57" r="3.15" transform="translate(-1.23 1.31) rotate(-.34)"/>
        <circle class="cls-3" cx="282.39" cy="112.86" r="3.15" transform="translate(-.67 1.7) rotate(-.34)"/>
        <path class="cls-3" d="M319.14,230.39c-.08-1.83,1.52-3.41,3.3-3.37.9.02,2,.69,2.47,1.43.78,1.23.65,3.11-.36,4.03s-2.25,1.05-3.4.62c-.98-.37-1.95-1.27-2.01-2.72Z"/>
        <circle class="cls-3" cx="308.29" cy="112.72" r="3.15" transform="translate(-.67 1.86) rotate(-.34)"/>
        <path class="cls-3" d="M23.68,221.52c-1.54,1.11-3.33.8-4.34-.37s-1.09-3.08.1-4.32c1.1-1.15,3.14-1.17,4.38-.09,1.4,1.22,1.36,3.71-.15,4.79Z"/>
        <circle class="cls-3" cx="255.54" cy="8.4" r="3.15" transform="translate(-.05 1.54) rotate(-.34)"/>
        <path class="cls-3" d="M278.77,34.51c-.05-1.72,1.22-2.84,2.64-3.09s2.99.42,3.45,1.9c.6,1.93-.34,3.9-2.29,4.28-1.75.33-3.74-.91-3.8-3.08Z"/>
        <circle class="cls-3" cx="60.8" cy="205.52" r="3.15" transform="translate(-1.24 .37) rotate(-.34)"/>
        <circle class="cls-3" cx="138.07" cy="22.41" r="3.14" transform="translate(-.13 .83) rotate(-.34)"/>
        <circle class="cls-3" cx="138.53" cy="100.81" r="3.15" transform="translate(-.6 .84) rotate(-.34)"/>
        <path class="cls-3" d="M125.48,189.18c1.23-.16,2.16.05,2.87.7.77.71,1.01,1.68.86,2.86-.21,1.66-1.63,2.65-3.22,2.62-1.47-.03-2.82-1.33-2.97-2.76-.17-1.56.73-3.2,2.47-3.43Z"/>
        <circle class="cls-3" cx="191.45" cy="230.98" r="3.15" transform="translate(-1.39 1.16) rotate(-.34)"/>
        <circle class="cls-3" cx="99.12" cy="61.83" r="3.15" transform="translate(-.37 .6) rotate(-.34)"/>
        <circle class="cls-3" cx="295.26" cy="99.85" r="3.15" transform="translate(-.6 1.78) rotate(-.34)"/>
        <circle class="cls-3" cx="216.42" cy="21.95" r="3.15" transform="translate(-.13 1.3) rotate(-.34)"/>
        <circle class="cls-3" cx="47.29" cy="114.3" r="3.14" transform="translate(-.69 .29) rotate(-.34)"/>
        <circle class="cls-3" cx="87.2" cy="231.61" r="3.15" transform="translate(-1.39 .53) rotate(-.34)"/>
        <path class="cls-3" d="M59.48,104.37c-1.52-.38-2.34-1.65-2.43-2.92-.1-1.4.74-2.85,2.18-3.18,1.34-.31,2.63.09,3.43,1.09.77.97.91,2.44.17,3.58-.65,1.01-1.91,1.8-3.36,1.44Z"/>
        <path class="cls-3" d="M193.53,73.45c.47,1.87-.72,3.45-2.4,3.85-1.56.37-3.32-.67-3.66-2.19-.42-1.83.46-3.46,2.19-3.93,1.61-.44,3.39.37,3.87,2.27Z"/>
        <path class="cls-3" d="M37.74,231.09c.47,1.9-.63,3.51-2.28,3.88-1.74.4-3.35-.48-3.75-2.2s.37-3.35,2.21-3.88c1.41-.41,3.38.42,3.82,2.2Z"/>
        <path class="cls-3" d="M305.88,36.85c-1.44-1.22-1.54-3.17-.54-4.48,1.02-1.33,2.91-1.59,4.35-.56s1.67,2.87.57,4.45c-.9,1.3-3.08,1.69-4.38.58Z"/>
        <path class="cls-3" d="M109.05,75.23c-.18-1.6.51-2.73,1.64-3.32s2.56-.54,3.49.39c1.08,1.08,1.38,2.43.77,3.78-.5,1.11-1.77,1.93-3.19,1.75-1.19-.15-2.54-1.14-2.71-2.61Z"/>
        <path class="cls-3" d="M23.76,61.46c.47,1.89-.6,3.5-2.31,3.92-1.6.39-3.26-.59-3.71-2.25s.41-3.36,2.19-3.85c1.5-.41,3.36.32,3.83,2.18Z"/>
        <circle class="cls-3" cx="295.41" cy="125.73" r="3.15" transform="translate(-.75 1.78) rotate(-.34)"/>
        <path class="cls-3" d="M295.35,207.15c-2.18-.3-3-2.29-2.41-4.14s2.69-2.53,4.44-1.67,2.19,3.15,1,4.75c-.64.86-1.82,1.23-3.03,1.07Z"/>
        <path class="cls-3" d="M35.79,150.81c.67.33,1.2.95,1.42,1.66.46,1.52-.05,3.04-1.31,3.76-1.35.78-2.94.6-3.98-.54s-1.07-2.87-.12-4.12c.87-1.13,2.55-1.48,3.99-.76Z"/>
        <path class="cls-3" d="M113.17,150.01c1.48.29,2.19,1.12,2.48,2.41.42,1.87-.87,3.59-2.7,3.8s-3.41-1.26-3.47-3.13c-.07-1.85,1.7-3.48,3.69-3.09Z"/>
        <circle class="cls-3" cx="164.63" cy="74.39" r="3.15" transform="translate(-.44 .99) rotate(-.34)"/>
        <path class="cls-3" d="M148.93,191.59c.14-1.85,1.72-2.69,3.26-2.67,1.5.02,2.72,1.22,2.92,2.69.23,1.66-.77,3.14-2.47,3.55-.95.23-2.02-.14-2.71-.76s-1.1-1.64-1.01-2.81Z"/>
        <path class="cls-3" d="M283.01,188.12c1.35,0,2.64,1.04,2.89,2.28.4,1.98-.7,3.64-2.59,3.95-1.68.28-3.34-.91-3.55-2.69-.22-1.87,1.1-3.53,3.25-3.54Z"/>
        <path class="cls-3" d="M179.33,215.14c1.25.31,1.97,1.18,2.15,2.36.3,2-1.06,3.73-2.94,3.78-2,.06-3.38-1.49-3.23-3.44s1.95-3.21,4.03-2.7Z"/>
        <circle class="cls-3" cx="98.8" cy="9.34" r="3.15" transform="translate(-.05 .59) rotate(-.34)"/>
        <path class="cls-3" d="M58.88,19.89c1.15-.26,2.19.02,2.97.71,1.45,1.3,1.28,3.66-.23,4.79s-3.72.72-4.64-.92c-.96-1.72-.27-4.1,1.9-4.58Z"/>
        <circle class="cls-3" cx="256.32" cy="139.28" r="3.15" transform="translate(-.83 1.54) rotate(-.34)"/>
        <path class="cls-3" d="M232.43,115.09c-1.31,1.6-3.34,1.57-4.59.44-1.34-1.21-1.41-3.31-.16-4.58,1.15-1.17,3.24-1.26,4.6.1.93.93,1.03,2.97.15,4.04Z"/>
        <circle class="cls-3" cx="216.57" cy="47.81" r="3.15" transform="translate(-.28 1.3) rotate(-.34)"/>
        <path class="cls-3" d="M122.74,37.38c-.92-1.11-.89-2.82-.05-3.9s2.52-1.47,3.78-.93c1.36.59,2.04,2.12,1.75,3.62-.25,1.28-1.15,2.09-2.26,2.33-1.2.26-2.31-.02-3.23-1.13Z"/>
        <path class="cls-3" d="M123.51,111.55c.92-.77,2.06-1.04,3.09-.76.9.24,1.93,1.16,2.11,2.19.29,1.61-.37,3.05-1.73,3.7s-2.93.15-3.87-1.03-.84-3.06.39-4.09Z"/>
        <circle class="cls-3" cx="294.79" cy="21.49" r="3.14" transform="translate(-.12 1.77) rotate(-.34)"/>
        <circle class="cls-3" cx="20.9" cy="88.18" r="3.14" transform="translate(-.53 .13) rotate(-.34)"/>
        <path class="cls-3" d="M24.36,165.59c.53,1.76-.44,3.54-1.99,3.93-1.79.45-3.48-.25-3.99-2.07-.45-1.58.27-3.22,1.95-3.86,1.5-.57,3.47.14,4.02,2Z"/>
        <path class="cls-3" d="M245.96,72.95c.46,1.78-.36,3.45-2.02,3.91s-3.42-.28-3.98-2.11c-.48-1.55.34-3.35,2.1-3.87,1.5-.45,3.46.36,3.9,2.08Z"/>
        <circle class="cls-3" cx="256.77" cy="217.65" r="3.14" transform="translate(-1.3 1.55) rotate(-.34)"/>
        <path class="cls-3" d="M140.88,207.71c-.79.53-2.28.54-3.08.2-1.85-.79-2.23-3.15-1.21-4.68s3.36-1.73,4.69-.51c1.4,1.29,1.41,3.78-.41,5Z"/>
        <path class="cls-3" d="M102.54,139.15c.61,1.81-.31,3.48-1.91,4.03s-3.38-.26-3.98-1.85.18-3.44,1.65-3.96c1.7-.61,3.62-.07,4.25,1.79Z"/>
        <path class="cls-3" d="M220.38,177.91c.44,1.79-.52,3.34-2.15,3.82s-3.35-.46-3.86-2.09c-.54-1.71.44-3.53,2.02-3.92,1.8-.45,3.54.35,3.98,2.19Z"/>
        <path class="cls-3" d="M337.84,163.79c.44,1.68-.45,3.47-2.02,3.85-1.8.44-3.48-.26-3.99-2.08-.45-1.65.33-3.37,2.11-3.9,1.57-.47,3.42.32,3.89,2.13Z"/>
        <path class="cls-3" d="M10.66,76.84c-.67,1.38-2.31,1.86-3.57,1.53-1.43-.37-2.28-1.58-2.32-3s.81-2.57,2.35-3.11c1.1-.38,2.39.17,3.1.95.84.92,1.03,2.41.44,3.64Z"/>
        <circle class="cls-3" cx="204.03" cy="113.35" r="3.14" transform="translate(-.68 1.23) rotate(-.34)"/>
        <path class="cls-3" d="M216.31,97.29c1.13-.18,2.12.07,2.78.74.69.71,1.02,1.68.87,2.79-.22,1.66-1.65,2.72-3.17,2.66s-2.87-1.28-3.01-2.75c-.16-1.65.69-3.15,2.53-3.44Z"/>
        <circle class="cls-3" cx="295.74" cy="178.24" r="3.14" transform="translate(-1.07 1.78) rotate(-.34)"/>
        <path class="cls-3" d="M36.77,74.14c.55,1.9-.5,3.54-2.15,4.05-1.55.48-3.31-.43-3.79-2-.53-1.69.25-3.44,1.94-4.03,1.43-.5,3.52.3,4.01,1.98Z"/>
        <circle class="cls-3" cx="177.17" cy="8.86" r="3.14" transform="translate(-.05 1.07) rotate(-.34)"/>
        <path class="cls-3" d="M180.63,86.37c.45,1.69-.41,3.45-2.01,3.86-1.73.44-3.47-.32-3.97-2.09-.45-1.58.34-3.41,2.07-3.89,1.62-.45,3.44.33,3.91,2.11Z"/>
        <path class="cls-3" d="M175.74,141.96c-1.15-1.27-1.26-3-.13-4.33,1.23-1.44,3.96-1.29,4.95.33.89,1.45.6,3.2-.56,4.18s-3.07,1.12-4.26-.18Z"/>
        <circle class="cls-3" cx="177.48" cy="61.37" r="3.14" transform="translate(-.37 1.07) rotate(-.34)"/>
        <path class="cls-3" d="M338.09,216.07c.59,1.83-.25,3.54-1.86,4.07s-3.37-.25-4.02-1.86.18-3.28,1.69-3.94,3.6-.05,4.18,1.73Z"/>
        <path class="cls-3" d="M271.94,73.17c.28,1.92-.88,3.4-2.46,3.64-1.85.28-3.43-.74-3.7-2.55-.24-1.64.69-3.19,2.42-3.6,1.58-.37,3.46.63,3.74,2.51Z"/>
        <circle class="cls-3" cx="138.22" cy="48.29" r="3.14" transform="translate(-.29 .83) rotate(-.34)"/>
        <path class="cls-3" d="M253.45,58.85c1.2-1.52,3.83-1.38,4.94.16,1,1.38.7,3.31-.5,4.28s-3.04,1.04-4.16-.06-1.46-2.88-.28-4.38Z"/>
        <circle class="cls-3" cx="256.46" cy="165.14" r="3.14" transform="translate(-.99 1.55) rotate(-.34)"/>
        <path class="cls-3" d="M58.11,46.15c1.73-1.25,4.38-.17,4.81,1.84.36,1.69-.56,3.2-1.95,3.69-1.49.53-3.15-.05-3.88-1.39s-.45-3.08,1.02-4.13Z"/>
        <circle class="cls-3" cx="178.58" cy="244" r="3.14" transform="translate(-1.46 1.08) rotate(-.34)"/>
        <path class="cls-3" d="M102.72,165.13c.53,1.74-.48,3.53-2,3.93-1.76.46-3.52-.27-4.01-2.07-.42-1.54.32-3.24,1.98-3.86,1.48-.55,3.47.15,4.03,2Z"/>
        <path class="cls-3" d="M206.45,33.78c.65,1.66-.17,3.56-1.73,4.1s-3.47-.1-4.13-1.86c-.52-1.4.12-3.32,1.7-3.95,1.49-.59,3.44-.12,4.15,1.7Z"/>
        <path class="cls-3" d="M70.6,191.92c.22-1.39,1.36-2.35,2.64-2.53,1.36-.19,2.68.58,3.29,1.93.54,1.2.22,2.66-.69,3.47-1.06.93-2.35,1.16-3.61.51s-1.87-1.88-1.63-3.38Z"/>
        <circle class="cls-3" cx="8.84" cy="232.1" r="3.14" transform="translate(-1.4 .06) rotate(-.34)"/>
        <circle class="cls-3" cx="86.71" cy="153.22" r="3.14" transform="translate(-.92 .52) rotate(-.34)"/>
        <circle class="cls-3" cx="165.09" cy="152.77" r="3.14" transform="translate(-.92 1) rotate(-.34)"/>
        <path class="cls-3" d="M337.17,59.35c.59,1.84-.36,3.43-1.93,4.04s-3.33-.26-3.96-1.86.21-3.41,1.65-3.96c1.66-.63,3.67-.02,4.25,1.77Z"/>
        <path class="cls-3" d="M181.08,164.66c.54,1.76-.46,3.49-2.01,3.92-1.72.48-3.5-.3-3.99-2.06-.44-1.58.31-3.24,1.97-3.86,1.5-.56,3.46.15,4.03,2Z"/>
        <path class="cls-3" d="M194.02,151.86c.34,1.82-.68,3.45-2.38,3.8s-3.26-.6-3.67-2.22c-.44-1.71.48-3.36,2.19-3.88,1.56-.47,3.54.55,3.87,2.31Z"/>
        <path class="cls-3" d="M333.39,240.59c1.37-.92,2.9-.84,3.93.03,1.15.98,1.4,2.5.83,3.76-.64,1.44-2.07,2.01-3.74,1.67-1.1-.23-1.95-1.23-2.15-2.14-.28-1.29.03-2.58,1.12-3.32Z"/>
        <path class="cls-3" d="M320.93,76.5c-1.68-.16-2.82-1.77-2.73-3.18.11-1.63,1.23-2.75,2.83-3s3.14.89,3.38,2.55c.16,1.11-.04,1.99-.72,2.71s-1.47,1.04-2.75.92Z"/>
        <circle class="cls-3" cx="255.99" cy="86.77" r="3.13" transform="translate(-.52 1.54) rotate(-.34)"/>
        <path class="cls-3" d="M21.1,247.96c-1.57-.29-2.42-1.59-2.38-3.08.05-1.85,1.6-3.1,3.22-3.07,1.94.03,3.19,1.68,3.03,3.4-.17,1.95-1.8,3.14-3.87,2.75Z"/>
        <path class="cls-3" d="M24.23,139.91c.45,1.81-.51,3.31-2.16,3.81-1.56.47-3.44-.53-3.85-2.05-.47-1.74.46-3.56,2.04-3.96,1.75-.44,3.53.43,3.98,2.2Z"/>
        <circle class="cls-3" cx="86.26" cy="74.84" r="3.14" transform="translate(-.45 .52) rotate(-.34)"/>
        <path class="cls-3" d="M232.48,193.92c-1.75,1.37-3.86.81-4.77-.78-1.01-1.77-.26-4.04,1.8-4.55,1.2-.3,2.67,0,3.36,1,.92,1.33.87,3.36-.39,4.34Z"/>
        <path class="cls-3" d="M141.99,178.32c.52,1.76-.54,3.39-2.09,3.89-1.65.54-3.42-.49-3.88-2.09s.34-3.36,1.86-3.86c1.73-.57,3.54.14,4.11,2.05Z"/>
        <path class="cls-3" d="M137.14,129.4c-1.22-.58-1.64-1.74-1.55-3,.13-1.92,2.03-3.19,3.77-2.8,1.9.43,2.91,2.34,2.31,4.11s-2.66,2.57-4.53,1.69Z"/>
        <circle class="cls-3" cx="100.21" cy="244.47" r="3.14" transform="translate(-1.47 .61) rotate(-.34)"/>
        <circle class="cls-3" cx="334.38" cy="86.3" r="3.14" transform="translate(-.51 2.01) rotate(-.34)"/>
        <path class="cls-3" d="M103,217.48c.62,1.84-.26,3.45-1.87,4.09-1.51.6-3.41-.32-3.99-1.87s.12-3.23,1.68-3.94,3.6-.02,4.19,1.73Z"/>
        <path class="cls-3" d="M149.01,37.69c-1.17-1.14-1.34-2.81-.57-4.1.7-1.18,2.15-1.74,3.63-1.3,1.29.39,2.28,1.66,2.14,3.16-.13,1.42-1.22,2.83-2.81,2.9-.85.04-1.79-.09-2.39-.67Z"/>
        <path class="cls-3" d="M256.61,246.61c-1.87-.1-2.82-1.63-2.81-3.24s1.32-2.92,2.98-2.95,3.13,1.03,3.27,2.79c.07.92-.18,1.86-.75,2.47-.6.65-1.59.99-2.69.93Z"/>
        <path class="cls-3" d="M96.48,89.18c-.73-1.5-.24-3.36,1.12-4.11s3.29-.58,4.26.86c1.04,1.54.55,3.46-.92,4.4-1.47.94-3.63.55-4.46-1.15Z"/>
        <circle class="cls-3" cx="47.78" cy="192.66" r="3.13" transform="translate(-1.16 .29) rotate(-.34)"/>
        <circle class="cls-3" cx="60.64" cy="179.66" r="3.13" transform="translate(-1.08 .37) rotate(-.34)"/>
        <path class="cls-3" d="M228.93,37.87c-1.84-.18-2.7-1.84-2.59-3.46.1-1.43,1.4-2.66,3.02-2.72,1.47-.06,2.99.93,3.16,2.6.1.92-.17,2-.71,2.61-.64.72-1.72,1.08-2.88.97Z"/>
        <path class="cls-3" d="M72.41,111.14c1.75-.37,3.08.32,3.66,1.8.68,1.76-.06,3.42-1.71,4.08-1.64.66-3.5-.11-4.07-1.74-.63-1.79.16-3.73,2.12-4.14Z"/>
        <path class="cls-3" d="M201.88,190.09c.93-1.42,2.41-1.76,3.75-1.31,1.43.48,2.17,1.92,1.93,3.5-.3,1.94-2.34,3.04-4.04,2.41-1.85-.68-2.8-2.83-1.64-4.6Z"/>
        <path class="cls-3" d="M246.88,229.72c.52,1.72-.39,3.53-2.13,3.95-1.58.38-3.21-.37-3.83-2.05-.56-1.54.31-3.22,1.98-3.91,1.51-.62,3.44.24,3.98,2Z"/>
        <path class="cls-3" d="M168.53,230.18c.54,1.76-.37,3.42-2.13,3.99-1.5.49-3.21-.41-3.83-2.07-.56-1.5.31-3.23,1.96-3.9,1.53-.62,3.46.23,4,1.98Z"/>
        <path class="cls-3" d="M110.11,230.41c.32-1.23,1.48-1.86,2.62-2.04,1.04-.16,2.17.38,2.91,1.33.91,1.16.71,2.76-.2,3.8-.97,1.12-2.5,1.45-3.78.75s-1.99-2.15-1.55-3.84Z"/>
        <path class="cls-3" d="M48.43,38.62c-1.28.68-2.84.42-3.75-.51s-1.33-2.39-.64-3.69c.63-1.2,2-1.82,3.18-1.61,1.32.23,2.42,1.14,2.63,2.27.25,1.38-.11,2.84-1.42,3.54Z"/>
      </g>
    </g>
  </g>
</svg>