<?xml version="1.0" encoding="UTF-8"?>
<svg id="_레이어_1" data-name="레이어 1" xmlns="http://www.w3.org/2000/svg" xmlns:xlink="http://www.w3.org/1999/xlink" viewBox="0 0 325.17 173.2" overflow="visible"><g transform="rotate(180 162.585 86.6)" filter="url(#flap-shadow)">
  <defs>
    <style>
      .cls-1 {
        fill: none;
      }

      .cls-2 {
        fill: #fff5eb;
      }

      .cls-3 {
        fill: #d97757;
      }

      .cls-4 {
        clip-path: url(#clippath);
      }
    </style>
    <clipPath id="clippath">
      <path class="cls-1" d="M311.63,148.09l5.45,17.35H8.09l2.59-10.4c2.86-11.49,9.11-21.85,17.93-29.74L158.96,8.78c1.5-1.34,3.76-1.36,5.29-.04l129.74,112.46c8.26,7.16,14.36,16.46,17.64,26.89Z"/>
    </clipPath>
    <filter id="flap-shadow" x="-5%" y="-5%" width="110%" height="130%">
      <feDropShadow dx="0" dy="4" stdDeviation="6" flood-color="#000000" flood-opacity="0.15"/>
    </filter>
  </defs>
  <g class="cls-4">
    <g>
      <rect class="cls-3" x="-8.71" y="1.13" width="342.6" height="628.09"/>
      <path class="cls-2" d="M163.81,88.38l-.2-.28-.17-.33-.66-1.17-.21-.42-.39-.71c-.04-.07-.11-.17-.19-.18-.17-.03-.31.1-.34.25-.06.31-.06.61-.08.92l-.02.42c-.02.32-.04.62,0,.94l-.05.95-.07.76-.04.71s-.04.04-.03.05l.04.04v.37s-.04.09-.05.12l-.03.2-.13,1.22-.16.86c-.08.43-.19.84-.31,1.26l-.05.21-.02.19-.23.75-.1.36-.04.18-.08.33-.23.67-.2.52-.18.42-.25.57-.29.56-.19.37c-.14.19-.28.37-.45.53l-.13.12-.47.35c-.13.1-.27.14-.43.18-.14.03-.25.04-.39,0-.22-.05-.42-.13-.57-.31-.11-.13-.2-.27-.27-.42l-.2-.43-.07-.21c.05-.15-.1-.29-.12-.49l-.02-.17c-.03-.23-.04-.46-.03-.69l-.02-.33.03-.84.04-.26c0-.31.04-.59.08-.9l.16-1.24.17-.77.12-.49.25-.98c.13-.26.21-.53.27-.81l.14-.48.2-.6.15-.4.23-.66.22-.51c.03-.07.03-.13.05-.21l.12-.38.11-.16.08-.28.41-1.02.25-.49.24-.49.27-.57c.12-.25.17-.6-.09-.66l-.23.08-.5.22-.97.46-.89.46-1.2.63-.32.18-.54.29-.67.34-.59.28-.77.37-.74.35-.26.15-.79.34-.42.16c-.41.18-.82.3-1.25.4-.17.04-.32.06-.5.07l-.21.03-.29.02s-.15,0-.2-.02l-.35-.06c-.39-.07-.91-.35-1.01-.69l-.1-.35c-.09-.3-.07-.63.05-.92.07-.19.22-.33.36-.47.26-.27.54-.48.85-.69l.28-.19.53-.3c.16-.09.28-.19.45-.27l.58-.26.71-.32.56-.22,1.47-.56,1.11-.37.55-.21,1.04-.31.63-.2.2-.04.9-.22.7-.14c.13-.03.27-.1.38-.17.08-.05.07-.19.02-.26-.08-.12-.19-.2-.31-.29l-.68-.47c-.17-.05-.3-.15-.41-.29l-.9-.51-1.36-.8-.46-.29-.71-.41-.83-.48c-.5-.29-.99-.56-1.46-.9l-.9-.65-.13-.11c-.28-.27-.58-.51-.89-.75-.13-.1-.27-.21-.38-.33l-.37-.4-.33-.34-.42-.47c-.12-.14-.22-.29-.33-.44l-.21-.28c-.22-.35-.29-.74-.25-1.16.01-.17.12-.35.28-.44.17-.1.36-.19.54-.27.2-.08.42-.04.62-.03l.46.02c.36.02.69.13,1.02.26s.63.26.91.49c.41.33.81.65,1.25.94.19.17.39.31.61.44l.37.27c.2.15.4.27.59.44.13.11.26.22.41.3s.29.19.4.33c.18.13.37.24.53.38l.38.33c.18.15.38.26.55.42.29.26.58.48.91.7.2.14.36.32.56.47l.46.43,1.1.81.42.33.76.58.37.35s.12.07.15.05c.15-.15.21-.36.18-.56l-.14-.85-.09-.46-.12-.82-.12-.67-.16-.93-.1-.7-.18-1.23-.11-.93-.17-.98c-.05-.32-.04-.61-.05-.93-.03-.66-.03-1.31.02-1.96l.04-.34c.01-.1-.01-.19.01-.29.02-.09.05-.2.03-.29-.02-.07-.02-.1,0-.16l.09-.44.05-.22.08-.41c.04-.2.11-.38.19-.57.15-.36.29-.7.47-1.05.12-.24.29-.45.46-.65.14-.15.32-.23.48-.34.17-.12.33-.17.53-.22.38-.1.75-.14,1.15-.07.12.02.22.03.33.09.07.05.19.08.24.15.27.32.71,1.22.78,1.58l.17.92.15,1.69v.24c.02.1-.02.22,0,.32.03.11.05.19,0,.29-.06.15-.07.3-.09.46l-.06.55-.03.23v.27c0,.3-.04.59-.1.88l-.13.65-.04.15-.04.31c-.03.19-.05.36-.09.54l-.13.6-.1.57-.08.59-.04.18-.04.2-.33,1.59s-.03.08,0,.11l-.02.17-.08.37c-.02.07-.01.14-.03.21l-.08.38c-.05.23-.07.46-.06.69v.29c.02.16.18.28.34.32.39-.1.43-.31.56-.45l.39-.42.26-.28.64-.7c.22-.24.4-.49.65-.7.11-.09.19-.19.28-.3l.23-.27.3-.36.55-.54.57-.58.28-.28.17-.19.75-.75c.15-.15.32-.26.47-.4l.59-.55.41-.4.7-.54.26-.16.35-.32c.19-.14.44-.24.68-.27l.47-.04c.1,0,.2,0,.3.02.2.02.37.07.52.21.11.11.23.25.28.4.1.36.03.72-.04,1.07l-.05.24c-.1.33-.27.62-.47.9-.12.18-.23.36-.38.51l-.65.64-.42.41-.6.55-.8.7-.19.17-.94.75-.93.71-.67.48-.45.28-.34.21-.47.31-.65.43-.33.27-.38.33c-.1.09.11.19.31.24l.67-.1,1.55-.17.87-.12s.12,0,.17,0l.63-.06,1.35-.12.46-.04c.13.06.26,0,.4,0l.54-.02h.48s.64,0,.64,0l2.26.16.66.09.7.17.24.06.58.24.58.35c.22.13.46.45.58.7l.13.27-.03.11c.07.21.03.41-.03.61-.07.26-.17.49-.37.7-.28.19-.56.36-.87.51-.16.07-.32.11-.49.15l-.13.03-.36.05-.92.09h-.58s-.34.04-.34.04c-.08.05-.17.06-.26.03-.12.02-.23.02-.34.01l-.29-.02-.9-.11-.74-.09-1.09-.12-.92-.13-.92-.12-1.29-.17-.36-.03-1.97-.25-.6-.1-.17-.04-.32-.04-.35-.03s-.13.07-.17.1c-.07.05-.1.1-.07.18.05.12.13.23.22.33l.58.56.28.23.29.27.52.49.53.47.62.6.21.2.38.35.37.34.17.17.31.33.3.26.47.55.33.38.3.37.7.89.55.75.32.49c.2.3.36.62.6.9.09.11.16.24.22.38l.23.52.18.54.13.5.06.29.04.4.03.09s-.01.08-.02.21c-.02.17-.05.35-.11.52-.03.09-.1.18-.17.24-.04.03-.05.09-.07.13-.21.31-.57.47-.94.48-.1,0-.17.01-.26.05-.29-.05-.6-.1-.85-.27l-.51-.34-.46-.35c-.09-.07-.15-.13-.23-.21l-.62-.62-.45-.53-.42-.52-.32-.39-.31-.39-.65-.91-.3-.47-.31-.46-.23-.34-.29-.46-.21-.33-.32-.52-.57-.94-.22-.37-.2-.33Z"/>
    </g>
  </g>
</g></svg>