<svg width="334" height="334" viewBox="0 0 334 334" fill="none" xmlns="http://www.w3.org/2000/svg">
<rect width="334" height="334" fill="#1D3557"/>
<path d="M169.344 200.248L168.88 200.898L168.485 201.664L166.953 204.379L166.465 205.354L165.56 207.002C165.467 207.165 165.304 207.397 165.119 207.42C164.724 207.489 164.399 207.188 164.329 206.84C164.19 206.12 164.19 205.424 164.143 204.704L164.097 203.729C164.05 202.987 164.004 202.29 164.097 201.548L163.981 199.343L163.818 197.579L163.725 195.931C163.725 195.931 163.633 195.838 163.656 195.815L163.749 195.722V194.863C163.749 194.863 163.656 194.654 163.633 194.585L163.563 194.12L163.261 191.289L162.89 189.293C162.704 188.295 162.448 187.343 162.17 186.368L162.054 185.881L162.007 185.44L161.473 183.699L161.241 182.863L161.148 182.446L160.962 181.68L160.428 180.125L159.964 178.918L159.546 177.943L158.966 176.62L158.292 175.32L157.851 174.461C157.526 174.02 157.201 173.603 156.806 173.231L156.504 172.953L155.413 172.14C155.111 171.908 154.786 171.815 154.415 171.723C154.09 171.653 153.834 171.63 153.509 171.723C152.998 171.839 152.534 172.024 152.186 172.442C151.93 172.744 151.721 173.069 151.559 173.417L151.094 174.415L150.932 174.902C151.048 175.251 150.7 175.576 150.653 176.04L150.607 176.434C150.537 176.968 150.514 177.502 150.537 178.036L150.491 178.802L150.56 180.751L150.653 181.355C150.653 182.074 150.746 182.724 150.839 183.444L151.211 186.322L151.605 188.109L151.884 189.246L152.464 191.521C152.766 192.124 152.952 192.751 153.091 193.401L153.416 194.515L153.881 195.908L154.229 196.836L154.763 198.368L155.274 199.552C155.343 199.714 155.343 199.853 155.39 200.039L155.669 200.921L155.924 201.292L156.11 201.942L157.062 204.31L157.642 205.447L158.199 206.584L158.826 207.907C159.105 208.488 159.221 209.3 158.617 209.439L158.083 209.253L156.922 208.743L154.67 207.675L152.604 206.608L149.817 205.145L149.074 204.727L147.821 204.054L146.265 203.265L144.895 202.615L143.107 201.757L141.389 200.944L140.785 200.596L138.951 199.807L137.976 199.436C137.024 199.018 136.072 198.739 135.074 198.507C134.679 198.414 134.331 198.368 133.913 198.345L133.425 198.275L132.752 198.229C132.752 198.229 132.403 198.229 132.287 198.275L131.475 198.414C130.569 198.577 129.362 199.227 129.13 200.016L128.897 200.828C128.688 201.524 128.735 202.29 129.014 202.964C129.176 203.405 129.524 203.729 129.849 204.054C130.453 204.681 131.103 205.168 131.823 205.656L132.473 206.097L133.704 206.793C134.075 207.002 134.354 207.234 134.749 207.42L136.095 208.023L137.744 208.766L139.044 209.277L142.457 210.576L145.034 211.435L146.311 211.923L148.726 212.642L150.189 213.106L150.653 213.199L152.743 213.71L154.368 214.035C154.67 214.104 154.995 214.267 155.251 214.429C155.436 214.545 155.413 214.87 155.297 215.033C155.111 215.311 154.856 215.497 154.577 215.706L152.998 216.797C152.604 216.913 152.302 217.145 152.046 217.47L149.957 218.654L146.799 220.51L145.731 221.183L144.082 222.135L142.155 223.249C140.994 223.922 139.857 224.549 138.765 225.338L136.676 226.847L136.374 227.102C135.724 227.729 135.027 228.286 134.307 228.843C134.006 229.075 133.68 229.33 133.425 229.609L132.566 230.537L131.8 231.326L130.825 232.417C130.546 232.742 130.314 233.09 130.058 233.438L129.571 234.088C129.06 234.901 128.897 235.806 128.99 236.781C129.014 237.175 129.269 237.593 129.64 237.802C130.035 238.034 130.476 238.243 130.894 238.429C131.359 238.614 131.869 238.521 132.334 238.498L133.402 238.452C134.238 238.405 135.004 238.15 135.77 237.848C136.536 237.547 137.233 237.245 137.883 236.711C138.835 235.945 139.764 235.202 140.785 234.529C141.227 234.135 141.691 233.81 142.202 233.508L143.061 232.881C143.525 232.533 143.99 232.255 144.431 231.86C144.733 231.605 145.034 231.35 145.383 231.164C145.731 230.978 146.056 230.723 146.311 230.398C146.729 230.096 147.17 229.841 147.542 229.516L148.424 228.75C148.842 228.402 149.307 228.147 149.701 227.775C150.375 227.172 151.048 226.661 151.814 226.15C152.279 225.826 152.65 225.408 153.114 225.06L154.183 224.062L156.737 222.182L157.712 221.416L159.476 220.069L160.335 219.257C160.335 219.257 160.614 219.095 160.684 219.141C161.032 219.489 161.171 219.977 161.102 220.441L160.777 222.414L160.568 223.481L160.289 225.385L160.01 226.94L159.639 229.098L159.407 230.723L158.989 233.578L158.733 235.736L158.339 238.011C158.223 238.754 158.246 239.427 158.223 240.169C158.153 241.701 158.153 243.21 158.269 244.719L158.362 245.508C158.385 245.74 158.339 245.949 158.385 246.181C158.432 246.39 158.501 246.645 158.455 246.854C158.408 247.016 158.408 247.086 158.455 247.225L158.664 248.247L158.78 248.757L158.966 249.709C159.058 250.173 159.221 250.591 159.407 251.032C159.755 251.867 160.08 252.656 160.498 253.469C160.777 254.026 161.171 254.513 161.566 254.977C161.891 255.326 162.309 255.511 162.681 255.767C163.075 256.045 163.447 256.161 163.911 256.277C164.793 256.509 165.653 256.602 166.581 256.44C166.86 256.393 167.092 256.37 167.347 256.231C167.51 256.115 167.789 256.045 167.905 255.883C168.532 255.14 169.553 253.051 169.716 252.215L170.11 250.08L170.459 246.158V245.601C170.505 245.368 170.412 245.09 170.459 244.858C170.528 244.603 170.575 244.417 170.459 244.185C170.319 243.837 170.296 243.488 170.25 243.117L170.11 241.841L170.041 241.307V240.68C170.041 239.984 169.948 239.311 169.809 238.638L169.507 237.129L169.414 236.781L169.321 236.061C169.251 235.62 169.205 235.226 169.112 234.808L168.81 233.415L168.578 232.092L168.392 230.723L168.299 230.305L168.207 229.841L167.44 226.15C167.44 226.15 167.371 225.965 167.44 225.895L167.394 225.501L167.208 224.642C167.162 224.479 167.185 224.317 167.139 224.154L166.953 223.272C166.837 222.739 166.79 222.205 166.813 221.671V220.998C166.86 220.626 167.231 220.348 167.603 220.255C168.508 220.487 168.601 220.975 168.903 221.3L169.809 222.274L170.412 222.924L171.898 224.549C172.409 225.106 172.827 225.686 173.408 226.174C173.663 226.383 173.849 226.615 174.058 226.87L174.592 227.497L175.288 228.332L176.565 229.586L177.889 230.932L178.539 231.582L178.934 232.023L180.675 233.763C181.023 234.112 181.418 234.367 181.766 234.692L183.136 235.968L184.088 236.897L185.713 238.15L186.317 238.521L187.13 239.264C187.571 239.589 188.151 239.821 188.709 239.891L189.8 239.984C190.032 239.984 190.264 239.984 190.496 239.937C190.961 239.891 191.356 239.775 191.704 239.45C191.959 239.195 192.238 238.87 192.354 238.521C192.586 237.686 192.424 236.85 192.261 236.038L192.145 235.481C191.913 234.715 191.518 234.042 191.054 233.392C190.775 232.974 190.52 232.556 190.171 232.208L188.662 230.723L187.687 229.771L186.294 228.495L184.436 226.87L183.995 226.475L181.813 224.735L179.653 223.087L178.098 221.973L177.053 221.323L176.263 220.835L175.172 220.116L173.663 219.118L172.897 218.491L172.014 217.725C171.782 217.516 172.27 217.284 172.734 217.168L174.29 217.4L177.889 217.795L179.909 218.073C179.909 218.073 180.187 218.073 180.303 218.073L181.766 218.213L184.901 218.491L185.969 218.584C186.271 218.445 186.572 218.584 186.898 218.584L188.151 218.63H189.266H190.752L195.999 218.259L197.532 218.05L199.157 217.656L199.714 217.516L201.061 216.959L202.408 216.147C202.918 215.845 203.476 215.102 203.754 214.522L204.056 213.895L203.986 213.64C204.149 213.153 204.056 212.689 203.917 212.224C203.754 211.621 203.522 211.087 203.058 210.6C202.408 210.159 201.757 209.764 201.038 209.416C200.666 209.253 200.295 209.161 199.9 209.068L199.598 208.998L198.762 208.882L196.626 208.673H195.279L194.49 208.58C194.304 208.464 194.095 208.441 193.886 208.511C193.608 208.464 193.352 208.464 193.097 208.488L192.424 208.534L190.334 208.789L188.616 208.998L186.085 209.277L183.949 209.578L181.813 209.857L178.817 210.251L177.982 210.321L173.408 210.901L172.014 211.133L171.62 211.226L170.877 211.319L170.064 211.389C170.064 211.389 169.762 211.226 169.669 211.157C169.507 211.041 169.437 210.925 169.507 210.739C169.623 210.46 169.809 210.205 170.018 209.973L171.364 208.673L172.014 208.139L172.688 207.513L173.895 206.375L175.126 205.285L176.565 203.892L177.053 203.428L177.935 202.615L178.794 201.826L179.189 201.432L179.909 200.666L180.605 200.062L181.697 198.786L182.463 197.904L183.159 197.045L184.785 194.979L186.062 193.238L186.805 192.101C187.269 191.405 187.641 190.662 188.198 190.012C188.407 189.757 188.569 189.455 188.709 189.13L189.243 187.923L189.661 186.67L189.962 185.509L190.102 184.836L190.195 183.908L190.264 183.699C190.264 183.699 190.241 183.513 190.218 183.212C190.171 182.817 190.102 182.399 189.962 182.005C189.893 181.796 189.73 181.587 189.568 181.448C189.475 181.378 189.452 181.239 189.405 181.146C188.918 180.426 188.082 180.055 187.223 180.032C186.99 180.032 186.828 180.009 186.619 179.916C185.946 180.032 185.226 180.148 184.645 180.542L183.461 181.332L182.393 182.144C182.184 182.306 182.045 182.446 181.859 182.631L180.42 184.07L179.375 185.301L178.4 186.507L177.657 187.413L176.937 188.318L175.428 190.43L174.731 191.521L174.011 192.589L173.477 193.378L172.804 194.445L172.316 195.211L171.573 196.418L170.25 198.6L169.739 199.459L169.275 200.225L169.344 200.248Z" fill="#FFF8E7"/>
</svg>
