<?xml version="1.0" encoding="UTF-8"?>
<svg id="_레이어_1" data-name="레이어 1" xmlns="http://www.w3.org/2000/svg" xmlns:xlink="http://www.w3.org/1999/xlink" viewBox="0 0 12.61 234.66">
  <defs>
    <style>
      .cls-1 {
        fill: none;
      }

      .cls-2 {
        fill: #e1e7f3;
      }

      .cls-3 {
        fill: #fffaf4;
      }

      .cls-4 {
        fill: #f8f4e8;
      }

      .cls-5 {
        clip-path: url(#clippath);
      }
    </style>
    <clipPath id="clippath">
      <path class="cls-1" d="M8.81,4.83v225H3.81V4.83h5Z"/>
    </clipPath>
  </defs>
  <g class="cls-5">
    <g>
      <rect class="cls-3" x="-400.15" y="4.83" width="415.41" height="233.67"/>
      <g>
        <g>
          <rect class="cls-4" x="9.64" y="4.83" width="5.62" height="6.92"/>
          <rect class="cls-4" x="-5.64" y="4.83" width="8.35" height="6.92"/>
          <rect class="cls-4" x="-5.64" y="31.51" width="8.35" height="6.92"/>
          <rect class="cls-4" x="9.64" y="31.51" width="5.62" height="6.92"/>
          <rect class="cls-4" x="-5.64" y="58.18" width="8.35" height="6.92"/>
          <rect class="cls-4" x="9.64" y="58.18" width="5.62" height="6.92"/>
          <rect class="cls-4" x="-5.64" y="44.85" width="8.35" height="6.92"/>
          <rect class="cls-4" x="9.64" y="44.85" width="5.62" height="6.92"/>
          <rect class="cls-4" x="-5.64" y="71.52" width="8.35" height="6.92"/>
          <rect class="cls-4" x="9.64" y="71.52" width="5.62" height="6.92"/>
          <rect class="cls-4" x="-5.64" y="98.2" width="8.35" height="6.92"/>
          <rect class="cls-4" x="9.64" y="98.2" width="5.62" height="6.92"/>
          <rect class="cls-4" x="9.64" y="84.86" width="5.62" height="6.92"/>
          <rect class="cls-4" x="-5.64" y="84.86" width="8.35" height="6.92"/>
          <rect class="cls-4" x="9.64" y="124.87" width="5.62" height="6.92"/>
          <rect class="cls-4" x="-5.64" y="124.87" width="8.35" height="6.92"/>
          <rect class="cls-4" x="-5.64" y="151.55" width="8.35" height="6.92"/>
          <rect class="cls-4" x="9.64" y="151.55" width="5.62" height="6.92"/>
          <rect class="cls-4" x="9.64" y="111.53" width="5.62" height="6.92"/>
          <rect class="cls-4" x="-5.64" y="111.53" width="8.35" height="6.92"/>
          <rect class="cls-4" x="-5.64" y="164.89" width="8.35" height="6.92"/>
          <rect class="cls-4" x="9.64" y="164.89" width="5.62" height="6.92"/>
          <rect class="cls-4" x="-5.64" y="218.24" width="8.35" height="6.92"/>
          <rect class="cls-4" x="9.64" y="218.24" width="5.62" height="6.92"/>
          <rect class="cls-4" x="9.64" y="231.57" width="5.62" height="6.92"/>
          <rect class="cls-4" x="-5.64" y="231.57" width="8.35" height="6.92"/>
          <rect class="cls-4" x="-5.64" y="178.22" width="8.35" height="6.92"/>
          <rect class="cls-4" x="9.64" y="178.22" width="5.62" height="6.92"/>
          <rect class="cls-4" x="-5.64" y="18.17" width="8.35" height="6.92"/>
          <rect class="cls-4" x="9.64" y="18.17" width="5.62" height="6.92"/>
          <rect class="cls-4" x="-5.64" y="191.56" width="8.35" height="6.92"/>
          <rect class="cls-4" x="9.64" y="191.56" width="5.62" height="6.92"/>
          <rect class="cls-4" x="-5.64" y="138.21" width="8.35" height="6.92"/>
          <rect class="cls-4" x="9.64" y="138.21" width="5.62" height="6.92"/>
          <rect class="cls-4" x="9.64" y="204.9" width="5.62" height="6.92"/>
          <rect class="cls-4" x="-5.64" y="204.9" width="8.35" height="6.92"/>
          <rect class="cls-4" x="2.71" y="145.13" width="6.92" height="6.41"/>
          <rect class="cls-4" x="2.71" y="51.77" width="6.92" height="6.41"/>
          <rect class="cls-4" x="2.71" y="171.81" width="6.92" height="6.41"/>
          <rect class="cls-4" x="2.71" y="65.11" width="6.92" height="6.41"/>
          <rect class="cls-4" x="2.71" y="158.47" width="6.92" height="6.41"/>
          <rect class="cls-4" x="2.71" y="78.44" width="6.92" height="6.41"/>
          <rect class="cls-4" x="2.71" y="105.12" width="6.92" height="6.41"/>
          <rect class="cls-4" x="2.71" y="131.8" width="6.92" height="6.41"/>
          <rect class="cls-4" x="2.71" y="118.46" width="6.92" height="6.41"/>
          <rect class="cls-4" x="2.71" y="91.78" width="6.92" height="6.41"/>
          <rect class="cls-4" x="2.71" y="38.43" width="6.92" height="6.41"/>
          <rect class="cls-4" x="2.71" y="198.48" width="6.92" height="6.41"/>
          <rect class="cls-4" x="2.71" y="11.76" width="6.92" height="6.41"/>
          <rect class="cls-4" x="2.71" y="225.16" width="6.92" height="6.41"/>
          <rect class="cls-4" x="2.71" y="211.82" width="6.92" height="6.41"/>
          <rect class="cls-4" x="2.71" y="185.15" width="6.92" height="6.41"/>
          <rect class="cls-4" x="2.71" y="25.09" width="6.92" height="6.41"/>
        </g>
        <g>
          <rect class="cls-2" x="2.71" y="4.83" width="6.92" height="6.92"/>
          <rect class="cls-2" x="2.71" y="31.51" width="6.92" height="6.92"/>
          <rect class="cls-2" x="2.71" y="58.18" width="6.92" height="6.92"/>
          <rect class="cls-2" x="2.71" y="44.85" width="6.92" height="6.92"/>
          <rect class="cls-2" x="2.71" y="71.52" width="6.92" height="6.92"/>
          <rect class="cls-2" x="2.71" y="98.2" width="6.92" height="6.92"/>
          <rect class="cls-2" x="2.71" y="84.86" width="6.92" height="6.92"/>
          <rect class="cls-2" x="2.71" y="124.87" width="6.92" height="6.92"/>
          <rect class="cls-2" x="2.71" y="151.55" width="6.92" height="6.92"/>
          <rect class="cls-2" x="2.71" y="111.53" width="6.92" height="6.92"/>
          <rect class="cls-2" x="2.71" y="164.89" width="6.92" height="6.92"/>
          <rect class="cls-2" x="2.71" y="218.24" width="6.92" height="6.92"/>
          <rect class="cls-2" x="2.71" y="231.57" width="6.92" height="6.92"/>
          <rect class="cls-2" x="2.71" y="178.22" width="6.92" height="6.92"/>
          <rect class="cls-2" x="2.71" y="18.17" width="6.92" height="6.92"/>
          <rect class="cls-2" x="2.71" y="191.56" width="6.92" height="6.92"/>
          <rect class="cls-2" x="2.71" y="138.21" width="6.92" height="6.92"/>
          <rect class="cls-2" x="2.71" y="204.9" width="6.92" height="6.92"/>
        </g>
      </g>
    </g>
  </g>
</svg>