<svg width="334" height="334" viewBox="0 0 334 334" fill="none" xmlns="http://www.w3.org/2000/svg">
<g clip-path="url(#clip0_1356_2414)">
<rect width="334" height="334" fill="#FFFAF4"/>
<path d="M205.384 0H193.46V9.88157H205.384V0Z" fill="#F8F4E8"/>
<path d="M249.023 0H237.099V9.88157H249.023V0Z" fill="#F8F4E8"/>
<path d="M227.203 0H215.28V9.88157H227.203V0Z" fill="#F8F4E8"/>
<path d="M183.564 0H171.641V9.88157H183.564V0Z" fill="#F8F4E8"/>
<path d="M161.745 0H149.821V9.88157H161.745V0Z" fill="#F8F4E8"/>
<path d="M336.286 0H324.362V9.88157H336.286V0Z" fill="#F8F4E8"/>
<path d="M139.925 0H128.002V9.88157H139.925V0Z" fill="#F8F4E8"/>
<path d="M270.828 0H258.904V9.88157H270.828V0Z" fill="#F8F4E8"/>
<path d="M292.647 0H280.723V9.88157H292.647V0Z" fill="#F8F4E8"/>
<path d="M314.466 0H302.543V9.88157H314.466V0Z" fill="#F8F4E8"/>
<path d="M74.4817 0H62.5581V9.88157H74.4817V0Z" fill="#F8F4E8"/>
<path d="M30.8428 0H18.9192V9.88157H30.8428V0Z" fill="#F8F4E8"/>
<path d="M96.301 0H84.3774V9.88157H96.301V0Z" fill="#F8F4E8"/>
<path d="M118.12 0H106.197V9.88157H118.12V0Z" fill="#F8F4E8"/>
<path d="M52.6621 0H40.7385V9.88157H52.6621V0Z" fill="#F8F4E8"/>
<path d="M9.03758 0H-2.88599V9.88157H9.03758V0Z" fill="#F8F4E8"/>
<path d="M30.8428 38.084H18.9192V47.9655H30.8428V38.084Z" fill="#F8F4E8"/>
<path d="M205.384 38.084H193.46V47.9655H205.384V38.084Z" fill="#F8F4E8"/>
<path d="M118.12 38.084H106.197V47.9655H118.12V38.084Z" fill="#F8F4E8"/>
<path d="M183.564 38.084H171.641V47.9655H183.564V38.084Z" fill="#F8F4E8"/>
<path d="M139.925 38.084H128.002V47.9655H139.925V38.084Z" fill="#F8F4E8"/>
<path d="M96.301 38.084H84.3774V47.9655H96.301V38.084Z" fill="#F8F4E8"/>
<path d="M74.4817 38.084H62.5581V47.9655H74.4817V38.084Z" fill="#F8F4E8"/>
<path d="M9.03758 38.084H-2.88599V47.9655H9.03758V38.084Z" fill="#F8F4E8"/>
<path d="M52.6621 38.084H40.7385V47.9655H52.6621V38.084Z" fill="#F8F4E8"/>
<path d="M336.286 38.084H324.362V47.9655H336.286V38.084Z" fill="#F8F4E8"/>
<path d="M227.203 38.084H215.28V47.9655H227.203V38.084Z" fill="#F8F4E8"/>
<path d="M249.023 38.084H237.099V47.9655H249.023V38.084Z" fill="#F8F4E8"/>
<path d="M270.828 38.084H258.904V47.9655H270.828V38.084Z" fill="#F8F4E8"/>
<path d="M314.466 38.084H302.543V47.9655H314.466V38.084Z" fill="#F8F4E8"/>
<path d="M292.647 38.084H280.723V47.9655H292.647V38.084Z" fill="#F8F4E8"/>
<path d="M161.745 38.084H149.821V47.9655H161.745V38.084Z" fill="#F8F4E8"/>
<path d="M205.384 76.1826H193.46V86.0642H205.384V76.1826Z" fill="#F8F4E8"/>
<path d="M227.203 76.1826H215.28V86.0642H227.203V76.1826Z" fill="#F8F4E8"/>
<path d="M118.12 76.1826H106.197V86.0642H118.12V76.1826Z" fill="#F8F4E8"/>
<path d="M139.925 76.1826H128.002V86.0642H139.925V76.1826Z" fill="#F8F4E8"/>
<path d="M183.564 76.1826H171.641V86.0642H183.564V76.1826Z" fill="#F8F4E8"/>
<path d="M161.745 76.1826H149.821V86.0642H161.745V76.1826Z" fill="#F8F4E8"/>
<path d="M270.828 76.1826H258.904V86.0642H270.828V76.1826Z" fill="#F8F4E8"/>
<path d="M336.286 76.1826H324.362V86.0642H336.286V76.1826Z" fill="#F8F4E8"/>
<path d="M292.647 76.1826H280.723V86.0642H292.647V76.1826Z" fill="#F8F4E8"/>
<path d="M314.466 76.1826H302.543V86.0642H314.466V76.1826Z" fill="#F8F4E8"/>
<path d="M249.023 76.1826H237.099V86.0642H249.023V76.1826Z" fill="#F8F4E8"/>
<path d="M9.03758 76.1826H-2.88599V86.0642H9.03758V76.1826Z" fill="#F8F4E8"/>
<path d="M74.4817 76.1826H62.5581V86.0642H74.4817V76.1826Z" fill="#F8F4E8"/>
<path d="M30.8428 76.1826H18.9192V86.0642H30.8428V76.1826Z" fill="#F8F4E8"/>
<path d="M52.6621 76.1826H40.7385V86.0642H52.6621V76.1826Z" fill="#F8F4E8"/>
<path d="M96.301 76.1826H84.3774V86.0642H96.301V76.1826Z" fill="#F8F4E8"/>
<path d="M205.384 57.1328H193.46V67.0144H205.384V57.1328Z" fill="#F8F4E8"/>
<path d="M249.023 57.1328H237.099V67.0144H249.023V57.1328Z" fill="#F8F4E8"/>
<path d="M227.203 57.1328H215.28V67.0144H227.203V57.1328Z" fill="#F8F4E8"/>
<path d="M183.564 57.1328H171.641V67.0144H183.564V57.1328Z" fill="#F8F4E8"/>
<path d="M270.828 57.1328H258.904V67.0144H270.828V57.1328Z" fill="#F8F4E8"/>
<path d="M161.745 57.1328H149.821V67.0144H161.745V57.1328Z" fill="#F8F4E8"/>
<path d="M336.286 57.1328H324.362V67.0144H336.286V57.1328Z" fill="#F8F4E8"/>
<path d="M292.647 57.1328H280.723V67.0144H292.647V57.1328Z" fill="#F8F4E8"/>
<path d="M314.466 57.1328H302.543V67.0144H314.466V57.1328Z" fill="#F8F4E8"/>
<path d="M30.8428 57.1328H18.9192V67.0144H30.8428V57.1328Z" fill="#F8F4E8"/>
<path d="M9.03758 57.1328H-2.88599V67.0144H9.03758V57.1328Z" fill="#F8F4E8"/>
<path d="M74.4817 57.1328H62.5581V67.0144H74.4817V57.1328Z" fill="#F8F4E8"/>
<path d="M52.6621 57.1328H40.7385V67.0144H52.6621V57.1328Z" fill="#F8F4E8"/>
<path d="M139.925 57.1328H128.002V67.0144H139.925V57.1328Z" fill="#F8F4E8"/>
<path d="M96.301 57.1328H84.3774V67.0144H96.301V57.1328Z" fill="#F8F4E8"/>
<path d="M118.12 57.1328H106.197V67.0144H118.12V57.1328Z" fill="#F8F4E8"/>
<path d="M270.828 95.2173H258.904V105.099H270.828V95.2173Z" fill="#F8F4E8"/>
<path d="M249.023 95.2173H237.099V105.099H249.023V95.2173Z" fill="#F8F4E8"/>
<path d="M205.384 95.2173H193.46V105.099H205.384V95.2173Z" fill="#F8F4E8"/>
<path d="M336.286 95.2173H324.362V105.099H336.286V95.2173Z" fill="#F8F4E8"/>
<path d="M74.4817 95.2173H62.5581V105.099H74.4817V95.2173Z" fill="#F8F4E8"/>
<path d="M118.12 95.2173H106.197V105.099H118.12V95.2173Z" fill="#F8F4E8"/>
<path d="M139.925 95.2173H128.002V105.099H139.925V95.2173Z" fill="#F8F4E8"/>
<path d="M161.745 95.2173H149.821V105.099H161.745V95.2173Z" fill="#F8F4E8"/>
<path d="M96.301 95.2173H84.3774V105.099H96.301V95.2173Z" fill="#F8F4E8"/>
<path d="M314.466 95.2173H302.543V105.099H314.466V95.2173Z" fill="#F8F4E8"/>
<path d="M292.647 95.2173H280.723V105.099H292.647V95.2173Z" fill="#F8F4E8"/>
<path d="M227.203 95.2173H215.28V105.099H227.203V95.2173Z" fill="#F8F4E8"/>
<path d="M183.564 95.2173H171.641V105.099H183.564V95.2173Z" fill="#F8F4E8"/>
<path d="M30.8428 95.2173H18.9192V105.099H30.8428V95.2173Z" fill="#F8F4E8"/>
<path d="M9.03758 95.2173H-2.88599V105.099H9.03758V95.2173Z" fill="#F8F4E8"/>
<path d="M52.6621 95.2173H40.7385V105.099H52.6621V95.2173Z" fill="#F8F4E8"/>
<path d="M9.03758 133.315H-2.88599V143.197H9.03758V133.315Z" fill="#F8F4E8"/>
<path d="M183.564 133.315H171.641V143.197H183.564V133.315Z" fill="#F8F4E8"/>
<path d="M139.925 133.315H128.002V143.197H139.925V133.315Z" fill="#F8F4E8"/>
<path d="M227.203 133.315H215.28V143.197H227.203V133.315Z" fill="#F8F4E8"/>
<path d="M205.384 133.315H193.46V143.197H205.384V133.315Z" fill="#F8F4E8"/>
<path d="M30.8428 133.315H18.9192V143.197H30.8428V133.315Z" fill="#F8F4E8"/>
<path d="M161.745 133.315H149.821V143.197H161.745V133.315Z" fill="#F8F4E8"/>
<path d="M74.4817 133.315H62.5581V143.197H74.4817V133.315Z" fill="#F8F4E8"/>
<path d="M336.286 133.315H324.362V143.197H336.286V133.315Z" fill="#F8F4E8"/>
<path d="M292.647 133.315H280.723V143.197H292.647V133.315Z" fill="#F8F4E8"/>
<path d="M52.6621 133.315H40.7385V143.197H52.6621V133.315Z" fill="#F8F4E8"/>
<path d="M118.12 133.315H106.197V143.197H118.12V133.315Z" fill="#F8F4E8"/>
<path d="M96.301 133.315H84.3774V143.197H96.301V133.315Z" fill="#F8F4E8"/>
<path d="M270.828 133.315H258.904V143.197H270.828V133.315Z" fill="#F8F4E8"/>
<path d="M249.023 133.315H237.099V143.197H249.023V133.315Z" fill="#F8F4E8"/>
<path d="M314.466 133.315H302.543V143.197H314.466V133.315Z" fill="#F8F4E8"/>
<path d="M292.647 114.267H280.723V124.148H292.647V114.267Z" fill="#F8F4E8"/>
<path d="M249.023 114.267H237.099V124.148H249.023V114.267Z" fill="#F8F4E8"/>
<path d="M52.6621 114.267H40.7385V124.148H52.6621V114.267Z" fill="#F8F4E8"/>
<path d="M314.466 114.267H302.543V124.148H314.466V114.267Z" fill="#F8F4E8"/>
<path d="M96.301 114.267H84.3774V124.148H96.301V114.267Z" fill="#F8F4E8"/>
<path d="M118.12 114.267H106.197V124.148H118.12V114.267Z" fill="#F8F4E8"/>
<path d="M227.203 114.267H215.28V124.148H227.203V114.267Z" fill="#F8F4E8"/>
<path d="M74.4817 114.267H62.5581V124.148H74.4817V114.267Z" fill="#F8F4E8"/>
<path d="M30.8428 114.267H18.9192V124.148H30.8428V114.267Z" fill="#F8F4E8"/>
<path d="M139.925 114.267H128.002V124.148H139.925V114.267Z" fill="#F8F4E8"/>
<path d="M9.03758 114.267H-2.88599V124.148H9.03758V114.267Z" fill="#F8F4E8"/>
<path d="M183.564 114.267H171.641V124.148H183.564V114.267Z" fill="#F8F4E8"/>
<path d="M205.384 114.267H193.46V124.148H205.384V114.267Z" fill="#F8F4E8"/>
<path d="M161.745 114.267H149.821V124.148H161.745V114.267Z" fill="#F8F4E8"/>
<path d="M270.828 114.267H258.904V124.148H270.828V114.267Z" fill="#F8F4E8"/>
<path d="M336.286 114.267H324.362V124.148H336.286V114.267Z" fill="#F8F4E8"/>
<path d="M74.4817 171.414H62.5581V181.296H74.4817V171.414Z" fill="#F8F4E8"/>
<path d="M314.466 171.414H302.543V181.296H314.466V171.414Z" fill="#F8F4E8"/>
<path d="M292.647 171.414H280.723V181.296H292.647V171.414Z" fill="#F8F4E8"/>
<path d="M336.286 171.414H324.362V181.296H336.286V171.414Z" fill="#F8F4E8"/>
<path d="M270.828 171.414H258.904V181.296H270.828V171.414Z" fill="#F8F4E8"/>
<path d="M30.8428 171.414H18.9192V181.296H30.8428V171.414Z" fill="#F8F4E8"/>
<path d="M227.203 171.414H215.28V181.296H227.203V171.414Z" fill="#F8F4E8"/>
<path d="M52.6621 171.414H40.7385V181.296H52.6621V171.414Z" fill="#F8F4E8"/>
<path d="M205.384 171.414H193.46V181.296H205.384V171.414Z" fill="#F8F4E8"/>
<path d="M249.023 171.414H237.099V181.296H249.023V171.414Z" fill="#F8F4E8"/>
<path d="M183.564 171.414H171.641V181.296H183.564V171.414Z" fill="#F8F4E8"/>
<path d="M96.301 171.414H84.3774V181.296H96.301V171.414Z" fill="#F8F4E8"/>
<path d="M118.12 171.414H106.197V181.296H118.12V171.414Z" fill="#F8F4E8"/>
<path d="M139.925 171.414H128.002V181.296H139.925V171.414Z" fill="#F8F4E8"/>
<path d="M161.745 171.414H149.821V181.296H161.745V171.414Z" fill="#F8F4E8"/>
<path d="M9.03758 171.414H-2.88599V181.296H9.03758V171.414Z" fill="#F8F4E8"/>
<path d="M336.286 209.498H324.362V219.379H336.286V209.498Z" fill="#F8F4E8"/>
<path d="M270.828 209.498H258.904V219.379H270.828V209.498Z" fill="#F8F4E8"/>
<path d="M249.023 209.498H237.099V219.379H249.023V209.498Z" fill="#F8F4E8"/>
<path d="M227.203 209.498H215.28V219.379H227.203V209.498Z" fill="#F8F4E8"/>
<path d="M183.564 209.498H171.641V219.379H183.564V209.498Z" fill="#F8F4E8"/>
<path d="M205.384 209.498H193.46V219.379H205.384V209.498Z" fill="#F8F4E8"/>
<path d="M161.745 209.498H149.821V219.379H161.745V209.498Z" fill="#F8F4E8"/>
<path d="M9.03758 209.498H-2.88599V219.379H9.03758V209.498Z" fill="#F8F4E8"/>
<path d="M292.647 209.498H280.723V219.379H292.647V209.498Z" fill="#F8F4E8"/>
<path d="M314.466 209.498H302.543V219.379H314.466V209.498Z" fill="#F8F4E8"/>
<path d="M52.6621 209.498H40.7385V219.379H52.6621V209.498Z" fill="#F8F4E8"/>
<path d="M74.4817 209.498H62.5581V219.379H74.4817V209.498Z" fill="#F8F4E8"/>
<path d="M139.925 209.498H128.002V219.379H139.925V209.498Z" fill="#F8F4E8"/>
<path d="M30.8428 209.498H18.9192V219.379H30.8428V209.498Z" fill="#F8F4E8"/>
<path d="M96.301 209.498H84.3774V219.379H96.301V209.498Z" fill="#F8F4E8"/>
<path d="M118.12 209.498H106.197V219.379H118.12V209.498Z" fill="#F8F4E8"/>
<path d="M249.023 152.365H237.099V162.246H249.023V152.365Z" fill="#F8F4E8"/>
<path d="M227.203 152.365H215.28V162.246H227.203V152.365Z" fill="#F8F4E8"/>
<path d="M270.828 152.365H258.904V162.246H270.828V152.365Z" fill="#F8F4E8"/>
<path d="M314.466 152.365H302.543V162.246H314.466V152.365Z" fill="#F8F4E8"/>
<path d="M139.925 152.365H128.002V162.246H139.925V152.365Z" fill="#F8F4E8"/>
<path d="M161.745 152.365H149.821V162.246H161.745V152.365Z" fill="#F8F4E8"/>
<path d="M74.4817 152.365H62.5581V162.246H74.4817V152.365Z" fill="#F8F4E8"/>
<path d="M96.301 152.365H84.3774V162.246H96.301V152.365Z" fill="#F8F4E8"/>
<path d="M118.12 152.365H106.197V162.246H118.12V152.365Z" fill="#F8F4E8"/>
<path d="M205.384 152.365H193.46V162.246H205.384V152.365Z" fill="#F8F4E8"/>
<path d="M336.286 152.365H324.362V162.246H336.286V152.365Z" fill="#F8F4E8"/>
<path d="M183.564 152.365H171.641V162.246H183.564V152.365Z" fill="#F8F4E8"/>
<path d="M292.647 152.365H280.723V162.246H292.647V152.365Z" fill="#F8F4E8"/>
<path d="M52.6621 152.365H40.7385V162.246H52.6621V152.365Z" fill="#F8F4E8"/>
<path d="M9.03758 152.365H-2.88599V162.246H9.03758V152.365Z" fill="#F8F4E8"/>
<path d="M30.8428 152.365H18.9192V162.246H30.8428V152.365Z" fill="#F8F4E8"/>
<path d="M9.03758 228.547H-2.88599V238.428H9.03758V228.547Z" fill="#F8F4E8"/>
<path d="M139.925 228.547H128.002V238.428H139.925V228.547Z" fill="#F8F4E8"/>
<path d="M74.4817 228.547H62.5581V238.428H74.4817V228.547Z" fill="#F8F4E8"/>
<path d="M52.6621 228.547H40.7385V238.428H52.6621V228.547Z" fill="#F8F4E8"/>
<path d="M96.301 228.547H84.3774V238.428H96.301V228.547Z" fill="#F8F4E8"/>
<path d="M30.8428 228.547H18.9192V238.428H30.8428V228.547Z" fill="#F8F4E8"/>
<path d="M118.12 228.547H106.197V238.428H118.12V228.547Z" fill="#F8F4E8"/>
<path d="M270.828 228.547H258.904V238.428H270.828V228.547Z" fill="#F8F4E8"/>
<path d="M205.384 228.547H193.46V238.428H205.384V228.547Z" fill="#F8F4E8"/>
<path d="M227.203 228.547H215.28V238.428H227.203V228.547Z" fill="#F8F4E8"/>
<path d="M314.466 228.547H302.543V238.428H314.466V228.547Z" fill="#F8F4E8"/>
<path d="M292.647 228.547H280.723V238.428H292.647V228.547Z" fill="#F8F4E8"/>
<path d="M249.023 228.547H237.099V238.428H249.023V228.547Z" fill="#F8F4E8"/>
<path d="M183.564 228.547H171.641V238.428H183.564V228.547Z" fill="#F8F4E8"/>
<path d="M161.745 228.547H149.821V238.428H161.745V228.547Z" fill="#F8F4E8"/>
<path d="M336.286 228.547H324.362V238.428H336.286V228.547Z" fill="#F8F4E8"/>
<path d="M74.4817 304.729H62.5581V314.611H74.4817V304.729Z" fill="#F8F4E8"/>
<path d="M30.8428 304.729H18.9192V314.611H30.8428V304.729Z" fill="#F8F4E8"/>
<path d="M52.6621 304.729H40.7385V314.611H52.6621V304.729Z" fill="#F8F4E8"/>
<path d="M9.03758 304.729H-2.88599V314.611H9.03758V304.729Z" fill="#F8F4E8"/>
<path d="M336.286 304.729H324.362V314.611H336.286V304.729Z" fill="#F8F4E8"/>
<path d="M183.564 304.729H171.641V314.611H183.564V304.729Z" fill="#F8F4E8"/>
<path d="M205.384 304.729H193.46V314.611H205.384V304.729Z" fill="#F8F4E8"/>
<path d="M161.745 304.729H149.821V314.611H161.745V304.729Z" fill="#F8F4E8"/>
<path d="M292.647 304.729H280.723V314.611H292.647V304.729Z" fill="#F8F4E8"/>
<path d="M227.203 304.729H215.28V314.611H227.203V304.729Z" fill="#F8F4E8"/>
<path d="M249.023 304.729H237.099V314.611H249.023V304.729Z" fill="#F8F4E8"/>
<path d="M270.828 304.729H258.904V314.611H270.828V304.729Z" fill="#F8F4E8"/>
<path d="M118.12 304.729H106.197V314.611H118.12V304.729Z" fill="#F8F4E8"/>
<path d="M139.925 304.729H128.002V314.611H139.925V304.729Z" fill="#F8F4E8"/>
<path d="M96.301 304.729H84.3774V314.611H96.301V304.729Z" fill="#F8F4E8"/>
<path d="M314.466 304.729H302.543V314.611H314.466V304.729Z" fill="#F8F4E8"/>
<path d="M139.925 323.779H128.002V333.66H139.925V323.779Z" fill="#F8F4E8"/>
<path d="M249.023 323.779H237.099V333.66H249.023V323.779Z" fill="#F8F4E8"/>
<path d="M270.828 323.779H258.904V333.66H270.828V323.779Z" fill="#F8F4E8"/>
<path d="M227.203 323.779H215.28V333.66H227.203V323.779Z" fill="#F8F4E8"/>
<path d="M336.286 323.779H324.362V333.66H336.286V323.779Z" fill="#F8F4E8"/>
<path d="M314.466 323.779H302.543V333.66H314.466V323.779Z" fill="#F8F4E8"/>
<path d="M183.564 323.779H171.641V333.66H183.564V323.779Z" fill="#F8F4E8"/>
<path d="M205.384 323.779H193.46V333.66H205.384V323.779Z" fill="#F8F4E8"/>
<path d="M292.647 323.779H280.723V333.66H292.647V323.779Z" fill="#F8F4E8"/>
<path d="M161.745 323.779H149.821V333.66H161.745V323.779Z" fill="#F8F4E8"/>
<path d="M118.12 323.779H106.197V333.66H118.12V323.779Z" fill="#F8F4E8"/>
<path d="M30.8428 323.779H18.9192V333.66H30.8428V323.779Z" fill="#F8F4E8"/>
<path d="M9.03758 323.779H-2.88599V333.66H9.03758V323.779Z" fill="#F8F4E8"/>
<path d="M52.6621 323.779H40.7385V333.66H52.6621V323.779Z" fill="#F8F4E8"/>
<path d="M96.301 323.779H84.3774V333.66H96.301V323.779Z" fill="#F8F4E8"/>
<path d="M74.4817 323.779H62.5581V333.66H74.4817V323.779Z" fill="#F8F4E8"/>
<path d="M9.03758 247.596H-2.88599V257.478H9.03758V247.596Z" fill="#F8F4E8"/>
<path d="M139.925 247.596H128.002V257.478H139.925V247.596Z" fill="#F8F4E8"/>
<path d="M118.12 247.596H106.197V257.478H118.12V247.596Z" fill="#F8F4E8"/>
<path d="M96.301 247.596H84.3774V257.478H96.301V247.596Z" fill="#F8F4E8"/>
<path d="M52.6621 247.596H40.7385V257.478H52.6621V247.596Z" fill="#F8F4E8"/>
<path d="M30.8428 247.596H18.9192V257.478H30.8428V247.596Z" fill="#F8F4E8"/>
<path d="M74.4817 247.596H62.5581V257.478H74.4817V247.596Z" fill="#F8F4E8"/>
<path d="M183.564 247.596H171.641V257.478H183.564V247.596Z" fill="#F8F4E8"/>
<path d="M161.745 247.596H149.821V257.478H161.745V247.596Z" fill="#F8F4E8"/>
<path d="M314.466 247.596H302.543V257.478H314.466V247.596Z" fill="#F8F4E8"/>
<path d="M336.286 247.596H324.362V257.478H336.286V247.596Z" fill="#F8F4E8"/>
<path d="M292.647 247.596H280.723V257.478H292.647V247.596Z" fill="#F8F4E8"/>
<path d="M205.384 247.596H193.46V257.478H205.384V247.596Z" fill="#F8F4E8"/>
<path d="M270.828 247.596H258.904V257.478H270.828V247.596Z" fill="#F8F4E8"/>
<path d="M227.203 247.596H215.28V257.478H227.203V247.596Z" fill="#F8F4E8"/>
<path d="M249.023 247.596H237.099V257.478H249.023V247.596Z" fill="#F8F4E8"/>
<path d="M52.6621 19.0352H40.7385V28.9167H52.6621V19.0352Z" fill="#F8F4E8"/>
<path d="M139.925 19.0352H128.002V28.9167H139.925V19.0352Z" fill="#F8F4E8"/>
<path d="M183.564 19.0352H171.641V28.9167H183.564V19.0352Z" fill="#F8F4E8"/>
<path d="M249.023 19.0352H237.099V28.9167H249.023V19.0352Z" fill="#F8F4E8"/>
<path d="M161.745 19.0352H149.821V28.9167H161.745V19.0352Z" fill="#F8F4E8"/>
<path d="M30.8428 19.0352H18.9192V28.9167H30.8428V19.0352Z" fill="#F8F4E8"/>
<path d="M336.286 19.0352H324.362V28.9167H336.286V19.0352Z" fill="#F8F4E8"/>
<path d="M118.12 19.0352H106.197V28.9167H118.12V19.0352Z" fill="#F8F4E8"/>
<path d="M292.647 19.0352H280.723V28.9167H292.647V19.0352Z" fill="#F8F4E8"/>
<path d="M74.4817 19.0352H62.5581V28.9167H74.4817V19.0352Z" fill="#F8F4E8"/>
<path d="M96.301 19.0352H84.3774V28.9167H96.301V19.0352Z" fill="#F8F4E8"/>
<path d="M270.828 19.0352H258.904V28.9167H270.828V19.0352Z" fill="#F8F4E8"/>
<path d="M227.203 19.0352H215.28V28.9167H227.203V19.0352Z" fill="#F8F4E8"/>
<path d="M9.03758 19.0352H-2.88599V28.9167H9.03758V19.0352Z" fill="#F8F4E8"/>
<path d="M314.466 19.0352H302.543V28.9167H314.466V19.0352Z" fill="#F8F4E8"/>
<path d="M205.384 19.0352H193.46V28.9167H205.384V19.0352Z" fill="#F8F4E8"/>
<path d="M139.925 266.645H128.002V276.527H139.925V266.645Z" fill="#F8F4E8"/>
<path d="M183.564 266.645H171.641V276.527H183.564V266.645Z" fill="#F8F4E8"/>
<path d="M161.745 266.645H149.821V276.527H161.745V266.645Z" fill="#F8F4E8"/>
<path d="M118.12 266.645H106.197V276.527H118.12V266.645Z" fill="#F8F4E8"/>
<path d="M9.03758 266.645H-2.88599V276.527H9.03758V266.645Z" fill="#F8F4E8"/>
<path d="M336.286 266.645H324.362V276.527H336.286V266.645Z" fill="#F8F4E8"/>
<path d="M227.203 266.645H215.28V276.527H227.203V266.645Z" fill="#F8F4E8"/>
<path d="M30.8428 266.645H18.9192V276.527H30.8428V266.645Z" fill="#F8F4E8"/>
<path d="M52.6621 266.645H40.7385V276.527H52.6621V266.645Z" fill="#F8F4E8"/>
<path d="M205.384 266.645H193.46V276.527H205.384V266.645Z" fill="#F8F4E8"/>
<path d="M314.466 266.645H302.543V276.527H314.466V266.645Z" fill="#F8F4E8"/>
<path d="M249.023 266.645H237.099V276.527H249.023V266.645Z" fill="#F8F4E8"/>
<path d="M96.301 266.645H84.3774V276.527H96.301V266.645Z" fill="#F8F4E8"/>
<path d="M292.647 266.645H280.723V276.527H292.647V266.645Z" fill="#F8F4E8"/>
<path d="M270.828 266.645H258.904V276.527H270.828V266.645Z" fill="#F8F4E8"/>
<path d="M74.4817 266.645H62.5581V276.527H74.4817V266.645Z" fill="#F8F4E8"/>
<path d="M249.023 190.449H237.099V200.33H249.023V190.449Z" fill="#F8F4E8"/>
<path d="M336.286 190.449H324.362V200.33H336.286V190.449Z" fill="#F8F4E8"/>
<path d="M314.466 190.449H302.543V200.33H314.466V190.449Z" fill="#F8F4E8"/>
<path d="M270.828 190.449H258.904V200.33H270.828V190.449Z" fill="#F8F4E8"/>
<path d="M139.925 190.449H128.002V200.33H139.925V190.449Z" fill="#F8F4E8"/>
<path d="M52.6621 190.449H40.7385V200.33H52.6621V190.449Z" fill="#F8F4E8"/>
<path d="M96.301 190.449H84.3774V200.33H96.301V190.449Z" fill="#F8F4E8"/>
<path d="M161.745 190.449H149.821V200.33H161.745V190.449Z" fill="#F8F4E8"/>
<path d="M292.647 190.449H280.723V200.33H292.647V190.449Z" fill="#F8F4E8"/>
<path d="M9.03758 190.449H-2.88599V200.33H9.03758V190.449Z" fill="#F8F4E8"/>
<path d="M183.564 190.449H171.641V200.33H183.564V190.449Z" fill="#F8F4E8"/>
<path d="M205.384 190.449H193.46V200.33H205.384V190.449Z" fill="#F8F4E8"/>
<path d="M227.203 190.449H215.28V200.33H227.203V190.449Z" fill="#F8F4E8"/>
<path d="M30.8428 190.449H18.9192V200.33H30.8428V190.449Z" fill="#F8F4E8"/>
<path d="M118.12 190.449H106.197V200.33H118.12V190.449Z" fill="#F8F4E8"/>
<path d="M74.4817 190.449H62.5581V200.33H74.4817V190.449Z" fill="#F8F4E8"/>
<path d="M292.647 285.68H280.723V295.562H292.647V285.68Z" fill="#F8F4E8"/>
<path d="M9.03758 285.68H-2.88599V295.562H9.03758V285.68Z" fill="#F8F4E8"/>
<path d="M205.384 285.68H193.46V295.562H205.384V285.68Z" fill="#F8F4E8"/>
<path d="M314.466 285.68H302.543V295.562H314.466V285.68Z" fill="#F8F4E8"/>
<path d="M270.828 285.68H258.904V295.562H270.828V285.68Z" fill="#F8F4E8"/>
<path d="M249.023 285.68H237.099V295.562H249.023V285.68Z" fill="#F8F4E8"/>
<path d="M183.564 285.68H171.641V295.562H183.564V285.68Z" fill="#F8F4E8"/>
<path d="M227.203 285.68H215.28V295.562H227.203V285.68Z" fill="#F8F4E8"/>
<path d="M139.925 285.68H128.002V295.562H139.925V285.68Z" fill="#F8F4E8"/>
<path d="M336.286 285.68H324.362V295.562H336.286V285.68Z" fill="#F8F4E8"/>
<path d="M161.745 285.68H149.821V295.562H161.745V285.68Z" fill="#F8F4E8"/>
<path d="M74.4817 285.68H62.5581V295.562H74.4817V285.68Z" fill="#F8F4E8"/>
<path d="M96.301 285.68H84.3774V295.562H96.301V285.68Z" fill="#F8F4E8"/>
<path d="M52.6621 285.68H40.7385V295.562H52.6621V285.68Z" fill="#F8F4E8"/>
<path d="M118.12 285.68H106.197V295.562H118.12V285.68Z" fill="#F8F4E8"/>
<path d="M30.8428 285.68H18.9192V295.562H30.8428V285.68Z" fill="#F8F4E8"/>
<path d="M106.182 28.9302H96.3008V38.0835H106.182V28.9302Z" fill="#F8F4E8"/>
<path d="M106.182 238.429H96.3008V247.582H106.182V238.429Z" fill="#F8F4E8"/>
<path d="M106.182 124.163H96.3008V133.316H106.182V124.163Z" fill="#F8F4E8"/>
<path d="M106.182 314.61H96.3008V323.764H106.182V314.61Z" fill="#F8F4E8"/>
<path d="M106.182 162.247H96.3008V171.4H106.182V162.247Z" fill="#F8F4E8"/>
<path d="M106.182 200.344H96.3008V209.498H106.182V200.344Z" fill="#F8F4E8"/>
<path d="M106.182 86.064H96.3008V95.2173H106.182V86.064Z" fill="#F8F4E8"/>
<path d="M106.182 47.9653H96.3008V57.1186H106.182V47.9653Z" fill="#F8F4E8"/>
<path d="M106.182 105.113H96.3008V114.266H106.182V105.113Z" fill="#F8F4E8"/>
<path d="M106.182 143.197H96.3008V152.35H106.182V143.197Z" fill="#F8F4E8"/>
<path d="M106.182 276.527H96.3008V285.68H106.182V276.527Z" fill="#F8F4E8"/>
<path d="M106.182 181.295H96.3008V190.449H106.182V181.295Z" fill="#F8F4E8"/>
<path d="M106.182 219.394H96.3008V228.547H106.182V219.394Z" fill="#F8F4E8"/>
<path d="M106.182 9.88135H96.3008V19.0346H106.182V9.88135Z" fill="#F8F4E8"/>
<path d="M106.182 67.0151H96.3008V76.1684H106.182V67.0151Z" fill="#F8F4E8"/>
<path d="M106.182 257.478H96.3008V266.631H106.182V257.478Z" fill="#F8F4E8"/>
<path d="M106.182 295.576H96.3008V304.729H106.182V295.576Z" fill="#F8F4E8"/>
<path d="M193.46 162.247H183.579V171.4H193.46V162.247Z" fill="#F8F4E8"/>
<path d="M193.46 238.429H183.579V247.582H193.46V238.429Z" fill="#F8F4E8"/>
<path d="M193.46 200.344H183.579V209.498H193.46V200.344Z" fill="#F8F4E8"/>
<path d="M193.46 28.9302H183.579V38.0835H193.46V28.9302Z" fill="#F8F4E8"/>
<path d="M193.46 314.61H183.579V323.764H193.46V314.61Z" fill="#F8F4E8"/>
<path d="M193.46 9.88135H183.579V19.0346H193.46V9.88135Z" fill="#F8F4E8"/>
<path d="M193.46 67.0151H183.579V76.1684H193.46V67.0151Z" fill="#F8F4E8"/>
<path d="M193.46 47.9653H183.579V57.1186H193.46V47.9653Z" fill="#F8F4E8"/>
<path d="M193.46 124.163H183.579V133.316H193.46V124.163Z" fill="#F8F4E8"/>
<path d="M193.46 257.478H183.579V266.631H193.46V257.478Z" fill="#F8F4E8"/>
<path d="M193.46 219.394H183.579V228.547H193.46V219.394Z" fill="#F8F4E8"/>
<path d="M193.46 276.527H183.579V285.68H193.46V276.527Z" fill="#F8F4E8"/>
<path d="M193.46 86.064H183.579V95.2173H193.46V86.064Z" fill="#F8F4E8"/>
<path d="M193.46 181.295H183.579V190.449H193.46V181.295Z" fill="#F8F4E8"/>
<path d="M193.46 105.113H183.579V114.266H193.46V105.113Z" fill="#F8F4E8"/>
<path d="M193.46 295.576H183.579V304.729H193.46V295.576Z" fill="#F8F4E8"/>
<path d="M193.46 143.197H183.579V152.35H193.46V143.197Z" fill="#F8F4E8"/>
<path d="M149.821 219.394H139.94V228.547H149.821V219.394Z" fill="#F8F4E8"/>
<path d="M149.821 314.61H139.94V323.764H149.821V314.61Z" fill="#F8F4E8"/>
<path d="M149.821 9.88135H139.94V19.0346H149.821V9.88135Z" fill="#F8F4E8"/>
<path d="M149.821 200.344H139.94V209.498H149.821V200.344Z" fill="#F8F4E8"/>
<path d="M149.821 143.197H139.94V152.35H149.821V143.197Z" fill="#F8F4E8"/>
<path d="M149.821 295.576H139.94V304.729H149.821V295.576Z" fill="#F8F4E8"/>
<path d="M149.821 238.429H139.94V247.582H149.821V238.429Z" fill="#F8F4E8"/>
<path d="M149.821 276.527H139.94V285.68H149.821V276.527Z" fill="#F8F4E8"/>
<path d="M149.821 28.9302H139.94V38.0835H149.821V28.9302Z" fill="#F8F4E8"/>
<path d="M149.821 162.247H139.94V171.4H149.821V162.247Z" fill="#F8F4E8"/>
<path d="M149.821 124.163H139.94V133.316H149.821V124.163Z" fill="#F8F4E8"/>
<path d="M149.821 257.478H139.94V266.631H149.821V257.478Z" fill="#F8F4E8"/>
<path d="M149.821 47.9653H139.94V57.1186H149.821V47.9653Z" fill="#F8F4E8"/>
<path d="M149.821 181.295H139.94V190.449H149.821V181.295Z" fill="#F8F4E8"/>
<path d="M149.821 86.064H139.94V95.2173H149.821V86.064Z" fill="#F8F4E8"/>
<path d="M149.821 67.0151H139.94V76.1684H149.821V67.0151Z" fill="#F8F4E8"/>
<path d="M149.821 105.113H139.94V114.266H149.821V105.113Z" fill="#F8F4E8"/>
<path d="M84.363 257.478H74.4814V266.631H84.363V257.478Z" fill="#F8F4E8"/>
<path d="M84.363 28.9302H74.4814V38.0835H84.363V28.9302Z" fill="#F8F4E8"/>
<path d="M84.363 162.247H74.4814V171.4H84.363V162.247Z" fill="#F8F4E8"/>
<path d="M84.363 47.9653H74.4814V57.1186H84.363V47.9653Z" fill="#F8F4E8"/>
<path d="M84.363 200.344H74.4814V209.498H84.363V200.344Z" fill="#F8F4E8"/>
<path d="M84.363 238.429H74.4814V247.582H84.363V238.429Z" fill="#F8F4E8"/>
<path d="M84.363 143.197H74.4814V152.35H84.363V143.197Z" fill="#F8F4E8"/>
<path d="M84.363 86.064H74.4814V95.2173H84.363V86.064Z" fill="#F8F4E8"/>
<path d="M84.363 9.88135H74.4814V19.0346H84.363V9.88135Z" fill="#F8F4E8"/>
<path d="M84.363 219.394H74.4814V228.547H84.363V219.394Z" fill="#F8F4E8"/>
<path d="M84.363 67.0151H74.4814V76.1684H84.363V67.0151Z" fill="#F8F4E8"/>
<path d="M84.363 181.295H74.4814V190.449H84.363V181.295Z" fill="#F8F4E8"/>
<path d="M84.363 105.113H74.4814V114.266H84.363V105.113Z" fill="#F8F4E8"/>
<path d="M84.363 124.163H74.4814V133.316H84.363V124.163Z" fill="#F8F4E8"/>
<path d="M84.363 314.61H74.4814V323.764H84.363V314.61Z" fill="#F8F4E8"/>
<path d="M84.363 295.576H74.4814V304.729H84.363V295.576Z" fill="#F8F4E8"/>
<path d="M84.363 276.527H74.4814V285.68H84.363V276.527Z" fill="#F8F4E8"/>
<path d="M215.265 200.344H205.384V209.498H215.265V200.344Z" fill="#F8F4E8"/>
<path d="M215.265 9.88135H205.384V19.0346H215.265V9.88135Z" fill="#F8F4E8"/>
<path d="M215.265 219.394H205.384V228.547H215.265V219.394Z" fill="#F8F4E8"/>
<path d="M215.265 314.61H205.384V323.764H215.265V314.61Z" fill="#F8F4E8"/>
<path d="M215.265 28.9302H205.384V38.0835H215.265V28.9302Z" fill="#F8F4E8"/>
<path d="M215.265 105.113H205.384V114.266H215.265V105.113Z" fill="#F8F4E8"/>
<path d="M215.265 295.576H205.384V304.729H215.265V295.576Z" fill="#F8F4E8"/>
<path d="M215.265 86.064H205.384V95.2173H215.265V86.064Z" fill="#F8F4E8"/>
<path d="M215.265 238.429H205.384V247.582H215.265V238.429Z" fill="#F8F4E8"/>
<path d="M215.265 143.197H205.384V152.35H215.265V143.197Z" fill="#F8F4E8"/>
<path d="M215.265 124.163H205.384V133.316H215.265V124.163Z" fill="#F8F4E8"/>
<path d="M215.265 67.0151H205.384V76.1684H215.265V67.0151Z" fill="#F8F4E8"/>
<path d="M215.265 47.9653H205.384V57.1186H215.265V47.9653Z" fill="#F8F4E8"/>
<path d="M215.265 276.527H205.384V285.68H215.265V276.527Z" fill="#F8F4E8"/>
<path d="M215.265 181.295H205.384V190.449H215.265V181.295Z" fill="#F8F4E8"/>
<path d="M215.265 257.478H205.384V266.631H215.265V257.478Z" fill="#F8F4E8"/>
<path d="M215.265 162.247H205.384V171.4H215.265V162.247Z" fill="#F8F4E8"/>
<path d="M258.904 47.9653H249.022V57.1186H258.904V47.9653Z" fill="#F8F4E8"/>
<path d="M258.904 181.295H249.022V190.449H258.904V181.295Z" fill="#F8F4E8"/>
<path d="M258.904 295.576H249.022V304.729H258.904V295.576Z" fill="#F8F4E8"/>
<path d="M258.904 67.0151H249.022V76.1684H258.904V67.0151Z" fill="#F8F4E8"/>
<path d="M258.904 9.88135H249.022V19.0346H258.904V9.88135Z" fill="#F8F4E8"/>
<path d="M258.904 238.429H249.022V247.582H258.904V238.429Z" fill="#F8F4E8"/>
<path d="M258.904 105.113H249.022V114.266H258.904V105.113Z" fill="#F8F4E8"/>
<path d="M258.904 28.9302H249.022V38.0835H258.904V28.9302Z" fill="#F8F4E8"/>
<path d="M258.904 276.527H249.022V285.68H258.904V276.527Z" fill="#F8F4E8"/>
<path d="M258.904 219.394H249.022V228.547H258.904V219.394Z" fill="#F8F4E8"/>
<path d="M258.904 86.064H249.022V95.2173H258.904V86.064Z" fill="#F8F4E8"/>
<path d="M258.904 314.61H249.022V323.764H258.904V314.61Z" fill="#F8F4E8"/>
<path d="M258.904 124.163H249.022V133.316H258.904V124.163Z" fill="#F8F4E8"/>
<path d="M258.904 257.478H249.022V266.631H258.904V257.478Z" fill="#F8F4E8"/>
<path d="M258.904 143.197H249.022V152.35H258.904V143.197Z" fill="#F8F4E8"/>
<path d="M258.904 200.344H249.022V209.498H258.904V200.344Z" fill="#F8F4E8"/>
<path d="M258.904 162.247H249.022V171.4H258.904V162.247Z" fill="#F8F4E8"/>
<path d="M302.543 200.344H292.661V209.498H302.543V200.344Z" fill="#F8F4E8"/>
<path d="M302.543 276.527H292.661V285.68H302.543V276.527Z" fill="#F8F4E8"/>
<path d="M302.543 143.197H292.661V152.35H302.543V143.197Z" fill="#F8F4E8"/>
<path d="M302.543 86.064H292.661V95.2173H302.543V86.064Z" fill="#F8F4E8"/>
<path d="M302.543 238.429H292.661V247.582H302.543V238.429Z" fill="#F8F4E8"/>
<path d="M302.543 28.9302H292.661V38.0835H302.543V28.9302Z" fill="#F8F4E8"/>
<path d="M302.543 219.394H292.661V228.547H302.543V219.394Z" fill="#F8F4E8"/>
<path d="M302.543 162.247H292.661V171.4H302.543V162.247Z" fill="#F8F4E8"/>
<path d="M302.543 124.163H292.661V133.316H302.543V124.163Z" fill="#F8F4E8"/>
<path d="M302.543 67.0151H292.661V76.1684H302.543V67.0151Z" fill="#F8F4E8"/>
<path d="M302.543 9.88135H292.661V19.0346H302.543V9.88135Z" fill="#F8F4E8"/>
<path d="M302.543 105.113H292.661V114.266H302.543V105.113Z" fill="#F8F4E8"/>
<path d="M302.543 47.9653H292.661V57.1186H302.543V47.9653Z" fill="#F8F4E8"/>
<path d="M302.543 314.61H292.661V323.764H302.543V314.61Z" fill="#F8F4E8"/>
<path d="M302.543 257.478H292.661V266.631H302.543V257.478Z" fill="#F8F4E8"/>
<path d="M302.543 181.295H292.661V190.449H302.543V181.295Z" fill="#F8F4E8"/>
<path d="M302.543 295.576H292.661V304.729H302.543V295.576Z" fill="#F8F4E8"/>
<path d="M324.362 67.0151H314.481V76.1684H324.362V67.0151Z" fill="#F8F4E8"/>
<path d="M324.362 143.197H314.481V152.35H324.362V143.197Z" fill="#F8F4E8"/>
<path d="M324.362 105.113H314.481V114.266H324.362V105.113Z" fill="#F8F4E8"/>
<path d="M324.362 124.163H314.481V133.316H324.362V124.163Z" fill="#F8F4E8"/>
<path d="M324.362 295.576H314.481V304.729H324.362V295.576Z" fill="#F8F4E8"/>
<path d="M324.362 238.429H314.481V247.582H324.362V238.429Z" fill="#F8F4E8"/>
<path d="M324.362 86.064H314.481V95.2173H324.362V86.064Z" fill="#F8F4E8"/>
<path d="M324.362 47.9653H314.481V57.1186H324.362V47.9653Z" fill="#F8F4E8"/>
<path d="M324.362 28.9302H314.481V38.0835H324.362V28.9302Z" fill="#F8F4E8"/>
<path d="M324.362 314.61H314.481V323.764H324.362V314.61Z" fill="#F8F4E8"/>
<path d="M324.362 200.344H314.481V209.498H324.362V200.344Z" fill="#F8F4E8"/>
<path d="M324.362 9.88135H314.481V19.0346H324.362V9.88135Z" fill="#F8F4E8"/>
<path d="M324.362 181.295H314.481V190.449H324.362V181.295Z" fill="#F8F4E8"/>
<path d="M324.362 162.247H314.481V171.4H324.362V162.247Z" fill="#F8F4E8"/>
<path d="M324.362 219.394H314.481V228.547H324.362V219.394Z" fill="#F8F4E8"/>
<path d="M324.362 276.527H314.481V285.68H324.362V276.527Z" fill="#F8F4E8"/>
<path d="M324.362 257.478H314.481V266.631H324.362V257.478Z" fill="#F8F4E8"/>
<path d="M18.9192 105.113H9.0376V114.266H18.9192V105.113Z" fill="#F8F4E8"/>
<path d="M18.9192 219.394H9.0376V228.547H18.9192V219.394Z" fill="#F8F4E8"/>
<path d="M18.9192 28.9302H9.0376V38.0835H18.9192V28.9302Z" fill="#F8F4E8"/>
<path d="M18.9192 238.429H9.0376V247.582H18.9192V238.429Z" fill="#F8F4E8"/>
<path d="M18.9192 162.247H9.0376V171.4H18.9192V162.247Z" fill="#F8F4E8"/>
<path d="M18.9192 9.88135H9.0376V19.0346H18.9192V9.88135Z" fill="#F8F4E8"/>
<path d="M18.9192 181.295H9.0376V190.449H18.9192V181.295Z" fill="#F8F4E8"/>
<path d="M18.9192 124.163H9.0376V133.316H18.9192V124.163Z" fill="#F8F4E8"/>
<path d="M18.9192 257.478H9.0376V266.631H18.9192V257.478Z" fill="#F8F4E8"/>
<path d="M18.9192 314.61H9.0376V323.764H18.9192V314.61Z" fill="#F8F4E8"/>
<path d="M18.9192 295.576H9.0376V304.729H18.9192V295.576Z" fill="#F8F4E8"/>
<path d="M18.9192 143.197H9.0376V152.35H18.9192V143.197Z" fill="#F8F4E8"/>
<path d="M18.9192 47.9653H9.0376V57.1186H18.9192V47.9653Z" fill="#F8F4E8"/>
<path d="M18.9192 86.064H9.0376V95.2173H18.9192V86.064Z" fill="#F8F4E8"/>
<path d="M18.9192 200.344H9.0376V209.498H18.9192V200.344Z" fill="#F8F4E8"/>
<path d="M18.9192 276.527H9.0376V285.68H18.9192V276.527Z" fill="#F8F4E8"/>
<path d="M18.9192 67.0151H9.0376V76.1684H18.9192V67.0151Z" fill="#F8F4E8"/>
<path d="M62.5578 124.163H52.6763V133.316H62.5578V124.163Z" fill="#F8F4E8"/>
<path d="M62.5578 162.247H52.6763V171.4H62.5578V162.247Z" fill="#F8F4E8"/>
<path d="M62.5578 9.88135H52.6763V19.0346H62.5578V9.88135Z" fill="#F8F4E8"/>
<path d="M62.5578 219.394H52.6763V228.547H62.5578V219.394Z" fill="#F8F4E8"/>
<path d="M62.5578 200.344H52.6763V209.498H62.5578V200.344Z" fill="#F8F4E8"/>
<path d="M62.5578 105.113H52.6763V114.266H62.5578V105.113Z" fill="#F8F4E8"/>
<path d="M62.5578 181.295H52.6763V190.449H62.5578V181.295Z" fill="#F8F4E8"/>
<path d="M62.5578 143.197H52.6763V152.35H62.5578V143.197Z" fill="#F8F4E8"/>
<path d="M62.5578 314.61H52.6763V323.764H62.5578V314.61Z" fill="#F8F4E8"/>
<path d="M62.5578 238.429H52.6763V247.582H62.5578V238.429Z" fill="#F8F4E8"/>
<path d="M62.5578 86.064H52.6763V95.2173H62.5578V86.064Z" fill="#F8F4E8"/>
<path d="M62.5578 257.478H52.6763V266.631H62.5578V257.478Z" fill="#F8F4E8"/>
<path d="M62.5578 28.9302H52.6763V38.0835H62.5578V28.9302Z" fill="#F8F4E8"/>
<path d="M62.5578 276.527H52.6763V285.68H62.5578V276.527Z" fill="#F8F4E8"/>
<path d="M62.5578 295.576H52.6763V304.729H62.5578V295.576Z" fill="#F8F4E8"/>
<path d="M62.5578 67.0151H52.6763V76.1684H62.5578V67.0151Z" fill="#F8F4E8"/>
<path d="M62.5578 47.9653H52.6763V57.1186H62.5578V47.9653Z" fill="#F8F4E8"/>
<path d="M40.7383 67.0151H30.8567V76.1684H40.7383V67.0151Z" fill="#F8F4E8"/>
<path d="M40.7383 257.478H30.8567V266.631H40.7383V257.478Z" fill="#F8F4E8"/>
<path d="M40.7383 86.064H30.8567V95.2173H40.7383V86.064Z" fill="#F8F4E8"/>
<path d="M40.7383 219.394H30.8567V228.547H40.7383V219.394Z" fill="#F8F4E8"/>
<path d="M40.7383 295.576H30.8567V304.729H40.7383V295.576Z" fill="#F8F4E8"/>
<path d="M40.7383 28.9302H30.8567V38.0835H40.7383V28.9302Z" fill="#F8F4E8"/>
<path d="M40.7383 276.527H30.8567V285.68H40.7383V276.527Z" fill="#F8F4E8"/>
<path d="M40.7383 200.344H30.8567V209.498H40.7383V200.344Z" fill="#F8F4E8"/>
<path d="M40.7383 9.88135H30.8567V19.0346H40.7383V9.88135Z" fill="#F8F4E8"/>
<path d="M40.7383 314.61H30.8567V323.764H40.7383V314.61Z" fill="#F8F4E8"/>
<path d="M40.7383 238.429H30.8567V247.582H40.7383V238.429Z" fill="#F8F4E8"/>
<path d="M40.7383 47.9653H30.8567V57.1186H40.7383V47.9653Z" fill="#F8F4E8"/>
<path d="M40.7383 124.163H30.8567V133.316H40.7383V124.163Z" fill="#F8F4E8"/>
<path d="M40.7383 105.113H30.8567V114.266H40.7383V105.113Z" fill="#F8F4E8"/>
<path d="M40.7383 162.247H30.8567V171.4H40.7383V162.247Z" fill="#F8F4E8"/>
<path d="M40.7383 181.295H30.8567V190.449H40.7383V181.295Z" fill="#F8F4E8"/>
<path d="M40.7383 143.197H30.8567V152.35H40.7383V143.197Z" fill="#F8F4E8"/>
<path d="M128.002 143.197H118.12V152.35H128.002V143.197Z" fill="#F8F4E8"/>
<path d="M128.002 124.163H118.12V133.316H128.002V124.163Z" fill="#F8F4E8"/>
<path d="M128.002 276.527H118.12V285.68H128.002V276.527Z" fill="#F8F4E8"/>
<path d="M128.002 181.295H118.12V190.449H128.002V181.295Z" fill="#F8F4E8"/>
<path d="M128.002 9.88135H118.12V19.0346H128.002V9.88135Z" fill="#F8F4E8"/>
<path d="M128.002 219.394H118.12V228.547H128.002V219.394Z" fill="#F8F4E8"/>
<path d="M128.002 257.478H118.12V266.631H128.002V257.478Z" fill="#F8F4E8"/>
<path d="M128.002 67.0151H118.12V76.1684H128.002V67.0151Z" fill="#F8F4E8"/>
<path d="M128.002 200.344H118.12V209.498H128.002V200.344Z" fill="#F8F4E8"/>
<path d="M128.002 314.61H118.12V323.764H128.002V314.61Z" fill="#F8F4E8"/>
<path d="M128.002 86.064H118.12V95.2173H128.002V86.064Z" fill="#F8F4E8"/>
<path d="M128.002 28.9302H118.12V38.0835H128.002V28.9302Z" fill="#F8F4E8"/>
<path d="M128.002 162.247H118.12V171.4H128.002V162.247Z" fill="#F8F4E8"/>
<path d="M128.002 238.429H118.12V247.582H128.002V238.429Z" fill="#F8F4E8"/>
<path d="M128.002 47.9653H118.12V57.1186H128.002V47.9653Z" fill="#F8F4E8"/>
<path d="M128.002 295.576H118.12V304.729H128.002V295.576Z" fill="#F8F4E8"/>
<path d="M128.002 105.113H118.12V114.266H128.002V105.113Z" fill="#F8F4E8"/>
<path d="M171.641 181.295H161.759V190.449H171.641V181.295Z" fill="#F8F4E8"/>
<path d="M171.641 143.197H161.759V152.35H171.641V143.197Z" fill="#F8F4E8"/>
<path d="M171.641 276.527H161.759V285.68H171.641V276.527Z" fill="#F8F4E8"/>
<path d="M171.641 200.344H161.759V209.498H171.641V200.344Z" fill="#F8F4E8"/>
<path d="M171.641 67.0151H161.759V76.1684H171.641V67.0151Z" fill="#F8F4E8"/>
<path d="M171.641 9.88135H161.759V19.0346H171.641V9.88135Z" fill="#F8F4E8"/>
<path d="M171.641 219.394H161.759V228.547H171.641V219.394Z" fill="#F8F4E8"/>
<path d="M171.641 28.9302H161.759V38.0835H171.641V28.9302Z" fill="#F8F4E8"/>
<path d="M171.641 238.429H161.759V247.582H171.641V238.429Z" fill="#F8F4E8"/>
<path d="M171.641 295.576H161.759V304.729H171.641V295.576Z" fill="#F8F4E8"/>
<path d="M171.641 124.163H161.759V133.316H171.641V124.163Z" fill="#F8F4E8"/>
<path d="M171.641 105.113H161.759V114.266H171.641V105.113Z" fill="#F8F4E8"/>
<path d="M171.641 257.478H161.759V266.631H171.641V257.478Z" fill="#F8F4E8"/>
<path d="M171.641 86.064H161.759V95.2173H171.641V86.064Z" fill="#F8F4E8"/>
<path d="M171.641 314.61H161.759V323.764H171.641V314.61Z" fill="#F8F4E8"/>
<path d="M171.641 47.9653H161.759V57.1186H171.641V47.9653Z" fill="#F8F4E8"/>
<path d="M171.641 162.247H161.759V171.4H171.641V162.247Z" fill="#F8F4E8"/>
<path d="M237.084 86.064H227.203V95.2173H237.084V86.064Z" fill="#F8F4E8"/>
<path d="M237.084 181.295H227.203V190.449H237.084V181.295Z" fill="#F8F4E8"/>
<path d="M237.084 200.344H227.203V209.498H237.084V200.344Z" fill="#F8F4E8"/>
<path d="M237.084 162.247H227.203V171.4H237.084V162.247Z" fill="#F8F4E8"/>
<path d="M237.084 257.478H227.203V266.631H237.084V257.478Z" fill="#F8F4E8"/>
<path d="M237.084 276.527H227.203V285.68H237.084V276.527Z" fill="#F8F4E8"/>
<path d="M237.084 238.429H227.203V247.582H237.084V238.429Z" fill="#F8F4E8"/>
<path d="M237.084 314.61H227.203V323.764H237.084V314.61Z" fill="#F8F4E8"/>
<path d="M237.084 47.9653H227.203V57.1186H237.084V47.9653Z" fill="#F8F4E8"/>
<path d="M237.084 28.9302H227.203V38.0835H237.084V28.9302Z" fill="#F8F4E8"/>
<path d="M237.084 143.197H227.203V152.35H237.084V143.197Z" fill="#F8F4E8"/>
<path d="M237.084 67.0151H227.203V76.1684H237.084V67.0151Z" fill="#F8F4E8"/>
<path d="M237.084 105.113H227.203V114.266H237.084V105.113Z" fill="#F8F4E8"/>
<path d="M237.084 295.576H227.203V304.729H237.084V295.576Z" fill="#F8F4E8"/>
<path d="M237.084 124.163H227.203V133.316H237.084V124.163Z" fill="#F8F4E8"/>
<path d="M237.084 9.88135H227.203V19.0346H237.084V9.88135Z" fill="#F8F4E8"/>
<path d="M237.084 219.394H227.203V228.547H237.084V219.394Z" fill="#F8F4E8"/>
<path d="M280.723 162.247H270.842V171.4H280.723V162.247Z" fill="#F8F4E8"/>
<path d="M280.723 295.576H270.842V304.729H280.723V295.576Z" fill="#F8F4E8"/>
<path d="M280.723 47.9653H270.842V57.1186H280.723V47.9653Z" fill="#F8F4E8"/>
<path d="M280.723 124.163H270.842V133.316H280.723V124.163Z" fill="#F8F4E8"/>
<path d="M280.723 314.61H270.842V323.764H280.723V314.61Z" fill="#F8F4E8"/>
<path d="M280.723 28.9302H270.842V38.0835H280.723V28.9302Z" fill="#F8F4E8"/>
<path d="M280.723 105.113H270.842V114.266H280.723V105.113Z" fill="#F8F4E8"/>
<path d="M280.723 238.429H270.842V247.582H280.723V238.429Z" fill="#F8F4E8"/>
<path d="M280.723 9.88135H270.842V19.0346H280.723V9.88135Z" fill="#F8F4E8"/>
<path d="M280.723 257.478H270.842V266.631H280.723V257.478Z" fill="#F8F4E8"/>
<path d="M280.723 181.295H270.842V190.449H280.723V181.295Z" fill="#F8F4E8"/>
<path d="M280.723 67.0151H270.842V76.1684H280.723V67.0151Z" fill="#F8F4E8"/>
<path d="M280.723 219.394H270.842V228.547H280.723V219.394Z" fill="#F8F4E8"/>
<path d="M280.723 200.344H270.842V209.498H280.723V200.344Z" fill="#F8F4E8"/>
<path d="M280.723 276.527H270.842V285.68H280.723V276.527Z" fill="#F8F4E8"/>
<path d="M280.723 143.197H270.842V152.35H280.723V143.197Z" fill="#F8F4E8"/>
<path d="M280.723 86.064H270.842V95.2173H280.723V86.064Z" fill="#F8F4E8"/>
<path d="M106.182 0H96.3008V9.88157H106.182V0Z" fill="#E1E7F3"/>
<path d="M106.182 38.084H96.3008V47.9655H106.182V38.084Z" fill="#E1E7F3"/>
<path d="M106.182 76.1826H96.3008V86.0642H106.182V76.1826Z" fill="#E1E7F3"/>
<path d="M106.182 57.1328H96.3008V67.0144H106.182V57.1328Z" fill="#E1E7F3"/>
<path d="M106.182 95.2173H96.3008V105.099H106.182V95.2173Z" fill="#E1E7F3"/>
<path d="M106.182 133.315H96.3008V143.197H106.182V133.315Z" fill="#E1E7F3"/>
<path d="M106.182 114.267H96.3008V124.148H106.182V114.267Z" fill="#E1E7F3"/>
<path d="M106.182 171.414H96.3008V181.296H106.182V171.414Z" fill="#E1E7F3"/>
<path d="M106.182 209.498H96.3008V219.379H106.182V209.498Z" fill="#E1E7F3"/>
<path d="M106.182 152.365H96.3008V162.246H106.182V152.365Z" fill="#E1E7F3"/>
<path d="M106.182 228.547H96.3008V238.428H106.182V228.547Z" fill="#E1E7F3"/>
<path d="M106.182 304.729H96.3008V314.611H106.182V304.729Z" fill="#E1E7F3"/>
<path d="M106.182 323.779H96.3008V333.66H106.182V323.779Z" fill="#E1E7F3"/>
<path d="M106.182 247.596H96.3008V257.478H106.182V247.596Z" fill="#E1E7F3"/>
<path d="M106.182 19.0352H96.3008V28.9167H106.182V19.0352Z" fill="#E1E7F3"/>
<path d="M106.182 266.645H96.3008V276.527H106.182V266.645Z" fill="#E1E7F3"/>
<path d="M106.182 190.449H96.3008V200.33H106.182V190.449Z" fill="#E1E7F3"/>
<path d="M106.182 285.68H96.3008V295.562H106.182V285.68Z" fill="#E1E7F3"/>
<path d="M193.46 0H183.579V9.88157H193.46V0Z" fill="#E1E7F3"/>
<path d="M193.46 38.084H183.579V47.9655H193.46V38.084Z" fill="#E1E7F3"/>
<path d="M193.46 76.1826H183.579V86.0642H193.46V76.1826Z" fill="#E1E7F3"/>
<path d="M193.46 57.1328H183.579V67.0144H193.46V57.1328Z" fill="#E1E7F3"/>
<path d="M193.46 95.2173H183.579V105.099H193.46V95.2173Z" fill="#E1E7F3"/>
<path d="M193.46 133.315H183.579V143.197H193.46V133.315Z" fill="#E1E7F3"/>
<path d="M193.46 114.267H183.579V124.148H193.46V114.267Z" fill="#E1E7F3"/>
<path d="M193.46 171.414H183.579V181.296H193.46V171.414Z" fill="#E1E7F3"/>
<path d="M193.46 209.498H183.579V219.379H193.46V209.498Z" fill="#E1E7F3"/>
<path d="M193.46 152.365H183.579V162.246H193.46V152.365Z" fill="#E1E7F3"/>
<path d="M193.46 228.547H183.579V238.428H193.46V228.547Z" fill="#E1E7F3"/>
<path d="M193.46 304.729H183.579V314.611H193.46V304.729Z" fill="#E1E7F3"/>
<path d="M193.46 323.779H183.579V333.66H193.46V323.779Z" fill="#E1E7F3"/>
<path d="M193.46 247.596H183.579V257.478H193.46V247.596Z" fill="#E1E7F3"/>
<path d="M193.46 19.0352H183.579V28.9167H193.46V19.0352Z" fill="#E1E7F3"/>
<path d="M193.46 266.645H183.579V276.527H193.46V266.645Z" fill="#E1E7F3"/>
<path d="M193.46 190.449H183.579V200.33H193.46V190.449Z" fill="#E1E7F3"/>
<path d="M193.46 285.68H183.579V295.562H193.46V285.68Z" fill="#E1E7F3"/>
<path d="M149.821 0H139.94V9.88157H149.821V0Z" fill="#E1E7F3"/>
<path d="M149.821 38.084H139.94V47.9655H149.821V38.084Z" fill="#E1E7F3"/>
<path d="M149.821 76.1826H139.94V86.0642H149.821V76.1826Z" fill="#E1E7F3"/>
<path d="M149.821 57.1328H139.94V67.0144H149.821V57.1328Z" fill="#E1E7F3"/>
<path d="M149.821 95.2173H139.94V105.099H149.821V95.2173Z" fill="#E1E7F3"/>
<path d="M149.821 133.315H139.94V143.197H149.821V133.315Z" fill="#E1E7F3"/>
<path d="M149.821 114.267H139.94V124.148H149.821V114.267Z" fill="#E1E7F3"/>
<path d="M149.821 171.414H139.94V181.296H149.821V171.414Z" fill="#E1E7F3"/>
<path d="M149.821 209.498H139.94V219.379H149.821V209.498Z" fill="#E1E7F3"/>
<path d="M149.821 152.365H139.94V162.246H149.821V152.365Z" fill="#E1E7F3"/>
<path d="M149.821 228.547H139.94V238.428H149.821V228.547Z" fill="#E1E7F3"/>
<path d="M149.821 304.729H139.94V314.611H149.821V304.729Z" fill="#E1E7F3"/>
<path d="M149.821 323.779H139.94V333.66H149.821V323.779Z" fill="#E1E7F3"/>
<path d="M149.821 247.596H139.94V257.478H149.821V247.596Z" fill="#E1E7F3"/>
<path d="M149.821 19.0352H139.94V28.9167H149.821V19.0352Z" fill="#E1E7F3"/>
<path d="M149.821 266.645H139.94V276.527H149.821V266.645Z" fill="#E1E7F3"/>
<path d="M149.821 190.449H139.94V200.33H149.821V190.449Z" fill="#E1E7F3"/>
<path d="M149.821 285.68H139.94V295.562H149.821V285.68Z" fill="#E1E7F3"/>
<path d="M84.363 0H74.4814V9.88157H84.363V0Z" fill="#E1E7F3"/>
<path d="M84.363 38.084H74.4814V47.9655H84.363V38.084Z" fill="#E1E7F3"/>
<path d="M84.363 76.1826H74.4814V86.0642H84.363V76.1826Z" fill="#E1E7F3"/>
<path d="M84.363 57.1328H74.4814V67.0144H84.363V57.1328Z" fill="#E1E7F3"/>
<path d="M84.363 95.2173H74.4814V105.099H84.363V95.2173Z" fill="#E1E7F3"/>
<path d="M84.363 133.315H74.4814V143.197H84.363V133.315Z" fill="#E1E7F3"/>
<path d="M84.363 114.267H74.4814V124.148H84.363V114.267Z" fill="#E1E7F3"/>
<path d="M84.363 171.414H74.4814V181.296H84.363V171.414Z" fill="#E1E7F3"/>
<path d="M84.363 209.498H74.4814V219.379H84.363V209.498Z" fill="#E1E7F3"/>
<path d="M84.363 152.365H74.4814V162.246H84.363V152.365Z" fill="#E1E7F3"/>
<path d="M84.363 228.547H74.4814V238.428H84.363V228.547Z" fill="#E1E7F3"/>
<path d="M84.363 304.729H74.4814V314.611H84.363V304.729Z" fill="#E1E7F3"/>
<path d="M84.363 323.779H74.4814V333.66H84.363V323.779Z" fill="#E1E7F3"/>
<path d="M84.363 247.596H74.4814V257.478H84.363V247.596Z" fill="#E1E7F3"/>
<path d="M84.363 19.0352H74.4814V28.9167H84.363V19.0352Z" fill="#E1E7F3"/>
<path d="M84.363 266.645H74.4814V276.527H84.363V266.645Z" fill="#E1E7F3"/>
<path d="M84.363 190.449H74.4814V200.33H84.363V190.449Z" fill="#E1E7F3"/>
<path d="M84.363 285.68H74.4814V295.562H84.363V285.68Z" fill="#E1E7F3"/>
<path d="M215.265 0H205.384V9.88157H215.265V0Z" fill="#E1E7F3"/>
<path d="M215.265 38.084H205.384V47.9655H215.265V38.084Z" fill="#E1E7F3"/>
<path d="M215.265 76.1826H205.384V86.0642H215.265V76.1826Z" fill="#E1E7F3"/>
<path d="M215.265 57.1328H205.384V67.0144H215.265V57.1328Z" fill="#E1E7F3"/>
<path d="M215.265 95.2173H205.384V105.099H215.265V95.2173Z" fill="#E1E7F3"/>
<path d="M215.265 133.315H205.384V143.197H215.265V133.315Z" fill="#E1E7F3"/>
<path d="M215.265 114.267H205.384V124.148H215.265V114.267Z" fill="#E1E7F3"/>
<path d="M215.265 171.414H205.384V181.296H215.265V171.414Z" fill="#E1E7F3"/>
<path d="M215.265 209.498H205.384V219.379H215.265V209.498Z" fill="#E1E7F3"/>
<path d="M215.265 152.365H205.384V162.246H215.265V152.365Z" fill="#E1E7F3"/>
<path d="M215.265 228.547H205.384V238.428H215.265V228.547Z" fill="#E1E7F3"/>
<path d="M215.265 304.729H205.384V314.611H215.265V304.729Z" fill="#E1E7F3"/>
<path d="M215.265 323.779H205.384V333.66H215.265V323.779Z" fill="#E1E7F3"/>
<path d="M215.265 247.596H205.384V257.478H215.265V247.596Z" fill="#E1E7F3"/>
<path d="M215.265 19.0352H205.384V28.9167H215.265V19.0352Z" fill="#E1E7F3"/>
<path d="M215.265 266.645H205.384V276.527H215.265V266.645Z" fill="#E1E7F3"/>
<path d="M215.265 190.449H205.384V200.33H215.265V190.449Z" fill="#E1E7F3"/>
<path d="M215.265 285.68H205.384V295.562H215.265V285.68Z" fill="#E1E7F3"/>
<path d="M258.904 0H249.022V9.88157H258.904V0Z" fill="#E1E7F3"/>
<path d="M258.904 38.084H249.022V47.9655H258.904V38.084Z" fill="#E1E7F3"/>
<path d="M258.904 76.1826H249.022V86.0642H258.904V76.1826Z" fill="#E1E7F3"/>
<path d="M258.904 57.1328H249.022V67.0144H258.904V57.1328Z" fill="#E1E7F3"/>
<path d="M258.904 95.2173H249.022V105.099H258.904V95.2173Z" fill="#E1E7F3"/>
<path d="M258.904 133.315H249.022V143.197H258.904V133.315Z" fill="#E1E7F3"/>
<path d="M258.904 114.267H249.022V124.148H258.904V114.267Z" fill="#E1E7F3"/>
<path d="M258.904 171.414H249.022V181.296H258.904V171.414Z" fill="#E1E7F3"/>
<path d="M258.904 209.498H249.022V219.379H258.904V209.498Z" fill="#E1E7F3"/>
<path d="M258.904 152.365H249.022V162.246H258.904V152.365Z" fill="#E1E7F3"/>
<path d="M258.904 228.547H249.022V238.428H258.904V228.547Z" fill="#E1E7F3"/>
<path d="M258.904 304.729H249.022V314.611H258.904V304.729Z" fill="#E1E7F3"/>
<path d="M258.904 323.779H249.022V333.66H258.904V323.779Z" fill="#E1E7F3"/>
<path d="M258.904 247.596H249.022V257.478H258.904V247.596Z" fill="#E1E7F3"/>
<path d="M258.904 19.0352H249.022V28.9167H258.904V19.0352Z" fill="#E1E7F3"/>
<path d="M258.904 266.645H249.022V276.527H258.904V266.645Z" fill="#E1E7F3"/>
<path d="M258.904 190.449H249.022V200.33H258.904V190.449Z" fill="#E1E7F3"/>
<path d="M258.904 285.68H249.022V295.562H258.904V285.68Z" fill="#E1E7F3"/>
<path d="M302.543 0H292.661V9.88157H302.543V0Z" fill="#E1E7F3"/>
<path d="M302.543 38.084H292.661V47.9655H302.543V38.084Z" fill="#E1E7F3"/>
<path d="M302.543 76.1826H292.661V86.0642H302.543V76.1826Z" fill="#E1E7F3"/>
<path d="M302.543 57.1328H292.661V67.0144H302.543V57.1328Z" fill="#E1E7F3"/>
<path d="M302.543 95.2173H292.661V105.099H302.543V95.2173Z" fill="#E1E7F3"/>
<path d="M302.543 133.315H292.661V143.197H302.543V133.315Z" fill="#E1E7F3"/>
<path d="M302.543 114.267H292.661V124.148H302.543V114.267Z" fill="#E1E7F3"/>
<path d="M302.543 171.414H292.661V181.296H302.543V171.414Z" fill="#E1E7F3"/>
<path d="M302.543 209.498H292.661V219.379H302.543V209.498Z" fill="#E1E7F3"/>
<path d="M302.543 152.365H292.661V162.246H302.543V152.365Z" fill="#E1E7F3"/>
<path d="M302.543 228.547H292.661V238.428H302.543V228.547Z" fill="#E1E7F3"/>
<path d="M302.543 304.729H292.661V314.611H302.543V304.729Z" fill="#E1E7F3"/>
<path d="M302.543 323.779H292.661V333.66H302.543V323.779Z" fill="#E1E7F3"/>
<path d="M302.543 247.596H292.661V257.478H302.543V247.596Z" fill="#E1E7F3"/>
<path d="M302.543 19.0352H292.661V28.9167H302.543V19.0352Z" fill="#E1E7F3"/>
<path d="M302.543 266.645H292.661V276.527H302.543V266.645Z" fill="#E1E7F3"/>
<path d="M302.543 190.449H292.661V200.33H302.543V190.449Z" fill="#E1E7F3"/>
<path d="M302.543 285.68H292.661V295.562H302.543V285.68Z" fill="#E1E7F3"/>
<path d="M324.362 0H314.481V9.88157H324.362V0Z" fill="#E1E7F3"/>
<path d="M324.362 38.084H314.481V47.9655H324.362V38.084Z" fill="#E1E7F3"/>
<path d="M324.362 76.1826H314.481V86.0642H324.362V76.1826Z" fill="#E1E7F3"/>
<path d="M324.362 57.1328H314.481V67.0144H324.362V57.1328Z" fill="#E1E7F3"/>
<path d="M324.362 95.2173H314.481V105.099H324.362V95.2173Z" fill="#E1E7F3"/>
<path d="M324.362 133.315H314.481V143.197H324.362V133.315Z" fill="#E1E7F3"/>
<path d="M324.362 114.267H314.481V124.148H324.362V114.267Z" fill="#E1E7F3"/>
<path d="M324.362 171.414H314.481V181.296H324.362V171.414Z" fill="#E1E7F3"/>
<path d="M324.362 209.498H314.481V219.379H324.362V209.498Z" fill="#E1E7F3"/>
<path d="M324.362 152.365H314.481V162.246H324.362V152.365Z" fill="#E1E7F3"/>
<path d="M324.362 228.547H314.481V238.428H324.362V228.547Z" fill="#E1E7F3"/>
<path d="M324.362 304.729H314.481V314.611H324.362V304.729Z" fill="#E1E7F3"/>
<path d="M324.362 323.779H314.481V333.66H324.362V323.779Z" fill="#E1E7F3"/>
<path d="M324.362 247.596H314.481V257.478H324.362V247.596Z" fill="#E1E7F3"/>
<path d="M324.362 19.0352H314.481V28.9167H324.362V19.0352Z" fill="#E1E7F3"/>
<path d="M324.362 266.645H314.481V276.527H324.362V266.645Z" fill="#E1E7F3"/>
<path d="M324.362 190.449H314.481V200.33H324.362V190.449Z" fill="#E1E7F3"/>
<path d="M324.362 285.68H314.481V295.562H324.362V285.68Z" fill="#E1E7F3"/>
<path d="M18.9192 0H9.0376V9.88157H18.9192V0Z" fill="#E1E7F3"/>
<path d="M18.9192 38.084H9.0376V47.9655H18.9192V38.084Z" fill="#E1E7F3"/>
<path d="M18.9192 76.1826H9.0376V86.0642H18.9192V76.1826Z" fill="#E1E7F3"/>
<path d="M18.9192 57.1328H9.0376V67.0144H18.9192V57.1328Z" fill="#E1E7F3"/>
<path d="M18.9192 95.2173H9.0376V105.099H18.9192V95.2173Z" fill="#E1E7F3"/>
<path d="M18.9192 133.315H9.0376V143.197H18.9192V133.315Z" fill="#E1E7F3"/>
<path d="M18.9192 114.267H9.0376V124.148H18.9192V114.267Z" fill="#E1E7F3"/>
<path d="M18.9192 171.414H9.0376V181.296H18.9192V171.414Z" fill="#E1E7F3"/>
<path d="M18.9192 209.498H9.0376V219.379H18.9192V209.498Z" fill="#E1E7F3"/>
<path d="M18.9192 152.365H9.0376V162.246H18.9192V152.365Z" fill="#E1E7F3"/>
<path d="M18.9192 228.547H9.0376V238.428H18.9192V228.547Z" fill="#E1E7F3"/>
<path d="M18.9192 304.729H9.0376V314.611H18.9192V304.729Z" fill="#E1E7F3"/>
<path d="M18.9192 323.779H9.0376V333.66H18.9192V323.779Z" fill="#E1E7F3"/>
<path d="M18.9192 247.596H9.0376V257.478H18.9192V247.596Z" fill="#E1E7F3"/>
<path d="M18.9192 19.0352H9.0376V28.9167H18.9192V19.0352Z" fill="#E1E7F3"/>
<path d="M18.9192 266.645H9.0376V276.527H18.9192V266.645Z" fill="#E1E7F3"/>
<path d="M18.9192 190.449H9.0376V200.33H18.9192V190.449Z" fill="#E1E7F3"/>
<path d="M18.9192 285.68H9.0376V295.562H18.9192V285.68Z" fill="#E1E7F3"/>
<path d="M62.5578 0H52.6763V9.88157H62.5578V0Z" fill="#E1E7F3"/>
<path d="M62.5578 38.084H52.6763V47.9655H62.5578V38.084Z" fill="#E1E7F3"/>
<path d="M62.5578 76.1826H52.6763V86.0642H62.5578V76.1826Z" fill="#E1E7F3"/>
<path d="M62.5578 57.1328H52.6763V67.0144H62.5578V57.1328Z" fill="#E1E7F3"/>
<path d="M62.5578 95.2173H52.6763V105.099H62.5578V95.2173Z" fill="#E1E7F3"/>
<path d="M62.5578 133.315H52.6763V143.197H62.5578V133.315Z" fill="#E1E7F3"/>
<path d="M62.5578 114.267H52.6763V124.148H62.5578V114.267Z" fill="#E1E7F3"/>
<path d="M62.5578 171.414H52.6763V181.296H62.5578V171.414Z" fill="#E1E7F3"/>
<path d="M62.5578 209.498H52.6763V219.379H62.5578V209.498Z" fill="#E1E7F3"/>
<path d="M62.5578 152.365H52.6763V162.246H62.5578V152.365Z" fill="#E1E7F3"/>
<path d="M62.5578 228.547H52.6763V238.428H62.5578V228.547Z" fill="#E1E7F3"/>
<path d="M62.5578 304.729H52.6763V314.611H62.5578V304.729Z" fill="#E1E7F3"/>
<path d="M62.5578 323.779H52.6763V333.66H62.5578V323.779Z" fill="#E1E7F3"/>
<path d="M62.5578 247.596H52.6763V257.478H62.5578V247.596Z" fill="#E1E7F3"/>
<path d="M62.5578 19.0352H52.6763V28.9167H62.5578V19.0352Z" fill="#E1E7F3"/>
<path d="M62.5578 266.645H52.6763V276.527H62.5578V266.645Z" fill="#E1E7F3"/>
<path d="M62.5578 190.449H52.6763V200.33H62.5578V190.449Z" fill="#E1E7F3"/>
<path d="M62.5578 285.68H52.6763V295.562H62.5578V285.68Z" fill="#E1E7F3"/>
<path d="M40.7383 0H30.8567V9.88157H40.7383V0Z" fill="#E1E7F3"/>
<path d="M40.7383 38.084H30.8567V47.9655H40.7383V38.084Z" fill="#E1E7F3"/>
<path d="M40.7383 76.1826H30.8567V86.0642H40.7383V76.1826Z" fill="#E1E7F3"/>
<path d="M40.7383 57.1328H30.8567V67.0144H40.7383V57.1328Z" fill="#E1E7F3"/>
<path d="M40.7383 95.2173H30.8567V105.099H40.7383V95.2173Z" fill="#E1E7F3"/>
<path d="M40.7383 133.315H30.8567V143.197H40.7383V133.315Z" fill="#E1E7F3"/>
<path d="M40.7383 114.267H30.8567V124.148H40.7383V114.267Z" fill="#E1E7F3"/>
<path d="M40.7383 171.414H30.8567V181.296H40.7383V171.414Z" fill="#E1E7F3"/>
<path d="M40.7383 209.498H30.8567V219.379H40.7383V209.498Z" fill="#E1E7F3"/>
<path d="M40.7383 152.365H30.8567V162.246H40.7383V152.365Z" fill="#E1E7F3"/>
<path d="M40.7383 228.547H30.8567V238.428H40.7383V228.547Z" fill="#E1E7F3"/>
<path d="M40.7383 304.729H30.8567V314.611H40.7383V304.729Z" fill="#E1E7F3"/>
<path d="M40.7383 323.779H30.8567V333.66H40.7383V323.779Z" fill="#E1E7F3"/>
<path d="M40.7383 247.596H30.8567V257.478H40.7383V247.596Z" fill="#E1E7F3"/>
<path d="M40.7383 19.0352H30.8567V28.9167H40.7383V19.0352Z" fill="#E1E7F3"/>
<path d="M40.7383 266.645H30.8567V276.527H40.7383V266.645Z" fill="#E1E7F3"/>
<path d="M40.7383 190.449H30.8567V200.33H40.7383V190.449Z" fill="#E1E7F3"/>
<path d="M40.7383 285.68H30.8567V295.562H40.7383V285.68Z" fill="#E1E7F3"/>
<path d="M128.002 0H118.12V9.88157H128.002V0Z" fill="#E1E7F3"/>
<path d="M128.002 38.084H118.12V47.9655H128.002V38.084Z" fill="#E1E7F3"/>
<path d="M128.002 76.1826H118.12V86.0642H128.002V76.1826Z" fill="#E1E7F3"/>
<path d="M128.002 57.1328H118.12V67.0144H128.002V57.1328Z" fill="#E1E7F3"/>
<path d="M128.002 95.2173H118.12V105.099H128.002V95.2173Z" fill="#E1E7F3"/>
<path d="M128.002 133.315H118.12V143.197H128.002V133.315Z" fill="#E1E7F3"/>
<path d="M128.002 114.267H118.12V124.148H128.002V114.267Z" fill="#E1E7F3"/>
<path d="M128.002 171.414H118.12V181.296H128.002V171.414Z" fill="#E1E7F3"/>
<path d="M128.002 209.498H118.12V219.379H128.002V209.498Z" fill="#E1E7F3"/>
<path d="M128.002 152.365H118.12V162.246H128.002V152.365Z" fill="#E1E7F3"/>
<path d="M128.002 228.547H118.12V238.428H128.002V228.547Z" fill="#E1E7F3"/>
<path d="M128.002 304.729H118.12V314.611H128.002V304.729Z" fill="#E1E7F3"/>
<path d="M128.002 323.779H118.12V333.66H128.002V323.779Z" fill="#E1E7F3"/>
<path d="M128.002 247.596H118.12V257.478H128.002V247.596Z" fill="#E1E7F3"/>
<path d="M128.002 19.0352H118.12V28.9167H128.002V19.0352Z" fill="#E1E7F3"/>
<path d="M128.002 266.645H118.12V276.527H128.002V266.645Z" fill="#E1E7F3"/>
<path d="M128.002 190.449H118.12V200.33H128.002V190.449Z" fill="#E1E7F3"/>
<path d="M128.002 285.68H118.12V295.562H128.002V285.68Z" fill="#E1E7F3"/>
<path d="M171.641 0H161.759V9.88157H171.641V0Z" fill="#E1E7F3"/>
<path d="M171.641 38.084H161.759V47.9655H171.641V38.084Z" fill="#E1E7F3"/>
<path d="M171.641 76.1826H161.759V86.0642H171.641V76.1826Z" fill="#E1E7F3"/>
<path d="M171.641 57.1328H161.759V67.0144H171.641V57.1328Z" fill="#E1E7F3"/>
<path d="M171.641 95.2173H161.759V105.099H171.641V95.2173Z" fill="#E1E7F3"/>
<path d="M171.641 133.315H161.759V143.197H171.641V133.315Z" fill="#E1E7F3"/>
<path d="M171.641 114.267H161.759V124.148H171.641V114.267Z" fill="#E1E7F3"/>
<path d="M171.641 171.414H161.759V181.296H171.641V171.414Z" fill="#E1E7F3"/>
<path d="M171.641 209.498H161.759V219.379H171.641V209.498Z" fill="#E1E7F3"/>
<path d="M171.641 152.365H161.759V162.246H171.641V152.365Z" fill="#E1E7F3"/>
<path d="M171.641 228.547H161.759V238.428H171.641V228.547Z" fill="#E1E7F3"/>
<path d="M171.641 304.729H161.759V314.611H171.641V304.729Z" fill="#E1E7F3"/>
<path d="M171.641 323.779H161.759V333.66H171.641V323.779Z" fill="#E1E7F3"/>
<path d="M171.641 247.596H161.759V257.478H171.641V247.596Z" fill="#E1E7F3"/>
<path d="M171.641 19.0352H161.759V28.9167H171.641V19.0352Z" fill="#E1E7F3"/>
<path d="M171.641 266.645H161.759V276.527H171.641V266.645Z" fill="#E1E7F3"/>
<path d="M171.641 190.449H161.759V200.33H171.641V190.449Z" fill="#E1E7F3"/>
<path d="M171.641 285.68H161.759V295.562H171.641V285.68Z" fill="#E1E7F3"/>
<path d="M237.084 0H227.203V9.88157H237.084V0Z" fill="#E1E7F3"/>
<path d="M237.084 38.084H227.203V47.9655H237.084V38.084Z" fill="#E1E7F3"/>
<path d="M237.084 76.1826H227.203V86.0642H237.084V76.1826Z" fill="#E1E7F3"/>
<path d="M237.084 57.1328H227.203V67.0144H237.084V57.1328Z" fill="#E1E7F3"/>
<path d="M237.084 95.2173H227.203V105.099H237.084V95.2173Z" fill="#E1E7F3"/>
<path d="M237.084 133.315H227.203V143.197H237.084V133.315Z" fill="#E1E7F3"/>
<path d="M237.084 114.267H227.203V124.148H237.084V114.267Z" fill="#E1E7F3"/>
<path d="M237.084 171.414H227.203V181.296H237.084V171.414Z" fill="#E1E7F3"/>
<path d="M237.084 209.498H227.203V219.379H237.084V209.498Z" fill="#E1E7F3"/>
<path d="M237.084 152.365H227.203V162.246H237.084V152.365Z" fill="#E1E7F3"/>
<path d="M237.084 228.547H227.203V238.428H237.084V228.547Z" fill="#E1E7F3"/>
<path d="M237.084 304.729H227.203V314.611H237.084V304.729Z" fill="#E1E7F3"/>
<path d="M237.084 323.779H227.203V333.66H237.084V323.779Z" fill="#E1E7F3"/>
<path d="M237.084 247.596H227.203V257.478H237.084V247.596Z" fill="#E1E7F3"/>
<path d="M237.084 19.0352H227.203V28.9167H237.084V19.0352Z" fill="#E1E7F3"/>
<path d="M237.084 266.645H227.203V276.527H237.084V266.645Z" fill="#E1E7F3"/>
<path d="M237.084 190.449H227.203V200.33H237.084V190.449Z" fill="#E1E7F3"/>
<path d="M237.084 285.68H227.203V295.562H237.084V285.68Z" fill="#E1E7F3"/>
<path d="M280.723 0H270.842V9.88157H280.723V0Z" fill="#E1E7F3"/>
<path d="M280.723 38.084H270.842V47.9655H280.723V38.084Z" fill="#E1E7F3"/>
<path d="M280.723 76.1826H270.842V86.0642H280.723V76.1826Z" fill="#E1E7F3"/>
<path d="M280.723 57.1328H270.842V67.0144H280.723V57.1328Z" fill="#E1E7F3"/>
<path d="M280.723 95.2173H270.842V105.099H280.723V95.2173Z" fill="#E1E7F3"/>
<path d="M280.723 133.315H270.842V143.197H280.723V133.315Z" fill="#E1E7F3"/>
<path d="M280.723 114.267H270.842V124.148H280.723V114.267Z" fill="#E1E7F3"/>
<path d="M280.723 171.414H270.842V181.296H280.723V171.414Z" fill="#E1E7F3"/>
<path d="M280.723 209.498H270.842V219.379H280.723V209.498Z" fill="#E1E7F3"/>
<path d="M280.723 152.365H270.842V162.246H280.723V152.365Z" fill="#E1E7F3"/>
<path d="M280.723 228.547H270.842V238.428H280.723V228.547Z" fill="#E1E7F3"/>
<path d="M280.723 304.729H270.842V314.611H280.723V304.729Z" fill="#E1E7F3"/>
<path d="M280.723 323.779H270.842V333.66H280.723V323.779Z" fill="#E1E7F3"/>
<path d="M280.723 247.596H270.842V257.478H280.723V247.596Z" fill="#E1E7F3"/>
<path d="M280.723 19.0352H270.842V28.9167H280.723V19.0352Z" fill="#E1E7F3"/>
<path d="M280.723 266.645H270.842V276.527H280.723V266.645Z" fill="#E1E7F3"/>
<path d="M280.723 190.449H270.842V200.33H280.723V190.449Z" fill="#E1E7F3"/>
<path d="M280.723 285.68H270.842V295.562H280.723V285.68Z" fill="#E1E7F3"/>
</g>
<defs>
<clipPath id="clip0_1356_2414">
<rect width="334" height="334" fill="white"/>
</clipPath>
</defs>
</svg>
