<?xml version="1.0" encoding="UTF-8"?>
<svg id="_레이어_1" data-name="레이어 1" xmlns="http://www.w3.org/2000/svg" xmlns:xlink="http://www.w3.org/1999/xlink" viewBox="0 0 342.6 253.33">
  <defs>
    <style>
      .cls-1 {
        fill: none;
      }

      .cls-2 {
        fill: #93b6f7;
      }

      .cls-3 {
        fill: #f4f7fc;
      }

      .cls-4 {
        clip-path: url(#clippath);
      }
    </style>
    <clipPath id="clippath">
      <path class="cls-1" d="M17.8,239.42L15.8,15.42l309-1.5,2,223.5-309,2Z"/>
    </clipPath>
  </defs>
  <g class="cls-4">
    <g>
      <path class="cls-3" d="M211.26,239.41h-80.48c.25-1.09-.15-1.89-1.2-2.41l-3.68-1.83-2.49-1.18-2.68-1.05-3.19-.78-5.04-1.33-5.35-1.65-2.12-.96c-3.06-1.38-5.5-3.25-7.83-5.71-2.63-2.78-4.11-6.23-5.63-9.73l-1.75-4.01c-2.18-5.01-3.02-6.67-7.86-9.59l-2.87-1.73c-1.72-1.04-3.06-2.4-4.29-4.01l-1.6-2.08-2.85-5.15c-5.17-9.35-1.89-15.17-2.8-21.25-.37-2.45-1.55-4.65-2.85-6.8-.1-.44-.27-1.33-.45-1.67-1.93-3.54-3.62-7.16-4.57-11.08-1.11-4.62-1.78-9.02-2.2-13.7l-.69-7.62c-.44-4.8-.79-9.42-.77-14.28v-3.04s-.04-8.89-.04-8.89l-.24-5.85-.58-6.43c-.35-3.87-.61-7.64.23-11.44l.56-2.53c.68-1.07,1.76-2.53,2.79-3.24l8.19-5.65c1.65-1.14,3.39-2.5,5.21-3.25l5.71-2.35c4.7-1.94,8.99-4.34,12.04-8.54l2.14-2.44,2.93-2.59c1.92-1.7,4.14-2.3,6.58-3.05l2.74-.84,1.78-.62,4.34-1.8,8.52-3.01,3.46-.84,7.58-2.32c1.96-.6,3.91-1.3,5.93-1.44l11.12-.79c3.99-.28,7.61-1.35,11.3-2.79,4.16-1.63,8.31-2.7,12.67-3.67l8.49-1.89c1.36-.3,2.32-.79,3.77-.92s3.18-.45,4.52-.87c1.25-.4,1.87-.63,3.24-.27l2.44-.06,4.81.22,4.58.07,3.46-.06,4.24-.19,4.59-.19,3.39-.2c1.72-.1,7.17.72,8.19,1.2l8.27,3.87,6.81,3.11c2.04.93,4.01,1.88,6.14,2.7l4.33,1.68,2.98,1.04c.87,1.07,1.75,1.65,2.82,2.47l4.54,3.45c1.78,1.35,3.48,3.07,4.88,4.85,7.75,9.81,2.88,18.24,8.77,27.65,1.6,5.86,2.44,11.38,2.3,17.4l1.77,5.81c.45,1.49,1.27,2.74,2.37,3.82l4.3,4.2c.34.34.74,1.37,1.1,1.68.69.6.87,1.42,1.26,2.18,2.39,4.68,4.16,9.4,5.86,14.37.8,2.35,1.17,4.73,1.39,7.25l.31,3.43.77,6.54.04,2.79c.03,1.9-.23,4.06-1.22,5.67l-1.89,3.05-1.37,1.69-5.49,4.9-1.76,1.97c-6.11,6.84-1.18,17.62-7.93,22.02l-1.49,1.41c-5.21,3.05-11.04,3.65-17.97,9.21l-2.72,2.18-2.2,2.16-2.53,2.27-5.1,4.12-2.67,1.93-3.48,2.63-2.12,1.59-2.66,1.9-7.14,3.9-3.02.91-8.53,2.53c-1.43.42-2.54,1.24-3.76,2.07l-2.75,1.86-2.14,1.5-4.98,3.01c-3.03,1.83-8.32,2.61-12.19,1.98l-7.97-1.31c-2.41-.4-4.64-.14-7.07-.07-2.72.08-5.51-.55-8.24-.86l-6.17-.69-2.73-.51c-2.37-.44-4.78-1.19-6.94-2.33-2.68-1.4-4.93-6.56-10.47-9.39-3.71-1.89-7.67-2.76-11.69-3.95l-3.58-1.06-2.75-1.2-3.87-1.95c-3.12-2.12-5.9-4.85-7.67-8.24l-2.39-4.57-2.13-4.68-3.13-6.06-2.39-4.07-2.67-4.37-1.47-2.46-1.71-3.52-1.06-2.33c-1.9-3.22-4.26-5.85-6.51-8.81l-1.97-2.58-1.79-3.14-2.36-5.01-1.63-4.11c-.69-1.75-.6-3.89-.6-5.88,0-.88.43-2.38.71-3.41l.7-2.61.7-2.41,1.78-8.5.1-2.48c.7-1.24.71-2.43.48-3.68l1.23-5.44.49-2.15,3.35-9.81,4.19-9.96,2.51-4.86,3.16-3.64,1.48-1.21c4.23-2.25,8.07-4.82,11.81-7.79l1.85-1.57c5.33-4.52,8.15-3.44,13.29-3.9l3.68-.32,5.85-.75,2.88-.47,4.44-.88c1.78-.35,3.39-1.07,4.9-2.08l2.79-1.87,6.78-4.54,2.7-1.54,3.01-1.24,9.94-2.46c3.15-.78,6-1.58,9.3-1.73l5.56-.25,3.69-.65,2.47-.51,10.03-2.53c7.62-1.93,13.5-2.34,19.79,2.17l4.51,3.24c2.04,1.47,4.03,2.49,6.42,3.46,1.72.7,3.28,2,4.96,2.95l2.46,1.4,2.98,3.23,1.77,1.86c1,2.01,2.18,3.87,3.65,5.6l4.21,4.96,3.36,4.32,1.7,2.38c2.57,3.6,3.24,7.23,3.36,11.35l.27,9.38c.21,7.54,3.35,10.51,4.75,15.12,1.48,4.85,2.62,9.74,2.25,14.77l-.17,2.26c-.29,3.96-2.54,8.23-4.92,11.59l-2.4,3.39-2.89,4.46c-1.65,2.54-3.32,5.1-4.67,7.82-.94,1.89-1.55,3.81-2.85,5.48l-3.35,4.29-6.17,6.41-1.93,2.6-2.45,5.26-2.93,6.91c-1.58,3.73-7.03,8.28-10.61,9.12-2.17.51-4.24,1.08-6.49,1.11l-7.6.08c-4.29.05-8.34,1.26-12.22,3.05l-4.19,1.93c-.76.35-1.75.65-2.62.78l-5.59.85c-2.33.36-4.37-.48-6.97.03-1.11.22-1.77.11-2.89.3l-4.31.72-9.1,2.18c-3.92.94-7.64.84-11.36-.07-.97-.24-1.71-.51-2.53-1.04l-3.34-2.16-2.59-1.43-8.27-4.05-2.35-1.6-1.72-1.33-4.54-4.05-5.13-4.06-3.88-3.45c-1.67-1.49-3.56-5.26-4.13-7.61l-.59-2.44-1.72-6.24c-1.09-3.97-1.88-7.82-1.98-11.97-.04-1.68-.38-3.46-.78-5.16-.97-4.17-5.34-8.96-5.77-13.45-.39-4.07.41-7.79,1.54-11.63,1.71-5.79,2.46-11.45,2.4-17.53-.02-2.26,0-4.83,1.18-6.79,1.01-1.69,2.11-3.71,3.58-5l10.43-9.12,4.83-3.8,4.85-4.02c3.07-2.54,6.3-4.24,10.24-5.12s7.58-1.97,10.86-4.09l4.3-2.78,2.2-1.48c3.89-2.62,8.11-4.22,12.8-4.98l7.6-.77,3.1-.06,4.3-.26,8.24-.9,11.4-.85c4.29-.32,9.34,1.16,12.73,3.84l4.99,3.94,6.37,5.87,3.41,2.77,5.55,4.22,1.37,1.93c1.13,1.58,1.62,3.04,1.23,4.92-.21,1.01-.41,2.25-.89,3.11-1.44,2.62-2.78,5.1-3.68,7.95l-.65,2.96c-.52,2.39-.17,4.8-.02,7.2.15,2.41.79,4.65,1.73,6.89l1.72,4.09c1.44,3.43,2.24,6.95,2.93,10.59l.63,3.32,1.76,8.01c.45,2.05.37,3.98-.1,6.01-1.3,5.69-4.81,10.38-9.29,14.01-1.01.82-1.9,1.31-3.03,1.92l-6.14,3.35-1.98,1.32-3.09,2.8c-1.29,1.17-1.78,3.29-2.5,4.83l-1.48,3.19-1.81,3.92-3.14,1.76c-2.58,1.44-5.83,1.53-8.73,1.71l-6.11.38-2.49.3-2.78.48-4.94.68-4.26.09-4.33-.04-6.46-.69-6.16-.93-3.84-.56-5.24-.76-7.43-.96c-2.99-.39-5.73-1.71-8.64-3.05l-3.08-3.45-2.51-3.05-2.59-3.45-6.3-10.34c-1.93-3.17-3.6-6.6-4.38-10.3l-.47-2.25-1.4-9.99c-.23-1.67-.05-3.77.23-5.33l.54-2.96,1.65-4.48,1.84-4.47.76-2.02,3.28-7.86,2.06-3.61,4.45-5.34,4.12-3.85,3.73-3.35,2.78-2.37,3.06-2.17,4.69-2.98c1.34-.74,3.32-1.08,4.93-1.55,3.97-1.15,11.05.55,17.89-.37,1.6-.22,2.8-.7,4.33-1.24l6.16-2.16,4.7-1.77c1.93-.73,3.92-.97,6.03-1.04l2.15-.07c4.73.95,6.33,3.14,9.31,6.46l4.65,5.16c.37.41,1.34.95,1.62,1.38l1.84,2.81,1.42,2.23,1.82,3.31c1.27,2.32,1.64,4.86,2.26,7.36.38,1.54,1.19,2.88,1.79,4.29.71,1.66,1.23,3.26,2.4,4.73l.81,1.98c.66,1.62,2.15,3.27,2.44,4.98l.46,2.77c.14.82.41,2.42.33,3.19l-1.08,10.52c-.24,2.36-.8,4.47-1.64,6.64-.38.97-.88,2.34-1.42,3.12l-1.71,2.46c-.61.88-2.02,2.23-3.05,2.92l-7.15,4.77-5.47,5.3-1.53,2.43-2,2.97-1.68,2.25c-1.03,1.38-2.95,2.52-4.62,2.98l-6.47,1.8-6.67,1.29-3.72.38c-3.75.38-7.21-1.3-10.63-2.74l-3.63-1.53-2.49-.98-5.16-1.91-7.05-3.3-1.9-2.14c-1.26-1.41-2.37-3.05-3.18-4.73l-3.91-8.13-1.95-3.21-1.45-2.26c-1.7-2.65-3.43-7.74-2.73-10.47l.63-2.47.89-3.06c.62-2.11,1.97-4.18,3.27-5.85,1.06-1.36,2.63-2.37,3.61-3.77l2.27-3.24.97-2.3,2.27-4.45c.7-1.37,1.48-2.33,2.62-3.35,1.6-1.44,2.92-3.52,4.75-4.59,3.37-1.96,7.12-2.26,10.78-1.48,4.89,1.04,9.48-.16,13.66-2.68l3.99-2.4,3.2-1.65c1.45-.74,3.61-1.3,5.1-.77,1.11.39,2.61.86,3.51,1.46,4.26,2.88,7.73,8.33,9.29,13.32,1.33,4.24,2.82,8.16,4.65,12.19,2.23,4.89,2.79,10.23.49,15.13l-1.08,2-2.52,3.92-9.31,12.07-4.45,6c-3.92,5.29-10.99,6.77-16.47,2.47l-3.89-2.53-2.89-1.41-3.61-1.38-2.13-.86-3.36-2.12c-2.45-1.55-4.29-3.34-6.05-5.65-1.86-2.45-4.28-5.14-4.26-8.49s2.25-6.49,4.14-9.28c1.56-2.3,3.62-4,5.88-5.52l4.95-3.32,2.65-1.62,3.56-1.96,3.53-2.07c2.25-1.32,4.36-2.66,6.95-3.44,1.8-.55,4.56.22,6.05,1.99l1.97,2.34,2.21,3.32,3.04,5.56c1.73,3.16.32,8.24-1.45,11.47l-2.4,4.37c-.99,1.81-3.21,2.52-5.24,2.78-2.48.33-4.85-.25-7.31-.74-3.12-.62-6.19-.97-9.1-2.28-1.58-.71-3.29-2.28-3.48-4.11-.1-.91.18-2.39.3-3.26,3.34-6.02,9.08-9.86,15.86-10.33,2.43-.17.49,2.21,1.57,5.31,1.89.61,3.85-.44,4.26-2.54.54-2.76-.85-6.08-3.53-7.36-3.05-1.45-10.42,1.73-13.38,3.96l-3.85,2.91-1.92,1.79c-1.3,1.21-1.95,2.81-2.72,4.34-.99,1.97-1.11,3.69-1.01,5.79.13,2.69,1.32,4.8,3.69,6.28,1.22.76,2.59,1.45,4.07,1.74l5.03.99c1.05.21,1.79.31,2.71.61l5.09,1.7c3.15,1.05,4.77,2.13,8.27-.32.78-.54,1.24-1.17,1.84-1.85,1.19-1.34,2.31-2.61,3.1-4.29l2.97-6.26c3-6.32,2.76-10.55-1.35-16.17l-2.96-4.05-2.26-3.59c-.73-1.16-1.74-1.89-2.72-2.73-3.5-3.02-8.07-1.16-12.24.74l-3.39,1.55-10.73,5.55-3.56,2.58-6.59,6.23-2.55,2.89-2.01,2.34c-.2,1.61-.73,3.02-1.51,4.67s-.87,4.39-.3,6.21c.32,1.02.8,2.45,1.35,3.23l3.43,4.82,2.55,2.93,2.03,2.01c1.35,1.34,2.8,2.56,4.46,3.5l3.12,1.76,3.97,1.77c.92.41,1.48.64,2.28,1.14l3.2,2,3.27,1.93c.64.38,2.07.62,2.89.82,1.88.47,3.87.46,5.72.05l3.52-.8,3.59-2.25c2.45-1.53,3.7-4.33,5.33-6.59l1.56-2.16,2.37-3.1,2.99-3.13,2.92-2.97c3.2-3.25,5.19-7.26,6.86-11.49.87-2.21,1.59-4.56,1.47-6.96-.19-3.72-1.22-7.1-2.68-10.47-1.33-3.08-2.42-6.06-3.34-9.26l-.95-3.32c-2.09-7.28-9.62-18.94-17.53-17.8-5.09.74-9.21,5.2-13.75,7.34-8.21,3.86-14.47-.47-18.21.51l-3.2.83c-2.34.61-4.46,2.43-6.09,4.28l-4,4.57-3.06,4.3-1.05,1.95-1.5,2.26-3.13,3.9-2.49,3.36c-.97,1.3-1.99,2.6-2.57,4.13l-.86,2.25c-.61,1.59-1.19,3.14-1.26,4.85l-.14,3.29c-.1,2.27.4,4.32,1.04,6.51.24.83.86,1.5,1.34,2.21l2.48,3.69,1.02,1.51c1.49,2.21,2.93,4.45,3.97,6.98l2.77,6.71c1.23,2.98,2.95,5.46,6.03,6.91l4.25,2.01,4.66,1.55,8.5,3.17,5.7,2.04c4.03,1.44,8.32,1.61,12.4.39l6.01-1.62c2.8-.16,5.46-.71,8.2-1.33,7.66-1.73,8.82-9.8,13.59-14.66,1.74-1.77,4.21-3.04,6.3-4.34l2.29-1.43,2.12-1.59c2.95-2.2,4.77-5.31,6.51-8.47.82-1.49.67-2.99.97-4.69l.43-2.43.33-7.09c.17-3.64.84-7.37-.82-11.09l-3.39-7.63-2.73-5.58c-3.19-6.51-1.63-12.03-5.99-17.64l-2.83-2.93-4.49-4.73-3.64-3.69c-2.17-2.2-4.35-4.52-7.42-5.4-4.92-1.41-9.95-.89-14.73.61l-7.27,2.28-5.27,1.09-5.48.61-2.67.02-3.46.05-2.57.41-4.53.75-2.82.97-2.48.7-2.82,1.71-4.5,2.77-2.45,1.85-3.76,2.98-4.96,4.53-1.85,1.84-2.73,3.09c-1.84,2.08-3.23,4.44-4.35,6.99l-2.98,6.79-2.32,5.44-3.22,8.37-.72,3.59-.41,3.64.33,3.73.89,3.64,1.5,6.09,1.2,5.19,1.91,5.45,2.3,5.1c.47,1.04.83,1.7,1.23,2.87.34.99,1.38,2.07,2.02,3.06l1.11,1.72,2.11,2.1,4.25,4.05,1.89,1.65c3.07,2.68,6.37,4.73,10.37,5.31l6.97,1.01,5.66.77,4.57,1.02c5.12,1.14,10.14,1.82,15.38,2.03l6.26.24,3.76-.13,9.46-1.54,6.44-.86,4.01-.28c2.26-.16,4.33-.55,6.44-1.19,2.66-.8,5.42-3.37,6.27-5.77l1.12-3.17c.94-2.65,2.05-5.27,3.88-7.45,1.31-1.56,3.16-2.62,4.83-3.72l4.09-2.71c5.22-3.46,9.27-7.97,11.39-13.94,4.68-7.75.93-15.01.55-21.46-.19-3.28-.26-6.37-1.2-9.57-.32-1.08-.84-1.94-1.31-2.95l-1.39-2.93c-2.11-4.46-3.6-9.79-2.99-14.6.43-3.34,2.35-6.09,3.73-8.98l1.7-3.57c1.2-2.52.33-6.37-1.38-8.23-2.54-2.76-5.47-4.92-8.47-7.14l-3.19-2.36-2.88-2.62-6.96-5.63c-3.59-2.9-6.83-5.31-11.51-6.27-5.38-1.1-15.39,1.51-21.72,2.08l-7.99.72-3.3.07c-8.95-.97-15.72,1.24-22.68,6.7l-3.93,3.08c-2.65,2.08-5.7,3.6-8.99,4.18l-6.39,1.13-3.33.93-3.11,1.47c-1.35.64-2.61,1.9-3.71,2.99l-1.81,1.77c-1.82,1.78-3.2,3.5-5.39,4.87l-1.83,1.7c-.65.6-1.39.89-2.02,1.41l-1.68,1.39-3.06,2.48-1.96,1.72c-2.25,1.98-4.78,3.91-6,6.75-2.62,6.1-.12,12.56-1.31,18.39l-3.07,14.98c-.16.78-.27,2.27-.25,2.98l.07,2.81.31,1.62c.29,1.56,1.03,2.73,1.72,4.09l2.28,4.5,1.46,3.63,1.68,9.18.73,3.49,1.36,5.39.81,3.59,2.47,8.16c1.32,4.37,4.11,7.52,7.8,10.11l2.61,2.48,5.35,4.77c6.52,5.81,10.91,5.3,15.19,7.78l7.21,4.17c2.13,1.23,4.97,1.82,7.41,1.88,2.15.05,4.14-.42,6.13-.96l5.58-1.5,7.42-1.44,2.91-.62,7.61.55,4.08.06c1.88.03,3.61-.67,5.3-1.47l2.09-.99,4.17-2.28c1-.55,2.38-1.36,3.41-1.59l4.18-.9,5.84-.09,2.56-.02,3.3-.08c2.72-.07,6-.88,8.26-2.28,2.54-1.57,5.08-3.56,6.8-5.94l2.37-3.26,1.26-2.06,3.43-8.28c.84-2.02,2.19-3.95,3.51-5.65l2.19-2.81,1.27-1.05,1.81-1.92c1.46-1.55,3.03-3.22,4.08-5.06l2.14-3.74,4.09-6.67,2.43-4.34,1.63-2.27,5.55-7.67c.48-.66.57-2.12.86-2.8.86-2.01,1.52-3.8,1.69-5.99l.28-3.68c.2-2.64-.33-5.03-1.03-7.52l-.88-3.1c-.59-2.08-1.16-4.01-2.04-5.99-.67-1.53-1.19-3.29-2.08-4.65-1.68-2.56-1.89-5.32-1.85-8.35l.14-9.61-.18-3.06c-.14-2.44-.82-5.56-2.06-7.2l-3.72-4.91-2.38-3.05-3.16-4.29-1.91-2.61c-1.17-1.6-2-3.21-3.29-4.73-.83-.97-1.36-2.33-2.15-3.41-1.06-1.46-2.98-2.39-4.38-3.5-1.28-1.01-2.47-1.8-3.89-2.58l-9.26-5.08-2.67-1.65-4.36-3.01c-3.42-2.36-7.85-3.01-12.07-2.33l-20.17,3.24-4.88.31-6.16.28c-1.43.06-2.8.31-4.11.82l-4.88,1.89-2.42.87-4.24.84c-3.53.7-6.5,2.96-9.58,4.72l-2.98,1.7-5.29,2.99c-1.92,1.08-4.23,1.84-6.44,2.34l-4.24.96-3.05.59-3.69.68-3.12.57-3.61.62-6.16.67c-2.64.28-4.74,1.47-6.72,3.07l-6.11,4.93-5.57,3.27-3.57,1.98-2.25,1.75c-2.53,1.97-3.6,5.11-4.37,8.17-1.11,4.41-2.62,8.4-4.8,12.36l-2.24,4.86-.95,2.47-.28,1.87-.93,4.52-1.87,12.83-1.66,7.63-.84,2.53-.8,4.95c-.35,2.18.37,4.5,1.34,6.52l3.39,7.03,1.53,3.15,2.12,3.65,1.79,2.61c.89,1.29,2.81,2.55,3.46,3.94l2.06,4.45,1.35,2.95,1.41,2.91,2.8,4.32,2.08,2.03c4.13,5.48,7.34,11.28,9.24,17.81,1.1,3.78,2.68,7.37,6.09,9.55l4.8,3.07,4.19,1.74,7.78,2.11,4.11,1.11c.48.13,1.25.64,1.69.9l4.09,2.4c3.68,2.16,4.8,7.07,10.54,9.43,3.34,1.38,6.98,1.76,10.68,2.09l4.09.37,5.67.51c1.36-.26,2.76-.23,4.13.3l6.48.24,7.83.58c5.11.38,9.98.17,14.55-2.37l3.72-2.07,3.85-2.31,6.35-3.41,11.97-4.87,5.29-2.69,4.52-2.56,2.9-1.95,3.08-2.18,5.47-3.43,3.58-3.13,5.88-4.55,12.01-7.62c2.93-1.86,6-3.34,8.69-5.7l1.64-1.11c2.52-1.7,4.07-4.13,4.46-7.23l1.07-8.48.65-2.9c.55-2.44,1.84-4.05,3.72-5.51,1.38-1.08,2.5-2.45,3.65-3.68,4.85-5.19,6.15-11.1,4.21-18.01l-.22-3.8c-.06-1.05-.38-1.61-.35-2.59.17-5.67-2.13-10.6-4.36-15.59l-1.73-4.48-1.89-4.64-1.16-2.48c-1.94-4.16-6.22-6.45-7.09-9.67-.51-1.89-1.45-3.92-1.72-5.82l-1.05-7.29c-.51-3.55-1.54-6.67-2.54-10.04l-1.69-5.72c-.4-1.34-.5-3.02-.7-4.45l-.69-4.91c-.95-6.76-5.61-13.56-10.84-17.96l-5.5-4.63-2.38-1.52-2.2-1.24c-1.59-.9-3.49-1.47-5.24-2.15l-5.37-2.07-3.18-1.6-4.37-1.79c-5.2-2.13-8.02-4.12-14.84-5.17l-1.57-.45h50.69c.93,1.28,2.7,2.11,4.01,3.18l3.8,3.07,2.09,2.08,2.37,2.86,2.63,3.2,2.7,3.44,1.63,2.04,4.51,5.91,1.5,1.81c.99,1.62,1.87,3.1,3.09,4.65.53.67.75,1.51,1.17,2.25l3.62,6.39.98,2.05,1.69,4.16,1.49,4.31c.62,1.8.4,4.15.41,6.15,0,1.68-1.66,5.12-.02,8.9l3.24,7.47c.55,1.26.8,2.84.67,4.18-.35,3.55.49,6.46,1.62,9.68,1.33,3.77,2.19,7.65,2.52,11.62.41,4.88,1.29,9.34,2.8,13.98,1.11,3.41,1.96,6.82,2.18,10.42l-.25,2.73c-.28,3.01-2.13,5.3-3.52,7.85l-1.95,3.58c-1.52,2.78-2.44,6.21-2.42,9.41l.02,3.08-.29,4.93c-.1,1.96-.58,3.86-1.65,5.49-1,4.21-3.36,7.69-6.78,10.39l-4.11,3.24-2.55,2.01-4.45,3.28-4.91,2.7-6.3,3.18-5.99,3.49-1.95,1.07-3.71,2.19c-1.66.98-2.93,2.32-4.11,3.88l-1.95,2.59c-2.02,2.69-4.25,5.02-7.44,6.1l-6.11,2.08-5.5,1.62c-3.06.49-5.81,1.61-8.22,3.28l-5.04,2.15-6.88,2.9-6.54,3.03-2.39,1.55-1.88,1.39-2.89,1.53c-.31.16-.84.75-.98,1Z"/>
      <path class="cls-2" d="M130.78,239.41h-14.18s.16-2.24.16-2.24c-.49-1.3-2.39-1.36-3.64-1.55-2.94-.44-5.51-1.66-8.16-2.74-2.97-1.2-5.64-2.48-7.97-4.69-.78-.74-1.85-1.52-2.39-2.4-.44-.72-.72-1.05-1.23-1.64-1.42-1.62-2.33-3.71-3.14-5.68l-1.26-3.07c-1.23-2.99-2.21-6.03-4.21-8.68-.7-.93-1.93-2.29-2.83-2.83l-5.26-3.14-2.49-1.78c-1.65-1.18-2.52-2.73-3.71-4.32-2.75-3.67-4.64-7.54-6.31-11.75-1.4-3.53-1.93-7.01-1.64-10.91.27-3.6-.46-6.9-1.63-10.19s-4.23-7.41-4.68-11.58l-1.09-10.11-.78-7.75-1.4-8.44-1.27-7.46-.04-6.61v-4.63s.25-4.6.25-4.6c.35-6.18.3-12.05-.91-18.11l-.49-5.17c-.24-2.5-.52-5.23.15-7.51,2.04-6.88,8.44-6.44,11.75-8.5l5.49-3.41,4.59-2.1,2.34-.83c3.38-1.2,6.82-2.75,9.16-5.5l4.52-5.29c3.04-3.55,4.29-4.69,8.82-6.33l3.55-1.29,3.76-1.42,5.28-2.37,3.96-1.65,3.95-1.22c1.18-.51,2.44-.83,3.6-.89,2.45-1.09,4.88-1.79,7.42-2.46l2.22-.58,3.76-1.11,9.4-.97c2.54-.26,4.98-.44,7.47-1.04l4.68-1.14,2.68-.75,9.47-2.48,3.7-.77,3.02-.73,2.74-.94,6.19-2.15h36.46l1.57.45c6.82,1.05,9.64,3.04,14.84,5.17l4.37,1.79,3.18,1.6,5.37,2.07c1.75.67,3.65,1.25,5.24,2.15l2.2,1.24,2.38,1.52,5.5,4.63c5.23,4.4,9.89,11.2,10.84,17.96l.69,4.91c.2,1.43.3,3.1.7,4.45l1.69,5.72c1,3.37,2.03,6.49,2.54,10.04l1.05,7.29c.27,1.9,1.21,3.93,1.72,5.82.87,3.22,5.16,5.51,7.09,9.67l1.16,2.48,1.89,4.64,1.73,4.48c2.22,4.98,4.53,9.92,4.36,15.59-.03.98.29,1.54.35,2.59l.22,3.8c1.93,6.92.64,12.82-4.21,18.01-1.15,1.23-2.27,2.6-3.65,3.68-1.88,1.47-3.18,3.07-3.72,5.51l-.65,2.9-1.07,8.48c-.39,3.1-1.95,5.53-4.46,7.23l-1.64,1.11c-2.69,2.36-5.75,3.84-8.69,5.7l-12.01,7.62-5.88,4.55-3.58,3.13-5.47,3.43-3.08,2.18-2.9,1.95-4.52,2.56-5.29,2.69-11.97,4.87-6.35,3.41-3.85,2.31-3.72,2.07c-4.58,2.54-9.45,2.75-14.55,2.37l-7.83-.58-6.48-.24c-1.37-.53-2.77-.57-4.13-.3l-5.67-.51-4.09-.37c-3.7-.33-7.34-.71-10.68-2.09-5.74-2.37-6.86-7.27-10.54-9.43l-4.09-2.4c-.44-.26-1.21-.77-1.69-.9l-4.11-1.11-7.78-2.11-4.19-1.74-4.8-3.07c-3.41-2.18-4.99-5.77-6.09-9.55-1.9-6.53-5.1-12.33-9.24-17.81l-2.08-2.03-2.8-4.32-1.41-2.91-1.35-2.95-2.06-4.45c-.64-1.39-2.57-2.65-3.46-3.94l-1.79-2.61-2.12-3.65-1.53-3.15-3.39-7.03c-.98-2.02-1.69-4.34-1.34-6.52l.8-4.95.84-2.53,1.66-7.63,1.87-12.83.93-4.52.28-1.87.95-2.47,2.24-4.86c2.18-3.96,3.69-7.94,4.8-12.36.77-3.06,1.84-6.2,4.37-8.17l2.25-1.75,3.57-1.98,5.57-3.27,6.11-4.93c1.98-1.6,4.08-2.78,6.72-3.07l6.16-.67,3.61-.62,3.12-.57,3.69-.68,3.05-.59,4.24-.96c2.21-.5,4.52-1.25,6.44-2.34l5.29-2.99,2.98-1.7c3.08-1.76,6.05-4.02,9.58-4.72l4.24-.84,2.42-.87,4.88-1.89c1.31-.51,2.68-.75,4.11-.82l6.16-.28,4.88-.31,20.17-3.24c4.22-.68,8.65-.03,12.07,2.33l4.36,3.01,2.67,1.65,9.26,5.08c1.42.78,2.61,1.57,3.89,2.58,1.4,1.1,3.32,2.03,4.38,3.5.78,1.08,1.32,2.44,2.15,3.41,1.29,1.52,2.12,3.13,3.29,4.73l1.91,2.61,3.16,4.29,2.38,3.05,3.72,4.91c1.24,1.64,1.92,4.76,2.06,7.2l.18,3.06-.14,9.61c-.05,3.03.17,5.79,1.85,8.35.89,1.36,1.41,3.12,2.08,4.65.87,1.99,1.45,3.91,2.04,5.99l.88,3.1c.7,2.48,1.23,4.88,1.03,7.52l-.28,3.68c-.17,2.19-.83,3.98-1.69,5.99-.29.68-.38,2.13-.86,2.8l-5.55,7.67-1.63,2.27-2.43,4.34-4.09,6.67-2.14,3.74c-1.05,1.84-2.62,3.51-4.08,5.06l-1.81,1.92-1.27,1.05-2.19,2.81c-1.32,1.7-2.68,3.63-3.51,5.65l-3.43,8.28-1.26,2.06-2.37,3.26c-1.73,2.38-4.27,4.37-6.8,5.94-2.26,1.4-5.55,2.22-8.26,2.28l-3.3.08-2.56.02-5.84.09-4.18.9c-1.03.22-2.41,1.04-3.41,1.59l-4.17,2.28-2.09.99c-1.69.8-3.42,1.5-5.3,1.47l-4.08-.06-7.61-.55-2.91.62-7.42,1.44-5.58,1.5c-1.98.53-3.98,1.01-6.13.96-2.43-.05-5.28-.65-7.41-1.88l-7.21-4.17c-4.28-2.48-8.67-1.97-15.19-7.78l-5.35-4.77-2.61-2.48c-3.69-2.59-6.47-5.74-7.8-10.11l-2.47-8.16-.81-3.59-1.36-5.39-.73-3.49-1.68-9.18-1.46-3.63-2.28-4.5c-.69-1.36-1.43-2.53-1.72-4.09l-.31-1.62-.07-2.81c-.02-.71.09-2.2.25-2.98l3.07-14.98c1.19-5.83-1.31-12.3,1.31-18.39,1.22-2.84,3.75-4.77,6-6.75l1.96-1.72,3.06-2.48,1.68-1.39c.63-.52,1.38-.8,2.02-1.41l1.83-1.7c2.19-1.36,3.58-3.09,5.39-4.87l1.81-1.77c1.1-1.08,2.36-2.35,3.71-2.99l3.11-1.47,3.33-.93,6.39-1.13c3.29-.58,6.34-2.1,8.99-4.18l3.93-3.08c6.96-5.46,13.73-7.67,22.68-6.7l3.3-.07,7.99-.72c6.33-.57,16.34-3.18,21.72-2.08,4.68.96,7.92,3.37,11.51,6.27l6.96,5.63,2.88,2.62,3.19,2.36c3,2.22,5.93,4.38,8.47,7.14,1.71,1.86,2.58,5.72,1.38,8.23l-1.7,3.57c-1.38,2.9-3.31,5.64-3.73,8.98-.62,4.82.87,10.14,2.99,14.6l1.39,2.93c.48,1,1,1.87,1.31,2.95.94,3.2,1.01,6.29,1.2,9.57.38,6.45,4.13,13.71-.55,21.46-2.12,5.97-6.17,10.48-11.39,13.94l-4.09,2.71c-1.67,1.11-3.52,2.16-4.83,3.72-1.83,2.18-2.94,4.8-3.88,7.45l-1.12,3.17c-.85,2.4-3.62,4.96-6.27,5.77-2.11.64-4.18,1.03-6.44,1.19l-4.01.28-6.44.86-9.46,1.54-3.76.13-6.26-.24c-5.24-.2-10.26-.89-15.38-2.03l-4.57-1.02-5.66-.77-6.97-1.01c-4-.58-7.3-2.63-10.37-5.31l-1.89-1.65-4.25-4.05-2.11-2.1-1.11-1.72c-.64-.99-1.68-2.07-2.02-3.06-.4-1.17-.77-1.83-1.23-2.87l-2.3-5.1-1.91-5.45-1.2-5.19-1.5-6.09-.89-3.64-.33-3.73.41-3.64.72-3.59,3.22-8.37,2.32-5.44,2.98-6.79c1.12-2.55,2.51-4.91,4.35-6.99l2.73-3.09,1.85-1.84,4.96-4.53,3.76-2.98,2.45-1.85,4.5-2.77,2.82-1.71,2.48-.7,2.82-.97,4.53-.75,2.57-.41,3.46-.05,2.67-.02,5.48-.61,5.27-1.09,7.27-2.28c4.78-1.5,9.81-2.02,14.73-.61,3.07.88,5.25,3.2,7.42,5.4l3.64,3.69,4.49,4.73,2.83,2.93c4.36,5.61,2.81,11.14,5.99,17.64l2.73,5.58,3.39,7.63c1.66,3.72.98,7.45.82,11.09l-.33,7.09-.43,2.43c-.3,1.71-.15,3.2-.97,4.69-1.73,3.16-3.56,6.27-6.51,8.47l-2.12,1.59-2.29,1.43c-2.08,1.3-4.56,2.57-6.3,4.34-4.77,4.86-5.93,12.92-13.59,14.66-2.74.62-5.4,1.16-8.2,1.33l-6.01,1.62c-4.08,1.22-8.37,1.05-12.4-.39l-5.7-2.04-8.5-3.17-4.66-1.55-4.25-2.01c-3.08-1.46-4.8-3.94-6.03-6.91l-2.77-6.71c-1.05-2.53-2.48-4.77-3.97-6.98l-1.02-1.51-2.48-3.69c-.48-.71-1.1-1.39-1.34-2.21-.64-2.19-1.14-4.24-1.04-6.51l.14-3.29c.07-1.71.66-3.27,1.26-4.85l.86-2.25c.59-1.53,1.6-2.83,2.57-4.13l2.49-3.36,3.13-3.9,1.5-2.26,1.05-1.95,3.06-4.3,4-4.57c1.62-1.85,3.74-3.67,6.09-4.28l3.2-.83c3.74-.98,10,3.35,18.21-.51,4.54-2.13,8.66-6.6,13.75-7.34,7.9-1.14,15.43,10.52,17.53,17.8l.95,3.32c.92,3.2,2,6.18,3.34,9.26,1.46,3.37,2.49,6.75,2.68,10.47.12,2.41-.6,4.75-1.47,6.96-1.66,4.23-3.66,8.24-6.86,11.49l-2.92,2.97-2.99,3.13-2.37,3.1-1.56,2.16c-1.63,2.26-2.88,5.06-5.33,6.59l-3.59,2.25-3.52.8c-1.84.42-3.84.43-5.72-.05-.81-.21-2.24-.44-2.89-.82l-3.27-1.93-3.2-2c-.8-.5-1.36-.73-2.28-1.14l-3.97-1.77-3.12-1.76c-1.66-.94-3.11-2.16-4.46-3.5l-2.03-2.01-2.55-2.93-3.43-4.82c-.55-.77-1.03-2.21-1.35-3.23-.57-1.82-.49-4.53.3-6.21s1.31-3.06,1.51-4.67l2.01-2.34,2.55-2.89,6.59-6.23,3.56-2.58,10.73-5.55,3.39-1.55c4.17-1.9,8.74-3.76,12.24-.74.97.84,1.99,1.57,2.72,2.73l2.26,3.59,2.96,4.05c4.11,5.62,4.35,9.85,1.35,16.17l-2.97,6.26c-.8,1.68-1.91,2.95-3.1,4.29-.6.67-1.06,1.3-1.84,1.85-3.5,2.45-5.12,1.37-8.27.32l-5.09-1.7c-.92-.31-1.66-.41-2.71-.61l-5.03-.99c-1.48-.29-2.85-.98-4.07-1.74-2.37-1.48-3.56-3.59-3.69-6.28-.1-2.1.02-3.81,1.01-5.79.77-1.53,1.42-3.14,2.72-4.34l1.92-1.79,3.85-2.91c2.97-2.24,10.34-5.41,13.38-3.96,2.68,1.28,4.07,4.6,3.53,7.36-.41,2.1-2.37,3.14-4.26,2.54-1.08-3.11.86-5.48-1.57-5.31-6.78.47-12.52,4.3-15.86,10.33-.12.87-.4,2.35-.3,3.26.2,1.83,1.91,3.39,3.48,4.11,2.91,1.31,5.98,1.66,9.1,2.28,2.46.49,4.83,1.06,7.31.74,2.03-.27,4.24-.98,5.24-2.78l2.4-4.37c1.77-3.23,3.18-8.31,1.45-11.47l-3.04-5.56-2.21-3.32-1.97-2.34c-1.48-1.77-4.24-2.54-6.05-1.99-2.59.79-4.7,2.12-6.95,3.44l-3.53,2.07-3.56,1.96-2.65,1.62-4.95,3.32c-2.27,1.52-4.32,3.22-5.88,5.52-1.89,2.79-4.12,5.83-4.14,9.28s2.39,6.05,4.26,8.49c1.76,2.31,3.6,4.11,6.05,5.65l3.36,2.12,2.13.86,3.61,1.38,2.89,1.41,3.89,2.53c5.48,4.3,12.55,2.81,16.47-2.47l4.45-6,9.31-12.07,2.52-3.92,1.08-2c2.3-4.91,1.74-10.24-.49-15.13-1.84-4.03-3.33-7.95-4.65-12.19-1.56-4.99-5.03-10.44-9.29-13.32-.9-.61-2.4-1.07-3.51-1.46-1.49-.53-3.65.03-5.1.77l-3.2,1.65-3.99,2.4c-4.18,2.52-8.77,3.72-13.66,2.68-3.66-.78-7.41-.49-10.78,1.48-1.84,1.07-3.15,3.16-4.75,4.59-1.14,1.02-1.92,1.98-2.62,3.35l-2.27,4.45-.97,2.3-2.27,3.24c-.98,1.4-2.56,2.41-3.61,3.77-1.31,1.67-2.66,3.74-3.27,5.85l-.89,3.06-.63,2.47c-.7,2.73,1.03,7.81,2.73,10.47l1.45,2.26,1.95,3.21,3.91,8.13c.81,1.68,1.92,3.32,3.18,4.73l1.9,2.14,7.05,3.3,5.16,1.91,2.49.98,3.63,1.53c3.42,1.44,6.88,3.13,10.63,2.74l3.72-.38,6.67-1.29,6.47-1.8c1.67-.46,3.59-1.6,4.62-2.98l1.68-2.25,2-2.97,1.53-2.43,5.47-5.3,7.15-4.77c1.04-.69,2.44-2.04,3.05-2.92l1.71-2.46c.54-.78,1.04-2.15,1.42-3.12.85-2.17,1.4-4.28,1.64-6.64l1.08-10.52c.08-.77-.2-2.37-.33-3.19l-.46-2.77c-.29-1.71-1.78-3.37-2.44-4.98l-.81-1.98c-1.16-1.47-1.68-3.07-2.4-4.73-.6-1.4-1.41-2.75-1.79-4.29-.62-2.5-.98-5.04-2.26-7.36l-1.82-3.31-1.42-2.23-1.84-2.81c-.28-.42-1.25-.97-1.62-1.38l-4.65-5.16c-2.98-3.31-4.58-5.5-9.31-6.46l-2.15.07c-2.12.07-4.11.31-6.03,1.04l-4.7,1.77-6.16,2.16c-1.54.54-2.73,1.02-4.33,1.24-6.83.93-13.91-.78-17.89.37-1.61.47-3.59.81-4.93,1.55l-4.69,2.98-3.06,2.17-2.78,2.37-3.73,3.35-4.12,3.85-4.45,5.34-2.06,3.61-3.28,7.86-.76,2.02-1.84,4.47-1.65,4.48-.54,2.96c-.28,1.56-.46,3.65-.23,5.33l1.4,9.99.47,2.25c.78,3.69,2.45,7.13,4.38,10.3l6.3,10.34,2.59,3.45,2.51,3.05,3.08,3.45c2.9,1.33,5.65,2.66,8.64,3.05l7.43.96,5.24.76,3.84.56,6.16.93,6.46.69,4.33.04,4.26-.09,4.94-.68,2.78-.48,2.49-.3,6.11-.38c2.9-.18,6.15-.27,8.73-1.71l3.14-1.76,1.81-3.92,1.48-3.19c.71-1.54,1.2-3.66,2.5-4.83l3.09-2.8,1.98-1.32,6.14-3.35c1.13-.62,2.02-1.1,3.03-1.92,4.48-3.62,7.99-8.32,9.29-14.01.46-2.04.55-3.96.1-6.01l-1.76-8.01-.63-3.32c-.68-3.64-1.48-7.16-2.93-10.59l-1.72-4.09c-.94-2.24-1.57-4.48-1.73-6.89-.15-2.41-.51-4.81.02-7.2l.65-2.96c.9-2.85,2.24-5.33,3.68-7.95.47-.86.67-2.1.89-3.11.4-1.88-.1-3.33-1.23-4.92l-1.37-1.93-5.55-4.22-3.41-2.77-6.37-5.87-4.99-3.94c-3.39-2.68-8.44-4.16-12.73-3.84l-11.4.85-8.24.9-4.3.26-3.1.06-7.6.77c-4.69.76-8.9,2.36-12.8,4.98l-2.2,1.48-4.3,2.78c-3.28,2.11-7.03,3.23-10.86,4.09s-7.17,2.57-10.24,5.12l-4.85,4.02-4.83,3.8-10.43,9.12c-1.48,1.29-2.57,3.32-3.58,5-1.18,1.96-1.2,4.53-1.18,6.79.06,6.08-.69,11.74-2.4,17.53-1.13,3.84-1.93,7.56-1.54,11.63.43,4.48,4.79,9.28,5.77,13.45.4,1.7.74,3.49.78,5.16.09,4.14.88,8,1.98,11.97l1.72,6.24.59,2.44c.57,2.35,2.46,6.12,4.13,7.61l3.88,3.45,5.13,4.06,4.54,4.05,1.72,1.33,2.35,1.6,8.27,4.05,2.59,1.43,3.34,2.16c.81.52,1.56.8,2.53,1.04,3.72.91,7.44,1.01,11.36.07l9.1-2.18,4.31-.72c1.12-.19,1.78-.08,2.89-.3,2.6-.51,4.64.33,6.97-.03l5.59-.85c.86-.13,1.85-.43,2.62-.78l4.19-1.93c3.89-1.79,7.93-3,12.22-3.05l7.6-.08c2.25-.02,4.32-.6,6.49-1.11,3.58-.85,9.03-5.39,10.61-9.12l2.93-6.91,2.45-5.26,1.93-2.6,6.17-6.41,3.35-4.29c1.3-1.67,1.91-3.6,2.85-5.48,1.36-2.71,3.02-5.27,4.67-7.82l2.89-4.46,2.4-3.39c2.38-3.36,4.62-7.63,4.92-11.59l.17-2.26c.37-5.04-.77-9.92-2.25-14.77-1.41-4.61-4.54-7.58-4.75-15.12l-.27-9.38c-.12-4.12-.79-7.74-3.36-11.35l-1.7-2.38-3.36-4.32-4.21-4.96c-1.48-1.74-2.65-3.59-3.65-5.6l-1.77-1.86-2.98-3.23-2.46-1.4c-1.68-.96-3.24-2.25-4.96-2.95-2.39-.96-4.38-1.99-6.42-3.46l-4.51-3.24c-6.29-4.52-12.17-4.1-19.79-2.17l-10.03,2.53-2.47.51-3.69.65-5.56.25c-3.3.15-6.15.95-9.3,1.73l-9.94,2.46-3.01,1.24-2.7,1.54-6.78,4.54-2.79,1.87c-1.51,1.01-3.12,1.73-4.9,2.08l-4.44.88-2.88.47-5.85.75-3.68.32c-5.14.45-7.95-.63-13.29,3.9l-1.85,1.57c-3.74,2.97-7.58,5.54-11.81,7.79l-1.48,1.21-3.16,3.64-2.51,4.86-4.19,9.96-3.35,9.81-.49,2.15-1.23,5.44c.23,1.25.22,2.45-.48,3.68l-.1,2.48-1.78,8.5-.7,2.41-.7,2.61c-.28,1.03-.71,2.53-.71,3.41,0,2-.1,4.14.6,5.88l1.63,4.11,2.36,5.01,1.79,3.14,1.97,2.58c2.26,2.96,4.61,5.59,6.51,8.81l1.06,2.33,1.71,3.52,1.47,2.46,2.67,4.37,2.39,4.07,3.13,6.06,2.13,4.68,2.39,4.57c1.77,3.38,4.55,6.11,7.67,8.24l3.87,1.95,2.75,1.2,3.58,1.06c4.02,1.19,7.98,2.06,11.69,3.95,5.54,2.82,7.79,7.98,10.47,9.39,2.17,1.13,4.57,1.88,6.94,2.33l2.73.51,6.17.69c2.73.3,5.52.94,8.24.86,2.43-.07,4.66-.33,7.07.07l7.97,1.31c3.87.63,9.16-.15,12.19-1.98l4.98-3.01,2.14-1.5,2.75-1.86c1.22-.83,2.33-1.64,3.76-2.07l8.53-2.53,3.02-.91,7.14-3.9,2.66-1.9,2.12-1.59,3.48-2.63,2.67-1.93,5.1-4.12,2.53-2.27,2.2-2.16,2.72-2.18c6.92-5.57,12.75-6.16,17.97-9.21l1.49-1.41c6.75-4.41,1.82-15.19,7.93-22.02l1.76-1.97,5.49-4.9,1.37-1.69,1.89-3.05c1-1.61,1.25-3.76,1.22-5.67l-.04-2.79-.77-6.54-.31-3.43c-.23-2.51-.59-4.9-1.39-7.25-1.7-4.97-3.47-9.69-5.86-14.37-.39-.76-.56-1.58-1.26-2.18-.36-.32-.76-1.35-1.1-1.68l-4.3-4.2c-1.1-1.08-1.91-2.33-2.37-3.82l-1.77-5.81c.15-6.02-.7-11.54-2.3-17.4-5.89-9.41-1.03-17.83-8.77-27.65-1.41-1.78-3.1-3.5-4.88-4.85l-4.54-3.45c-1.08-.82-1.95-1.39-2.82-2.47l-2.98-1.04-4.33-1.68c-2.13-.83-4.09-1.77-6.14-2.7l-6.81-3.11-8.27-3.87c-1.02-.48-6.47-1.3-8.19-1.2l-3.39.2-4.59.19-4.24.19-3.46.06-4.58-.07-4.81-.22-2.44.06c-1.37-.36-1.99-.13-3.24.27-1.34.43-3.07.74-4.52.87s-2.41.62-3.77.92l-8.49,1.89c-4.36.97-8.51,2.04-12.67,3.67-3.7,1.45-7.32,2.51-11.3,2.79l-11.12.79c-2.02.14-3.97.85-5.93,1.44l-7.58,2.32-3.46.84-8.52,3.01-4.34,1.8-1.78.62-2.74.84c-2.44.75-4.66,1.35-6.58,3.05l-2.93,2.59-2.14,2.44c-3.05,4.2-7.33,6.6-12.04,8.54l-5.71,2.35c-1.82.75-3.56,2.11-5.21,3.25l-8.19,5.65c-1.03.71-2.11,2.16-2.79,3.24l-.56,2.53c-.84,3.8-.58,7.57-.23,11.44l.58,6.43.24,5.85.05,8.89v3.04c-.03,4.86.32,9.48.76,14.28l.69,7.62c.42,4.68,1.09,9.08,2.2,13.7.95,3.92,2.64,7.55,4.57,11.08.18.34.35,1.22.45,1.67,1.3,2.15,2.48,4.35,2.85,6.8.91,6.08-2.36,11.91,2.8,21.25l2.85,5.15,1.6,2.08c1.23,1.61,2.56,2.97,4.29,4.01l2.87,1.73c4.84,2.92,5.68,4.58,7.86,9.59l1.75,4.01c1.52,3.5,3,6.95,5.63,9.73,2.34,2.46,4.78,4.33,7.83,5.71l2.12.96,5.35,1.65,5.04,1.33,3.19.78,2.68,1.05,2.49,1.18,3.68,1.83c1.05.52,1.45,1.32,1.2,2.41Z"/>
      <path class="cls-3" d="M62.69,239.41h-28.44s-.5-1.86-.5-1.86l-1.63-2.9c-1.19-2.11-1.92-4.63-2.14-7.07l-.62-7.04-.28-4.33-.54-3.87c-.29-2.06-1.1-4.13-1.89-5.99l-4-9.48c-1.55-3.68-2.57-7.47-4.73-10.85l-2.1-2.49-2.87-2.96c-1.14-1.18-3.76-3.16-4.2-5.42-1.01-5.26.2-10.25-.78-14.22l-.86-3.45-.55-2.43c-.46-2.05-1.38-3.79-1.5-5.89l-.71-12.54c-.09-1.64-.67-3.73-1.45-5.17l-3.12-5.76c-1.3-2.4-2.43-5.05-2.13-7.91l.38-3.57.98-3.31,1.38-4.13,2.36-7.1.86-4.05c.37-1.76.77-3.04.55-4.85l-.64-5.22-.77-6.39,1.16-5.98.94-2.97.98-3.4,1.02-2.23,1.86-4.56c1.63-4,3.71-7.49,6.19-11l5.63-9.35c1.73-2.87,3.46-5.39,6.35-7.2l8.67-5.44c2.48-1.56,4.6-3.58,6.03-6.05l1.48-2.55,2.1-3.2.71-1.28h43.43s-4.65,2.22-4.65,2.22l-4.01,2.11-4.22,2.49-5.72,4.38-5.1,5.02-3.06,2.66-5.54,3.45-4.02,1.84-3.07,1.43-2.9,1.77c-2.63,1.61-4.31,4.33-6.09,6.76l-2.71,3.72c-3.15,4.31-5.72,9.14-6.49,14.49l-.83,10.99-.56,5.83-.13,9.54.65,12.86.41,2.4c.19,1.11.56,2.68,1.06,3.69l4.19,8.38,1.4,3.56c1.16,2.94,1.9,7.15,1.07,9.88l-.87,2.85-2.92,6.25c-1.65,3.52-1.84,7.53-1.48,11.4l.29,3.09c.38,4.02.42,7.91,2.37,11.55l1.07,1.99c.67,1.25,1.29,2.66,1.52,4.04l.78,4.72.57,3.73c.54,3.56,2.16,6.79,3.67,10.1,1.99,4.38,5.55,7.65,8.26,11.57l1.97,2.84c2.43,3.51,3.55,7.89,3.93,12.01l.49,5.36.7,4.51c.21,1.35.57,2.56,1.09,3.88l1.14,2.89,1.16,3.23Z"/>
      <path class="cls-3" d="M116.6,239.41h-48.64s-.89-2.11-.89-2.11c-2.43-4.61-3.33-9.79-3.5-15.07l-.11-3.42-.46-2.13c-.42-1.94-.86-3.64-1.76-5.38-1-1.94-1.98-3.83-3.37-5.53l-3.71-4.55-2.31-2.63c-1.32-1.51-2.71-3.42-3.52-5.26l-2.27-5.17-1.99-6.02c-1.25-3.77.04-9.01-3.73-17.03-.85-1.81-1.24-3.8-1.69-5.7-.61-2.57-.93-4.95-1.05-7.6l-.09-1.99.65-3.14,2.05-5.2,1.9-4.02c1.01-2.15,1.48-4.59.97-7.08l-.62-3.02-1.49-4.91-1.41-3.76-3.55-9.86c-1.13-4.67-1.51-9.38-1.53-14.12l-.03-7.83.13-4.28.15-3.38-.02-6.62.2-5.06c.73-5.23,2.88-10.01,6.02-14.21,2.96-3.97,7.97-9.6,12.24-11.33l3.5-1.41,4.9-2.22,1.61-.49,3.06-1.94,2.28-1.88,1.91-1.49,1.85-1.85c3.55-3.55,7.34-6.58,11.64-9.19l3.54-1.68,5.14-2.48,2.55-1.13,4.65-2.3h84.39s-6.19,2.15-6.19,2.15l-2.74.94-3.02.73-3.7.77-9.47,2.48-2.68.75-4.68,1.14c-2.49.6-4.93.78-7.47,1.04l-9.4.97-3.76,1.11-2.22.58c-2.54.67-4.98,1.37-7.42,2.46-1.17.06-2.42.38-3.6.89l-3.95,1.22-3.96,1.65-5.28,2.37-3.76,1.42-3.55,1.29c-4.53,1.64-5.79,2.77-8.82,6.33l-4.52,5.29c-2.35,2.75-5.79,4.3-9.16,5.5l-2.34.83-4.59,2.1-5.49,3.41c-3.31,2.06-9.71,1.62-11.75,8.5-.68,2.28-.39,5.01-.15,7.51l.49,5.17c1.21,6.07,1.26,11.94.91,18.11l-.26,4.6v4.63s.05,6.61.05,6.61l1.27,7.46,1.4,8.44.78,7.75,1.09,10.11c.45,4.17,3.46,8.16,4.68,11.58s1.9,6.59,1.63,10.19c-.29,3.91.24,7.39,1.64,10.91,1.67,4.21,3.56,8.08,6.31,11.75,1.19,1.59,2.07,3.14,3.71,4.32l2.49,1.78,5.26,3.14c.9.54,2.13,1.9,2.83,2.83,2.01,2.65,2.98,5.69,4.21,8.68l1.26,3.07c.81,1.97,1.71,4.06,3.14,5.68.52.59.79.92,1.23,1.64.54.87,1.61,1.65,2.39,2.4,2.33,2.21,5,3.49,7.97,4.69,2.65,1.08,5.21,2.3,8.16,2.74,1.25.19,3.15.25,3.64,1.55l-.16,2.24Z"/>
      <path class="cls-3" d="M29.61,239.41H8.1s-1.48-3.52-1.48-3.52l-4.44-7.54c-1.1-1.86-1.9-4.31-2.2-6.23l-.43-2.76c-.14-.88.26-2.26.27-3.26l.07-4.83-.68-4.05c-.19-1.13-1.09-3.11-1.78-4.11l-2.52-3.63-3.16-4.83c-1.43-2.18-2.47-4.78-3.01-7.35l-1.78-8.45-1.85-3.9c-1.64-3.47-3.78-6.5-4.82-10.22l-2.61-9.31-.48-1.96c-.32-1.31-.78-2.47-1.21-3.74l-.94-2.78c-1.42-4.18-2.97-8.21-3.57-12.64l-.56-2.76v-8.58c.39-.81.62-1.99.63-3.04l.04-8.1-.08-2.7c-.02-.69-.25-1.62-.59-2.23v-37.38s1.41-3.09,1.41-3.09l1.29-4.5c.89-3.08,1.09-6.34,2.3-9.32,1.83-4.47,4.97-8.02,8.86-10.73l3.63-2.53,2.73-2.09c1.64-1.26,3.12-2.34,4.5-3.85l2.19-2.39,1.64-2.26c2.09-3.81,4.32-7.49,7.91-9.92l4.21-2.85c.98-.66,1.84-1.2,2.62-2.1h25.43s-1.09,2.34-1.09,2.34c-1.49,2.9-3.36,5.36-5.99,7.27l-2.67,1.95-2.6,1.66-3.97,2.52-3.46,2.91c-1.05.88-1.83,1.86-2.47,3.06l-1.39,2.56-3.61,6.84-1.81,2.78-1.44,1.89c-1.54,2.02-2.88,3.83-4.06,6.06l-2.33,4.39-2.52,7.32-1.39,5.11-1.11,4.69c-.32,1.34-.5,2.79-.33,4.18l.92,7.58.1,3.53-.14,2.64c-.19,3.51-.6,6.97-1.65,10.4l-1.5,4.93-.84,2.8c-1.17,3.88-1.89,8.46-.04,11.99l1.48,2.84,2.53,4.3c1.56,2.64,1.83,5.88,1.86,9.03l.02,2.94.05,6.23c.02,1.9.21,4.07.92,5.83l1.01,2.49.96,2.29.73,2.31.67,2.67.51,3.92c.3,2.33.17,7.55,1.58,9.47l5.67,7.73,3.06,4.96c1.1,1.79,1.18,3.78,1.96,5.65l2.68,6.44,2.89,6.07,1.04,3.33.73,3.52.72,5.92c.46,3.82.54,7.84,2.19,11.37l1.38,2.96.71,1.81Z"/>
      <path class="cls-3" d="M261.83,239.41h-42.52s3.11-1.95,3.11-1.95l3.15-1.69,6.02-2.55,3.51-1.69,3.44-1.46,1.63-.86,7.5-3.12,3.72-.67,4.38-1.23,4.18-1.2c3.11-.89,6.58-3.34,8.23-5.9l2.2-3.4,1.97-2.24c1.82-2.07,4.38-3.46,6.79-4.81l5.76-3.2,9.78-5.2,5.27-3.61,2.98-2.52,2.31-1.64,3.12-2.76,3.02-3.36c1.44-1.6,2.43-3.48,3.17-5.49l1.4-3.81c.49-1.34,1.06-2.87,1.09-4.36l.22-8.73.71-4.51,1.26-3.71c.22-.64.95-1.87,1.37-2.45l3.19-4.51c1.1-1.56,1.82-3.2,2.25-5.15.71-3.21.2-3.97.21-5.57.02-2.13-.45-4.25-1.18-6.25l-1.88-5.14c-1.09-2.97-2.07-5.92-2.4-9.04l-1.1-10.54c-.57-5.44-2.91-9.25-2.92-12.59,0-3.04-.41-5.79-1.69-8.55l-2.04-4.41c-.83-1.79-1.38-3.55-1.1-5.61l.7-5.09c.51-3.66-.54-9.17-2.37-12.54-1.85-3.41-3.67-6.68-5.66-9.95l-3.39-5.55-1.53-2.11-1.57-2.15-2.6-3.51-1.55-2.15-2.49-2.98-2.41-3.12-3.38-4.27c-.77-.97-1.7-1.72-2.62-2.54l-4.4-4.08h32.12s3,3.03,3,3.03c2.02,1.86,3.79,4.03,5.33,6.27l6.64,9.67,1.52,2.68c1.83,3.23,3.7,6.25,4.3,9.89l2.64,16.02c.13.8.54,2.11.8,2.83,1.15,1.99,2.04,3.79,2.67,5.95.45,1.54,1.12,2.87,1.73,4.37.67,1.64.96,3.6,1.45,5.4.56,2.08,1.75,3.89,2.58,5.87.96,2.29.94,6.24.28,8.71l-.9,3.38-1.2,4.37-.95,3.44c-.52,1.89-.23,4.81,1.09,6.36,1.86,2.18,4.28,4.22,4.98,7.2s-.17,8.48-.82,12.19l-1.74,9.84-.92,4.26c-.4,1.87-.83,3.65-1.87,5.2l-2.56,3.84-2.29,3.02c-2.44,3.22-4.42,6.81-4.2,10.94l.35,6.71c.18,3.38-.57,6.83-3.14,9.09l-4.55,3.99c-3.45,3.02-6.63,5.93-9.51,9.46l-2.46,2.51c-1.46,1.54-3.06,2.66-4.96,3.6l-6.79,3.34-4.21,2.79-2.66,2.51c-2.39,2.26-4.21,4.54-5.83,7.42l-2.95,5.24c-.8,1.42-4.2,4.77-5.7,5.64l-2.72,1.58-7.87,3.12-3.99,1.61-2.83,1.4c-.18.09-.62.64-.7.74Z"/>
      <path class="cls-3" d="M371.67,116.86v2.14s-.44-.09-.45.02l-.12.88-.84,6.06-.6,2.75-1.26,5.54-.58,2.08-1.27,5.17c-.7,2.84-1.33,5.6-2.35,8.39l-7.74,21.2c.03,1.69-.5,3.14-.78,4.74l-1.4,8-.66,2.61-2.62,7.09-1.3,3.04c-1.12,2.63-1.48,5.58-2.49,8.37-.41.67-1.25,2.04-1.89,2.56l-3.21,2.62-2.23,1.73c-3.27,1.73-6.28,3.57-9.15,5.86l-4.46,3.55-1.6,1.5-2.36,2.48-4.44,3.54c-1.5,1.19-2.64,2.37-3.98,3.71l-3.06,3.08-1.94,1.99-1.36,1.84h-37.67s5.41-2.07,5.41-2.07c3.56-1.32,7-2.91,9.9-5.36l3.42-3.65,1.51-1.91,2.2-4.01,2.04-3.03c3.34-4.97,8.38-8.11,13.87-10.51,1.85-.81,3.61-2.18,5.32-3.41l2.48-1.78,3.12-3.05,3.05-3.7,2.28-2.56,2.28-2.08c2.75-2.51,5.73-4.95,7.74-8.02,1.55-2.38,1.87-4.91,1.93-7.53l.12-5.07.27-3.27c.16-1.9.97-3.86,1.96-5.43l3.45-5.5,1.8-2.75,1.52-2.76,1.43-3.47.66-2.75.35-1.86.83-4.91.65-5.19.95-5.5c.74-4.29,1.49-10.89-.35-13.99l-1.27-2.15-1.04-2.69c-.65-1.7-.7-4.28-.44-6.22l.54-4.11.09-2.68c.13-3.95.31-7.58-.78-11.45-.67-2.36-1.78-4.63-2.19-7.06l-.15-3.64c-.1-2.34-1.32-4.04-2.31-5.95-.88-1.7-1.61-3.14-2.74-4.75-.87-1.24-1.42-3.06-1.76-4.64-.25-1.15.03-2.53.16-3.71.27-2.4-.35-5.01-.89-7.43l-.69-3.04c-.73-3.22-2.18-5.9-3.92-8.66l-3.89-6.18-2.69-4.08-1.51-2.21-3.33-4.66c-1.38-1.93-3.06-3.39-3.92-5.03h23.21s.98,1.67.98,1.67l2.96,3.97,1.09,2.39,8,17.38c.89,1.94,1.78,3.66,2.77,5.51l1.93,3.62c1.69,3.16,3.09,5.98,3.97,9.5,1.38,5.53,3.11,10.68,5.14,16.03.4,1.06.7,2.43.97,3.54l.91,3.75.58,4.11c.46,3.22.24,6.43.69,9.75l.39,2.88c.03.25-.28,1.12-.04,1.11l.79.08v17.65Z"/>
      <path class="cls-3" d="M371.67,195.99l-4.35,7.24-2.57,4.17-3.44,6.06-1.4,3.5-2.03,4.4-2.76,4.27-3.4,3.44-2.12,1.4c-1.9,1.26-3.43,2.71-4.54,4.65-1.49,1.16-2.69,2.7-3.55,4.29h-27.83c.32-1.07,1.15-2.12,2.08-2.94l2.43-2.13,4-3.35,4.97-4.52,5.65-4.76c3.71-2.64,7.47-4.91,11.57-6.82,2.92-1.36,6.18-4.51,7.04-7.68l.77-2.84,1.12-4.38c.65-2.54,1.8-4.74,2.63-7.22l1.26-3.74,1.55-5.44,1.43-7.07.93-4.27.68-2.12,3.46-10.6,1.88-5.48,2.32-7.47,1.34-5.13.9-3.89v58.44Z"/>
      <path class="cls-3" d="M2.96,239.41H-14.79s-4.14-8.3-4.14-8.3l-1.79-3.12-1.07-2.22-1.84-4.06c-1.36-3.16-2.84-6.19-4.68-9.09l-.77-.34v-63.61c.3.24.66.94.79,1.37l1.13,3.74,1.43,4.72,1.82,5.6,1.28,3.69c2.13,6.16,5.63,9.53,6.83,13.63l3.06,10.4,1.34,3.18,1.86,4,1.06,1.96,2.44,5.01c.61,1.26,1.12,3.43,1.1,4.9l-.08,5.21-.03,3.99.08,3.44c.04,1.74.49,3.34,1.35,4.8l1.59,2.69,3.69,5.63,1.29,2.78Z"/>
      <path class="cls-2" d="M219.31,239.41h-8.06c.14-.26.67-.84.98-1l2.89-1.53,1.88-1.39,2.39-1.55,6.54-3.03,6.88-2.9,5.04-2.15c2.41-1.67,5.16-2.79,8.22-3.28l5.5-1.62,6.11-2.08c3.18-1.09,5.41-3.42,7.44-6.1l1.95-2.59c1.18-1.57,2.46-2.91,4.11-3.88l3.71-2.19,1.95-1.07,5.99-3.49,6.3-3.18,4.91-2.7,4.45-3.28,2.55-2.01,4.11-3.24c3.42-2.69,5.78-6.18,6.78-10.39,1.07-1.64,1.55-3.54,1.65-5.49l.29-4.93-.02-3.08c-.02-3.2.91-6.63,2.42-9.41l1.95-3.58c1.39-2.54,3.25-4.83,3.52-7.85l.25-2.73c-.22-3.6-1.07-7-2.18-10.42-1.51-4.64-2.39-9.1-2.8-13.98-.33-3.98-1.2-7.85-2.52-11.62-1.13-3.21-1.97-6.12-1.62-9.68.13-1.34-.12-2.92-.67-4.18l-3.24-7.47c-1.64-3.77.03-7.21.02-8.9,0-2,.21-4.35-.41-6.15l-1.49-4.31-1.69-4.16-.98-2.05-3.62-6.39c-.42-.74-.64-1.58-1.17-2.25-1.22-1.55-2.09-3.02-3.09-4.65l-1.5-1.81-4.51-5.91-1.63-2.04-2.7-3.44-2.63-3.2-2.37-2.86-2.09-2.08-3.8-3.07c-1.32-1.06-3.08-1.9-4.01-3.18h7.37s4.4,4.08,4.4,4.08c.92.82,1.85,1.57,2.62,2.54l3.38,4.27,2.41,3.12,2.49,2.98,1.55,2.15,2.6,3.51,1.57,2.15,1.53,2.11,3.39,5.55c2,3.27,3.81,6.54,5.66,9.95,1.83,3.37,2.88,8.88,2.37,12.54l-.7,5.09c-.28,2.06.27,3.82,1.1,5.61l2.04,4.41c1.28,2.76,1.68,5.51,1.69,8.55,0,3.33,2.35,7.14,2.92,12.59l1.1,10.54c.32,3.12,1.31,6.07,2.4,9.04l1.88,5.14c.73,2,1.2,4.12,1.18,6.25-.02,1.6.49,2.36-.21,5.57-.43,1.95-1.15,3.59-2.25,5.15l-3.19,4.51c-.41.58-1.15,1.81-1.37,2.45l-1.26,3.71-.71,4.51-.22,8.73c-.04,1.48-.6,3.01-1.09,4.36l-1.4,3.81c-.74,2.02-1.73,3.89-3.17,5.49l-3.02,3.36-3.12,2.76-2.31,1.64-2.98,2.52-5.27,3.61-9.78,5.2-5.76,3.2c-2.41,1.34-4.97,2.73-6.79,4.81l-1.97,2.24-2.2,3.4c-1.65,2.56-5.12,5-8.23,5.9l-4.18,1.2-4.38,1.23-3.72.67-7.5,3.12-1.63.86-3.44,1.46-3.51,1.69-6.02,2.55-3.15,1.69-3.11,1.95Z"/>
      <path class="cls-2" d="M269.86,239.41h-8.03c.07-.1.51-.65.7-.74l2.83-1.4,3.99-1.61,7.87-3.12,2.72-1.58c1.5-.87,4.9-4.22,5.7-5.64l2.95-5.24c1.62-2.89,3.44-5.16,5.83-7.42l2.66-2.51,4.21-2.79,6.79-3.34c1.9-.93,3.5-2.06,4.96-3.6l2.46-2.51c2.88-3.54,6.06-6.44,9.51-9.46l4.55-3.99c2.58-2.26,3.32-5.71,3.14-9.09l-.35-6.71c-.22-4.13,1.76-7.71,4.2-10.94l2.29-3.02,2.56-3.84c1.04-1.56,1.47-3.33,1.87-5.2l.92-4.26,1.74-9.84c.66-3.72,1.55-9.09.82-12.19s-3.12-5.01-4.98-7.2c-1.32-1.56-1.61-4.48-1.09-6.36l.95-3.44,1.2-4.37.9-3.38c.66-2.47.68-6.42-.28-8.71-.83-1.98-2.02-3.79-2.58-5.87-.48-1.81-.78-3.77-1.45-5.4-.61-1.51-1.28-2.84-1.73-4.37-.63-2.16-1.52-3.96-2.67-5.95-.26-.71-.67-2.03-.8-2.83l-2.64-16.02c-.6-3.64-2.47-6.67-4.3-9.89l-1.52-2.68-6.64-9.67c-1.54-2.24-3.31-4.41-5.33-6.27l-3-3.03h6.52c.86,1.64,2.54,3.1,3.92,5.03l3.33,4.66,1.51,2.21,2.69,4.08,3.89,6.18c1.74,2.76,3.19,5.44,3.92,8.66l.69,3.04c.55,2.42,1.16,5.02.89,7.43-.13,1.18-.42,2.56-.16,3.71.35,1.57.89,3.4,1.76,4.64,1.13,1.6,1.86,3.05,2.74,4.75,1,1.92,2.21,3.61,2.31,5.95l.15,3.64c.42,2.43,1.53,4.71,2.19,7.06,1.09,3.87.91,7.5.78,11.45l-.09,2.68-.54,4.11c-.26,1.94-.21,4.53.44,6.22l1.04,2.69,1.27,2.15c1.83,3.11,1.09,9.7.35,13.99l-.95,5.5-.65,5.19-.83,4.91-.35,1.86-.66,2.75-1.43,3.47-1.52,2.76-1.8,2.75-3.45,5.5c-.99,1.58-1.81,3.53-1.96,5.43l-.27,3.27-.12,5.07c-.06,2.63-.38,5.16-1.93,7.53-2,3.07-4.99,5.51-7.74,8.02l-2.28,2.08-2.28,2.56-3.05,3.7-3.12,3.05-2.48,1.78c-1.71,1.23-3.47,2.6-5.32,3.41-5.48,2.4-10.52,5.55-13.87,10.51l-2.04,3.03-2.2,4.01-1.51,1.91-3.42,3.65c-2.89,2.46-6.34,4.04-9.9,5.36l-5.41,2.07Z"/>
      <path class="cls-2" d="M34.25,239.41h-4.64s-.71-1.81-.71-1.81l-1.38-2.96c-1.65-3.53-1.72-7.55-2.19-11.37l-.72-5.92-.73-3.52-1.04-3.33-2.89-6.07-2.68-6.44c-.78-1.88-.86-3.86-1.96-5.65l-3.06-4.96-5.67-7.73c-1.41-1.92-1.27-7.14-1.58-9.47l-.51-3.92-.67-2.67-.73-2.31-.96-2.29-1.01-2.49c-.71-1.77-.9-3.93-.92-5.83l-.05-6.23-.02-2.94c-.02-3.16-.3-6.39-1.86-9.03l-2.53-4.3-1.48-2.84c-1.84-3.53-1.12-8.12.04-11.99l.84-2.8,1.5-4.93c1.04-3.43,1.46-6.89,1.65-10.4l.14-2.64-.1-3.53-.92-7.58c-.17-1.39.02-2.84.33-4.18l1.11-4.69,1.39-5.11,2.52-7.32,2.33-4.39c1.18-2.23,2.52-4.03,4.06-6.06l1.44-1.89,1.81-2.78,3.61-6.84,1.39-2.56c.65-1.2,1.43-2.17,2.47-3.06l3.46-2.91,3.97-2.52,2.6-1.66,2.67-1.95c2.62-1.91,4.49-4.37,5.99-7.27l1.09-2.34h6.19s-.71,1.28-.71,1.28l-2.1,3.2-1.48,2.55c-1.43,2.47-3.55,4.5-6.03,6.05l-8.67,5.44c-2.89,1.82-4.63,4.33-6.35,7.2l-5.63,9.35c-2.47,3.51-4.56,7-6.19,11l-1.86,4.56-1.02,2.23-.98,3.4-.94,2.97-1.16,5.98.77,6.39.64,5.22c.22,1.81-.17,3.09-.55,4.85l-.86,4.05-2.36,7.1-1.38,4.13-.98,3.31-.38,3.57c-.3,2.85.84,5.51,2.13,7.91l3.12,5.76c.78,1.44,1.36,3.53,1.45,5.17l.71,12.54c.12,2.1,1.04,3.85,1.5,5.89l.55,2.43.86,3.45c.99,3.97-.23,8.96.78,14.22.44,2.26,3.05,4.24,4.2,5.42l2.87,2.96,2.1,2.49c2.16,3.38,3.18,7.17,4.73,10.85l4,9.48c.79,1.87,1.6,3.93,1.89,5.99l.54,3.87.28,4.33.62,7.04c.22,2.45.95,4.97,2.14,7.07l1.63,2.9.5,1.86Z"/>
      <path class="cls-2" d="M67.96,239.41h-5.27s-1.16-3.23-1.16-3.23l-1.14-2.89c-.52-1.32-.88-2.53-1.09-3.88l-.7-4.51-.49-5.36c-.38-4.12-1.5-8.5-3.93-12.01l-1.97-2.84c-2.71-3.92-6.27-7.19-8.26-11.57-1.5-3.31-3.12-6.54-3.67-10.1l-.57-3.73-.78-4.72c-.23-1.38-.84-2.79-1.52-4.04l-1.07-1.99c-1.95-3.64-1.99-7.54-2.37-11.55l-.29-3.09c-.37-3.87-.17-7.89,1.48-11.4l2.92-6.25.87-2.85c.83-2.74.08-6.94-1.07-9.88l-1.4-3.56-4.19-8.38c-.5-1-.87-2.57-1.06-3.69l-.41-2.4-.65-12.86.13-9.54.56-5.83.83-10.99c.76-5.35,3.34-10.18,6.49-14.49l2.71-3.72c1.77-2.43,3.45-5.15,6.09-6.76l2.9-1.77,3.07-1.43,4.02-1.84,5.54-3.45,3.06-2.66,5.1-5.02,5.72-4.38,4.22-2.49,4.01-2.11,4.65-2.22h10.51s-4.65,2.3-4.65,2.3l-2.55,1.13-5.14,2.48-3.54,1.68c-4.3,2.61-8.09,5.64-11.64,9.19l-1.85,1.85-1.91,1.49-2.28,1.88-3.06,1.94-1.61.49-4.9,2.22-3.5,1.41c-4.26,1.72-9.27,7.36-12.24,11.33-3.14,4.2-5.29,8.98-6.02,14.21l-.2,5.06.02,6.62-.15,3.38-.13,4.28.03,7.83c.02,4.74.39,9.45,1.53,14.12l3.55,9.86,1.41,3.76,1.49,4.91.62,3.02c.51,2.49.05,4.94-.97,7.08l-1.9,4.02-2.05,5.2-.65,3.14.09,1.99c.11,2.65.44,5.03,1.05,7.6.45,1.9.84,3.89,1.69,5.7,3.77,8.02,2.49,13.27,3.73,17.03l1.99,6.02,2.27,5.17c.81,1.84,2.2,3.75,3.52,5.26l2.31,2.63,3.71,4.55c1.39,1.7,2.37,3.6,3.37,5.53.9,1.74,1.34,3.43,1.76,5.38l.46,2.13.11,3.42c.17,5.28,1.07,10.46,3.5,15.07l.89,2.11Z"/>
      <path class="cls-3" d="M-29.08,55.44V19.34s6.06-3.62,6.06-3.62l2.93-1.8H6.87c-3.05,2.03-5.94,4.59-7.95,7.73l-4.23,6.61c-.39.61-1.19,1.73-1.69,2.19l-4.01,3.66-5.86,4.3-1.74,1.3c-2.34,1.74-4.05,3.9-5.76,6.19-1.52,2.04-2.74,4.06-3.24,6.63-.31.49-.84,1.43-1,1.94l-.47.98Z"/>
      <path class="cls-2" d="M371.67,137.54l-.9,3.89-1.34,5.13-2.32,7.47-1.88,5.48-3.46,10.6-.68,2.12-.93,4.27-1.43,7.07-1.55,5.44-1.26,3.74c-.83,2.48-1.98,4.68-2.63,7.22l-1.12,4.38-.77,2.84c-.86,3.17-4.13,6.32-7.04,7.68-4.1,1.92-7.87,4.19-11.57,6.82l-5.65,4.76-4.97,4.52-4,3.35-2.43,2.13c-.94.82-1.76,1.87-2.08,2.95h-6.13s1.36-1.84,1.36-1.84l1.94-1.99,3.06-3.08c1.33-1.34,2.48-2.52,3.98-3.71l4.44-3.54,2.36-2.48,1.6-1.5,4.46-3.55c2.88-2.29,5.88-4.13,9.15-5.86l2.23-1.73,3.21-2.62c.63-.52,1.48-1.89,1.89-2.56,1.01-2.79,1.36-5.74,2.49-8.37l1.3-3.04,2.62-7.09.66-2.61,1.4-8c.28-1.61.8-3.05.78-4.74l7.74-21.2c1.02-2.8,1.65-5.56,2.35-8.39l1.27-5.17.58-2.08,1.26-5.54.6-2.75.84-6.06.12-.88c.02-.11.41-.03.45-.02v18.54Z"/>
      <path class="cls-2" d="M2.96,239.41l-1.29-2.78-3.69-5.63-1.59-2.69c-.87-1.46-1.31-3.06-1.35-4.8l-.08-3.44.03-3.99.08-5.21c.02-1.47-.49-3.65-1.1-4.9l-2.44-5.01-1.06-1.96-1.86-4-1.34-3.18-3.06-10.4c-1.21-4.11-4.7-7.47-6.83-13.63l-1.28-3.69-1.82-5.6-1.43-4.72-1.13-3.74c-.13-.43-.49-1.13-.79-1.37v-17.11s.56,2.76.56,2.76c.61,4.42,2.15,8.45,3.57,12.64l.94,2.78c.43,1.27.89,2.43,1.21,3.74l.48,1.96,2.61,9.31c1.04,3.72,3.17,6.75,4.82,10.22l1.85,3.9,1.78,8.45c.54,2.57,1.58,5.17,3.01,7.35l3.16,4.83,2.52,3.63c.7,1,1.59,2.98,1.78,4.11l.68,4.05-.07,4.83c-.01,1-.41,2.38-.27,3.26l.43,2.76c.3,1.92,1.11,4.37,2.2,6.23l4.44,7.54,1.48,3.52H2.96Z"/>
      <path class="cls-2" d="M371.67,99.21l-.79-.08c-.24,0,.07-.87.04-1.11l-.39-2.88c-.45-3.32-.23-6.53-.69-9.75l-.58-4.11-.91-3.75c-.27-1.11-.57-2.48-.97-3.54-2.03-5.35-3.77-10.5-5.14-16.03-.88-3.52-2.28-6.34-3.97-9.5l-1.93-3.62c-.99-1.85-1.88-3.57-2.77-5.51l-8-17.38-1.09-2.39-2.96-3.97-.98-1.67h5.24s1.98,3.17,1.98,3.17c.75,1.22,1.32,2.43,2,3.77,2.99,5.85,5.61,11.67,7.94,17.75l1.88,4.92,2.79,6.31.87,2.2,1.1,2.97c.88,2.37,1.74,4.69,2.8,6.97,1.24,2.67,2.29,5.25,3.35,7.98l1.2,2.89v26.36Z"/>
      <path class="cls-2" d="M-29.08,69.54v-14.1s.47-.98.47-.98c.16-.51.7-1.44,1-1.94.5-2.57,1.72-4.59,3.24-6.63,1.71-2.29,3.42-4.45,5.76-6.19l1.74-1.3,5.86-4.3,4.01-3.66c.5-.46,1.3-1.58,1.69-2.19l4.23-6.61c2.01-3.14,4.89-5.69,7.95-7.72h7.35c-.78.9-1.64,1.44-2.62,2.1l-4.21,2.85c-3.59,2.43-5.82,6.11-7.91,9.92l-1.64,2.26-2.19,2.39c-1.38,1.5-2.86,2.59-4.5,3.85l-2.73,2.09-3.63,2.53c-3.89,2.71-7.03,6.26-8.86,10.73-1.22,2.98-1.42,6.23-2.3,9.32l-1.29,4.5-1.41,3.09Z"/>
      <path class="cls-2" d="M371.67,205.27l-1.13,1.14-2.72,4.08c-1.85,2.77-3.4,5.6-4.76,8.63l-1.72,3.84c-1.7,3.8-4.02,6.97-7.35,9.52l-1.76,1.56-1.89,1.8-1.8,1.64-1.76,1.93h-5.28c.86-1.59,2.06-3.13,3.55-4.29,1.11-1.93,2.63-3.38,4.54-4.65l2.12-1.4,3.4-3.44,2.76-4.27,2.03-4.4,1.4-3.5,3.44-6.06,2.57-4.17,4.35-7.24v9.29Z"/>
    </g>
  </g>
</svg>