<svg width="334" height="334" viewBox="0 0 334 334" fill="none" xmlns="http://www.w3.org/2000/svg">
<g clip-path="url(#clip0_1356_4842)">
<rect width="334" height="334" fill="#F4F7FC"/>
<path d="M226.462 333.542H107.465C107.835 331.93 107.243 330.747 105.691 329.978L100.249 327.272L96.5676 325.528L92.605 323.975L87.8883 322.822L80.4362 320.855L72.5257 318.416L69.3911 316.996C64.8665 314.956 61.2588 312.191 57.8136 308.553C53.9249 304.443 51.7366 299.342 49.4891 294.167L46.9016 288.238C43.6783 280.83 42.4362 278.375 35.2798 274.058L31.0363 271.5C28.4931 269.962 26.5118 267.951 24.6931 265.571L22.3273 262.495L18.1133 254.88C10.469 241.056 15.3188 232.45 13.9733 223.46C13.4262 219.838 11.6814 216.585 9.75927 213.406C9.61141 212.755 9.36005 211.439 9.0939 210.937C6.24021 205.702 3.74139 200.35 2.33672 194.554C0.695477 187.723 -0.295183 181.217 -0.916194 174.297L-1.93642 163.03C-2.58701 155.933 -3.10451 149.102 -3.07494 141.916V137.421L-3.13409 124.276L-3.48895 115.626L-4.34654 106.119C-4.86404 100.397 -5.24848 94.8224 -4.00646 89.2037L-3.17844 85.4628C-2.173 83.8807 -0.576113 81.722 0.946841 80.6722L13.0565 72.3181C15.4962 70.6325 18.069 68.6217 20.76 67.5127L29.2028 64.038C36.1522 61.1695 42.4954 57.6209 47.0051 51.4108L50.1693 47.803L54.5016 43.9734C57.3405 41.4598 60.623 40.5727 64.2308 39.4637L68.2821 38.2217L70.914 37.305L77.3311 34.6435L89.9287 30.1929L95.0447 28.9509L106.252 25.5206C109.151 24.6334 112.034 23.5984 115.021 23.3914L131.463 22.2233C137.362 21.8093 142.715 20.2272 148.171 18.098C154.322 15.6879 160.458 14.1058 166.904 12.6716L179.458 9.87702C181.469 9.43344 182.888 8.70893 185.032 8.51671C187.176 8.3245 189.734 7.85134 191.715 7.23033C193.564 6.6389 194.48 6.29882 196.506 6.83112L200.114 6.7424L207.226 7.06769L213.998 7.17119L219.114 7.08248L225.383 6.80154L232.17 6.52061L237.182 6.22489C239.725 6.07703 247.784 7.28948 249.292 7.9992L261.52 13.7214L271.589 18.3198C274.605 19.6949 277.518 21.0996 280.668 22.312L287.07 24.7961L291.476 26.3338C292.763 27.9159 294.064 28.7735 295.646 29.9859L302.359 35.0871C304.991 37.0832 307.504 39.6264 309.574 42.2583C321.033 56.7633 313.833 69.2279 322.541 83.1415C324.907 91.806 326.149 99.9679 325.942 108.869L328.559 117.46C329.225 119.663 330.437 121.511 332.064 123.108L338.422 129.318C338.924 129.821 339.516 131.344 340.048 131.802C341.068 132.689 341.334 133.902 341.911 135.025C345.445 141.945 348.062 148.924 350.576 156.273C351.759 159.748 352.306 163.267 352.631 166.993L353.089 172.064L354.228 181.734L354.287 185.86C354.331 188.669 353.947 191.863 352.483 194.243L349.689 198.753L347.663 201.252L339.545 208.497L336.943 211.41C327.909 221.523 335.198 237.463 325.218 243.968L323.015 246.053C315.311 250.563 306.691 251.45 296.444 259.671L292.422 262.894L289.17 266.088L285.429 269.445L277.888 275.536L273.94 278.39L268.795 282.279L265.66 284.63L261.727 287.439L251.17 293.206L246.704 294.551L234.092 298.292C231.977 298.913 230.336 300.125 228.532 301.353L224.466 304.103L221.302 306.321L213.939 310.771C209.458 313.477 201.637 314.63 195.915 313.699L184.13 311.762C180.567 311.171 177.269 311.555 173.676 311.658C169.655 311.777 165.529 310.845 161.493 310.387L152.37 309.367L148.333 308.613C144.829 307.962 141.266 306.853 138.072 305.167C134.109 303.097 130.782 295.468 122.591 291.283C117.105 288.489 111.25 287.203 105.306 285.443L100.013 283.876L95.9466 282.101L90.2245 279.218C85.6113 276.083 81.5007 272.047 78.8836 267.034L75.3498 260.277L72.2004 253.357L67.5724 244.397L64.0385 238.379L60.0907 231.918L57.9171 228.28L55.3887 223.076L53.8214 219.631C51.0121 214.87 47.5226 210.981 44.1958 206.604L41.2829 202.789L38.6363 198.147L35.1468 190.739L32.7367 184.662C31.7164 182.074 31.8495 178.91 31.8495 175.968C31.8495 174.667 32.4853 172.449 32.8993 170.926L33.9343 167.067L34.9693 163.503L37.6012 150.935L37.7491 147.268C38.7841 145.435 38.7989 143.675 38.4588 141.827L40.2775 133.783L41.002 130.604L45.9553 116.099L52.1506 101.373L55.8619 94.1866L60.5343 88.8045L62.7226 87.0154C68.977 83.6885 74.6549 79.8885 80.1848 75.4971L82.9202 73.1757C90.8011 66.4925 94.9708 68.0893 102.571 67.4092L108.012 66.936L116.662 65.8271L120.92 65.1322L127.485 63.831C130.117 63.3135 132.498 62.2489 134.73 60.7555L138.855 57.9905L148.88 51.2777L152.873 49.0007L157.323 47.1672L172.02 43.5299C176.678 42.3766 180.892 41.1937 185.771 40.9719L193.992 40.6023L199.448 39.6412L203.101 38.8871L217.931 35.1462C229.198 32.2925 237.892 31.6863 247.192 38.3548L253.861 43.1454C256.877 45.319 259.819 46.8271 263.353 48.2614C265.896 49.2964 268.203 51.2186 270.687 52.6232L274.324 54.6933L278.731 59.4691L281.348 62.2193C282.826 65.1913 284.571 67.9415 286.745 70.4995L292.97 77.8333L297.938 84.2208L300.451 87.7399C304.251 93.0628 305.242 98.4301 305.419 104.522L305.819 118.391C306.129 129.54 310.772 133.931 312.842 140.748C315.03 147.919 316.716 155.149 316.169 162.586L315.917 165.928C315.489 171.783 312.162 178.097 308.643 183.065L305.094 188.077L300.821 194.672C298.381 198.428 295.912 202.213 293.916 206.235C292.526 209.029 291.624 211.868 289.702 214.337L284.749 220.68L275.626 230.158L272.772 234.003L269.149 241.78L264.817 251.997C262.481 257.512 254.423 264.24 249.129 265.482C245.921 266.236 242.86 267.079 239.533 267.123L228.296 267.241C221.953 267.315 215.964 269.104 210.227 271.751L204.032 274.605C202.908 275.122 201.444 275.566 200.158 275.758L191.893 277.015C188.448 277.547 185.431 276.305 181.587 277.059C179.946 277.385 178.97 277.222 177.314 277.503L170.941 278.567L157.486 281.791C151.69 283.181 146.189 283.033 140.689 281.687C139.255 281.332 138.161 280.933 136.948 280.15L132.01 276.956L128.18 274.841L115.952 268.853L112.477 266.487L109.934 264.521L103.221 258.533L95.6361 252.529L89.8992 247.428C87.4299 245.225 84.6354 239.651 83.7926 236.176L82.9202 232.568L80.377 223.342C78.7654 217.472 77.5973 211.779 77.4494 205.643C77.3903 203.159 76.8875 200.527 76.2961 198.014C74.8619 191.848 68.4004 184.765 67.7646 178.126C67.1879 172.109 68.3708 166.608 70.0416 160.93C72.57 152.369 73.679 144 73.5903 135.011C73.5607 131.669 73.5903 127.869 75.335 124.971C76.8284 122.472 78.4548 119.485 80.6284 117.578L96.0501 104.093L103.192 98.4745L110.363 92.5305C114.902 88.7749 119.678 86.2613 125.504 84.9601C131.329 83.659 136.712 82.0473 141.561 78.9127L147.919 74.8022L151.172 72.6139C156.924 68.7399 163.164 66.3742 170.098 65.2504L181.336 64.1119L185.919 64.0232L192.277 63.6388L204.461 62.308L221.317 61.0512C227.66 60.5781 235.127 62.7664 240.139 66.729L247.518 72.5547L256.936 81.2341L261.978 85.3298L270.184 91.5695L272.21 94.4231C273.881 96.7593 274.605 98.9181 274.029 101.698C273.718 103.191 273.423 105.025 272.713 106.296C270.584 110.17 268.602 113.837 267.272 118.051L266.31 122.428C265.542 125.962 266.059 129.525 266.281 133.074C266.503 136.637 267.449 139.949 268.839 143.261L271.382 149.309C273.511 154.38 274.694 159.585 275.714 164.967L276.646 169.876L279.248 181.719C279.914 184.751 279.795 187.604 279.1 190.606C277.178 199.019 271.988 205.954 265.364 211.321C263.871 212.533 262.555 213.258 260.884 214.16L251.805 219.113L248.878 221.065L244.309 225.205C242.402 226.935 241.677 230.07 240.612 232.347L238.424 237.063L235.748 242.859L231.105 245.462C227.29 247.591 222.485 247.724 218.197 247.99L209.163 248.552L205.481 248.996L201.371 249.705L194.066 250.711L187.767 250.844L181.365 250.785L171.813 249.764L162.705 248.389L157.027 247.561L149.28 246.438L138.294 245.018C133.873 244.441 129.821 242.49 125.519 240.508L120.964 235.407L117.253 230.898L113.424 225.796L104.108 210.508C101.255 205.821 98.7855 200.749 97.6322 195.278L96.9373 191.951L94.8673 177.18C94.5272 174.711 94.7933 171.606 95.2073 169.299L96.0058 164.923L98.4455 158.298L101.166 151.689L102.29 148.702L107.14 137.081L110.186 131.743L116.765 123.847L122.857 118.155L128.372 113.201L132.483 109.697L137.007 106.488L143.942 102.082C145.923 100.988 148.851 100.485 151.231 99.7904C157.101 98.0901 167.57 100.604 177.683 99.2434C180.049 98.9181 181.824 98.2083 184.086 97.4099L193.194 94.2161L200.143 91.599C202.997 90.5196 205.939 90.1648 209.059 90.0613L212.238 89.9578C219.232 91.3624 221.598 94.6006 226.004 99.5095L232.879 107.139C233.427 107.745 234.861 108.544 235.275 109.18L237.995 113.334L240.095 116.632L242.786 121.526C244.664 124.956 245.211 128.712 246.128 132.408C246.69 134.685 247.887 136.667 248.774 138.751C249.824 141.206 250.593 143.572 252.323 145.745L253.521 148.673C254.496 151.068 256.7 153.508 257.128 156.036L257.809 160.132C258.016 161.344 258.415 163.71 258.296 164.849L256.7 180.404C256.345 183.893 255.517 187.013 254.275 190.221C253.713 191.656 252.974 193.681 252.175 194.835L249.647 198.472C248.745 199.773 246.66 201.769 245.137 202.789L234.565 209.842L226.477 217.679L224.215 221.272L221.258 225.663L218.774 228.99C217.251 231.031 214.412 232.716 211.943 233.396L202.376 236.058L192.514 237.965L187.013 238.527C181.469 239.089 176.353 236.605 171.296 234.476L165.929 232.214L162.247 230.764L154.617 227.94L144.193 223.061L141.384 219.897C139.521 217.812 137.88 215.387 136.682 212.903L130.901 200.882L128.017 196.136L125.873 192.794C123.36 188.876 120.802 181.35 121.837 177.313L122.768 173.661L124.084 169.137C125.001 166.017 126.997 162.956 128.919 160.487C130.487 158.476 132.808 156.983 134.257 154.913L137.613 150.122L139.048 146.721L142.404 140.141C143.439 138.116 144.592 136.696 146.278 135.188C148.644 133.059 150.596 129.983 153.301 128.401C158.284 125.503 163.829 125.06 169.241 126.213C176.471 127.751 183.258 125.976 189.438 122.25L195.338 118.702L200.069 116.262C202.213 115.168 205.407 114.34 207.61 115.123C209.251 115.7 211.469 116.395 212.8 117.282C219.099 121.541 224.23 129.599 226.536 136.977C228.503 143.246 230.706 149.042 233.412 155.001C236.709 162.232 237.537 170.127 234.136 177.372L232.539 180.33L228.813 186.126L215.048 203.972L208.468 212.844C202.672 220.666 192.218 222.854 184.115 216.496L178.364 212.755L174.09 210.67L168.753 208.63L165.603 207.358L160.635 204.224C157.013 201.932 154.292 199.285 151.69 195.87C148.94 192.247 145.361 188.27 145.391 183.316C145.42 178.363 148.718 173.72 151.512 169.595C153.819 166.194 156.865 163.681 160.206 161.433L167.525 156.524L171.444 154.129L176.708 151.231L181.927 148.17C185.254 146.218 188.374 144.237 192.203 143.084C194.865 142.271 198.946 143.409 201.149 146.026L204.062 149.486L207.329 154.395L211.824 162.616C214.382 167.288 212.297 174.8 209.68 179.575L206.132 186.037C204.668 188.713 201.385 189.763 198.384 190.147C194.717 190.635 191.213 189.778 187.575 189.053C182.962 188.137 178.423 187.619 174.12 185.682C171.784 184.632 169.255 182.311 168.975 179.605C168.827 178.26 169.241 176.071 169.418 174.785C174.357 165.884 182.844 160.206 192.869 159.511C196.462 159.26 193.593 162.779 195.19 167.362C197.985 168.264 200.883 166.712 201.489 163.607C202.287 159.526 200.232 154.617 196.269 152.724C191.76 150.58 180.862 155.282 176.486 158.579L170.793 162.882L167.954 165.529C166.032 167.318 165.071 169.684 163.932 171.946C162.469 174.859 162.291 177.402 162.439 180.507C162.631 184.484 164.391 187.604 167.895 189.793C169.699 190.916 171.725 191.937 173.913 192.365L181.35 193.829C182.903 194.14 183.997 194.288 185.357 194.731L192.883 197.245C197.541 198.797 199.936 200.394 205.111 196.772C206.265 195.973 206.945 195.042 207.832 194.036C209.592 192.055 211.248 190.177 212.416 187.693L216.807 178.437C221.243 169.092 220.888 162.838 214.811 154.528L210.434 148.54L207.093 143.232C206.013 141.516 204.52 140.437 203.071 139.195C197.896 134.73 191.139 137.48 184.973 140.289L179.96 142.581L164.095 150.787L158.831 154.602L149.087 163.814L145.317 168.087L142.345 171.547C142.049 173.927 141.266 176.012 140.112 178.452C138.959 180.891 138.826 184.943 139.669 187.634C140.142 189.142 140.852 191.256 141.665 192.41L146.736 199.537L150.507 203.869L153.508 206.841C155.504 208.822 157.648 210.626 160.103 212.016L164.716 214.618L170.586 217.235C171.946 217.842 172.774 218.182 173.957 218.921L178.689 221.878L183.524 224.732C184.47 225.294 186.585 225.649 187.797 225.944C190.577 226.639 193.519 226.624 196.255 226.018L201.459 224.835L206.767 221.508C210.39 219.246 212.238 215.106 214.648 211.765L216.955 208.571L220.459 203.987L224.88 199.359L229.198 194.968C233.929 190.162 236.872 184.233 239.341 177.979C240.627 174.711 241.692 171.236 241.514 167.688C241.233 162.187 239.711 157.19 237.552 152.207C235.585 147.653 233.974 143.246 232.613 138.515L231.209 133.606C228.118 122.842 216.985 105.601 205.289 107.287C197.763 108.381 191.671 114.976 184.958 118.14C172.819 123.847 163.563 117.445 158.033 118.894L153.301 120.121C149.841 121.023 146.707 123.714 144.297 126.45L138.382 133.207L133.858 139.565L132.305 142.448L130.087 145.79L125.459 151.556L121.778 156.524C120.343 158.446 118.835 160.369 117.978 162.631L116.706 165.958C115.804 168.309 114.947 170.6 114.843 173.129L114.636 177.993C114.488 181.35 115.228 184.381 116.174 187.619C116.529 188.846 117.445 189.837 118.155 190.887L121.822 196.343L123.33 198.575C125.533 201.843 127.663 205.155 129.2 208.896L133.296 218.817C135.115 223.224 137.658 226.891 142.212 229.035L148.496 232.007L155.386 234.298L167.954 238.985L176.382 242.002C182.341 244.131 188.684 244.382 194.717 242.578L203.603 240.183C207.743 239.947 211.676 239.133 215.728 238.217C227.054 235.659 228.769 223.726 235.822 216.54C238.395 213.923 242.047 212.045 245.137 210.123L248.523 208.009L251.658 205.658C256.019 202.405 258.71 197.807 261.283 193.134C262.496 190.931 262.274 188.713 262.717 186.2L263.353 182.607L263.841 172.123C264.093 166.741 265.083 161.226 262.629 155.726L257.616 144.444L253.58 136.193C248.863 126.568 251.17 118.406 244.723 110.111L240.539 105.779L233.9 98.785L228.518 93.329C225.309 90.0761 222.086 86.6457 217.546 85.3446C210.272 83.2597 202.834 84.0286 195.767 86.2465L185.017 89.6177L177.225 91.2294L169.122 92.1313L165.174 92.1609L160.059 92.2348L156.259 92.841L149.561 93.95L145.391 95.3842L141.724 96.4192L137.554 98.9476L130.901 103.043L127.278 105.779L121.719 110.185L114.385 116.883L111.649 119.604L107.613 124.172C104.892 127.248 102.837 130.737 101.181 134.508L96.7747 144.548L93.3443 152.591L88.5832 164.967L87.5186 170.275L86.9124 175.657L87.4004 181.172L88.7163 186.554L90.9342 195.559L92.7085 203.233L95.5326 211.291L98.9334 218.832C99.6283 220.37 100.161 221.346 100.752 223.076C101.255 224.54 102.793 226.136 103.739 227.6L105.38 230.143L108.5 233.249L114.784 239.237L117.578 241.677C122.118 245.639 126.997 248.67 132.912 249.528L143.217 251.021L151.586 252.16L158.343 253.668C165.914 255.354 173.336 256.359 181.084 256.669L190.34 257.024L195.9 256.832L209.887 254.555L219.409 253.284L225.339 252.87C228.68 252.633 231.741 252.056 234.861 251.11C238.794 249.927 242.875 246.127 244.132 242.578L245.788 237.891C247.177 233.973 248.819 230.099 251.525 226.876C253.461 224.569 256.197 223.002 258.666 221.375L264.714 217.368C272.432 212.252 278.42 205.584 281.555 196.757C288.475 185.298 282.93 174.563 282.368 165.026C282.087 160.176 281.984 155.607 280.594 150.876C280.121 149.279 279.352 148.007 278.657 146.514L276.602 142.182C273.482 135.587 271.279 127.706 272.181 120.594C272.816 115.656 275.655 111.59 277.696 107.317L280.209 102.038C281.984 98.3118 280.697 92.6193 278.169 89.8691C274.413 85.7881 270.081 82.5944 265.645 79.3119L260.928 75.8224L256.67 71.9485L246.379 63.624C241.071 59.3361 236.28 55.7726 229.36 54.3532C221.406 52.7267 206.605 56.5859 197.245 57.4287L185.431 58.4933L180.552 58.5968C167.318 57.1625 157.308 60.4302 147.017 68.5034L141.206 73.0574C137.288 76.1329 132.778 78.3804 127.914 79.238L118.466 80.9088L113.542 82.2839L108.943 84.4574C106.947 85.4037 105.084 87.2667 103.458 88.8784L100.782 91.4955C98.0906 94.1274 96.0501 96.6706 92.812 98.6963L90.1062 101.21C89.1451 102.097 88.0509 102.526 87.1194 103.295L84.6354 105.35L80.1109 109.017L77.2128 111.56C73.886 114.488 70.1451 117.341 68.3412 121.541C64.4673 130.56 68.1638 140.112 66.4043 148.732L61.865 170.881C61.6284 172.035 61.4658 174.238 61.4954 175.288L61.5989 179.442L62.0572 181.838C62.486 184.144 63.5802 185.874 64.6004 187.885L67.9716 194.539L70.1303 199.906L72.6144 213.48L73.6938 218.64L75.7047 226.61L76.9023 231.918L80.5545 243.983C82.5062 250.445 86.6315 255.102 92.0875 258.932L95.9466 262.599L103.857 269.652C113.498 278.242 119.989 277.488 126.317 281.155L136.978 287.321C140.127 289.139 144.326 290.012 147.934 290.101C151.113 290.174 154.055 289.48 156.998 288.681L165.248 286.463L176.22 284.334L180.522 283.417L191.774 284.231L197.807 284.319C200.587 284.364 203.145 283.329 205.644 282.146L208.734 280.682L214.9 277.311C216.378 276.497 218.419 275.3 219.942 274.96L226.122 273.629L234.757 273.496L238.542 273.466L243.422 273.348C247.444 273.245 252.293 272.047 255.635 269.977C259.391 267.655 263.146 264.713 265.689 261.194L269.194 256.374L271.057 253.328L276.128 241.085C277.37 238.098 279.366 235.245 281.318 232.731L284.556 228.576L286.434 227.024L289.11 224.185C291.269 221.893 293.591 219.424 295.143 216.703L298.307 211.173L304.355 201.311L307.948 194.894L310.358 191.537L318.564 180.196C319.274 179.221 319.407 177.062 319.836 176.056C321.107 173.084 322.083 170.438 322.335 167.2L322.749 161.758C323.044 157.855 322.261 154.321 321.226 150.639L319.924 146.056C319.052 142.98 318.209 140.127 316.908 137.199C315.917 134.937 315.149 132.334 313.833 130.323C311.349 126.538 311.038 122.457 311.097 117.977L311.304 103.768L311.038 99.2434C310.831 95.6356 309.826 91.0224 307.992 88.5975L302.492 81.3376L298.973 76.8279L294.3 70.4847L291.476 66.6255C289.746 64.2598 288.519 61.8792 286.612 59.6318C285.384 58.1975 284.601 56.1866 283.433 54.5898C281.865 52.431 279.026 51.0559 276.956 49.4147C275.064 47.9213 273.304 46.7532 271.205 45.5999L257.513 38.0886L253.565 35.6489L247.118 31.1984C242.062 27.7089 235.511 26.7478 229.272 27.7532L199.448 32.5439L192.233 33.0023L183.125 33.4163C181.01 33.505 178.985 33.8746 177.048 34.6287L169.832 37.4233L166.254 38.7096L159.985 39.9517C154.765 40.9867 150.374 44.3283 145.82 46.9306L141.413 49.4443L133.592 53.8653C130.753 55.4621 127.337 56.5859 124.07 57.3252L117.8 58.7446L113.291 59.617L107.835 60.6224L103.221 61.4652L97.8836 62.382L88.7754 63.3726C84.872 63.7866 81.7669 65.5462 78.8393 67.9119L69.8051 75.2014L61.5693 80.0364L56.2907 82.964L52.9638 85.5516C49.223 88.4644 47.6409 93.1072 46.5024 97.6317C44.8611 104.152 42.6285 110.052 39.4051 115.907L36.0931 123.093L34.6884 126.745L34.2744 129.51L32.8993 136.193L30.1343 155.164L27.6799 166.446L26.4378 170.186L25.255 177.505C24.7375 180.729 25.802 184.159 27.2363 187.146L32.2487 197.54L34.511 202.198L37.6456 207.595L40.2923 211.454C41.6082 213.361 44.4471 215.224 45.4082 217.28L48.4541 223.859L50.4502 228.221L52.5351 232.524L56.6751 238.912L59.7506 241.913C65.8572 250.016 70.6035 258.592 73.4128 268.247C75.0393 273.836 77.3755 279.144 82.4175 282.367L89.5147 286.907L95.7101 289.48L107.214 292.599L113.291 294.241C114 294.433 115.139 295.187 115.789 295.571L121.837 299.12C127.278 302.314 128.934 309.574 137.421 313.063C142.36 315.104 147.742 315.665 153.213 316.153L159.26 316.701L167.644 317.455C169.655 317.07 171.725 317.115 173.75 317.898L183.332 318.253L194.909 319.111C202.465 319.672 209.665 319.362 216.423 315.606L221.923 312.546L227.616 309.13L237.005 304.088L254.704 296.887L262.525 292.91L269.209 289.125L273.496 286.241L278.051 283.018L286.138 277.946L291.432 273.318L300.126 266.591L317.884 255.324C322.216 252.574 326.755 250.385 330.733 246.896L333.158 245.255C336.884 242.741 339.176 239.148 339.752 234.564L341.334 222.026L342.296 217.738C343.109 214.13 345.016 211.75 347.796 209.591C349.836 207.994 351.492 205.968 353.193 204.15C360.364 196.476 362.286 187.737 359.418 177.52L359.092 171.902C359.004 170.349 358.531 169.521 358.575 168.072C358.826 159.688 355.425 152.399 352.128 145.021L349.57 138.397L346.776 131.536L345.061 127.869C342.192 121.718 335.864 118.332 334.577 113.571C333.823 110.776 332.433 107.775 332.034 104.966L330.482 94.1866C329.727 88.9376 328.205 84.3243 326.726 79.3415L324.227 70.8839C323.636 68.9026 323.488 66.4185 323.192 64.3041L322.172 57.0442C320.767 47.0489 313.877 36.9945 306.144 30.4887L298.012 23.6428L294.493 21.3953L291.24 19.5618C288.889 18.2311 286.079 17.3883 283.492 16.3828L275.552 13.3222L270.85 10.9564L264.388 8.30971C256.7 5.1603 252.53 2.21789 242.446 0.665368L240.125 0H315.075C316.45 1.8926 319.067 3.11984 321.004 4.70194L326.622 9.24123L329.713 12.3167L333.217 16.5455L337.106 21.277L341.098 26.3634L343.508 29.3797L350.176 38.1182L352.394 40.7945C353.858 43.1898 355.159 45.3781 356.963 47.6699C357.747 48.6606 358.072 49.9026 358.693 50.9968L364.046 60.445L365.495 63.4761L367.994 69.6271L370.197 75.9998C371.113 78.6613 370.788 82.136 370.803 85.0932C370.803 87.5772 368.348 92.6636 370.773 98.2527L375.564 109.298C376.377 111.161 376.747 113.497 376.555 115.478C376.037 120.727 377.279 125.03 378.95 129.791C380.916 135.365 382.188 141.102 382.676 146.972C383.282 154.188 384.583 160.783 386.816 167.643C388.457 172.685 389.714 177.727 390.039 183.05L389.67 187.087C389.256 191.537 386.52 194.923 384.465 198.694L381.582 203.987C379.334 208.098 377.974 213.169 378.004 217.901L378.033 222.455L377.604 229.744C377.457 232.642 376.747 235.452 375.165 237.862C373.686 244.087 370.197 249.232 365.14 253.224L359.063 258.015L355.292 260.987L348.713 265.837L341.453 269.829L332.138 274.531L323.281 279.691L320.398 281.273L314.912 284.511C312.457 285.96 310.58 287.942 308.835 290.248L305.952 294.078C302.965 298.055 299.668 301.501 294.951 303.097L285.917 306.173L277.784 308.568C273.26 309.293 269.194 310.949 265.63 313.418L258.178 316.597L248.005 320.885L238.335 325.365L234.802 327.657L232.022 329.712L227.749 331.974C227.29 332.211 226.507 333.083 226.3 333.453L226.462 333.542Z" fill="#F4F7FC"/>
<path d="M107.465 333.542H86.4984L86.735 330.23C86.0104 328.307 83.2011 328.219 81.3529 327.938C77.0058 327.287 73.2058 325.483 69.2875 323.886C64.8961 322.112 60.9482 320.219 57.5031 316.952C56.3498 315.858 54.7677 314.704 53.9693 313.403C53.3187 312.338 52.9047 311.851 52.1506 310.978C50.051 308.583 48.7055 305.493 47.5078 302.58L45.6448 298.04C43.8261 293.619 42.3771 289.125 39.4199 285.206C38.3849 283.831 36.5662 281.82 35.2354 281.022L27.458 276.379L23.7763 273.747C21.3366 272.002 20.0503 269.711 18.2907 267.36C14.2246 261.933 11.43 256.211 8.96079 249.986C6.89076 244.767 6.10709 239.621 6.53589 233.855C6.93511 228.532 5.85573 223.652 4.12577 218.788C2.39582 213.923 -2.12869 207.831 -2.79406 201.666L-4.40573 186.717L-5.55903 175.258L-7.62907 162.779L-9.50688 151.748L-9.56602 141.975V135.129L-9.19637 128.327C-8.67887 119.19 -8.7528 110.51 -10.5419 101.55L-11.2664 93.9055C-11.6213 90.209 -12.0353 86.1725 -11.0446 82.8013C-8.02828 72.6285 1.43473 73.2791 6.32889 70.2332L14.4464 65.1912L21.2331 62.0861L24.6931 60.8589C29.6907 59.0846 34.7771 56.7928 38.237 52.7266L44.9203 44.9048C49.4152 39.6558 51.2634 37.9702 57.9615 35.5453L63.2105 33.6379L68.77 31.5383L76.577 28.0341L82.4322 25.5944L88.2727 23.7905C90.0174 23.0364 91.8805 22.5633 93.5956 22.4745C97.2182 20.8629 100.811 19.8278 104.567 18.8372L107.849 17.9796L113.409 16.3384L127.308 14.9041C131.063 14.5197 134.671 14.2535 138.353 13.3664L145.273 11.6808L149.235 10.5718L163.238 6.90492L168.708 5.7664L173.174 4.68703L177.225 3.29715L186.378 0.118164H240.287L242.609 0.783532C252.693 2.33606 256.862 5.27847 264.551 8.42788L271.012 11.0746L275.714 13.4403L283.654 16.501C286.242 17.4917 289.051 18.3493 291.402 19.68L294.655 21.5134L298.174 23.7609L306.306 30.6068C314.04 37.1126 320.93 47.1671 322.334 57.1624L323.355 64.4223C323.65 66.5367 323.798 69.006 324.39 71.0021L326.889 79.4596C328.367 84.4425 329.89 89.0557 330.644 94.3047L332.197 105.084C332.596 107.893 333.986 110.895 334.74 113.689C336.026 118.45 342.369 121.836 345.223 127.987L346.938 131.654L349.733 138.515L352.291 145.139C355.573 152.502 358.989 159.807 358.738 168.19C358.693 169.639 359.166 170.467 359.255 172.02L359.58 177.638C362.434 187.87 360.527 196.594 353.355 204.268C351.655 206.087 349.999 208.112 347.959 209.709C345.179 211.883 343.257 214.248 342.458 217.856L341.497 222.144L339.915 234.683C339.338 239.266 337.032 242.859 333.32 245.373L330.896 247.014C326.918 250.504 322.394 252.692 318.047 255.442L300.289 266.709L291.594 273.437L286.301 278.065L278.213 283.136L273.659 286.36L269.371 289.243L262.688 293.028L254.866 297.005L237.167 304.206L227.778 309.248L222.086 312.664L216.585 315.724C209.813 319.48 202.613 319.791 195.072 319.229L183.494 318.371L173.913 318.016C171.887 317.233 169.817 317.174 167.806 317.573L159.423 316.819L153.375 316.272C147.904 315.784 142.522 315.222 137.584 313.181C129.097 309.677 127.441 302.432 121.999 299.238L115.952 295.69C115.301 295.305 114.163 294.551 113.453 294.359L107.376 292.718L95.8727 289.598L89.6774 287.025L82.5801 282.486C77.5381 279.262 75.2019 273.954 73.5754 268.365C70.7661 258.71 66.0346 250.134 59.9132 242.031L56.8377 239.03L52.6977 232.642L50.6128 228.339L48.6167 223.978L45.5708 217.398C44.6245 215.343 41.7708 213.48 40.4549 211.572L37.8082 207.713L34.6736 202.316L32.4113 197.659L27.3989 187.264C25.9499 184.277 24.9001 180.847 25.4176 177.624L26.6004 170.305L27.8425 166.564L30.2969 155.282L33.0619 136.312L34.437 129.628L34.851 126.863L36.2557 123.211L39.5677 116.025C42.7911 110.17 45.0238 104.285 46.665 97.7499C47.8035 93.2254 49.3856 88.5826 53.1265 85.6697L56.4533 83.0822L61.7319 80.1546L69.9677 75.3196L79.0019 68.0301C81.9295 65.6643 85.0346 63.9196 88.9381 63.4908L98.0462 62.5001L103.384 61.5834L107.997 60.7406L113.453 59.7352L117.963 58.8628L124.232 57.4433C127.5 56.704 130.915 55.5951 133.754 53.9834L141.576 49.5624L145.982 47.0488C150.536 44.4465 154.928 41.1048 160.147 40.0698L166.416 38.8278L169.995 37.5414L177.21 34.7469C179.147 33.9928 181.173 33.6379 183.287 33.5344L192.395 33.1204L199.611 32.6621L229.434 27.8714C235.674 26.866 242.224 27.8271 247.281 31.3165L253.728 35.7671L257.675 38.2068L271.367 45.7181C273.467 46.8714 275.226 48.0395 277.119 49.5328C279.189 51.1593 282.028 52.5344 283.595 54.7079C284.749 56.3048 285.547 58.3157 286.774 59.7499C288.682 61.9974 289.909 64.378 291.639 66.7437L294.463 70.6028L299.135 76.946L302.654 81.4557L308.155 88.7156C309.988 91.1405 310.994 95.7538 311.201 99.3615L311.467 103.886L311.26 118.095C311.186 122.575 311.511 126.656 313.995 130.442C315.311 132.453 316.08 135.055 317.071 137.317C318.357 140.259 319.215 143.098 320.087 146.174L321.388 150.758C322.423 154.424 323.207 157.973 322.911 161.877L322.497 167.318C322.246 170.556 321.27 173.203 319.998 176.175C319.569 177.18 319.436 179.324 318.727 180.315L310.52 191.655L308.11 195.012L304.517 201.429L298.47 211.291L295.306 216.821C293.753 219.542 291.432 222.011 289.273 224.303L286.597 227.142L284.719 228.694L281.481 232.849C279.529 235.363 277.518 238.216 276.291 241.203L271.219 253.446L269.356 256.492L265.852 261.312C263.294 264.831 259.538 267.774 255.798 270.095C252.456 272.165 247.591 273.378 243.584 273.466L238.705 273.585L234.92 273.614L226.285 273.747L220.104 275.078C218.581 275.403 216.541 276.616 215.062 277.429L208.897 280.8L205.806 282.264C203.307 283.447 200.75 284.482 197.97 284.437L191.937 284.349L180.685 283.535L176.382 284.452L165.411 286.581L157.16 288.799C154.233 289.583 151.276 290.293 148.097 290.219C144.504 290.145 140.29 289.258 137.14 287.439L126.48 281.273C120.151 277.606 113.66 278.36 104.02 269.77L96.1092 262.717L92.2501 259.05C86.7941 255.22 82.6836 250.563 80.7171 244.101L77.0649 232.036L75.8673 226.728L73.8564 218.758L72.777 213.598L70.293 200.024L68.1342 194.657L64.763 188.003C63.7428 185.992 62.6486 184.263 62.2198 181.956L61.7615 179.561L61.658 175.406C61.6284 174.356 61.791 172.153 62.0276 171L66.5669 148.85C68.3264 140.23 64.6299 130.663 68.5039 121.659C70.3077 117.46 74.0486 114.606 77.3754 111.678L80.2735 109.135L84.798 105.468L87.282 103.413C88.2135 102.644 89.3225 102.23 90.2688 101.328L92.9746 98.8145C96.2128 96.8036 98.268 94.2456 100.944 91.6137L103.621 88.9966C105.247 87.3997 107.11 85.5219 109.106 84.5756L113.705 82.402L118.628 81.0269L128.076 79.3561C132.941 78.4985 137.451 76.2511 141.369 73.1756L147.18 68.6215C157.471 60.5484 167.481 57.2807 180.715 58.7149L185.594 58.6114L197.408 57.5468C206.767 56.704 221.568 52.8449 229.523 54.4714C236.443 55.8908 241.233 59.4542 246.542 63.7422L256.833 72.0666L261.091 75.9406L265.808 79.4301C270.244 82.7125 274.576 85.9063 278.331 89.9872C280.86 92.7374 282.146 98.4448 280.372 102.156L277.858 107.435C275.818 111.723 272.964 115.774 272.343 120.712C271.426 127.839 273.63 135.705 276.764 142.3L278.819 146.632C279.529 148.111 280.298 149.397 280.756 150.994C282.146 155.726 282.25 160.294 282.531 165.144C283.093 174.681 288.637 185.416 281.717 196.875C278.583 205.702 272.594 212.371 264.876 217.487L258.829 221.494C256.359 223.135 253.624 224.687 251.687 226.994C248.981 230.217 247.34 234.091 245.95 238.009L244.294 242.697C243.037 246.245 238.942 250.03 235.023 251.228C231.904 252.174 228.843 252.751 225.501 252.988L219.572 253.402L210.05 254.673L196.062 256.95L190.503 257.143L181.247 256.788C173.499 256.492 166.076 255.472 158.506 253.786L151.749 252.278L143.38 251.139L133.074 249.646C127.16 248.788 122.28 245.757 117.741 241.795L114.947 239.355L108.663 233.367L105.543 230.262L103.901 227.718C102.955 226.255 101.417 224.658 100.915 223.194C100.323 221.464 99.7762 220.488 99.096 218.95L95.6952 211.41L92.8711 203.351L91.0968 195.677L88.8789 186.673L87.563 181.291L87.075 175.775L87.6813 170.393L88.7458 165.085L93.5069 152.709L96.9373 144.666L101.343 134.626C103 130.856 105.055 127.366 107.775 124.291L111.812 119.722L114.547 117.001L121.881 110.303L127.441 105.897L131.063 103.162L137.717 99.0658L141.887 96.5374L145.553 95.5024L149.723 94.0682L156.421 92.9592L160.221 92.353L165.337 92.2791L169.285 92.2495L177.388 91.3475L185.18 89.7359L195.929 86.3647C202.997 84.1468 210.434 83.3779 217.709 85.4627C222.248 86.7639 225.472 90.1942 228.68 93.4471L234.062 98.9032L240.701 105.897L244.886 110.229C251.332 118.524 249.04 126.701 253.742 136.312L257.779 144.562L262.791 155.844C265.246 161.344 264.24 166.859 264.004 172.242L263.516 182.725L262.88 186.318C262.437 188.846 262.658 191.049 261.446 193.252C258.888 197.925 256.182 202.523 251.82 205.776L248.686 208.127L245.3 210.241C242.224 212.164 238.557 214.041 235.984 216.659C228.932 223.845 227.216 235.762 215.89 238.335C211.839 239.252 207.906 240.05 203.766 240.301L194.879 242.697C188.847 244.501 182.504 244.249 176.545 242.12L168.117 239.104L155.549 234.416L148.659 232.125L142.375 229.153C137.82 226.994 135.277 223.327 133.459 218.936L129.363 209.014C127.81 205.273 125.696 201.961 123.493 198.694L121.985 196.461L118.318 191.005C117.608 189.955 116.691 188.95 116.336 187.737C115.39 184.499 114.651 181.468 114.799 178.112L115.006 173.247C115.109 170.719 115.982 168.412 116.869 166.076L118.14 162.749C119.013 160.487 120.506 158.565 121.94 156.642L125.622 151.674L130.25 145.908L132.468 142.566L134.02 139.683L138.545 133.325L144.459 126.568C146.855 123.832 149.989 121.141 153.464 120.239L158.195 119.012C163.725 117.563 172.981 123.965 185.121 118.258C191.834 115.109 197.925 108.499 205.451 107.405C217.132 105.719 228.266 122.96 231.371 133.724L232.776 138.633C234.136 143.365 235.733 147.771 237.714 152.325C239.873 157.308 241.396 162.305 241.677 167.806C241.854 171.369 240.79 174.829 239.504 178.097C237.049 184.351 234.092 190.28 229.36 195.086L225.043 199.477L220.622 204.105L217.118 208.689L214.811 211.883C212.401 215.224 210.553 219.364 206.93 221.627L201.622 224.953L196.417 226.136C193.697 226.757 190.739 226.772 187.96 226.062C186.762 225.752 184.648 225.412 183.687 224.85L178.851 221.996L174.12 219.039C172.937 218.3 172.109 217.96 170.749 217.353L164.879 214.736L160.266 212.134C157.811 210.744 155.667 208.94 153.671 206.959L150.669 203.987L146.899 199.655L141.827 192.528C141.014 191.389 140.304 189.26 139.831 187.752C138.989 185.061 139.107 181.054 140.275 178.57C141.443 176.086 142.212 174.045 142.508 171.665L145.48 168.205L149.25 163.932L158.994 154.72L164.258 150.905L180.123 142.699L185.136 140.407C191.301 137.598 198.058 134.848 203.234 139.313C204.668 140.555 206.176 141.635 207.255 143.35L210.597 148.658L214.974 154.646C221.051 162.956 221.405 169.21 216.97 178.555L212.578 187.811C211.395 190.295 209.754 192.173 207.995 194.154C207.107 195.145 206.427 196.077 205.274 196.89C200.099 200.512 197.704 198.915 193.046 197.363L185.52 194.849C184.16 194.391 183.065 194.243 181.513 193.947L174.076 192.484C171.887 192.055 169.862 191.034 168.058 189.911C164.553 187.722 162.794 184.603 162.602 180.625C162.454 177.52 162.631 174.992 164.095 172.064C165.234 169.802 166.195 167.421 168.117 165.647L170.956 163L176.648 158.698C181.04 155.386 191.937 150.698 196.432 152.842C200.395 154.735 202.45 159.644 201.651 163.725C201.045 166.83 198.147 168.368 195.353 167.48C193.756 162.882 196.624 159.378 193.031 159.629C183.006 160.324 174.519 165.987 169.581 174.903C169.403 176.189 168.989 178.378 169.137 179.723C169.433 182.429 171.961 184.736 174.283 185.8C178.585 187.737 183.125 188.255 187.738 189.171C191.375 189.896 194.879 190.739 198.546 190.266C201.548 189.866 204.816 188.817 206.294 186.155L209.843 179.694C212.46 174.918 214.545 167.407 211.987 162.734L207.492 154.513L204.224 149.604L201.311 146.144C199.123 143.527 195.042 142.389 192.366 143.202C188.536 144.37 185.416 146.337 182.09 148.288L176.87 151.349L171.606 154.247L167.688 156.642L160.369 161.551C157.013 163.799 153.981 166.312 151.675 169.713C148.88 173.838 145.583 178.333 145.553 183.435C145.524 188.536 149.087 192.38 151.852 195.988C154.455 199.403 157.175 202.065 160.798 204.342L165.766 207.476L168.915 208.748L174.253 210.789L178.526 212.873L184.278 216.614C192.381 222.972 202.834 220.769 208.63 212.962L215.21 204.09L228.976 186.244L232.702 180.448L234.299 177.491C237.7 170.231 236.872 162.35 233.574 155.119C230.854 149.161 228.651 143.365 226.699 137.095C224.392 129.717 219.262 121.659 212.963 117.4C211.632 116.498 209.414 115.818 207.773 115.242C205.57 114.458 202.376 115.286 200.232 116.38L195.5 118.82L189.601 122.368C183.42 126.095 176.634 127.869 169.403 126.331C163.992 125.178 158.447 125.607 153.464 128.519C150.743 130.102 148.806 133.192 146.441 135.306C144.755 136.814 143.602 138.234 142.567 140.259L139.21 146.839L137.776 150.24L134.42 155.031C132.971 157.101 130.634 158.594 129.082 160.605C127.145 163.074 125.149 166.135 124.247 169.255L122.931 173.779L121.999 177.431C120.964 181.468 123.522 188.979 126.036 192.912L128.18 196.254L131.063 201L136.845 213.021C138.042 215.505 139.683 217.93 141.547 220.015L144.356 223.179L154.78 228.059L162.41 230.883L166.091 232.332L171.459 234.594C176.515 236.723 181.631 239.222 187.176 238.645L192.676 238.083L202.539 236.176L212.105 233.515C214.574 232.834 217.413 231.149 218.936 229.108L221.42 225.781L224.377 221.39L226.64 217.797L234.728 209.961L245.3 202.908C246.837 201.887 248.907 199.891 249.809 198.59L252.338 194.953C253.136 193.799 253.875 191.774 254.437 190.34C255.694 187.131 256.507 184.011 256.862 180.522L258.459 164.967C258.577 163.828 258.163 161.463 257.971 160.25L257.291 156.154C256.862 153.626 254.659 151.172 253.683 148.791L252.486 145.863C250.77 143.69 250.002 141.324 248.937 138.87C248.05 136.8 246.852 134.803 246.29 132.526C245.374 128.83 244.841 125.074 242.949 121.644L240.258 116.75L238.158 113.453L235.437 109.298C235.023 108.677 233.589 107.863 233.042 107.257L226.167 99.6277C221.76 94.7335 219.395 91.4954 212.401 90.076L209.222 90.1795C206.087 90.283 203.145 90.6378 200.306 91.7172L193.357 94.3343L184.248 97.5281C181.971 98.3265 180.212 99.0362 177.846 99.3615C167.747 100.737 157.279 98.2082 151.394 99.9086C149.013 100.604 146.086 101.106 144.104 102.2L137.17 106.607L132.645 109.815L128.535 113.319L123.02 118.273L116.928 123.965L110.348 131.861L107.302 137.199L102.452 148.821L101.329 151.807L98.6081 158.417L96.1684 165.041L95.3699 169.417C94.9559 171.724 94.6898 174.814 95.0299 177.298L97.0999 192.069L97.7948 195.396C98.9481 200.852 101.417 205.939 104.271 210.626L113.586 225.915L117.416 231.016L121.127 235.525L125.681 240.627C129.969 242.593 134.035 244.56 138.456 245.136L149.442 246.556L157.19 247.679L162.868 248.508L171.976 249.883L181.528 250.903L187.93 250.962L194.229 250.829L201.533 249.823L205.644 249.114L209.325 248.67L218.36 248.108C222.648 247.842 227.453 247.709 231.268 245.58L235.911 242.978L238.587 237.181L240.775 232.465C241.825 230.188 242.549 227.053 244.472 225.323L249.04 221.183L251.968 219.231L261.047 214.278C262.717 213.361 264.033 212.652 265.527 211.439C272.151 206.087 277.341 199.137 279.263 190.724C279.943 187.708 280.076 184.869 279.411 181.838L276.808 169.994L275.877 165.085C274.872 159.703 273.689 154.498 271.545 149.427L269.002 143.379C267.612 140.067 266.68 136.755 266.444 133.192C266.222 129.628 265.689 126.08 266.473 122.546L267.434 118.169C268.765 113.955 270.746 110.288 272.875 106.414C273.57 105.143 273.866 103.309 274.191 101.816C274.783 99.0362 274.044 96.8923 272.373 94.5413L270.347 91.6876L262.141 85.4479L257.099 81.3522L247.68 72.6729L240.302 66.8472C235.29 62.8846 227.823 60.6962 221.479 61.1694L204.623 62.4262L192.44 63.7569L186.082 64.1414L181.498 64.2301L170.261 65.3686C163.326 66.4923 157.101 68.8581 151.335 72.732L148.082 74.9203L141.724 79.0308C136.874 82.1507 131.329 83.8067 125.666 85.0783C120.003 86.3499 115.065 88.8783 110.526 92.6487L103.354 98.5927L96.2127 104.211L80.791 117.696C78.6027 119.604 76.991 122.605 75.4976 125.089C73.7529 127.987 73.7233 131.787 73.7529 135.129C73.8416 144.119 72.7326 152.487 70.2042 161.049C68.5334 166.726 67.3506 172.227 67.9272 178.245C68.563 184.869 75.0097 191.966 76.4587 198.132C77.0501 200.645 77.5529 203.292 77.612 205.761C77.7451 211.883 78.9132 217.59 80.5396 223.46L83.0828 232.687L83.9552 236.294C84.798 239.769 87.5925 245.343 90.0618 247.546L95.7987 252.648L103.384 258.651L110.097 264.639L112.64 266.606L116.115 268.971L128.343 274.96L132.172 277.074L137.111 280.268C138.308 281.037 139.417 281.451 140.852 281.805C146.352 283.151 151.852 283.299 157.648 281.909L171.104 278.686L177.476 277.621C179.132 277.34 180.108 277.503 181.75 277.177C185.594 276.423 188.61 277.665 192.055 277.133L200.321 275.876C201.592 275.684 203.056 275.241 204.195 274.723L210.39 271.869C216.142 269.223 222.115 267.434 228.458 267.36L239.696 267.241C243.023 267.212 246.083 266.354 249.292 265.6C254.585 264.343 262.644 257.63 264.98 252.115L269.312 241.898L272.935 234.121L275.788 230.276L284.911 220.799L289.864 214.455C291.787 211.986 292.689 209.133 294.078 206.353C296.089 202.346 298.544 198.561 300.984 194.79L305.257 188.196L308.805 183.183C312.324 178.215 315.636 171.901 316.08 166.046L316.331 162.705C316.878 155.252 315.193 148.037 313.005 140.866C310.92 134.049 306.292 129.658 305.981 118.509L305.582 104.64C305.405 98.5483 304.414 93.1958 300.614 87.8581L298.1 84.339L293.132 77.9515L286.907 70.6176C284.719 68.0449 282.989 65.3095 281.51 62.3375L278.893 59.5873L274.487 54.8114L270.85 52.7414C268.366 51.3219 266.059 49.4146 263.516 48.3795C259.982 46.9601 257.04 45.4371 254.023 43.2636L247.355 38.4729C238.054 31.7897 229.36 32.4107 218.093 35.2644L203.263 39.0052L199.611 39.7593L194.155 40.7204L185.934 41.0901C181.055 41.3118 176.841 42.4947 172.183 43.648L157.486 47.2854L153.035 49.1188L149.043 51.3959L139.018 58.1087L134.893 60.8737C132.66 62.3671 130.28 63.4317 127.648 63.9492L121.083 65.2503L116.824 65.9453L108.175 67.0542L102.733 67.5274C95.1334 68.1927 90.9785 66.5958 83.0828 73.2939L80.3474 75.6153C74.8175 80.0067 69.1396 83.8067 62.8852 87.1335L60.6969 88.9226L56.0245 94.3047L52.3132 101.491L46.1179 116.218L41.1646 130.723L40.4401 133.902L38.6214 141.945C38.9615 143.793 38.9467 145.568 37.9117 147.386L37.7638 151.053L35.1319 163.621L34.0969 167.185L33.0619 171.044C32.6479 172.567 32.0121 174.785 32.0121 176.086C32.0121 179.043 31.8642 182.207 32.8993 184.78L35.3094 190.857L38.7989 198.265L41.4455 202.908L44.3584 206.722C47.7 211.099 51.1747 214.988 53.984 219.749L55.5514 223.194L58.0797 228.399L60.2533 232.036L64.2011 238.497L67.735 244.515L72.363 253.476L75.5124 260.395L79.0462 267.153C81.6634 272.15 85.7739 276.187 90.3871 279.336L96.1092 282.22L100.175 283.994L105.469 285.561C111.413 287.321 117.268 288.607 122.754 291.402C130.945 295.571 134.272 303.201 138.234 305.286C141.443 306.956 144.992 308.065 148.496 308.731L152.532 309.485L161.655 310.505C165.692 310.949 169.817 311.895 173.839 311.777C177.432 311.673 180.729 311.289 184.293 311.88L196.077 313.817C201.799 314.749 209.621 313.595 214.101 310.889L221.465 306.439L224.629 304.221L228.695 301.471C230.499 300.244 232.14 299.046 234.254 298.41L246.867 294.669L251.332 293.324L261.889 287.557L265.823 284.748L268.957 282.397L274.103 278.508L278.051 275.655L285.591 269.563L289.332 266.206L292.585 263.013L296.607 259.789C306.839 251.553 315.459 250.681 323.177 246.171L325.38 244.087C335.361 237.566 328.071 221.627 337.106 211.528L339.708 208.615L347.825 201.37L349.851 198.871L352.646 194.361C354.124 191.981 354.494 188.802 354.45 185.978L354.39 181.852L353.252 172.182L352.794 167.111C352.453 163.4 351.921 159.866 350.738 156.391C348.225 149.042 345.608 142.063 342.074 135.144C341.497 134.02 341.246 132.807 340.211 131.92C339.678 131.447 339.087 129.924 338.584 129.436L332.226 123.226C330.6 121.629 329.402 119.781 328.722 117.578L326.105 108.987C326.327 100.086 325.07 91.9242 322.704 83.2596C313.995 69.346 321.181 56.8963 309.737 42.3764C307.652 39.7445 305.153 37.2014 302.521 35.2052L295.808 30.1041C294.212 28.8916 292.925 28.0488 291.639 26.452L287.233 24.9142L280.83 22.4302C277.681 21.2029 274.783 19.8131 271.752 18.438L261.682 13.8395L249.454 8.11737C247.946 7.40764 239.888 6.1952 237.345 6.34306L232.332 6.63877L225.546 6.91971L219.276 7.20064L214.16 7.28936L207.388 7.18585L200.276 6.86056L196.669 6.94928C194.643 6.41698 193.726 6.75706 191.878 7.3485C189.897 7.98429 187.339 8.44266 185.195 8.63488C183.051 8.8271 181.631 9.55161 179.62 9.99519L167.067 12.7897C160.62 14.224 154.484 15.8061 148.333 18.2162C142.862 20.3601 137.51 21.9275 131.625 22.3415L115.183 23.5096C112.196 23.7166 109.313 24.7664 106.415 25.6387L95.2073 29.0691L90.0914 30.3111L77.4937 34.7617L71.0766 37.4231L68.4447 38.3399L64.3934 39.5819C60.7856 40.6908 57.5031 41.578 54.6642 44.0916L50.3319 47.9212L47.1677 51.529C42.658 57.7391 36.3296 61.2877 29.3654 64.1562L20.9226 67.6309C18.2316 68.7398 15.6588 70.7507 13.2191 72.4363L1.10944 80.7904C-0.413517 81.8402 -2.0104 83.9841 -3.01584 85.581L-3.84386 89.3219C-5.08588 94.9405 -4.70144 100.515 -4.18393 106.237L-3.32635 115.744L-2.97149 124.394L-2.89756 137.539V142.034C-2.94191 149.22 -2.4244 156.051 -1.77382 163.148L-0.753591 174.415C-0.132581 181.335 0.858079 187.841 2.49932 194.672C3.90399 200.468 6.40281 205.835 9.25651 211.055C9.52265 211.557 9.77401 212.859 9.92187 213.524C11.844 216.703 13.5888 219.956 14.1359 223.578C15.4814 232.568 10.6464 241.188 18.2759 254.999L22.4899 262.613L24.8557 265.689C26.6744 268.069 28.6409 270.08 31.1989 271.618L35.4424 274.176C42.5988 278.493 43.8409 280.948 47.0642 288.356L49.6518 294.285C51.8992 299.46 54.0875 304.561 57.9762 308.672C61.4362 312.309 65.0439 315.074 69.5537 317.114L72.6883 318.534L80.5988 320.974L88.0509 322.94L92.7676 324.093L96.7303 325.646L100.412 327.391L105.853 330.096C107.406 330.865 107.997 332.048 107.628 333.66L107.465 333.542Z" fill="#93B6F7"/>
<path d="M6.78712 333.542H-35.2641L-36.0034 330.792L-38.4136 326.504C-40.1731 323.384 -41.2525 319.658 -41.5778 316.05L-42.4945 305.641L-42.9085 299.239L-43.7069 293.516C-44.1357 290.471 -45.3334 287.41 -46.5015 284.66L-52.4159 270.643C-54.7077 265.201 -56.2159 259.597 -59.4096 254.6L-62.5147 250.918L-66.7583 246.541C-68.4438 244.797 -72.3178 241.869 -72.9684 238.527C-74.4617 230.75 -72.6726 223.372 -74.1217 217.502L-75.3933 212.401L-76.2065 208.808C-76.8866 205.777 -78.2469 203.204 -78.4244 200.099L-79.4742 181.557C-79.6073 179.132 -80.4648 176.042 -81.6181 173.913L-86.2314 165.396C-88.1535 161.847 -89.8244 157.929 -89.3808 153.7L-88.8189 148.422L-87.3699 143.528L-85.3294 137.421L-81.8399 126.923L-80.5683 120.935C-80.0213 118.332 -79.4298 116.44 -79.7551 113.763L-80.7014 106.045L-81.8399 96.597L-80.1248 87.755L-78.7349 83.3636L-77.2859 78.3363L-75.7777 75.0391L-73.0275 68.2967C-70.6174 62.3823 -67.5419 57.222 -63.875 52.0321L-55.5505 38.2072C-52.9925 33.9637 -50.4346 30.2376 -46.1614 27.5613L-33.342 19.5178C-29.6751 17.2112 -26.5404 14.2244 -24.426 10.5723L-22.2377 6.80185L-19.1327 2.07034L-18.0829 0.177734H46.1326L39.2571 3.46022L33.3279 6.58006L27.0882 10.2618L18.6307 16.738L11.0898 24.1606L6.56533 28.0936L-1.62609 33.1948L-7.57004 35.9154L-12.1093 38.0298L-16.3973 40.6469C-20.286 43.0275 -22.77 47.0492 -25.4019 50.6422L-29.4089 56.1426C-34.0665 62.5153 -37.8665 69.657 -39.005 77.5675L-40.2322 93.8172L-41.0602 102.437L-41.2525 116.543L-40.2914 135.558L-39.6852 139.107C-39.4042 140.748 -38.8571 143.069 -38.1178 144.563L-31.9225 156.953L-29.8525 162.217C-28.1373 166.564 -27.0432 172.789 -28.2704 176.826L-29.5568 181.04L-33.8743 190.281C-36.314 195.486 -36.5949 201.415 -36.0626 207.137L-35.6338 211.706C-35.0719 217.65 -35.0128 223.401 -32.1295 228.783L-30.5474 231.726C-29.5568 233.574 -28.64 235.659 -28.3 237.699L-27.1467 244.678L-26.3039 250.194C-25.5054 255.457 -23.1101 260.233 -20.8774 265.127C-17.935 271.604 -12.6712 276.439 -8.6642 282.235L-5.75137 286.434C-2.15838 291.624 -0.502353 298.1 0.0595132 304.192L0.784028 312.117L1.81905 318.786C2.12955 320.782 2.66184 322.571 3.43071 324.523L5.11632 328.796L6.83148 333.572L6.78712 333.542Z" fill="#F4F7FC"/>
<path d="M86.4984 333.542H14.5795L13.2635 330.422C9.67055 323.605 8.33982 315.946 8.08845 308.139L7.92581 303.083L7.24566 299.933C6.62465 297.065 5.97407 294.551 4.64333 291.978C3.16473 289.11 1.7157 286.315 -0.339544 283.802L-5.82513 277.074L-9.24069 273.185C-11.1924 270.953 -13.2477 268.129 -14.4453 265.408L-17.8018 257.764L-20.7442 248.862C-22.5924 243.288 -20.685 235.54 -26.2593 223.682C-27.5161 221.006 -28.0928 218.063 -28.7582 215.254C-29.6601 211.454 -30.1333 207.935 -30.3107 204.017L-30.4438 201.074L-29.4827 196.431L-26.4516 188.743L-23.6422 182.799C-22.1488 179.62 -21.4539 176.012 -22.208 172.33L-23.1247 167.865L-25.3278 160.605L-27.4126 155.046L-32.6617 140.467C-34.3325 133.562 -34.8943 126.597 -34.9239 119.589L-34.9683 108.011L-34.776 101.683L-34.5543 96.6853L-34.5838 86.897L-34.2881 79.4154C-33.2087 71.6823 -30.0298 64.6146 -25.387 58.4045C-21.0103 52.5345 -13.6026 44.21 -7.28895 41.652L-2.11386 39.5672L5.13126 36.2847L7.5118 35.5602L12.0363 32.6917L15.4075 29.912L18.2316 27.7088L20.967 24.9734C26.216 19.7244 31.8199 15.2443 38.1779 11.3851L43.4121 8.9011L51.0121 5.23418L54.7825 3.56337L61.658 0.162598H186.437L177.284 3.34158L173.233 4.73146L168.768 5.81084L163.297 6.94936L149.294 10.6163L145.332 11.7252L138.412 13.4108C134.73 14.298 131.122 14.5641 127.367 14.9486L113.468 16.3828L107.908 18.024L104.626 18.8816C100.87 19.8723 97.2626 20.9073 93.6548 22.519C91.9249 22.6077 90.0766 23.0808 88.3319 23.8349L82.4914 25.6388L76.6362 28.0785L68.8292 31.5828L63.2697 33.6824L58.0206 35.5898C51.3226 38.0147 49.4596 39.6855 44.9794 44.9493L38.2962 52.771C34.8215 56.8372 29.7351 59.129 24.7522 60.9033L21.2923 62.1306L14.5056 65.2356L6.38807 70.2776C1.49391 73.3235 -7.9691 72.673 -10.9854 82.8457C-11.9909 86.2169 -11.5621 90.2535 -11.2072 93.95L-10.4827 101.594C-8.69361 110.569 -8.61968 119.249 -9.13719 128.372L-9.52162 135.173V142.019L-9.4477 151.793L-7.56988 162.823L-5.49984 175.302L-4.34654 186.761L-2.73487 201.71C-2.0695 207.876 2.38107 213.775 4.18496 218.832C5.98885 223.889 6.9943 228.576 6.59508 233.899C6.16628 239.68 6.94993 244.826 9.01997 250.031C11.4892 256.255 14.2838 261.978 18.3499 267.404C20.1094 269.755 21.4106 272.047 23.8355 273.792L27.5172 276.423L35.2946 281.066C36.6254 281.865 38.444 283.876 39.4791 285.251C42.451 289.169 43.8853 293.664 45.7039 298.085L47.567 302.624C48.7646 305.537 50.0954 308.627 52.2098 311.023C52.9786 311.895 53.3779 312.383 54.0284 313.448C54.8269 314.734 56.409 315.887 57.5623 316.996C61.0074 320.264 64.9553 322.156 69.3467 323.931C73.265 325.528 77.0502 327.332 81.412 327.982C83.2603 328.263 86.0696 328.352 86.7941 330.274L86.5576 333.586L86.4984 333.542Z" fill="#F4F7FC"/>
<path d="M301.235 333.542H238.365L242.963 330.659L247.621 328.16L256.522 324.389L261.712 321.891L266.798 319.732L269.208 318.46L280.298 313.847L285.798 312.856L292.274 311.038L298.455 309.263C303.053 307.947 308.184 304.325 310.624 300.54L313.877 295.512L316.789 292.2C319.481 289.14 323.266 287.084 326.829 285.088L335.346 280.357L349.807 272.668L357.599 267.33L362.005 263.604L365.42 261.179L370.034 257.098L374.499 252.13C376.628 249.765 378.092 246.985 379.186 244.013L381.256 238.379C381.981 236.398 382.824 234.136 382.868 231.933L383.193 219.025L384.243 212.356L386.106 206.871C386.431 205.924 387.511 204.106 388.132 203.248L392.848 196.58C394.475 194.273 395.54 191.848 396.175 188.965C397.225 184.218 396.471 183.095 396.486 180.729C396.515 177.58 395.82 174.445 394.741 171.488L391.961 163.888C390.35 159.496 388.901 155.134 388.413 150.521L386.786 134.937C385.943 126.893 382.483 121.26 382.469 116.321C382.469 111.826 381.862 107.76 379.97 103.679L376.954 97.1587C375.726 94.512 374.913 91.9097 375.327 88.8638L376.362 81.3377C377.116 75.9261 375.564 67.779 372.858 62.7961C370.122 57.7541 367.431 52.9191 364.489 48.0841L359.477 39.8779L357.214 36.758L354.893 33.5791L351.049 28.3892L348.757 25.2102L345.075 20.804L341.512 16.1908L336.514 9.87717C335.375 8.44293 334 7.33399 332.64 6.12154L326.134 0.0888672H373.627L378.063 4.56901C381.049 7.3192 383.666 10.5278 385.943 13.8398L395.761 28.1378L398.009 32.1005C400.715 36.8763 403.48 41.3417 404.367 46.7238L408.27 70.4109C408.462 71.5938 409.069 73.5307 409.453 74.5953C411.153 77.5377 412.469 80.1992 413.401 83.393C414.066 85.67 415.057 87.6365 415.959 89.8544C416.95 92.2793 417.378 95.1774 418.103 97.8389C418.931 100.914 420.69 103.591 421.918 106.518C423.337 109.904 423.308 115.745 422.332 119.397L421.001 124.394L419.227 130.856L417.822 135.942C417.053 138.737 417.482 143.054 419.434 145.346C422.184 148.569 425.762 151.586 426.797 155.992C427.832 160.398 426.546 168.531 425.585 174.016L423.012 188.566L421.652 194.864C421.06 197.629 420.424 200.261 418.887 202.553L415.101 208.231L411.715 212.696C408.108 217.457 405.18 222.765 405.505 228.872L406.023 238.793C406.289 243.791 405.18 248.892 401.38 252.234L394.652 258.133C389.551 262.599 384.849 266.902 380.591 272.121L376.954 275.832C374.795 278.109 372.429 279.765 369.62 281.155L359.58 286.094L353.355 290.219L349.422 293.93C345.888 297.272 343.197 300.643 340.802 304.901L336.44 312.649C335.257 314.749 330.23 319.702 328.012 320.989L323.99 323.325L312.354 327.938L306.454 330.319L302.27 332.389C302.004 332.522 301.353 333.335 301.235 333.483V333.542Z" fill="#F4F7FC"/>
<path d="M463.644 152.34V155.504C463.644 155.504 462.993 155.371 462.978 155.533L462.801 156.835L461.559 165.795L460.672 169.861L458.809 178.052L457.951 181.128L456.073 188.772C455.038 192.972 454.107 197.052 452.599 201.178L441.154 232.524C441.199 235.023 440.415 237.167 440.001 239.533L437.931 251.361L436.955 255.22L433.081 265.704L431.159 270.199C429.503 274.087 428.971 278.449 427.477 282.574C426.871 283.565 425.629 285.591 424.683 286.36L419.936 290.234L416.639 292.792C411.804 295.35 407.354 298.07 403.11 301.456L396.516 306.705L394.15 308.923L390.66 312.59L384.095 317.824C381.877 319.584 380.192 321.328 378.211 323.31L373.686 327.864L370.818 330.806L368.807 333.527H313.108L321.107 330.466C326.371 328.514 331.457 326.163 335.745 322.541L340.802 317.144L343.035 314.32L346.288 308.391L349.304 303.911C354.242 296.562 361.695 291.919 369.812 288.371C372.547 287.173 375.15 285.147 377.678 283.329L381.345 280.697L385.958 276.187L390.468 270.716L393.839 266.931L397.21 263.855C401.277 260.144 405.683 256.536 408.655 251.997C410.947 248.478 411.42 244.737 411.509 240.863L411.686 233.367L412.085 228.532C412.322 225.722 413.519 222.824 414.983 220.503L420.084 212.371L422.746 208.305L424.993 204.224L427.108 199.093L428.084 195.027L428.601 192.277L429.828 185.017L430.789 177.343L432.194 169.21C433.288 162.867 434.397 153.109 431.677 148.525L429.799 145.346L428.261 141.369C427.3 138.855 427.226 135.04 427.61 132.172L428.409 126.095L428.542 122.132C428.734 116.292 429 110.924 427.389 105.202C426.398 101.713 424.757 98.3562 424.15 94.7632L423.929 89.3811C423.781 85.9212 421.977 83.4076 420.513 80.5834C419.212 78.0698 418.133 75.9407 416.462 73.5601C415.175 71.7267 414.362 69.0356 413.859 66.6994C413.49 64.999 413.904 62.9586 414.096 61.2138C414.495 57.6652 413.579 53.8061 412.78 50.2279L411.76 45.7329C410.68 40.9718 408.537 37.0092 405.964 32.9283L400.212 23.7906L396.235 17.7579L394.002 14.4902L389.078 7.59994C387.038 4.74625 384.554 2.5875 383.282 0.162598H417.6L419.049 2.63185L423.426 8.50188L425.038 12.0357L436.866 37.7337C438.182 40.6022 439.498 43.1454 440.962 45.8808L443.816 51.2333C446.315 55.9057 448.385 60.0753 449.686 65.28C451.726 73.4566 454.284 81.0714 457.286 88.9819C457.877 90.5492 458.321 92.5749 458.72 94.2161L460.066 99.7608L460.923 105.838C461.603 110.599 461.278 115.345 461.943 120.254L462.52 124.513C462.564 124.882 462.106 126.169 462.461 126.154L463.629 126.272V152.369L463.644 152.34Z" fill="#F4F7FC"/>
<path d="M238.365 333.542H226.448C226.655 333.157 227.438 332.3 227.897 332.063L232.17 329.801L234.95 327.746L238.484 325.454L248.154 320.974L258.326 316.686L265.778 313.507C269.342 311.038 273.408 309.382 277.932 308.657L286.065 306.262L295.099 303.186C299.801 301.575 303.098 298.129 306.1 294.167L308.983 290.337C310.728 288.016 312.62 286.035 315.06 284.6L320.546 281.362L323.429 279.78L332.286 274.62L341.601 269.918L348.861 265.926L355.44 261.076L359.211 258.104L365.288 253.313C370.345 249.336 373.834 244.176 375.313 237.951C376.895 235.526 377.605 232.716 377.752 229.833L378.181 222.544L378.152 217.99C378.122 213.258 379.497 208.186 381.73 204.076L384.613 198.783C386.668 195.027 389.419 191.641 389.818 187.176L390.187 183.139C389.862 177.816 388.605 172.789 386.964 167.732C384.731 160.871 383.43 154.277 382.824 147.061C382.336 141.177 381.05 135.454 379.098 129.88C377.427 125.134 376.185 120.831 376.703 115.567C376.895 113.586 376.525 111.25 375.712 109.387L370.921 98.3416C368.496 92.7673 370.966 87.6809 370.951 85.1821C370.951 82.2249 371.261 78.7502 370.345 76.0887L368.142 69.716L365.643 63.565L364.194 60.5339L358.841 51.0856C358.22 49.9915 357.895 48.7495 357.111 47.7588C355.307 45.467 354.021 43.2934 352.542 40.8833L350.325 38.2071L343.656 29.4686L341.246 26.4522L337.254 21.3659L333.365 16.6344L329.861 12.4056L326.771 9.33009L321.152 4.7908C319.2 3.22349 316.598 1.98147 315.223 0.0888672H326.12L332.626 6.12154C333.986 7.33399 335.361 8.44293 336.5 9.87717L341.497 16.1908L345.061 20.804L348.742 25.2102L351.034 28.3892L354.879 33.5791L357.2 36.758L359.462 39.8779L364.475 48.0841C367.432 52.9191 370.108 57.7541 372.844 62.7961C375.549 67.779 377.102 75.9261 376.348 81.3377L375.313 88.8638C374.899 91.9097 375.712 94.512 376.939 97.1587L379.956 103.679C381.848 107.76 382.44 111.826 382.454 116.321C382.454 121.245 385.929 126.878 386.772 134.937L388.398 150.521C388.872 155.134 390.335 159.496 391.947 163.888L394.727 171.488C395.806 174.445 396.501 177.58 396.472 180.729C396.442 183.095 397.196 184.218 396.161 188.965C395.525 191.848 394.461 194.273 392.834 196.58L388.117 203.248C387.511 204.106 386.417 205.924 386.092 206.871L384.229 212.356L383.179 219.025L382.854 231.933C382.795 234.121 381.966 236.383 381.242 238.379L379.172 244.013C378.078 247 376.614 249.765 374.485 252.13L370.019 257.098L365.406 261.179L361.991 263.604L357.584 267.33L349.792 272.668L335.332 280.357L326.815 285.088C323.251 287.07 319.466 289.125 316.775 292.2L313.862 295.512L310.609 300.54C308.17 304.325 303.039 307.933 298.441 309.263L292.26 311.038L285.784 312.856L280.283 313.847L269.194 318.46L266.784 319.732L261.697 321.891L256.508 324.389L247.606 328.16L242.949 330.659L238.35 333.542H238.365Z" fill="#93B6F7"/>
<path d="M313.108 333.542H301.235C301.338 333.394 301.989 332.581 302.27 332.448L306.454 330.378L312.354 327.997L323.99 323.384L328.012 321.048C330.23 319.761 335.257 314.808 336.44 312.708L340.802 304.961C343.197 300.687 345.889 297.331 349.422 293.989L353.355 290.278L359.58 286.153L369.62 281.214C372.429 279.839 374.795 278.168 376.954 275.891L380.591 272.18C384.849 266.946 389.551 262.658 394.653 258.193L401.38 252.293C405.195 248.951 406.289 243.85 406.023 238.853L405.505 228.931C405.18 222.825 408.108 217.531 411.716 212.755L415.102 208.29L418.887 202.612C420.425 200.305 421.06 197.688 421.652 194.923L423.012 188.625L425.585 174.075C426.561 168.575 427.877 160.635 426.797 156.051C425.718 151.467 422.184 148.643 419.434 145.405C417.482 143.099 417.053 138.781 417.822 136.001L419.227 130.915L421.001 124.454L422.332 119.456C423.308 115.804 423.337 109.963 421.918 106.577C420.691 103.65 418.931 100.973 418.103 97.8979C417.393 95.2217 416.95 92.3236 415.959 89.9135C415.057 87.6808 414.067 85.7143 413.401 83.452C412.47 80.2583 411.154 77.5968 409.453 74.6544C409.069 73.6046 408.463 71.6529 408.27 70.47L404.367 46.7829C403.48 41.4008 400.715 36.9206 398.009 32.1596L395.762 28.1969L385.944 13.8989C383.667 10.5868 381.05 7.37828 378.063 4.62809L373.627 0.147949H383.267C384.539 2.57285 387.023 4.7316 389.064 7.58529L393.987 14.4755L396.22 17.7432L400.197 23.7759L405.949 32.9136C408.522 36.9946 410.666 40.9572 411.745 45.7183L412.765 50.2132C413.579 53.7914 414.481 57.6358 414.081 61.1992C413.889 62.9439 413.46 64.9844 413.845 66.6848C414.362 69.0062 415.161 71.712 416.447 73.5455C418.118 75.9112 419.197 78.0552 420.498 80.5688C421.977 83.4077 423.766 85.9065 423.914 89.3664L424.136 94.7485C424.757 98.3415 426.398 101.713 427.374 105.187C428.986 110.91 428.719 116.277 428.527 122.117L428.394 126.08L427.596 132.157C427.211 135.025 427.285 138.855 428.246 141.354L429.784 145.331L431.662 148.51C434.368 153.109 433.274 162.853 432.179 169.196L430.775 177.328L429.814 185.002L428.586 192.262L428.069 195.012L427.093 199.078L424.979 204.209L422.731 208.29L420.07 212.356L414.969 220.488C413.505 222.825 412.292 225.708 412.07 228.517L411.671 233.352L411.494 240.849C411.405 244.737 410.932 248.478 408.64 251.982C405.683 256.522 401.262 260.129 397.196 263.841L393.825 266.916L390.453 270.701L385.944 276.172L381.33 280.682L377.664 283.314C375.135 285.133 372.533 287.158 369.797 288.356C361.695 291.905 354.243 296.562 349.289 303.896L346.273 308.376L343.02 314.305L340.787 317.129L335.731 322.526C331.457 326.164 326.356 328.5 321.092 330.452L313.093 333.512L313.108 333.542Z" fill="#93B6F7"/>
<path d="M14.5795 333.542H6.78731L5.07214 328.766L3.38655 324.493C2.61768 322.541 2.08538 320.752 1.77488 318.756L0.739857 312.087L0.0153481 304.162C-0.546519 298.07 -2.20255 291.594 -5.79554 286.404L-8.70837 282.205C-12.7154 276.409 -17.9792 271.574 -20.9216 265.098C-23.1395 260.203 -25.5348 255.428 -26.348 250.164L-27.1908 244.649L-28.3441 237.67C-28.6842 235.629 -29.5861 233.544 -30.5916 231.696L-32.1737 228.754C-35.057 223.372 -35.1161 217.605 -35.678 211.676L-36.1068 207.107C-36.6538 201.385 -36.3581 195.441 -33.9184 190.251L-29.6009 181.01L-28.3146 176.796C-27.0873 172.744 -28.1963 166.534 -29.8967 162.187L-31.9667 156.923L-38.162 144.533C-38.9013 143.054 -39.4484 140.733 -39.7293 139.077L-40.3355 135.528L-41.2966 116.513L-41.1044 102.408L-40.2764 93.7874L-39.0492 77.5377C-37.9254 69.6272 -34.1107 62.4856 -29.4531 56.1128L-25.4461 50.6124C-22.829 47.0194 -20.3449 42.9977 -16.4414 40.6171L-12.1535 38L-7.61421 35.8856L-1.67025 33.165L6.52117 28.0638L11.0457 24.1308L18.5865 16.7082L27.0441 10.232L33.2838 6.55027L39.2129 3.43043L46.0884 0.147949H61.6285L54.753 3.54872L50.9826 5.21953L43.3826 8.88645L38.1483 11.3705C31.7904 15.2296 26.1865 19.7098 20.9375 24.9588L18.2021 27.6942L15.378 29.8973L12.0068 32.6771L7.48225 35.5455L5.10172 36.2701L-2.1434 39.5525L-7.31849 41.6374C-13.6173 44.1805 -21.0251 52.5198 -25.4165 58.3898C-30.0593 64.6 -33.2383 71.6676 -34.3177 79.4007L-34.6134 86.8824L-34.5838 96.6707L-34.8056 101.668L-34.9978 107.997L-34.9535 119.574C-34.9239 126.583 -34.3768 133.547 -32.6912 140.452L-27.4422 155.031L-25.3574 160.59L-23.1543 167.85L-22.2375 172.316C-21.4834 175.997 -22.1636 179.62 -23.6718 182.784L-26.4811 188.728L-29.5122 196.417L-30.4733 201.06L-30.3402 204.002C-30.1776 207.92 -29.6896 211.439 -28.7877 215.239C-28.1223 218.049 -27.5457 220.991 -26.2889 223.667C-20.7146 235.526 -22.6072 243.288 -20.7737 248.848L-17.8313 257.749L-14.4749 265.393C-13.2772 268.114 -11.222 270.938 -9.27023 273.171L-5.85468 277.059L-0.36909 283.787C1.68616 286.301 3.13519 289.11 4.61378 291.964C5.94452 294.536 6.5951 297.035 7.21611 299.919L7.89626 303.068L8.05891 308.125C8.31027 315.932 9.64102 323.591 13.234 330.407L14.55 333.527L14.5795 333.542Z" fill="#93B6F7"/>
</g>
<defs>
<clipPath id="clip0_1356_4842">
<rect width="334" height="334" fill="white"/>
</clipPath>
</defs>
</svg>
