<?xml version="1.0" encoding="UTF-8"?>
<svg id="_레이어_1" data-name="레이어 1" xmlns="http://www.w3.org/2000/svg" xmlns:xlink="http://www.w3.org/1999/xlink" viewBox="0 0 342.6 253.33">
  <defs>
    <style>
      .cls-1 {
        fill: none;
      }

      .cls-2 {
        fill: #38414f;
      }

      .cls-3 {
        fill: #dce8ff;
      }

      .cls-4 {
        clip-path: url(#clippath);
      }
    </style>
    <clipPath id="clippath">
      <path class="cls-1" d="M17.8,239.42L15.8,15.42l309-1.5,2,223.5-309,2Z"/>
    </clipPath>
  </defs>
  <g class="cls-4">
    <g>
      <path class="cls-2" d="M335.51,47.1l-4.45,1.44c-.82.27-1.58.03-2.1-.77l-12.59-19.52-6.69,33.73c-7.46,1.43-14.9,1.96-22.51,2.55l-10.56.82c-.15-.12-.8.7-.57.81l6.27,3.08,18.4,8.63,10.28,5.04.07,6.49c.06,5.54-.13,10.95.05,16.48l.22,9.35.24.79c.04.14.59-.08.69-.19l4.78-6.4,9.38-12.15,5.73-6.81,3.37,1.3v78.2s-.75.5-.75.5c-2.91,8.01-6.1,15.82-9.45,23.69l-32.47-3.3c-.46.36-.03,1.39.57,1.51l10.65,7.17,4.32,3.08,9.19,7.55c-1.4,7.57-3.37,14.58-5.34,21.86l-2.1,7.36h-78.88s.19-4.2.19-4.2l35.81-5.35,5.09-.91c.19-.03.7-.35.83-.46.18-.14-.39-.74-.68-.86l-10.68-4.27c-7.87-3.84-15.57-7.36-23.65-10.71l-4.42-1.83,2.11-21.78c.68-7,.81-13.69.86-20.94l-20.76,24.84-5.11,6.31-10.12-4.44-17.01-7.25-8.15-2.68c.82,2.15,1.59,3.74,2.63,5.42l5.28,8.58,9.88,14.63,2.76,4.04-19.35,17.01-4.03,3.71c-.24.22-.64.88-.77,1.15h-42.11s1.97-2.52,1.97-2.52c.47-.58,1.08-.84,1.63-1.37l5.44-5.28,5.64-5.19,3.13-2.96c1.6-1.51,3.08-2.84,4.4-5.02-5.06.1-9.49,1.35-14.23,2.58l-19.54,5.04-3.02-6.25-.86-1.87-4.03-8.9-4.76-9.63c-.13-.25-.75-.67-1.02-.72-.33-.06-.85.68-.92,1.07l-2.85,16.45-2.39,15.41-8,2.56-20.66,5.4c-.55.14-1.32.81-1.57,1.21h-19.46s-2.75-8.55-2.75-8.55l-6.59-19.41c9.14-5.12,17.86-10.48,26.3-16.58.65-.47.93-1.45.5-2.05l-7.84.6c-7.19.55-14.2,1.3-21.45,1.1l-4.2-15.16-5.04-13.98c-1.27,1.88-1.76,3.61-2.44,5.58l-8.06,23.37-10.09-.99v-39.41s9.91-4.5,9.91-4.5c-2.14-.97-3.94-1.1-5.96-1.43l-3.95-.9v-38.08s2.7-3.63,2.7-3.63c3.84-5.4,7.74-10.53,12.55-15.26l9.41,4.25c7.76,3.5,14.98,7.43,23.5,10.34l-7.59-11.57-16.45-23.2,9.65-13,9.25-12.58,5.36-6.95c.4-.52.67-1.17.49-1.76l-35.01,12.83L7.97,29.03c-.15-.22-.7-.68-.88-.74v-14.37s46.58,0,46.58,0l3.01,4.22,13.43,20.69c.58-3.34.48-6.35.54-9.56l.48-15.35h29.15s2.83,10.88,2.83,10.88l2.41,11.19-4.96,2.25-9.96,3.93-11.57,4.73-.75.3c-.22.09-.18.88-.05,1.09l6.67,2.05c8.08,1.84,15.85,3.63,23.89,5.95l1.09,9.48,1.75,21.49c.12.27.46.81.67.73s.64-.43.79-.69l3.84-6.87,6.52-12.47,2.04-4.4,1.37-3.08,12.33.71,12.47.91,1.2-.86c.28-.2-.03-1.22-.3-1.48l-4.11-4.08-10.74-9.52-4.18-4.34,9.3-14.15c2.4-3.28,4.35-6.6,5.88-10.39l-.1-.68c-.03-.18-.49-.18-.85-.22l-20.67,7.57-6.91,2.41-4.37-4.1-8.25-8.34h126.67s.82.91.82.91l11.27,5.34c-1.46,10.98-1.77,21.82-1.6,32.51.17.29,1.13.14,1.33-.15,4.86-7.23,9.88-14.09,15.28-20.94l3.41-3.99,12.59,3.32,12.17,3.76,7.21,1.9c-1.5-3.02-2.92-5.29-4.8-7.67l-11.54-14.99h55.15s0,33.18,0,33.18ZM294.94,159.42l-4.13,5.73c-.16.23-.25,1.05-.06,1.19s.8.22,1.06.12l4.22-1.59,8.47-3.8,6.92,8.1c1.03,1.21,1.75,2.33,3.52,3.24l-2.4-11.1-1.05-4.14c2.22-1.48,4.23-2.7,6.54-3.78l4.6-2.15c1.15-.54,2.06-1.01,3.34-1.97-4.25-1.15-7.99-1.35-12.07-2.26l-3.49-.77c-.39-.29-.68-1.46-.8-1.97-1.17-4.96-1.87-9.81-4.08-14.57l-3.38,15.71-14.25-2.53c-.34-.06-1.22.17-1.18.46.03.23.28.82.5.98l2.94,2.18,2.1,1.64,4.51,3.18,2.66,1.77-4.49,6.33ZM220.75,146.29c-4.2,7.54-8.04,14.74-11.3,22.85,3.06-1.02,5.37-2.65,7.98-4.21l17.24-10.34,5.54-2.81,5.01-1.96,8.57,7.27,7.2,6.61,18.71,16.55c-2.47-10.69-5.74-20.04-8.78-29.86l-3.68-13.85,8.7-7.08,10.92-8.09,5.4-3.85,5.64-4.5c1.15-.91,2.16-1.69,3.18-3.21-8.94-.36-17.35.26-26.09.56l-11.42.39-2.51-21.82-2.07-19.34c-1.8,2.21-2.33,4.28-3.27,6.46-1.44,3.33-2.56,6.68-4.22,9.94l-11.42,22.43-20.08-4.8-19.9-4.87c1.74,2.46,3.51,4.02,5.35,5.89l6.09,6.18,6.77,7.34,8.38,9.14,2.76,3.24-2.29,4.2-6.42,11.52ZM170.22,28.13c4.17,9.35,7.94,18.71,11.4,28.42-9.45,7.83-19.03,15.02-28.77,22.25-.06.22-.1.7.08.75l.73.19,18.83-2.13,12.47-1.2,1.05,6.21,4.05,25.47c1.17-.41,1.55-1.3,1.97-2.35,3.76-9.39,7.84-18.43,12.31-27.75l16.57,2c5.74.69,11.14,1.28,16.92,1.35-.12-.64-.46-1.19-.88-1.45-5.64-3.43-11.02-6.98-16.08-11.2l-5.2-4.34-5.27-4.89,6.1-12.44,8.56-18.29c-1-.16-1.43.32-2.15.73l-14.88,8.44-12.64,6.98-14.33-11.66c-3.97-3.23-7.69-6.21-12.06-9.33,0,1.66.59,2.82,1.22,4.24ZM152.85,121.23l7.05,14.5-6.43,7.08-3.5,4.16c-.99,1.12-1.87,2.12-2.24,3.67l9.13-2.96,8.32-2.34,2.43,5.16,4.29,10.32c.14.32.73,1.12.91.92l.72-.83.49-5.19,1.1-9.66,16.62-.81.85-.63c.18-.13-.56-.56-.7-.55l-4.23-2.28-11.56-6.95,4.84-12.81c.47-1.24,1.07-2.26,1.09-3.67-3.76,2.49-6.76,5.01-9.66,8.01l-3.03,3.14c-.48.5-1.31.77-1.93.32l-6.98-5.07-6.07-4.71c-.28-.22-1.04-.37-1.38-.31-.29.05-.28,1.18-.14,1.49ZM143.88,197.7l-5.07,10.31.27.93c.05.18.88.06,1.03-.07l4.07-3.7,3.59-3.24,2.27-2.09c.38-.35,1.36-.86,1.82-.5l13.12,10.29c-.14-2.62-1.66-4.21-2.66-6.25l-5.14-10.48c4.73-3.06,8.84-5.89,12.31-10.35-2.56.04-4.73.65-7.02,1.23l-8.87,2.22-9.31-13.39c-.73,1.21-.11,2.26.03,3.38l1.42,11.39-5.96-1.32-7.29-1.36c-.22-.04-.84.09-1.01.2s.1.7.21.92l7.73,5.46,5.54,3.92-1.07,2.53ZM61.4,85.76c.64,9.76,2.09,18.54,3.77,27.68l2.17,13.54.32,4.32-10.32,3.83c-9.31,3.14-18.33,6.44-27.3,10.47-1.14.51-2.36.57-2.82,2.08,7.38,2.3,14.6,3.54,22.15,4.59l23.72,3.31c.77,9.59,2.04,18.77,3.4,28.22l1.96,13.62c2.09-2.89,3.66-5.83,5.17-8.97l3.4-7.07,9.14-18.09,15.08,4.53,13.27,3.9,12.48,3.27c-3.12-4.8-6.79-8.51-10.54-12.52l-6.4-6.85-13.22-14.27,5.47-9.04,4.7-7.27c2.85-4.4,5.79-8.66,8.05-13.39l4.9-10.22c-2.1,0-3.27.9-4.75,1.72l-7.51,4.15-10.16,5.83-4.12,2.33-7.1,3.92-5.25,2.47-9.09-10.79-2.5-3.07-14.07-17.51-4.02-4.74Z"/>
      <path class="cls-2" d="M43.04,239.42H7.62s.2-.52.2-.52l7.09-7.33,7.69-7.69,2.18-1.59,6.76,5.61,6.88,6.63,4.06,3.86c.24.23.58.84.55,1.03Z"/>
      <polygon class="cls-2" points="335.51 224.05 335.51 239.42 314.87 239.42 329.31 224.92 332.84 222.34 335.51 224.05"/>
      <path class="cls-2" d="M7.09,221.48v-12.91c.9.48,2.02,1.3,2.63,2.21l-1.7,7.78-.93,2.92Z"/>
      <g>
        <path class="cls-3" d="M231.24,239.42h-59.29c.13-.27.53-.93.77-1.15l4.03-3.71,19.35-17.01-2.76-4.04-9.88-14.63-5.28-8.58c-1.04-1.69-1.81-3.28-2.63-5.42l8.15,2.68,17.01,7.25,10.12,4.44,5.11-6.31,20.76-24.84c-.06,7.25-.19,13.95-.86,20.94l-2.11,21.78,4.42,1.83c8.08,3.35,15.78,6.87,23.65,10.71l10.68,4.27c.29.11.86.72.68.86-.13.11-.64.42-.83.46l-5.09.91-35.81,5.35-.19,4.2Z"/>
        <path class="cls-3" d="M100.28,13.92h7.27s8.25,8.34,8.25,8.34l4.37,4.1,6.91-2.41,20.67-7.57c.36.04.83.04.85.22l.1.68c-1.53,3.79-3.47,7.11-5.88,10.39l-9.3,14.15,4.18,4.34,10.74,9.52,4.11,4.08c.26.26.58,1.28.3,1.48l-1.2.86-12.47-.91-12.33-.71-1.37,3.08-2.04,4.4-6.52,12.47-3.84,6.87c-.15.26-.57.62-.79.69s-.55-.46-.67-.73l-1.75-21.49-1.09-9.48c-8.04-2.32-15.81-4.11-23.89-5.95l-6.67-2.05c-.13-.21-.17-1,.05-1.09l.75-.3,11.57-4.73,9.96-3.93,4.96-2.25-2.41-11.19-2.83-10.88Z"/>
        <path class="cls-3" d="M7.09,109.01V28.28c.18.06.74.53.88.74l12.99,19.44,35.01-12.83c.18.59-.09,1.24-.49,1.76l-5.36,6.95-9.25,12.58-9.65,13,16.45,23.2,7.59,11.57c-8.52-2.91-15.74-6.84-23.5-10.34l-9.41-4.25c-4.81,4.73-8.71,9.86-12.55,15.26l-2.7,3.63Z"/>
        <path class="cls-3" d="M335.51,91.78l-3.37-1.3-5.73,6.81-9.38,12.15-4.78,6.4c-.1.11-.65.33-.69.19l-.24-.79-.22-9.35c-.18-5.53,0-10.94-.05-16.48l-.07-6.49-10.28-5.04-18.4-8.63-6.27-3.08c-.23-.11.42-.93.57-.81l10.56-.82c7.61-.59,15.05-1.12,22.51-2.55l6.69-33.73,12.59,19.52c.52.8,1.28,1.05,2.1.77l4.45-1.44v44.69Z"/>
        <path class="cls-3" d="M48.75,239.41h-5.72c.03-.19-.32-.81-.55-1.03l-4.06-3.86-6.88-6.63-6.76-5.61-2.18,1.59-7.69,7.69-7.09,7.33-.2.52-.53-.05v-17.89s.93-2.92.93-2.92l1.7-7.78c-.61-.91-1.72-1.74-2.63-2.21v-15.23s10.09.99,10.09.99l8.06-23.37c.68-1.97,1.17-3.7,2.44-5.58l5.04,13.98,4.2,15.16c7.25.2,14.26-.56,21.45-1.1l7.84-.6c.43.6.15,1.58-.5,2.05-8.43,6.1-17.16,11.46-26.3,16.58l6.59,19.41,2.75,8.55Z"/>
        <path class="cls-3" d="M129.85,239.42h-61.63c.25-.4,1.02-1.07,1.57-1.21l20.66-5.4,8-2.56,2.39-15.41,2.85-16.45c.07-.39.59-1.13.92-1.07.28.05.9.47,1.02.72l4.76,9.63,4.03,8.9.86,1.87,3.02,6.25,19.54-5.04c4.75-1.22,9.18-2.48,14.23-2.58-1.33,2.19-2.81,3.52-4.4,5.02l-3.13,2.96-5.64,5.19-5.44,5.28c-.55.54-1.16.8-1.63,1.37l-1.97,2.52Z"/>
        <path class="cls-3" d="M335.51,224.05l-2.67-1.72-3.53,2.58-14.43,14.5h-4.74s2.1-7.36,2.1-7.36c1.97-7.28,3.94-14.28,5.34-21.86l-9.19-7.55-4.32-3.08-10.65-7.17c-.6-.13-1.02-1.16-.57-1.51l32.47,3.3c3.35-7.87,6.54-15.68,9.45-23.69l.75-.5v54.07Z"/>
        <path class="cls-3" d="M234.22,13.92h46.13s11.54,14.99,11.54,14.99c1.88,2.38,3.3,4.65,4.8,7.67l-7.21-1.9-12.17-3.76-12.59-3.32-3.41,3.99c-5.4,6.85-10.42,13.71-15.28,20.94-.19.29-1.16.44-1.33.15-.17-10.68.15-21.52,1.6-32.51l-11.27-5.34-.82-.91Z"/>
        <path class="cls-3" d="M53.67,13.92h17.46s-.48,15.35-.48,15.35c-.06,3.21.04,6.22-.54,9.56l-13.43-20.69-3.01-4.22Z"/>
        <path class="cls-3" d="M7.09,153.92v-6.83s3.95.9,3.95.9c2.02.33,3.82.46,5.96,1.43l-9.91,4.5Z"/>
        <path class="cls-3" d="M61.4,85.76l4.02,4.74,14.07,17.51,2.5,3.07,9.09,10.79,5.25-2.47,7.1-3.92,4.12-2.33,10.16-5.83,7.51-4.15c1.48-.82,2.65-1.71,4.75-1.72l-4.9,10.22c-2.26,4.73-5.2,8.99-8.05,13.39l-4.7,7.27-5.47,9.04,13.22,14.27,6.4,6.85c3.75,4.01,7.41,7.72,10.54,12.52l-12.48-3.27-13.27-3.9-15.08-4.53-9.14,18.09-3.4,7.07c-1.51,3.14-3.08,6.08-5.17,8.97l-1.96-13.62c-1.36-9.45-2.63-18.63-3.4-28.22l-23.72-3.31c-7.55-1.05-14.78-2.29-22.15-4.59.47-1.52,1.68-1.57,2.82-2.08,8.97-4.03,17.99-7.34,27.3-10.47l10.32-3.83-.32-4.32-2.17-13.54c-1.68-9.14-3.12-17.91-3.77-27.68Z"/>
        <path class="cls-3" d="M220.75,146.29l6.42-11.52,2.29-4.2-2.76-3.24-8.38-9.14-6.77-7.34-6.09-6.18c-1.83-1.86-3.61-3.43-5.35-5.89l19.9,4.87,20.08,4.8,11.42-22.43c1.66-3.27,2.79-6.62,4.22-9.94.94-2.18,1.47-4.25,3.27-6.46l2.07,19.34,2.51,21.82,11.42-.39c8.75-.3,17.15-.92,26.09-.56-1.02,1.53-2.03,2.3-3.18,3.21l-5.64,4.5-5.4,3.85-10.92,8.09-8.7,7.08,3.68,13.85c3.04,9.82,6.31,19.16,8.78,29.86l-18.71-16.55-7.2-6.61-8.57-7.27-5.01,1.96-5.54,2.81-17.24,10.34c-2.61,1.57-4.92,3.19-7.98,4.21,3.26-8.11,7.1-15.31,11.3-22.85Z"/>
        <path class="cls-3" d="M170.22,28.13c-.63-1.42-1.21-2.58-1.22-4.24,4.37,3.12,8.08,6.1,12.06,9.33l14.33,11.66,12.64-6.98,14.88-8.44c.72-.41,1.15-.89,2.15-.73l-8.56,18.29-6.1,12.44,5.27,4.89,5.2,4.34c5.06,4.22,10.44,7.77,16.08,11.2.43.26.76.81.88,1.45-5.78-.07-11.17-.66-16.92-1.35l-16.57-2c-4.47,9.32-8.55,18.36-12.31,27.75-.42,1.05-.8,1.94-1.97,2.35l-4.05-25.47-1.05-6.21-12.47,1.2-18.83,2.13-.73-.19c-.18-.05-.14-.53-.08-.75,9.74-7.23,19.31-14.42,28.77-22.25-3.46-9.72-7.23-19.08-11.4-28.42Z"/>
        <path class="cls-3" d="M152.85,121.23c-.15-.3-.15-1.44.14-1.49.34-.06,1.11.09,1.38.31l6.07,4.71,6.98,5.07c.62.45,1.45.18,1.93-.32l3.03-3.14c2.9-3,5.9-5.52,9.66-8.01-.02,1.4-.62,2.43-1.09,3.67l-4.84,12.81,11.56,6.95,4.23,2.28c.14-.01.88.42.7.55l-.85.63-16.62.81-1.1,9.66-.49,5.19-.72.83c-.18.21-.77-.59-.91-.92l-4.29-10.32-2.43-5.16-8.32,2.34-9.13,2.96c.38-1.55,1.25-2.55,2.24-3.67l3.5-4.16,6.43-7.08-7.05-14.5Z"/>
        <path class="cls-3" d="M294.94,159.42l4.49-6.33-2.66-1.77-4.51-3.18-2.1-1.64-2.94-2.18c-.22-.16-.47-.75-.5-.98-.04-.29.84-.52,1.18-.46l14.25,2.53,3.38-15.71c2.22,4.76,2.91,9.62,4.08,14.57.12.51.41,1.68.8,1.97l3.49.77c4.08.9,7.83,1.11,12.07,2.26-1.28.96-2.19,1.43-3.34,1.97l-4.6,2.15c-2.31,1.08-4.31,2.3-6.54,3.78l1.05,4.14,2.4,11.1c-1.77-.91-2.49-2.03-3.52-3.24l-6.92-8.1-8.47,3.8-4.22,1.59c-.26.1-.87.02-1.06-.12s-.11-.97.06-1.19l4.13-5.73Z"/>
        <path class="cls-3" d="M143.88,197.7l1.07-2.53-5.54-3.92-7.73-5.46c-.11-.22-.38-.81-.21-.92s.8-.24,1.01-.2l7.29,1.36,5.96,1.32-1.42-11.39c-.14-1.12-.75-2.16-.03-3.38l9.31,13.39,8.87-2.22c2.29-.57,4.45-1.19,7.02-1.23-3.47,4.45-7.59,7.29-12.31,10.35l5.14,10.48c1,2.04,2.52,3.62,2.66,6.25l-13.12-10.29c-.46-.36-1.45.16-1.82.5l-2.27,2.09-3.59,3.24-4.07,3.7c-.15.14-.98.25-1.03.07l-.27-.93,5.07-10.31Z"/>
      </g>
    </g>
  </g>
</svg>