<svg width="334" height="334" viewBox="0 0 334 334" fill="none" xmlns="http://www.w3.org/2000/svg">
<g clip-path="url(#clip0_1356_6098)">
<rect width="334" height="334" fill="#FAFAF5"/>
<path d="M256 334H168.183C168.375 333.6 168.968 332.623 169.323 332.297L175.292 326.802L203.953 301.607L199.865 295.623L185.231 273.954L177.41 261.246C175.87 258.743 174.73 256.388 173.515 253.218L185.586 257.187L210.781 267.926L225.77 274.502L233.339 265.156L264.088 228.364C263.999 239.103 263.806 249.026 262.814 259.38L259.688 291.639L266.235 294.35C278.203 299.311 289.608 304.525 301.264 310.213L317.083 316.537C317.513 316.7 318.357 317.604 318.09 317.811C317.898 317.974 317.142 318.433 316.861 318.492L309.322 319.84L256.282 327.764L256 333.985V334Z" fill="#93AEE8"/>
<path d="M62.0284 0H72.7964L85.0159 12.3528L91.4886 18.4255L101.723 14.856L132.339 3.64363C132.872 3.70288 133.568 3.70288 133.598 3.96949L133.746 4.97667C131.48 10.5902 128.606 15.5077 125.037 20.3659L111.262 41.3242L117.453 47.7524L133.361 61.8529L139.448 67.896C139.833 68.2811 140.307 69.7919 139.893 70.0882L138.115 71.3619L119.645 70.0141L101.383 68.9625L99.3535 73.5244L96.3319 80.0415L86.6748 98.5115L80.9872 108.687C80.765 109.072 80.1429 109.605 79.8171 109.709C79.4912 109.813 79.0024 109.028 78.8247 108.628L76.2327 76.7978L74.6182 62.7565C62.7098 59.3202 51.2012 56.6689 39.2335 53.9436L29.3542 50.9072C29.1616 50.5962 29.1024 49.4261 29.4282 49.2928L30.5391 48.8484L47.676 41.8426L62.4283 36.0216L69.7749 32.689L66.2053 16.1149L62.0136 0H62.0284Z" fill="#93AEE8"/>
<path d="M410.44 115.322L405.449 113.397L396.962 123.483L383.069 141.479L375.989 150.959C375.841 151.122 375.026 151.447 374.967 151.24L374.611 150.07L374.285 136.221C374.019 128.03 374.285 120.017 374.211 111.812L374.108 102.199L358.881 94.7341L331.628 81.9517L322.341 77.3898C322.001 77.2268 322.963 76.0123 323.186 76.19L338.827 74.9755C350.098 74.1016 361.118 73.3166 372.167 71.1985L382.076 21.2393L400.724 50.1514C401.494 51.3363 402.62 51.7066 403.834 51.2918L410.425 49.159V115.352L410.44 115.322Z" fill="#93AEE8"/>
<path d="M-14.2952 333.985H-22.7674C-22.7229 333.704 -23.2413 332.786 -23.582 332.46L-29.5955 326.743L-39.7858 316.922L-49.7984 308.613L-53.0273 310.968L-64.4174 322.358L-74.9188 333.215L-75.215 333.985L-76 333.911V307.413L-74.6225 303.089L-72.1046 291.565C-73.0081 290.217 -74.6522 288.988 -76 288.292V265.734L-61.0552 267.2L-49.1171 232.586C-48.1099 229.668 -47.3841 227.105 -45.5031 224.321L-38.038 245.027L-31.8172 267.482C-21.0788 267.778 -10.696 266.652 -0.0464754 265.852L11.5658 264.964C12.2027 265.852 11.7879 267.304 10.8252 268C-1.66093 277.035 -14.5914 284.974 -28.1291 292.558L-18.3683 321.307L-14.2952 333.971V333.985Z" fill="#93AEE8"/>
<path d="M105.826 334H14.5427C14.913 333.407 16.0535 332.415 16.8681 332.208L47.4687 324.209L59.318 320.418L62.8579 297.593L67.0792 273.228C67.1829 272.65 67.9531 271.554 68.4419 271.643C68.8566 271.717 69.7749 272.339 69.9527 272.71L77.0029 286.973L82.972 300.155L84.2458 302.925L88.7189 312.182L117.661 304.717C124.696 302.91 131.258 301.044 138.737 300.896C136.767 304.14 134.575 306.11 132.22 308.331L127.584 312.716L119.231 320.403L111.173 328.223C110.359 329.023 109.455 329.408 108.759 330.252L105.841 333.985L105.826 334Z" fill="#93AEE8"/>
<path d="M260.414 0H328.74L345.833 22.2025C348.617 25.7276 350.72 29.0898 352.942 33.5629L342.263 30.7487L324.237 25.1796L305.59 20.2622L300.539 26.172C292.541 36.3179 285.105 46.4786 277.907 57.1873C277.625 57.6168 276.189 57.839 275.937 57.4095C275.685 41.5908 276.159 25.5351 278.307 9.25721L261.614 1.34785L260.4 0H260.414Z" fill="#93AEE8"/>
<path d="M-7.00781 0H18.8531L18.1422 22.7357C18.0533 27.4902 18.2014 31.9485 17.3423 36.8955L-2.54954 6.25046L-7.00781 0Z" fill="#93AEE8"/>
<path d="M4.44116 106.406L10.3954 113.426L31.2352 139.361L34.9381 143.909L48.4018 159.89L56.1778 156.232L66.694 150.426L72.7964 146.975L87.8449 138.339L98.9683 132.193C101.16 130.978 102.893 129.66 106.004 129.645L98.7462 144.782C95.3988 151.788 91.0442 158.098 86.8229 164.615L79.8615 175.383L71.7596 188.773L91.3404 209.909L100.82 220.055C106.374 225.994 111.795 231.489 116.431 238.599L97.9463 233.755L78.2915 227.979L55.9557 221.269L42.4179 248.063L37.382 258.535C35.1455 263.186 32.8201 267.54 29.7244 271.821L26.8214 251.648C24.807 237.651 22.926 224.054 21.7855 209.85L-13.3475 204.947C-24.5302 203.392 -35.2389 201.555 -46.155 198.148C-45.4589 195.897 -43.6667 195.823 -41.9782 195.068C-28.6922 189.099 -15.3322 184.196 -1.5427 179.56L13.7428 173.887L13.2688 167.489L10.0547 147.434C7.5664 133.896 5.43353 120.906 4.47078 106.435L4.44116 106.406Z" fill="#93AEE8"/>
<path d="M240.463 196.06L249.972 178.998L253.364 172.777L249.276 167.978L236.864 154.44L226.836 143.568L217.816 134.415C215.106 131.66 212.469 129.335 209.892 125.691L239.367 132.904L269.109 140.014L286.023 106.791C288.482 101.948 290.156 96.9862 292.274 92.0687C293.666 88.8398 294.451 85.7738 297.117 82.5005L300.183 111.146L303.901 143.465L320.816 142.887C333.776 142.443 346.217 141.524 359.459 142.058C357.948 144.324 356.452 145.464 354.749 146.812L346.395 153.477L338.397 159.18L322.223 171.162L309.337 181.649L314.787 202.163C319.29 216.708 324.133 230.542 327.792 246.39L300.079 221.877L289.415 212.087L276.722 201.319L269.301 204.222L261.096 208.384L235.56 223.699C231.695 226.024 228.273 228.424 223.741 229.934C228.569 217.922 234.257 207.258 240.478 196.09L240.463 196.06Z" fill="#93AEE8"/>
<path d="M165.621 21.0477C164.687 18.9444 163.828 17.2263 163.813 14.7676C170.286 19.3888 175.781 23.8026 181.676 28.5867L202.901 45.857L221.623 35.5185L243.662 23.0176C244.729 22.4103 245.366 21.6994 246.847 21.9364L234.168 49.0266L225.133 67.4522L232.939 74.695L240.641 81.1232C248.136 87.3737 256.104 92.6318 264.458 97.7121C265.095 98.0972 265.584 98.9119 265.761 99.8598C257.2 99.7561 249.217 98.8822 240.7 97.8603L216.157 94.8979C209.537 108.702 203.494 122.092 197.924 136C197.302 137.555 196.74 138.873 195.007 139.481L189.008 101.756L187.453 92.5577L168.983 94.3351L141.093 97.49L140.011 97.2086C139.745 97.1345 139.804 96.4235 139.893 96.0977C154.319 85.389 168.494 74.7395 182.506 63.142C177.381 48.7452 171.797 34.8816 165.621 21.0477Z" fill="#93AEE8"/>
<path d="M139.893 158.942C139.67 158.498 139.67 156.809 140.1 156.735C140.604 156.647 141.744 156.869 142.144 157.195L151.135 164.171L161.473 171.68C162.391 172.347 163.621 171.947 164.332 171.206L168.82 166.555C173.115 162.112 177.558 158.379 183.128 154.691C183.098 156.765 182.209 158.291 181.513 160.127L174.344 179.101L191.466 189.395L197.732 192.772C197.939 192.757 199.035 193.394 198.768 193.586L197.51 194.52L172.893 195.719L171.263 210.027L170.538 217.714L169.471 218.944C169.205 219.255 168.331 218.07 168.123 217.581L161.769 202.296L158.17 194.653L145.847 198.119L132.324 202.503C132.887 200.207 134.175 198.726 135.642 197.067L140.826 190.906L150.35 180.419L139.907 158.942H139.893Z" fill="#93AEE8"/>
<path d="M126.607 272.207L128.192 268.459L119.986 262.653L108.537 254.566C108.374 254.24 107.974 253.366 108.226 253.203C108.477 253.04 109.411 252.848 109.722 252.907L120.519 254.922L129.347 256.877L127.244 240.006C127.036 238.347 126.133 236.807 127.199 235L140.989 254.833L154.127 251.544C157.518 250.7 160.718 249.782 164.524 249.723C159.385 256.314 153.282 260.52 146.291 265.053L153.904 280.575C155.386 283.597 157.637 285.937 157.844 289.832L138.412 274.591C137.73 274.058 136.264 274.828 135.716 275.332L132.354 278.427L127.036 283.226L121.008 288.707C120.786 288.914 119.556 289.077 119.482 288.81L119.083 287.433L126.592 272.162L126.607 272.207Z" fill="#93AEE8"/>
</g>
<defs>
<clipPath id="clip0_1356_6098">
<rect width="334" height="334" fill="white"/>
</clipPath>
</defs>
</svg>
