<?xml version="1.0" encoding="UTF-8"?>
<svg id="_레이어_1" data-name="레이어 1" xmlns="http://www.w3.org/2000/svg" xmlns:xlink="http://www.w3.org/1999/xlink" viewBox="0 0 12.61 234.66">
  <defs>
    <style>
      .cls-1 {
        fill: none;
      }

      .cls-2 {
        fill: #d6c8b6;
      }

      .cls-3 {
        fill: #efedd8;
      }

      .cls-4 {
        clip-path: url(#clippath);
      }
    </style>
    <clipPath id="clippath">
      <path class="cls-1" d="M8.81,4.83v225H3.81V4.83h5Z"/>
    </clipPath>
  </defs>
  <g class="cls-4">
    <g>
      <polygon class="cls-3" points="-272.88 212.29 44.79 212.29 44.81 203.52 -272.88 203.52 -272.88 194.75 44.79 194.75 44.78 185.95 -272.88 185.98 -272.88 177.21 44.79 177.21 44.81 168.46 -272.88 168.43 -272.88 159.66 44.81 159.66 44.81 150.87 -272.88 150.89 -272.88 141.84 44.8 141.82 44.94 133.94 45.14 229.72 44.85 229.83 44.81 221.04 -272.88 221.06 -272.88 212.29"/>
      <polygon class="cls-3" points="-272.88 106.75 44.8 106.73 44.81 98.28 -272.88 98.27 -272.88 89.21 44.81 89.23 44.81 80.7 -272.88 80.72 -272.88 71.67 44.8 71.66 44.79 62.9 -272.88 62.9 -272.88 54.13 45.14 54.13 45.14 115.8 -272.88 115.81 -272.88 106.75"/>
      <path class="cls-3" d="M-272.88,19.04l317.69.02v-8.79s-317.69,0-317.69,0v-5.94s318.02,0,318.02,0v31.69c-.14.03-.25-.6-.25-.89l-.1-7.32h-317.66s0-8.77,0-8.77Z"/>
      <polygon class="cls-3" points="-272.88 124.3 44.78 124.32 44.98 116.74 45.14 133.35 -272.88 133.35 -272.88 124.3"/>
      <path class="cls-3" d="M-272.88,36.59H45.14s0,16.69,0,16.69c-.08.16-.29-.49-.29-.69v-7.24s-317.73,0-317.73,0v-8.77Z"/>
      <g>
        <path class="cls-2" d="M-272.88,45.36H44.86s-.01,7.24-.01,7.24c0,.2.21.85.29.69v.85s-318.02,0-318.02,0v-8.77Z"/>
        <path class="cls-2" d="M-272.88,27.82H44.78s.1,7.32.1,7.32c0,.28.11.91.25.89v.57s-318.02,0-318.02,0v-8.77Z"/>
        <polygon class="cls-2" points="-272.88 221.06 44.81 221.04 44.85 229.83 -272.88 229.83 -272.88 221.06"/>
        <polygon class="cls-2" points="-272.88 203.52 44.81 203.52 44.79 212.29 -272.88 212.29 -272.88 203.52"/>
        <polygon class="cls-2" points="-272.88 185.98 44.78 185.95 44.79 194.75 -272.88 194.75 -272.88 185.98"/>
        <polygon class="cls-2" points="-272.88 168.43 44.81 168.46 44.79 177.21 -272.88 177.21 -272.88 168.43"/>
        <polygon class="cls-2" points="-272.88 150.89 44.81 150.87 44.81 159.66 -272.88 159.66 -272.88 150.89"/>
        <polygon class="cls-2" points="-272.88 62.9 44.79 62.9 44.8 71.66 -272.88 71.67 -272.88 62.9"/>
        <polygon class="cls-2" points="-272.88 10.27 44.81 10.27 44.81 19.07 -272.88 19.04 -272.88 10.27"/>
        <polygon class="cls-2" points="-272.88 115.81 45.14 115.8 44.98 116.74 44.78 124.32 -272.88 124.3 -272.88 115.81"/>
        <polygon class="cls-2" points="-272.88 133.35 45.14 133.35 44.94 133.94 44.8 141.82 -272.88 141.84 -272.88 133.35"/>
        <polygon class="cls-2" points="-272.88 98.27 44.81 98.28 44.8 106.73 -272.88 106.75 -272.88 98.27"/>
        <polygon class="cls-2" points="-272.88 80.72 44.81 80.7 44.81 89.23 -272.88 89.21 -272.88 80.72"/>
      </g>
    </g>
  </g>
</svg>