<?xml version="1.0" encoding="UTF-8"?>
<svg id="_레이어_1" data-name="레이어 1" xmlns="http://www.w3.org/2000/svg" xmlns:xlink="http://www.w3.org/1999/xlink" viewBox="0 0 12.61 234.66">
  <defs>
    <style>
      .cls-1 {
        fill: none;
      }

      .cls-2 {
        fill: #c9c3d9;
      }

      .cls-3 {
        fill: #efedd8;
      }

      .cls-4 {
        clip-path: url(#clippath);
      }
    </style>
    <clipPath id="clippath">
      <path class="cls-1" d="M8.81,4.83v225H3.81V4.83h5Z"/>
    </clipPath>
  </defs>
  <g class="cls-4">
    <g>
      <polygon class="cls-3" points="-201.78 212.29 115.89 212.29 115.91 203.52 -201.78 203.52 -201.78 194.75 115.89 194.75 115.88 185.95 -201.78 185.98 -201.78 177.21 115.89 177.21 115.91 168.46 -201.78 168.43 -201.78 159.66 115.91 159.66 115.91 150.87 -201.78 150.89 -201.78 141.84 115.9 141.82 116.04 133.94 116.24 229.72 115.95 229.83 115.91 221.04 -201.78 221.06 -201.78 212.29"/>
      <polygon class="cls-3" points="-201.78 106.75 115.9 106.73 115.91 98.28 -201.78 98.27 -201.78 89.21 115.91 89.23 115.91 80.7 -201.78 80.72 -201.78 71.67 115.9 71.66 115.89 62.9 -201.78 62.9 -201.78 54.13 116.24 54.13 116.24 115.8 -201.78 115.81 -201.78 106.75"/>
      <path class="cls-3" d="M-201.78,19.04l317.69.02v-8.79s-317.69,0-317.69,0v-5.94s318.02,0,318.02,0v31.69c-.14.03-.25-.6-.25-.89l-.1-7.32H-201.78s0-8.77,0-8.77Z"/>
      <polygon class="cls-3" points="-201.78 124.3 115.88 124.32 116.08 116.74 116.24 133.35 -201.78 133.35 -201.78 124.3"/>
      <path class="cls-3" d="M-201.78,36.59H116.24s0,16.69,0,16.69c-.08.16-.29-.49-.29-.69v-7.24s-317.73,0-317.73,0v-8.77Z"/>
      <g>
        <path class="cls-2" d="M-201.78,45.36H115.96s-.01,7.24-.01,7.24c0,.2.21.85.29.69v.85s-318.02,0-318.02,0v-8.77Z"/>
        <path class="cls-2" d="M-201.78,27.82H115.88s.1,7.32.1,7.32c0,.28.11.91.25.89v.57s-318.02,0-318.02,0v-8.77Z"/>
        <polygon class="cls-2" points="-201.78 221.06 115.91 221.04 115.95 229.83 -201.78 229.83 -201.78 221.06"/>
        <polygon class="cls-2" points="-201.78 203.52 115.91 203.52 115.89 212.29 -201.78 212.29 -201.78 203.52"/>
        <polygon class="cls-2" points="-201.78 185.98 115.88 185.95 115.89 194.75 -201.78 194.75 -201.78 185.98"/>
        <polygon class="cls-2" points="-201.78 168.43 115.91 168.46 115.89 177.21 -201.78 177.21 -201.78 168.43"/>
        <polygon class="cls-2" points="-201.78 150.89 115.91 150.87 115.91 159.66 -201.78 159.66 -201.78 150.89"/>
        <polygon class="cls-2" points="-201.78 62.9 115.89 62.9 115.9 71.66 -201.78 71.67 -201.78 62.9"/>
        <polygon class="cls-2" points="-201.78 10.27 115.91 10.27 115.91 19.07 -201.78 19.04 -201.78 10.27"/>
        <polygon class="cls-2" points="-201.78 115.81 116.24 115.8 116.08 116.74 115.88 124.32 -201.78 124.3 -201.78 115.81"/>
        <polygon class="cls-2" points="-201.78 133.35 116.24 133.35 116.04 133.94 115.9 141.82 -201.78 141.84 -201.78 133.35"/>
        <polygon class="cls-2" points="-201.78 98.27 115.91 98.28 115.9 106.73 -201.78 106.75 -201.78 98.27"/>
        <polygon class="cls-2" points="-201.78 80.72 115.91 80.7 115.91 89.23 -201.78 89.21 -201.78 80.72"/>
      </g>
    </g>
  </g>
</svg>