<?xml version="1.0" encoding="UTF-8"?>
<svg id="_레이어_1" data-name="레이어 1" xmlns="http://www.w3.org/2000/svg" xmlns:xlink="http://www.w3.org/1999/xlink" viewBox="0 0 342.6 253.33">
  <defs>
    <style>
      .cls-1 {
        fill: none;
      }

      .cls-2 {
        fill: #c9c3d9;
      }

      .cls-3 {
        fill: #efedd8;
      }

      .cls-4 {
        clip-path: url(#clippath);
      }
    </style>
    <clipPath id="clippath">
      <path class="cls-1" d="M17.8,239.42L15.8,15.42l309-1.5,2,223.5-309,2Z"/>
    </clipPath>
  </defs>
  <g class="cls-4">
    <g>
      <polygon class="cls-3" points="12.29 221.87 329.96 221.87 329.97 213.11 12.29 213.1 12.29 204.33 329.96 204.33 329.95 195.54 12.29 195.56 12.29 186.79 329.96 186.79 329.98 178.04 12.29 178.02 12.29 169.25 329.98 169.25 329.98 160.45 12.29 160.48 12.29 151.42 329.97 151.4 330.11 143.52 330.31 239.3 330.02 239.42 329.98 230.62 12.29 230.65 12.29 221.87"/>
      <polygon class="cls-3" points="12.29 116.34 329.97 116.32 329.97 107.87 12.29 107.85 12.29 98.8 329.98 98.82 329.98 90.29 12.29 90.31 12.29 81.25 329.97 81.24 329.96 72.48 12.29 72.48 12.29 63.71 330.31 63.72 330.31 125.39 12.29 125.39 12.29 116.34"/>
      <path class="cls-3" d="M12.29,28.63l317.69.02v-8.79s-317.69,0-317.69,0v-5.94s318.02,0,318.02,0v31.69c-.14.03-.25-.6-.25-.89l-.1-7.32H12.29s0-8.77,0-8.77Z"/>
      <polygon class="cls-3" points="12.29 133.88 329.95 133.9 330.15 126.32 330.31 142.93 12.29 142.93 12.29 133.88"/>
      <path class="cls-3" d="M12.29,46.17h318.02s0,16.69,0,16.69c-.08.16-.29-.49-.29-.69v-7.24s-317.73,0-317.73,0v-8.77Z"/>
      <g>
        <path class="cls-2" d="M12.29,54.94h317.74s-.01,7.24-.01,7.24c0,.2.21.85.29.69v.85s-318.02,0-318.02,0v-8.77Z"/>
        <path class="cls-2" d="M12.29,37.4h317.66s.1,7.32.1,7.32c0,.28.11.91.25.89v.57s-318.02,0-318.02,0v-8.77Z"/>
        <polygon class="cls-2" points="12.29 230.65 329.98 230.62 330.02 239.42 12.29 239.42 12.29 230.65"/>
        <polygon class="cls-2" points="12.29 213.1 329.97 213.11 329.96 221.87 12.29 221.87 12.29 213.1"/>
        <polygon class="cls-2" points="12.29 195.56 329.95 195.54 329.96 204.33 12.29 204.33 12.29 195.56"/>
        <polygon class="cls-2" points="12.29 178.02 329.98 178.04 329.96 186.79 12.29 186.79 12.29 178.02"/>
        <polygon class="cls-2" points="12.29 160.48 329.98 160.45 329.98 169.25 12.29 169.25 12.29 160.48"/>
        <polygon class="cls-2" points="12.29 72.48 329.96 72.48 329.97 81.24 12.29 81.25 12.29 72.48"/>
        <polygon class="cls-2" points="12.29 19.86 329.98 19.86 329.98 28.65 12.29 28.63 12.29 19.86"/>
        <polygon class="cls-2" points="12.29 125.39 330.31 125.39 330.15 126.32 329.95 133.9 12.29 133.88 12.29 125.39"/>
        <polygon class="cls-2" points="12.29 142.93 330.31 142.93 330.11 143.52 329.97 151.4 12.29 151.42 12.29 142.93"/>
        <polygon class="cls-2" points="12.29 107.85 329.97 107.87 329.97 116.32 12.29 116.34 12.29 107.85"/>
        <polygon class="cls-2" points="12.29 90.31 329.98 90.29 329.98 98.82 12.29 98.8 12.29 90.31"/>
      </g>
    </g>
  </g>
</svg>