<?xml version="1.0" encoding="UTF-8"?>
<svg id="_레이어_1" data-name="레이어 1" xmlns="http://www.w3.org/2000/svg" xmlns:xlink="http://www.w3.org/1999/xlink" viewBox="0 0 12.61 234.66">
  <defs>
    <style>
      .cls-1 {
        fill: none;
      }

      .cls-2 {
        fill: #e2c4c7;
      }

      .cls-3 {
        fill: #efedd8;
      }

      .cls-4 {
        clip-path: url(#clippath);
      }
    </style>
    <clipPath id="clippath">
      <path class="cls-1" d="M8.81,4.83v225H3.81V4.83h5Z"/>
    </clipPath>
  </defs>
  <g class="cls-4">
    <g>
      <polygon class="cls-3" points="-271.11 212.54 46.56 212.54 46.58 203.77 -271.11 203.77 -271.11 195 46.57 195 46.56 186.2 -271.11 186.23 -271.11 177.46 46.57 177.46 46.58 168.71 -271.11 168.68 -271.11 159.91 46.58 159.91 46.58 151.12 -271.11 151.14 -271.11 142.09 46.57 142.07 46.71 134.19 46.91 229.97 46.63 230.08 46.58 221.29 -271.11 221.31 -271.11 212.54"/>
      <polygon class="cls-3" points="-271.11 107 46.58 106.98 46.58 98.53 -271.11 98.52 -271.11 89.46 46.58 89.48 46.58 80.95 -271.11 80.97 -271.11 71.92 46.58 71.91 46.56 63.15 -271.11 63.15 -271.11 54.38 46.91 54.38 46.91 116.05 -271.11 116.06 -271.11 107"/>
      <path class="cls-3" d="M-271.11,19.29l317.69.02v-8.79s-317.69,0-317.69,0v-5.94s318.02,0,318.02,0v31.69c-.14.03-.25-.6-.25-.89l-.1-7.32h-317.66s0-8.77,0-8.77Z"/>
      <polygon class="cls-3" points="-271.11 124.55 46.55 124.57 46.75 116.99 46.91 133.6 -271.11 133.6 -271.11 124.55"/>
      <path class="cls-3" d="M-271.11,36.84H46.91s0,16.69,0,16.69c-.08.16-.29-.49-.29-.69v-7.24s-317.73,0-317.73,0v-8.77Z"/>
      <g>
        <path class="cls-2" d="M-271.11,45.61H46.64s-.01,7.24-.01,7.24c0,.2.21.85.29.69v.85s-318.02,0-318.02,0v-8.77Z"/>
        <path class="cls-2" d="M-271.11,28.07H46.55s.1,7.32.1,7.32c0,.28.11.91.25.89v.57s-318.02,0-318.02,0v-8.77Z"/>
        <polygon class="cls-2" points="-271.11 221.31 46.58 221.29 46.63 230.08 -271.11 230.08 -271.11 221.31"/>
        <polygon class="cls-2" points="-271.11 203.77 46.58 203.77 46.56 212.54 -271.11 212.54 -271.11 203.77"/>
        <polygon class="cls-2" points="-271.11 186.23 46.56 186.2 46.57 195 -271.11 195 -271.11 186.23"/>
        <polygon class="cls-2" points="-271.11 168.68 46.58 168.71 46.57 177.46 -271.11 177.46 -271.11 168.68"/>
        <polygon class="cls-2" points="-271.11 151.14 46.58 151.12 46.58 159.91 -271.11 159.91 -271.11 151.14"/>
        <polygon class="cls-2" points="-271.11 63.15 46.56 63.15 46.58 71.91 -271.11 71.92 -271.11 63.15"/>
        <polygon class="cls-2" points="-271.11 10.52 46.58 10.52 46.58 19.32 -271.11 19.29 -271.11 10.52"/>
        <polygon class="cls-2" points="-271.11 116.06 46.91 116.05 46.75 116.99 46.55 124.57 -271.11 124.55 -271.11 116.06"/>
        <polygon class="cls-2" points="-271.11 133.6 46.91 133.6 46.71 134.19 46.57 142.07 -271.11 142.09 -271.11 133.6"/>
        <polygon class="cls-2" points="-271.11 98.52 46.58 98.53 46.58 106.98 -271.11 107 -271.11 98.52"/>
        <polygon class="cls-2" points="-271.11 80.97 46.58 80.95 46.58 89.48 -271.11 89.46 -271.11 80.97"/>
      </g>
    </g>
  </g>
</svg>