<?xml version="1.0" encoding="UTF-8"?>
<svg id="_레이어_1" data-name="레이어 1" xmlns="http://www.w3.org/2000/svg" xmlns:xlink="http://www.w3.org/1999/xlink" viewBox="0 0 12.61 234.66">
  <defs>
    <style>
      .cls-1 {
        fill: none;
      }

      .cls-2 {
        fill: #bfd0de;
      }

      .cls-3 {
        fill: #f3eedc;
      }

      .cls-4 {
        clip-path: url(#clippath);
      }
    </style>
    <clipPath id="clippath">
      <path class="cls-1" d="M8.81,4.83v225H3.81V4.83h5Z"/>
    </clipPath>
  </defs>
  <g class="cls-4">
    <g>
      <polygon class="cls-3" points="-234.19 212.54 83.48 212.54 83.5 203.77 -234.19 203.77 -234.19 195 83.49 195 83.48 186.2 -234.19 186.23 -234.19 177.46 83.49 177.46 83.5 168.71 -234.19 168.68 -234.19 159.91 83.5 159.91 83.5 151.12 -234.19 151.14 -234.19 142.09 83.49 142.07 83.63 134.19 83.83 229.97 83.55 230.08 83.5 221.29 -234.19 221.31 -234.19 212.54"/>
      <polygon class="cls-3" points="-234.19 107 83.49 106.98 83.5 98.53 -234.19 98.52 -234.19 89.46 83.5 89.48 83.5 80.95 -234.19 80.97 -234.19 71.92 83.5 71.91 83.48 63.15 -234.19 63.15 -234.19 54.38 83.83 54.38 83.83 116.05 -234.19 116.06 -234.19 107"/>
      <path class="cls-3" d="M-234.19,19.29l317.69.02v-8.79s-317.69,0-317.69,0v-5.94s318.02,0,318.02,0v31.69c-.14.03-.25-.6-.25-.89l-.1-7.32H-234.19s0-8.77,0-8.77Z"/>
      <polygon class="cls-3" points="-234.19 124.55 83.47 124.57 83.67 116.99 83.83 133.6 -234.19 133.6 -234.19 124.55"/>
      <path class="cls-3" d="M-234.19,36.84H83.83s0,16.69,0,16.69c-.08.16-.29-.49-.29-.69v-7.24s-317.73,0-317.73,0v-8.77Z"/>
      <g>
        <path class="cls-2" d="M-234.19,45.61H83.55s-.01,7.24-.01,7.24c0,.2.21.85.29.69v.85s-318.02,0-318.02,0v-8.77Z"/>
        <path class="cls-2" d="M-234.19,28.07H83.47s.1,7.32.1,7.32c0,.28.11.91.25.89v.57s-318.02,0-318.02,0v-8.77Z"/>
        <polygon class="cls-2" points="-234.19 221.31 83.5 221.29 83.55 230.08 -234.19 230.08 -234.19 221.31"/>
        <polygon class="cls-2" points="-234.19 203.77 83.5 203.77 83.48 212.54 -234.19 212.54 -234.19 203.77"/>
        <polygon class="cls-2" points="-234.19 186.23 83.48 186.2 83.49 195 -234.19 195 -234.19 186.23"/>
        <polygon class="cls-2" points="-234.19 168.68 83.5 168.71 83.49 177.46 -234.19 177.46 -234.19 168.68"/>
        <polygon class="cls-2" points="-234.19 151.14 83.5 151.12 83.5 159.91 -234.19 159.91 -234.19 151.14"/>
        <polygon class="cls-2" points="-234.19 63.15 83.48 63.15 83.5 71.91 -234.19 71.92 -234.19 63.15"/>
        <polygon class="cls-2" points="-234.19 10.52 83.5 10.52 83.5 19.32 -234.19 19.29 -234.19 10.52"/>
        <polygon class="cls-2" points="-234.19 116.06 83.83 116.05 83.67 116.99 83.47 124.57 -234.19 124.55 -234.19 116.06"/>
        <polygon class="cls-2" points="-234.19 133.6 83.83 133.6 83.63 134.19 83.49 142.07 -234.19 142.09 -234.19 133.6"/>
        <polygon class="cls-2" points="-234.19 98.52 83.5 98.53 83.49 106.98 -234.19 107 -234.19 98.52"/>
        <polygon class="cls-2" points="-234.19 80.97 83.5 80.95 83.5 89.48 -234.19 89.46 -234.19 80.97"/>
      </g>
    </g>
  </g>
</svg>