<?xml version="1.0" encoding="UTF-8"?>
<svg id="_레이어_1" data-name="레이어 1" xmlns="http://www.w3.org/2000/svg" xmlns:xlink="http://www.w3.org/1999/xlink" viewBox="0 0 12.61 234.66">
  <defs>
    <style>
      .cls-1 {
        fill: none;
      }

      .cls-2 {
        fill: #b9c6b0;
      }

      .cls-3 {
        fill: #efedd8;
      }

      .cls-4 {
        clip-path: url(#clippath);
      }
    </style>
    <clipPath id="clippath">
      <path class="cls-1" d="M8.81,4.83v225H3.81V4.83h5Z"/>
    </clipPath>
  </defs>
  <g class="cls-4">
    <g>
      <polygon class="cls-3" points="-267.04 212.29 50.63 212.29 50.64 203.52 -267.04 203.52 -267.04 194.75 50.63 194.75 50.62 185.95 -267.04 185.98 -267.04 177.21 50.63 177.21 50.64 168.46 -267.04 168.43 -267.04 159.66 50.65 159.66 50.65 150.87 -267.04 150.89 -267.04 141.84 50.63 141.82 50.78 133.94 50.97 229.72 50.69 229.83 50.64 221.04 -267.04 221.06 -267.04 212.29"/>
      <polygon class="cls-3" points="-267.04 106.75 50.64 106.73 50.64 98.28 -267.04 98.27 -267.04 89.21 50.64 89.23 50.64 80.7 -267.04 80.72 -267.04 71.67 50.64 71.66 50.63 62.9 -267.04 62.9 -267.04 54.13 50.97 54.13 50.97 115.8 -267.04 115.81 -267.04 106.75"/>
      <path class="cls-3" d="M-267.04,19.04l317.69.02v-8.79s-317.69,0-317.69,0v-5.94s318.02,0,318.02,0v31.69c-.14.03-.25-.6-.25-.89l-.1-7.32h-317.66s0-8.77,0-8.77Z"/>
      <polygon class="cls-3" points="-267.04 124.3 50.61 124.32 50.82 116.74 50.98 133.35 -267.04 133.35 -267.04 124.3"/>
      <path class="cls-3" d="M-267.04,36.59H50.97s0,16.69,0,16.69c-.08.16-.29-.49-.29-.69v-7.24s-317.73,0-317.73,0v-8.77Z"/>
      <g>
        <path class="cls-2" d="M-267.04,45.36H50.7s-.01,7.24-.01,7.24c0,.2.21.85.29.69v.85s-318.02,0-318.02,0v-8.77Z"/>
        <path class="cls-2" d="M-267.04,27.82H50.62s.1,7.32.1,7.32c0,.28.11.91.25.89v.57s-318.02,0-318.02,0v-8.77Z"/>
        <polygon class="cls-2" points="-267.04 221.06 50.64 221.04 50.69 229.83 -267.04 229.83 -267.04 221.06"/>
        <polygon class="cls-2" points="-267.04 203.52 50.64 203.52 50.63 212.29 -267.04 212.29 -267.04 203.52"/>
        <polygon class="cls-2" points="-267.04 185.98 50.62 185.95 50.63 194.75 -267.04 194.75 -267.04 185.98"/>
        <polygon class="cls-2" points="-267.04 168.43 50.64 168.46 50.63 177.21 -267.04 177.21 -267.04 168.43"/>
        <polygon class="cls-2" points="-267.04 150.89 50.65 150.87 50.65 159.66 -267.04 159.66 -267.04 150.89"/>
        <polygon class="cls-2" points="-267.04 62.9 50.63 62.9 50.64 71.66 -267.04 71.67 -267.04 62.9"/>
        <polygon class="cls-2" points="-267.04 10.27 50.65 10.27 50.65 19.07 -267.04 19.04 -267.04 10.27"/>
        <polygon class="cls-2" points="-267.04 115.81 50.97 115.8 50.82 116.74 50.61 124.32 -267.04 124.3 -267.04 115.81"/>
        <polygon class="cls-2" points="-267.04 133.35 50.98 133.35 50.78 133.94 50.63 141.82 -267.04 141.84 -267.04 133.35"/>
        <polygon class="cls-2" points="-267.04 98.27 50.64 98.28 50.64 106.73 -267.04 106.75 -267.04 98.27"/>
        <polygon class="cls-2" points="-267.04 80.72 50.64 80.7 50.64 89.23 -267.04 89.21 -267.04 80.72"/>
      </g>
    </g>
  </g>
</svg>