<?xml version="1.0" encoding="UTF-8"?>
<svg id="_레이어_1" data-name="레이어 1" xmlns="http://www.w3.org/2000/svg" xmlns:xlink="http://www.w3.org/1999/xlink" viewBox="0 0 342.6 253.33">
  <defs>
    <style>
      .cls-1 {
        fill: none;
      }

      .cls-2 {
        fill: #d6c8b6;
      }

      .cls-3 {
        fill: #efedd8;
      }

      .cls-4 {
        clip-path: url(#clippath);
      }
    </style>
    <clipPath id="clippath">
      <path class="cls-1" d="M17.8,239.42L15.8,15.42l309-1.5,2,223.5-309,2Z"/>
    </clipPath>
  </defs>
  <g class="cls-4">
    <g>
      <polygon class="cls-3" points="12.29 220.27 329.96 220.27 329.97 211.51 12.29 211.5 12.29 202.73 329.96 202.73 329.95 193.94 12.29 193.96 12.29 185.19 329.96 185.19 329.98 176.44 12.29 176.42 12.29 167.65 329.98 167.65 329.98 158.85 12.29 158.88 12.29 149.82 329.97 149.8 330.11 141.92 330.31 237.7 330.02 237.82 329.98 229.02 12.29 229.05 12.29 220.27"/>
      <polygon class="cls-3" points="12.29 114.74 329.97 114.72 329.97 106.27 12.29 106.25 12.29 97.2 329.98 97.22 329.98 88.69 12.29 88.71 12.29 79.65 329.97 79.64 329.96 70.88 12.29 70.88 12.29 62.11 330.31 62.12 330.31 123.79 12.29 123.79 12.29 114.74"/>
      <path class="cls-3" d="M12.29,27.03l317.69.02v-8.79s-317.69,0-317.69,0v-5.94s318.02,0,318.02,0v31.69c-.14.03-.25-.6-.25-.89l-.1-7.32H12.29s0-8.77,0-8.77Z"/>
      <polygon class="cls-3" points="12.29 132.28 329.95 132.3 330.15 124.72 330.31 141.33 12.29 141.33 12.29 132.28"/>
      <path class="cls-3" d="M12.29,44.57h318.02s0,16.69,0,16.69c-.08.16-.29-.49-.29-.69v-7.24s-317.73,0-317.73,0v-8.77Z"/>
      <g>
        <path class="cls-2" d="M12.29,53.34h317.74s-.01,7.24-.01,7.24c0,.2.21.85.29.69v.85s-318.02,0-318.02,0v-8.77Z"/>
        <path class="cls-2" d="M12.29,35.8h317.66s.1,7.32.1,7.32c0,.28.11.91.25.89v.57s-318.02,0-318.02,0v-8.77Z"/>
        <polygon class="cls-2" points="12.29 229.05 329.98 229.02 330.02 237.82 12.29 237.82 12.29 229.05"/>
        <polygon class="cls-2" points="12.29 211.5 329.97 211.51 329.96 220.27 12.29 220.27 12.29 211.5"/>
        <polygon class="cls-2" points="12.29 193.96 329.95 193.94 329.96 202.73 12.29 202.73 12.29 193.96"/>
        <polygon class="cls-2" points="12.29 176.42 329.98 176.44 329.96 185.19 12.29 185.19 12.29 176.42"/>
        <polygon class="cls-2" points="12.29 158.88 329.98 158.85 329.98 167.65 12.29 167.65 12.29 158.88"/>
        <polygon class="cls-2" points="12.29 70.88 329.96 70.88 329.97 79.64 12.29 79.65 12.29 70.88"/>
        <polygon class="cls-2" points="12.29 18.26 329.98 18.26 329.98 27.05 12.29 27.03 12.29 18.26"/>
        <polygon class="cls-2" points="12.29 123.79 330.31 123.79 330.15 124.72 329.95 132.3 12.29 132.28 12.29 123.79"/>
        <polygon class="cls-2" points="12.29 141.33 330.31 141.33 330.11 141.92 329.97 149.8 12.29 149.82 12.29 141.33"/>
        <polygon class="cls-2" points="12.29 106.25 329.97 106.27 329.97 114.72 12.29 114.74 12.29 106.25"/>
        <polygon class="cls-2" points="12.29 88.71 329.98 88.69 329.98 97.22 12.29 97.2 12.29 88.71"/>
      </g>
    </g>
  </g>
</svg>