<svg width="334" height="334" viewBox="0 0 334 334" fill="none" xmlns="http://www.w3.org/2000/svg">
<g clip-path="url(#clip0_1356_6172)">
<rect width="334" height="334" fill="#BFD0DE"/>
<path d="M-68.1431 307.545H401.67L401.685 294.59L-68.1431 294.575V281.604H401.67L401.656 268.605L-68.1431 268.634V255.664H401.67L401.7 242.723L-68.1431 242.694V229.723H401.7V216.709L-68.1431 216.753V203.354L401.685 203.324L401.892 191.67L402.188 333.323L401.759 333.5L401.7 320.486L-68.1431 320.53V307.545Z" fill="#F3EEDC"/>
<path d="M-68.1431 151.473L401.685 151.443V138.946L-68.1431 138.916V125.532L401.7 125.562V112.946L-68.1431 112.976V99.5768L401.685 99.562L401.67 86.6065H-68.1431V73.6362L402.188 73.651V164.857H-68.1431V151.473Z" fill="#F3EEDC"/>
<path d="M-68.1431 21.7551L401.7 21.7847V8.78488H-68.1431V0H402.188V46.8675C401.981 46.9118 401.818 45.9801 401.818 45.5512L401.67 34.7254H-68.1431V21.7551Z" fill="#F3EEDC"/>
<path d="M-68.1431 177.413L401.656 177.443L401.951 166.232L402.188 190.798H-68.1431V177.413Z" fill="#F3EEDC"/>
<path d="M-68.1431 47.6959H402.188V72.3794C402.07 72.616 401.759 71.6547 401.759 71.3589V60.6514H-68.1431V47.6812V47.6959Z" fill="#F3EEDC"/>
</g>
<defs>
<clipPath id="clip0_1356_6172">
<rect width="334" height="334" fill="white"/>
</clipPath>
</defs>
</svg>
