<?xml version="1.0" encoding="UTF-8"?>
<svg id="_레이어_1" data-name="레이어 1" xmlns="http://www.w3.org/2000/svg" xmlns:xlink="http://www.w3.org/1999/xlink" viewBox="0 0 342.6 253.33">
  <defs>
    <style>
      .cls-1 {
        fill: none;
      }

      .cls-2 {
        fill: #4a6fa5;
      }

      .cls-3 {
        fill: #d9ecf2;
      }

      .cls-4 {
        clip-path: url(#clippath);
      }
    </style>
    <clipPath id="clippath">
      <path class="cls-1" d="M17.8,239.42L15.8,15.42l309-1.5,2,223.5-309,2Z"/>
    </clipPath>
  </defs>
  <g class="cls-4">
    <g>
      <path class="cls-3" d="M346.63,17.84c-1.5.34-2.85,1.54-2.81,3.21s1.23,3.14,2.84,3.3l.12,19.9c-1.59-.01-2.8,1.44-2.83,2.98-.04,1.69,1.18,3.18,2.87,3.32l.12,19.67c-1.64.14-2.86,1.4-2.91,2.98-.06,1.78,1.18,3.25,2.95,3.31l.12,19.9c-1.59-.05-2.79,1.42-2.83,2.97-.04,1.7,1.21,3.06,2.87,3.33l.12,19.9c-1.72.08-2.8,1.46-2.81,3.2,0,1.59,1.26,2.86,2.85,3.33l.12,19.45c-1.2.18-2.28.87-2.65,1.91-.49,1.36-.25,2.76.85,3.66.53.43,1.26.65,1.84.72l.12,19.9c-1.62-.02-2.75,1.41-2.84,2.99s1.24,3.08,2.88,3.31l.12,19.9c-.88.04-1.92.6-2.34,1.31-.55.94-.57,2.06-.25,3.01.42,1.24,1.44,1.91,2.63,1.98l.12,19.67c-1.03.14-2.22.92-2.59,1.74-.58,1.28-.38,2.55.42,3.5.62.74,1.35,1.05,2.21,1.05l.12,19.9c-1.61,0-2.77,1.42-2.81,2.98-.04,1.67,1.16,3.17,2.84,3.31l.06,10.43-9.71.06c.48-1.9-1.03-3.71-2.97-3.75s-3.65,1.82-3.32,3.79l-19.9.12c.19-1.6-.72-3.1-2.3-3.53-1.47-.4-3.2.26-3.78,1.89-.14.41-.12,1.29-.22,1.68l-19.67.12c.15-1.02-.01-2-.69-2.72-.73-.77-1.67-1-2.88-.82-1.67.25-2.76,1.99-2.72,3.58l-19.9.12c.46-1.95-1.01-3.68-3.02-3.73s-3.66,1.8-3.28,3.77l-19.9.12c0-.87-.14-2.05-.78-2.65-1.11-1.06-2.59-1.22-3.87-.59-1.17.58-1.72,1.94-1.65,3.28l-19.67.12c.14-1.04.01-2.01-.7-2.71-.75-.75-1.68-1.01-2.87-.84-1.71.25-2.76,1.97-2.73,3.59l-19.67.12c-.03-.53-.17-1.49-.4-1.94-.82-1.57-2.5-2.1-3.93-1.62-1.53.52-2.38,2.03-2.18,3.6l-19.9.12c.16-1.62-.82-3.42-2.58-3.56-1.18-.09-2.18.09-2.87.87-.64.72-.8,1.74-.84,2.73l-19.67.12c.12-.99-.04-2.04-.69-2.71-.8-.83-1.84-1.02-3.09-.79-1.62.29-2.56,2.01-2.52,3.54l-19.9.12c.5-1.93-1.05-3.67-2.99-3.75-2.03-.08-3.61,1.8-3.31,3.78l-19.9.12c.2-1.61-.89-3.34-2.59-3.56-1.2-.15-2.14.11-2.87.87-.69.72-.81,1.69-.84,2.73l-19.67.12c.1-.95-.08-2.04-.72-2.69-.77-.8-1.87-1.07-3.07-.82-1.59.33-2.56,2.05-2.52,3.55l-19.9.12c.16-.99.01-1.96-.69-2.7s-1.67-1.24-2.79-1.03c-1.88.34-3.01,2.01-2.94,3.77l-28.66.17L-11.7,3.35,346.52,1.2l.1,16.65ZM337.18,34.02c-.15-1.87-1.77-3.15-3.56-2.95s-3.09,1.78-2.82,3.66c.24,1.68,1.73,2.95,3.69,2.74,1.5-.16,2.84-1.65,2.7-3.45ZM337.66,112.32c-.24-2.08-1.96-3.13-3.77-2.84-1.68.26-2.81,1.82-2.62,3.64.17,1.65,1.77,3.02,3.68,2.74,1.46-.21,2.92-1.73,2.71-3.54ZM338.1,190.64c-.24-1.93-2.02-3.11-3.74-2.8s-2.84,1.87-2.62,3.65,1.77,3.04,3.68,2.74c1.54-.24,2.91-1.7,2.68-3.59ZM336.8,7.08c-.56-1.88-2.43-2.6-4.1-2.02-1.53.53-2.34,2.37-1.9,3.89.51,1.75,2.22,2.57,3.97,2.07,1.55-.44,2.55-2.17,2.03-3.93ZM337.08,59.45c-.58-1.8-2.59-2.4-4.25-1.77-1.44.55-2.25,2.42-1.65,3.96s2.34,2.49,3.96,1.86,2.53-2.2,1.93-4.04ZM334.32,89.54c1.73-.01,3.13-1.42,3.12-3.15s-1.42-3.13-3.15-3.12-3.13,1.42-3.12,3.15,1.42,3.13,3.15,3.12ZM336.61,141.37c1.41-.99,1.51-3.47.26-4.69s-3.39-1.16-4.52.02-1.16,3.17-.12,4.29,2.78,1.51,4.38.38ZM337.76,163.89c-.47-1.8-2.33-2.6-3.89-2.13-1.78.53-2.57,2.25-2.11,3.9.5,1.83,2.19,2.53,3.99,2.08,1.56-.39,2.45-2.17,2.02-3.85ZM338.01,216.17c-.58-1.78-2.61-2.42-4.18-1.73s-2.32,2.38-1.69,3.94,2.42,2.39,4.02,1.86,2.45-2.24,1.86-4.07ZM333.31,240.69c-1.09.74-1.4,2.02-1.12,3.32.2.91,1.05,1.92,2.15,2.14,1.66.34,3.09-.22,3.74-1.67.56-1.26.32-2.79-.83-3.76-1.03-.87-2.56-.95-3.93-.03ZM323.91,20.58c-.37-1.99-2.22-2.89-3.91-2.49s-2.7,2.03-2.38,3.76,2.03,2.88,3.83,2.54c1.61-.31,2.82-1.9,2.47-3.8ZM320.25,50.6c1.53.22,2.57-.19,3.37-1.3,1.13-1.58.51-3.85-1.18-4.68-1.79-.88-3.92-.02-4.52,1.82s.27,3.86,2.34,4.16ZM320.84,76.6c1.28.12,2.09-.22,2.75-.92s.88-1.6.72-2.71c-.24-1.66-1.81-2.79-3.38-2.55s-2.72,1.37-2.83,3c-.09,1.41,1.06,3.03,2.73,3.18ZM321.26,102.82c1.79-.01,3.23-1.47,3.22-3.26s-1.47-3.23-3.26-3.22-3.23,1.47-3.22,3.26,1.47,3.23,3.26,3.22ZM319.18,128.25c1.45,1.26,3.55.99,4.55-.13,1.22-1.38,1.21-3.31.03-4.47s-3.1-1.37-4.51-.2-1.47,3.58-.06,4.81ZM324.54,153.26c.68-1.57.19-3.21-1.08-3.99-1.19-.74-2.64-.71-3.86.33-1.5,1.27-1.34,3.68.22,4.83s3.87.78,4.72-1.18ZM324.36,179.89c.8-1.33.76-2.72-.16-3.91-.73-.94-2.02-1.52-3.35-1.1-1.12.35-2.32,1.27-2.35,2.66-.02.97.17,2.06.78,2.68,1.43,1.46,4.21,1.12,5.08-.34ZM319.21,206.09c1.1,1.75,3.65,1.77,5.04.34,1.22-1.27,1.09-3.21,0-4.39-1.18-1.27-3.03-1.32-4.39-.27-1.21.93-1.64,2.74-.64,4.33ZM319.06,230.49c.06,1.45,1.04,2.35,2.01,2.72,1.14.43,2.39.29,3.4-.62s1.14-2.8.36-4.03c-.47-.75-1.57-1.41-2.47-1.43-1.78-.04-3.38,1.54-3.3,3.37ZM325.28,255.45c-.55-1.89-2.58-2.74-4.04-2.22-1.76.63-2.57,2.31-2.18,3.94.44,1.82,2.31,2.7,4.05,2.29,1.59-.38,2.69-2.21,2.16-4.01ZM305.67,5.93c-1.46,1.25-1.5,3.28-.32,4.61s3.14,1.4,4.5.32,1.52-3.18.42-4.44c-1.28-1.47-3.05-1.82-4.6-.49ZM308.1,63.74c1.78-.01,3.22-1.47,3.21-3.25s-1.47-3.22-3.25-3.21-3.22,1.47-3.21,3.25,1.47,3.22,3.25,3.21ZM305.73,88.77c1.33,1.65,3.49,1.59,4.84.26s1.14-3.65-.43-4.86c-1.29-1-3.23-.8-4.31.41-.99,1.11-1.17,2.86-.1,4.19ZM309.21,142.01c1.67-.28,2.66-1.81,2.56-3.22-.11-1.52-.9-2.71-2.51-3-2.09-.39-3.88,1-3.95,3.03s1.66,3.56,3.89,3.19ZM308.72,168.37c1.78-.01,3.22-1.47,3.21-3.25s-1.47-3.22-3.25-3.21-3.22,1.47-3.21,3.25,1.47,3.22,3.25,3.21ZM309.03,220.48c1.78-.01,3.21-1.46,3.2-3.23s-1.46-3.21-3.23-3.2-3.21,1.46-3.2,3.23,1.46,3.21,3.23,3.2ZM312.23,242.53c-.57-1.9-2.59-2.64-4.27-2.01s-2.45,2.33-1.89,4.02,2.32,2.56,4.03,2.06,2.7-2.2,2.13-4.08ZM305.8,36.95c1.3,1.1,3.48.72,4.38-.58,1.1-1.58.83-3.45-.57-4.45s-3.33-.77-4.35.56-.9,3.26.54,4.48ZM308.23,115.97c1.74-.01,3.14-1.43,3.13-3.17s-1.43-3.14-3.17-3.13-3.14,1.43-3.13,3.17,1.43,3.14,3.17,3.13ZM305.61,190.53c-.25,1.67.5,2.95,1.79,3.55s2.77.22,3.66-.8c.95-1.08.97-2.6.16-3.91-.61-.99-2.02-1.54-3.17-1.28s-2.24,1.09-2.44,2.44ZM291.96,74.63c.56,2.19,2.9,2.88,4.73,1.86,1.7-.94,2.09-3.26.75-4.97-.88-1.12-2.76-1.35-3.95-.65-1.29.75-1.95,2.08-1.53,3.76ZM292.41,152.98c.41,2.05,2.6,2.71,4.31,2.11s2.38-2.41,1.78-4.25c-.42-1.29-1.82-2.02-3.14-1.96-1.21.05-2.48.73-2.9,2.1-.13.42-.16,1.42-.05,2ZM299.15,229.9c-.21-1.71-2.12-2.93-3.74-2.62-1.88.36-2.92,1.99-2.59,3.84s1.93,2.87,3.85,2.49c1.6-.32,2.72-1.78,2.48-3.71ZM294.73,24.74c1.74-.01,3.14-1.43,3.13-3.16s-1.43-3.14-3.16-3.13-3.14,1.43-3.13,3.16,1.43,3.14,3.16,3.13ZM297.78,46.29c-.71-1.79-2.74-2.45-4.16-1.76-1.66.81-2.3,2.4-1.73,4.04s2.46,2.37,4.12,1.81c1.56-.52,2.44-2.36,1.76-4.09ZM295.2,103.1c1.74-.01,3.14-1.43,3.13-3.16s-1.43-3.14-3.16-3.13-3.14,1.43-3.13,3.16,1.43,3.14,3.16,3.13ZM295.35,128.98c1.74-.01,3.14-1.43,3.13-3.16s-1.43-3.14-3.16-3.13-3.14,1.43-3.13,3.16,1.43,3.14,3.16,3.13ZM295.68,181.48c1.73-.01,3.13-1.42,3.12-3.16s-1.42-3.13-3.16-3.12-3.13,1.42-3.12,3.16,1.42,3.13,3.16,3.12ZM295.27,207.25c1.21.16,2.39-.21,3.03-1.07,1.19-1.6.68-3.93-1-4.75s-3.87-.11-4.44,1.67.23,3.84,2.41,4.14ZM294.6,259.48c1.37.63,2.77.41,3.73-.46s1.13-2.37.65-3.63c-.54-1.42-1.97-1.93-3.43-1.75-1.25.15-2.29,1.15-2.5,2.39-.23,1.37.19,2.83,1.55,3.46ZM284.61,7.64c-.55-1.91-2.54-2.69-4.03-2.21-1.85.6-2.6,2.25-2.23,3.91.41,1.84,2.3,2.7,4.08,2.28,1.57-.37,2.69-2.21,2.18-3.97ZM278.69,34.61c.06,2.17,2.05,3.41,3.8,3.08,1.95-.37,2.89-2.34,2.29-4.28-.45-1.47-2.01-2.16-3.45-1.9s-2.69,1.37-2.64,3.09ZM281.84,63.9c1.79-.01,3.23-1.47,3.22-3.26s-1.47-3.23-3.26-3.22-3.23,1.47-3.22,3.26,1.47,3.23,3.26,3.22ZM281.79,90.15c1.64.2,3.02-1.18,3.35-2.61.35-1.52-.62-3.27-2.15-3.7s-2.86.13-3.7,1.3c-.71.99-.82,2.62.03,3.71.52.67,1.57,1.19,2.46,1.3ZM282.33,116.11c1.74-.01,3.14-1.43,3.13-3.17s-1.43-3.14-3.17-3.13-3.14,1.43-3.13,3.17,1.43,3.14,3.17,3.13ZM282.3,142.28c1.79-.01,3.22-1.47,3.21-3.25s-1.47-3.22-3.25-3.21-3.22,1.47-3.21,3.25,1.47,3.22,3.25,3.21ZM285.61,164.65c-.42-1.91-2.14-2.89-4.02-2.46-1.65.38-2.68,2.13-2.27,4.01.33,1.54,2.22,2.67,3.89,2.25s2.79-2.03,2.4-3.79ZM282.93,188.22c-2.15,0-3.47,1.67-3.25,3.54s1.87,2.97,3.55,2.69c1.89-.31,2.99-1.97,2.59-3.95-.25-1.24-1.54-2.29-2.89-2.28ZM282.1,220.52c1.76.29,3.12-.54,3.67-1.91s.12-2.87-1.18-3.87c-1.61-1.22-3.97-.4-4.75,1.36s.15,4.06,2.26,4.42ZM282.93,246.9c1.79-.01,3.22-1.47,3.21-3.25s-1.47-3.22-3.25-3.21-3.22,1.47-3.21,3.25,1.47,3.22,3.25,3.21ZM268.67,24.75c1.78-.01,3.22-1.46,3.21-3.24s-1.46-3.22-3.24-3.21-3.22,1.46-3.21,3.24,1.46,3.22,3.24,3.21ZM271.06,50.17c1.32-1.15,1.26-3.6,0-4.72-1.38-1.21-3.49-1.11-4.62.17s-1.21,3.14.07,4.45c1.08,1.1,3.05,1.41,4.55.11ZM269.15,103.13c1.78-.01,3.21-1.46,3.2-3.23s-1.46-3.21-3.23-3.2-3.21,1.46-3.2,3.23,1.46,3.21,3.23,3.2ZM269.76,129.35c2.06-.35,3.05-1.96,2.64-3.88s-2.05-2.83-4.03-2.38c-1.44.33-2.63,2.04-2.28,3.75.32,1.54,1.85,2.81,3.67,2.5ZM267.01,180.31c.68,1.02,2.14,1.32,3.38,1.09,2-.37,2.97-2.62,2.14-4.49-.69-1.55-2.96-2.39-4.48-1.45-1.61.99-2.25,3.04-1.03,4.86ZM269.76,207.79c1.78-.01,3.22-1.46,3.21-3.24s-1.46-3.22-3.24-3.21-3.22,1.46-3.21,3.24,1.46,3.22,3.24,3.21ZM269.56,259.85c2.38.22,3.95-1.48,3.71-3.51s-1.93-3.21-4.08-2.75c-1.45.31-2.39,1.78-2.34,3.22s1.1,2.89,2.71,3.04ZM271.86,73.27c-.27-1.88-2.15-2.88-3.74-2.51-1.73.4-2.66,1.95-2.42,3.6.26,1.81,1.85,2.83,3.7,2.55,1.58-.24,2.74-1.72,2.46-3.64ZM272.34,151.63c-.32-1.85-2.12-2.86-3.73-2.49-1.77.41-2.71,1.93-2.42,3.76.24,1.49,1.97,2.81,3.56,2.45,1.72-.39,2.93-1.75,2.59-3.73ZM270.98,227.74c-1.91-.91-4.05.39-4.34,2.24-.31,1.97,1.1,3.78,3,3.77s3.55-1.66,3.18-3.62c-.22-1.16-.71-1.84-1.85-2.39ZM258.82,34.51c-.18-1.91-1.75-3.13-3.57-2.96s-3.04,1.78-2.82,3.65c.21,1.71,1.68,2.95,3.68,2.73,1.46-.17,2.87-1.68,2.71-3.42ZM253.2,111.58c-.69,1.45-.32,2.98.62,3.87,1.02.96,2.44,1.19,3.78.58s1.94-2.17,1.68-3.44-1.36-2.43-2.53-2.62c-1.4-.23-2.9.26-3.55,1.61ZM259.76,191.23c-.18-1.88-1.91-3.22-3.74-2.94-1.6.25-2.88,1.92-2.69,3.53.22,1.85,1.69,3.09,3.57,2.92,1.59-.14,3.03-1.69,2.86-3.51ZM255.48,11.65c1.74-.01,3.14-1.43,3.13-3.17s-1.43-3.14-3.17-3.13-3.14,1.43-3.13,3.17,1.43,3.14,3.17,3.13ZM253.37,58.95c-1.18,1.5-.86,3.26.28,4.38s2.97,1.02,4.16.06,1.5-2.9.5-4.28c-1.11-1.54-3.75-1.68-4.94-.16ZM255.92,90c1.73-.01,3.12-1.42,3.11-3.15s-1.42-3.12-3.15-3.11-3.12,1.42-3.11,3.15,1.42,3.12,3.15,3.11ZM256.26,142.52c1.74-.01,3.14-1.43,3.13-3.16s-1.43-3.14-3.16-3.13-3.14,1.43-3.13,3.16,1.43,3.14,3.16,3.13ZM256.4,168.39c1.74-.01,3.14-1.43,3.13-3.16s-1.43-3.14-3.16-3.13-3.14,1.43-3.13,3.16,1.43,3.14,3.16,3.13ZM256.71,220.89c1.74-.01,3.13-1.43,3.12-3.16s-1.43-3.13-3.16-3.12-3.13,1.43-3.12,3.16,1.43,3.13,3.16,3.12ZM256.53,246.71c1.1.06,2.1-.28,2.69-.93.56-.61.82-1.55.75-2.47-.14-1.76-1.67-2.81-3.27-2.79s-2.96,1.38-2.98,2.95.94,3.14,2.81,3.24ZM239.2,21.21c-.21,1.74.86,3.19,2.22,3.56,1.59.43,3.07-.15,3.84-1.56.68-1.23.41-3.21-.81-4.01-1.04-.69-2.19-.95-3.31-.53-.9.34-1.78,1.26-1.94,2.54ZM242.57,51.2c1.79-.01,3.24-1.47,3.23-3.26s-1.47-3.24-3.26-3.23-3.24,1.47-3.23,3.26,1.47,3.24,3.26,3.23ZM245.88,73.05c-.44-1.71-2.4-2.52-3.9-2.08-1.76.53-2.58,2.33-2.1,3.87.57,1.84,2.27,2.6,3.98,2.11s2.48-2.13,2.02-3.91ZM242.87,103.31c1.79-.01,3.23-1.47,3.22-3.25s-1.47-3.23-3.25-3.22-3.23,1.47-3.22,3.25,1.47,3.23,3.25,3.22ZM239.85,125.73c-.29,2.17,1.01,3.52,2.88,3.81,1.65.26,3.23-.99,3.51-2.74.26-1.64-.87-3.34-2.62-3.61s-3.52.75-3.76,2.54ZM246.32,151.37c-.6-1.87-2.44-2.46-3.98-1.93-1.72.59-2.49,2.29-1.95,3.95s2.37,2.56,3.81,2.06c1.79-.61,2.72-2.2,2.12-4.09ZM243.35,181.67c1.78-.01,3.21-1.46,3.2-3.24s-1.46-3.21-3.24-3.2-3.21,1.46-3.2,3.24,1.46,3.21,3.24,3.2ZM242.43,207.78c1.45.37,2.93-.07,3.62-1.05.78-1.11.91-2.43.24-3.67-.71-1.3-2.32-1.83-3.75-1.39-1.26.39-2.23,1.49-2.24,2.9-.01,1.33.58,2.8,2.14,3.2ZM246.8,229.82c-.54-1.76-2.47-2.63-3.98-2-1.66.69-2.54,2.36-1.98,3.91.61,1.68,2.24,2.43,3.83,2.05,1.74-.42,2.65-2.24,2.13-3.95ZM243.83,260.06c1.78-.01,3.21-1.46,3.2-3.24s-1.46-3.21-3.24-3.2-3.21,1.46-3.2,3.24,1.46,3.21,3.24,3.2ZM229.42,12.1c1.79-.01,3.24-1.47,3.22-3.26s-1.47-3.24-3.26-3.22-3.24,1.47-3.22,3.26,1.47,3.24,3.26,3.22ZM229.72,64.2c1.78-.01,3.22-1.46,3.21-3.25s-1.46-3.22-3.25-3.21-3.22,1.46-3.21,3.25,1.46,3.22,3.25,3.21ZM229.36,84.08c-1.88.26-2.91,1.96-2.68,3.63s1.68,2.86,3.37,2.76c1.49-.09,2.98-1.39,3.04-3.03.03-1.03-.34-1.96-.95-2.58-.66-.67-1.66-.93-2.78-.78ZM230.21,142.57c1.78-.01,3.21-1.46,3.2-3.24s-1.46-3.21-3.24-3.2-3.21,1.46-3.2,3.24,1.46,3.21,3.24,3.2ZM230.36,168.83c1.78-.01,3.22-1.47,3.21-3.25s-1.47-3.22-3.25-3.21-3.22,1.47-3.21,3.25,1.47,3.22,3.25,3.21ZM229.95,220.82c1.29.22,2.46-.09,3.15-.94,1.29-1.6.9-3.93-.79-4.93s-3.77-.29-4.62,1.47.19,4.03,2.26,4.39ZM228.11,245.7c.84,1.2,2.13,1.77,3.44,1.44,1.11-.28,2.2-1.08,2.42-2.34.27-1.62-.38-3.02-1.72-3.72-1.23-.64-2.88-.3-3.83.72s-1.2,2.62-.3,3.91ZM228.85,37.97c1.16.11,2.24-.25,2.88-.97.54-.61.81-1.68.71-2.61-.17-1.68-1.69-2.66-3.16-2.6-1.62.07-2.92,1.29-3.02,2.72-.11,1.61.75,3.28,2.59,3.46ZM232.34,115.19c.87-1.07.77-3.11-.15-4.04-1.36-1.36-3.45-1.27-4.6-.1-1.24,1.27-1.18,3.37.16,4.58,1.25,1.13,3.28,1.16,4.59-.44ZM232.4,194.03c1.26-.98,1.31-3.01.39-4.34-.69-.99-2.16-1.29-3.36-1-2.07.51-2.82,2.78-1.8,4.55.91,1.59,3.01,2.15,4.77.78ZM220.81,230.75c-.09-1.95-1.7-3.21-3.54-3.04-1.67.16-2.99,1.69-2.9,3.41s1.54,3.07,3.35,3.04,3.17-1.42,3.08-3.41ZM216.35,25.2c1.74-.01,3.14-1.43,3.13-3.17s-1.43-3.14-3.17-3.13-3.14,1.43-3.13,3.17,1.43,3.14,3.17,3.13ZM216.51,51.06c1.74-.01,3.14-1.43,3.13-3.17s-1.43-3.14-3.17-3.13-3.14,1.43-3.13,3.17,1.43,3.14,3.17,3.13ZM216.67,77.4c1.78-.01,3.21-1.46,3.2-3.24s-1.46-3.21-3.24-3.2-3.21,1.46-3.2,3.24,1.46,3.21,3.24,3.2ZM216.23,97.39c-1.85.29-2.69,1.8-2.53,3.44.14,1.47,1.44,2.69,3.01,2.75s2.94-1,3.17-2.66c.15-1.11-.18-2.08-.87-2.79s-1.65-.92-2.78-.74ZM216.45,129.37c1.13.16,2.22-.22,2.88-.91s.91-1.83.7-2.86c-.34-1.69-1.84-2.58-3.38-2.41s-2.79,1.43-2.83,2.96.79,2.96,2.63,3.22ZM219.48,154.82c1.26-1.32,1.06-3.8-.29-4.79-1.26-.93-2.77-.91-3.9-.15s-1.56,2.22-1.22,3.69c.26,1.1,1.28,1.93,2.21,2.13,1.1.24,2.33.04,3.2-.87ZM220.3,178.01c-.45-1.84-2.18-2.63-3.98-2.19-1.59.39-2.56,2.2-2.02,3.92.51,1.62,2.19,2.58,3.86,2.09s2.58-2.03,2.15-3.82ZM217.46,207.83c1.74-.01,3.14-1.43,3.13-3.17s-1.43-3.14-3.17-3.13-3.14,1.43-3.13,3.17,1.43,3.14,3.17,3.13ZM219.88,259.55c.87-.69,1.15-2.14.9-3.2-.49-2.05-2.65-2.81-4.41-1.96-1.67.8-2.25,2.88-1.25,4.49.93,1.51,3.1,2,4.76.67ZM206.26,8.28c-.36-1.85-2.27-2.88-3.84-2.45-1.82.5-2.78,2.15-2.42,3.89s1.96,2.72,3.7,2.44,2.96-1.87,2.56-3.89ZM206.37,33.88c-.71-1.82-2.67-2.29-4.15-1.7-1.58.63-2.22,2.55-1.7,3.95.65,1.76,2.54,2.41,4.13,1.86s2.37-2.45,1.73-4.1ZM203.48,64.35c1.78-.01,3.22-1.46,3.21-3.25s-1.46-3.22-3.25-3.21-3.22,1.46-3.21,3.25,1.46,3.22,3.25,3.21ZM201.44,84.95c-1.7,1.51-1.27,4.29.51,5.24s3.54.32,4.47-1.21c.86-1.4.4-3.36-1.13-4.38-1-.67-2.84-.55-3.86.35ZM203.96,116.58c1.73-.01,3.13-1.42,3.12-3.16s-1.42-3.13-3.16-3.12-3.13,1.42-3.12,3.16,1.42,3.13,3.16,3.12ZM203.51,142.69c1.72.12,2.99-.76,3.49-2.15s-.05-2.99-1.23-3.73c-1.24-.77-2.74-.74-4.01.28-.96.77-1.3,2.23-.87,3.46.36,1.02,1.19,2.03,2.62,2.13ZM207.24,165.11c-.36-1.91-2.17-2.81-3.98-2.44s-2.69,2.06-2.29,4c.32,1.56,2.18,2.68,3.88,2.25s2.73-2.01,2.39-3.81ZM201.8,190.19c-1.16,1.77-.22,3.92,1.64,4.6,1.71.62,3.74-.47,4.04-2.41.24-1.58-.5-3.02-1.93-3.5-1.34-.45-2.82-.11-3.75,1.31ZM206.47,220.42c.96-.69,1.3-2.02,1.08-3.23-.18-.98-.97-2.08-2.14-2.4-1.4-.38-2.97.13-3.64,1.17-.79,1.24-.79,2.76.12,3.99,1.02,1.36,3.11,1.51,4.57.47ZM207.64,243.18c-.58-1.88-2.57-2.67-4.26-2.05-1.51.56-2.44,2.38-1.9,4.05s2.32,2.57,4.02,2.03c1.58-.51,2.71-2.2,2.14-4.02ZM189.26,25.05c1.35.37,2.49.1,3.3-.7s1.1-1.75.89-2.98c-.28-1.59-1.71-2.63-3.21-2.59s-2.89,1.18-3.12,2.64.51,3.18,2.15,3.63ZM189.82,51.4c1.52.17,2.79-.3,3.42-1.47s.57-2.61-.24-3.6-1.92-1.44-3.44-1.14c-1.4.27-2.41,1.81-2.33,3.17.09,1.49,1.06,2.87,2.58,3.04ZM190.79,103.63c1.78-.01,3.22-1.47,3.21-3.25s-1.47-3.22-3.25-3.21-3.22,1.47-3.21,3.25,1.47,3.22,3.25,3.21ZM189.27,129.4c1.32.9,3.03.54,3.98-.48s1.16-2.72.5-3.83c-.78-1.32-2.06-1.85-3.7-1.56-1.23.22-2.15,1.51-2.31,2.59-.2,1.33.35,2.46,1.55,3.28ZM190.74,181.93c1.24.11,2.28-.23,2.92-.94.6-.68.9-1.65.78-2.68-.21-1.71-1.84-2.9-3.41-2.77s-2.88,1.43-3,2.99.93,3.25,2.71,3.41ZM191.42,208.25c1.78-.01,3.22-1.47,3.21-3.25s-1.47-3.22-3.25-3.21-3.22,1.47-3.21,3.25,1.47,3.22,3.25,3.21ZM191.74,260.39c1.78-.01,3.22-1.46,3.21-3.24s-1.46-3.22-3.24-3.21-3.22,1.46-3.21,3.24,1.46,3.22,3.24,3.21ZM193.45,73.55c-.48-1.9-2.26-2.71-3.87-2.27-1.73.47-2.6,2.1-2.19,3.93.34,1.52,2.1,2.55,3.66,2.19,1.68-.4,2.87-1.98,2.4-3.85ZM193.94,151.96c-.33-1.75-2.31-2.78-3.87-2.31-1.71.52-2.63,2.17-2.19,3.88s2.05,2.55,3.67,2.22,2.73-1.97,2.38-3.8ZM191.39,234.23c1.74-.01,3.14-1.43,3.13-3.17s-1.43-3.14-3.17-3.13-3.14,1.43-3.13,3.17,1.43,3.14,3.17,3.13ZM180.95,113.34c-.2-1.93-1.91-3.19-3.79-2.92-1.6.23-2.92,1.83-2.67,3.52.27,1.79,1.73,3.01,3.57,2.89,1.57-.1,3.06-1.71,2.88-3.49ZM181.41,191.69c-.17-1.82-1.97-3.2-3.75-2.9-1.66.28-2.89,1.9-2.71,3.53.2,1.82,1.76,3.01,3.58,2.88,1.66-.12,3.05-1.64,2.88-3.51ZM177.1,12.1c1.73-.01,3.13-1.43,3.12-3.16s-1.43-3.13-3.16-3.12-3.13,1.43-3.12,3.16,1.43,3.13,3.16,3.12ZM174.15,36.09c.33,1.66,2.26,2.67,3.85,2.28,1.72-.42,2.71-2.12,2.35-3.94s-2.19-2.74-3.87-2.34c-1.78.42-2.74,2.03-2.34,4.01ZM177.42,64.61c1.73-.01,3.13-1.42,3.12-3.16s-1.42-3.13-3.16-3.12-3.13,1.42-3.12,3.16,1.42,3.13,3.16,3.12ZM180.54,86.47c-.48-1.78-2.29-2.56-3.91-2.11-1.73.48-2.51,2.31-2.07,3.89.5,1.77,2.25,2.53,3.97,2.09,1.59-.41,2.46-2.18,2.01-3.86ZM175.65,142.06c1.19,1.31,3.06,1.2,4.26.18s1.45-2.73.56-4.18c-.99-1.62-3.72-1.77-4.95-.33-1.13,1.32-1.03,3.06.13,4.33ZM181,164.76c-.57-1.84-2.53-2.56-4.03-2-1.66.62-2.41,2.28-1.97,3.86.48,1.75,2.26,2.54,3.99,2.06,1.55-.44,2.55-2.17,2.01-3.92ZM179.25,215.24c-2.08-.51-3.88.77-4.03,2.7s1.23,3.5,3.23,3.44c1.88-.05,3.25-1.78,2.94-3.78-.18-1.18-.9-2.05-2.15-2.36ZM178.51,247.24c1.74-.01,3.13-1.43,3.12-3.16s-1.43-3.13-3.16-3.12-3.13,1.43-3.12,3.16,1.43,3.13,3.16,3.12ZM167.18,21.51c-.38-1.92-2.29-2.89-3.94-2.5-1.73.42-2.69,2.1-2.36,3.76.37,1.86,1.96,2.89,3.83,2.54,1.6-.3,2.84-1.87,2.46-3.8ZM162.62,45.57c-1.39.99-1.84,2.18-1.55,3.58.23,1.12,1.07,2.16,2.36,2.38,1.81.31,3.24-.42,3.85-2.09.49-1.35-.06-2.95-1.57-3.87-.69-.42-2.44-.47-3.09,0ZM164.56,77.64c1.74-.01,3.14-1.43,3.13-3.17s-1.43-3.14-3.17-3.13-3.14,1.43-3.13,3.17,1.43,3.14,3.17,3.13ZM161.32,100.04c-.17,1.71.68,3.01,2.03,3.53s2.79.13,3.69-1,.96-2.76.04-4.04c-.77-1.06-2.22-1.39-3.41-1.05s-2.2,1.08-2.35,2.57ZM162,128.67c1.16,1.84,4.03,1.77,5.21.12.63-.88.9-1.87.59-2.88-.21-.68-.86-1.62-1.72-2-1.26-.56-2.94-.31-3.89.74s-1,2.74-.19,4.03ZM165.03,156.01c1.73-.01,3.13-1.43,3.12-3.16s-1.43-3.13-3.16-3.12-3.13,1.43-3.12,3.16,1.43,3.13,3.16,3.12ZM162.22,180.69c.74,1.32,2.39,1.69,3.64,1.33,1.33-.38,2.36-1.58,2.35-3.09,0-1.38-1.04-2.67-2.06-2.99-1.48-.47-2.94-.04-3.71.94-.82,1.04-.95,2.52-.22,3.8ZM167.3,207.61c.88-.71,1.25-2.23.99-3.28-.48-1.95-2.79-2.85-4.36-2.15-1.94.86-2.52,2.95-1.55,4.68.92,1.64,3.2,2.15,4.92.75ZM168.45,230.28c-.54-1.75-2.47-2.61-4-1.98-1.64.67-2.52,2.4-1.96,3.9.62,1.66,2.32,2.55,3.83,2.07,1.75-.57,2.67-2.23,2.13-3.99ZM165.46,260.54c1.78-.01,3.22-1.46,3.21-3.25s-1.46-3.22-3.25-3.21-3.22,1.46-3.21,3.25,1.46,3.22,3.25,3.21ZM154.12,8.47c-.45-1.82-2.46-2.76-3.99-2.24-1.82.63-2.65,2.26-2.21,3.99s2.31,2.58,3.83,2.25c1.88-.41,2.83-2.13,2.37-4ZM151.38,64.67c1.78-.01,3.22-1.47,3.21-3.25s-1.47-3.22-3.25-3.21-3.22,1.47-3.21,3.25,1.47,3.22,3.25,3.21ZM153.15,84.9c-1.57-.76-3.3-.42-4.23.86-.87,1.21-.92,2.85.17,4.08.9,1.02,2.46,1.42,3.91.74,1.11-.52,1.67-1.71,1.69-2.82s-.41-2.31-1.54-2.86ZM154.91,138.92c-.51-1.94-2.45-2.6-4.08-2.17-1.71.46-2.53,2.33-2.15,3.87.44,1.83,2.35,2.71,4,2.3s2.73-2.13,2.23-4ZM151.99,169.31c1.78-.01,3.22-1.47,3.21-3.25s-1.47-3.22-3.25-3.21-3.22,1.47-3.21,3.25,1.47,3.22,3.25,3.21ZM153.35,221.23c1.47-.38,2.17-1.82,2.14-3.15-.03-1.24-.8-2.48-2.11-2.9-1.39-.45-2.92.03-3.66,1.01-.92,1.23-.86,2.78-.11,3.83.84,1.17,2.18,1.62,3.73,1.22ZM155.51,243.47c-.58-1.89-2.6-2.63-4.26-2s-2.38,2.36-1.89,4.04,2.37,2.53,4.03,2.07,2.7-2.19,2.11-4.1ZM148.93,37.79c.6.58,1.54.71,2.39.67,1.59-.07,2.68-1.48,2.81-2.9.14-1.5-.85-2.77-2.14-3.16-1.48-.45-2.93.12-3.63,1.3-.77,1.29-.6,2.95.57,4.1ZM151.51,116.93c1.74-.01,3.15-1.43,3.14-3.18s-1.43-3.15-3.18-3.14-3.15,1.43-3.14,3.18,1.43,3.15,3.18,3.14ZM148.85,191.69c-.09,1.17.32,2.18,1.01,2.81s1.75.99,2.71.76c1.7-.4,2.7-1.89,2.47-3.55-.2-1.47-1.42-2.67-2.92-2.69s-3.12.82-3.26,2.67ZM135.28,73.58c-.53,1.91.25,3.37,1.83,4.06,1.43.62,3.16.08,4.03-1.42.98-1.7.14-3.74-1.52-4.51s-3.82,0-4.33,1.87ZM141.99,152.74c-.16-1.89-1.93-3.16-3.75-2.91s-2.83,1.76-2.68,3.53,1.68,3.06,3.53,2.87c1.71-.17,3.06-1.57,2.9-3.49ZM142.44,231c-.22-1.86-2.02-3.08-3.73-2.79s-2.87,1.91-2.69,3.53c.21,1.91,1.72,3.01,3.57,2.86,1.66-.14,3.08-1.59,2.84-3.6ZM138.01,25.66c1.74-.01,3.14-1.43,3.12-3.16s-1.43-3.14-3.16-3.12-3.14,1.43-3.12,3.16,1.43,3.14,3.16,3.12ZM138.16,51.53c1.73-.01,3.13-1.43,3.12-3.16s-1.43-3.13-3.16-3.12-3.13,1.43-3.12,3.16,1.43,3.13,3.16,3.12ZM138.47,104.06c1.74-.01,3.14-1.43,3.13-3.17s-1.43-3.14-3.17-3.13-3.14,1.43-3.13,3.17,1.43,3.14,3.17,3.13ZM137.06,129.5c1.86.88,3.91.12,4.53-1.69s-.41-3.68-2.31-4.11c-1.74-.39-3.64.88-3.77,2.8-.09,1.26.33,2.42,1.55,3ZM141.91,178.42c-.57-1.91-2.38-2.63-4.11-2.05-1.52.5-2.33,2.24-1.86,3.86s2.23,2.62,3.88,2.09c1.54-.5,2.61-2.14,2.09-3.89ZM140.8,207.81c1.81-1.22,1.8-3.71.41-5s-3.7-.99-4.69.51-.64,3.9,1.21,4.68c.8.34,2.29.33,3.08-.2ZM142.41,256.77c-.56-1.92-2.39-2.6-4.13-2.05-1.59.5-2.32,2.18-1.85,3.88.43,1.56,2.23,2.63,3.91,2.09,1.54-.5,2.59-2.17,2.08-3.91ZM122.67,11.97c1.36,1.08,2.92.9,4.05.06,1.19-.89,1.66-2.33,1.07-3.79-.46-1.15-1.65-2.1-3.17-1.98-.66.05-1.83.5-2.31,1.05-1.15,1.32-.96,3.6.37,4.66ZM122.66,37.48c.92,1.11,2.03,1.38,3.23,1.13,1.11-.24,2.01-1.04,2.26-2.33.29-1.51-.39-3.03-1.75-3.62-1.26-.55-2.92-.17-3.78.93s-.87,2.79.05,3.9ZM128.23,60.82c-.42-1.86-2.24-2.75-3.93-2.35-1.81.42-2.73,2.23-2.32,3.93.46,1.86,2.16,2.77,3.99,2.3,1.62-.42,2.65-2.1,2.25-3.87ZM128.38,87.18c-.55-2.04-2.27-2.88-4.14-2.38-1.61.43-2.52,2.11-2.11,3.95.35,1.53,2.15,2.79,3.86,2.28,1.58-.48,2.88-2.02,2.39-3.84ZM123.43,111.65c-1.23,1.04-1.29,2.96-.39,4.09s2.56,1.65,3.87,1.03,2.02-2.09,1.73-3.7c-.19-1.03-1.22-1.95-2.11-2.19-1.04-.28-2.17-.01-3.09.76ZM125.03,143.14c1.81.25,3.47-.94,3.73-2.61.25-1.59-.71-3.37-2.33-3.67-2.01-.37-3.7.72-4.03,2.47s.74,3.55,2.62,3.81ZM122.68,165.14c-.51,1.75.19,3.23,1.54,3.97s2.97.37,3.99-.76.91-2.98.08-4.1c-.95-1.29-2.69-1.51-4.15-.84-.68.31-1.23.94-1.46,1.73ZM125.4,189.28c-1.73.23-2.63,1.87-2.47,3.43.15,1.43,1.5,2.73,2.97,2.76,1.59.03,3.01-.97,3.22-2.62.15-1.18-.1-2.15-.86-2.86-.71-.65-1.63-.87-2.87-.7ZM126.06,221.61c1.78-.01,3.22-1.47,3.21-3.25s-1.47-3.22-3.25-3.21-3.22,1.47-3.21,3.25,1.47,3.22,3.25,3.21ZM126.22,247.86c1.79-.01,3.23-1.47,3.22-3.26s-1.47-3.23-3.26-3.22-3.23,1.47-3.22,3.26,1.47,3.23,3.26,3.22ZM114.97,21.41c-.63-1.91-2.63-2.54-4.19-1.96-1.69.63-2.39,2.41-1.93,4.02.51,1.8,2.43,2.58,4.13,2.06s2.59-2.31,1.99-4.12ZM115.16,47.81c-.59-1.88-2.44-2.63-4.18-2.1-1.52.46-2.48,2.37-2,3.92.55,1.79,2.21,2.6,3.99,2.19,1.61-.37,2.78-2.15,2.19-4.01ZM112.43,104.1c1.79-.01,3.23-1.47,3.22-3.25s-1.47-3.23-3.25-3.22-3.23,1.47-3.22,3.25,1.47,3.23,3.25,3.22ZM114.44,129.78c1.2-.74,1.57-2.26,1.22-3.63-.28-1.11-1.53-2.09-2.69-2.21-1.39-.15-2.64.46-3.32,1.76-.71,1.38-.26,2.95.85,3.88s2.52,1.07,3.94.2ZM112.16,182.35c1.25.2,2.31-.07,3-.77s1.04-1.66.91-2.81c-.19-1.68-1.69-2.75-3.26-2.75s-2.88,1.28-3.13,2.8.74,3.26,2.48,3.54ZM114.5,208.42c1.41-.6,1.96-2.3,1.65-3.67s-1.4-2.28-2.74-2.42-2.82.51-3.32,1.86c-.54,1.45-.24,2.7.78,3.67.88.84,2.23,1.15,3.64.56ZM115.01,260.44c1.89-1.13,2.02-3.66.71-5.01-1.37-1.42-3.78-1.36-4.98.29-1.07,1.48-.8,3.68,1.04,4.76.76.44,2.33.5,3.22-.04ZM108.97,75.33c.16,1.47,1.52,2.46,2.71,2.61,1.42.18,2.69-.64,3.19-1.75.61-1.36.31-2.71-.77-3.78-.93-.93-2.37-.98-3.49-.39s-1.82,1.71-1.64,3.32ZM113.09,150.11c-2-.4-3.76,1.24-3.69,3.09s1.56,3.35,3.47,3.13,3.12-1.93,2.7-3.8c-.29-1.3-1.01-2.12-2.48-2.41ZM110.02,230.51c-.44,1.68.22,3.12,1.55,3.84s2.81.37,3.78-.75c.91-1.04,1.11-2.64.2-3.8-.74-.95-1.87-1.49-2.91-1.33-1.14.18-2.3.81-2.62,2.04ZM98.91,38.91c1.78-.01,3.22-1.47,3.21-3.25s-1.47-3.22-3.25-3.21-3.22,1.47-3.21,3.25,1.47,3.22,3.25,3.21ZM96.2,114.57c.26,2.26,2.64,3.32,4.51,2.44,1.73-.81,2.38-2.96,1.4-4.66s-3.31-1.99-4.96-.72c-.78.6-1.09,1.72-.95,2.94ZM97.59,194.86c1.46,1.19,3.32,1.06,4.55-.12,1.12-1.07,1.31-3,.21-4.29-1.03-1.2-2.81-1.74-4.1-.84-.92.64-1.6,1.56-1.64,2.49s.19,2.1.98,2.75ZM98.74,12.58c1.74-.01,3.14-1.43,3.13-3.17s-1.43-3.14-3.17-3.13-3.14,1.43-3.13,3.17,1.43,3.14,3.17,3.13ZM99.06,65.08c1.74-.01,3.14-1.43,3.13-3.17s-1.43-3.14-3.17-3.13-3.14,1.43-3.13,3.17,1.43,3.14,3.17,3.13ZM96.4,89.28c.83,1.7,2.98,2.09,4.46,1.15s1.96-2.87.92-4.4c-.97-1.44-2.84-1.64-4.26-.86s-1.85,2.61-1.12,4.11ZM102.46,139.25c-.62-1.86-2.54-2.4-4.25-1.79-1.47.52-2.24,2.4-1.65,3.96s2.35,2.41,3.98,1.85,2.52-2.22,1.91-4.03ZM102.64,165.23c-.56-1.85-2.55-2.55-4.03-2-1.67.62-2.4,2.31-1.98,3.86.49,1.8,2.25,2.52,4.01,2.07,1.52-.39,2.53-2.19,2-3.93ZM102.92,217.58c-.58-1.75-2.64-2.43-4.19-1.73s-2.27,2.34-1.68,3.94,2.47,2.47,3.99,1.87c1.61-.64,2.49-2.24,1.87-4.09ZM100.15,247.71c1.73-.01,3.13-1.43,3.12-3.16s-1.43-3.13-3.16-3.12-3.13,1.43-3.12,3.16,1.43,3.13,3.16,3.12ZM88.84,21.85c-.42-1.8-2.32-2.75-3.98-2.35-1.76.43-2.76,2.29-2.32,3.96.48,1.81,2.24,2.75,4.05,2.29,1.57-.4,2.66-2.14,2.25-3.9ZM89.02,48.31c-.45-1.95-2.12-2.93-4.03-2.49-1.61.37-2.7,2.13-2.27,3.98.37,1.58,2.09,2.65,3.89,2.26,1.54-.33,2.79-2.11,2.42-3.74ZM86.2,78.08c1.74-.01,3.14-1.43,3.13-3.16s-1.43-3.14-3.16-3.13-3.14,1.43-3.13,3.16,1.43,3.14,3.16,3.13ZM86.16,104.26c1.79-.01,3.23-1.47,3.22-3.25s-1.47-3.23-3.25-3.22-3.23,1.47-3.22,3.25,1.47,3.23,3.25,3.22ZM86.2,130.52c1.47.1,2.74-1.01,3.2-2.33.63-1.85-.69-3.73-2.41-4.03-1.97-.34-3.65.84-3.87,2.78-.2,1.79.95,3.44,3.09,3.58ZM86.65,156.46c1.73-.01,3.13-1.43,3.12-3.16s-1.43-3.13-3.16-3.12-3.13,1.43-3.12,3.16,1.43,3.13,3.16,3.12ZM83.47,178.66c-.33,2.1.91,3.72,2.71,3.92s3.4-.92,3.65-2.88c.21-1.61-1.06-3.31-2.84-3.46-1.63-.14-3.25.71-3.52,2.42ZM84.1,207.53c.6.99,1.99,1.48,3.08,1.35s2.1-.93,2.58-2.01c.66-1.46-.04-3.18-1.23-3.93-1.32-.83-2.95-.57-4.01.44s-1.34,2.63-.42,4.15ZM87.14,234.86c1.74-.01,3.14-1.43,3.13-3.17s-1.43-3.14-3.17-3.13-3.14,1.43-3.13,3.17,1.43,3.14,3.17,3.13ZM90.26,257.2c-.46-1.95-2.09-2.96-4.02-2.51-1.59.38-2.72,2.09-2.27,4.01.36,1.52,2.15,2.68,3.84,2.24,1.59-.42,2.85-2.01,2.44-3.75ZM74.78,12.26c1.47-1.17,1.45-3.61.1-4.82s-3.42-1.13-4.59.17c-1.09,1.22-1.2,3.13.08,4.43,1.04,1.06,2.91,1.4,4.41.22ZM73.01,65.14c1.79-.01,3.22-1.47,3.21-3.25s-1.47-3.22-3.25-3.21-3.22,1.47-3.21,3.25,1.47,3.22,3.25,3.21ZM75.15,90.74c1.26-.9,1.54-2.93.78-4.18-1.05-1.73-3.14-2.11-4.72-.99-1.34.95-1.76,3.07-.7,4.47s2.96,1.9,4.64.7ZM72.93,137.17c-2.22.25-3.18,2.61-2.47,4.37.76,1.89,3.07,2.5,4.76,1.45s1.96-3.37.54-4.98c-.6-.68-1.7-.97-2.83-.84ZM76.62,165.38c-.65-1.88-2.69-2.42-4.37-1.74-1.56.62-2.25,2.47-1.63,4.07.66,1.69,2.47,2.48,4.11,1.9s2.54-2.36,1.89-4.23ZM73.94,221.89c1.78-.01,3.22-1.46,3.2-3.24s-1.46-3.22-3.24-3.2-3.22,1.46-3.2,3.24,1.46,3.22,3.24,3.2ZM74.09,248.16c1.78-.01,3.22-1.47,3.21-3.25s-1.47-3.22-3.25-3.21-3.22,1.47-3.21,3.25,1.47,3.22,3.25,3.21ZM75.63,34.84c-.56-1.82-2.44-2.45-4.01-1.95-1.72.55-2.46,2.33-1.94,4s2.19,2.42,3.81,1.98c1.72-.47,2.72-2.17,2.14-4.03ZM72.33,111.24c-1.96.41-2.75,2.35-2.12,4.14.57,1.63,2.42,2.39,4.07,1.74s2.39-2.32,1.71-4.08c-.58-1.48-1.91-2.17-3.66-1.8ZM70.52,192.02c-.23,1.5.44,2.76,1.63,3.38,1.25.65,2.54.43,3.61-.51.92-.81,1.23-2.27.69-3.47-.61-1.36-1.93-2.12-3.29-1.93-1.29.18-2.43,1.14-2.64,2.53ZM60.48,71.91c-1.79-.23-3.21.9-3.67,2.34s.33,3.03,1.65,3.76c1.39.77,3.11.32,4.07-.95s.82-2.98-.25-4.22c-.38-.44-1.08-.83-1.8-.93ZM57.17,154c.29,1.35,1.18,2.13,2.08,2.48,1.23.49,2.31.27,3.32-.57,1.2-1,1.39-2.84.6-4.12s-2.49-1.88-4-1.3c-1.22.47-2.33,1.98-2,3.5ZM60.89,235.12c1.79-.01,3.23-1.47,3.22-3.26s-1.47-3.23-3.26-3.22-3.23,1.47-3.22,3.26,1.47,3.23,3.26,3.22ZM58.8,20c-2.17.48-2.86,2.86-1.9,4.58s3.11,2.05,4.64.92,1.68-3.49.23-4.79c-.77-.69-1.81-.97-2.97-.71ZM58.03,46.25c-1.46,1.06-1.74,2.81-1.02,4.13s2.39,1.93,3.88,1.39c1.39-.49,2.32-2,1.95-3.69-.43-2-3.09-3.08-4.81-1.84ZM59.4,104.47c1.45.37,2.71-.43,3.36-1.44.73-1.14.6-2.61-.17-3.58s-2.08-1.39-3.43-1.09c-1.45.33-2.29,1.78-2.18,3.18.09,1.28.91,2.54,2.43,2.92ZM63.16,126.08c-.66-1.79-2.67-2.32-4.16-1.73-1.62.63-2.22,2.49-1.72,3.99.58,1.75,2.48,2.34,4.09,1.81s2.46-2.29,1.8-4.07ZM60.58,182.89c1.73-.01,3.12-1.42,3.11-3.15s-1.42-3.12-3.15-3.11-3.12,1.42-3.11,3.15,1.42,3.12,3.15,3.11ZM60.74,208.77c1.74-.01,3.14-1.43,3.13-3.17s-1.43-3.14-3.17-3.13-3.14,1.43-3.13,3.17,1.43,3.14,3.17,3.13ZM64.03,257.24c-.59-1.87-2.45-2.66-4.12-2.05-1.55.57-2.37,2.25-1.89,3.87s2.18,2.51,3.93,2.06c1.54-.4,2.64-2.11,2.08-3.88ZM46.43,13.18c1.79-.01,3.23-1.47,3.22-3.26s-1.47-3.23-3.26-3.22-3.23,1.47-3.22,3.26,1.47,3.23,3.26,3.22ZM48.35,38.72c1.31-.69,1.67-2.16,1.42-3.54-.21-1.14-1.3-2.04-2.63-2.27-1.17-.21-2.54.41-3.18,1.61-.69,1.3-.26,2.77.64,3.69s2.46,1.19,3.75.51ZM49.84,61.27c-.4-1.87-2.19-2.67-3.86-2.33-1.87.39-2.8,2.22-2.36,3.92.48,1.84,2.2,2.77,4,2.3,1.68-.43,2.62-2.06,2.22-3.9ZM46.91,91.55c1.78-.01,3.22-1.46,3.21-3.25s-1.46-3.22-3.25-3.21-3.22,1.46-3.21,3.25,1.46,3.22,3.25,3.21ZM47.23,117.54c1.74-.01,3.13-1.43,3.12-3.16s-1.43-3.13-3.16-3.12-3.13,1.43-3.12,3.16,1.43,3.13,3.16,3.12ZM50.33,139.78c-.4-2-2.24-2.84-3.84-2.47-1.83.43-2.73,2.04-2.45,3.73.32,1.88,2.02,2.9,3.84,2.51,1.67-.36,2.83-1.87,2.45-3.78ZM48.1,169.84c1.19-.34,1.94-1.2,2.26-2.07.38-1.05.25-2.21-.46-3.08-1.05-1.3-2.89-1.53-4.28-.68-1.31.8-1.85,2.48-1.19,4.06.51,1.23,2.1,2.21,3.67,1.77ZM47.71,195.9c1.73-.01,3.12-1.42,3.11-3.15s-1.42-3.13-3.15-3.11-3.12,1.42-3.11,3.15,1.42,3.13,3.15,3.11ZM47.23,221.98c1.14.06,2.14-.19,2.8-.83.57-.55.88-1.62.85-2.56-.08-2.13-2.15-3.36-4.23-2.83-1.48.38-2.31,1.91-2.17,3.43.11,1.24,1.18,2.72,2.76,2.8ZM47.85,248.33c1.79-.01,3.23-1.47,3.22-3.26s-1.47-3.23-3.26-3.22-3.23,1.47-3.22,3.26,1.47,3.23,3.26,3.22ZM36.59,21.86c-.59-1.85-2.66-2.49-4.17-1.91-1.69.64-2.43,2.41-1.95,3.98.55,1.81,2.47,2.61,4.09,2.06,1.75-.59,2.64-2.21,2.03-4.13ZM35.1,52.16c1.59-.65,2.06-2.47,1.68-3.84-.41-1.49-1.76-2.38-3.33-2.29-1.46.08-2.64,1.13-2.95,2.72-.25,1.31.56,2.99,2.07,3.49.6.2,1.88.18,2.52-.08ZM37.12,100.44c-.49-1.88-2.5-2.7-4.05-2.19-1.78.59-2.56,2.24-2.16,3.85.46,1.87,2.21,2.79,3.99,2.33s2.73-2.08,2.23-3.99ZM33.69,124.45c-2.05.33-3.12,2.21-2.62,4s2.12,2.63,3.86,2.27,2.78-2.16,2.36-3.99c-.39-1.66-1.77-2.57-3.6-2.28ZM33.78,176.62c-1.8.33-2.73,2.13-2.45,3.61.32,1.7,1.54,2.65,3.19,2.68,1.52.03,2.99-1.03,3.18-2.73.12-1.05-.2-2.19-.89-2.79-.75-.66-1.84-.98-3.03-.76ZM37.73,205.08c-.46-1.78-2.41-2.7-4.09-2.16s-2.53,2.28-2.03,4.05,2.24,2.52,3.99,2.09,2.6-2.18,2.13-3.98ZM34.95,261.28c1.89,0,3.2-1.24,3.24-2.98.05-1.98-1.4-3.43-3.25-3.4-1.71.03-3.13,1.29-3.2,3.11-.06,1.7,1.22,3.28,3.21,3.27ZM36.69,74.24c-.49-1.68-2.58-2.48-4.01-1.98-1.69.59-2.47,2.34-1.94,4.03.49,1.56,2.24,2.47,3.79,2,1.66-.51,2.71-2.15,2.15-4.05ZM35.71,150.91c-1.44-.72-3.12-.38-3.99.76-.96,1.25-.9,3.01.12,4.12s2.63,1.32,3.98.54c1.26-.73,1.77-2.24,1.31-3.76-.21-.71-.75-1.32-1.42-1.66ZM37.65,231.19c-.44-1.78-2.4-2.61-3.82-2.2-1.84.53-2.6,2.17-2.21,3.88s2,2.6,3.75,2.2c1.65-.38,2.76-1.99,2.28-3.88ZM21.02,117.78c1.79-.01,3.23-1.47,3.22-3.26s-1.47-3.23-3.26-3.22-3.23,1.47-3.22,3.26,1.47,3.23,3.26,3.22ZM19.09,195.15c.88,1.06,2.49,1.26,3.73.71,1.02-.46,1.99-1.68,1.91-3-.09-1.48-1.21-2.72-2.42-3.05-1.49-.41-2.88.27-3.63,1.48-.71,1.15-.61,2.65.4,3.87ZM23.37,9.05c-.51-1.78-2.27-2.67-3.99-2.16-1.59.47-2.51,2.39-2.05,3.95.52,1.75,2.25,2.56,4,2.07,1.55-.44,2.51-2.19,2.04-3.85ZM20.53,39.39c1.78-.01,3.22-1.46,3.21-3.25s-1.46-3.22-3.25-3.21-3.22,1.46-3.21,3.25,1.46,3.22,3.25,3.21ZM23.68,61.56c-.46-1.86-2.32-2.59-3.83-2.18-1.79.48-2.66,2.15-2.19,3.85s2.12,2.65,3.71,2.25c1.7-.42,2.78-2.03,2.31-3.92ZM20.84,91.42c1.73-.01,3.13-1.42,3.12-3.16s-1.42-3.13-3.16-3.12-3.13,1.42-3.12,3.16,1.42,3.13,3.16,3.12ZM24.15,140.01c-.44-1.78-2.22-2.64-3.98-2.2-1.58.4-2.51,2.22-2.04,3.96.41,1.52,2.29,2.52,3.85,2.05,1.65-.5,2.61-2,2.16-3.81ZM24.28,165.69c-.56-1.86-2.53-2.56-4.02-2-1.69.64-2.4,2.27-1.95,3.86.51,1.82,2.2,2.53,3.99,2.07,1.55-.39,2.51-2.18,1.99-3.93ZM23.6,221.63c1.5-1.08,1.55-3.57.15-4.79-1.24-1.08-3.28-1.06-4.38.09-1.19,1.24-1.14,3.12-.1,4.32s2.81,1.48,4.34.37ZM21.02,248.06c2.07.38,3.7-.8,3.87-2.75.15-1.72-1.09-3.37-3.03-3.4-1.62-.03-3.17,1.23-3.22,3.07-.04,1.49.81,2.79,2.38,3.08ZM10.48,22.47c-.42-2.03-2.24-2.88-3.94-2.49s-2.73,2.02-2.38,3.74,2.01,2.95,3.83,2.53c1.59-.36,2.87-1.93,2.49-3.78ZM7.5,52.6c1.78-.01,3.22-1.46,3.2-3.24s-1.46-3.22-3.24-3.2-3.22,1.46-3.2,3.24,1.46,3.22,3.24,3.2ZM10.58,76.94c.6-1.23.4-2.72-.44-3.64-.71-.78-2.01-1.33-3.1-.95-1.54.53-2.39,1.62-2.35,3.11s.89,2.63,2.32,3c1.25.33,2.9-.15,3.57-1.53ZM10.9,100.6c-.48-1.95-2.46-2.66-4.06-2.21-1.71.48-2.6,2.26-2.17,3.91.47,1.81,2.22,2.76,3.99,2.28,1.63-.44,2.7-2.08,2.24-3.97ZM5.37,129.72c1.08,1.53,3.27,1.59,4.53.58,1.37-1.1,1.76-2.99.68-4.42s-3.16-1.8-4.48-.85c-1.47,1.05-1.86,3.08-.73,4.69ZM8.03,156.95c2.09.26,3.66-1.74,3.32-3.75-.27-1.65-1.89-2.72-3.4-2.53-1.73.22-2.83,1.46-2.81,3.16.02,1.52,1.02,2.89,2.88,3.12ZM7.86,183.03c1.18.08,2.36-.29,2.96-1.14,1.06-1.49.82-3.67-.62-4.64-1.28-.87-2.59-.76-3.77-.05-1.12.67-1.62,1.99-1.33,3.43.24,1.16,1.12,2.29,2.75,2.41ZM5.93,208.21c1.36,1.7,3.74,1.42,5.09-.18,1.08-1.28.74-3.29-.45-4.33-1.28-1.12-3.17-.98-4.41.15-1.13,1.04-1.33,2.98-.22,4.36ZM8.77,235.34c1.73-.01,3.13-1.42,3.12-3.16s-1.42-3.13-3.16-3.12-3.13,1.42-3.12,3.16,1.42,3.13,3.16,3.12ZM5.9,259.76c.88,1.47,2.47,2.04,4.06,1.48,1.26-.44,2.21-1.96,1.95-3.47-.23-1.33-1.29-2.6-2.81-2.69-1.35-.08-2.45.4-3.1,1.38-.6.9-.72,2.26-.1,3.3ZM-2.61,9.4c-.48-1.81-2.32-2.72-4.16-2.18-1.56.45-2.55,2.33-1.99,4.06.54,1.63,2.27,2.57,3.94,2.08s2.7-2.1,2.21-3.96ZM-5.36,65.63c1.78-.01,3.22-1.46,3.21-3.25s-1.46-3.22-3.25-3.21-3.22,1.46-3.21,3.25,1.46,3.22,3.25,3.21ZM-7.6,90.79c1.34,1.54,3.64,1.42,4.81.03s1-3.57-.52-4.75c-1.3-1.01-3.22-.81-4.31.4s-1.18,2.95.02,4.32ZM-5.39,143.91c1.91.25,3.38-.77,3.63-2.51.29-1.93-.8-3.53-2.69-3.81-1.71-.25-3.24.74-3.65,2.55-.38,1.69.75,3.51,2.7,3.76ZM-4.74,170.25c1.79-.01,3.22-1.47,3.21-3.25s-1.47-3.22-3.25-3.21-3.22,1.47-3.21,3.25,1.47,3.22,3.25,3.21ZM-3.54,222.22c1.58-.34,2.39-1.93,2.28-3.41-.1-1.31-1.22-2.61-2.63-2.81-2.16-.3-3.88,1.28-3.79,3.27s1.85,3.44,4.14,2.95ZM-1.24,244.4c-.54-1.88-2.58-2.64-4.25-2-1.52.58-2.45,2.39-1.9,4.02s2.39,2.57,4.03,2.07,2.67-2.14,2.11-4.1ZM-6.02,39.4c1.45.1,2.66-.53,3.13-1.69.75-1.86-.07-3.8-1.82-4.37s-3.71.48-4.05,2.17c-.38,1.89.69,3.74,2.75,3.88ZM-7.66,112.67c-1.13,1.5-.86,3.41.43,4.5,1.17.99,2.94.94,4.21-.25s1.15-3.32-.12-4.53c-1.18-1.12-3.4-1.2-4.52.28ZM-5.86,196.03c1.33.58,2.83.01,3.55-1,.78-1.1.85-2.36.17-3.65-.61-1.16-2.22-1.65-3.46-1.37-1.34.31-2.25,1.58-2.3,2.84-.05,1.38.6,2.55,2.03,3.17Z"/>
      <g>
        <circle class="cls-2" cx="242.55" cy="47.95" r="3.25" transform="translate(-.28 1.46) rotate(-.34)"/>
        <path class="cls-2" d="M97.59,194.86c-.79-.65-1.03-1.78-.98-2.75s.72-1.85,1.64-2.49c1.29-.9,3.07-.36,4.1.84,1.11,1.29.91,3.22-.21,4.29-1.23,1.17-3.09,1.31-4.55.12Z"/>
        <path class="cls-2" d="M253.2,111.58c.64-1.35,2.14-1.83,3.55-1.61,1.17.19,2.26,1.31,2.53,2.62s-.39,2.85-1.68,3.44-2.76.38-3.78-.58c-.94-.89-1.31-2.41-.62-3.87Z"/>
        <path class="cls-2" d="M5.37,129.72c-1.13-1.61-.74-3.64.73-4.69,1.32-.95,3.39-.59,4.48.85s.69,3.32-.68,4.42c-1.26,1.01-3.46.95-4.53-.58Z"/>
        <path class="cls-2" d="M292.41,152.98c-.12-.58-.08-1.58.05-2,.42-1.37,1.69-2.05,2.9-2.1,1.32-.05,2.72.67,3.14,1.96.6,1.84-.14,3.67-1.78,4.25s-3.9-.07-4.31-2.11Z"/>
        <path class="cls-2" d="M57.17,154c-.33-1.52.78-3.04,2-3.5,1.52-.58,3.22.01,4,1.3s.6,3.12-.6,4.12c-1.01.84-2.09,1.05-3.32.57-.9-.35-1.79-1.13-2.08-2.48Z"/>
        <path class="cls-2" d="M141.99,152.74c.16,1.92-1.19,3.32-2.9,3.49-1.84.19-3.37-1.07-3.53-2.87s.94-3.3,2.68-3.53c1.82-.25,3.59,1.03,3.75,2.91Z"/>
        <path class="cls-2" d="M206.47,220.42c-1.45,1.04-3.55.9-4.57-.47-.92-1.23-.91-2.76-.12-3.99.66-1.04,2.24-1.54,3.64-1.17,1.17.31,1.96,1.41,2.14,2.4.22,1.21-.12,2.54-1.08,3.23Z"/>
        <path class="cls-2" d="M142.44,231c.24,2.01-1.18,3.46-2.84,3.6-1.85.15-3.35-.96-3.57-2.86-.18-1.62,1.04-3.26,2.69-3.53s3.5.94,3.73,2.79Z"/>
        <path class="cls-2" d="M122.67,11.97c-1.33-1.06-1.52-3.33-.37-4.66.48-.55,1.64-1,2.31-1.05,1.53-.12,2.71.83,3.17,1.98.59,1.46.13,2.9-1.07,3.79-1.13.84-2.68,1.01-4.05-.06Z"/>
        <path class="cls-2" d="M201.44,84.95c1.02-.91,2.85-1.02,3.86-.35,1.53,1.02,1.98,2.98,1.13,4.38-.93,1.53-2.7,2.15-4.47,1.21s-2.21-3.73-.51-5.24Z"/>
        <path class="cls-2" d="M155.51,243.47c.58,1.91-.45,3.64-2.11,4.1s-3.53-.35-4.03-2.07.29-3.43,1.89-4.04,3.69.12,4.26,2Z"/>
        <path class="cls-2" d="M162,128.67c-.81-1.28-.73-3.02.19-4.03s2.64-1.3,3.89-.74c.86.38,1.51,1.32,1.72,2,.31,1.01.04,2-.59,2.88-1.18,1.65-4.05,1.72-5.21-.12Z"/>
        <path class="cls-2" d="M161.32,100.04c.15-1.49,1.19-2.25,2.35-2.57s2.64,0,3.41,1.05c.93,1.28.88,2.88-.04,4.04s-2.29,1.54-3.69,1-2.21-1.82-2.03-3.53Z"/>
        <path class="cls-2" d="M180.95,113.34c.18,1.78-1.31,3.39-2.88,3.49-1.84.12-3.31-1.1-3.57-2.89-.25-1.69,1.07-3.29,2.67-3.52,1.87-.27,3.59.99,3.79,2.92Z"/>
        <path class="cls-2" d="M114.97,21.41c.6,1.81-.34,3.61-1.99,4.12s-3.62-.25-4.13-2.06c-.46-1.61.24-3.39,1.93-4.02,1.56-.58,3.56.05,4.19,1.96Z"/>
        <path class="cls-2" d="M312.23,242.53c.57,1.88-.49,3.59-2.13,4.08s-3.47-.38-4.03-2.06.3-3.42,1.89-4.02c1.67-.63,3.69.11,4.27,2.01Z"/>
        <path class="cls-2" d="M60.48,71.91c.72.09,1.42.49,1.8.93,1.07,1.24,1.18,3,.25,4.22s-2.68,1.72-4.07.95c-1.32-.73-2.12-2.26-1.65-3.76s1.88-2.57,3.67-2.34Z"/>
        <circle class="cls-2" cx="46.41" cy="9.94" r="3.24" transform="translate(-.06 .28) rotate(-.34)"/>
        <path class="cls-2" d="M7.86,183.03c-1.63-.11-2.51-1.24-2.75-2.41-.29-1.44.21-2.75,1.33-3.43,1.18-.71,2.49-.82,3.77.05,1.44.97,1.68,3.15.62,4.64-.6.85-1.79,1.23-2.96,1.14Z"/>
        <path class="cls-2" d="M122.68,165.14c.23-.79.77-1.42,1.46-1.73,1.46-.66,3.2-.45,4.15.84.82,1.12.93,2.96-.08,4.1s-2.65,1.49-3.99.76-2.05-2.22-1.54-3.97Z"/>
        <circle class="cls-2" cx="321.24" cy="99.58" r="3.24" transform="translate(-.59 1.93) rotate(-.34)"/>
        <circle class="cls-2" cx="229.4" cy="8.85" r="3.24" transform="translate(-.05 1.38) rotate(-.34)"/>
        <circle class="cls-2" cx="47.83" cy="245.09" r="3.24" transform="translate(-1.47 .29) rotate(-.34)"/>
        <circle class="cls-2" cx="21" cy="114.54" r="3.24" transform="translate(-.69 .13) rotate(-.34)"/>
        <path class="cls-2" d="M88.84,21.85c.41,1.76-.67,3.5-2.25,3.9-1.81.46-3.58-.48-4.05-2.29-.44-1.66.56-3.53,2.32-3.96,1.66-.4,3.56.55,3.98,2.35Z"/>
        <path class="cls-2" d="M239.2,21.21c.16-1.28,1.04-2.2,1.94-2.54,1.13-.42,2.27-.16,3.31.53,1.22.8,1.49,2.78.81,4.01-.77,1.41-2.25,1.99-3.84,1.56-1.36-.37-2.44-1.82-2.22-3.56Z"/>
        <path class="cls-2" d="M181.41,191.69c.17,1.87-1.22,3.39-2.88,3.51-1.82.13-3.38-1.06-3.58-2.88-.18-1.64,1.06-3.26,2.71-3.53,1.78-.3,3.58,1.08,3.75,2.9Z"/>
        <circle class="cls-2" cx="242.85" cy="100.08" r="3.23" transform="translate(-.6 1.46) rotate(-.34)"/>
        <circle class="cls-2" cx="126.2" cy="244.63" r="3.24" transform="translate(-1.47 .76) rotate(-.34)"/>
        <circle class="cls-2" cx="281.82" cy="60.66" r="3.24" transform="translate(-.36 1.7) rotate(-.34)"/>
        <path class="cls-2" d="M189.27,129.4c-1.2-.82-1.75-1.95-1.55-3.28.16-1.08,1.08-2.36,2.31-2.59,1.65-.3,2.92.24,3.7,1.56.66,1.11.49,2.77-.5,3.83s-2.66,1.38-3.98.48Z"/>
        <path class="cls-2" d="M76.62,165.38c.65,1.87-.19,3.63-1.89,4.23s-3.45-.21-4.11-1.9c-.62-1.6.07-3.45,1.63-4.07,1.68-.67,3.72-.13,4.37,1.74Z"/>
        <path class="cls-2" d="M37.12,100.44c.5,1.91-.52,3.55-2.23,3.99s-3.53-.46-3.99-2.33c-.4-1.62.39-3.26,2.16-3.85,1.55-.52,3.56.31,4.05,2.19Z"/>
        <path class="cls-2" d="M19.09,195.15c-1.02-1.22-1.11-2.72-.4-3.87.75-1.21,2.14-1.89,3.63-1.48,1.21.33,2.32,1.57,2.42,3.05.08,1.32-.89,2.54-1.91,3-1.24.56-2.85.35-3.73-.71Z"/>
        <path class="cls-2" d="M220.81,230.75c.09,2-1.35,3.39-3.08,3.41s-3.26-1.27-3.35-3.04,1.23-3.26,2.9-3.41c1.83-.17,3.45,1.1,3.54,3.04Z"/>
        <path class="cls-2" d="M96.2,114.57c-.14-1.22.17-2.34.95-2.94,1.65-1.26,3.99-.96,4.96.72s.34,3.85-1.4,4.66c-1.88.88-4.25-.18-4.51-2.44Z"/>
        <path class="cls-2" d="M167.3,207.61c-1.72,1.4-4,.89-4.92-.75-.97-1.73-.39-3.82,1.55-4.68,1.57-.7,3.88.2,4.36,2.15.26,1.05-.12,2.57-.99,3.28Z"/>
        <circle class="cls-2" cx="60.87" cy="231.88" r="3.24" transform="translate(-1.39 .37) rotate(-.34)"/>
        <path class="cls-2" d="M269.76,129.35c-1.82.31-3.35-.96-3.67-2.5-.35-1.71.84-3.42,2.28-3.75,1.98-.46,3.63.5,4.03,2.38s-.58,3.53-2.64,3.88Z"/>
        <path class="cls-2" d="M207.24,165.11c.34,1.8-.76,3.4-2.39,3.81s-3.56-.68-3.88-2.25c-.4-1.94.54-3.64,2.29-4s3.62.53,3.98,2.44Z"/>
        <path class="cls-2" d="M259.76,191.23c.17,1.82-1.27,3.38-2.86,3.51-1.88.16-3.35-1.07-3.57-2.92-.19-1.61,1.08-3.28,2.69-3.53,1.83-.28,3.57,1.06,3.74,2.94Z"/>
        <path class="cls-2" d="M319.18,128.25c-1.41-1.22-1.29-3.69.06-4.81s3.3-.98,4.51.2,1.2,3.08-.03,4.47c-.99,1.12-3.1,1.39-4.55.13Z"/>
        <path class="cls-2" d="M10.9,100.6c.46,1.89-.62,3.53-2.24,3.97-1.77.48-3.52-.47-3.99-2.28-.42-1.64.46-3.42,2.17-3.91,1.6-.45,3.58.26,4.06,2.21Z"/>
        <path class="cls-2" d="M324.36,179.89c-.87,1.45-3.65,1.8-5.08.34-.61-.62-.8-1.71-.78-2.68.03-1.4,1.23-2.31,2.35-2.66,1.34-.42,2.63.16,3.35,1.1.92,1.19.95,2.58.16,3.91Z"/>
        <path class="cls-2" d="M189.26,25.05c-1.63-.45-2.38-2.11-2.15-3.63s1.6-2.59,3.12-2.64,2.94,1,3.21,2.59c.22,1.24-.09,2.2-.89,2.98s-1.95,1.07-3.3.7Z"/>
        <path class="cls-2" d="M167.18,21.51c.38,1.93-.86,3.5-2.46,3.8-1.87.35-3.46-.69-3.83-2.54-.33-1.66.63-3.34,2.36-3.76s3.56.58,3.94,2.5Z"/>
        <path class="cls-2" d="M203.51,142.69c-1.42-.1-2.25-1.12-2.62-2.13-.44-1.22-.09-2.68.87-3.46,1.27-1.02,2.77-1.06,4.01-.28s1.71,2.39,1.23,3.73-1.76,2.27-3.49,2.15Z"/>
        <path class="cls-2" d="M219.48,154.82c-.87.91-2.09,1.11-3.2.87-.92-.2-1.95-1.03-2.21-2.13-.34-1.47.05-2.91,1.22-3.69s2.63-.78,3.9.15c1.35,1,1.55,3.48.29,4.79Z"/>
        <path class="cls-2" d="M49.84,61.27c.39,1.83-.54,3.46-2.22,3.9-1.79.46-3.51-.46-4-2.3-.45-1.69.48-3.53,2.36-3.92,1.67-.35,3.46.45,3.86,2.33Z"/>
        <path class="cls-2" d="M228.11,245.7c-.9-1.28-.63-2.91.3-3.91s2.6-1.36,3.83-.72c1.35.71,2,2.11,1.72,3.72-.21,1.26-1.31,2.06-2.42,2.34-1.31.33-2.6-.24-3.44-1.44Z"/>
        <path class="cls-2" d="M284.61,7.64c.51,1.76-.61,3.6-2.18,3.97-1.78.42-3.67-.43-4.08-2.28-.37-1.65.38-3.3,2.23-3.91,1.49-.48,3.48.3,4.03,2.21Z"/>
        <path class="cls-2" d="M47.23,221.98c-1.58-.08-2.65-1.56-2.76-2.8-.14-1.51.69-3.05,2.17-3.43,2.08-.53,4.15.7,4.23,2.83.03.94-.28,2.01-.85,2.56-.66.64-1.66.89-2.8.83Z"/>
        <path class="cls-2" d="M299.15,229.9c.24,1.93-.87,3.39-2.48,3.71-1.91.38-3.53-.73-3.85-2.49-.33-1.85.71-3.48,2.59-3.84,1.61-.31,3.52.91,3.74,2.62Z"/>
        <path class="cls-2" d="M128.23,60.82c.4,1.77-.64,3.45-2.25,3.87-1.83.47-3.53-.43-3.99-2.3-.41-1.69.5-3.5,2.32-3.93,1.68-.39,3.51.49,3.93,2.35Z"/>
        <path class="cls-2" d="M337.66,112.32c.21,1.82-1.25,3.33-2.71,3.54-1.9.28-3.51-1.1-3.68-2.74-.19-1.82.94-3.38,2.62-3.64,1.81-.28,3.53.77,3.77,2.84Z"/>
        <circle class="cls-2" cx="282.28" cy="139.04" r="3.23" transform="translate(-.83 1.7) rotate(-.34)"/>
        <path class="cls-2" d="M323.91,20.58c.35,1.9-.86,3.49-2.47,3.8-1.8.34-3.5-.77-3.83-2.54s.64-3.35,2.38-3.76,3.54.51,3.91,2.49Z"/>
        <path class="cls-2" d="M114.44,129.78c-1.41.86-2.88.69-3.94-.2-1.11-.93-1.56-2.5-.85-3.88.67-1.3,1.92-1.9,3.32-1.76,1.16.12,2.41,1.1,2.69,2.21.35,1.37-.02,2.89-1.22,3.63Z"/>
        <circle class="cls-2" cx="282.91" cy="243.67" r="3.23" transform="translate(-1.46 1.71) rotate(-.34)"/>
        <circle class="cls-2" cx="72.99" cy="61.91" r="3.23" transform="translate(-.37 .44) rotate(-.34)"/>
        <path class="cls-2" d="M10.48,22.47c.38,1.85-.9,3.42-2.49,3.78-1.82.42-3.46-.74-3.83-2.53s.64-3.34,2.38-3.74,3.52.46,3.94,2.49Z"/>
        <circle class="cls-2" cx="112.41" cy="100.86" r="3.24" transform="translate(-.6 .68) rotate(-.34)"/>
        <path class="cls-2" d="M206.26,8.28c.4,2.01-.77,3.59-2.56,3.89s-3.33-.67-3.7-2.44.6-3.39,2.42-3.89c1.57-.43,3.48.59,3.84,2.45Z"/>
        <path class="cls-2" d="M291.96,74.63c-.43-1.68.24-3.01,1.53-3.76,1.19-.69,3.07-.47,3.95.65,1.34,1.71.94,4.03-.75,4.97-1.83,1.01-4.17.33-4.73-1.86Z"/>
        <path class="cls-2" d="M125.03,143.14c-1.88-.26-2.96-2.02-2.62-3.81s2.01-2.85,4.03-2.47c1.61.3,2.57,2.08,2.33,3.67-.26,1.68-1.92,2.87-3.73,2.61Z"/>
        <path class="cls-2" d="M190.74,181.93c-1.78-.16-2.82-1.86-2.71-3.41s1.39-2.85,3-2.99,3.2,1.06,3.41,2.77c.13,1.03-.17,2-.78,2.68-.64.72-1.68,1.05-2.92.94Z"/>
        <path class="cls-2" d="M239.85,125.73c.24-1.78,2.06-2.79,3.76-2.54s2.88,1.97,2.62,3.61c-.28,1.75-1.86,3-3.51,2.74-1.87-.3-3.17-1.64-2.88-3.81Z"/>
        <circle class="cls-2" cx="74.08" cy="244.93" r="3.23" transform="translate(-1.47 .45) rotate(-.34)"/>
        <path class="cls-2" d="M33.69,124.45c1.82-.29,3.21.62,3.6,2.28.43,1.83-.55,3.62-2.36,3.99s-3.37-.52-3.86-2.27.57-3.66,2.62-4Z"/>
        <circle class="cls-2" cx="86.14" cy="101.02" r="3.23" transform="translate(-.61 .52) rotate(-.34)"/>
        <path class="cls-2" d="M267.01,180.31c-1.22-1.82-.58-3.86,1.03-4.86,1.52-.93,3.79-.1,4.48,1.45.83,1.87-.13,4.13-2.14,4.49-1.23.23-2.69-.07-3.38-1.09Z"/>
        <path class="cls-2" d="M242.43,207.78c-1.56-.4-2.15-1.87-2.14-3.2.01-1.41.99-2.51,2.24-2.9,1.44-.44,3.04.09,3.75,1.39.67,1.23.54,2.56-.24,3.67-.69.98-2.17,1.43-3.62,1.05Z"/>
        <path class="cls-2" d="M128.38,87.18c.49,1.83-.81,3.37-2.39,3.84-1.71.52-3.51-.75-3.86-2.28-.42-1.84.5-3.52,2.11-3.95,1.87-.5,3.59.34,4.14,2.38Z"/>
        <path class="cls-2" d="M305.67,5.93c1.55-1.33,3.32-.98,4.6.49,1.1,1.26.92,3.37-.42,4.44s-3.3,1.03-4.5-.32-1.14-3.36.32-4.61Z"/>
        <path class="cls-2" d="M285.61,164.65c.39,1.76-.77,3.37-2.4,3.79s-3.56-.71-3.89-2.25c-.4-1.88.63-3.63,2.27-4.01,1.87-.43,3.6.55,4.02,2.46Z"/>
        <path class="cls-2" d="M325.28,255.45c.53,1.81-.57,3.63-2.16,4.01-1.74.42-3.61-.47-4.05-2.29-.39-1.64.42-3.32,2.18-3.94,1.46-.52,3.48.33,4.04,2.22Z"/>
        <path class="cls-2" d="M36.59,21.86c.61,1.93-.28,3.55-2.03,4.13-1.63.54-3.54-.25-4.09-2.06-.48-1.57.26-3.34,1.95-3.98,1.51-.57,3.58.06,4.17,1.91Z"/>
        <path class="cls-2" d="M271.06,50.17c-1.5,1.31-3.48.99-4.55-.11-1.28-1.31-1.16-3.2-.07-4.45s3.24-1.38,4.62-.17c1.27,1.11,1.33,3.57,0,4.72Z"/>
        <path class="cls-2" d="M112.16,182.35c-1.74-.28-2.73-2.02-2.48-3.54s1.55-2.8,3.13-2.8,3.07,1.08,3.26,2.75c.13,1.15-.19,2.09-.91,2.81s-1.75.97-3,.77Z"/>
        <path class="cls-2" d="M89.02,48.31c.38,1.64-.88,3.42-2.42,3.74-1.8.39-3.52-.69-3.89-2.26-.43-1.84.66-3.6,2.27-3.98,1.91-.44,3.59.55,4.03,2.49Z"/>
        <path class="cls-2" d="M319.21,206.09c-1-1.58-.57-3.39.64-4.33,1.36-1.05,3.21-.99,4.39.27,1.1,1.18,1.23,3.12,0,4.39-1.38,1.44-3.93,1.42-5.04-.34Z"/>
        <path class="cls-2" d="M75.15,90.74c-1.68,1.2-3.59.68-4.64-.7s-.64-3.52.7-4.47c1.58-1.12,3.68-.74,4.72.99.76,1.25.48,3.28-.78,4.18Z"/>
        <path class="cls-2" d="M162.22,180.69c-.73-1.29-.6-2.76.22-3.8.77-.99,2.23-1.42,3.71-.94,1.02.32,2.05,1.61,2.06,2.99,0,1.5-1.02,2.7-2.35,3.09-1.25.36-2.9-.01-3.64-1.33Z"/>
        <circle class="cls-2" cx="151.36" cy="61.44" r="3.23" transform="translate(-.37 .91) rotate(-.34)"/>
        <path class="cls-2" d="M153.15,84.9c1.14.55,1.57,1.77,1.54,2.86s-.59,2.3-1.69,2.82c-1.45.68-3.01.28-3.91-.74-1.09-1.23-1.04-2.87-.17-4.08.93-1.28,2.66-1.62,4.23-.86Z"/>
        <circle class="cls-2" cx="269.74" cy="204.57" r="3.23" transform="translate(-1.23 1.63) rotate(-.34)"/>
        <path class="cls-2" d="M154.91,138.92c.5,1.88-.51,3.58-2.23,4s-3.56-.48-4-2.3c-.37-1.54.45-3.41,2.15-3.87s3.56.23,4.08,2.17Z"/>
        <circle class="cls-2" cx="151.97" cy="166.08" r="3.23" transform="translate(-1 .92) rotate(-.34)"/>
        <path class="cls-2" d="M153.35,221.23c-1.55.4-2.89-.05-3.73-1.22-.75-1.05-.82-2.6.11-3.83.74-.98,2.28-1.46,3.66-1.01,1.3.42,2.08,1.66,2.11,2.9.03,1.33-.67,2.77-2.14,3.15Z"/>
        <path class="cls-2" d="M305.73,88.77c-1.07-1.32-.89-3.08.1-4.19,1.08-1.21,3.02-1.41,4.31-.41,1.57,1.21,1.8,3.5.43,4.86s-3.51,1.39-4.84-.26Z"/>
        <circle class="cls-2" cx="203.46" cy="61.12" r="3.23" transform="translate(-.36 1.22) rotate(-.34)"/>
        <circle class="cls-2" cx="229.71" cy="60.97" r="3.23" transform="translate(-.36 1.38) rotate(-.34)"/>
        <path class="cls-2" d="M229.36,84.08c1.12-.15,2.12.11,2.78.78.61.62.99,1.55.95,2.58-.05,1.64-1.54,2.94-3.04,3.03-1.7.1-3.15-1.16-3.37-2.76s.8-3.37,2.68-3.63Z"/>
        <circle class="cls-2" cx="126.04" cy="218.38" r="3.23" transform="translate(-1.31 .76) rotate(-.34)"/>
        <circle class="cls-2" cx="230.34" cy="165.6" r="3.23" transform="translate(-.99 1.39) rotate(-.34)"/>
        <path class="cls-2" d="M229.95,220.82c-2.07-.36-3.09-2.68-2.26-4.39s2.94-2.46,4.62-1.47,2.08,3.33.79,4.93c-.69.85-1.86,1.17-3.15.94Z"/>
        <path class="cls-2" d="M207.64,243.18c.56,1.82-.56,3.52-2.14,4.02-1.69.54-3.49-.38-4.02-2.03s.39-3.49,1.9-4.05c1.69-.62,3.68.17,4.26,2.05Z"/>
        <path class="cls-2" d="M320.25,50.6c-2.07-.3-2.92-2.38-2.34-4.16s2.73-2.69,4.52-1.82c1.69.83,2.31,3.1,1.18,4.68-.8,1.12-1.84,1.52-3.37,1.3Z"/>
        <circle class="cls-2" cx="73.92" cy="218.67" r="3.22" transform="translate(-1.31 .45) rotate(-.34)"/>
        <circle class="cls-2" cx="190.77" cy="100.4" r="3.23" transform="translate(-.6 1.15) rotate(-.34)"/>
        <path class="cls-2" d="M86.2,130.52c-2.14-.14-3.29-1.8-3.09-3.58.22-1.94,1.91-3.12,3.87-2.78,1.72.3,3.04,2.18,2.41,4.03-.45,1.32-1.72,2.43-3.2,2.33Z"/>
        <circle class="cls-2" cx="308.08" cy="60.5" r="3.23" transform="translate(-.36 1.85) rotate(-.34)"/>
        <path class="cls-2" d="M50.33,139.78c.38,1.91-.78,3.42-2.45,3.78-1.82.39-3.53-.63-3.84-2.51-.28-1.69.62-3.3,2.45-3.73,1.6-.38,3.44.47,3.84,2.47Z"/>
        <path class="cls-2" d="M135.28,73.58c.51-1.86,2.69-2.62,4.33-1.87s2.5,2.82,1.52,4.51c-.86,1.5-2.6,2.04-4.03,1.42-1.58-.69-2.36-2.15-1.83-4.06Z"/>
        <path class="cls-2" d="M162.62,45.57c.66-.47,2.41-.42,3.09,0,1.51.92,2.06,2.52,1.57,3.87-.61,1.67-2.04,2.39-3.85,2.09-1.29-.22-2.13-1.26-2.36-2.38-.29-1.41.16-2.59,1.55-3.58Z"/>
        <circle class="cls-2" cx="308.7" cy="165.14" r="3.23" transform="translate(-.99 1.86) rotate(-.34)"/>
        <path class="cls-2" d="M338.1,190.64c.23,1.9-1.14,3.35-2.68,3.59-1.91.3-3.47-1.04-3.68-2.74s.9-3.33,2.62-3.65,3.51.86,3.74,2.8Z"/>
        <path class="cls-2" d="M84.1,207.53c-.92-1.53-.67-3.11.42-4.15s2.68-1.27,4.01-.44c1.2.75,1.89,2.47,1.23,3.93-.48,1.08-1.54,1.88-2.58,2.01s-2.48-.36-3.08-1.35Z"/>
        <circle class="cls-2" cx="191.4" cy="205.02" r="3.23" transform="translate(-1.23 1.15) rotate(-.34)"/>
        <path class="cls-2" d="M33.78,176.62c1.18-.22,2.27.1,3.03.76.69.6,1.01,1.75.89,2.79-.19,1.71-1.67,2.76-3.18,2.73-1.65-.03-2.87-.98-3.19-2.68-.28-1.48.65-3.27,2.45-3.61Z"/>
        <path class="cls-2" d="M5.93,208.21c-1.11-1.38-.91-3.33.22-4.36,1.24-1.13,3.13-1.27,4.41-.15,1.19,1.05,1.54,3.05.45,4.33-1.35,1.6-3.73,1.88-5.09.18Z"/>
        <path class="cls-2" d="M281.79,90.15c-.9-.11-1.94-.63-2.46-1.3-.85-1.09-.74-2.72-.03-3.71.84-1.17,2.14-1.73,3.7-1.3s2.49,2.17,2.15,3.7c-.32,1.42-1.71,2.81-3.35,2.61Z"/>
        <circle class="cls-2" cx="268.65" cy="21.53" r="3.22" transform="translate(-.12 1.62) rotate(-.34)"/>
        <path class="cls-2" d="M74.78,12.26c-1.5,1.19-3.36.84-4.41-.22-1.28-1.31-1.18-3.22-.08-4.43,1.17-1.3,3.25-1.38,4.59-.17s1.37,3.65-.1,4.82Z"/>
        <path class="cls-2" d="M174.15,36.09c-.4-1.97.56-3.59,2.34-4.01,1.68-.4,3.5.51,3.87,2.34s-.63,3.52-2.35,3.94c-1.59.39-3.52-.62-3.85-2.28Z"/>
        <circle class="cls-2" cx="20.51" cy="36.16" r="3.23" transform="translate(-.22 .12) rotate(-.34)"/>
        <path class="cls-2" d="M337.18,34.02c.14,1.8-1.2,3.29-2.7,3.45-1.96.21-3.45-1.06-3.69-2.74-.26-1.88,1.06-3.46,2.82-3.66s3.41,1.07,3.56,2.95Z"/>
        <path class="cls-2" d="M154.12,8.47c.46,1.87-.49,3.59-2.37,4-1.52.33-3.4-.55-3.83-2.25s.39-3.36,2.21-3.99c1.53-.53,3.54.41,3.99,2.24Z"/>
        <path class="cls-2" d="M258.82,34.51c.16,1.74-1.25,3.26-2.71,3.42-2,.23-3.47-1.01-3.68-2.73-.23-1.87,1.05-3.48,2.82-3.65s3.39,1.04,3.57,2.96Z"/>
        <circle class="cls-2" cx="46.89" cy="88.33" r="3.23" transform="translate(-.53 .28) rotate(-.34)"/>
        <path class="cls-2" d="M35.1,52.16c-.64.26-1.92.28-2.52.08-1.52-.51-2.33-2.18-2.07-3.49.31-1.59,1.49-2.63,2.95-2.72,1.57-.09,2.92.8,3.33,2.29.38,1.38-.1,3.19-1.68,3.84Z"/>
        <path class="cls-2" d="M282.1,220.52c-2.12-.35-3.04-2.65-2.26-4.42s3.14-2.59,4.75-1.36c1.31.99,1.73,2.5,1.18,3.87s-1.9,2.21-3.67,1.91Z"/>
        <path class="cls-2" d="M37.73,205.08c.47,1.8-.44,3.56-2.13,3.98s-3.5-.35-3.99-2.09.28-3.49,2.03-4.05,3.62.38,4.09,2.16Z"/>
        <path class="cls-2" d="M72.93,137.17c1.13-.13,2.24.16,2.83.84,1.41,1.61,1.16,3.93-.54,4.98s-4,.44-4.76-1.45c-.71-1.76.25-4.12,2.47-4.37Z"/>
        <circle class="cls-2" cx="98.89" cy="35.68" r="3.23" transform="translate(-.21 .6) rotate(-.34)"/>
        <path class="cls-2" d="M83.47,178.66c.27-1.7,1.89-2.56,3.52-2.42,1.78.15,3.05,1.85,2.84,3.46-.25,1.96-1.79,3.09-3.65,2.88s-3.05-1.82-2.71-3.92Z"/>
        <circle class="cls-2" cx="7.48" cy="49.37" r="3.22" transform="translate(-.3 .05) rotate(-.34)"/>
        <path class="cls-2" d="M114.5,208.42c-1.41.6-2.76.28-3.64-.56-1.02-.97-1.32-2.22-.78-3.67.5-1.35,1.92-2.01,3.32-1.86s2.43,1.08,2.74,2.42-.23,3.07-1.65,3.67Z"/>
        <path class="cls-2" d="M189.82,51.4c-1.52-.17-2.5-1.55-2.58-3.04-.08-1.35.93-2.9,2.33-3.17,1.52-.29,2.59.1,3.44,1.14s.88,2.44.24,3.6-1.9,1.64-3.42,1.47Z"/>
        <path class="cls-2" d="M48.1,169.84c-1.57.44-3.15-.54-3.67-1.77-.66-1.58-.12-3.26,1.19-4.06,1.39-.85,3.23-.62,4.28.68.71.87.84,2.03.46,3.08-.32.87-1.06,1.73-2.26,2.07Z"/>
        <path class="cls-2" d="M115.16,47.81c.59,1.86-.59,3.65-2.19,4.01-1.78.41-3.44-.4-3.99-2.19-.47-1.55.48-3.46,2-3.92,1.74-.53,3.59.22,4.18,2.1Z"/>
        <path class="cls-2" d="M309.21,142.01c-2.24.37-3.95-1.24-3.89-3.19s1.86-3.42,3.95-3.03c1.61.3,2.4,1.49,2.51,3,.1,1.4-.9,2.94-2.56,3.22Z"/>
        <circle class="cls-2" cx="269.13" cy="99.92" r="3.22" transform="translate(-.6 1.62) rotate(-.34)"/>
        <circle class="cls-2" cx="243.33" cy="178.46" r="3.22" transform="translate(-1.07 1.47) rotate(-.34)"/>
        <circle class="cls-2" cx="230.19" cy="139.35" r="3.22" transform="translate(-.83 1.39) rotate(-.34)"/>
        <circle class="cls-2" cx="216.65" cy="74.18" r="3.22" transform="translate(-.44 1.3) rotate(-.34)"/>
        <circle class="cls-2" cx="309.02" cy="217.27" r="3.22" transform="translate(-1.3 1.86) rotate(-.34)"/>
        <circle class="cls-2" cx="151.49" cy="113.77" r="3.16" transform="translate(-.68 .91) rotate(-.34)"/>
        <path class="cls-2" d="M297.78,46.29c.68,1.73-.2,3.57-1.76,4.09-1.67.56-3.52-.1-4.12-1.81s.06-3.23,1.73-4.04c1.41-.69,3.45-.03,4.16,1.76Z"/>
        <path class="cls-2" d="M246.32,151.37c.6,1.89-.33,3.47-2.12,4.09-1.44.49-3.3-.47-3.81-2.06s.22-3.36,1.95-3.95c1.55-.53,3.39.06,3.98,1.93Z"/>
        <path class="cls-2" d="M272.34,151.63c.34,1.97-.87,3.34-2.59,3.73-1.59.36-3.32-.96-3.56-2.45-.3-1.83.65-3.36,2.42-3.76,1.61-.37,3.41.64,3.73,2.49Z"/>
        <path class="cls-2" d="M324.54,153.26c-.85,1.95-3.19,2.3-4.72,1.18s-1.72-3.56-.22-4.83c1.22-1.04,2.67-1.07,3.86-.33,1.27.78,1.76,2.42,1.08,3.99Z"/>
        <path class="cls-2" d="M305.61,190.53c.2-1.35,1.32-2.19,2.44-2.44s2.55.29,3.17,1.28c.81,1.31.79,2.83-.16,3.91-.89,1.02-2.43,1.38-3.66.8s-2.04-1.88-1.79-3.55Z"/>
        <path class="cls-2" d="M75.63,34.84c.58,1.86-.42,3.56-2.14,4.03-1.62.44-3.29-.32-3.81-1.98s.22-3.45,1.94-4c1.56-.5,3.44.13,4.01,1.95Z"/>
        <path class="cls-2" d="M216.45,129.37c-1.83-.26-2.66-1.65-2.63-3.22s1.23-2.78,2.83-2.96,3.04.71,3.38,2.41c.21,1.02-.03,2.15-.7,2.86s-1.75,1.07-2.88.91Z"/>
        <path class="cls-2" d="M336.8,7.08c.52,1.76-.48,3.49-2.03,3.93-1.76.5-3.47-.31-3.97-2.07-.44-1.52.37-3.35,1.9-3.89,1.67-.58,3.54.14,4.1,2.02Z"/>
        <path class="cls-2" d="M270.98,227.74c1.14.54,1.63,1.23,1.85,2.39.37,1.97-1.2,3.61-3.18,3.62s-3.31-1.8-3-3.77c.29-1.85,2.43-3.15,4.34-2.24Z"/>
        <path class="cls-2" d="M63.16,126.08c.66,1.78-.17,3.54-1.8,4.07s-3.51-.07-4.09-1.81c-.5-1.5.11-3.36,1.72-3.99,1.5-.59,3.5-.06,4.16,1.73Z"/>
        <path class="cls-2" d="M8.03,156.95c-1.87-.24-2.87-1.6-2.88-3.12-.02-1.7,1.08-2.94,2.81-3.16,1.51-.19,3.13.88,3.4,2.53.33,2.01-1.24,4.02-3.32,3.75Z"/>
        <path class="cls-2" d="M23.37,9.05c.47,1.67-.49,3.41-2.04,3.85-1.75.5-3.48-.32-4-2.07-.46-1.55.46-3.47,2.05-3.95,1.72-.51,3.48.38,3.99,2.16Z"/>
        <path class="cls-2" d="M336.61,141.37c-1.6,1.12-3.31.77-4.38-.38s-1.06-3.06.12-4.29,3.3-1.22,4.52-.02,1.14,3.71-.26,4.69Z"/>
        <circle class="cls-2" cx="217.44" cy="204.67" r="3.15" transform="translate(-1.23 1.31) rotate(-.34)"/>
        <circle class="cls-2" cx="282.31" cy="112.96" r="3.15" transform="translate(-.67 1.7) rotate(-.34)"/>
        <path class="cls-2" d="M319.06,230.49c-.08-1.83,1.52-3.41,3.3-3.37.9.02,2,.69,2.47,1.43.78,1.23.65,3.11-.36,4.03s-2.25,1.05-3.4.62c-.98-.37-1.95-1.27-2.01-2.72Z"/>
        <circle class="cls-2" cx="308.21" cy="112.82" r="3.15" transform="translate(-.67 1.86) rotate(-.34)"/>
        <path class="cls-2" d="M23.6,221.63c-1.54,1.11-3.33.8-4.34-.37s-1.09-3.08.1-4.32c1.1-1.15,3.14-1.17,4.38-.09,1.4,1.22,1.36,3.71-.15,4.79Z"/>
        <circle class="cls-2" cx="255.46" cy="8.5" r="3.15" transform="translate(-.05 1.54) rotate(-.34)"/>
        <path class="cls-2" d="M278.69,34.61c-.05-1.72,1.22-2.84,2.64-3.09s2.99.42,3.45,1.9c.6,1.93-.34,3.9-2.29,4.28-1.75.33-3.74-.91-3.8-3.08Z"/>
        <circle class="cls-2" cx="60.72" cy="205.62" r="3.15" transform="translate(-1.24 .37) rotate(-.34)"/>
        <circle class="cls-2" cx="137.99" cy="22.51" r="3.14" transform="translate(-.13 .83) rotate(-.34)"/>
        <circle class="cls-2" cx="138.45" cy="100.91" r="3.15" transform="translate(-.6 .83) rotate(-.34)"/>
        <path class="cls-2" d="M125.4,189.28c1.23-.16,2.16.05,2.87.7.77.71,1.01,1.68.86,2.86-.21,1.66-1.63,2.65-3.22,2.62-1.47-.03-2.82-1.33-2.97-2.76-.17-1.56.73-3.2,2.47-3.43Z"/>
        <circle class="cls-2" cx="191.37" cy="231.08" r="3.15" transform="translate(-1.39 1.16) rotate(-.34)"/>
        <circle class="cls-2" cx="99.04" cy="61.93" r="3.15" transform="translate(-.37 .6) rotate(-.34)"/>
        <circle class="cls-2" cx="295.18" cy="99.95" r="3.15" transform="translate(-.6 1.78) rotate(-.34)"/>
        <circle class="cls-2" cx="216.34" cy="22.05" r="3.15" transform="translate(-.13 1.3) rotate(-.34)"/>
        <circle class="cls-2" cx="47.21" cy="114.4" r="3.14" transform="translate(-.69 .29) rotate(-.34)"/>
        <circle class="cls-2" cx="87.12" cy="231.71" r="3.15" transform="translate(-1.39 .53) rotate(-.34)"/>
        <path class="cls-2" d="M59.4,104.47c-1.52-.38-2.34-1.65-2.43-2.92-.1-1.4.74-2.85,2.18-3.18,1.34-.31,2.63.09,3.43,1.09s.91,2.44.17,3.58c-.65,1.01-1.91,1.8-3.36,1.44Z"/>
        <path class="cls-2" d="M193.45,73.55c.47,1.87-.72,3.45-2.4,3.85-1.56.37-3.32-.67-3.66-2.19-.42-1.83.46-3.46,2.19-3.93,1.61-.44,3.39.37,3.87,2.27Z"/>
        <path class="cls-2" d="M37.65,231.19c.47,1.9-.63,3.51-2.28,3.88-1.74.4-3.35-.48-3.75-2.2s.37-3.35,2.21-3.88c1.41-.41,3.38.42,3.82,2.2Z"/>
        <path class="cls-2" d="M305.8,36.95c-1.44-1.22-1.54-3.17-.54-4.48s2.91-1.59,4.35-.56,1.67,2.87.57,4.45c-.9,1.3-3.08,1.69-4.38.58Z"/>
        <path class="cls-2" d="M108.97,75.33c-.18-1.6.51-2.73,1.64-3.32s2.56-.54,3.49.39c1.08,1.08,1.38,2.43.77,3.78-.5,1.11-1.77,1.93-3.19,1.75-1.19-.15-2.54-1.14-2.71-2.61Z"/>
        <path class="cls-2" d="M23.68,61.56c.47,1.89-.6,3.5-2.31,3.92-1.6.39-3.26-.59-3.71-2.25s.41-3.36,2.19-3.85c1.5-.41,3.36.32,3.83,2.18Z"/>
        <circle class="cls-2" cx="295.33" cy="125.83" r="3.15" transform="translate(-.75 1.78) rotate(-.34)"/>
        <path class="cls-2" d="M295.27,207.25c-2.18-.3-3-2.29-2.41-4.14s2.69-2.53,4.44-1.67,2.19,3.15,1,4.75c-.64.86-1.82,1.23-3.03,1.07Z"/>
        <path class="cls-2" d="M35.71,150.91c.67.33,1.2.95,1.42,1.66.46,1.52-.05,3.04-1.31,3.76-1.35.78-2.94.6-3.98-.54s-1.07-2.87-.12-4.12c.87-1.13,2.55-1.48,3.99-.76Z"/>
        <path class="cls-2" d="M113.09,150.11c1.48.29,2.19,1.12,2.48,2.41.42,1.87-.87,3.59-2.7,3.8s-3.41-1.26-3.47-3.13,1.7-3.48,3.69-3.09Z"/>
        <circle class="cls-2" cx="164.54" cy="74.49" r="3.15" transform="translate(-.45 .99) rotate(-.34)"/>
        <path class="cls-2" d="M148.85,191.69c.14-1.85,1.72-2.69,3.26-2.67s2.72,1.22,2.92,2.69c.23,1.66-.77,3.14-2.47,3.55-.95.23-2.02-.14-2.71-.76s-1.1-1.64-1.01-2.81Z"/>
        <path class="cls-2" d="M282.93,188.22c1.35,0,2.64,1.04,2.89,2.28.4,1.98-.7,3.64-2.59,3.95-1.68.28-3.34-.91-3.55-2.69-.22-1.87,1.1-3.53,3.25-3.54Z"/>
        <path class="cls-2" d="M179.25,215.24c1.25.31,1.97,1.18,2.15,2.36.3,2-1.06,3.73-2.94,3.78-2,.06-3.38-1.49-3.23-3.44s1.95-3.21,4.03-2.7Z"/>
        <circle class="cls-2" cx="98.72" cy="9.44" r="3.15" transform="translate(-.05 .59) rotate(-.34)"/>
        <path class="cls-2" d="M58.8,20c1.15-.26,2.19.02,2.97.71,1.45,1.3,1.28,3.66-.23,4.79s-3.72.72-4.64-.92c-.96-1.72-.27-4.1,1.9-4.58Z"/>
        <circle class="cls-2" cx="256.24" cy="139.38" r="3.15" transform="translate(-.83 1.54) rotate(-.34)"/>
        <path class="cls-2" d="M232.34,115.19c-1.31,1.6-3.34,1.57-4.59.44-1.34-1.21-1.41-3.31-.16-4.58,1.15-1.17,3.24-1.26,4.6.1.93.93,1.03,2.97.15,4.04Z"/>
        <circle class="cls-2" cx="216.49" cy="47.91" r="3.15" transform="translate(-.28 1.3) rotate(-.34)"/>
        <path class="cls-2" d="M122.66,37.48c-.92-1.11-.89-2.82-.05-3.9s2.52-1.47,3.78-.93c1.36.59,2.04,2.12,1.75,3.62-.25,1.28-1.15,2.09-2.26,2.33-1.2.26-2.31-.02-3.23-1.13Z"/>
        <path class="cls-2" d="M123.43,111.65c.92-.77,2.06-1.04,3.09-.76.9.24,1.93,1.16,2.11,2.19.29,1.61-.37,3.05-1.73,3.7s-2.93.15-3.87-1.03-.84-3.06.39-4.09Z"/>
        <circle class="cls-2" cx="294.71" cy="21.59" r="3.14" transform="translate(-.12 1.77) rotate(-.34)"/>
        <circle class="cls-2" cx="20.82" cy="88.28" r="3.14" transform="translate(-.53 .13) rotate(-.34)"/>
        <path class="cls-2" d="M24.28,165.69c.53,1.76-.44,3.54-1.99,3.93-1.79.45-3.48-.25-3.99-2.07-.45-1.58.27-3.22,1.95-3.86,1.5-.57,3.47.14,4.02,2Z"/>
        <path class="cls-2" d="M245.88,73.05c.46,1.78-.36,3.45-2.02,3.91s-3.42-.28-3.98-2.11c-.48-1.55.34-3.35,2.1-3.87,1.5-.45,3.46.36,3.9,2.08Z"/>
        <circle class="cls-2" cx="256.69" cy="217.75" r="3.14" transform="translate(-1.3 1.55) rotate(-.34)"/>
        <path class="cls-2" d="M140.8,207.81c-.79.53-2.28.54-3.08.2-1.85-.79-2.23-3.15-1.21-4.68s3.36-1.73,4.69-.51c1.4,1.29,1.41,3.78-.41,5Z"/>
        <path class="cls-2" d="M102.46,139.25c.61,1.81-.31,3.48-1.91,4.03s-3.38-.26-3.98-1.85.18-3.44,1.65-3.96c1.7-.61,3.62-.07,4.25,1.79Z"/>
        <path class="cls-2" d="M220.3,178.01c.44,1.79-.52,3.34-2.15,3.82s-3.35-.46-3.86-2.09c-.54-1.71.44-3.53,2.02-3.92,1.8-.45,3.54.35,3.98,2.19Z"/>
        <path class="cls-2" d="M337.76,163.89c.44,1.68-.45,3.47-2.02,3.85-1.8.44-3.48-.26-3.99-2.08-.45-1.65.33-3.37,2.11-3.9,1.57-.47,3.42.32,3.89,2.13Z"/>
        <path class="cls-2" d="M10.58,76.94c-.67,1.38-2.31,1.86-3.57,1.53-1.43-.37-2.28-1.58-2.32-3s.81-2.57,2.35-3.11c1.1-.38,2.39.17,3.1.95.84.92,1.03,2.41.44,3.64Z"/>
        <circle class="cls-2" cx="203.95" cy="113.45" r="3.14" transform="translate(-.68 1.23) rotate(-.34)"/>
        <path class="cls-2" d="M216.23,97.39c1.13-.18,2.12.07,2.78.74.69.71,1.02,1.68.87,2.79-.22,1.66-1.65,2.72-3.17,2.66s-2.87-1.28-3.01-2.75c-.16-1.65.69-3.15,2.53-3.44Z"/>
        <circle class="cls-2" cx="295.66" cy="178.34" r="3.14" transform="translate(-1.07 1.78) rotate(-.34)"/>
        <path class="cls-2" d="M36.69,74.24c.55,1.9-.5,3.54-2.15,4.05-1.55.48-3.31-.43-3.79-2-.53-1.69.25-3.44,1.94-4.03,1.43-.5,3.52.3,4.01,1.98Z"/>
        <circle class="cls-2" cx="177.09" cy="8.96" r="3.14" transform="translate(-.05 1.07) rotate(-.34)"/>
        <path class="cls-2" d="M180.54,86.47c.45,1.69-.41,3.45-2.01,3.86-1.73.44-3.47-.32-3.97-2.09-.45-1.58.34-3.41,2.07-3.89,1.62-.45,3.44.33,3.91,2.11Z"/>
        <path class="cls-2" d="M175.65,142.06c-1.15-1.27-1.26-3-.13-4.33,1.23-1.44,3.96-1.29,4.95.33.89,1.45.6,3.2-.56,4.18s-3.07,1.12-4.26-.18Z"/>
        <circle class="cls-2" cx="177.4" cy="61.47" r="3.14" transform="translate(-.37 1.07) rotate(-.34)"/>
        <path class="cls-2" d="M338.01,216.17c.59,1.83-.25,3.54-1.86,4.07s-3.37-.25-4.02-1.86.18-3.28,1.69-3.94,3.6-.05,4.18,1.73Z"/>
        <path class="cls-2" d="M271.86,73.27c.28,1.92-.88,3.4-2.46,3.64-1.85.28-3.43-.74-3.7-2.55-.24-1.64.69-3.19,2.42-3.6,1.58-.37,3.46.63,3.74,2.51Z"/>
        <circle class="cls-2" cx="138.14" cy="48.39" r="3.14" transform="translate(-.29 .83) rotate(-.34)"/>
        <path class="cls-2" d="M253.37,58.95c1.2-1.52,3.83-1.38,4.94.16,1,1.38.7,3.31-.5,4.28s-3.04,1.04-4.16-.06-1.46-2.88-.28-4.38Z"/>
        <circle class="cls-2" cx="256.38" cy="165.25" r="3.14" transform="translate(-.99 1.54) rotate(-.34)"/>
        <path class="cls-2" d="M58.03,46.25c1.73-1.25,4.38-.17,4.81,1.84.36,1.69-.56,3.2-1.95,3.69-1.49.53-3.15-.05-3.88-1.39s-.45-3.08,1.02-4.13Z"/>
        <circle class="cls-2" cx="178.49" cy="244.1" r="3.14" transform="translate(-1.46 1.08) rotate(-.34)"/>
        <path class="cls-2" d="M102.64,165.23c.53,1.74-.48,3.53-2,3.93-1.76.46-3.52-.27-4.01-2.07-.42-1.54.32-3.24,1.98-3.86,1.48-.55,3.47.15,4.03,2Z"/>
        <path class="cls-2" d="M206.37,33.88c.65,1.66-.17,3.56-1.73,4.1s-3.47-.1-4.13-1.86c-.52-1.4.12-3.32,1.7-3.95,1.49-.59,3.44-.12,4.15,1.7Z"/>
        <path class="cls-2" d="M70.52,192.02c.22-1.39,1.36-2.35,2.64-2.53,1.36-.19,2.68.58,3.29,1.93.54,1.2.22,2.66-.69,3.47-1.06.93-2.35,1.16-3.61.51s-1.87-1.88-1.63-3.38Z"/>
        <circle class="cls-2" cx="8.76" cy="232.2" r="3.14" transform="translate(-1.4 .06) rotate(-.34)"/>
        <circle class="cls-2" cx="86.63" cy="153.32" r="3.14" transform="translate(-.92 .52) rotate(-.34)"/>
        <circle class="cls-2" cx="165.01" cy="152.87" r="3.14" transform="translate(-.92 1) rotate(-.34)"/>
        <path class="cls-2" d="M337.08,59.45c.59,1.84-.36,3.43-1.93,4.04s-3.33-.26-3.96-1.86.21-3.41,1.65-3.96c1.66-.63,3.67-.02,4.25,1.77Z"/>
        <path class="cls-2" d="M181,164.76c.54,1.76-.46,3.49-2.01,3.92-1.72.48-3.5-.3-3.99-2.06-.44-1.58.31-3.24,1.97-3.86,1.5-.56,3.46.15,4.03,2Z"/>
        <path class="cls-2" d="M193.94,151.96c.34,1.82-.68,3.45-2.38,3.8s-3.26-.6-3.67-2.22c-.44-1.71.48-3.36,2.19-3.88,1.56-.47,3.54.55,3.87,2.31Z"/>
        <path class="cls-2" d="M333.31,240.69c1.37-.92,2.9-.84,3.93.03,1.15.98,1.4,2.5.83,3.76-.64,1.44-2.07,2.01-3.74,1.67-1.1-.23-1.95-1.23-2.15-2.14-.28-1.29.03-2.58,1.12-3.32Z"/>
        <path class="cls-2" d="M320.84,76.6c-1.68-.16-2.82-1.77-2.73-3.18.11-1.63,1.23-2.75,2.83-3s3.14.89,3.38,2.55c.16,1.11-.04,1.99-.72,2.71s-1.47,1.04-2.75.92Z"/>
        <circle class="cls-2" cx="255.9" cy="86.87" r="3.13" transform="translate(-.52 1.54) rotate(-.34)"/>
        <path class="cls-2" d="M21.02,248.06c-1.57-.29-2.42-1.59-2.38-3.08.05-1.85,1.6-3.1,3.22-3.07,1.94.03,3.19,1.68,3.03,3.4-.17,1.95-1.8,3.14-3.87,2.75Z"/>
        <path class="cls-2" d="M24.15,140.01c.45,1.81-.51,3.31-2.16,3.81-1.56.47-3.44-.53-3.85-2.05-.47-1.74.46-3.56,2.04-3.96,1.75-.44,3.53.43,3.98,2.2Z"/>
        <circle class="cls-2" cx="86.18" cy="74.94" r="3.14" transform="translate(-.45 .52) rotate(-.34)"/>
        <path class="cls-2" d="M232.4,194.03c-1.75,1.37-3.86.81-4.77-.78-1.01-1.77-.26-4.04,1.8-4.55,1.2-.3,2.67,0,3.36,1,.92,1.33.87,3.36-.39,4.34Z"/>
        <path class="cls-2" d="M141.91,178.42c.52,1.76-.54,3.39-2.09,3.89-1.65.54-3.42-.49-3.88-2.09s.34-3.36,1.86-3.86c1.73-.57,3.54.14,4.11,2.05Z"/>
        <path class="cls-2" d="M137.06,129.5c-1.22-.58-1.64-1.74-1.55-3,.13-1.92,2.03-3.19,3.77-2.8,1.9.43,2.91,2.34,2.31,4.11s-2.66,2.57-4.53,1.69Z"/>
        <circle class="cls-2" cx="100.13" cy="244.57" r="3.14" transform="translate(-1.47 .61) rotate(-.34)"/>
        <circle class="cls-2" cx="334.3" cy="86.4" r="3.14" transform="translate(-.51 2.01) rotate(-.34)"/>
        <path class="cls-2" d="M102.92,217.58c.62,1.84-.26,3.45-1.87,4.09-1.51.6-3.41-.32-3.99-1.87s.12-3.23,1.68-3.94,3.6-.02,4.19,1.73Z"/>
        <path class="cls-2" d="M148.93,37.79c-1.17-1.14-1.34-2.81-.57-4.1.7-1.18,2.15-1.74,3.63-1.3,1.29.39,2.28,1.66,2.14,3.16-.13,1.42-1.22,2.83-2.81,2.9-.85.04-1.79-.09-2.39-.67Z"/>
        <path class="cls-2" d="M256.53,246.71c-1.87-.1-2.82-1.63-2.81-3.24s1.32-2.92,2.98-2.95,3.13,1.03,3.27,2.79c.07.92-.18,1.86-.75,2.47-.6.65-1.59.99-2.69.93Z"/>
        <path class="cls-2" d="M96.4,89.28c-.73-1.5-.24-3.36,1.12-4.11s3.29-.58,4.26.86c1.04,1.54.55,3.46-.92,4.4s-3.63.55-4.46-1.15Z"/>
        <circle class="cls-2" cx="47.69" cy="192.77" r="3.13" transform="translate(-1.16 .29) rotate(-.34)"/>
        <circle class="cls-2" cx="60.56" cy="179.76" r="3.13" transform="translate(-1.08 .37) rotate(-.34)"/>
        <path class="cls-2" d="M228.85,37.97c-1.84-.18-2.7-1.84-2.59-3.46.1-1.43,1.4-2.66,3.02-2.72,1.47-.06,2.99.93,3.16,2.6.1.92-.17,2-.71,2.61-.64.72-1.72,1.08-2.88.97Z"/>
        <path class="cls-2" d="M72.33,111.24c1.75-.37,3.08.32,3.66,1.8.68,1.76-.06,3.42-1.71,4.08s-3.5-.11-4.07-1.74c-.63-1.79.16-3.73,2.12-4.14Z"/>
        <path class="cls-2" d="M201.8,190.19c.93-1.42,2.41-1.76,3.75-1.31,1.43.48,2.17,1.92,1.93,3.5-.3,1.94-2.34,3.04-4.04,2.41-1.85-.68-2.8-2.83-1.64-4.6Z"/>
        <path class="cls-2" d="M246.8,229.82c.52,1.72-.39,3.53-2.13,3.95-1.58.38-3.21-.37-3.83-2.05-.56-1.54.31-3.22,1.98-3.91,1.51-.62,3.44.24,3.98,2Z"/>
        <path class="cls-2" d="M168.45,230.28c.54,1.76-.37,3.42-2.13,3.99-1.5.49-3.21-.41-3.83-2.07-.56-1.5.31-3.23,1.96-3.9,1.53-.62,3.46.23,4,1.98Z"/>
        <path class="cls-2" d="M110.02,230.51c.32-1.23,1.48-1.86,2.62-2.04,1.04-.16,2.17.38,2.91,1.33.91,1.16.71,2.76-.2,3.8-.97,1.12-2.5,1.45-3.78.75s-1.99-2.15-1.55-3.84Z"/>
        <path class="cls-2" d="M48.35,38.72c-1.28.68-2.84.42-3.75-.51s-1.33-2.39-.64-3.69c.63-1.2,2-1.82,3.18-1.61,1.32.23,2.42,1.14,2.63,2.27.25,1.38-.11,2.84-1.42,3.54Z"/>
      </g>
    </g>
  </g>
</svg>