<?xml version="1.0" encoding="UTF-8"?>
<svg id="_레이어_1" data-name="레이어 1" xmlns="http://www.w3.org/2000/svg" xmlns:xlink="http://www.w3.org/1999/xlink" viewBox="0 0 342.6 253.33">
  <defs>
    <style>
      .cls-1 {
        fill: none;
      }

      .cls-2 {
        fill: #a9cbec;
      }

      .cls-3 {
        fill: #fdfefe;
      }

      .cls-4 {
        clip-path: url(#clippath);
      }
    </style>
    <clipPath id="clippath">
      <path class="cls-1" d="M17.8,239.42L15.8,15.42l309-1.5,2,223.5-309,2Z"/>
    </clipPath>
  </defs>
  <g class="cls-4">
    <g>
      <path class="cls-3" d="M346.34,16.95c-1.5.34-2.85,1.56-2.8,3.22s1.24,3.13,2.86,3.29l.2,19.89c-1.59,0-2.79,1.45-2.82,2.99-.03,1.69,1.19,3.18,2.88,3.31l.2,19.66c-1.64.15-2.86,1.41-2.9,2.99-.05,1.78,1.19,3.25,2.96,3.3l.2,19.89c-1.58-.04-2.79,1.43-2.82,2.98-.04,1.7,1.22,3.05,2.88,3.32l.2,19.89c-1.72.09-2.79,1.48-2.79,3.21,0,1.59,1.27,2.85,2.86,3.31l.2,19.44c-1.2.19-2.28.88-2.65,1.92-.48,1.36-.24,2.76.86,3.66.53.43,1.26.64,1.85.71l.2,19.89c-1.62-.01-2.74,1.42-2.82,3s1.25,3.08,2.89,3.29l.2,19.89c-.88.05-1.92.61-2.33,1.32-.55.95-.56,2.06-.24,3.01.42,1.24,1.45,1.9,2.63,1.96l.2,19.66c-1.03.15-2.22.93-2.58,1.75-.57,1.28-.37,2.55.44,3.5.63.74,1.35,1.04,2.21,1.04l.2,19.89c-1.61,0-2.77,1.43-2.79,2.99-.03,1.67,1.17,3.16,2.86,3.29l.11,10.42-9.71.1c.47-1.9-1.05-3.71-2.99-3.74s-3.64,1.83-3.3,3.8l-19.89.2c.18-1.6-.73-3.1-2.31-3.52-1.48-.39-3.2.27-3.77,1.9-.14.41-.12,1.29-.21,1.68l-19.66.2c.14-1.03-.02-2-.71-2.71-.73-.76-1.68-.99-2.89-.81-1.67.25-2.75,2-2.7,3.59l-19.89.2c.45-1.95-1.03-3.67-3.03-3.72-1.97-.05-3.65,1.82-3.27,3.78l-19.89.2c0-.87-.15-2.05-.79-2.65-1.12-1.06-2.6-1.21-3.87-.57-1.16.58-1.71,1.95-1.64,3.29l-19.66.2c.13-1.04,0-2.01-.71-2.71-.75-.75-1.68-1.01-2.87-.83-1.71.25-2.75,1.98-2.71,3.6l-19.66.2c-.03-.53-.17-1.49-.41-1.94-.82-1.57-2.5-2.09-3.94-1.6-1.52.52-2.37,2.04-2.17,3.61l-19.89.2c.16-1.62-.84-3.42-2.59-3.55-1.18-.09-2.18.1-2.87.89-.64.73-.79,1.74-.83,2.73l-19.66.2c.12-1-.05-2.04-.71-2.71-.8-.83-1.85-1.01-3.09-.78-1.62.3-2.55,2.02-2.5,3.55l-19.89.2c.49-1.94-1.06-3.66-3-3.73-2.03-.07-3.6,1.81-3.3,3.8l-19.89.2c.2-1.61-.9-3.34-2.6-3.54-1.2-.15-2.14.11-2.87.88-.69.72-.8,1.69-.83,2.73l-19.66.2c.1-.95-.09-2.04-.73-2.69-.78-.79-1.88-1.06-3.07-.81-1.59.34-2.55,2.06-2.5,3.56l-19.89.2c.15-.99,0-1.96-.7-2.69s-1.67-1.23-2.8-1.02c-1.88.35-3.01,2.02-2.92,3.78l-28.65.29L-11.9,3.94,346.17.31l.17,16.64ZM336.97,33.17c-.16-1.87-1.78-3.14-3.57-2.93-1.76.2-3.08,1.79-2.81,3.67.24,1.68,1.74,2.94,3.7,2.73,1.5-.17,2.84-1.66,2.68-3.46ZM337.77,111.43c-.25-2.07-1.97-3.12-3.78-2.83-1.68.27-2.8,1.83-2.6,3.65.18,1.65,1.79,3.02,3.69,2.73,1.46-.22,2.91-1.74,2.69-3.55ZM338.54,189.71c-.24-1.93-2.03-3.1-3.75-2.78-1.72.32-2.83,1.88-2.6,3.66s1.78,3.03,3.69,2.73c1.54-.24,2.9-1.71,2.66-3.6ZM336.48,6.23c-.57-1.88-2.44-2.59-4.11-2-1.53.54-2.33,2.37-1.89,3.89.51,1.75,2.23,2.56,3.98,2.05,1.55-.45,2.54-2.18,2.01-3.94ZM336.98,58.58c-.59-1.79-2.6-2.39-4.25-1.76-1.43.55-2.24,2.42-1.63,3.96.63,1.59,2.35,2.48,3.97,1.84s2.52-2.21,1.92-4.05ZM334.33,88.67c1.73-.02,3.12-1.44,3.1-3.17-.02-1.73-1.44-3.12-3.17-3.1s-3.12,1.44-3.1,3.17c.02,1.73,1.44,3.12,3.17,3.1ZM336.84,140.47c1.4-.99,1.5-3.48.24-4.69-1.23-1.19-3.4-1.14-4.52.04s-1.15,3.18-.1,4.29,2.79,1.49,4.38.36ZM338.08,162.97c-.48-1.8-2.34-2.59-3.9-2.11-1.78.54-2.56,2.26-2.09,3.91.51,1.82,2.2,2.52,3.99,2.07,1.56-.39,2.44-2.18,2-3.86ZM338.54,215.24c-.58-1.78-2.62-2.4-4.19-1.72s-2.31,2.39-1.68,3.95,2.42,2.38,4.03,1.84,2.44-2.25,1.84-4.07ZM333.95,239.77c-1.09.74-1.4,2.03-1.11,3.32.2.91,1.05,1.91,2.16,2.13,1.66.34,3.09-.24,3.73-1.68.56-1.26.3-2.79-.85-3.76-1.03-.87-2.56-.94-3.93-.01ZM323.64,19.78c-.38-1.99-2.23-2.88-3.92-2.48s-2.69,2.04-2.36,3.77c.33,1.77,2.04,2.87,3.84,2.52,1.61-.31,2.81-1.92,2.45-3.81ZM320.11,49.8c1.53.21,2.56-.2,3.36-1.32,1.12-1.58.49-3.85-1.2-4.67-1.79-.87-3.92,0-4.51,1.84s.29,3.86,2.36,4.15ZM320.81,75.79c1.28.11,2.09-.23,2.75-.93s.87-1.6.71-2.72c-.24-1.66-1.82-2.78-3.39-2.53s-2.72,1.38-2.82,3.01c-.09,1.41,1.07,3.02,2.75,3.17ZM321.33,102c1.79-.02,3.22-1.48,3.2-3.27-.02-1.79-1.48-3.22-3.27-3.2s-3.22,1.48-3.2,3.27,1.48,3.22,3.27,3.2ZM319.36,127.43c1.46,1.25,3.56.97,4.54-.15,1.22-1.39,1.19-3.31,0-4.47s-3.11-1.36-4.51-.19c-1.34,1.12-1.46,3.59-.04,4.8ZM324.83,152.4c.68-1.57.18-3.21-1.09-3.98-1.2-.73-2.64-.7-3.86.35-1.49,1.28-1.33,3.69.24,4.83,1.53,1.11,3.87.76,4.71-1.2ZM324.76,179.03c.79-1.33.75-2.73-.17-3.91-.73-.93-2.02-1.51-3.36-1.08-1.12.36-2.31,1.28-2.33,2.67-.02.97.18,2.06.79,2.67,1.44,1.45,4.22,1.1,5.08-.36ZM319.71,205.23c1.11,1.75,3.66,1.76,5.04.32,1.21-1.27,1.08-3.21-.03-4.39-1.18-1.26-3.03-1.31-4.39-.26-1.21.94-1.62,2.75-.62,4.33ZM319.66,229.63c.07,1.45,1.05,2.34,2.02,2.71,1.14.43,2.39.28,3.39-.63s1.13-2.8.35-4.03c-.48-.75-1.58-1.41-2.48-1.42-1.78-.03-3.37,1.55-3.29,3.38ZM325.99,254.56c-.56-1.89-2.59-2.73-4.04-2.2-1.75.63-2.56,2.32-2.16,3.95.45,1.81,2.32,2.69,4.06,2.27,1.59-.39,2.68-2.22,2.15-4.02ZM305.36,5.22c-1.46,1.26-1.49,3.29-.3,4.61s3.14,1.38,4.5.3,1.5-3.18.4-4.44c-1.29-1.47-3.05-1.81-4.6-.47ZM308.02,62.99c1.78-.02,3.21-1.48,3.2-3.26s-1.48-3.21-3.26-3.2-3.21,1.48-3.2,3.26,1.48,3.21,3.26,3.2ZM305.75,88.02c1.34,1.65,3.5,1.58,4.84.24,1.37-1.36,1.12-3.65-.45-4.86-1.3-.99-3.23-.78-4.31.43-.99,1.11-1.16,2.86-.08,4.18ZM309.45,141.22c1.66-.28,2.65-1.82,2.55-3.23-.11-1.52-.91-2.7-2.52-2.99-2.09-.38-3.88,1.01-3.93,3.05s1.67,3.55,3.9,3.17ZM309.08,167.58c1.78-.02,3.22-1.48,3.2-3.26s-1.48-3.22-3.26-3.2-3.22,1.48-3.2,3.26c.02,1.78,1.48,3.22,3.26,3.2ZM309.6,219.67c1.78-.02,3.2-1.47,3.18-3.25s-1.47-3.2-3.25-3.18c-1.78.02-3.2,1.47-3.18,3.25s1.47,3.2,3.25,3.18ZM312.89,241.69c-.58-1.9-2.6-2.63-4.27-1.99-1.59.61-2.44,2.34-1.87,4.03s2.33,2.55,4.03,2.05c1.64-.49,2.69-2.21,2.11-4.08ZM305.61,36.22c1.31,1.1,3.48.7,4.38-.6,1.09-1.58.81-3.45-.59-4.45s-3.33-.76-4.34.58c-.99,1.31-.89,3.26.56,4.47ZM308.37,115.2c1.74-.02,3.14-1.44,3.12-3.18-.02-1.74-1.44-3.14-3.18-3.12s-3.14,1.44-3.12,3.18c.02,1.74,1.44,3.14,3.18,3.12ZM306.06,189.74c-.25,1.67.52,2.94,1.8,3.54s2.77.21,3.66-.81c.94-1.08.96-2.6.14-3.91-.62-.99-2.03-1.53-3.17-1.27s-2.23,1.1-2.43,2.45ZM291.93,73.94c.57,2.19,2.91,2.86,4.73,1.84,1.69-.95,2.08-3.27.73-4.97-.88-1.12-2.77-1.33-3.95-.64-1.29.76-1.95,2.09-1.51,3.77ZM292.71,152.26c.42,2.04,2.61,2.7,4.31,2.09s2.37-2.42,1.76-4.26c-.42-1.29-1.83-2.01-3.15-1.95-1.21.06-2.47.74-2.89,2.11-.13.42-.16,1.42-.04,2ZM299.76,229.12c-.22-1.71-2.13-2.92-3.75-2.61-1.87.36-2.91,2-2.57,3.85.32,1.76,1.95,2.86,3.86,2.48,1.6-.32,2.71-1.79,2.46-3.72ZM294.49,24.06c1.74-.02,3.13-1.44,3.11-3.18-.02-1.74-1.44-3.13-3.18-3.11s-3.13,1.44-3.11,3.18,1.44,3.13,3.18,3.11ZM297.64,45.59c-.71-1.78-2.75-2.44-4.16-1.74-1.66.82-2.29,2.41-1.71,4.04s2.46,2.36,4.13,1.8c1.55-.53,2.43-2.37,1.74-4.1ZM295.29,102.38c1.74-.02,3.13-1.44,3.11-3.18-.02-1.74-1.44-3.13-3.18-3.11s-3.13,1.44-3.11,3.18,1.44,3.13,3.18,3.11ZM295.55,128.25c1.74-.02,3.13-1.44,3.11-3.18s-1.44-3.13-3.18-3.11-3.13,1.44-3.11,3.18,1.44,3.13,3.18,3.11ZM296.09,180.73c1.73-.02,3.12-1.44,3.11-3.17-.02-1.73-1.44-3.12-3.17-3.11-1.73.02-3.12,1.44-3.11,3.17s1.44,3.12,3.17,3.11ZM295.78,206.49c1.21.16,2.39-.21,3.03-1.08,1.18-1.6.66-3.93-1.02-4.74s-3.87-.09-4.43,1.69.25,3.84,2.43,4.13ZM295.33,258.71c1.37.62,2.77.4,3.73-.48.94-.87,1.12-2.38.64-3.63-.54-1.42-1.98-1.92-3.43-1.74-1.25.15-2.29,1.16-2.49,2.4-.23,1.37.2,2.83,1.56,3.45ZM284.31,7c-.56-1.91-2.55-2.68-4.03-2.19-1.85.61-2.59,2.26-2.22,3.91.42,1.84,2.31,2.69,4.09,2.26,1.57-.38,2.68-2.22,2.16-3.98ZM278.51,33.99c.07,2.16,2.07,3.4,3.81,3.06,1.95-.38,2.88-2.35,2.27-4.28-.46-1.47-2.02-2.15-3.45-1.88s-2.68,1.38-2.63,3.1ZM281.77,63.26c1.79-.02,3.22-1.48,3.2-3.27s-1.48-3.22-3.27-3.2-3.22,1.48-3.2,3.27,1.48,3.22,3.27,3.2ZM281.83,89.49c1.64.19,3.02-1.2,3.33-2.62.34-1.52-.63-3.27-2.16-3.69s-2.86.14-3.69,1.31c-.7.99-.81,2.62.05,3.71.53.67,1.57,1.18,2.47,1.29ZM282.48,115.44c1.74-.02,3.14-1.44,3.12-3.18-.02-1.74-1.44-3.14-3.18-3.12s-3.14,1.44-3.12,3.18c.02,1.74,1.44,3.14,3.18,3.12ZM282.56,141.6c1.79-.02,3.22-1.48,3.2-3.26s-1.48-3.22-3.26-3.2-3.22,1.48-3.2,3.26,1.48,3.22,3.26,3.2ZM285.96,163.96c-.43-1.91-2.15-2.88-4.02-2.44-1.64.38-2.67,2.14-2.26,4.02.34,1.54,2.23,2.66,3.89,2.23s2.78-2.04,2.39-3.8ZM283.38,187.52c-2.15.02-3.46,1.68-3.24,3.55.22,1.78,1.88,2.96,3.56,2.67,1.89-.32,2.99-1.99,2.57-3.96-.26-1.23-1.55-2.28-2.9-2.27ZM282.68,219.82c1.76.29,3.11-.55,3.66-1.93s.11-2.87-1.2-3.86c-1.62-1.22-3.97-.38-4.74,1.38s.16,4.06,2.28,4.4ZM283.62,246.18c1.78-.02,3.22-1.48,3.2-3.26s-1.48-3.22-3.26-3.2-3.22,1.48-3.2,3.26,1.48,3.22,3.26,3.2ZM268.45,24.18c1.78-.02,3.21-1.48,3.19-3.26-.02-1.78-1.48-3.21-3.26-3.19s-3.21,1.48-3.19,3.26,1.48,3.21,3.26,3.19ZM270.94,49.57c1.32-1.15,1.24-3.61-.03-4.72-1.38-1.21-3.49-1.1-4.61.18s-1.2,3.14.09,4.44c1.08,1.09,3.06,1.4,4.55.09ZM269.25,102.53c1.78-.02,3.2-1.47,3.18-3.25-.02-1.78-1.47-3.2-3.25-3.18s-3.2,1.47-3.18,3.25c.02,1.78,1.47,3.2,3.25,3.18ZM269.97,128.73c2.06-.36,3.04-1.98,2.62-3.89s-2.06-2.82-4.04-2.36c-1.43.34-2.62,2.05-2.26,3.76.32,1.54,1.86,2.8,3.68,2.49ZM267.43,179.68c.69,1.02,2.15,1.31,3.38,1.07,2-.38,2.96-2.63,2.12-4.5-.7-1.54-2.97-2.37-4.48-1.43-1.61,1-2.24,3.05-1.01,4.86ZM270.29,207.14c1.78-.02,3.21-1.48,3.19-3.26-.02-1.78-1.48-3.21-3.26-3.19-1.78.02-3.21,1.48-3.19,3.26.02,1.78,1.48,3.21,3.26,3.19ZM270.3,259.18c2.38.21,3.95-1.5,3.69-3.53s-1.94-3.2-4.09-2.73c-1.44.32-2.38,1.79-2.32,3.23.05,1.4,1.11,2.88,2.72,3.03ZM271.83,72.66c-.28-1.88-2.16-2.87-3.74-2.49-1.73.41-2.65,1.96-2.41,3.61.27,1.81,1.86,2.82,3.7,2.53,1.58-.25,2.73-1.73,2.45-3.65ZM272.64,150.99c-.33-1.84-2.13-2.85-3.74-2.47-1.77.41-2.71,1.94-2.4,3.77.25,1.49,1.98,2.8,3.57,2.43,1.72-.39,2.92-1.77,2.57-3.74ZM271.59,227.08c-1.91-.9-4.04.41-4.33,2.26-.3,1.97,1.11,3.77,3.02,3.76,1.98-.02,3.54-1.67,3.17-3.64-.22-1.16-.71-1.84-1.86-2.38ZM258.65,33.97c-.19-1.91-1.77-3.12-3.58-2.94s-3.03,1.79-2.8,3.66c.22,1.71,1.69,2.95,3.69,2.71,1.46-.17,2.86-1.69,2.69-3.43ZM253.34,111.03c-.69,1.46-.31,2.98.63,3.86,1.02.96,2.44,1.18,3.78.57s1.93-2.18,1.66-3.44-1.37-2.42-2.54-2.61c-1.4-.22-2.9.27-3.54,1.62ZM260.22,190.62c-.19-1.88-1.92-3.21-3.76-2.92-1.6.25-2.87,1.93-2.67,3.54.23,1.85,1.7,3.08,3.58,2.91,1.59-.14,3.02-1.7,2.84-3.52ZM255.21,11.14c1.74-.02,3.14-1.44,3.12-3.18-.02-1.74-1.44-3.14-3.18-3.12s-3.14,1.44-3.12,3.18,1.44,3.14,3.18,3.12ZM253.29,58.43c-1.17,1.5-.85,3.26.3,4.38s2.98,1.01,4.16.05,1.49-2.91.49-4.28c-1.11-1.53-3.75-1.66-4.94-.14ZM255.97,89.45c1.73-.02,3.12-1.43,3.1-3.16-.02-1.73-1.43-3.12-3.16-3.1s-3.12,1.43-3.1,3.16c.02,1.73,1.43,3.12,3.16,3.1ZM256.53,141.95c1.74-.02,3.13-1.44,3.11-3.18-.02-1.74-1.44-3.13-3.18-3.11s-3.13,1.44-3.11,3.18,1.44,3.13,3.18,3.11ZM256.78,167.81c1.74-.02,3.13-1.44,3.11-3.17-.02-1.74-1.44-3.13-3.17-3.11s-3.13,1.44-3.11,3.17,1.44,3.13,3.17,3.11ZM257.3,220.29c1.73-.02,3.13-1.44,3.11-3.17-.02-1.73-1.44-3.13-3.17-3.11-1.73.02-3.13,1.44-3.11,3.17.02,1.73,1.44,3.13,3.17,3.11ZM257.23,246.1c1.1.05,2.09-.29,2.69-.94.56-.61.81-1.56.74-2.48-.14-1.76-1.68-2.8-3.28-2.77s-2.96,1.39-2.97,2.96.95,3.14,2.82,3.23ZM238.98,20.76c-.21,1.74.87,3.19,2.24,3.55,1.59.42,3.07-.16,3.83-1.57.67-1.24.4-3.21-.83-4-1.05-.68-2.19-.94-3.32-.52-.9.34-1.77,1.26-1.93,2.54ZM242.47,50.72c1.79-.02,3.23-1.49,3.21-3.28-.02-1.79-1.49-3.23-3.28-3.21s-3.23,1.49-3.21,3.28c.02,1.79,1.49,3.23,3.28,3.21ZM245.87,72.55c-.45-1.71-2.41-2.51-3.91-2.06-1.76.53-2.57,2.34-2.09,3.88.57,1.84,2.28,2.59,3.99,2.1,1.66-.47,2.47-2.14,2.01-3.92ZM242.98,102.81c1.79-.02,3.22-1.48,3.2-3.27s-1.48-3.22-3.27-3.2-3.22,1.48-3.2,3.27,1.48,3.22,3.27,3.2ZM240.05,125.24c-.28,2.17,1.02,3.51,2.89,3.8,1.65.25,3.22-1,3.49-2.76.25-1.64-.88-3.34-2.63-3.6-1.7-.25-3.52.77-3.75,2.55ZM246.62,150.84c-.6-1.87-2.45-2.45-3.99-1.91-1.72.6-2.47,2.3-1.93,3.96s2.38,2.55,3.82,2.05c1.79-.62,2.71-2.21,2.1-4.09ZM243.78,181.14c1.78-.02,3.2-1.47,3.19-3.25s-1.47-3.2-3.25-3.19-3.2,1.47-3.19,3.25,1.47,3.2,3.25,3.19ZM242.98,207.24c1.45.37,2.93-.08,3.61-1.07.77-1.11.9-2.44.22-3.67-.72-1.3-2.32-1.82-3.76-1.37-1.25.39-2.22,1.5-2.23,2.91,0,1.33.59,2.8,2.15,3.19ZM247.43,229.25c-.54-1.76-2.48-2.61-3.98-1.99-1.66.69-2.53,2.37-1.96,3.92.62,1.68,2.25,2.42,3.83,2.03,1.74-.43,2.64-2.25,2.11-3.96ZM244.59,259.49c1.78-.02,3.2-1.47,3.19-3.25-.02-1.78-1.47-3.2-3.25-3.19s-3.2,1.47-3.19,3.25,1.47,3.2,3.25,3.19ZM229.16,11.69c1.79-.02,3.23-1.48,3.21-3.28s-1.48-3.23-3.28-3.21c-1.79.02-3.23,1.48-3.21,3.28s1.48,3.23,3.28,3.21ZM229.68,63.77c1.78-.02,3.21-1.48,3.19-3.26s-1.48-3.21-3.26-3.19-3.21,1.48-3.19,3.26,1.48,3.21,3.26,3.19ZM229.39,83.64c-1.88.27-2.9,1.97-2.66,3.64.23,1.59,1.69,2.85,3.38,2.74,1.49-.09,2.97-1.4,3.02-3.04.03-1.03-.35-1.96-.96-2.58-.66-.67-1.66-.92-2.78-.76ZM230.48,142.1c1.78-.02,3.2-1.47,3.18-3.25s-1.47-3.2-3.25-3.18-3.2,1.47-3.18,3.25c.02,1.78,1.47,3.2,3.25,3.18ZM230.75,168.36c1.78-.02,3.21-1.48,3.2-3.26s-1.48-3.21-3.26-3.2-3.21,1.48-3.2,3.26,1.48,3.21,3.26,3.2ZM230.55,220.33c1.29.22,2.46-.1,3.14-.95,1.28-1.61.89-3.93-.81-4.92s-3.77-.27-4.61,1.49.21,4.03,2.28,4.38ZM228.82,245.21c.84,1.19,2.14,1.76,3.44,1.42,1.11-.28,2.2-1.09,2.4-2.35.27-1.62-.39-3.02-1.74-3.72-1.23-.64-2.88-.29-3.83.73s-1.18,2.63-.28,3.91ZM228.7,37.56c1.16.11,2.23-.26,2.87-.98.54-.61.8-1.69.7-2.61-.18-1.68-1.7-2.66-3.17-2.59-1.62.07-2.92,1.3-3.01,2.73-.1,1.61.76,3.28,2.61,3.45ZM232.51,114.73c.87-1.07.76-3.12-.17-4.04-1.36-1.35-3.45-1.26-4.6-.08-1.24,1.27-1.17,3.37.18,4.57,1.26,1.12,3.28,1.15,4.59-.46ZM232.89,193.53c1.25-.98,1.3-3.01.37-4.34-.69-.99-2.17-1.29-3.36-.98-2.06.52-2.8,2.79-1.78,4.56.92,1.59,3.02,2.14,4.77.76ZM221.45,230.29c-.09-1.95-1.71-3.21-3.55-3.03-1.66.16-2.98,1.7-2.88,3.42s1.55,3.06,3.37,3.03,3.16-1.43,3.06-3.42ZM216.15,24.84c1.74-.02,3.13-1.44,3.12-3.18s-1.44-3.13-3.18-3.12-3.13,1.44-3.12,3.18,1.44,3.13,3.18,3.12ZM216.42,50.69c1.74-.02,3.13-1.44,3.11-3.18s-1.44-3.13-3.18-3.11-3.13,1.44-3.11,3.18,1.44,3.13,3.18,3.11ZM216.68,77.02c1.78-.02,3.2-1.47,3.18-3.25s-1.47-3.2-3.25-3.18-3.2,1.47-3.18,3.25,1.47,3.2,3.25,3.18ZM216.33,97c-1.85.3-2.68,1.81-2.52,3.45.15,1.47,1.45,2.68,3.02,2.73s2.94-1.01,3.16-2.67c.14-1.11-.19-2.07-.88-2.78s-1.65-.91-2.78-.73ZM216.68,128.97c1.13.16,2.22-.23,2.88-.92s.9-1.84.69-2.86c-.35-1.69-1.85-2.58-3.39-2.39-1.6.19-2.79,1.44-2.81,2.97-.03,1.56.8,2.95,2.64,3.2ZM219.81,154.39c1.25-1.32,1.04-3.8-.31-4.79-1.26-.92-2.77-.9-3.89-.14s-1.55,2.23-1.2,3.69c.26,1.1,1.29,1.93,2.21,2.12,1.1.23,2.33.03,3.19-.88ZM220.72,177.57c-.46-1.83-2.19-2.62-3.99-2.17-1.58.4-2.55,2.21-2.01,3.92.52,1.62,2.2,2.57,3.87,2.07s2.57-2.04,2.13-3.83ZM218.01,207.39c1.74-.02,3.14-1.44,3.12-3.18s-1.44-3.14-3.18-3.12-3.14,1.44-3.12,3.18c.02,1.74,1.44,3.14,3.18,3.12ZM220.64,259.09c.87-.7,1.14-2.14.89-3.2-.49-2.05-2.66-2.79-4.42-1.94-1.67.81-2.23,2.89-1.23,4.49.94,1.5,3.1,1.99,4.76.65ZM205.99,7.97c-.37-1.85-2.28-2.87-3.85-2.43-1.82.51-2.77,2.16-2.4,3.9s1.97,2.72,3.71,2.42,2.95-1.88,2.54-3.9ZM206.21,33.56c-.72-1.82-2.67-2.28-4.16-1.68-1.57.63-2.21,2.55-1.68,3.95.66,1.75,2.55,2.4,4.13,1.84s2.36-2.45,1.71-4.11ZM203.45,64.02c1.78-.02,3.21-1.48,3.19-3.26s-1.48-3.21-3.26-3.19-3.21,1.48-3.19,3.26,1.48,3.21,3.26,3.19ZM201.49,84.63c-1.69,1.52-1.25,4.3.53,5.23s3.54.3,4.47-1.23c.85-1.41.39-3.36-1.15-4.38-1.01-.67-2.84-.54-3.85.37ZM204.15,116.24c1.73-.02,3.12-1.44,3.11-3.17-.02-1.73-1.44-3.12-3.17-3.11-1.73.02-3.12,1.44-3.11,3.17s1.44,3.12,3.17,3.11ZM203.8,142.34c1.72.12,2.98-.77,3.48-2.16s-.06-2.99-1.24-3.72c-1.24-.77-2.74-.73-4.01.3-.96.78-1.29,2.24-.85,3.46.37,1.01,1.2,2.03,2.62,2.12ZM207.62,164.73c-.36-1.9-2.18-2.8-3.99-2.42-1.75.37-2.68,2.07-2.27,4.01.33,1.56,2.19,2.67,3.89,2.23s2.72-2.02,2.37-3.82ZM202.28,189.83c-1.15,1.77-.2,3.92,1.66,4.59,1.71.61,3.74-.49,4.03-2.43.24-1.58-.51-3.01-1.94-3.49-1.34-.44-2.82-.1-3.75,1.32ZM207.08,220.03c.96-.7,1.29-2.03,1.07-3.23-.18-.98-.98-2.08-2.14-2.39-1.4-.37-2.97.14-3.63,1.18-.78,1.24-.78,2.76.14,3.99,1.02,1.36,3.12,1.49,4.57.45ZM208.34,242.78c-.59-1.87-2.58-2.66-4.27-2.03-1.51.57-2.43,2.39-1.88,4.06s2.33,2.56,4.02,2.01c1.58-.51,2.7-2.21,2.13-4.03ZM189.07,24.8c1.35.37,2.49.09,3.3-.71s1.1-1.75.88-2.99c-.28-1.58-1.72-2.63-3.22-2.58s-2.89,1.19-3.11,2.65c-.23,1.52.52,3.18,2.16,3.62ZM189.73,51.14c1.52.17,2.78-.31,3.41-1.48.63-1.17.56-2.61-.25-3.6s-1.92-1.43-3.44-1.13c-1.39.28-2.4,1.82-2.32,3.18.09,1.49,1.07,2.86,2.59,3.03ZM190.92,103.35c1.78-.02,3.21-1.48,3.19-3.26s-1.48-3.21-3.26-3.19-3.21,1.48-3.19,3.26,1.48,3.21,3.26,3.19ZM189.51,129.11c1.32.9,3.03.52,3.97-.49s1.15-2.72.48-3.83c-.79-1.31-2.06-1.84-3.71-1.54-1.23.23-2.14,1.52-2.3,2.59-.2,1.33.36,2.45,1.56,3.27ZM191.19,181.61c1.24.1,2.28-.24,2.91-.95.6-.68.9-1.66.77-2.68-.22-1.71-1.85-2.89-3.42-2.75s-2.88,1.45-2.98,3c-.11,1.55.94,3.24,2.73,3.39ZM191.98,207.92c1.78-.02,3.21-1.48,3.2-3.26-.02-1.78-1.48-3.21-3.26-3.2s-3.21,1.48-3.2,3.26,1.48,3.21,3.26,3.2ZM192.52,260.04c1.78-.02,3.21-1.48,3.19-3.26-.02-1.78-1.48-3.21-3.26-3.19s-3.21,1.48-3.19,3.26c.02,1.78,1.48,3.21,3.26,3.19ZM193.46,73.27c-.48-1.9-2.27-2.7-3.88-2.25-1.73.48-2.59,2.11-2.17,3.94.35,1.51,2.11,2.54,3.67,2.17,1.68-.4,2.86-1.99,2.38-3.86ZM194.27,151.65c-.34-1.75-2.32-2.77-3.87-2.29-1.71.53-2.62,2.18-2.17,3.89s2.06,2.54,3.68,2.21,2.72-1.98,2.37-3.8ZM192.05,233.89c1.74-.02,3.13-1.44,3.11-3.18s-1.44-3.13-3.18-3.11-3.13,1.44-3.11,3.18c.02,1.74,1.44,3.13,3.18,3.11ZM181.13,113.1c-.2-1.92-1.93-3.18-3.8-2.9-1.6.24-2.91,1.84-2.65,3.53.28,1.78,1.74,3,3.59,2.87,1.57-.11,3.05-1.73,2.87-3.5ZM181.91,191.41c-.17-1.82-1.98-3.19-3.76-2.89-1.65.28-2.88,1.91-2.7,3.54.21,1.81,1.77,3,3.59,2.86,1.66-.12,3.04-1.65,2.86-3.52ZM176.87,11.91c1.73-.02,3.13-1.44,3.11-3.17s-1.44-3.13-3.17-3.11-3.13,1.44-3.11,3.17c.02,1.73,1.44,3.13,3.17,3.11ZM174.01,35.9c.34,1.66,2.27,2.66,3.86,2.26,1.72-.43,2.7-2.14,2.34-3.95s-2.2-2.73-3.87-2.33c-1.78.43-2.73,2.04-2.32,4.01ZM177.39,64.4c1.73-.02,3.12-1.44,3.11-3.17s-1.44-3.12-3.17-3.11-3.12,1.44-3.11,3.17,1.44,3.12,3.17,3.11ZM180.61,86.23c-.48-1.78-2.3-2.55-3.92-2.1-1.73.48-2.5,2.32-2.05,3.9.51,1.76,2.25,2.52,3.98,2.07,1.59-.42,2.45-2.19,1.99-3.87ZM175.95,141.82c1.19,1.3,3.06,1.18,4.26.16s1.44-2.73.54-4.18c-1-1.61-3.73-1.75-4.95-.3-1.12,1.33-1.01,3.06.15,4.32ZM181.39,164.49c-.58-1.84-2.54-2.55-4.03-1.98-1.66.63-2.4,2.29-1.95,3.87.49,1.75,2.27,2.53,3.99,2.04,1.55-.44,2.54-2.18,1.99-3.93ZM179.85,214.96c-2.08-.5-3.87.78-4.02,2.72-.14,1.95,1.25,3.49,3.25,3.43,1.88-.06,3.24-1.8,2.93-3.79-.18-1.18-.91-2.05-2.16-2.35ZM179.24,246.95c1.73-.02,3.13-1.44,3.11-3.17s-1.44-3.13-3.17-3.11-3.13,1.44-3.11,3.17c.02,1.73,1.44,3.13,3.17,3.11ZM166.99,21.36c-.39-1.92-2.3-2.88-3.95-2.48-1.73.42-2.68,2.11-2.34,3.77.38,1.85,1.97,2.88,3.84,2.53,1.6-.3,2.83-1.88,2.45-3.81ZM162.52,45.43c-1.38,1-1.83,2.18-1.53,3.59.23,1.12,1.08,2.16,2.37,2.37,1.82.3,3.24-.43,3.84-2.1.49-1.35-.07-2.95-1.58-3.87-.69-.42-2.44-.46-3.09.02ZM164.6,77.47c1.74-.02,3.13-1.44,3.11-3.18-.02-1.74-1.44-3.13-3.18-3.11s-3.13,1.44-3.11,3.18,1.44,3.13,3.18,3.11ZM161.45,99.88c-.17,1.71.69,3.01,2.05,3.52s2.79.12,3.68-1.02.95-2.76.02-4.04c-.77-1.05-2.22-1.38-3.41-1.04-1.16.33-2.19,1.09-2.34,2.58ZM162.25,128.5c1.17,1.84,4.04,1.76,5.21.1.62-.88.89-1.87.58-2.88-.21-.68-.87-1.61-1.73-1.99-1.26-.56-2.94-.3-3.89.75s-.99,2.74-.17,4.02ZM165.39,155.81c1.73-.02,3.13-1.44,3.11-3.17-.02-1.73-1.44-3.13-3.17-3.11s-3.13,1.44-3.11,3.17c.02,1.73,1.44,3.13,3.17,3.11ZM162.68,180.5c.75,1.31,2.4,1.68,3.64,1.32,1.33-.39,2.35-1.59,2.34-3.09-.01-1.38-1.05-2.66-2.07-2.98-1.48-.47-2.94-.03-3.71.96-.81,1.05-.94,2.52-.21,3.8ZM167.87,207.38c.88-.72,1.24-2.23.98-3.28-.49-1.95-2.8-2.84-4.37-2.13-1.93.87-2.51,2.96-1.53,4.69.92,1.64,3.21,2.14,4.92.73ZM169.11,230.03c-.54-1.75-2.48-2.59-4-1.97-1.64.68-2.51,2.41-1.94,3.91.63,1.65,2.33,2.54,3.83,2.05,1.75-.57,2.66-2.24,2.11-4ZM166.24,260.29c1.78-.02,3.21-1.48,3.19-3.26s-1.48-3.21-3.26-3.19-3.21,1.48-3.19,3.26,1.48,3.21,3.26,3.19ZM153.88,8.38c-.46-1.82-2.47-2.75-4-2.22-1.82.63-2.64,2.27-2.19,3.99.44,1.69,2.32,2.57,3.84,2.23,1.88-.42,2.82-2.14,2.35-4.01ZM151.36,64.56c1.78-.02,3.21-1.48,3.2-3.26s-1.48-3.21-3.26-3.2-3.21,1.48-3.2,3.26,1.48,3.21,3.26,3.2ZM153.22,84.78c-1.57-.75-3.3-.41-4.22.88-.87,1.21-.91,2.85.18,4.08.9,1.01,2.47,1.41,3.91.72,1.1-.53,1.66-1.71,1.68-2.83s-.42-2.3-1.56-2.85ZM155.2,138.77c-.52-1.93-2.46-2.59-4.08-2.15-1.7.46-2.52,2.34-2.14,3.88.45,1.82,2.36,2.7,4.01,2.28,1.71-.43,2.72-2.14,2.21-4.01ZM152.41,169.16c1.78-.02,3.21-1.48,3.2-3.26s-1.48-3.21-3.26-3.2-3.21,1.48-3.2,3.26c.02,1.78,1.48,3.21,3.26,3.2ZM153.98,221.05c1.47-.39,2.17-1.83,2.13-3.16-.03-1.24-.81-2.48-2.12-2.9-1.39-.44-2.92.04-3.66,1.02-.92,1.23-.85,2.78-.09,3.83.84,1.17,2.19,1.61,3.74,1.2ZM156.23,243.27c-.58-1.89-2.61-2.62-4.27-1.99s-2.37,2.37-1.87,4.04,2.38,2.51,4.04,2.05,2.69-2.2,2.1-4.11ZM148.81,37.71c.6.58,1.54.7,2.39.66,1.59-.07,2.67-1.49,2.8-2.91.13-1.5-.86-2.77-2.15-3.15-1.48-.44-2.93.13-3.62,1.31-.76,1.29-.59,2.95.59,4.09ZM151.71,116.8c1.74-.02,3.14-1.45,3.13-3.19s-1.45-3.14-3.19-3.13-3.14,1.45-3.13,3.19,1.45,3.14,3.19,3.13ZM149.36,191.54c-.09,1.17.33,2.18,1.02,2.8s1.76.98,2.71.75c1.7-.41,2.69-1.9,2.46-3.55-.21-1.47-1.43-2.66-2.93-2.68s-3.12.83-3.25,2.68ZM135.31,73.53c-.52,1.92.26,3.37,1.84,4.05,1.43.62,3.16.07,4.02-1.43.97-1.7.12-3.74-1.54-4.5s-3.81.02-4.32,1.88ZM142.35,152.64c-.17-1.88-1.94-3.15-3.76-2.9-1.73.24-2.82,1.77-2.66,3.54s1.7,3.05,3.54,2.86c1.71-.18,3.05-1.59,2.89-3.5ZM143.11,230.86c-.23-1.86-2.04-3.07-3.74-2.78s-2.86,1.92-2.67,3.54c.22,1.9,1.73,3.01,3.58,2.85,1.66-.15,3.08-1.61,2.83-3.61ZM137.84,25.62c1.74-.02,3.13-1.44,3.11-3.17s-1.44-3.13-3.17-3.11-3.13,1.44-3.11,3.17,1.44,3.13,3.17,3.11ZM138.1,51.48c1.73-.02,3.13-1.44,3.11-3.17-.02-1.73-1.44-3.13-3.17-3.11s-3.13,1.44-3.11,3.17,1.44,3.13,3.17,3.11ZM138.63,103.99c1.74-.02,3.13-1.44,3.12-3.18-.02-1.74-1.44-3.13-3.18-3.12s-3.13,1.44-3.12,3.18,1.44,3.13,3.18,3.12ZM137.32,129.43c1.87.88,3.91.11,4.52-1.71s-.42-3.67-2.33-4.1c-1.74-.39-3.64.89-3.76,2.81-.08,1.26.34,2.42,1.57,2.99ZM142.37,178.31c-.57-1.91-2.39-2.61-4.12-2.04-1.52.51-2.32,2.25-1.84,3.87s2.24,2.61,3.89,2.07c1.54-.51,2.6-2.15,2.07-3.9ZM141.39,207.69c1.81-1.22,1.79-3.71.38-5s-3.7-.98-4.69.53-.63,3.9,1.23,4.68c.8.34,2.29.32,3.08-.21ZM143.19,256.63c-.57-1.92-2.4-2.59-4.14-2.03-1.59.51-2.31,2.19-1.84,3.88.44,1.56,2.24,2.62,3.92,2.07,1.53-.5,2.58-2.18,2.06-3.92ZM122.46,12c1.37,1.07,2.92.89,4.05.05,1.19-.89,1.65-2.33,1.05-3.79-.47-1.14-1.65-2.09-3.18-1.97-.66.06-1.83.51-2.3,1.06-1.15,1.33-.95,3.6.39,4.65ZM122.55,37.5c.92,1.1,2.03,1.38,3.23,1.11,1.11-.24,2-1.05,2.25-2.34.28-1.51-.4-3.03-1.77-3.61-1.26-.54-2.92-.16-3.77.94s-.86,2.79.06,3.9ZM128.21,60.81c-.43-1.86-2.25-2.74-3.93-2.34-1.81.43-2.72,2.25-2.3,3.94.46,1.86,2.17,2.76,4,2.28,1.62-.43,2.64-2.11,2.24-3.88ZM128.47,87.16c-.56-2.04-2.29-2.87-4.15-2.37-1.61.44-2.51,2.12-2.09,3.96.35,1.53,2.16,2.78,3.87,2.26,1.58-.48,2.87-2.03,2.37-3.85ZM123.62,111.64c-1.23,1.04-1.28,2.96-.37,4.09s2.56,1.64,3.87,1.02,2.01-2.09,1.71-3.71c-.19-1.03-1.23-1.94-2.12-2.18-1.04-.28-2.17,0-3.09.78ZM125.35,143.11c1.81.25,3.46-.95,3.72-2.63.24-1.59-.72-3.37-2.34-3.66-2.01-.36-3.69.73-4.01,2.49-.33,1.8.76,3.55,2.64,3.8ZM123.1,165.11c-.5,1.75.2,3.23,1.55,3.96,1.34.73,2.97.35,3.98-.78,1.01-1.14.89-2.98.07-4.1-.96-1.29-2.69-1.49-4.15-.83-.68.31-1.22.94-1.45,1.74ZM125.91,189.24c-1.73.23-2.63,1.88-2.45,3.44.16,1.43,1.51,2.72,2.98,2.75,1.59.02,3.01-.98,3.21-2.64.14-1.18-.1-2.15-.87-2.85-.71-.65-1.63-.86-2.87-.69ZM126.7,221.55c1.78-.02,3.21-1.48,3.19-3.26s-1.48-3.21-3.26-3.19-3.21,1.48-3.19,3.26c.02,1.78,1.48,3.21,3.26,3.19ZM126.97,247.79c1.79-.02,3.22-1.48,3.2-3.27s-1.48-3.22-3.27-3.2-3.22,1.48-3.2,3.27,1.48,3.22,3.27,3.2ZM114.79,21.47c-.64-1.91-2.64-2.52-4.2-1.94-1.69.64-2.38,2.42-1.92,4.02.52,1.8,2.44,2.57,4.14,2.04s2.58-2.32,1.97-4.13ZM115.09,47.86c-.6-1.88-2.45-2.61-4.19-2.08-1.52.47-2.46,2.38-1.98,3.93.55,1.79,2.22,2.59,4,2.17,1.61-.37,2.77-2.16,2.18-4.02ZM112.6,104.14c1.79-.02,3.22-1.48,3.2-3.27s-1.48-3.22-3.27-3.2-3.22,1.48-3.2,3.27,1.48,3.22,3.27,3.2ZM114.71,129.8c1.2-.74,1.56-2.27,1.21-3.63-.29-1.11-1.54-2.08-2.7-2.2-1.39-.14-2.64.47-3.31,1.77-.71,1.38-.25,2.95.87,3.88s2.53,1.06,3.93.19ZM112.65,182.36c1.25.2,2.3-.08,3-.78s1.04-1.67.9-2.82c-.2-1.68-1.71-2.74-3.27-2.74-1.58,0-2.87,1.29-3.12,2.81s.76,3.25,2.49,3.53ZM115.09,208.4c1.41-.6,1.95-2.31,1.63-3.68-.32-1.34-1.41-2.27-2.75-2.41s-2.82.52-3.32,1.87c-.54,1.45-.23,2.7.79,3.67.88.83,2.23,1.14,3.64.54ZM115.82,260.4c1.88-1.14,2-3.67.69-5.01-1.37-1.42-3.78-1.34-4.98.31-1.06,1.48-.79,3.68,1.06,4.75.76.44,2.33.49,3.22-.05ZM109.01,75.39c.17,1.47,1.52,2.45,2.72,2.6,1.42.17,2.69-.65,3.18-1.76.6-1.36.3-2.71-.78-3.78-.94-.93-2.38-.97-3.49-.38s-1.81,1.72-1.63,3.32ZM113.45,150.12c-2-.39-3.75,1.25-3.68,3.1.07,1.87,1.58,3.34,3.49,3.11s3.11-1.94,2.69-3.81c-.3-1.29-1.02-2.12-2.49-2.4ZM110.71,230.51c-.44,1.68.24,3.12,1.57,3.83s2.81.35,3.78-.77c.9-1.04,1.1-2.64.19-3.8-.74-.94-1.88-1.48-2.92-1.31-1.14.18-2.29.82-2.61,2.05ZM98.82,39.03c1.78-.02,3.21-1.48,3.2-3.26-.02-1.78-1.48-3.21-3.26-3.2s-3.21,1.48-3.2,3.26c.02,1.78,1.48,3.21,3.26,3.2ZM96.42,114.67c.27,2.26,2.65,3.31,4.52,2.42,1.73-.82,2.37-2.96,1.38-4.66s-3.32-1.97-4.96-.7c-.78.6-1.08,1.72-.94,2.94ZM98.13,194.93c1.46,1.19,3.32,1.05,4.55-.13,1.11-1.07,1.3-3,.19-4.29-1.03-1.19-2.82-1.73-4.1-.82-.91.64-1.59,1.56-1.63,2.5s.2,2.1.99,2.75ZM98.53,12.72c1.74-.02,3.13-1.44,3.11-3.18-.02-1.74-1.44-3.13-3.18-3.11s-3.13,1.44-3.11,3.18,1.44,3.13,3.18,3.11ZM99.07,65.19c1.74-.02,3.13-1.44,3.12-3.18-.02-1.74-1.44-3.13-3.18-3.12s-3.13,1.44-3.12,3.18,1.44,3.13,3.18,3.12ZM96.51,89.39c.84,1.69,2.99,2.08,4.46,1.13s1.95-2.87.9-4.4c-.98-1.43-2.85-1.62-4.26-.84s-1.84,2.62-1.1,4.11ZM102.78,139.31c-.63-1.85-2.55-2.39-4.25-1.77-1.46.53-2.23,2.41-1.63,3.97s2.36,2.4,3.99,1.83,2.51-2.23,1.9-4.03ZM103.06,165.28c-.57-1.84-2.56-2.54-4.04-1.98-1.66.62-2.39,2.32-1.96,3.86.5,1.8,2.26,2.51,4.02,2.05,1.51-.4,2.52-2.2,1.98-3.93ZM103.55,217.62c-.59-1.75-2.65-2.41-4.19-1.71s-2.26,2.34-1.66,3.95c.58,1.55,2.48,2.46,4,1.85,1.61-.64,2.48-2.25,1.86-4.09ZM100.91,247.74c1.73-.02,3.13-1.44,3.11-3.17s-1.44-3.13-3.17-3.11c-1.73.02-3.13,1.44-3.11,3.17.02,1.73,1.44,3.13,3.17,3.11ZM88.68,22.02c-.43-1.8-2.33-2.74-3.99-2.33-1.76.43-2.75,2.3-2.31,3.96.48,1.81,2.25,2.74,4.06,2.27,1.57-.41,2.65-2.15,2.23-3.91ZM88.97,48.46c-.46-1.94-2.14-2.92-4.04-2.48-1.61.38-2.69,2.14-2.26,3.98.37,1.58,2.1,2.64,3.9,2.25,1.53-.34,2.78-2.12,2.4-3.75ZM86.27,78.24c1.74-.02,3.13-1.44,3.11-3.17-.02-1.74-1.44-3.13-3.17-3.11s-3.13,1.44-3.11,3.17c.02,1.74,1.44,3.13,3.17,3.11ZM86.34,104.4c1.79-.02,3.22-1.48,3.2-3.27s-1.48-3.22-3.27-3.2c-1.79.02-3.22,1.48-3.2,3.27s1.48,3.22,3.27,3.2ZM86.48,130.66c1.47.09,2.74-1.02,3.19-2.35.63-1.85-.71-3.72-2.43-4.02-1.97-.33-3.65.85-3.86,2.79-.19,1.79.96,3.44,3.1,3.57ZM87.04,156.59c1.73-.02,3.13-1.44,3.11-3.17s-1.44-3.13-3.17-3.11-3.13,1.44-3.11,3.17c.02,1.73,1.44,3.13,3.17,3.11ZM83.96,178.79c-.32,2.1.93,3.72,2.73,3.91s3.39-.94,3.63-2.89c.2-1.61-1.07-3.31-2.86-3.45-1.63-.13-3.25.73-3.51,2.43ZM84.7,207.64c.6.99,1.99,1.48,3.08,1.34s2.09-.94,2.57-2.02c.65-1.47-.05-3.18-1.25-3.93-1.33-.83-2.95-.56-4,.45-1.09,1.05-1.33,2.63-.4,4.15ZM87.85,234.95c1.74-.02,3.14-1.44,3.12-3.18s-1.44-3.14-3.18-3.12-3.14,1.44-3.12,3.18,1.44,3.14,3.18,3.12ZM91.07,257.27c-.47-1.94-2.1-2.95-4.03-2.49-1.59.38-2.71,2.1-2.25,4.02.36,1.51,2.16,2.67,3.85,2.22,1.59-.42,2.84-2.02,2.43-3.76ZM74.58,12.49c1.47-1.17,1.44-3.61.08-4.82-1.35-1.2-3.43-1.11-4.59.19-1.09,1.22-1.19,3.13.1,4.43,1.05,1.06,2.91,1.39,4.41.2ZM73.03,65.35c1.78-.02,3.22-1.48,3.2-3.26s-1.48-3.22-3.26-3.2-3.22,1.48-3.2,3.26,1.48,3.22,3.26,3.2ZM75.28,90.94c1.26-.9,1.53-2.93.76-4.18-1.05-1.73-3.15-2.1-4.73-.97-1.34.96-1.75,3.08-.68,4.47s2.96,1.89,4.64.68ZM73.24,137.35c-2.21.26-3.16,2.62-2.45,4.38.77,1.88,3.08,2.49,4.77,1.43s1.94-3.38.52-4.98c-.6-.68-1.71-.96-2.84-.82ZM77.05,165.54c-.66-1.87-2.7-2.4-4.38-1.73-1.56.63-2.24,2.48-1.61,4.08.66,1.69,2.48,2.46,4.11,1.89s2.53-2.37,1.88-4.23ZM74.61,222.04c1.78-.02,3.21-1.48,3.19-3.26s-1.48-3.21-3.26-3.19c-1.78.02-3.21,1.48-3.19,3.26s1.48,3.21,3.26,3.19ZM74.87,248.3c1.78-.02,3.21-1.48,3.2-3.26-.02-1.78-1.48-3.21-3.26-3.2s-3.21,1.48-3.2,3.26,1.48,3.21,3.26,3.2ZM75.53,35.06c-.57-1.82-2.45-2.44-4.01-1.93-1.72.56-2.45,2.34-1.92,4.01s2.2,2.41,3.81,1.97c1.72-.47,2.71-2.18,2.12-4.04ZM72.54,111.44c-1.95.42-2.74,2.36-2.1,4.15.58,1.63,2.43,2.38,4.07,1.72s2.38-2.33,1.7-4.09c-.58-1.48-1.92-2.16-3.67-1.78ZM71.07,192.2c-.23,1.5.45,2.75,1.65,3.37,1.25.65,2.54.42,3.6-.52.91-.81,1.22-2.27.68-3.47-.62-1.35-1.93-2.11-3.3-1.92-1.29.18-2.42,1.15-2.63,2.54ZM60.53,72.17c-1.79-.23-3.21.91-3.65,2.35-.47,1.51.34,3.03,1.66,3.75,1.39.77,3.11.3,4.07-.97s.81-2.98-.27-4.21c-.38-.44-1.08-.83-1.81-.92ZM57.56,154.25c.3,1.35,1.19,2.12,2.09,2.47,1.23.48,2.31.26,3.32-.58,1.2-1.01,1.37-2.84.58-4.12s-2.49-1.87-4.01-1.28c-1.22.47-2.32,1.99-1.98,3.51ZM61.61,235.32c1.79-.02,3.22-1.48,3.2-3.27s-1.48-3.22-3.27-3.2-3.22,1.48-3.2,3.27,1.48,3.22,3.27,3.2ZM58.64,20.29c-2.17.49-2.85,2.87-1.88,4.59s3.12,2.04,4.64.9,1.66-3.49.21-4.79c-.78-.69-1.82-.96-2.97-.7ZM57.98,46.54c-1.46,1.06-1.73,2.81-1,4.13.74,1.34,2.39,1.91,3.88,1.38,1.39-.5,2.31-2.01,1.94-3.7-.44-2-3.1-3.07-4.82-1.82ZM59.59,104.73c1.45.36,2.7-.44,3.35-1.45.73-1.14.59-2.62-.19-3.58s-2.09-1.39-3.43-1.07c-1.44.34-2.28,1.79-2.17,3.19.1,1.28.92,2.54,2.44,2.91ZM63.44,126.31c-.67-1.79-2.68-2.31-4.17-1.72-1.61.64-2.21,2.5-1.7,4,.59,1.75,2.48,2.33,4.09,1.8s2.45-2.3,1.78-4.08ZM61.09,183.11c1.73-.02,3.11-1.43,3.1-3.16s-1.43-3.11-3.16-3.1-3.11,1.43-3.1,3.16c.02,1.73,1.43,3.11,3.16,3.1ZM61.35,208.98c1.74-.02,3.13-1.44,3.12-3.18s-1.44-3.13-3.18-3.12-3.13,1.44-3.12,3.18c.02,1.74,1.44,3.13,3.18,3.12ZM64.85,257.42c-.6-1.87-2.46-2.65-4.13-2.03-1.55.58-2.36,2.26-1.87,3.88.51,1.69,2.19,2.5,3.94,2.04,1.54-.41,2.63-2.12,2.07-3.89ZM46.25,13.53c1.79-.02,3.22-1.48,3.2-3.27-.02-1.79-1.48-3.22-3.27-3.2-1.79.02-3.22,1.48-3.2,3.27.02,1.79,1.48,3.22,3.27,3.2ZM48.27,39.05c1.31-.7,1.66-2.16,1.4-3.54-.21-1.13-1.31-2.03-2.64-2.26-1.17-.2-2.54.42-3.17,1.62-.68,1.3-.25,2.77.66,3.69s2.46,1.18,3.75.49ZM49.85,61.59c-.41-1.87-2.2-2.66-3.87-2.31-1.87.4-2.79,2.23-2.34,3.93.49,1.84,2.22,2.76,4.01,2.29,1.68-.44,2.61-2.07,2.21-3.9ZM47.05,91.86c1.78-.02,3.21-1.48,3.19-3.26s-1.48-3.21-3.26-3.19-3.21,1.48-3.19,3.26c.02,1.78,1.48,3.21,3.26,3.19ZM47.48,117.84c1.73-.02,3.13-1.44,3.11-3.17-.02-1.73-1.44-3.13-3.17-3.11s-3.13,1.44-3.11,3.17,1.44,3.13,3.17,3.11ZM50.66,140.06c-.41-2-2.25-2.83-3.85-2.45-1.83.44-2.72,2.05-2.43,3.74.32,1.88,2.03,2.89,3.85,2.49,1.67-.37,2.82-1.88,2.43-3.79ZM48.56,170.12c1.19-.34,1.93-1.21,2.25-2.08.38-1.05.24-2.21-.47-3.08-1.06-1.29-2.9-1.52-4.28-.66-1.3.81-1.84,2.49-1.17,4.07.52,1.23,2.1,2.2,3.67,1.75ZM48.28,196.17c1.73-.02,3.12-1.43,3.1-3.16-.02-1.73-1.43-3.12-3.16-3.1s-3.12,1.43-3.1,3.16,1.43,3.12,3.16,3.1ZM47.91,222.24c1.14.06,2.14-.2,2.79-.84.56-.56.87-1.62.84-2.57-.09-2.13-2.16-3.35-4.24-2.81-1.48.38-2.3,1.92-2.16,3.43.12,1.24,1.19,2.71,2.77,2.79ZM48.63,248.58c1.79-.02,3.22-1.48,3.2-3.27s-1.48-3.22-3.27-3.2-3.22,1.48-3.2,3.27c.02,1.79,1.48,3.22,3.27,3.2ZM36.45,22.24c-.59-1.85-2.67-2.48-4.17-1.9-1.69.65-2.42,2.42-1.93,3.99.56,1.81,2.48,2.6,4.1,2.05,1.75-.59,2.63-2.22,2.01-4.14ZM35.09,52.53c1.58-.66,2.05-2.47,1.67-3.85-.41-1.48-1.77-2.37-3.33-2.27-1.46.09-2.64,1.14-2.94,2.73-.25,1.32.57,2.98,2.09,3.48.6.2,1.88.17,2.52-.09ZM37.3,100.78c-.5-1.87-2.51-2.69-4.06-2.17-1.77.6-2.55,2.25-2.15,3.86.46,1.86,2.22,2.78,4,2.31s2.72-2.09,2.21-4ZM33.97,124.81c-2.05.34-3.11,2.23-2.6,4s2.13,2.62,3.87,2.25,2.77-2.17,2.34-3.99c-.39-1.65-1.78-2.56-3.6-2.26ZM34.27,176.95c-1.8.34-2.72,2.14-2.44,3.62.32,1.69,1.55,2.64,3.2,2.66,1.52.02,2.99-1.04,3.17-2.74.11-1.05-.21-2.19-.9-2.79-.76-.65-1.85-.97-3.03-.74ZM38.34,205.39c-.47-1.78-2.42-2.69-4.09-2.14s-2.52,2.29-2.02,4.06,2.25,2.51,4,2.07,2.59-2.19,2.11-3.99ZM35.8,261.58c1.89-.01,3.19-1.26,3.23-2.99.04-1.98-1.42-3.42-3.27-3.39-1.71.04-3.12,1.3-3.18,3.12-.06,1.7,1.24,3.27,3.22,3.26ZM36.76,74.6c-.5-1.68-2.59-2.47-4.02-1.96-1.69.6-2.46,2.35-1.92,4.04.49,1.56,2.25,2.46,3.8,1.98,1.65-.51,2.7-2.16,2.14-4.06ZM36.1,151.24c-1.44-.71-3.12-.36-3.99.77-.95,1.25-.88,3.01.13,4.12s2.63,1.31,3.98.52c1.26-.73,1.76-2.24,1.3-3.77-.22-.7-.75-1.32-1.42-1.65ZM38.37,231.49c-.45-1.77-2.41-2.6-3.83-2.18-1.84.54-2.59,2.18-2.19,3.89s2.01,2.59,3.75,2.18c1.65-.38,2.75-2,2.27-3.89ZM21.28,118.19c1.79-.02,3.22-1.48,3.21-3.27-.02-1.79-1.48-3.22-3.27-3.21s-3.22,1.48-3.21,3.27,1.48,3.22,3.27,3.21ZM19.66,195.53c.89,1.06,2.49,1.25,3.73.69,1.02-.46,1.99-1.69,1.9-3.01-.1-1.48-1.22-2.72-2.43-3.04-1.49-.4-2.88.28-3.62,1.5-.7,1.15-.6,2.65.42,3.87ZM23.18,9.49c-.51-1.78-2.28-2.66-4-2.14-1.58.48-2.5,2.4-2.03,3.95.53,1.74,2.26,2.55,4.01,2.05,1.55-.45,2.5-2.2,2.02-3.86ZM20.47,39.83c1.78-.02,3.21-1.48,3.19-3.26s-1.48-3.21-3.26-3.19-3.21,1.48-3.19,3.26c.02,1.78,1.48,3.21,3.26,3.19ZM23.71,61.98c-.47-1.85-2.33-2.58-3.83-2.16-1.79.49-2.65,2.16-2.18,3.85s2.13,2.64,3.72,2.24c1.7-.43,2.77-2.04,2.29-3.93ZM20.99,91.84c1.73-.02,3.12-1.44,3.11-3.17s-1.44-3.12-3.17-3.11-3.12,1.44-3.11,3.17,1.44,3.12,3.17,3.11ZM24.5,140.39c-.45-1.77-2.23-2.63-3.98-2.18-1.58.4-2.5,2.23-2.02,3.97.42,1.52,2.3,2.51,3.86,2.04,1.65-.5,2.6-2.01,2.14-3.82ZM24.73,166.06c-.56-1.86-2.54-2.55-4.03-1.98-1.68.65-2.39,2.28-1.94,3.86.52,1.82,2.21,2.52,4,2.06,1.54-.4,2.5-2.19,1.97-3.94ZM24.29,221.98c1.5-1.09,1.53-3.58.13-4.79-1.25-1.07-3.29-1.04-4.38.11-1.18,1.25-1.13,3.12-.09,4.32s2.81,1.47,4.34.36ZM21.81,248.42c2.08.38,3.69-.82,3.86-2.77.15-1.72-1.1-3.36-3.04-3.39-1.62-.02-3.16,1.24-3.2,3.08-.03,1.49.82,2.78,2.39,3.07ZM10.35,22.96c-.42-2.03-2.25-2.87-3.94-2.47s-2.72,2.03-2.37,3.75,2.02,2.94,3.84,2.51c1.59-.37,2.86-1.95,2.47-3.79ZM7.49,53.09c1.78-.02,3.21-1.48,3.19-3.26-.02-1.78-1.48-3.21-3.26-3.19s-3.21,1.48-3.19,3.26,1.48,3.21,3.26,3.19ZM10.67,77.41c.59-1.23.39-2.72-.45-3.63-.72-.78-2.01-1.32-3.11-.93-1.53.54-2.38,1.63-2.33,3.11.05,1.43.9,2.62,2.33,2.99,1.26.32,2.9-.16,3.56-1.54ZM11.09,101.06c-.48-1.95-2.47-2.65-4.07-2.19-1.71.49-2.59,2.27-2.15,3.91.47,1.81,2.23,2.75,3.99,2.26,1.63-.45,2.69-2.09,2.23-3.98ZM5.69,130.19c1.08,1.53,3.28,1.58,4.53.56,1.36-1.11,1.75-3,.66-4.42s-3.16-1.79-4.48-.83c-1.46,1.06-1.84,3.09-.71,4.69ZM8.46,157.4c2.09.26,3.65-1.75,3.31-3.77-.28-1.65-1.9-2.71-3.41-2.51-1.73.23-2.82,1.47-2.8,3.17.02,1.52,1.03,2.88,2.9,3.11ZM8.39,183.47c1.18.08,2.36-.3,2.96-1.15,1.05-1.49.8-3.67-.63-4.64-1.28-.86-2.59-.75-3.77-.03-1.12.68-1.61,2-1.32,3.43.24,1.16,1.13,2.29,2.76,2.39ZM6.56,208.64c1.37,1.7,3.75,1.4,5.09-.2,1.07-1.29.72-3.29-.47-4.33-1.28-1.12-3.18-.97-4.41.17-1.13,1.04-1.32,2.99-.2,4.36ZM9.52,235.75c1.73-.02,3.12-1.44,3.11-3.17s-1.44-3.12-3.17-3.11-3.12,1.44-3.11,3.17c.02,1.73,1.44,3.12,3.17,3.11ZM6.75,260.18c.89,1.47,2.47,2.03,4.07,1.46,1.25-.45,2.2-1.97,1.94-3.48-.23-1.32-1.3-2.59-2.82-2.68-1.35-.08-2.45.41-3.1,1.4-.59.9-.71,2.26-.08,3.3ZM-2.79,9.95c-.49-1.81-2.33-2.71-4.17-2.16-1.56.46-2.54,2.34-1.97,4.06.54,1.63,2.28,2.56,3.95,2.07,1.72-.51,2.69-2.12,2.19-3.96ZM-5.31,66.16c1.78-.02,3.21-1.48,3.19-3.26-.02-1.78-1.48-3.21-3.26-3.19s-3.21,1.48-3.19,3.26c.02,1.78,1.48,3.21,3.26,3.19ZM-7.45,91.33c1.35,1.53,3.64,1.41,4.81,0s.98-3.57-.54-4.74c-1.3-1-3.22-.79-4.31.41s-1.17,2.95.03,4.32ZM-5.01,144.42c1.91.24,3.37-.78,3.62-2.52.28-1.93-.81-3.53-2.7-3.8-1.71-.24-3.24.76-3.64,2.57-.37,1.69.77,3.51,2.72,3.75ZM-4.25,170.75c1.78-.02,3.22-1.48,3.2-3.26s-1.48-3.22-3.26-3.2-3.22,1.48-3.2,3.26,1.48,3.22,3.26,3.2ZM-2.84,222.69c1.58-.34,2.38-1.94,2.26-3.42-.1-1.3-1.23-2.61-2.64-2.8-2.16-.3-3.88,1.3-3.77,3.28.11,2.06,1.86,3.43,4.16,2.93ZM-.45,244.85c-.54-1.88-2.59-2.63-4.25-1.98-1.52.59-2.44,2.4-1.88,4.03.57,1.66,2.4,2.56,4.04,2.06s2.66-2.15,2.1-4.11ZM-6.07,39.95c1.45.09,2.66-.54,3.12-1.7.74-1.87-.08-3.8-1.84-4.36s-3.71.5-4.04,2.19c-.37,1.89.7,3.74,2.76,3.87ZM-7.41,113.19c-1.13,1.51-.85,3.41.45,4.49,1.18.98,2.94.93,4.21-.26,1.3-1.23,1.14-3.32-.14-4.53-1.19-1.11-3.4-1.19-4.51.29ZM-5.27,196.52c1.33.57,2.83,0,3.54-1.01.78-1.1.84-2.36.15-3.65-.62-1.16-2.22-1.64-3.46-1.35-1.34.32-2.25,1.59-2.28,2.85-.04,1.38.61,2.55,2.04,3.16Z"/>
      <circle class="cls-2" cx="242.43" cy="47.48" r="3.24" transform="translate(-.47 2.46) rotate(-.58)"/>
      <path class="cls-2" d="M98.13,194.93c-.8-.65-1.04-1.77-.99-2.75s.71-1.85,1.63-2.5c1.29-.91,3.07-.37,4.1.82,1.11,1.28.92,3.22-.19,4.29-1.22,1.18-3.08,1.32-4.55.13Z"/>
      <path class="cls-2" d="M253.34,111.03c.64-1.35,2.14-1.84,3.54-1.62,1.17.18,2.26,1.3,2.54,2.61s-.38,2.85-1.66,3.44-2.76.39-3.78-.57c-.94-.88-1.32-2.41-.63-3.86Z"/>
      <path class="cls-2" d="M5.69,130.19c-1.13-1.6-.75-3.63.71-4.69,1.32-.96,3.39-.6,4.48.83s.7,3.31-.66,4.42c-1.25,1.02-3.45.97-4.53-.56Z"/>
      <path class="cls-2" d="M292.71,152.26c-.12-.58-.09-1.58.04-2,.42-1.37,1.68-2.06,2.89-2.11,1.32-.06,2.72.66,3.15,1.95.61,1.84-.13,3.67-1.76,4.26s-3.9-.05-4.31-2.09Z"/>
      <path class="cls-2" d="M57.56,154.25c-.33-1.52.76-3.04,1.98-3.51,1.51-.59,3.21,0,4.01,1.28s.62,3.12-.58,4.12c-1,.84-2.09,1.06-3.32.58-.9-.35-1.8-1.12-2.09-2.47Z"/>
      <path class="cls-2" d="M142.35,152.64c.17,1.92-1.18,3.32-2.89,3.5-1.84.2-3.38-1.05-3.54-2.86s.93-3.3,2.66-3.54c1.82-.26,3.6,1.01,3.76,2.9Z"/>
      <path class="cls-2" d="M207.08,220.03c-1.45,1.05-3.54.91-4.57-.45-.92-1.23-.92-2.75-.14-3.99.66-1.04,2.23-1.55,3.63-1.18,1.17.31,1.96,1.41,2.14,2.39.22,1.21-.11,2.54-1.07,3.23Z"/>
      <path class="cls-2" d="M143.11,230.86c.25,2-1.16,3.47-2.83,3.61-1.85.16-3.36-.94-3.58-2.85-.19-1.62,1.03-3.26,2.67-3.54s3.51.92,3.74,2.78Z"/>
      <path class="cls-2" d="M122.46,12c-1.34-1.05-1.53-3.32-.39-4.65.47-.55,1.64-1,2.3-1.06,1.53-.13,2.71.82,3.18,1.97.6,1.46.14,2.9-1.05,3.79-1.12.84-2.68,1.03-4.05-.05Z"/>
      <path class="cls-2" d="M201.49,84.63c1.01-.91,2.85-1.04,3.85-.37,1.53,1.02,2,2.97,1.15,4.38-.92,1.53-2.69,2.16-4.47,1.23s-2.22-3.72-.53-5.23Z"/>
      <path class="cls-2" d="M156.23,243.27c.59,1.91-.43,3.64-2.1,4.11s-3.53-.34-4.04-2.05.27-3.43,1.87-4.04,3.68.1,4.27,1.99Z"/>
      <path class="cls-2" d="M162.25,128.5c-.81-1.28-.74-3.01.17-4.02s2.63-1.31,3.89-.75c.86.38,1.51,1.31,1.73,1.99.32,1.01.05,2-.58,2.88-1.17,1.65-4.04,1.73-5.21-.1Z"/>
      <path class="cls-2" d="M161.45,99.88c.15-1.49,1.18-2.25,2.34-2.58,1.19-.34,2.64-.02,3.41,1.04.93,1.28.89,2.87-.02,4.04s-2.28,1.54-3.68,1.02-2.21-1.81-2.05-3.52Z"/>
      <path class="cls-2" d="M181.13,113.1c.19,1.78-1.29,3.39-2.87,3.5-1.84.13-3.31-1.09-3.59-2.87-.26-1.69,1.05-3.29,2.65-3.53,1.87-.28,3.59.98,3.8,2.9Z"/>
      <path class="cls-2" d="M114.79,21.47c.6,1.8-.32,3.61-1.97,4.13s-3.62-.24-4.14-2.04c-.46-1.61.22-3.39,1.92-4.02,1.55-.59,3.56.03,4.2,1.94Z"/>
      <path class="cls-2" d="M312.89,241.69c.58,1.87-.47,3.59-2.11,4.08-1.7.51-3.47-.37-4.03-2.05s.29-3.42,1.87-4.03c1.67-.64,3.69.1,4.27,1.99Z"/>
      <path class="cls-2" d="M60.53,72.17c.72.09,1.42.48,1.81.92,1.08,1.23,1.19,2.99.27,4.21s-2.67,1.73-4.07.97c-1.32-.73-2.13-2.25-1.66-3.75.45-1.44,1.87-2.58,3.65-2.35Z"/>
      <circle class="cls-2" cx="46.21" cy="10.29" r="3.24" transform="translate(-.1 .47) rotate(-.58)"/>
      <path class="cls-2" d="M8.39,183.47c-1.63-.11-2.52-1.23-2.76-2.39-.3-1.44.2-2.75,1.32-3.43,1.18-.72,2.48-.83,3.77.03,1.44.97,1.69,3.14.63,4.64-.6.85-1.78,1.23-2.96,1.15Z"/>
      <path class="cls-2" d="M123.1,165.11c.23-.79.77-1.42,1.45-1.74,1.46-.67,3.2-.46,4.15.83.83,1.11.95,2.96-.07,4.1-1.01,1.13-2.64,1.5-3.98.78-1.35-.73-2.06-2.21-1.55-3.96Z"/>
      <circle class="cls-2" cx="321.3" cy="98.76" r="3.24" transform="translate(-.98 3.26) rotate(-.58)"/>
      <circle class="cls-2" cx="229.13" cy="8.45" r="3.24" transform="translate(-.07 2.32) rotate(-.58)"/>
      <circle class="cls-2" cx="48.6" cy="245.34" r="3.24" transform="translate(-2.48 .5) rotate(-.58)"/>
      <circle class="cls-2" cx="21.24" cy="114.95" r="3.24" transform="translate(-1.16 .22) rotate(-.58)"/>
      <path class="cls-2" d="M88.68,22.02c.42,1.76-.66,3.5-2.23,3.91-1.81.47-3.58-.46-4.06-2.27-.44-1.66.54-3.53,2.31-3.96,1.65-.41,3.56.53,3.99,2.33Z"/>
      <path class="cls-2" d="M238.98,20.76c.15-1.28,1.03-2.2,1.93-2.54,1.13-.43,2.27-.17,3.32.52,1.22.8,1.5,2.77.83,4-.77,1.41-2.24,2-3.83,1.57-1.36-.36-2.44-1.81-2.24-3.55Z"/>
      <path class="cls-2" d="M181.91,191.41c.18,1.87-1.21,3.39-2.86,3.52-1.82.14-3.38-1.05-3.59-2.86-.19-1.63,1.04-3.26,2.7-3.54,1.77-.3,3.58,1.06,3.76,2.89Z"/>
      <circle class="cls-2" cx="242.95" cy="99.58" r="3.23" transform="translate(-1 2.47) rotate(-.58)"/>
      <circle class="cls-2" cx="126.94" cy="244.55" r="3.24" transform="translate(-2.47 1.3) rotate(-.58)"/>
      <circle class="cls-2" cx="281.74" cy="60.02" r="3.24" transform="translate(-.59 2.86) rotate(-.58)"/>
      <path class="cls-2" d="M189.51,129.11c-1.2-.82-1.76-1.94-1.56-3.27.16-1.08,1.07-2.37,2.3-2.59,1.64-.3,2.92.23,3.71,1.54.67,1.11.51,2.77-.48,3.83s-2.65,1.39-3.97.49Z"/>
      <path class="cls-2" d="M77.05,165.54c.65,1.87-.18,3.63-1.88,4.23s-3.45-.19-4.11-1.89c-.63-1.59.06-3.45,1.61-4.08,1.68-.68,3.72-.15,4.38,1.73Z"/>
      <path class="cls-2" d="M37.3,100.78c.51,1.91-.51,3.55-2.21,4s-3.53-.44-4-2.31c-.4-1.61.37-3.26,2.15-3.86,1.55-.52,3.56.3,4.06,2.17Z"/>
      <path class="cls-2" d="M19.66,195.53c-1.02-1.22-1.12-2.72-.42-3.87.74-1.22,2.13-1.9,3.62-1.5,1.21.33,2.33,1.56,2.43,3.04.09,1.32-.88,2.55-1.9,3.01-1.24.56-2.85.37-3.73-.69Z"/>
      <path class="cls-2" d="M221.45,230.29c.1,1.99-1.34,3.39-3.06,3.42s-3.27-1.26-3.37-3.03,1.22-3.26,2.88-3.42c1.83-.18,3.45,1.08,3.55,3.03Z"/>
      <path class="cls-2" d="M96.42,114.67c-.15-1.22.16-2.34.94-2.94,1.64-1.27,3.98-.97,4.96.7s.35,3.84-1.38,4.66c-1.87.89-4.25-.16-4.52-2.42Z"/>
      <path class="cls-2" d="M167.87,207.38c-1.72,1.41-4,.91-4.92-.73-.97-1.73-.4-3.82,1.53-4.69,1.57-.71,3.88.18,4.37,2.13.26,1.05-.11,2.57-.98,3.28Z"/>
      <circle class="cls-2" cx="61.58" cy="232.08" r="3.23" transform="translate(-2.35 .64) rotate(-.58)"/>
      <path class="cls-2" d="M269.97,128.73c-1.81.31-3.35-.95-3.68-2.49-.36-1.71.83-3.42,2.26-3.76,1.98-.46,3.63.49,4.04,2.36s-.56,3.53-2.62,3.89Z"/>
      <path class="cls-2" d="M207.62,164.73c.34,1.8-.74,3.4-2.37,3.82s-3.56-.67-3.89-2.23c-.41-1.94.53-3.64,2.27-4.01,1.81-.38,3.62.52,3.99,2.42Z"/>
      <path class="cls-2" d="M260.22,190.62c.18,1.82-1.25,3.38-2.84,3.52-1.88.17-3.35-1.06-3.58-2.91-.2-1.61,1.07-3.28,2.67-3.54,1.83-.29,3.57,1.04,3.76,2.92Z"/>
      <path class="cls-2" d="M319.36,127.43c-1.41-1.22-1.3-3.69.04-4.8,1.4-1.17,3.3-1,4.51.19s1.21,3.08,0,4.47c-.99,1.13-3.09,1.4-4.54.15Z"/>
      <path class="cls-2" d="M11.09,101.06c.47,1.89-.6,3.53-2.23,3.98-1.77.49-3.52-.45-3.99-2.26-.43-1.64.45-3.42,2.15-3.91,1.6-.46,3.58.24,4.07,2.19Z"/>
      <path class="cls-2" d="M324.76,179.03c-.86,1.46-3.64,1.81-5.08.36-.61-.62-.8-1.7-.79-2.67.02-1.4,1.22-2.31,2.33-2.67,1.33-.43,2.63.15,3.36,1.08.92,1.18.96,2.57.17,3.91Z"/>
      <path class="cls-2" d="M189.07,24.8c-1.64-.44-2.39-2.1-2.16-3.62.22-1.46,1.58-2.6,3.11-2.65s2.94.99,3.22,2.58c.22,1.24-.08,2.2-.88,2.99s-1.95,1.08-3.3.71Z"/>
      <path class="cls-2" d="M166.99,21.36c.39,1.93-.85,3.51-2.45,3.81-1.87.36-3.47-.67-3.84-2.53-.34-1.66.61-3.34,2.34-3.77s3.56.57,3.95,2.48Z"/>
      <path class="cls-2" d="M203.8,142.34c-1.42-.1-2.26-1.11-2.62-2.12-.44-1.22-.1-2.68.85-3.46,1.27-1.03,2.77-1.07,4.01-.3s1.72,2.38,1.24,3.72-1.75,2.28-3.48,2.16Z"/>
      <path class="cls-2" d="M219.81,154.39c-.86.91-2.09,1.11-3.19.88-.92-.19-1.95-1.02-2.21-2.12-.35-1.47.04-2.91,1.2-3.69s2.63-.79,3.89.14c1.36.99,1.57,3.47.31,4.79Z"/>
      <path class="cls-2" d="M49.85,61.59c.4,1.83-.53,3.46-2.21,3.9-1.79.47-3.52-.45-4.01-2.29-.45-1.69.47-3.53,2.34-3.93,1.67-.35,3.46.44,3.87,2.31Z"/>
      <path class="cls-2" d="M228.82,245.21c-.9-1.28-.64-2.91.28-3.91s2.59-1.37,3.83-.73c1.35.7,2,2.1,1.74,3.72-.21,1.26-1.3,2.06-2.4,2.35-1.31.33-2.6-.23-3.44-1.42Z"/>
      <path class="cls-2" d="M284.31,7c.52,1.76-.59,3.6-2.16,3.98-1.78.43-3.67-.42-4.09-2.26-.37-1.65.37-3.3,2.22-3.91,1.48-.49,3.48.28,4.03,2.19Z"/>
      <path class="cls-2" d="M47.91,222.24c-1.58-.08-2.65-1.55-2.77-2.79-.14-1.51.68-3.05,2.16-3.43,2.08-.54,4.15.68,4.24,2.81.04.94-.27,2.01-.84,2.57-.66.65-1.65.9-2.79.84Z"/>
      <path class="cls-2" d="M299.76,229.12c.25,1.93-.86,3.39-2.46,3.72-1.91.39-3.53-.72-3.86-2.48-.34-1.85.69-3.48,2.57-3.85,1.61-.31,3.53.9,3.75,2.61Z"/>
      <path class="cls-2" d="M128.21,60.81c.4,1.77-.62,3.45-2.24,3.88-1.82.48-3.53-.42-4-2.28-.42-1.69.49-3.5,2.3-3.94,1.68-.4,3.51.48,3.93,2.34Z"/>
      <path class="cls-2" d="M337.77,111.43c.22,1.82-1.24,3.33-2.69,3.55-1.9.29-3.51-1.08-3.69-2.73-.2-1.82.92-3.38,2.6-3.65,1.81-.29,3.53.75,3.78,2.83Z"/>
      <circle class="cls-2" cx="282.52" cy="138.37" r="3.23" transform="translate(-1.39 2.87) rotate(-.58)"/>
      <path class="cls-2" d="M323.64,19.78c.36,1.89-.84,3.5-2.45,3.81-1.8.35-3.5-.75-3.84-2.52-.33-1.73.62-3.36,2.36-3.77s3.55.49,3.92,2.48Z"/>
      <path class="cls-2" d="M114.71,129.8c-1.41.87-2.87.7-3.93-.19-1.12-.93-1.57-2.49-.87-3.88.66-1.3,1.91-1.91,3.31-1.77,1.16.12,2.42,1.09,2.7,2.2.35,1.37,0,2.89-1.21,3.63Z"/>
      <circle class="cls-2" cx="283.58" cy="242.95" r="3.23" transform="translate(-2.45 2.88) rotate(-.58)"/>
      <circle class="cls-2" cx="73" cy="62.12" r="3.23" transform="translate(-.63 .74) rotate(-.58)"/>
      <path class="cls-2" d="M10.35,22.96c.39,1.85-.88,3.42-2.47,3.79-1.82.42-3.47-.72-3.84-2.51s.63-3.34,2.37-3.75,3.52.45,3.94,2.47Z"/>
      <circle class="cls-2" cx="112.56" cy="100.9" r="3.23" transform="translate(-1.02 1.15) rotate(-.58)"/>
      <path class="cls-2" d="M205.99,7.97c.4,2.01-.75,3.59-2.54,3.9s-3.33-.66-3.71-2.42.58-3.39,2.4-3.9c1.57-.44,3.48.58,3.85,2.43Z"/>
      <path class="cls-2" d="M291.93,73.94c-.43-1.68.22-3.01,1.51-3.77,1.18-.7,3.07-.48,3.95.64,1.35,1.71.96,4.03-.73,4.97-1.82,1.02-4.16.35-4.73-1.84Z"/>
      <path class="cls-2" d="M125.35,143.11c-1.88-.25-2.96-2-2.64-3.8.32-1.75,2-2.85,4.01-2.49,1.61.29,2.58,2.07,2.34,3.66-.25,1.68-1.91,2.88-3.72,2.63Z"/>
      <path class="cls-2" d="M191.19,181.61c-1.78-.15-2.83-1.85-2.73-3.39.11-1.55,1.38-2.85,2.98-3s3.2,1.05,3.42,2.75c.13,1.02-.17,2-.77,2.68-.64.72-1.67,1.06-2.91.95Z"/>
      <path class="cls-2" d="M240.05,125.24c.23-1.78,2.05-2.8,3.75-2.55,1.76.26,2.89,1.95,2.63,3.6-.27,1.76-1.85,3.01-3.49,2.76-1.87-.29-3.17-1.63-2.89-3.8Z"/>
      <circle class="cls-2" cx="74.84" cy="245.07" r="3.23" transform="translate(-2.48 .77) rotate(-.58)"/>
      <path class="cls-2" d="M33.97,124.81c1.82-.3,3.21.61,3.6,2.26.43,1.83-.54,3.62-2.34,3.99s-3.37-.5-3.87-2.25.55-3.67,2.6-4Z"/>
      <circle class="cls-2" cx="86.31" cy="101.17" r="3.23" transform="translate(-1.02 .88) rotate(-.58)"/>
      <path class="cls-2" d="M267.43,179.68c-1.22-1.81-.59-3.86,1.01-4.86,1.51-.94,3.79-.11,4.48,1.43.84,1.87-.12,4.13-2.12,4.5-1.23.23-2.69-.06-3.38-1.07Z"/>
      <path class="cls-2" d="M242.98,207.24c-1.56-.4-2.16-1.86-2.15-3.19,0-1.41.98-2.52,2.23-2.91,1.43-.45,3.04.07,3.76,1.37.68,1.23.55,2.55-.22,3.67-.68.98-2.16,1.43-3.61,1.07Z"/>
      <path class="cls-2" d="M128.47,87.16c.5,1.82-.79,3.37-2.37,3.85-1.71.52-3.52-.73-3.87-2.26-.42-1.84.48-3.52,2.09-3.96,1.86-.51,3.59.33,4.15,2.37Z"/>
      <path class="cls-2" d="M305.36,5.22c1.55-1.34,3.31-1,4.6.47,1.1,1.26.94,3.36-.4,4.44s-3.29,1.04-4.5-.3-1.15-3.35.3-4.61Z"/>
      <path class="cls-2" d="M285.96,163.96c.39,1.76-.75,3.38-2.39,3.8s-3.56-.69-3.89-2.23c-.41-1.88.61-3.64,2.26-4.02,1.87-.43,3.6.54,4.02,2.44Z"/>
      <path class="cls-2" d="M325.99,254.56c.53,1.8-.56,3.63-2.15,4.02-1.74.43-3.61-.45-4.06-2.27-.4-1.63.41-3.32,2.16-3.95,1.46-.53,3.48.31,4.04,2.2Z"/>
      <path class="cls-2" d="M36.45,22.24c.62,1.92-.26,3.55-2.01,4.14-1.62.55-3.54-.24-4.1-2.05-.48-1.57.25-3.34,1.93-3.99,1.51-.58,3.58.05,4.17,1.9Z"/>
      <path class="cls-2" d="M270.94,49.57c-1.5,1.31-3.47,1-4.55-.09-1.29-1.3-1.17-3.2-.09-4.44s3.23-1.39,4.61-.18c1.27,1.11,1.34,3.56.03,4.72Z"/>
      <path class="cls-2" d="M112.65,182.36c-1.74-.27-2.74-2.01-2.49-3.53s1.54-2.8,3.12-2.81c1.57,0,3.07,1.06,3.27,2.74.14,1.15-.19,2.09-.9,2.82s-1.75.98-3,.78Z"/>
      <path class="cls-2" d="M88.97,48.46c.38,1.64-.87,3.42-2.4,3.75-1.79.39-3.52-.67-3.9-2.25-.44-1.84.65-3.61,2.26-3.98,1.91-.45,3.59.53,4.04,2.48Z"/>
      <path class="cls-2" d="M319.71,205.23c-1-1.58-.59-3.39.62-4.33,1.36-1.05,3.21-1.01,4.39.26,1.1,1.17,1.24,3.11.03,4.39-1.38,1.44-3.92,1.43-5.04-.32Z"/>
      <path class="cls-2" d="M75.28,90.94c-1.68,1.21-3.59.7-4.64-.68s-.66-3.52.68-4.47c1.58-1.13,3.67-.75,4.73.97.76,1.25.49,3.28-.76,4.18Z"/>
      <path class="cls-2" d="M162.68,180.5c-.73-1.29-.61-2.76.21-3.8.77-.99,2.23-1.42,3.71-.96,1.02.32,2.05,1.6,2.07,2.98.02,1.5-1.01,2.7-2.34,3.09-1.25.37-2.9,0-3.64-1.32Z"/>
      <circle class="cls-2" cx="151.33" cy="61.34" r="3.23" transform="translate(-.61 1.54) rotate(-.58)"/>
      <path class="cls-2" d="M153.22,84.78c1.14.55,1.58,1.76,1.56,2.85s-.58,2.3-1.68,2.83c-1.44.69-3.01.29-3.91-.72-1.09-1.23-1.05-2.87-.18-4.08.93-1.29,2.65-1.63,4.22-.88Z"/>
      <circle class="cls-2" cx="270.26" cy="203.92" r="3.22" transform="translate(-2.05 2.75) rotate(-.58)"/>
      <path class="cls-2" d="M155.2,138.77c.51,1.87-.5,3.58-2.21,4.01-1.65.41-3.56-.46-4.01-2.28-.38-1.54.43-3.41,2.14-3.88s3.56.22,4.08,2.15Z"/>
      <circle class="cls-2" cx="152.38" cy="165.93" r="3.23" transform="translate(-1.67 1.55) rotate(-.58)"/>
      <path class="cls-2" d="M153.98,221.05c-1.55.41-2.89-.03-3.74-1.2-.76-1.04-.83-2.6.09-3.83.73-.98,2.27-1.47,3.66-1.02,1.3.42,2.08,1.65,2.12,2.9.04,1.33-.66,2.77-2.13,3.16Z"/>
      <path class="cls-2" d="M305.75,88.02c-1.07-1.32-.9-3.07.08-4.18,1.08-1.21,3.01-1.42,4.31-.43,1.57,1.2,1.82,3.5.45,4.86-1.34,1.33-3.5,1.4-4.84-.24Z"/>
      <circle class="cls-2" cx="203.42" cy="60.8" r="3.23" transform="translate(-.61 2.06) rotate(-.58)"/>
      <circle class="cls-2" cx="229.65" cy="60.54" r="3.23" transform="translate(-.6 2.33) rotate(-.58)"/>
      <path class="cls-2" d="M229.39,83.64c1.12-.16,2.12.1,2.78.76.61.62.99,1.55.96,2.58-.05,1.64-1.53,2.95-3.02,3.04-1.7.11-3.15-1.15-3.38-2.74-.24-1.67.79-3.37,2.66-3.64Z"/>
      <circle class="cls-2" cx="126.67" cy="218.32" r="3.23" transform="translate(-2.2 1.29) rotate(-.58)"/>
      <circle class="cls-2" cx="230.72" cy="165.13" r="3.23" transform="translate(-1.66 2.35) rotate(-.58)"/>
      <path class="cls-2" d="M230.55,220.33c-2.07-.35-3.1-2.67-2.28-4.38s2.93-2.47,4.61-1.49,2.09,3.32.81,4.92c-.68.86-1.85,1.17-3.14.95Z"/>
      <path class="cls-2" d="M208.34,242.78c.57,1.82-.55,3.52-2.13,4.03-1.69.55-3.49-.37-4.02-2.01s.37-3.49,1.88-4.06c1.69-.63,3.68.16,4.27,2.03Z"/>
      <path class="cls-2" d="M320.11,49.8c-2.07-.29-2.93-2.37-2.36-4.15s2.72-2.7,4.51-1.84c1.69.82,2.32,3.09,1.2,4.67-.79,1.12-1.83,1.53-3.36,1.32Z"/>
      <circle class="cls-2" cx="74.58" cy="218.82" r="3.22" transform="translate(-2.21 .77) rotate(-.58)"/>
      <circle class="cls-2" cx="190.89" cy="100.12" r="3.23" transform="translate(-1 1.94) rotate(-.58)"/>
      <path class="cls-2" d="M86.48,130.66c-2.14-.13-3.29-1.78-3.1-3.57.21-1.94,1.89-3.13,3.86-2.79,1.72.29,3.05,2.16,2.43,4.02-.45,1.33-1.71,2.44-3.19,2.35Z"/>
      <circle class="cls-2" cx="307.99" cy="59.76" r="3.23" transform="translate(-.59 3.12) rotate(-.58)"/>
      <path class="cls-2" d="M50.66,140.06c.39,1.91-.76,3.42-2.43,3.79-1.82.4-3.53-.62-3.85-2.49-.29-1.69.61-3.3,2.43-3.74,1.6-.39,3.44.45,3.85,2.45Z"/>
      <path class="cls-2" d="M135.31,73.53c.51-1.86,2.68-2.63,4.32-1.88s2.51,2.81,1.54,4.5c-.86,1.5-2.59,2.05-4.02,1.43-1.58-.68-2.36-2.14-1.84-4.05Z"/>
      <path class="cls-2" d="M162.52,45.43c.65-.47,2.41-.43,3.09-.02,1.51.91,2.07,2.51,1.58,3.87-.6,1.67-2.03,2.4-3.84,2.1-1.29-.21-2.14-1.25-2.37-2.37-.29-1.4.15-2.59,1.53-3.59Z"/>
      <circle class="cls-2" cx="309.04" cy="164.35" r="3.23" transform="translate(-1.65 3.14) rotate(-.58)"/>
      <path class="cls-2" d="M338.54,189.71c.24,1.89-1.13,3.36-2.66,3.6-1.91.3-3.47-1.02-3.69-2.73s.88-3.34,2.6-3.66c1.72-.32,3.51.85,3.75,2.78Z"/>
      <path class="cls-2" d="M84.7,207.64c-.93-1.52-.69-3.11.4-4.15,1.05-1.01,2.68-1.28,4-.45,1.2.75,1.9,2.46,1.25,3.93-.48,1.08-1.53,1.89-2.57,2.02s-2.48-.35-3.08-1.34Z"/>
      <circle class="cls-2" cx="191.95" cy="204.69" r="3.23" transform="translate(-2.06 1.95) rotate(-.58)"/>
      <path class="cls-2" d="M34.27,176.95c1.18-.22,2.27.09,3.03.74.69.6,1.02,1.74.9,2.79-.18,1.71-1.66,2.77-3.17,2.74-1.65-.02-2.87-.97-3.2-2.66-.28-1.48.64-3.28,2.44-3.62Z"/>
      <path class="cls-2" d="M6.56,208.64c-1.11-1.38-.92-3.32.2-4.36,1.23-1.14,3.13-1.29,4.41-.17,1.2,1.04,1.55,3.04.47,4.33-1.34,1.6-3.72,1.9-5.09.2Z"/>
      <path class="cls-2" d="M281.83,89.49c-.9-.1-1.94-.62-2.47-1.29-.85-1.08-.75-2.72-.05-3.71.83-1.17,2.14-1.74,3.69-1.31s2.5,2.16,2.16,3.69c-.32,1.42-1.69,2.81-3.33,2.62Z"/>
      <circle class="cls-2" cx="268.42" cy="20.96" r="3.22" transform="translate(-.2 2.72) rotate(-.58)"/>
      <path class="cls-2" d="M74.58,12.49c-1.49,1.19-3.36.86-4.41-.2-1.29-1.3-1.19-3.21-.1-4.43,1.16-1.3,3.24-1.39,4.59-.19,1.36,1.21,1.39,3.65-.08,4.82Z"/>
      <path class="cls-2" d="M174.01,35.9c-.41-1.97.54-3.59,2.32-4.01,1.68-.4,3.5.5,3.87,2.33s-.62,3.52-2.34,3.95c-1.59.4-3.52-.6-3.86-2.26Z"/>
      <circle class="cls-2" cx="20.43" cy="36.6" r="3.23" transform="translate(-.37 .21) rotate(-.58)"/>
      <path class="cls-2" d="M336.97,33.17c.15,1.8-1.18,3.3-2.68,3.46-1.96.22-3.45-1.04-3.7-2.73-.27-1.88,1.05-3.46,2.81-3.67,1.79-.21,3.42,1.06,3.57,2.93Z"/>
      <path class="cls-2" d="M153.88,8.38c.47,1.87-.47,3.59-2.35,4.01-1.52.34-3.4-.54-3.84-2.23-.45-1.72.37-3.36,2.19-3.99,1.53-.53,3.54.4,4,2.22Z"/>
      <path class="cls-2" d="M258.65,33.97c.17,1.74-1.23,3.26-2.69,3.43-2,.24-3.47-1-3.69-2.71-.23-1.87,1.03-3.49,2.8-3.66s3.4,1.03,3.58,2.94Z"/>
      <circle class="cls-2" cx="47.02" cy="88.64" r="3.23" transform="translate(-.9 .48) rotate(-.58)"/>
      <path class="cls-2" d="M35.09,52.53c-.64.26-1.92.29-2.52.09-1.52-.5-2.34-2.17-2.09-3.48.3-1.59,1.48-2.64,2.94-2.73,1.57-.1,2.92.79,3.33,2.27.38,1.37-.08,3.19-1.67,3.85Z"/>
      <path class="cls-2" d="M282.68,219.82c-2.12-.35-3.05-2.63-2.28-4.4s3.12-2.6,4.74-1.38c1.31.98,1.74,2.49,1.2,3.86s-1.89,2.22-3.66,1.93Z"/>
      <path class="cls-2" d="M38.34,205.39c.47,1.8-.43,3.57-2.11,3.99s-3.5-.34-4-2.07.27-3.49,2.02-4.06,3.62.36,4.09,2.14Z"/>
      <path class="cls-2" d="M73.24,137.35c1.13-.13,2.24.15,2.84.82,1.42,1.6,1.17,3.93-.52,4.98s-4,.45-4.77-1.43c-.71-1.75.24-4.11,2.45-4.38Z"/>
      <circle class="cls-2" cx="98.78" cy="35.81" r="3.23" transform="translate(-.36 1) rotate(-.58)"/>
      <path class="cls-2" d="M83.96,178.79c.26-1.7,1.87-2.56,3.51-2.43,1.78.14,3.06,1.84,2.86,3.45-.24,1.96-1.78,3.09-3.63,2.89s-3.05-1.81-2.73-3.91Z"/>
      <circle class="cls-2" cx="7.46" cy="49.86" r="3.22" transform="translate(-.5 .08) rotate(-.58)"/>
      <path class="cls-2" d="M270.3,259.18c-1.61-.14-2.67-1.63-2.72-3.03-.06-1.44.88-2.91,2.32-3.23,2.15-.47,3.84.77,4.09,2.73s-1.31,3.74-3.69,3.53Z"/>
      <path class="cls-2" d="M115.09,208.4c-1.41.6-2.76.29-3.64-.54-1.02-.97-1.33-2.22-.79-3.67.5-1.35,1.91-2.01,3.32-1.87s2.43,1.07,2.75,2.41c.32,1.37-.22,3.07-1.63,3.68Z"/>
      <path class="cls-2" d="M189.73,51.14c-1.52-.17-2.5-1.54-2.59-3.03-.08-1.35.92-2.9,2.32-3.18,1.52-.3,2.59.09,3.44,1.13s.89,2.43.25,3.6c-.63,1.17-1.9,1.65-3.41,1.48Z"/>
      <path class="cls-2" d="M48.56,170.12c-1.57.45-3.15-.53-3.67-1.75-.67-1.58-.14-3.26,1.17-4.07,1.38-.86,3.22-.63,4.28.66.71.87.85,2.03.47,3.08-.31.87-1.06,1.74-2.25,2.08Z"/>
      <path class="cls-2" d="M115.09,47.86c.6,1.86-.57,3.65-2.18,4.02-1.77.41-3.44-.39-4-2.17-.48-1.55.46-3.46,1.98-3.93,1.74-.53,3.59.2,4.19,2.08Z"/>
      <path class="cls-2" d="M309.45,141.22c-2.23.38-3.96-1.22-3.9-3.17s1.84-3.43,3.93-3.05c1.61.29,2.41,1.48,2.52,2.99.1,1.4-.89,2.94-2.55,3.23Z"/>
      <circle class="cls-2" cx="269.22" cy="99.31" r="3.21" transform="translate(-.99 2.73) rotate(-.58)"/>
      <circle class="cls-2" cx="243.75" cy="177.93" r="3.22" transform="translate(-1.79 2.48) rotate(-.58)"/>
      <circle class="cls-2" cx="230.45" cy="138.89" r="3.21" transform="translate(-1.39 2.34) rotate(-.58)"/>
      <circle class="cls-2" cx="216.65" cy="73.8" r="3.22" transform="translate(-.74 2.2) rotate(-.58)"/>
      <circle class="cls-2" cx="244.55" cy="256.28" r="3.22" transform="translate(-2.58 2.49) rotate(-.58)"/>
      <circle class="cls-2" cx="309.57" cy="216.45" r="3.21" transform="translate(-2.18 3.15) rotate(-.58)"/>
      <circle class="cls-2" cx="151.68" cy="113.64" r="3.16" transform="translate(-1.14 1.54) rotate(-.58)"/>
      <path class="cls-2" d="M295.33,258.71c-1.36-.62-1.79-2.07-1.56-3.45.21-1.24,1.24-2.25,2.49-2.4,1.46-.18,2.89.32,3.43,1.74.48,1.25.31,2.76-.64,3.63-.95.87-2.35,1.1-3.73.48Z"/>
      <path class="cls-2" d="M297.64,45.59c.69,1.72-.19,3.57-1.74,4.1-1.66.56-3.52-.08-4.13-1.8s.05-3.22,1.71-4.04c1.41-.69,3.45-.04,4.16,1.74Z"/>
      <path class="cls-2" d="M246.62,150.84c.61,1.89-.31,3.47-2.1,4.09-1.44.5-3.3-.45-3.82-2.05s.21-3.36,1.93-3.96c1.54-.54,3.39.04,3.99,1.91Z"/>
      <path class="cls-2" d="M272.64,150.99c.35,1.97-.85,3.34-2.57,3.74-1.59.36-3.32-.95-3.57-2.43-.3-1.83.63-3.36,2.4-3.77,1.61-.38,3.41.63,3.74,2.47Z"/>
      <path class="cls-2" d="M324.83,152.4c-.84,1.96-3.18,2.31-4.71,1.2-1.57-1.14-1.73-3.55-.24-4.83,1.22-1.05,2.66-1.08,3.86-.35,1.27.78,1.77,2.41,1.09,3.98Z"/>
      <path class="cls-2" d="M306.06,189.74c.2-1.35,1.31-2.2,2.43-2.45s2.55.28,3.17,1.27c.81,1.3.8,2.82-.14,3.91-.89,1.03-2.42,1.39-3.66.81s-2.05-1.87-1.8-3.54Z"/>
      <path class="cls-2" d="M75.53,35.06c.58,1.86-.41,3.56-2.12,4.04-1.61.45-3.29-.31-3.81-1.97s.2-3.45,1.92-4.01c1.56-.5,3.44.12,4.01,1.93Z"/>
      <path class="cls-2" d="M216.68,128.97c-1.83-.25-2.67-1.64-2.64-3.2.03-1.54,1.22-2.79,2.81-2.97,1.53-.18,3.04.7,3.39,2.39.21,1.02-.02,2.15-.69,2.86s-1.74,1.08-2.88.92Z"/>
      <path class="cls-2" d="M336.48,6.23c.53,1.76-.47,3.49-2.01,3.94-1.75.51-3.47-.3-3.98-2.05-.44-1.52.36-3.35,1.89-3.89,1.67-.59,3.54.12,4.11,2Z"/>
      <path class="cls-2" d="M271.59,227.08c1.15.54,1.64,1.22,1.86,2.38.37,1.96-1.19,3.62-3.17,3.64-1.91.02-3.32-1.79-3.02-3.76.28-1.85,2.41-3.16,4.33-2.26Z"/>
      <path class="cls-2" d="M63.44,126.31c.67,1.78-.15,3.54-1.78,4.08s-3.51-.05-4.09-1.8c-.5-1.5.09-3.36,1.7-4,1.49-.59,3.5-.07,4.17,1.72Z"/>
      <path class="cls-2" d="M8.46,157.4c-1.87-.23-2.87-1.58-2.9-3.11-.03-1.7,1.07-2.94,2.8-3.17,1.51-.2,3.13.86,3.41,2.51.34,2.01-1.22,4.02-3.31,3.77Z"/>
      <path class="cls-2" d="M23.18,9.49c.48,1.66-.48,3.41-2.02,3.86-1.74.5-3.48-.31-4.01-2.05-.47-1.55.45-3.47,2.03-3.95,1.72-.52,3.48.36,4,2.14Z"/>
      <path class="cls-2" d="M336.84,140.47c-1.59,1.13-3.3.78-4.38-.36s-1.07-3.06.1-4.29,3.29-1.23,4.52-.04c1.25,1.21,1.16,3.7-.24,4.69Z"/>
      <circle class="cls-2" cx="217.98" cy="204.24" r="3.15" transform="translate(-2.06 2.22) rotate(-.58)"/>
      <circle class="cls-2" cx="282.45" cy="112.29" r="3.15" transform="translate(-1.12 2.87) rotate(-.58)"/>
      <path class="cls-2" d="M319.66,229.63c-.08-1.83,1.5-3.41,3.29-3.38.9.02,2,.68,2.48,1.42.78,1.23.66,3.11-.35,4.03s-2.25,1.06-3.39.63c-.98-.37-1.96-1.26-2.02-2.71Z"/>
      <circle class="cls-2" cx="308.33" cy="112.05" r="3.15" transform="translate(-1.12 3.13) rotate(-.58)"/>
      <path class="cls-2" d="M24.29,221.98c-1.53,1.11-3.32.82-4.34-.36s-1.1-3.07.09-4.32c1.1-1.15,3.13-1.18,4.38-.11,1.41,1.21,1.37,3.7-.13,4.79Z"/>
      <circle class="cls-2" cx="255.18" cy="7.99" r="3.15" transform="translate(-.07 2.58) rotate(-.58)"/>
      <path class="cls-2" d="M278.51,33.99c-.05-1.72,1.21-2.84,2.63-3.1s2.99.41,3.45,1.88c.6,1.93-.32,3.9-2.27,4.28-1.74.34-3.74-.9-3.81-3.06Z"/>
      <circle class="cls-2" cx="61.32" cy="205.83" r="3.15" transform="translate(-2.08 .63) rotate(-.58)"/>
      <circle class="cls-2" cx="137.81" cy="22.48" r="3.14" transform="translate(-.22 1.4) rotate(-.58)"/>
      <circle class="cls-2" cx="138.6" cy="100.84" r="3.15" transform="translate(-1.01 1.41) rotate(-.58)"/>
      <path class="cls-2" d="M125.91,189.24c1.23-.17,2.16.04,2.87.69.77.71,1.02,1.67.87,2.85-.2,1.66-1.62,2.66-3.21,2.64-1.47-.02-2.82-1.31-2.98-2.75-.17-1.56.72-3.2,2.45-3.44Z"/>
      <circle class="cls-2" cx="192.02" cy="230.74" r="3.15" transform="translate(-2.33 1.96) rotate(-.58)"/>
      <circle class="cls-2" cx="99.03" cy="62.04" r="3.15" transform="translate(-.62 1.01) rotate(-.58)"/>
      <circle class="cls-2" cx="295.26" cy="99.24" r="3.14" transform="translate(-.99 3) rotate(-.58)"/>
      <circle class="cls-2" cx="216.12" cy="21.69" r="3.15" transform="translate(-.21 2.19) rotate(-.58)"/>
      <circle class="cls-2" cx="47.45" cy="114.7" r="3.14" transform="translate(-1.16 .49) rotate(-.58)"/>
      <circle class="cls-2" cx="87.82" cy="231.8" r="3.15" transform="translate(-2.34 .9) rotate(-.58)"/>
      <path class="cls-2" d="M59.59,104.73c-1.52-.38-2.34-1.64-2.44-2.91-.11-1.4.73-2.85,2.17-3.19,1.34-.31,2.63.08,3.43,1.07s.92,2.44.19,3.58c-.65,1.01-1.9,1.81-3.35,1.45Z"/>
      <path class="cls-2" d="M193.46,73.27c.48,1.86-.71,3.46-2.38,3.86-1.55.37-3.32-.66-3.67-2.17-.42-1.83.44-3.46,2.17-3.94,1.61-.44,3.39.36,3.88,2.25Z"/>
      <path class="cls-2" d="M38.37,231.49c.48,1.89-.62,3.51-2.27,3.89-1.74.41-3.35-.47-3.75-2.18s.35-3.35,2.19-3.89c1.41-.42,3.38.41,3.83,2.18Z"/>
      <path class="cls-2" d="M305.61,36.22c-1.44-1.21-1.55-3.16-.56-4.47,1.01-1.34,2.9-1.6,4.34-.58s1.68,2.86.59,4.45c-.9,1.3-3.07,1.7-4.38.6Z"/>
      <path class="cls-2" d="M109.01,75.39c-.19-1.6.5-2.73,1.63-3.32s2.56-.55,3.49.38c1.08,1.07,1.39,2.42.78,3.78-.49,1.11-1.76,1.94-3.18,1.76-1.19-.15-2.55-1.13-2.72-2.6Z"/>
      <path class="cls-2" d="M23.71,61.98c.48,1.89-.59,3.5-2.29,3.93-1.6.4-3.26-.57-3.72-2.24s.39-3.36,2.18-3.85c1.5-.41,3.36.31,3.83,2.16Z"/>
      <circle class="cls-2" cx="295.52" cy="125.11" r="3.14" transform="translate(-1.25 3) rotate(-.58)"/>
      <path class="cls-2" d="M295.78,206.49c-2.18-.29-3.01-2.28-2.43-4.13s2.68-2.54,4.43-1.69,2.2,3.14,1.02,4.74c-.64.86-1.82,1.24-3.03,1.08Z"/>
      <path class="cls-2" d="M36.1,151.24c.67.33,1.21.95,1.42,1.65.47,1.52-.04,3.04-1.3,3.77-1.35.78-2.93.62-3.98-.52s-1.08-2.87-.13-4.12c.86-1.14,2.55-1.49,3.99-.77Z"/>
      <path class="cls-2" d="M113.45,150.12c1.48.29,2.2,1.11,2.49,2.4.43,1.86-.86,3.59-2.69,3.81s-3.41-1.24-3.49-3.11c-.07-1.85,1.68-3.49,3.68-3.1Z"/>
      <circle class="cls-2" cx="164.57" cy="74.32" r="3.15" transform="translate(-.74 1.67) rotate(-.58)"/>
      <path class="cls-2" d="M149.36,191.54c.14-1.85,1.71-2.7,3.25-2.68s2.72,1.21,2.93,2.68c.24,1.66-.76,3.15-2.46,3.55-.95.23-2.02-.13-2.71-.75s-1.11-1.63-1.02-2.8Z"/>
      <path class="cls-2" d="M283.38,187.52c1.35-.01,2.64,1.03,2.9,2.27.41,1.97-.69,3.64-2.57,3.96-1.68.29-3.35-.89-3.56-2.67-.23-1.87,1.09-3.53,3.24-3.55Z"/>
      <path class="cls-2" d="M179.85,214.96c1.25.3,1.98,1.17,2.16,2.35.31,2-1.05,3.73-2.93,3.79-2,.06-3.39-1.47-3.25-3.43.14-1.93,1.94-3.22,4.02-2.72Z"/>
      <circle class="cls-2" cx="98.5" cy="9.57" r="3.15" transform="translate(-.09 1) rotate(-.58)"/>
      <path class="cls-2" d="M58.64,20.29c1.15-.26,2.19.01,2.97.7,1.45,1.29,1.3,3.65-.21,4.79s-3.72.74-4.64-.9c-.97-1.72-.29-4.1,1.88-4.59Z"/>
      <circle class="cls-2" cx="256.5" cy="138.81" r="3.14" transform="translate(-1.39 2.6) rotate(-.58)"/>
      <path class="cls-2" d="M232.51,114.73c-1.31,1.61-3.33,1.58-4.59.46-1.35-1.2-1.42-3.3-.18-4.57,1.15-1.18,3.24-1.27,4.6.08.93.92,1.04,2.97.17,4.04Z"/>
      <circle class="cls-2" cx="216.38" cy="47.54" r="3.15" transform="translate(-.47 2.19) rotate(-.58)"/>
      <path class="cls-2" d="M122.55,37.5c-.93-1.1-.9-2.82-.06-3.9s2.52-1.48,3.77-.94c1.37.59,2.05,2.11,1.77,3.61-.24,1.28-1.14,2.09-2.25,2.34-1.2.26-2.31-.01-3.23-1.11Z"/>
      <path class="cls-2" d="M123.62,111.64c.92-.78,2.05-1.05,3.09-.78.9.24,1.93,1.15,2.12,2.18.3,1.61-.35,3.05-1.71,3.71s-2.93.16-3.87-1.02-.86-3.05.37-4.09Z"/>
      <circle class="cls-2" cx="294.46" cy="20.91" r="3.14" transform="translate(-.2 2.98) rotate(-.58)"/>
      <circle class="cls-2" cx="20.96" cy="88.7" r="3.14" transform="translate(-.9 .22) rotate(-.58)"/>
      <path class="cls-2" d="M24.73,166.06c.53,1.75-.43,3.54-1.97,3.94-1.79.46-3.48-.24-4-2.06-.45-1.58.26-3.22,1.94-3.86,1.49-.57,3.47.12,4.03,1.98Z"/>
      <path class="cls-2" d="M245.87,72.55c.46,1.78-.35,3.45-2.01,3.92-1.71.49-3.42-.26-3.99-2.1-.48-1.54.33-3.35,2.09-3.88,1.5-.45,3.46.35,3.91,2.06Z"/>
      <circle class="cls-2" cx="257.27" cy="217.15" r="3.14" transform="translate(-2.19 2.62) rotate(-.58)"/>
      <path class="cls-2" d="M141.39,207.69c-.79.53-2.27.54-3.08.21-1.85-.78-2.24-3.14-1.23-4.68s3.36-1.75,4.69-.53c1.4,1.28,1.42,3.77-.38,5Z"/>
      <path class="cls-2" d="M102.78,139.31c.61,1.8-.3,3.48-1.9,4.03s-3.38-.25-3.99-1.83.17-3.44,1.63-3.97c1.7-.62,3.62-.08,4.25,1.77Z"/>
      <path class="cls-2" d="M220.72,177.57c.44,1.79-.51,3.34-2.13,3.83s-3.35-.45-3.87-2.07c-.55-1.71.42-3.53,2.01-3.92,1.8-.45,3.54.33,3.99,2.17Z"/>
      <path class="cls-2" d="M338.08,162.97c.44,1.68-.44,3.47-2,3.86-1.8.45-3.48-.24-3.99-2.07-.46-1.65.32-3.37,2.09-3.91,1.56-.48,3.42.31,3.9,2.11Z"/>
      <path class="cls-2" d="M10.67,77.41c-.66,1.38-2.3,1.86-3.56,1.54-1.43-.37-2.28-1.57-2.33-2.99-.05-1.48.8-2.58,2.33-3.11,1.09-.38,2.39.16,3.11.93.84.92,1.04,2.4.45,3.63Z"/>
      <circle class="cls-2" cx="204.11" cy="113.1" r="3.14" transform="translate(-1.14 2.07) rotate(-.58)"/>
      <path class="cls-2" d="M216.33,97c1.13-.18,2.12.06,2.78.73.69.71,1.02,1.68.88,2.78-.22,1.66-1.64,2.73-3.16,2.67s-2.88-1.26-3.02-2.73c-.16-1.64.67-3.15,2.52-3.45Z"/>
      <circle class="cls-2" cx="296.06" cy="177.59" r="3.14" transform="translate(-1.78 3.01) rotate(-.58)"/>
      <path class="cls-2" d="M36.76,74.6c.56,1.89-.48,3.54-2.14,4.06-1.55.48-3.31-.42-3.8-1.98-.53-1.69.23-3.44,1.92-4.04,1.42-.51,3.52.29,4.02,1.96Z"/>
      <circle class="cls-2" cx="176.84" cy="8.77" r="3.14" transform="translate(-.08 1.79) rotate(-.58)"/>
      <path class="cls-2" d="M180.61,86.23c.46,1.68-.4,3.45-1.99,3.87-1.72.45-3.47-.3-3.98-2.07-.45-1.58.32-3.41,2.05-3.9,1.62-.45,3.44.32,3.92,2.1Z"/>
      <path class="cls-2" d="M175.95,141.82c-1.16-1.27-1.27-3-.15-4.32,1.22-1.45,3.95-1.31,4.95.3.9,1.45.61,3.2-.54,4.18s-3.07,1.14-4.26-.16Z"/>
      <circle class="cls-2" cx="177.36" cy="61.26" r="3.14" transform="translate(-.61 1.8) rotate(-.58)"/>
      <path class="cls-2" d="M338.54,215.24c.6,1.83-.23,3.54-1.84,4.07s-3.37-.24-4.03-1.84.17-3.28,1.68-3.95,3.6-.06,4.19,1.72Z"/>
      <path class="cls-2" d="M271.83,72.66c.29,1.92-.87,3.4-2.45,3.65-1.84.29-3.43-.72-3.7-2.53-.25-1.64.67-3.2,2.41-3.61,1.58-.37,3.46.62,3.74,2.49Z"/>
      <circle class="cls-2" cx="138.07" cy="48.34" r="3.14" transform="translate(-.48 1.4) rotate(-.58)"/>
      <path class="cls-2" d="M253.29,58.43c1.19-1.52,3.83-1.39,4.94.14,1,1.38.71,3.31-.49,4.28s-3.04,1.05-4.16-.05-1.47-2.88-.3-4.38Z"/>
      <circle class="cls-2" cx="256.74" cy="164.67" r="3.14" transform="translate(-1.65 2.61) rotate(-.58)"/>
      <path class="cls-2" d="M57.98,46.54c1.72-1.25,4.38-.19,4.82,1.82.37,1.69-.55,3.2-1.94,3.7-1.49.54-3.15-.04-3.88-1.38-.73-1.32-.46-3.07,1-4.13Z"/>
      <circle class="cls-2" cx="179.21" cy="243.81" r="3.14" transform="translate(-2.46 1.83) rotate(-.58)"/>
      <path class="cls-2" d="M103.06,165.28c.53,1.74-.47,3.54-1.98,3.93-1.76.46-3.52-.25-4.02-2.05-.43-1.54.3-3.24,1.96-3.86,1.48-.55,3.47.14,4.04,1.98Z"/>
      <path class="cls-2" d="M206.21,33.56c.65,1.66-.15,3.56-1.71,4.11s-3.47-.09-4.13-1.84c-.53-1.4.11-3.32,1.68-3.95,1.49-.6,3.44-.14,4.16,1.68Z"/>
      <path class="cls-2" d="M71.07,192.2c.21-1.39,1.34-2.36,2.63-2.54,1.36-.19,2.68.57,3.3,1.92.55,1.19.24,2.66-.68,3.47-1.06.94-2.35,1.17-3.6.52s-1.87-1.87-1.65-3.37Z"/>
      <circle class="cls-2" cx="9.49" cy="232.61" r="3.14" transform="translate(-2.36 .11) rotate(-.58)"/>
      <circle class="cls-2" cx="87.01" cy="153.45" r="3.14" transform="translate(-1.55 .89) rotate(-.58)"/>
      <circle class="cls-2" cx="165.36" cy="152.67" r="3.14" transform="translate(-1.54 1.68) rotate(-.58)"/>
      <path class="cls-2" d="M336.98,58.58c.6,1.84-.35,3.43-1.92,4.05s-3.33-.25-3.97-1.84c-.61-1.54.2-3.41,1.63-3.96,1.65-.64,3.66-.04,4.25,1.76Z"/>
      <path class="cls-2" d="M181.39,164.49c.55,1.75-.45,3.49-1.99,3.93-1.72.49-3.5-.29-3.99-2.04-.44-1.58.29-3.24,1.95-3.87,1.49-.57,3.46.14,4.03,1.98Z"/>
      <path class="cls-2" d="M194.27,151.65c.35,1.82-.67,3.45-2.37,3.8s-3.26-.59-3.68-2.21c-.44-1.7.47-3.36,2.17-3.89,1.55-.48,3.54.54,3.87,2.29Z"/>
      <path class="cls-2" d="M333.95,239.77c1.36-.93,2.9-.85,3.93.01,1.15.97,1.41,2.49.85,3.76-.64,1.45-2.07,2.02-3.73,1.68-1.1-.22-1.95-1.23-2.16-2.13-.29-1.29.02-2.58,1.11-3.32Z"/>
      <path class="cls-2" d="M320.81,75.79c-1.68-.15-2.83-1.76-2.75-3.17.1-1.63,1.22-2.75,2.82-3.01s3.14.88,3.39,2.53c.16,1.11-.03,1.99-.71,2.72s-1.46,1.04-2.75.93Z"/>
      <circle class="cls-2" cx="255.94" cy="86.32" r="3.13" transform="translate(-.86 2.6) rotate(-.58)"/>
      <path class="cls-2" d="M21.81,248.42c-1.57-.28-2.42-1.58-2.39-3.07.04-1.85,1.58-3.11,3.2-3.08,1.94.03,3.19,1.67,3.04,3.39-.17,1.95-1.78,3.14-3.86,2.77Z"/>
      <path class="cls-2" d="M24.5,140.39c.46,1.81-.49,3.31-2.14,3.82-1.56.48-3.44-.52-3.86-2.04-.48-1.74.44-3.56,2.02-3.97,1.75-.45,3.53.41,3.98,2.18Z"/>
      <circle class="cls-2" cx="86.24" cy="75.1" r="3.14" transform="translate(-.76 .88) rotate(-.58)"/>
      <path class="cls-2" d="M232.89,193.53c-1.75,1.37-3.85.83-4.77-.76-1.02-1.76-.28-4.04,1.78-4.56,1.2-.3,2.67,0,3.36.98.93,1.33.88,3.35-.37,4.34Z"/>
      <path class="cls-2" d="M142.37,178.31c.53,1.75-.53,3.39-2.07,3.9-1.65.54-3.42-.48-3.89-2.07s.32-3.36,1.84-3.87c1.73-.58,3.54.13,4.12,2.04Z"/>
      <path class="cls-2" d="M137.32,129.43c-1.22-.57-1.65-1.73-1.57-2.99.12-1.92,2.02-3.2,3.76-2.81,1.9.42,2.92,2.32,2.33,4.1s-2.65,2.58-4.52,1.71Z"/>
      <circle class="cls-2" cx="100.88" cy="244.6" r="3.14" transform="translate(-2.47 1.03) rotate(-.58)"/>
      <circle class="cls-2" cx="334.3" cy="85.54" r="3.13" transform="translate(-.85 3.39) rotate(-.58)"/>
      <path class="cls-2" d="M103.55,217.62c.62,1.84-.25,3.45-1.86,4.09-1.51.6-3.41-.31-4-1.85-.6-1.6.1-3.23,1.66-3.95s3.6-.04,4.19,1.71Z"/>
      <path class="cls-2" d="M148.81,37.71c-1.18-1.14-1.35-2.8-.59-4.09.7-1.18,2.14-1.75,3.62-1.31,1.29.38,2.28,1.65,2.15,3.15-.13,1.42-1.21,2.84-2.8,2.91-.85.04-1.79-.08-2.39-.66Z"/>
      <path class="cls-2" d="M257.23,246.1c-1.87-.09-2.83-1.62-2.82-3.23s1.31-2.93,2.97-2.96,3.14,1.01,3.28,2.77c.07.92-.17,1.86-.74,2.48-.59.65-1.59.99-2.69.94Z"/>
      <path class="cls-2" d="M96.51,89.39c-.74-1.49-.26-3.36,1.1-4.11s3.28-.6,4.26.84c1.05,1.53.57,3.46-.9,4.4s-3.63.56-4.46-1.13Z"/>
      <circle class="cls-2" cx="48.25" cy="193.03" r="3.13" transform="translate(-1.95 .5) rotate(-.58)"/>
      <circle class="cls-2" cx="61.05" cy="179.98" r="3.13" transform="translate(-1.82 .63) rotate(-.58)"/>
      <path class="cls-2" d="M228.7,37.56c-1.84-.17-2.71-1.83-2.61-3.45.09-1.43,1.38-2.66,3.01-2.73,1.47-.07,2.99.91,3.17,2.59.1.92-.16,2-.7,2.61-.64.72-1.71,1.09-2.87.98Z"/>
      <path class="cls-2" d="M72.54,111.44c1.75-.38,3.08.3,3.67,1.78.69,1.75-.05,3.42-1.7,4.09s-3.5-.09-4.07-1.72c-.63-1.79.15-3.73,2.1-4.15Z"/>
      <path class="cls-2" d="M202.28,189.83c.93-1.42,2.4-1.77,3.75-1.32,1.43.47,2.18,1.91,1.94,3.49-.29,1.94-2.32,3.04-4.03,2.43-1.86-.67-2.81-2.82-1.66-4.59Z"/>
      <path class="cls-2" d="M247.43,229.25c.53,1.71-.37,3.53-2.11,3.96-1.58.39-3.21-.35-3.83-2.03-.57-1.54.3-3.22,1.96-3.92,1.51-.63,3.44.23,3.98,1.99Z"/>
      <path class="cls-2" d="M169.11,230.03c.55,1.76-.36,3.42-2.11,4-1.5.49-3.21-.4-3.83-2.05-.57-1.5.3-3.23,1.94-3.91,1.52-.63,3.46.22,4,1.97Z"/>
      <path class="cls-2" d="M110.71,230.51c.32-1.23,1.48-1.87,2.61-2.05,1.04-.17,2.18.37,2.92,1.31.91,1.16.72,2.76-.19,3.8-.97,1.12-2.49,1.46-3.78.77s-2-2.15-1.57-3.83Z"/>
      <path class="cls-2" d="M48.27,39.05c-1.28.68-2.84.43-3.75-.49s-1.34-2.39-.66-3.69c.63-1.2,1.99-1.83,3.17-1.62,1.32.23,2.42,1.13,2.64,2.26.26,1.38-.1,2.84-1.4,3.54Z"/>
    </g>
  </g>
</svg>