<?xml version="1.0" encoding="UTF-8"?>
<svg id="_레이어_1" data-name="레이어 1" xmlns="http://www.w3.org/2000/svg" xmlns:xlink="http://www.w3.org/1999/xlink" viewBox="0 0 342.6 253.33">
  <defs>
    <style>
      .cls-1 {
        fill: none;
      }

      .cls-2 {
        fill: #a9cbec;
      }

      .cls-3 {
        fill: #1e2a44;
      }

      .cls-4 {
        clip-path: url(#clippath);
      }
    </style>
    <clipPath id="clippath">
      <path class="cls-1" d="M17.8,239.42L15.8,15.42l309-1.5,2,223.5-309,2Z"/>
    </clipPath>
  </defs>
  <g class="cls-4">
    <g>
      <path class="cls-3" d="M346.66,18.2c-1.5.34-2.85,1.55-2.8,3.22s1.23,3.14,2.85,3.3l.16,19.9c-1.59,0-2.8,1.44-2.83,2.98-.03,1.69,1.19,3.18,2.88,3.31l.15,19.67c-1.64.15-2.86,1.41-2.91,2.99-.05,1.78,1.18,3.25,2.96,3.31l.16,19.9c-1.59-.05-2.79,1.42-2.83,2.97-.04,1.7,1.21,3.06,2.88,3.33l.16,19.9c-1.72.08-2.8,1.47-2.8,3.2,0,1.59,1.26,2.85,2.85,3.32l.15,19.45c-1.2.19-2.28.88-2.65,1.92-.48,1.36-.25,2.77.86,3.66.53.43,1.26.65,1.85.72l.16,19.9c-1.62-.02-2.75,1.41-2.83,3s1.24,3.08,2.88,3.3l.16,19.9c-.88.04-1.92.6-2.33,1.32-.55.95-.57,2.06-.24,3.01.42,1.24,1.44,1.9,2.63,1.97l.15,19.67c-1.03.15-2.22.92-2.59,1.75-.57,1.28-.37,2.55.43,3.5.63.74,1.35,1.04,2.21,1.05l.16,19.9c-1.61,0-2.77,1.42-2.8,2.99-.03,1.67,1.16,3.17,2.85,3.3l.08,10.43-9.71.08c.48-1.9-1.04-3.71-2.98-3.74s-3.64,1.82-3.31,3.79l-19.9.16c.19-1.6-.72-3.1-2.31-3.53-1.47-.4-3.2.26-3.77,1.89-.14.41-.12,1.29-.22,1.68l-19.67.15c.15-1.03-.02-2-.7-2.72-.73-.77-1.68-1-2.89-.82-1.67.25-2.76,2-2.71,3.58l-19.9.16c.46-1.95-1.02-3.67-3.02-3.73s-3.65,1.81-3.28,3.78l-19.9.16c0-.87-.15-2.05-.78-2.65-1.11-1.06-2.59-1.22-3.87-.58-1.17.58-1.71,1.95-1.65,3.29l-19.67.15c.14-1.04,0-2.01-.7-2.71-.75-.75-1.68-1.01-2.87-.83-1.71.25-2.76,1.98-2.72,3.59l-19.67.15c-.03-.53-.17-1.49-.41-1.94-.82-1.57-2.5-2.1-3.94-1.61-1.52.52-2.37,2.04-2.18,3.61l-19.9.16c.16-1.62-.83-3.42-2.59-3.56-1.18-.09-2.18.1-2.87.88-.64.72-.8,1.74-.84,2.73l-19.67.15c.12-1-.05-2.04-.7-2.71-.8-.83-1.84-1.01-3.09-.78-1.62.3-2.55,2.01-2.51,3.54l-19.9.16c.5-1.94-1.05-3.67-2.99-3.74-2.04-.08-3.6,1.8-3.31,3.79l-19.9.16c.2-1.61-.89-3.34-2.59-3.55-1.2-.15-2.14.11-2.87.87-.69.72-.8,1.69-.84,2.73l-19.67.15c.1-.95-.08-2.04-.72-2.69-.78-.8-1.87-1.06-3.07-.81-1.59.33-2.55,2.05-2.51,3.56l-19.9.16c.16-.99.01-1.96-.69-2.7s-1.67-1.23-2.8-1.03c-1.88.34-3.01,2.02-2.93,3.78l-28.66.23L-11.7,4.37,346.52,1.55l.13,16.65ZM337.24,34.39c-.15-1.87-1.78-3.15-3.57-2.94s-3.08,1.78-2.82,3.66c.24,1.68,1.73,2.95,3.69,2.74,1.5-.16,2.84-1.65,2.69-3.46ZM337.86,112.69c-.25-2.08-1.96-3.12-3.78-2.84-1.68.27-2.81,1.83-2.61,3.65.18,1.65,1.78,3.02,3.68,2.74,1.46-.22,2.92-1.73,2.7-3.55ZM338.45,191c-.24-1.93-2.03-3.11-3.75-2.79s-2.84,1.87-2.61,3.65,1.78,3.04,3.69,2.74c1.54-.24,2.9-1.7,2.67-3.6ZM336.81,7.45c-.56-1.88-2.44-2.6-4.11-2.01-1.53.54-2.34,2.37-1.89,3.89.51,1.75,2.22,2.56,3.98,2.06,1.55-.45,2.55-2.18,2.02-3.94ZM337.19,59.82c-.58-1.8-2.6-2.4-4.25-1.77-1.44.55-2.25,2.42-1.64,3.96s2.34,2.48,3.96,1.85,2.52-2.2,1.93-4.05ZM334.48,89.92c1.73-.01,3.12-1.43,3.11-3.16s-1.43-3.12-3.16-3.11-3.12,1.43-3.11,3.16,1.43,3.12,3.16,3.11ZM336.86,141.74c1.41-.99,1.5-3.48.25-4.69s-3.39-1.15-4.52.03-1.16,3.18-.11,4.29,2.78,1.5,4.38.38ZM338.05,164.26c-.47-1.8-2.33-2.6-3.9-2.12-1.78.54-2.56,2.25-2.1,3.9.51,1.83,2.19,2.52,3.99,2.08,1.56-.39,2.45-2.17,2.01-3.86ZM338.4,216.54c-.58-1.78-2.61-2.41-4.18-1.73s-2.32,2.39-1.69,3.95c.65,1.6,2.42,2.38,4.02,1.85s2.44-2.24,1.85-4.07ZM333.75,241.07c-1.09.74-1.4,2.03-1.12,3.32.2.91,1.05,1.91,2.15,2.14,1.66.34,3.09-.23,3.73-1.68.56-1.26.31-2.79-.84-3.76-1.03-.87-2.56-.95-3.93-.02ZM323.94,20.97c-.37-1.99-2.23-2.88-3.92-2.49s-2.7,2.03-2.37,3.76,2.03,2.88,3.83,2.53c1.61-.31,2.81-1.91,2.46-3.81ZM320.34,51c1.53.22,2.57-.19,3.36-1.31,1.13-1.58.5-3.85-1.19-4.67-1.79-.87-3.92-.01-4.52,1.83s.28,3.86,2.35,4.16ZM320.98,77c1.28.12,2.09-.23,2.75-.92s.88-1.6.72-2.72c-.24-1.66-1.82-2.79-3.38-2.54s-2.72,1.37-2.82,3c-.09,1.41,1.06,3.02,2.74,3.18ZM321.44,103.22c1.79-.01,3.23-1.47,3.21-3.26s-1.47-3.23-3.26-3.21-3.23,1.47-3.21,3.26,1.47,3.23,3.26,3.21ZM319.41,128.66c1.45,1.25,3.56.98,4.55-.14,1.22-1.38,1.2-3.31.02-4.47s-3.1-1.37-4.51-.2-1.46,3.59-.05,4.81ZM324.82,153.65c.68-1.57.19-3.21-1.08-3.99-1.2-.73-2.64-.7-3.86.34-1.49,1.28-1.33,3.69.23,4.83s3.87.77,4.71-1.18ZM324.69,180.29c.79-1.33.76-2.72-.17-3.91-.73-.94-2.02-1.51-3.36-1.09-1.12.36-2.31,1.27-2.34,2.67-.02.97.17,2.06.78,2.68,1.43,1.46,4.22,1.11,5.08-.35ZM319.59,206.49c1.11,1.75,3.66,1.77,5.04.33,1.22-1.27,1.08-3.21-.02-4.39-1.18-1.26-3.03-1.32-4.39-.27-1.21.94-1.63,2.75-.63,4.33ZM319.48,230.89c.06,1.45,1.04,2.34,2.02,2.71,1.14.43,2.39.28,3.4-.63s1.14-2.8.36-4.03c-.48-.75-1.58-1.41-2.47-1.43-1.78-.04-3.38,1.54-3.3,3.37ZM325.75,255.84c-.56-1.89-2.58-2.73-4.04-2.21-1.76.63-2.57,2.31-2.17,3.95.44,1.82,2.31,2.7,4.06,2.28,1.59-.39,2.69-2.21,2.16-4.02ZM305.68,6.36c-1.46,1.25-1.5,3.29-.31,4.61s3.14,1.39,4.5.31,1.51-3.18.41-4.44c-1.29-1.47-3.05-1.82-4.6-.48ZM308.22,64.16c1.78-.01,3.22-1.47,3.21-3.26s-1.47-3.22-3.26-3.21-3.22,1.47-3.21,3.26,1.47,3.22,3.26,3.21ZM305.89,89.2c1.34,1.65,3.5,1.58,4.84.26s1.13-3.65-.44-4.86c-1.3-1-3.23-.79-4.31.42-.99,1.11-1.16,2.86-.09,4.19ZM309.47,142.43c1.66-.28,2.66-1.82,2.56-3.22-.11-1.52-.9-2.71-2.51-3-2.09-.38-3.88,1-3.94,3.04s1.66,3.56,3.9,3.18ZM309.03,168.8c1.78-.01,3.22-1.47,3.21-3.26s-1.47-3.22-3.26-3.21-3.22,1.47-3.21,3.26,1.47,3.22,3.26,3.21ZM309.44,220.91c1.78-.01,3.2-1.46,3.19-3.24s-1.46-3.2-3.24-3.19-3.2,1.46-3.19,3.24,1.46,3.2,3.24,3.19ZM312.68,242.95c-.58-1.9-2.6-2.64-4.27-2s-2.45,2.34-1.88,4.03,2.33,2.56,4.03,2.06,2.69-2.2,2.12-4.08ZM305.86,37.38c1.3,1.1,3.48.71,4.38-.59,1.09-1.58.82-3.45-.58-4.45s-3.33-.77-4.35.57-.9,3.26.55,4.48ZM308.44,116.39c1.74-.01,3.14-1.44,3.13-3.18s-1.44-3.14-3.18-3.13-3.14,1.44-3.13,3.18,1.44,3.14,3.18,3.13ZM305.96,190.96c-.25,1.67.51,2.95,1.79,3.54s2.77.22,3.66-.8c.94-1.08.96-2.6.15-3.91-.62-.99-2.02-1.54-3.17-1.28s-2.23,1.09-2.44,2.45ZM292.09,75.08c.56,2.19,2.9,2.87,4.73,1.85,1.69-.94,2.09-3.26.74-4.97-.88-1.12-2.77-1.34-3.95-.64-1.29.76-1.95,2.09-1.52,3.76ZM292.69,153.43c.41,2.05,2.61,2.71,4.31,2.1s2.37-2.41,1.77-4.25c-.42-1.29-1.82-2.01-3.14-1.96-1.21.05-2.48.73-2.9,2.1-.13.42-.16,1.42-.04,2ZM299.57,230.34c-.22-1.71-2.13-2.93-3.74-2.62-1.88.36-2.92,2-2.58,3.84s1.94,2.87,3.85,2.48c1.6-.32,2.71-1.79,2.47-3.71ZM294.77,25.18c1.74-.01,3.13-1.43,3.12-3.17s-1.43-3.13-3.17-3.12-3.13,1.43-3.12,3.17,1.43,3.13,3.17,3.12ZM297.87,46.73c-.71-1.78-2.75-2.44-4.16-1.75-1.66.82-2.29,2.4-1.72,4.04s2.46,2.37,4.13,1.81c1.56-.52,2.44-2.37,1.75-4.1ZM295.39,103.54c1.74-.01,3.13-1.43,3.12-3.17s-1.43-3.13-3.17-3.12-3.13,1.43-3.12,3.17,1.43,3.13,3.17,3.12ZM295.59,129.43c1.74-.01,3.13-1.43,3.12-3.17s-1.43-3.13-3.17-3.12-3.13,1.43-3.12,3.17,1.43,3.13,3.17,3.12ZM296.01,181.93c1.73-.01,3.13-1.43,3.12-3.16s-1.43-3.13-3.16-3.12-3.13,1.43-3.12,3.16,1.43,3.13,3.16,3.12ZM295.64,207.7c1.21.16,2.39-.21,3.03-1.07,1.19-1.6.67-3.93-1.01-4.74s-3.87-.1-4.44,1.68.24,3.84,2.42,4.14ZM295.07,259.93c1.37.63,2.77.4,3.73-.47s1.12-2.38.65-3.63c-.54-1.42-1.97-1.92-3.43-1.75-1.25.15-2.29,1.16-2.5,2.4-.23,1.37.2,2.83,1.55,3.45ZM284.62,8.1c-.56-1.91-2.55-2.69-4.03-2.2-1.85.61-2.59,2.26-2.23,3.91.41,1.84,2.31,2.69,4.09,2.27,1.57-.38,2.68-2.22,2.17-3.98ZM278.75,35.09c.06,2.17,2.06,3.41,3.8,3.07,1.95-.37,2.88-2.35,2.28-4.28-.46-1.47-2.02-2.15-3.45-1.89s-2.69,1.38-2.64,3.1ZM281.95,64.37c1.79-.01,3.23-1.48,3.21-3.26s-1.48-3.23-3.26-3.21-3.23,1.48-3.21,3.26,1.48,3.23,3.26,3.21ZM281.95,90.62c1.64.2,3.02-1.19,3.34-2.61.34-1.52-.63-3.27-2.15-3.69s-2.86.13-3.69,1.31c-.7.99-.81,2.62.04,3.71.53.67,1.57,1.19,2.47,1.29ZM282.54,116.58c1.74-.01,3.14-1.44,3.13-3.18s-1.44-3.14-3.18-3.13-3.14,1.44-3.13,3.18,1.44,3.14,3.18,3.13ZM282.56,142.75c1.79-.01,3.22-1.47,3.21-3.26s-1.47-3.22-3.26-3.21-3.22,1.47-3.21,3.26,1.47,3.22,3.26,3.21ZM285.91,165.12c-.42-1.91-2.15-2.89-4.02-2.45-1.65.38-2.67,2.14-2.27,4.01.33,1.54,2.22,2.67,3.89,2.24s2.79-2.04,2.4-3.8ZM283.28,188.69c-2.15.01-3.47,1.67-3.25,3.55s1.88,2.97,3.56,2.68c1.89-.32,2.99-1.98,2.58-3.95-.25-1.24-1.55-2.28-2.89-2.27ZM282.5,220.99c1.76.29,3.11-.55,3.66-1.92s.12-2.87-1.19-3.86c-1.62-1.22-3.97-.39-4.75,1.37s.15,4.06,2.27,4.41ZM283.38,247.37c1.79-.01,3.22-1.47,3.21-3.26s-1.47-3.22-3.26-3.21-3.22,1.47-3.21,3.26,1.47,3.22,3.26,3.21ZM268.71,25.25c1.78-.01,3.21-1.47,3.2-3.25s-1.47-3.21-3.25-3.2-3.21,1.47-3.2,3.25,1.47,3.21,3.25,3.2ZM271.14,50.66c1.32-1.15,1.25-3.61-.02-4.72-1.38-1.21-3.49-1.11-4.62.17s-1.21,3.14.08,4.45c1.08,1.1,3.05,1.41,4.55.1ZM269.34,103.63c1.78-.01,3.2-1.46,3.19-3.24s-1.46-3.2-3.24-3.19-3.2,1.46-3.19,3.24,1.46,3.2,3.24,3.19ZM270,129.85c2.06-.35,3.05-1.97,2.63-3.89s-2.05-2.83-4.03-2.37c-1.44.33-2.63,2.05-2.27,3.76.32,1.54,1.86,2.81,3.67,2.5ZM267.34,180.81c.69,1.02,2.15,1.31,3.38,1.08,2-.37,2.97-2.63,2.13-4.5-.69-1.55-2.97-2.38-4.48-1.44-1.61.99-2.24,3.04-1.02,4.86ZM270.14,208.29c1.78-.01,3.21-1.47,3.2-3.25s-1.47-3.21-3.25-3.2-3.21,1.47-3.2,3.25,1.47,3.21,3.25,3.2ZM270.03,260.34c2.38.22,3.95-1.49,3.7-3.52s-1.93-3.21-4.08-2.74c-1.45.32-2.39,1.78-2.33,3.22s1.1,2.89,2.72,3.04ZM271.99,73.76c-.28-1.88-2.16-2.87-3.74-2.5-1.73.41-2.66,1.96-2.41,3.6.27,1.81,1.85,2.83,3.7,2.54,1.58-.24,2.74-1.72,2.45-3.64ZM272.62,152.12c-.32-1.84-2.13-2.85-3.74-2.48-1.77.41-2.71,1.93-2.41,3.77.24,1.49,1.98,2.8,3.56,2.44,1.72-.39,2.93-1.76,2.58-3.73ZM271.39,228.24c-1.91-.9-4.05.4-4.33,2.25-.3,1.97,1.1,3.78,3.01,3.76s3.55-1.66,3.18-3.63c-.22-1.16-.71-1.84-1.85-2.38ZM258.88,35.03c-.18-1.91-1.76-3.13-3.58-2.95s-3.04,1.79-2.81,3.66c.21,1.71,1.68,2.95,3.68,2.72,1.46-.17,2.87-1.69,2.7-3.43ZM253.4,112.1c-.69,1.45-.32,2.98.63,3.87,1.02.96,2.44,1.19,3.78.57s1.94-2.17,1.67-3.44-1.36-2.43-2.54-2.61c-1.4-.22-2.9.27-3.54,1.62ZM260.11,191.74c-.18-1.88-1.92-3.22-3.75-2.93-1.6.25-2.88,1.92-2.68,3.53.23,1.85,1.7,3.08,3.58,2.92,1.59-.14,3.03-1.7,2.85-3.52ZM255.5,12.17c1.74-.01,3.14-1.44,3.13-3.18s-1.44-3.14-3.18-3.13-3.14,1.44-3.13,3.18,1.44,3.14,3.18,3.13ZM253.47,59.48c-1.18,1.5-.85,3.26.29,4.38s2.98,1.02,4.16.06,1.5-2.91.5-4.29c-1.11-1.53-3.75-1.67-4.94-.15ZM256.09,90.52c1.73-.01,3.12-1.43,3.11-3.16s-1.43-3.12-3.16-3.11-3.12,1.43-3.11,3.16,1.43,3.12,3.16,3.11ZM256.52,143.04c1.74-.01,3.13-1.43,3.12-3.17s-1.43-3.13-3.17-3.12-3.13,1.43-3.12,3.17,1.43,3.13,3.17,3.12ZM256.71,168.91c1.74-.01,3.13-1.43,3.12-3.17s-1.43-3.13-3.17-3.12-3.13,1.43-3.12,3.17,1.43,3.13,3.17,3.12ZM257.11,221.41c1.74-.01,3.13-1.43,3.12-3.17s-1.43-3.13-3.17-3.12-3.13,1.43-3.12,3.17,1.43,3.13,3.17,3.12ZM256.98,247.23c1.1.06,2.1-.29,2.69-.94.56-.61.81-1.56.74-2.48-.14-1.76-1.68-2.81-3.27-2.78s-2.96,1.38-2.97,2.95c-.01,1.61.94,3.14,2.81,3.23ZM239.24,21.76c-.21,1.74.87,3.19,2.23,3.56,1.59.43,3.07-.16,3.84-1.57.67-1.23.4-3.21-.82-4.01-1.05-.68-2.19-.95-3.32-.52-.9.34-1.78,1.26-1.93,2.54ZM242.66,51.74c1.79-.01,3.23-1.48,3.22-3.27s-1.48-3.23-3.27-3.22-3.23,1.48-3.22,3.27,1.48,3.23,3.27,3.22ZM246.01,73.59c-.44-1.71-2.41-2.52-3.91-2.07-1.76.53-2.58,2.33-2.1,3.88.57,1.84,2.28,2.59,3.99,2.11s2.47-2.14,2.02-3.92ZM243.06,103.86c1.79-.01,3.22-1.47,3.21-3.26s-1.47-3.22-3.26-3.21-3.22,1.47-3.21,3.26,1.47,3.22,3.26,3.21ZM240.08,126.28c-.29,2.17,1.01,3.52,2.88,3.81,1.65.26,3.23-.99,3.5-2.75.26-1.64-.87-3.34-2.63-3.6s-3.52.76-3.76,2.54ZM246.59,151.91c-.6-1.87-2.44-2.45-3.99-1.92-1.72.59-2.48,2.3-1.94,3.95s2.38,2.55,3.82,2.06c1.79-.61,2.72-2.2,2.11-4.09ZM243.68,182.22c1.78-.01,3.21-1.47,3.19-3.24s-1.47-3.21-3.24-3.19-3.21,1.47-3.19,3.24,1.47,3.21,3.24,3.19ZM242.81,208.32c1.45.37,2.93-.08,3.62-1.06.78-1.11.91-2.44.23-3.67-.71-1.3-2.32-1.83-3.76-1.38-1.25.39-2.22,1.49-2.24,2.91-.01,1.33.58,2.8,2.15,3.2ZM247.22,230.35c-.54-1.76-2.47-2.62-3.98-2-1.66.69-2.53,2.37-1.97,3.91.61,1.68,2.25,2.43,3.83,2.04,1.74-.43,2.65-2.24,2.12-3.96ZM244.31,260.6c1.78-.01,3.21-1.47,3.19-3.25s-1.47-3.21-3.25-3.19-3.21,1.47-3.19,3.25,1.47,3.21,3.25,3.19ZM229.44,12.67c1.79-.01,3.23-1.48,3.22-3.27s-1.48-3.23-3.27-3.22-3.23,1.48-3.22,3.27,1.48,3.23,3.27,3.22ZM229.84,64.77c1.78-.01,3.22-1.47,3.2-3.25s-1.47-3.22-3.25-3.2-3.22,1.47-3.2,3.25,1.47,3.22,3.25,3.2ZM229.51,84.65c-1.88.26-2.91,1.97-2.67,3.64s1.68,2.86,3.38,2.75c1.49-.09,2.98-1.39,3.03-3.04.03-1.03-.34-1.96-.96-2.58-.66-.67-1.66-.93-2.78-.77ZM230.47,143.13c1.78-.01,3.2-1.47,3.19-3.24s-1.47-3.2-3.24-3.19-3.2,1.47-3.19,3.24,1.47,3.2,3.24,3.19ZM230.67,169.4c1.78-.01,3.22-1.47,3.2-3.26s-1.47-3.22-3.26-3.2-3.22,1.47-3.2,3.26,1.47,3.22,3.26,3.2ZM230.35,221.39c1.29.22,2.46-.09,3.15-.95,1.28-1.6.9-3.93-.8-4.93s-3.77-.28-4.62,1.48.2,4.03,2.27,4.39ZM228.56,246.27c.84,1.19,2.13,1.76,3.44,1.43,1.11-.28,2.2-1.08,2.41-2.34.27-1.62-.38-3.02-1.73-3.72-1.23-.64-2.88-.29-3.83.73s-1.19,2.63-.29,3.91ZM228.92,38.54c1.16.11,2.24-.26,2.87-.98.54-.61.8-1.68.71-2.61-.18-1.68-1.7-2.66-3.17-2.6-1.62.07-2.92,1.3-3.01,2.73-.1,1.61.76,3.28,2.6,3.45ZM232.55,115.76c.87-1.07.77-3.11-.16-4.04-1.36-1.36-3.45-1.27-4.6-.09-1.24,1.27-1.18,3.37.17,4.58,1.26,1.13,3.28,1.16,4.59-.45ZM232.75,194.59c1.25-.98,1.31-3.01.38-4.34-.69-.99-2.16-1.29-3.36-.99-2.06.52-2.81,2.79-1.79,4.56.91,1.59,3.02,2.14,4.77.77ZM221.23,231.33c-.09-1.95-1.71-3.21-3.54-3.04-1.67.16-2.98,1.69-2.89,3.42s1.55,3.07,3.36,3.04,3.17-1.42,3.07-3.42ZM216.4,25.79c1.74-.01,3.14-1.44,3.13-3.18s-1.44-3.14-3.18-3.13-3.14,1.44-3.13,3.18,1.44,3.14,3.18,3.13ZM216.6,51.65c1.74-.01,3.14-1.43,3.12-3.17s-1.43-3.14-3.17-3.12-3.14,1.43-3.12,3.17,1.43,3.14,3.17,3.12ZM216.81,77.99c1.78-.01,3.21-1.47,3.19-3.24s-1.47-3.21-3.24-3.19-3.21,1.47-3.19,3.24,1.47,3.21,3.24,3.19ZM216.41,97.98c-1.85.29-2.69,1.8-2.53,3.45.14,1.47,1.45,2.68,3.02,2.74s2.94-1.01,3.16-2.67c.15-1.11-.18-2.08-.87-2.79s-1.65-.92-2.78-.74ZM216.68,129.96c1.13.16,2.22-.22,2.88-.92s.9-1.84.69-2.86c-.34-1.69-1.85-2.58-3.38-2.4s-2.79,1.43-2.82,2.97.8,2.95,2.63,3.21ZM219.76,155.4c1.26-1.32,1.05-3.8-.3-4.79-1.26-.93-2.77-.9-3.9-.15s-1.56,2.22-1.21,3.69c.26,1.1,1.29,1.93,2.21,2.13,1.1.23,2.33.03,3.2-.87ZM220.62,178.59c-.45-1.84-2.19-2.63-3.99-2.18-1.59.39-2.56,2.21-2.02,3.92.51,1.62,2.2,2.58,3.87,2.08s2.58-2.03,2.14-3.82ZM217.84,208.42c1.74-.01,3.14-1.44,3.13-3.18s-1.44-3.14-3.18-3.13-3.14,1.44-3.13,3.18,1.44,3.14,3.18,3.13ZM220.35,260.14c.87-.69,1.15-2.14.89-3.2-.49-2.05-2.65-2.8-4.41-1.95-1.67.8-2.24,2.88-1.24,4.49.94,1.51,3.1,1.99,4.76.66ZM206.27,8.9c-.37-1.85-2.28-2.87-3.85-2.44-1.82.5-2.78,2.15-2.41,3.9s1.96,2.72,3.7,2.43,2.95-1.88,2.55-3.89ZM206.43,34.49c-.71-1.82-2.67-2.29-4.16-1.69-1.58.63-2.22,2.55-1.69,3.95.66,1.75,2.54,2.41,4.13,1.85s2.37-2.45,1.72-4.11ZM203.6,64.96c1.78-.01,3.22-1.47,3.2-3.25s-1.47-3.22-3.25-3.2-3.22,1.47-3.2,3.25,1.47,3.22,3.25,3.2ZM201.59,85.57c-1.7,1.52-1.26,4.29.52,5.24s3.54.31,4.47-1.22c.85-1.41.4-3.36-1.14-4.38-1.01-.67-2.84-.55-3.86.36ZM204.18,117.2c1.73-.01,3.13-1.43,3.11-3.16s-1.43-3.13-3.16-3.11-3.13,1.43-3.11,3.16,1.43,3.13,3.16,3.11ZM203.77,143.31c1.73.12,2.98-.76,3.49-2.15s-.05-2.99-1.23-3.72c-1.24-.77-2.74-.73-4.01.29-.96.77-1.3,2.24-.86,3.46.37,1.02,1.19,2.03,2.62,2.13ZM207.54,165.72c-.36-1.9-2.17-2.81-3.98-2.43s-2.69,2.07-2.28,4.01c.32,1.56,2.19,2.67,3.88,2.24s2.72-2.02,2.38-3.82ZM202.15,190.81c-1.16,1.77-.21,3.93,1.65,4.6,1.71.62,3.74-.48,4.04-2.42.24-1.58-.51-3.02-1.94-3.49-1.34-.45-2.82-.11-3.75,1.32ZM206.87,221.03c.96-.69,1.3-2.02,1.07-3.23-.18-.98-.97-2.08-2.14-2.39-1.4-.37-2.97.13-3.63,1.17-.78,1.24-.79,2.76.13,3.99,1.02,1.36,3.12,1.5,4.57.46ZM208.09,243.79c-.58-1.87-2.57-2.67-4.26-2.04-1.51.56-2.43,2.39-1.89,4.05s2.33,2.56,4.02,2.02c1.58-.51,2.7-2.21,2.14-4.03ZM189.3,25.69c1.35.37,2.49.09,3.3-.7s1.1-1.75.88-2.99c-.28-1.59-1.71-2.63-3.22-2.58s-2.89,1.18-3.12,2.64.52,3.18,2.15,3.63ZM189.91,52.04c1.52.17,2.79-.31,3.42-1.47s.57-2.61-.25-3.6-1.92-1.43-3.44-1.14c-1.4.27-2.4,1.82-2.32,3.17.09,1.49,1.06,2.87,2.59,3.04ZM190.97,104.27c1.78-.01,3.22-1.47,3.2-3.25s-1.47-3.22-3.25-3.2-3.22,1.47-3.2,3.25,1.47,3.22,3.25,3.2ZM189.51,130.05c1.32.9,3.03.53,3.98-.48s1.16-2.72.49-3.83c-.79-1.31-2.06-1.85-3.71-1.55-1.23.22-2.15,1.51-2.31,2.59-.2,1.33.35,2.46,1.55,3.27ZM191.07,182.57c1.24.11,2.28-.23,2.91-.95.6-.68.9-1.66.77-2.68-.21-1.71-1.85-2.9-3.42-2.76s-2.88,1.44-2.99,2.99.94,3.25,2.72,3.4ZM191.8,208.89c1.78-.01,3.22-1.47,3.2-3.25s-1.47-3.22-3.25-3.2-3.22,1.47-3.2,3.25,1.47,3.22,3.25,3.2ZM192.22,261.02c1.78-.01,3.21-1.47,3.2-3.25s-1.47-3.21-3.25-3.2-3.21,1.47-3.2,3.25,1.47,3.21,3.25,3.2ZM193.58,74.19c-.48-1.9-2.27-2.7-3.88-2.26-1.73.47-2.6,2.11-2.18,3.94.35,1.52,2.11,2.55,3.66,2.18,1.68-.4,2.86-1.99,2.39-3.85ZM194.22,152.6c-.33-1.75-2.31-2.77-3.87-2.3-1.71.52-2.62,2.18-2.18,3.88s2.05,2.55,3.68,2.22,2.72-1.98,2.38-3.8ZM191.81,234.87c1.74-.01,3.14-1.43,3.12-3.17s-1.43-3.14-3.17-3.12-3.14,1.43-3.12,3.17,1.43,3.14,3.17,3.12ZM181.16,114c-.2-1.93-1.92-3.19-3.79-2.91-1.6.24-2.92,1.84-2.66,3.53.27,1.79,1.74,3.01,3.58,2.88,1.57-.11,3.06-1.72,2.87-3.5ZM181.76,192.35c-.17-1.82-1.98-3.19-3.75-2.9-1.66.28-2.89,1.9-2.7,3.54.2,1.81,1.76,3,3.58,2.87,1.66-.12,3.05-1.64,2.87-3.51ZM177.12,12.77c1.73-.01,3.13-1.43,3.12-3.17s-1.43-3.13-3.17-3.12-3.13,1.43-3.12,3.17,1.43,3.13,3.17,3.12ZM174.21,36.76c.34,1.66,2.26,2.67,3.86,2.27,1.72-.43,2.71-2.13,2.35-3.95s-2.19-2.74-3.87-2.34c-1.78.42-2.73,2.04-2.33,4.01ZM177.53,65.28c1.73-.01,3.13-1.43,3.12-3.17s-1.43-3.13-3.17-3.12-3.13,1.43-3.12,3.17,1.43,3.13,3.17,3.12ZM180.7,87.13c-.48-1.78-2.3-2.56-3.92-2.11-1.73.48-2.51,2.31-2.06,3.89.5,1.77,2.25,2.52,3.97,2.08,1.59-.41,2.45-2.18,2-3.87ZM175.91,142.73c1.19,1.3,3.06,1.19,4.26.17s1.45-2.73.55-4.18c-1-1.62-3.73-1.76-4.95-.32-1.12,1.32-1.02,3.06.14,4.33ZM181.3,165.41c-.57-1.84-2.53-2.55-4.03-1.99-1.66.63-2.4,2.28-1.96,3.86.49,1.75,2.27,2.54,3.99,2.05,1.55-.44,2.55-2.17,2-3.93ZM179.65,215.9c-2.08-.51-3.88.78-4.02,2.71s1.24,3.49,3.24,3.43c1.88-.06,3.24-1.79,2.94-3.79-.18-1.18-.9-2.05-2.15-2.36ZM178.97,247.9c1.74-.01,3.13-1.43,3.12-3.17s-1.43-3.13-3.17-3.12-3.13,1.43-3.12,3.17,1.43,3.13,3.17,3.12ZM167.22,22.2c-.38-1.92-2.3-2.89-3.94-2.49-1.73.42-2.68,2.1-2.35,3.76.37,1.86,1.97,2.89,3.84,2.53,1.6-.3,2.84-1.88,2.46-3.81ZM162.7,46.27c-1.38,1-1.83,2.18-1.54,3.58.23,1.12,1.08,2.16,2.37,2.37,1.82.3,3.24-.42,3.85-2.1.49-1.35-.07-2.95-1.58-3.87-.69-.42-2.44-.46-3.09,0ZM164.7,78.32c1.74-.01,3.14-1.43,3.12-3.17s-1.43-3.14-3.17-3.12-3.14,1.43-3.12,3.17,1.43,3.14,3.17,3.12ZM161.5,100.74c-.17,1.71.68,3.01,2.04,3.52s2.79.13,3.69-1.01.96-2.76.03-4.04c-.77-1.06-2.22-1.39-3.41-1.05s-2.19,1.09-2.34,2.58ZM162.23,129.37c1.17,1.84,4.04,1.76,5.21.11.63-.88.9-1.87.59-2.88-.21-.68-.86-1.62-1.72-2-1.26-.56-2.94-.31-3.89.74s-.99,2.74-.18,4.03ZM165.31,156.7c1.73-.01,3.13-1.43,3.12-3.17s-1.43-3.13-3.17-3.12-3.13,1.43-3.12,3.17,1.43,3.13,3.17,3.12ZM162.55,181.39c.74,1.31,2.39,1.69,3.64,1.32,1.33-.39,2.36-1.59,2.35-3.09-.01-1.38-1.05-2.66-2.06-2.99-1.48-.47-2.94-.04-3.71.95-.82,1.04-.94,2.52-.22,3.8ZM167.68,208.29c.88-.72,1.25-2.23.99-3.28-.49-1.95-2.79-2.85-4.37-2.14-1.94.86-2.51,2.95-1.54,4.68.92,1.64,3.2,2.15,4.92.74ZM168.87,230.96c-.54-1.75-2.48-2.6-4-1.98-1.64.67-2.51,2.41-1.95,3.91.62,1.66,2.33,2.55,3.83,2.06,1.75-.57,2.67-2.23,2.12-3.99ZM165.93,261.22c1.78-.01,3.22-1.47,3.2-3.25s-1.47-3.22-3.25-3.2-3.22,1.47-3.2,3.25,1.47,3.22,3.25,3.2ZM154.14,9.18c-.45-1.82-2.47-2.76-3.99-2.23-1.82.63-2.64,2.26-2.2,3.99s2.31,2.57,3.83,2.24c1.88-.41,2.83-2.13,2.36-4ZM151.49,65.38c1.78-.01,3.22-1.47,3.21-3.26s-1.47-3.22-3.26-3.21-3.22,1.47-3.21,3.26,1.47,3.22,3.26,3.21ZM153.3,85.61c-1.57-.76-3.3-.42-4.23.87-.87,1.21-.91,2.85.18,4.08.9,1.02,2.47,1.42,3.91.73,1.11-.52,1.66-1.71,1.69-2.83s-.41-2.31-1.55-2.86ZM155.16,139.62c-.52-1.94-2.46-2.6-4.08-2.16-1.71.46-2.52,2.33-2.15,3.87.45,1.83,2.35,2.71,4,2.29s2.72-2.13,2.22-4.01ZM152.3,170.02c1.78-.01,3.22-1.47,3.2-3.26s-1.47-3.22-3.26-3.2-3.22,1.47-3.2,3.26,1.47,3.22,3.26,3.2ZM153.76,221.94c1.47-.39,2.17-1.82,2.14-3.15-.03-1.24-.81-2.48-2.11-2.9-1.39-.45-2.92.03-3.66,1.02-.92,1.23-.85,2.78-.1,3.83.84,1.17,2.18,1.62,3.73,1.21ZM155.95,244.17c-.58-1.89-2.61-2.63-4.26-2s-2.37,2.36-1.88,4.04c.5,1.71,2.37,2.52,4.04,2.06s2.69-2.19,2.11-4.1ZM148.99,38.51c.6.58,1.54.7,2.39.67,1.59-.07,2.68-1.48,2.81-2.9.14-1.5-.85-2.77-2.14-3.16-1.48-.44-2.93.12-3.63,1.3-.76,1.29-.6,2.95.58,4.09ZM151.72,117.64c1.74-.01,3.15-1.44,3.13-3.18s-1.44-3.15-3.18-3.13-3.15,1.44-3.13,3.18,1.44,3.15,3.18,3.13ZM149.2,192.41c-.09,1.17.33,2.18,1.02,2.8s1.75.99,2.71.76c1.7-.41,2.7-1.89,2.46-3.55-.21-1.47-1.43-2.67-2.93-2.69s-3.12.82-3.26,2.68ZM135.41,74.32c-.53,1.92.25,3.37,1.83,4.06,1.43.62,3.16.08,4.02-1.42.97-1.7.13-3.74-1.53-4.51s-3.82.01-4.33,1.87ZM142.27,153.47c-.16-1.89-1.93-3.16-3.76-2.91s-2.82,1.77-2.67,3.54,1.69,3.06,3.53,2.87c1.71-.18,3.06-1.58,2.89-3.5ZM142.86,231.73c-.23-1.86-2.03-3.08-3.73-2.79s-2.87,1.92-2.68,3.54c.22,1.9,1.72,3.01,3.57,2.85,1.66-.14,3.08-1.6,2.84-3.61ZM138.05,26.4c1.74-.01,3.13-1.43,3.12-3.17s-1.43-3.13-3.17-3.12-3.13,1.43-3.12,3.17,1.43,3.13,3.17,3.12ZM138.25,52.27c1.73-.01,3.13-1.43,3.12-3.17s-1.43-3.13-3.17-3.12-3.13,1.43-3.12,3.17,1.43,3.13,3.17,3.12ZM138.66,104.79c1.74-.01,3.14-1.43,3.12-3.17s-1.43-3.14-3.17-3.12-3.14,1.43-3.12,3.17,1.43,3.14,3.17,3.12ZM137.29,130.24c1.87.88,3.91.11,4.53-1.7s-.42-3.68-2.32-4.1c-1.74-.39-3.64.89-3.77,2.8-.08,1.26.34,2.42,1.56,3ZM142.24,179.15c-.57-1.91-2.38-2.62-4.11-2.05-1.52.51-2.32,2.24-1.85,3.86s2.23,2.62,3.88,2.08c1.54-.51,2.6-2.14,2.08-3.9ZM141.18,208.55c1.81-1.22,1.8-3.71.4-5s-3.7-.98-4.69.52-.63,3.9,1.22,4.68c.8.34,2.29.33,3.08-.2ZM142.88,257.5c-.57-1.92-2.4-2.59-4.14-2.04-1.59.5-2.32,2.19-1.85,3.88.44,1.56,2.24,2.62,3.91,2.08,1.54-.5,2.59-2.17,2.07-3.91ZM122.69,12.73c1.36,1.08,2.92.89,4.05.06,1.19-.89,1.65-2.33,1.06-3.79-.47-1.14-1.65-2.1-3.18-1.97-.66.05-1.83.51-2.3,1.05-1.15,1.33-.96,3.6.38,4.65ZM122.73,38.25c.92,1.1,2.03,1.38,3.23,1.12,1.11-.24,2.01-1.05,2.25-2.33.29-1.51-.39-3.03-1.76-3.62-1.26-.54-2.92-.17-3.78.93s-.87,2.79.05,3.9ZM128.34,61.57c-.42-1.86-2.25-2.74-3.93-2.35-1.81.43-2.73,2.24-2.31,3.93.46,1.86,2.17,2.77,3.99,2.29,1.62-.42,2.65-2.11,2.25-3.87ZM128.54,87.93c-.55-2.04-2.28-2.88-4.14-2.38-1.61.43-2.52,2.12-2.1,3.95.35,1.53,2.16,2.79,3.86,2.27,1.58-.48,2.87-2.02,2.38-3.85ZM123.63,112.42c-1.23,1.04-1.28,2.96-.38,4.1s2.56,1.65,3.87,1.02,2.02-2.09,1.72-3.7c-.19-1.03-1.22-1.94-2.12-2.19-1.04-.28-2.17,0-3.09.77ZM125.29,143.9c1.81.25,3.47-.95,3.73-2.62.24-1.59-.72-3.37-2.33-3.67-2.01-.37-3.7.73-4.02,2.48s.75,3.55,2.63,3.81ZM122.98,165.91c-.51,1.75.2,3.23,1.55,3.97s2.97.36,3.99-.77.9-2.98.08-4.1c-.95-1.29-2.69-1.5-4.15-.83-.68.31-1.22.94-1.45,1.73ZM125.75,190.05c-1.73.23-2.63,1.87-2.46,3.43.16,1.43,1.51,2.73,2.98,2.75,1.59.03,3.01-.97,3.21-2.63.15-1.18-.1-2.15-.87-2.86-.71-.65-1.63-.86-2.87-.7ZM126.46,222.37c1.78-.01,3.22-1.47,3.2-3.25s-1.47-3.22-3.25-3.2-3.22,1.47-3.2,3.25,1.47,3.22,3.25,3.2ZM126.67,248.62c1.79-.01,3.23-1.47,3.21-3.26s-1.47-3.23-3.26-3.21-3.23,1.47-3.21,3.26,1.47,3.23,3.26,3.21ZM115,22.19c-.64-1.91-2.64-2.53-4.19-1.95-1.69.64-2.39,2.41-1.93,4.02.52,1.8,2.44,2.57,4.13,2.05s2.58-2.32,1.98-4.12ZM115.24,48.59c-.6-1.88-2.44-2.62-4.19-2.09-1.52.46-2.47,2.38-1.99,3.93.55,1.79,2.22,2.59,3.99,2.18,1.61-.37,2.78-2.16,2.19-4.02ZM112.62,104.88c1.79-.01,3.22-1.47,3.21-3.26s-1.47-3.22-3.26-3.21-3.22,1.47-3.21,3.26,1.47,3.22,3.26,3.21ZM114.67,130.57c1.2-.74,1.56-2.27,1.21-3.63-.28-1.11-1.53-2.09-2.7-2.21-1.39-.14-2.64.46-3.31,1.76-.71,1.38-.26,2.95.86,3.88s2.53,1.06,3.94.2ZM112.49,183.14c1.25.2,2.31-.07,3-.77s1.04-1.66.9-2.82c-.2-1.68-1.7-2.75-3.27-2.75s-2.87,1.28-3.12,2.8.75,3.26,2.49,3.53ZM114.88,209.2c1.41-.6,1.96-2.31,1.64-3.67s-1.4-2.27-2.74-2.41-2.82.52-3.32,1.86c-.54,1.45-.24,2.7.79,3.67.88.84,2.23,1.15,3.64.55ZM115.49,261.22c1.88-1.13,2.01-3.67.71-5.01-1.37-1.42-3.78-1.35-4.98.3-1.07,1.48-.8,3.68,1.05,4.76.76.44,2.33.49,3.22-.04ZM109.1,76.12c.17,1.47,1.52,2.46,2.71,2.6,1.42.18,2.69-.65,3.19-1.75.61-1.36.31-2.71-.77-3.78-.93-.93-2.38-.97-3.5-.39s-1.82,1.72-1.63,3.32ZM113.37,150.89c-2-.39-3.76,1.24-3.69,3.09s1.57,3.35,3.48,3.12,3.12-1.94,2.7-3.8c-.29-1.3-1.01-2.12-2.49-2.41ZM110.45,231.3c-.44,1.68.23,3.12,1.56,3.84s2.81.36,3.78-.76c.91-1.04,1.11-2.64.2-3.8-.74-.95-1.88-1.49-2.92-1.32-1.14.18-2.3.81-2.62,2.05ZM98.98,39.72c1.78-.01,3.22-1.47,3.2-3.25s-1.47-3.22-3.25-3.2-3.22,1.47-3.2,3.25,1.47,3.22,3.25,3.2ZM96.41,115.39c.27,2.26,2.64,3.31,4.52,2.43,1.73-.81,2.37-2.96,1.39-4.66s-3.32-1.98-4.96-.71c-.78.6-1.09,1.72-.94,2.94ZM97.94,195.68c1.46,1.19,3.32,1.05,4.55-.12,1.12-1.07,1.31-3,.2-4.29-1.03-1.2-2.81-1.74-4.1-.83-.92.64-1.59,1.56-1.63,2.49s.19,2.1.99,2.75ZM98.76,13.4c1.74-.01,3.14-1.43,3.12-3.17s-1.43-3.14-3.17-3.12-3.14,1.43-3.12,3.17,1.43,3.14,3.17,3.12ZM99.17,65.89c1.74-.01,3.14-1.44,3.13-3.17s-1.44-3.14-3.17-3.13-3.14,1.44-3.13,3.17,1.44,3.14,3.17,3.13ZM96.56,90.1c.83,1.7,2.99,2.08,4.46,1.14s1.96-2.87.92-4.4c-.98-1.44-2.85-1.63-4.26-.85s-1.85,2.62-1.11,4.11ZM102.72,140.05c-.63-1.86-2.55-2.39-4.25-1.78-1.47.53-2.24,2.41-1.64,3.96s2.36,2.4,3.99,1.84,2.52-2.22,1.91-4.03ZM102.94,166.03c-.56-1.85-2.55-2.54-4.04-1.99-1.66.62-2.4,2.32-1.97,3.86.5,1.8,2.26,2.52,4.02,2.06,1.51-.39,2.52-2.19,1.99-3.93ZM103.32,218.39c-.59-1.75-2.65-2.42-4.19-1.72s-2.27,2.34-1.67,3.95,2.48,2.46,3.99,1.86c1.61-.64,2.49-2.25,1.87-4.09ZM100.61,248.52c1.73-.01,3.13-1.43,3.12-3.17s-1.43-3.13-3.17-3.12-3.13,1.43-3.12,3.17,1.43,3.13,3.17,3.12ZM88.88,22.68c-.43-1.8-2.33-2.75-3.98-2.34-1.76.43-2.75,2.3-2.32,3.96.48,1.81,2.25,2.75,4.06,2.28,1.57-.4,2.66-2.14,2.24-3.9ZM89.11,49.13c-.45-1.94-2.13-2.93-4.04-2.49-1.61.37-2.7,2.14-2.27,3.98.37,1.58,2.1,2.65,3.89,2.26,1.54-.33,2.79-2.11,2.41-3.75ZM86.34,78.92c1.74-.01,3.13-1.43,3.12-3.17s-1.43-3.13-3.17-3.12-3.13,1.43-3.12,3.17,1.43,3.13,3.17,3.12ZM86.35,105.09c1.79-.01,3.22-1.47,3.21-3.26s-1.47-3.22-3.26-3.21-3.22,1.47-3.21,3.26,1.47,3.22,3.26,3.21ZM86.43,131.35c1.47.09,2.74-1.01,3.19-2.34.63-1.85-.7-3.73-2.42-4.02-1.97-.34-3.65.85-3.87,2.78-.2,1.79.96,3.44,3.09,3.58ZM86.93,157.3c1.73-.01,3.13-1.43,3.12-3.17s-1.43-3.13-3.17-3.12-3.13,1.43-3.12,3.17,1.43,3.13,3.17,3.12ZM83.8,179.5c-.33,2.1.92,3.72,2.72,3.92s3.4-.93,3.64-2.89c.2-1.61-1.07-3.31-2.85-3.46-1.63-.13-3.25.72-3.51,2.43ZM84.48,208.37c.6.99,1.99,1.48,3.08,1.35s2.1-.93,2.58-2.01c.65-1.46-.04-3.18-1.24-3.93-1.32-.83-2.95-.56-4.01.44s-1.34,2.63-.41,4.15ZM87.57,235.69c1.74-.01,3.14-1.44,3.13-3.18s-1.44-3.14-3.18-3.13-3.14,1.44-3.13,3.18,1.44,3.14,3.18,3.13ZM90.73,258.03c-.46-1.95-2.09-2.96-4.02-2.5-1.59.38-2.71,2.09-2.26,4.02.36,1.52,2.15,2.68,3.84,2.23,1.59-.42,2.85-2.02,2.44-3.75ZM74.8,13.12c1.47-1.17,1.45-3.61.09-4.82s-3.43-1.12-4.59.18c-1.09,1.22-1.19,3.13.09,4.43,1.04,1.06,2.91,1.4,4.41.21ZM73.12,66c1.79-.01,3.22-1.47,3.21-3.26s-1.47-3.22-3.26-3.21-3.22,1.47-3.21,3.26,1.47,3.22,3.26,3.21ZM75.32,91.6c1.26-.9,1.53-2.93.77-4.18-1.05-1.73-3.14-2.11-4.73-.98-1.34.95-1.76,3.07-.69,4.47s2.96,1.9,4.64.69ZM73.18,138.03c-2.22.26-3.17,2.62-2.46,4.37.76,1.89,3.07,2.5,4.77,1.44,1.7-1.05,1.95-3.38.53-4.98-.6-.68-1.7-.96-2.84-.83ZM76.92,166.23c-.65-1.88-2.69-2.41-4.37-1.74-1.56.63-2.24,2.48-1.62,4.07.66,1.69,2.48,2.47,4.11,1.9s2.54-2.36,1.89-4.23ZM74.35,222.75c1.78-.01,3.21-1.47,3.2-3.25s-1.47-3.21-3.25-3.2-3.21,1.47-3.2,3.25,1.47,3.21,3.25,3.2ZM74.55,249.02c1.78-.01,3.22-1.47,3.21-3.26s-1.47-3.22-3.26-3.21-3.22,1.47-3.21,3.26,1.47,3.22,3.26,3.21ZM75.69,35.69c-.57-1.82-2.45-2.44-4.01-1.94-1.72.55-2.46,2.33-1.93,4s2.2,2.42,3.81,1.98c1.72-.47,2.71-2.18,2.13-4.04ZM72.53,112.1c-1.96.42-2.74,2.36-2.11,4.15.57,1.63,2.43,2.39,4.07,1.73s2.39-2.33,1.71-4.08c-.58-1.48-1.91-2.16-3.66-1.79ZM70.87,192.89c-.23,1.5.44,2.76,1.64,3.38,1.25.65,2.54.42,3.61-.51.92-.81,1.23-2.27.69-3.47-.61-1.35-1.93-2.12-3.29-1.93-1.29.18-2.42,1.15-2.64,2.53ZM60.6,72.79c-1.79-.23-3.21.9-3.66,2.34s.34,3.03,1.66,3.76c1.39.77,3.11.31,4.07-.96s.82-2.98-.26-4.22c-.38-.44-1.08-.83-1.81-.93ZM57.45,154.89c.29,1.35,1.19,2.13,2.09,2.48,1.23.48,2.31.27,3.32-.57,1.2-1,1.38-2.84.59-4.12s-2.49-1.88-4.01-1.29c-1.22.47-2.32,1.99-1.99,3.51ZM61.32,236c1.79-.01,3.22-1.47,3.21-3.26s-1.47-3.22-3.26-3.21-3.22,1.47-3.21,3.26,1.47,3.22,3.26,3.21ZM58.83,20.88c-2.17.49-2.85,2.86-1.89,4.59s3.12,2.05,4.64.91,1.67-3.49.22-4.79c-.77-.69-1.81-.97-2.97-.71ZM58.11,47.14c-1.46,1.06-1.74,2.81-1.01,4.13s2.39,1.92,3.88,1.39c1.39-.5,2.31-2,1.94-3.69-.44-2-3.09-3.08-4.82-1.83ZM59.59,105.36c1.45.36,2.7-.43,3.35-1.44.73-1.14.59-2.62-.18-3.58s-2.08-1.39-3.43-1.08c-1.44.33-2.28,1.79-2.18,3.18.09,1.28.92,2.54,2.43,2.92ZM63.39,126.96c-.67-1.79-2.67-2.31-4.17-1.73-1.61.64-2.21,2.5-1.71,3.99.58,1.75,2.48,2.34,4.09,1.81s2.45-2.3,1.79-4.08ZM60.91,183.77c1.73-.01,3.12-1.43,3.1-3.15s-1.43-3.12-3.15-3.1-3.12,1.43-3.1,3.15,1.43,3.12,3.15,3.1ZM61.12,209.65c1.74-.01,3.14-1.44,3.13-3.17s-1.43-3.14-3.17-3.13-3.14,1.44-3.13,3.17,1.43,3.14,3.17,3.13ZM64.5,258.12c-.6-1.87-2.46-2.66-4.12-2.04-1.55.58-2.37,2.25-1.88,3.87s2.18,2.51,3.93,2.05c1.54-.4,2.64-2.12,2.07-3.89ZM46.45,14.09c1.79-.01,3.23-1.48,3.21-3.26s-1.48-3.23-3.26-3.21-3.23,1.48-3.21,3.26,1.48,3.23,3.26,3.21ZM48.41,39.62c1.31-.69,1.66-2.16,1.41-3.54-.21-1.14-1.31-2.04-2.63-2.27-1.17-.2-2.54.42-3.17,1.62-.68,1.3-.25,2.77.65,3.69s2.46,1.18,3.75.5ZM49.94,62.18c-.4-1.87-2.2-2.67-3.87-2.32-1.87.39-2.8,2.23-2.35,3.92.49,1.84,2.21,2.76,4,2.3,1.68-.44,2.61-2.07,2.22-3.9ZM47.08,92.46c1.78-.01,3.21-1.47,3.2-3.25s-1.47-3.22-3.25-3.2-3.21,1.47-3.2,3.25,1.47,3.22,3.25,3.2ZM47.45,118.44c1.74-.01,3.13-1.43,3.12-3.17s-1.43-3.13-3.17-3.12-3.13,1.43-3.12,3.17,1.43,3.13,3.17,3.12ZM50.58,140.68c-.41-2-2.24-2.84-3.84-2.46-1.83.44-2.73,2.05-2.44,3.74.32,1.88,2.02,2.9,3.85,2.5,1.67-.36,2.83-1.87,2.44-3.78ZM48.41,170.75c1.19-.34,1.94-1.2,2.25-2.07.38-1.05.24-2.21-.47-3.08-1.05-1.3-2.89-1.53-4.28-.67-1.31.81-1.84,2.49-1.18,4.07.52,1.23,2.1,2.21,3.67,1.76ZM48.07,196.8c1.73-.01,3.12-1.43,3.11-3.16s-1.43-3.12-3.16-3.11-3.12,1.43-3.11,3.16,1.43,3.12,3.16,3.11ZM47.64,222.88c1.14.06,2.14-.19,2.8-.84.56-.55.88-1.62.84-2.57-.08-2.13-2.15-3.35-4.23-2.82-1.48.38-2.31,1.92-2.17,3.43.11,1.24,1.19,2.72,2.77,2.8ZM48.3,249.24c1.79-.01,3.23-1.47,3.21-3.26s-1.47-3.23-3.26-3.21-3.23,1.47-3.21,3.26,1.47,3.23,3.26,3.21ZM36.63,22.78c-.59-1.85-2.66-2.48-4.17-1.91-1.69.64-2.42,2.41-1.94,3.99.55,1.81,2.47,2.6,4.1,2.06,1.75-.59,2.63-2.21,2.02-4.14ZM35.19,53.09c1.59-.65,2.06-2.47,1.68-3.84-.41-1.49-1.76-2.38-3.33-2.28-1.46.09-2.64,1.13-2.94,2.72-.25,1.32.56,2.98,2.08,3.49.6.2,1.88.18,2.52-.08ZM37.3,101.36c-.5-1.87-2.5-2.7-4.05-2.18-1.77.59-2.55,2.24-2.16,3.86.46,1.87,2.21,2.79,3.99,2.32s2.72-2.08,2.22-4ZM33.91,125.38c-2.05.33-3.12,2.22-2.61,4s2.12,2.62,3.86,2.26,2.78-2.16,2.35-3.99c-.39-1.66-1.78-2.57-3.6-2.27ZM34.1,177.55c-1.8.34-2.73,2.13-2.45,3.61.32,1.7,1.54,2.64,3.19,2.67,1.52.03,2.99-1.03,3.18-2.74.12-1.05-.21-2.19-.9-2.79-.75-.66-1.85-.97-3.03-.75ZM38.1,206c-.47-1.78-2.41-2.69-4.09-2.15s-2.52,2.28-2.03,4.06,2.24,2.52,3.99,2.08,2.6-2.18,2.12-3.99ZM35.43,262.21c1.89,0,3.2-1.25,3.23-2.98.04-1.98-1.41-3.43-3.26-3.39-1.71.03-3.13,1.3-3.19,3.11-.06,1.7,1.23,3.27,3.22,3.27ZM36.82,75.16c-.49-1.68-2.59-2.48-4.01-1.97-1.69.6-2.46,2.34-1.93,4.04.49,1.56,2.24,2.47,3.8,1.99,1.65-.51,2.7-2.16,2.15-4.05ZM35.99,151.84c-1.44-.72-3.12-.37-3.99.76-.95,1.25-.89,3.01.12,4.12s2.63,1.31,3.98.53c1.26-.73,1.77-2.24,1.3-3.77-.22-.7-.75-1.32-1.42-1.65ZM38.08,232.11c-.45-1.78-2.41-2.6-3.82-2.19-1.84.54-2.6,2.17-2.2,3.89s2.01,2.59,3.75,2.19c1.65-.38,2.75-1.99,2.28-3.89ZM21.23,118.73c1.79-.01,3.23-1.48,3.21-3.27s-1.48-3.23-3.27-3.21-3.23,1.48-3.21,3.27,1.48,3.23,3.27,3.21ZM19.44,196.1c.88,1.06,2.49,1.26,3.73.7,1.02-.46,1.99-1.68,1.91-3.01-.1-1.48-1.21-2.72-2.42-3.05-1.49-.4-2.88.27-3.62,1.49-.7,1.15-.61,2.65.41,3.87ZM23.38,10c-.51-1.78-2.27-2.67-3.99-2.15-1.59.48-2.51,2.4-2.04,3.95.52,1.75,2.26,2.56,4,2.06,1.55-.44,2.51-2.19,2.03-3.86ZM20.6,40.34c1.78-.01,3.22-1.47,3.2-3.25s-1.47-3.22-3.25-3.2-3.22,1.47-3.2,3.25,1.47,3.22,3.25,3.2ZM23.79,62.51c-.47-1.86-2.33-2.58-3.83-2.17-1.79.49-2.65,2.16-2.19,3.85s2.12,2.64,3.72,2.25c1.7-.42,2.78-2.03,2.3-3.93ZM21.01,92.38c1.73-.01,3.13-1.43,3.12-3.16s-1.43-3.13-3.16-3.12-3.13,1.43-3.12,3.16,1.43,3.13,3.16,3.12ZM24.41,140.95c-.45-1.78-2.23-2.64-3.98-2.19-1.58.4-2.5,2.23-2.03,3.96.41,1.52,2.3,2.52,3.86,2.05,1.65-.5,2.61-2.01,2.15-3.82ZM24.58,166.64c-.56-1.86-2.53-2.56-4.03-1.99-1.68.64-2.4,2.27-1.95,3.86.52,1.82,2.2,2.52,3.99,2.07,1.55-.39,2.51-2.18,1.98-3.94ZM24.01,222.57c1.5-1.08,1.54-3.57.14-4.79-1.25-1.08-3.29-1.05-4.38.1-1.19,1.24-1.14,3.12-.1,4.32s2.81,1.47,4.34.37ZM21.47,249.01c2.08.38,3.7-.81,3.87-2.76.15-1.72-1.1-3.36-3.04-3.39-1.62-.02-3.16,1.23-3.21,3.08-.04,1.49.81,2.79,2.38,3.07ZM10.52,23.44c-.42-2.03-2.24-2.87-3.94-2.48s-2.73,2.03-2.37,3.75,2.01,2.94,3.83,2.52c1.59-.37,2.87-1.94,2.48-3.79ZM7.59,53.57c1.78-.01,3.21-1.47,3.2-3.25s-1.47-3.21-3.25-3.2-3.21,1.47-3.2,3.25,1.47,3.21,3.25,3.2ZM10.72,77.92c.59-1.23.4-2.72-.44-3.64-.71-.78-2.01-1.32-3.11-.94-1.54.54-2.39,1.63-2.34,3.11s.9,2.63,2.33,3c1.25.33,2.9-.16,3.56-1.53ZM11.08,101.58c-.48-1.95-2.46-2.66-4.06-2.2-1.71.48-2.59,2.27-2.16,3.91.47,1.81,2.22,2.75,3.99,2.27,1.63-.45,2.7-2.08,2.24-3.97ZM5.61,130.71c1.08,1.53,3.28,1.59,4.53.57,1.36-1.1,1.76-3,.67-4.42s-3.16-1.8-4.48-.84c-1.46,1.05-1.85,3.09-.72,4.69ZM8.32,157.93c2.09.26,3.65-1.75,3.32-3.76-.28-1.65-1.9-2.71-3.4-2.52-1.73.22-2.83,1.47-2.8,3.16.02,1.52,1.02,2.88,2.89,3.12ZM8.2,184.01c1.18.08,2.36-.3,2.96-1.15,1.06-1.49.81-3.67-.62-4.64-1.28-.87-2.59-.76-3.77-.04-1.12.68-1.62,1.99-1.32,3.43.24,1.16,1.13,2.29,2.75,2.4ZM6.31,209.19c1.37,1.7,3.75,1.41,5.09-.19,1.08-1.28.73-3.29-.46-4.33-1.28-1.12-3.18-.98-4.41.16-1.13,1.04-1.32,2.98-.21,4.36ZM9.21,236.31c1.73-.01,3.13-1.43,3.11-3.16s-1.43-3.13-3.16-3.11-3.13,1.43-3.11,3.16,1.43,3.13,3.16,3.11ZM6.38,260.75c.88,1.47,2.47,2.04,4.06,1.47,1.25-.44,2.21-1.96,1.95-3.47-.23-1.33-1.29-2.6-2.82-2.69-1.35-.08-2.45.4-3.1,1.39-.59.9-.71,2.26-.09,3.3ZM-2.6,10.4c-.48-1.81-2.32-2.71-4.17-2.18-1.56.46-2.55,2.33-1.98,4.06.54,1.63,2.28,2.56,3.94,2.08s2.69-2.11,2.2-3.96ZM-5.25,66.63c1.78-.01,3.21-1.47,3.2-3.25s-1.47-3.21-3.25-3.2-3.21,1.47-3.2,3.25,1.47,3.21,3.25,3.2ZM-7.44,91.8c1.34,1.54,3.64,1.42,4.81.02s.99-3.57-.53-4.75c-1.3-1-3.22-.8-4.31.4s-1.18,2.95.02,4.32ZM-5.13,144.91c1.91.24,3.38-.77,3.63-2.51.28-1.93-.81-3.53-2.69-3.81-1.72-.25-3.24.75-3.65,2.56-.38,1.69.76,3.51,2.71,3.76ZM-4.43,171.25c1.79-.01,3.22-1.47,3.21-3.26s-1.47-3.22-3.26-3.21-3.22,1.47-3.21,3.26,1.47,3.22,3.26,3.21ZM-3.13,223.22c1.58-.34,2.38-1.94,2.27-3.41-.1-1.31-1.23-2.61-2.64-2.81-2.16-.3-3.88,1.29-3.78,3.28s1.86,3.44,4.15,2.94ZM-.79,245.4c-.54-1.88-2.59-2.63-4.25-1.99-1.52.59-2.44,2.4-1.89,4.03s2.4,2.57,4.04,2.07,2.67-2.15,2.11-4.1ZM-5.95,40.41c1.45.09,2.66-.54,3.12-1.69.75-1.86-.07-3.8-1.83-4.37-1.8-.57-3.71.49-4.05,2.18-.38,1.89.69,3.74,2.76,3.88ZM-7.46,113.67c-1.13,1.5-.85,3.41.44,4.5,1.17.99,2.94.94,4.21-.25s1.15-3.32-.13-4.53c-1.18-1.12-3.4-1.2-4.52.28ZM-5.5,197.04c1.33.57,2.83,0,3.55-1,.78-1.1.85-2.36.16-3.65-.62-1.16-2.22-1.65-3.46-1.36-1.34.32-2.25,1.59-2.29,2.84-.04,1.38.61,2.55,2.04,3.17Z"/>
      <g>
        <circle class="cls-2" cx="242.64" cy="48.5" r="3.25" transform="translate(-.37 1.91) rotate(-.45)"/>
        <path class="cls-2" d="M97.94,195.68c-.79-.65-1.03-1.78-.99-2.75s.72-1.85,1.63-2.49c1.29-.91,3.07-.37,4.1.83,1.11,1.29.92,3.22-.2,4.29-1.23,1.18-3.09,1.31-4.55.12Z"/>
        <path class="cls-2" d="M253.4,112.1c.64-1.35,2.14-1.84,3.54-1.62,1.17.19,2.26,1.3,2.54,2.61s-.38,2.85-1.67,3.44-2.76.39-3.78-.57c-.94-.89-1.32-2.41-.63-3.87Z"/>
        <path class="cls-2" d="M5.61,130.71c-1.13-1.6-.74-3.64.72-4.69,1.32-.95,3.39-.6,4.48.84s.69,3.32-.67,4.42c-1.26,1.02-3.45.96-4.53-.57Z"/>
        <path class="cls-2" d="M292.69,153.43c-.12-.58-.09-1.58.04-2,.42-1.37,1.68-2.05,2.9-2.1,1.32-.06,2.72.67,3.14,1.96.6,1.84-.14,3.67-1.77,4.25s-3.9-.06-4.31-2.1Z"/>
        <path class="cls-2" d="M57.45,154.89c-.33-1.52.77-3.04,1.99-3.51,1.52-.59,3.22,0,4.01,1.29s.61,3.12-.59,4.12c-1.01.84-2.09,1.06-3.32.57-.9-.35-1.8-1.12-2.09-2.48Z"/>
        <path class="cls-2" d="M142.27,153.47c.16,1.92-1.19,3.32-2.89,3.5-1.84.19-3.38-1.06-3.53-2.87s.94-3.3,2.67-3.54c1.82-.25,3.59,1.02,3.76,2.91Z"/>
        <path class="cls-2" d="M206.87,221.03c-1.45,1.05-3.55.91-4.57-.46-.92-1.23-.92-2.76-.13-3.99.66-1.04,2.24-1.55,3.63-1.17,1.17.31,1.96,1.41,2.14,2.39.22,1.21-.11,2.54-1.07,3.23Z"/>
        <path class="cls-2" d="M142.86,231.73c.24,2-1.17,3.46-2.84,3.61-1.85.16-3.36-.95-3.57-2.85-.19-1.62,1.03-3.26,2.68-3.54s3.51.93,3.73,2.79Z"/>
        <path class="cls-2" d="M122.69,12.73c-1.34-1.05-1.53-3.33-.38-4.65.48-.55,1.64-1,2.3-1.05,1.53-.12,2.71.83,3.18,1.97.59,1.46.13,2.9-1.06,3.79-1.12.84-2.68,1.02-4.05-.06Z"/>
        <path class="cls-2" d="M201.59,85.57c1.02-.91,2.85-1.03,3.86-.36,1.53,1.02,1.99,2.98,1.14,4.38-.93,1.53-2.69,2.16-4.47,1.22s-2.21-3.72-.52-5.24Z"/>
        <path class="cls-2" d="M155.95,244.17c.59,1.91-.44,3.64-2.11,4.1s-3.53-.35-4.04-2.06c-.49-1.68.28-3.43,1.88-4.04s3.69.11,4.26,2Z"/>
        <path class="cls-2" d="M162.23,129.37c-.81-1.28-.74-3.01.18-4.03s2.64-1.3,3.89-.74c.86.38,1.51,1.32,1.72,2,.31,1.01.04,2-.59,2.88-1.17,1.65-4.05,1.72-5.21-.11Z"/>
        <path class="cls-2" d="M161.5,100.74c.15-1.49,1.18-2.25,2.34-2.58s2.64,0,3.41,1.05c.93,1.28.89,2.87-.03,4.04s-2.28,1.54-3.69,1.01-2.21-1.81-2.04-3.52Z"/>
        <path class="cls-2" d="M181.16,114c.18,1.78-1.3,3.39-2.87,3.5-1.84.12-3.31-1.1-3.58-2.88-.26-1.69,1.06-3.29,2.66-3.53,1.87-.28,3.59.99,3.79,2.91Z"/>
        <path class="cls-2" d="M115,22.19c.6,1.8-.33,3.61-1.98,4.12s-3.62-.25-4.13-2.05c-.46-1.61.23-3.39,1.93-4.02,1.55-.58,3.56.04,4.19,1.95Z"/>
        <path class="cls-2" d="M312.68,242.95c.57,1.88-.48,3.6-2.12,4.08s-3.47-.38-4.03-2.06.29-3.42,1.88-4.03c1.67-.64,3.69.1,4.27,2Z"/>
        <path class="cls-2" d="M60.6,72.79c.72.09,1.42.49,1.81.93,1.08,1.23,1.19,2.99.26,4.22s-2.68,1.73-4.07.96c-1.32-.73-2.13-2.25-1.66-3.76s1.88-2.57,3.66-2.34Z"/>
        <circle class="cls-2" cx="46.42" cy="10.85" r="3.24" transform="translate(-.08 .37) rotate(-.45)"/>
        <path class="cls-2" d="M8.2,184.01c-1.63-.11-2.52-1.24-2.75-2.4-.3-1.44.21-2.76,1.32-3.43,1.18-.71,2.48-.82,3.77.04,1.44.97,1.68,3.15.62,4.64-.6.85-1.78,1.23-2.96,1.15Z"/>
        <path class="cls-2" d="M122.98,165.91c.23-.79.77-1.42,1.45-1.73,1.46-.67,3.2-.46,4.15.83.82,1.12.94,2.96-.08,4.1s-2.64,1.5-3.99.77-2.05-2.21-1.55-3.97Z"/>
        <circle class="cls-2" cx="321.42" cy="99.98" r="3.24" transform="translate(-.78 2.53) rotate(-.45)"/>
        <circle class="cls-2" cx="229.41" cy="9.42" r="3.24" transform="translate(-.07 1.8) rotate(-.45)"/>
        <circle class="cls-2" cx="48.27" cy="246" r="3.24" transform="translate(-1.93 .39) rotate(-.45)"/>
        <circle class="cls-2" cx="21.21" cy="115.5" r="3.24" transform="translate(-.91 .17) rotate(-.45)"/>
        <path class="cls-2" d="M88.88,22.68c.42,1.76-.67,3.5-2.24,3.9-1.81.47-3.58-.47-4.06-2.28-.44-1.66.55-3.53,2.32-3.96,1.66-.4,3.56.54,3.98,2.34Z"/>
        <path class="cls-2" d="M239.24,21.76c.16-1.28,1.03-2.2,1.93-2.54,1.13-.43,2.27-.16,3.32.52,1.22.8,1.49,2.77.82,4.01-.77,1.41-2.25,1.99-3.84,1.57-1.36-.37-2.44-1.82-2.23-3.56Z"/>
        <path class="cls-2" d="M181.76,192.35c.17,1.87-1.21,3.39-2.87,3.51-1.82.13-3.38-1.06-3.58-2.87-.18-1.64,1.05-3.26,2.7-3.54,1.78-.3,3.58,1.07,3.75,2.9Z"/>
        <circle class="cls-2" cx="243.03" cy="100.62" r="3.23" transform="translate(-.78 1.91) rotate(-.45)"/>
        <circle class="cls-2" cx="126.65" cy="245.39" r="3.24" transform="translate(-1.93 1) rotate(-.45)"/>
        <circle class="cls-2" cx="281.92" cy="61.13" r="3.24" transform="translate(-.47 2.22) rotate(-.45)"/>
        <path class="cls-2" d="M189.51,130.05c-1.2-.82-1.75-1.95-1.55-3.27.16-1.08,1.08-2.37,2.31-2.59,1.65-.3,2.92.24,3.71,1.55.67,1.11.5,2.77-.49,3.83s-2.66,1.38-3.98.48Z"/>
        <path class="cls-2" d="M76.92,166.23c.65,1.87-.18,3.63-1.89,4.23s-3.45-.2-4.11-1.9c-.62-1.6.06-3.45,1.62-4.07,1.68-.67,3.72-.14,4.37,1.74Z"/>
        <path class="cls-2" d="M37.3,101.36c.51,1.91-.52,3.55-2.22,4s-3.53-.45-3.99-2.32c-.4-1.61.38-3.27,2.16-3.86,1.55-.52,3.56.31,4.05,2.18Z"/>
        <path class="cls-2" d="M19.44,196.1c-1.02-1.22-1.11-2.72-.41-3.87.74-1.22,2.13-1.89,3.62-1.49,1.21.33,2.33,1.57,2.42,3.05.09,1.32-.88,2.55-1.91,3.01-1.24.56-2.85.36-3.73-.7Z"/>
        <path class="cls-2" d="M221.23,231.33c.09,2-1.34,3.39-3.07,3.42s-3.26-1.27-3.36-3.04,1.23-3.26,2.89-3.42c1.83-.17,3.45,1.09,3.54,3.04Z"/>
        <path class="cls-2" d="M96.41,115.39c-.14-1.22.16-2.34.94-2.94,1.64-1.27,3.99-.96,4.96.71s.34,3.85-1.39,4.66c-1.87.88-4.25-.17-4.52-2.43Z"/>
        <path class="cls-2" d="M167.68,208.29c-1.72,1.4-4,.9-4.92-.74-.97-1.73-.39-3.82,1.54-4.68,1.57-.7,3.88.19,4.37,2.14.26,1.05-.11,2.57-.99,3.28Z"/>
        <circle class="cls-2" cx="61.29" cy="232.76" r="3.24" transform="translate(-1.83 .49) rotate(-.45)"/>
        <path class="cls-2" d="M270,129.85c-1.81.31-3.35-.96-3.67-2.5-.35-1.71.84-3.42,2.27-3.76,1.98-.46,3.63.5,4.03,2.37s-.57,3.53-2.63,3.89Z"/>
        <path class="cls-2" d="M207.54,165.72c.34,1.8-.75,3.4-2.38,3.82s-3.56-.68-3.88-2.24c-.4-1.94.54-3.64,2.28-4.01s3.62.52,3.98,2.43Z"/>
        <path class="cls-2" d="M260.11,191.74c.18,1.82-1.26,3.38-2.85,3.52-1.88.16-3.35-1.07-3.58-2.92-.2-1.61,1.08-3.28,2.68-3.53,1.83-.29,3.57,1.05,3.75,2.93Z"/>
        <path class="cls-2" d="M319.41,128.66c-1.41-1.22-1.29-3.69.05-4.81s3.3-.99,4.51.2,1.2,3.08-.02,4.47c-.99,1.12-3.09,1.4-4.55.14Z"/>
        <path class="cls-2" d="M11.08,101.58c.46,1.89-.61,3.53-2.24,3.97-1.77.48-3.52-.46-3.99-2.27-.43-1.64.46-3.43,2.16-3.91,1.6-.45,3.58.25,4.06,2.2Z"/>
        <path class="cls-2" d="M324.69,180.29c-.87,1.45-3.65,1.8-5.08.35-.61-.62-.8-1.7-.78-2.68.03-1.4,1.22-2.31,2.34-2.67,1.34-.43,2.63.15,3.36,1.09.92,1.19.96,2.58.17,3.91Z"/>
        <path class="cls-2" d="M189.3,25.69c-1.64-.45-2.39-2.11-2.15-3.63s1.59-2.59,3.12-2.64,2.94,1,3.22,2.58c.22,1.24-.08,2.2-.88,2.99s-1.95,1.07-3.3.7Z"/>
        <path class="cls-2" d="M167.22,22.2c.38,1.93-.85,3.51-2.46,3.81-1.87.35-3.47-.68-3.84-2.53-.33-1.66.62-3.34,2.35-3.76s3.56.57,3.94,2.49Z"/>
        <path class="cls-2" d="M203.77,143.31c-1.42-.1-2.25-1.11-2.62-2.13-.44-1.22-.1-2.68.86-3.46,1.27-1.02,2.77-1.06,4.01-.29s1.72,2.38,1.23,3.72-1.76,2.27-3.49,2.15Z"/>
        <path class="cls-2" d="M219.76,155.4c-.86.91-2.09,1.11-3.2.87-.92-.2-1.95-1.02-2.21-2.13-.35-1.47.05-2.91,1.21-3.69s2.63-.78,3.9.15c1.35,1,1.56,3.47.3,4.79Z"/>
        <path class="cls-2" d="M49.94,62.18c.4,1.83-.54,3.46-2.22,3.9-1.79.47-3.52-.46-4-2.3-.45-1.69.48-3.53,2.35-3.92,1.67-.35,3.46.44,3.87,2.32Z"/>
        <path class="cls-2" d="M228.56,246.27c-.9-1.28-.64-2.91.29-3.91s2.6-1.37,3.83-.73c1.35.7,2,2.1,1.73,3.72-.21,1.26-1.3,2.06-2.41,2.34-1.31.33-2.6-.24-3.44-1.43Z"/>
        <path class="cls-2" d="M284.62,8.1c.51,1.76-.6,3.6-2.17,3.98-1.78.43-3.67-.43-4.09-2.27-.37-1.65.38-3.3,2.23-3.91,1.49-.49,3.48.29,4.03,2.2Z"/>
        <path class="cls-2" d="M47.64,222.88c-1.58-.08-2.65-1.56-2.77-2.8-.14-1.51.69-3.05,2.17-3.43,2.08-.53,4.15.69,4.23,2.82.04.94-.28,2.01-.84,2.57-.66.64-1.66.9-2.8.84Z"/>
        <path class="cls-2" d="M299.57,230.34c.24,1.93-.87,3.39-2.47,3.71-1.91.38-3.53-.73-3.85-2.48-.34-1.85.7-3.48,2.58-3.84,1.61-.31,3.53.91,3.74,2.62Z"/>
        <path class="cls-2" d="M128.34,61.57c.4,1.77-.63,3.45-2.25,3.87-1.83.48-3.53-.43-3.99-2.29-.42-1.69.5-3.51,2.31-3.93,1.68-.4,3.51.49,3.93,2.35Z"/>
        <path class="cls-2" d="M337.86,112.69c.22,1.82-1.24,3.33-2.7,3.55-1.9.28-3.51-1.09-3.68-2.74-.19-1.82.93-3.38,2.61-3.65,1.81-.29,3.53.76,3.78,2.84Z"/>
        <circle class="cls-2" cx="282.53" cy="139.52" r="3.23" transform="translate(-1.09 2.23) rotate(-.45)"/>
        <path class="cls-2" d="M323.94,20.97c.35,1.9-.85,3.5-2.46,3.81-1.8.35-3.5-.76-3.83-2.53s.63-3.35,2.37-3.76,3.55.5,3.92,2.49Z"/>
        <path class="cls-2" d="M114.67,130.57c-1.41.87-2.87.69-3.94-.2-1.11-.93-1.57-2.5-.86-3.88.67-1.3,1.92-1.91,3.31-1.76,1.16.12,2.41,1.09,2.7,2.21.35,1.37-.01,2.89-1.21,3.63Z"/>
        <circle class="cls-2" cx="283.36" cy="244.14" r="3.23" transform="translate(-1.91 2.24) rotate(-.45)"/>
        <circle class="cls-2" cx="73.1" cy="62.77" r="3.23" transform="translate(-.49 .58) rotate(-.45)"/>
        <path class="cls-2" d="M10.52,23.44c.38,1.85-.89,3.42-2.48,3.79-1.82.42-3.47-.73-3.83-2.52s.64-3.34,2.37-3.75,3.52.45,3.94,2.48Z"/>
        <circle class="cls-2" cx="112.59" cy="101.65" r="3.24" transform="translate(-.8 .89) rotate(-.45)"/>
        <path class="cls-2" d="M206.27,8.9c.4,2.01-.76,3.59-2.55,3.89s-3.33-.67-3.7-2.43.59-3.39,2.41-3.9c1.57-.43,3.48.59,3.85,2.44Z"/>
        <path class="cls-2" d="M292.09,75.08c-.43-1.68.23-3.01,1.52-3.76,1.19-.7,3.07-.47,3.95.64,1.34,1.71.95,4.03-.74,4.97-1.83,1.02-4.17.34-4.73-1.85Z"/>
        <path class="cls-2" d="M125.29,143.9c-1.88-.26-2.96-2.01-2.63-3.81s2.01-2.85,4.02-2.48c1.61.3,2.58,2.08,2.33,3.67-.26,1.68-1.91,2.87-3.73,2.62Z"/>
        <path class="cls-2" d="M191.07,182.57c-1.78-.15-2.83-1.85-2.72-3.4s1.38-2.85,2.99-2.99,3.2,1.06,3.42,2.76c.13,1.03-.17,2-.77,2.68-.64.72-1.68,1.05-2.91.95Z"/>
        <path class="cls-2" d="M240.08,126.28c.24-1.78,2.05-2.8,3.76-2.54s2.89,1.96,2.63,3.6c-.28,1.76-1.86,3.01-3.5,2.75-1.87-.29-3.17-1.64-2.88-3.81Z"/>
        <circle class="cls-2" cx="74.52" cy="245.79" r="3.23" transform="translate(-1.93 .59) rotate(-.45)"/>
        <path class="cls-2" d="M33.91,125.38c1.82-.3,3.21.62,3.6,2.27.43,1.83-.55,3.62-2.35,3.99s-3.37-.51-3.86-2.26.56-3.67,2.61-4Z"/>
        <circle class="cls-2" cx="86.32" cy="101.86" r="3.23" transform="translate(-.8 .68) rotate(-.45)"/>
        <path class="cls-2" d="M267.34,180.81c-1.22-1.82-.59-3.86,1.02-4.86,1.52-.94,3.79-.1,4.48,1.44.84,1.87-.13,4.13-2.13,4.5-1.23.23-2.69-.06-3.38-1.08Z"/>
        <path class="cls-2" d="M242.81,208.32c-1.56-.4-2.16-1.87-2.15-3.2.01-1.41.98-2.52,2.24-2.91,1.44-.45,3.04.08,3.76,1.38.68,1.23.55,2.56-.23,3.67-.68.98-2.17,1.43-3.62,1.06Z"/>
        <path class="cls-2" d="M128.54,87.93c.49,1.83-.8,3.37-2.38,3.85-1.71.52-3.51-.74-3.86-2.27-.42-1.84.49-3.52,2.1-3.95,1.86-.5,3.59.33,4.14,2.38Z"/>
        <path class="cls-2" d="M305.68,6.36c1.55-1.33,3.31-.99,4.6.48,1.1,1.26.93,3.37-.41,4.44s-3.29,1.04-4.5-.31-1.15-3.36.31-4.61Z"/>
        <path class="cls-2" d="M285.91,165.12c.39,1.76-.76,3.38-2.4,3.8s-3.56-.7-3.89-2.24c-.41-1.88.62-3.64,2.27-4.01,1.87-.43,3.6.55,4.02,2.45Z"/>
        <path class="cls-2" d="M36.63,22.78c.61,1.92-.27,3.55-2.02,4.14-1.62.55-3.54-.25-4.1-2.06-.48-1.57.26-3.34,1.94-3.99,1.51-.58,3.58.06,4.17,1.91Z"/>
        <path class="cls-2" d="M271.14,50.66c-1.5,1.31-3.48,1-4.55-.1-1.29-1.31-1.17-3.2-.08-4.45s3.23-1.38,4.62-.17c1.27,1.11,1.33,3.57.02,4.72Z"/>
        <path class="cls-2" d="M112.49,183.14c-1.74-.28-2.73-2.01-2.49-3.53s1.55-2.8,3.12-2.8,3.07,1.07,3.27,2.75c.14,1.15-.19,2.09-.9,2.82s-1.75.98-3,.77Z"/>
        <path class="cls-2" d="M89.11,49.13c.38,1.64-.87,3.42-2.41,3.75-1.8.39-3.52-.68-3.89-2.26-.43-1.84.65-3.61,2.27-3.98,1.91-.44,3.59.54,4.04,2.49Z"/>
        <path class="cls-2" d="M319.59,206.49c-1-1.58-.58-3.39.63-4.33,1.36-1.05,3.21-1,4.39.27,1.1,1.18,1.23,3.11.02,4.39-1.38,1.44-3.93,1.43-5.04-.33Z"/>
        <path class="cls-2" d="M75.32,91.6c-1.68,1.2-3.59.69-4.64-.69s-.65-3.52.69-4.47c1.58-1.13,3.68-.75,4.73.98.76,1.25.49,3.28-.77,4.18Z"/>
        <path class="cls-2" d="M162.55,181.39c-.73-1.29-.6-2.76.22-3.8.77-.99,2.23-1.42,3.71-.95,1.02.32,2.05,1.61,2.06,2.99.01,1.5-1.02,2.7-2.35,3.09-1.25.36-2.9,0-3.64-1.32Z"/>
        <circle class="cls-2" cx="151.47" cy="62.15" r="3.23" transform="translate(-.48 1.19) rotate(-.45)"/>
        <path class="cls-2" d="M153.3,85.61c1.14.55,1.58,1.76,1.55,2.86s-.58,2.3-1.69,2.83c-1.45.69-3.01.28-3.91-.73-1.09-1.23-1.05-2.87-.18-4.08.93-1.29,2.65-1.63,4.23-.87Z"/>
        <circle class="cls-2" cx="270.11" cy="205.06" r="3.23" transform="translate(-1.6 2.13) rotate(-.45)"/>
        <path class="cls-2" d="M155.16,139.62c.5,1.88-.51,3.58-2.22,4.01s-3.56-.47-4-2.29c-.38-1.54.44-3.41,2.15-3.87s3.56.23,4.08,2.16Z"/>
        <circle class="cls-2" cx="152.28" cy="166.79" r="3.23" transform="translate(-1.31 1.2) rotate(-.45)"/>
        <path class="cls-2" d="M153.76,221.94c-1.55.41-2.89-.04-3.73-1.21-.75-1.05-.82-2.6.1-3.83.74-.98,2.27-1.46,3.66-1.02,1.3.42,2.08,1.66,2.11,2.9.03,1.33-.66,2.77-2.14,3.15Z"/>
        <path class="cls-2" d="M305.89,89.2c-1.07-1.32-.9-3.08.09-4.19,1.08-1.21,3.02-1.41,4.31-.42,1.57,1.21,1.81,3.5.44,4.86s-3.5,1.4-4.84-.26Z"/>
        <circle class="cls-2" cx="203.57" cy="61.73" r="3.23" transform="translate(-.48 1.6) rotate(-.45)"/>
        <circle class="cls-2" cx="229.81" cy="61.54" r="3.23" transform="translate(-.48 1.81) rotate(-.45)"/>
        <path class="cls-2" d="M229.51,84.65c1.12-.16,2.12.1,2.78.77.61.62.99,1.55.96,2.58-.05,1.64-1.54,2.95-3.03,3.04-1.7.1-3.15-1.16-3.38-2.75s.79-3.37,2.67-3.64Z"/>
        <circle class="cls-2" cx="126.44" cy="219.14" r="3.23" transform="translate(-1.72 1) rotate(-.45)"/>
        <circle class="cls-2" cx="230.65" cy="166.17" r="3.23" transform="translate(-1.3 1.82) rotate(-.45)"/>
        <path class="cls-2" d="M230.35,221.39c-2.07-.36-3.1-2.67-2.27-4.39s2.94-2.47,4.62-1.48,2.08,3.32.8,4.93c-.68.86-1.85,1.17-3.15.95Z"/>
        <path class="cls-2" d="M208.09,243.79c.57,1.82-.56,3.52-2.14,4.03-1.69.54-3.49-.38-4.02-2.02s.38-3.49,1.89-4.05c1.69-.63,3.68.17,4.26,2.04Z"/>
        <path class="cls-2" d="M320.34,51c-2.07-.29-2.93-2.38-2.35-4.16s2.73-2.7,4.52-1.83c1.69.82,2.32,3.1,1.19,4.67-.8,1.12-1.84,1.53-3.36,1.31Z"/>
        <circle class="cls-2" cx="74.32" cy="219.52" r="3.22" transform="translate(-1.72 .59) rotate(-.45)"/>
        <circle class="cls-2" cx="190.95" cy="101.04" r="3.23" transform="translate(-.79 1.5) rotate(-.45)"/>
        <path class="cls-2" d="M86.43,131.35c-2.14-.14-3.29-1.79-3.09-3.58.21-1.94,1.9-3.12,3.87-2.78,1.72.3,3.05,2.17,2.42,4.02-.45,1.33-1.72,2.43-3.19,2.34Z"/>
        <circle class="cls-2" cx="308.19" cy="60.93" r="3.23" transform="translate(-.47 2.42) rotate(-.45)"/>
        <path class="cls-2" d="M50.58,140.68c.39,1.91-.77,3.42-2.44,3.78-1.82.4-3.53-.62-3.85-2.5-.29-1.69.61-3.3,2.44-3.74,1.6-.38,3.44.46,3.84,2.46Z"/>
        <path class="cls-2" d="M135.41,74.32c.51-1.86,2.69-2.63,4.33-1.87s2.5,2.81,1.53,4.51c-.86,1.5-2.59,2.04-4.02,1.42-1.58-.68-2.36-2.14-1.83-4.06Z"/>
        <path class="cls-2" d="M162.7,46.27c.66-.47,2.41-.43,3.09,0,1.51.92,2.07,2.52,1.58,3.87-.61,1.67-2.03,2.4-3.85,2.1-1.29-.21-2.13-1.25-2.37-2.37-.29-1.4.16-2.59,1.54-3.58Z"/>
        <circle class="cls-2" cx="309" cy="165.56" r="3.23" transform="translate(-1.29 2.43) rotate(-.45)"/>
        <path class="cls-2" d="M338.45,191c.23,1.89-1.13,3.36-2.67,3.6-1.91.3-3.47-1.03-3.69-2.74s.89-3.34,2.61-3.65,3.51.86,3.75,2.79Z"/>
        <path class="cls-2" d="M84.48,208.37c-.92-1.52-.68-3.11.41-4.15s2.68-1.27,4.01-.44c1.2.75,1.9,2.47,1.24,3.93-.48,1.08-1.54,1.89-2.58,2.01s-2.48-.35-3.08-1.35Z"/>
        <circle class="cls-2" cx="191.77" cy="205.66" r="3.23" transform="translate(-1.61 1.51) rotate(-.45)"/>
        <path class="cls-2" d="M34.1,177.55c1.18-.22,2.27.1,3.03.75.69.6,1.01,1.74.9,2.79-.19,1.71-1.66,2.76-3.18,2.74-1.65-.03-2.87-.98-3.19-2.67-.28-1.48.65-3.28,2.45-3.61Z"/>
        <path class="cls-2" d="M6.31,209.19c-1.11-1.38-.92-3.33.21-4.36,1.24-1.14,3.13-1.28,4.41-.16,1.2,1.05,1.54,3.05.46,4.33-1.34,1.6-3.72,1.89-5.09.19Z"/>
        <path class="cls-2" d="M281.95,90.62c-.9-.11-1.94-.62-2.47-1.29-.85-1.09-.74-2.72-.04-3.71.83-1.17,2.14-1.73,3.69-1.31s2.5,2.17,2.15,3.69c-.32,1.42-1.7,2.81-3.34,2.61Z"/>
        <circle class="cls-2" cx="268.69" cy="22.02" r="3.22" transform="translate(-.16 2.11) rotate(-.45)"/>
        <path class="cls-2" d="M74.8,13.12c-1.49,1.19-3.36.85-4.41-.21-1.29-1.31-1.18-3.21-.09-4.43,1.17-1.3,3.24-1.39,4.59-.18s1.38,3.65-.09,4.82Z"/>
        <path class="cls-2" d="M174.21,36.76c-.4-1.97.55-3.59,2.33-4.01,1.68-.4,3.5.5,3.87,2.34s-.63,3.52-2.35,3.95c-1.59.39-3.52-.61-3.86-2.27Z"/>
        <circle class="cls-2" cx="20.57" cy="37.12" r="3.23" transform="translate(-.29 .16) rotate(-.45)"/>
        <path class="cls-2" d="M337.24,34.39c.15,1.8-1.19,3.29-2.69,3.46-1.96.21-3.45-1.05-3.69-2.74-.27-1.88,1.06-3.46,2.82-3.66s3.41,1.07,3.57,2.94Z"/>
        <path class="cls-2" d="M154.14,9.18c.47,1.87-.48,3.59-2.36,4-1.52.33-3.4-.55-3.83-2.24s.38-3.36,2.2-3.99c1.53-.53,3.54.41,3.99,2.23Z"/>
        <path class="cls-2" d="M258.88,35.03c.17,1.74-1.24,3.26-2.7,3.43-2,.23-3.47-1.01-3.68-2.72-.23-1.87,1.04-3.48,2.81-3.66s3.39,1.04,3.58,2.95Z"/>
        <circle class="cls-2" cx="47.05" cy="89.23" r="3.23" transform="translate(-.7 .37) rotate(-.45)"/>
        <path class="cls-2" d="M35.19,53.09c-.64.26-1.92.28-2.52.08-1.52-.5-2.33-2.17-2.08-3.49.3-1.59,1.48-2.64,2.94-2.72,1.57-.09,2.92.8,3.33,2.28.38,1.37-.09,3.19-1.68,3.84Z"/>
        <path class="cls-2" d="M282.5,220.99c-2.12-.35-3.05-2.64-2.27-4.41s3.13-2.59,4.75-1.37c1.31.99,1.73,2.49,1.19,3.86s-1.9,2.21-3.66,1.92Z"/>
        <path class="cls-2" d="M38.1,206c.47,1.8-.43,3.57-2.12,3.99s-3.51-.35-3.99-2.08.28-3.49,2.03-4.06,3.62.37,4.09,2.15Z"/>
        <path class="cls-2" d="M73.18,138.03c1.13-.13,2.24.15,2.84.83,1.42,1.61,1.16,3.93-.53,4.98-1.69,1.05-4,.44-4.77-1.44-.71-1.75.24-4.12,2.46-4.37Z"/>
        <circle class="cls-2" cx="98.96" cy="36.5" r="3.23" transform="translate(-.28 .78) rotate(-.45)"/>
        <path class="cls-2" d="M83.8,179.5c.27-1.7,1.88-2.56,3.51-2.43,1.78.15,3.05,1.84,2.85,3.46-.25,1.96-1.78,3.09-3.64,2.89s-3.05-1.81-2.72-3.92Z"/>
        <circle class="cls-2" cx="7.56" cy="50.35" r="3.22" transform="translate(-.4 .06) rotate(-.45)"/>
        <path class="cls-2" d="M114.88,209.2c-1.41.6-2.76.29-3.64-.55-1.02-.97-1.33-2.22-.79-3.67.5-1.35,1.92-2.01,3.32-1.86s2.43,1.08,2.74,2.41-.23,3.07-1.64,3.67Z"/>
        <path class="cls-2" d="M189.91,52.04c-1.52-.17-2.5-1.55-2.59-3.04-.08-1.35.93-2.9,2.32-3.17,1.52-.3,2.59.09,3.44,1.14s.88,2.44.25,3.6-1.9,1.64-3.42,1.47Z"/>
        <path class="cls-2" d="M48.41,170.75c-1.57.45-3.15-.54-3.67-1.76-.66-1.58-.13-3.26,1.18-4.07,1.39-.86,3.23-.62,4.28.67.71.87.85,2.03.47,3.08-.32.87-1.06,1.74-2.25,2.07Z"/>
        <path class="cls-2" d="M115.24,48.59c.59,1.86-.58,3.65-2.19,4.02-1.77.41-3.44-.4-3.99-2.18-.48-1.55.47-3.46,1.99-3.93,1.74-.53,3.59.21,4.19,2.09Z"/>
        <path class="cls-2" d="M309.47,142.43c-2.24.38-3.96-1.23-3.9-3.18s1.85-3.43,3.94-3.04c1.61.29,2.4,1.48,2.51,3,.1,1.4-.89,2.94-2.56,3.22Z"/>
        <circle class="cls-2" cx="269.31" cy="100.41" r="3.22" transform="translate(-.78 2.12) rotate(-.45)"/>
        <circle class="cls-2" cx="243.65" cy="179" r="3.22" transform="translate(-1.4 1.92) rotate(-.45)"/>
        <circle class="cls-2" cx="230.44" cy="139.92" r="3.22" transform="translate(-1.09 1.82) rotate(-.45)"/>
        <circle class="cls-2" cx="216.78" cy="74.77" r="3.22" transform="translate(-.58 1.71) rotate(-.45)"/>
        <circle class="cls-2" cx="309.41" cy="217.69" r="3.22" transform="translate(-1.7 2.44) rotate(-.45)"/>
        <circle class="cls-2" cx="151.69" cy="114.48" r="3.16" transform="translate(-.9 1.2) rotate(-.45)"/>
        <path class="cls-2" d="M297.87,46.73c.69,1.73-.2,3.57-1.75,4.1-1.67.56-3.52-.09-4.13-1.81s.06-3.23,1.72-4.04c1.41-.69,3.45-.03,4.16,1.75Z"/>
        <path class="cls-2" d="M246.59,151.91c.61,1.89-.32,3.47-2.11,4.09-1.44.5-3.3-.46-3.82-2.06s.22-3.36,1.94-3.95c1.54-.53,3.39.05,3.99,1.92Z"/>
        <path class="cls-2" d="M272.62,152.12c.35,1.97-.86,3.34-2.58,3.73-1.59.36-3.32-.95-3.56-2.44-.3-1.83.64-3.36,2.41-3.77,1.61-.37,3.41.63,3.74,2.48Z"/>
        <path class="cls-2" d="M324.82,153.65c-.84,1.95-3.19,2.3-4.71,1.18s-1.72-3.56-.23-4.83c1.22-1.04,2.67-1.07,3.86-.34,1.27.78,1.76,2.42,1.08,3.99Z"/>
        <path class="cls-2" d="M305.96,190.96c.2-1.35,1.32-2.2,2.44-2.45s2.56.29,3.17,1.28c.81,1.3.79,2.83-.15,3.91-.89,1.02-2.42,1.38-3.66.8s-2.04-1.88-1.79-3.54Z"/>
        <path class="cls-2" d="M75.69,35.69c.58,1.86-.42,3.56-2.13,4.04-1.62.44-3.29-.32-3.81-1.98s.21-3.45,1.93-4c1.56-.5,3.44.13,4.01,1.94Z"/>
        <path class="cls-2" d="M216.68,129.96c-1.83-.26-2.66-1.65-2.63-3.21s1.22-2.78,2.82-2.97,3.04.71,3.38,2.4c.21,1.02-.02,2.15-.69,2.86s-1.75,1.08-2.88.92Z"/>
        <path class="cls-2" d="M336.81,7.45c.52,1.76-.48,3.49-2.02,3.94-1.76.51-3.47-.3-3.98-2.06-.44-1.52.36-3.35,1.89-3.89,1.67-.58,3.54.13,4.11,2.01Z"/>
        <path class="cls-2" d="M271.39,228.24c1.14.54,1.64,1.22,1.85,2.38.37,1.96-1.2,3.61-3.18,3.63s-3.32-1.8-3.01-3.76c.29-1.85,2.42-3.15,4.33-2.25Z"/>
        <path class="cls-2" d="M63.39,126.96c.66,1.78-.16,3.54-1.79,4.08s-3.51-.06-4.09-1.81c-.5-1.5.1-3.36,1.71-3.99,1.5-.59,3.5-.07,4.17,1.73Z"/>
        <path class="cls-2" d="M8.32,157.93c-1.87-.23-2.87-1.59-2.89-3.12-.02-1.7,1.08-2.94,2.8-3.16,1.51-.2,3.13.87,3.4,2.52.34,2.01-1.23,4.02-3.32,3.76Z"/>
        <path class="cls-2" d="M23.38,10c.48,1.67-.48,3.41-2.03,3.86-1.75.5-3.48-.31-4-2.06-.47-1.55.46-3.47,2.04-3.95,1.72-.52,3.48.37,3.99,2.15Z"/>
        <path class="cls-2" d="M336.86,141.74c-1.6,1.13-3.3.78-4.38-.38s-1.07-3.06.11-4.29,3.29-1.22,4.52-.03,1.15,3.7-.25,4.69Z"/>
        <circle class="cls-2" cx="217.81" cy="205.26" r="3.15" transform="translate(-1.61 1.72) rotate(-.45)"/>
        <circle class="cls-2" cx="282.51" cy="113.43" r="3.15" transform="translate(-.88 2.22) rotate(-.45)"/>
        <path class="cls-2" d="M319.48,230.89c-.08-1.83,1.51-3.41,3.3-3.37.9.02,2,.68,2.47,1.43.78,1.23.66,3.11-.36,4.03s-2.25,1.06-3.4.63c-.98-.37-1.96-1.27-2.02-2.71Z"/>
        <circle class="cls-2" cx="308.41" cy="113.24" r="3.15" transform="translate(-.88 2.43) rotate(-.45)"/>
        <path class="cls-2" d="M24.01,222.57c-1.53,1.11-3.32.81-4.34-.37s-1.09-3.08.1-4.32c1.1-1.15,3.14-1.18,4.38-.1,1.4,1.21,1.36,3.7-.14,4.79Z"/>
        <circle class="cls-2" cx="255.47" cy="9.02" r="3.15" transform="translate(-.06 2.01) rotate(-.45)"/>
        <path class="cls-2" d="M278.75,35.09c-.05-1.72,1.22-2.84,2.64-3.1s2.99.42,3.45,1.89c.6,1.93-.33,3.91-2.28,4.28-1.75.33-3.74-.91-3.8-3.07Z"/>
        <circle class="cls-2" cx="61.09" cy="206.5" r="3.15" transform="translate(-1.62 .49) rotate(-.45)"/>
        <circle class="cls-2" cx="138.03" cy="23.25" r="3.14" transform="translate(-.18 1.09) rotate(-.45)"/>
        <circle class="cls-2" cx="138.63" cy="101.64" r="3.15" transform="translate(-.79 1.09) rotate(-.45)"/>
        <path class="cls-2" d="M125.75,190.05c1.23-.16,2.16.05,2.87.7.77.71,1.01,1.67.87,2.86-.21,1.66-1.62,2.66-3.21,2.63-1.47-.03-2.82-1.32-2.98-2.75-.17-1.56.73-3.2,2.46-3.43Z"/>
        <circle class="cls-2" cx="191.79" cy="231.72" r="3.15" transform="translate(-1.82 1.52) rotate(-.45)"/>
        <circle class="cls-2" cx="99.15" cy="62.74" r="3.15" transform="translate(-.49 .78) rotate(-.45)"/>
        <circle class="cls-2" cx="295.36" cy="100.4" r="3.15" transform="translate(-.78 2.33) rotate(-.45)"/>
        <circle class="cls-2" cx="216.37" cy="22.64" r="3.15" transform="translate(-.17 1.7) rotate(-.45)"/>
        <circle class="cls-2" cx="47.42" cy="115.3" r="3.14" transform="translate(-.91 .38) rotate(-.45)"/>
        <circle class="cls-2" cx="87.54" cy="232.54" r="3.15" transform="translate(-1.83 .7) rotate(-.45)"/>
        <path class="cls-2" d="M59.59,105.36c-1.52-.38-2.34-1.64-2.43-2.92-.1-1.4.73-2.85,2.18-3.18,1.34-.31,2.63.09,3.43,1.08s.91,2.44.18,3.58c-.65,1.01-1.9,1.81-3.35,1.44Z"/>
        <path class="cls-2" d="M193.58,74.19c.47,1.87-.71,3.46-2.39,3.85-1.56.37-3.32-.66-3.66-2.18-.42-1.83.45-3.46,2.18-3.94,1.61-.44,3.39.37,3.88,2.26Z"/>
        <path class="cls-2" d="M38.08,232.11c.48,1.89-.63,3.51-2.28,3.89-1.74.4-3.35-.48-3.75-2.19s.36-3.35,2.2-3.89c1.41-.41,3.38.42,3.82,2.19Z"/>
        <path class="cls-2" d="M305.86,37.38c-1.44-1.22-1.54-3.17-.55-4.48s2.91-1.59,4.35-.57,1.67,2.87.58,4.45c-.9,1.3-3.08,1.69-4.38.59Z"/>
        <path class="cls-2" d="M109.1,76.12c-.18-1.6.51-2.73,1.63-3.32s2.56-.54,3.5.39c1.08,1.07,1.38,2.42.77,3.78-.5,1.11-1.76,1.93-3.19,1.75-1.19-.15-2.55-1.14-2.71-2.6Z"/>
        <path class="cls-2" d="M23.79,62.51c.48,1.89-.6,3.5-2.3,3.93-1.6.4-3.26-.58-3.72-2.25s.4-3.36,2.19-3.85c1.5-.41,3.36.32,3.83,2.17Z"/>
        <circle class="cls-2" cx="295.56" cy="126.28" r="3.15" transform="translate(-.98 2.33) rotate(-.45)"/>
        <path class="cls-2" d="M295.64,207.7c-2.18-.29-3-2.28-2.42-4.14s2.69-2.53,4.44-1.68,2.2,3.15,1.01,4.74c-.64.86-1.82,1.23-3.03,1.07Z"/>
        <path class="cls-2" d="M35.99,151.84c.67.33,1.2.95,1.42,1.65.47,1.52-.04,3.04-1.3,3.77-1.35.78-2.93.61-3.98-.53s-1.08-2.87-.12-4.12c.87-1.14,2.55-1.48,3.99-.76Z"/>
        <path class="cls-2" d="M113.37,150.89c1.48.29,2.19,1.11,2.49,2.41.42,1.87-.86,3.59-2.7,3.8s-3.41-1.25-3.48-3.12,1.69-3.49,3.69-3.09Z"/>
        <circle class="cls-2" cx="164.68" cy="75.18" r="3.15" transform="translate(-.59 1.3) rotate(-.45)"/>
        <path class="cls-2" d="M149.2,192.41c.14-1.85,1.71-2.7,3.26-2.68s2.72,1.22,2.93,2.69c.23,1.66-.77,3.15-2.46,3.55-.95.23-2.02-.14-2.71-.76s-1.1-1.63-1.02-2.8Z"/>
        <path class="cls-2" d="M283.28,188.69c1.35,0,2.64,1.04,2.89,2.27.41,1.97-.7,3.64-2.58,3.95-1.68.28-3.35-.9-3.56-2.68-.22-1.87,1.09-3.53,3.25-3.55Z"/>
        <path class="cls-2" d="M179.65,215.9c1.25.3,1.97,1.18,2.15,2.36.3,2-1.06,3.73-2.94,3.79-2,.06-3.39-1.48-3.24-3.43s1.95-3.22,4.02-2.71Z"/>
        <circle class="cls-2" cx="98.73" cy="10.25" r="3.15" transform="translate(-.08 .78) rotate(-.45)"/>
        <path class="cls-2" d="M58.83,20.88c1.15-.26,2.19.02,2.97.71,1.45,1.3,1.29,3.66-.22,4.79s-3.72.73-4.64-.91c-.96-1.72-.28-4.1,1.89-4.59Z"/>
        <circle class="cls-2" cx="256.5" cy="139.9" r="3.15" transform="translate(-1.09 2.02) rotate(-.45)"/>
        <path class="cls-2" d="M232.55,115.76c-1.31,1.6-3.33,1.57-4.59.45-1.35-1.21-1.41-3.31-.17-4.58,1.15-1.17,3.24-1.26,4.6.09.93.92,1.03,2.97.16,4.04Z"/>
        <circle class="cls-2" cx="216.57" cy="48.5" r="3.15" transform="translate(-.37 1.7) rotate(-.45)"/>
        <path class="cls-2" d="M122.73,38.25c-.92-1.11-.89-2.82-.05-3.9s2.52-1.48,3.78-.93c1.36.59,2.05,2.11,1.76,3.62-.24,1.28-1.14,2.09-2.25,2.33-1.2.26-2.31-.02-3.23-1.12Z"/>
        <path class="cls-2" d="M123.63,112.42c.92-.78,2.05-1.05,3.09-.77.9.24,1.93,1.16,2.12,2.19.3,1.61-.36,3.06-1.72,3.7s-2.93.15-3.87-1.02-.85-3.06.38-4.1Z"/>
        <circle class="cls-2" cx="294.74" cy="22.04" r="3.14" transform="translate(-.16 2.32) rotate(-.45)"/>
        <circle class="cls-2" cx="20.98" cy="89.24" r="3.14" transform="translate(-.7 .17) rotate(-.45)"/>
        <path class="cls-2" d="M24.58,166.64c.53,1.76-.43,3.54-1.98,3.94-1.79.46-3.48-.25-3.99-2.07-.45-1.58.26-3.22,1.95-3.86,1.5-.57,3.47.13,4.03,1.99Z"/>
        <path class="cls-2" d="M246.01,73.59c.46,1.78-.36,3.45-2.02,3.92s-3.42-.27-3.99-2.11c-.48-1.55.34-3.35,2.1-3.88,1.5-.45,3.47.35,3.91,2.07Z"/>
        <circle class="cls-2" cx="257.09" cy="218.27" r="3.14" transform="translate(-1.71 2.03) rotate(-.45)"/>
        <path class="cls-2" d="M141.18,208.55c-.79.53-2.27.54-3.08.2-1.85-.78-2.24-3.14-1.22-4.68s3.36-1.74,4.69-.52c1.4,1.29,1.42,3.78-.4,5Z"/>
        <path class="cls-2" d="M102.72,140.05c.61,1.8-.3,3.48-1.91,4.03s-3.38-.25-3.99-1.84.18-3.44,1.64-3.96c1.7-.61,3.62-.08,4.25,1.78Z"/>
        <path class="cls-2" d="M220.62,178.59c.44,1.79-.52,3.34-2.14,3.82s-3.35-.46-3.87-2.08c-.54-1.71.43-3.53,2.02-3.92,1.8-.45,3.54.34,3.99,2.18Z"/>
        <path class="cls-2" d="M338.05,164.26c.44,1.68-.45,3.47-2.01,3.86-1.8.45-3.48-.25-3.99-2.08-.46-1.65.32-3.37,2.1-3.9,1.57-.47,3.43.32,3.9,2.12Z"/>
        <path class="cls-2" d="M10.72,77.92c-.67,1.38-2.31,1.86-3.56,1.53-1.43-.37-2.28-1.57-2.33-3s.8-2.57,2.34-3.11c1.1-.38,2.39.16,3.11.94.84.92,1.04,2.41.44,3.64Z"/>
        <circle class="cls-2" cx="204.15" cy="114.06" r="3.14" transform="translate(-.89 1.61) rotate(-.45)"/>
        <path class="cls-2" d="M216.41,97.98c1.13-.18,2.12.06,2.78.74.69.71,1.02,1.68.87,2.79-.22,1.66-1.64,2.72-3.16,2.67s-2.87-1.27-3.02-2.74c-.16-1.65.68-3.15,2.53-3.45Z"/>
        <circle class="cls-2" cx="295.99" cy="178.79" r="3.14" transform="translate(-1.4 2.33) rotate(-.45)"/>
        <path class="cls-2" d="M36.82,75.16c.56,1.9-.49,3.54-2.15,4.05-1.55.48-3.31-.43-3.8-1.99-.53-1.69.24-3.44,1.93-4.04,1.43-.5,3.52.29,4.01,1.97Z"/>
        <circle class="cls-2" cx="177.1" cy="9.63" r="3.14" transform="translate(-.07 1.39) rotate(-.45)"/>
        <path class="cls-2" d="M180.7,87.13c.45,1.68-.41,3.46-2,3.87-1.72.45-3.47-.31-3.97-2.08-.45-1.58.33-3.41,2.06-3.89,1.62-.45,3.44.33,3.92,2.11Z"/>
        <path class="cls-2" d="M175.91,142.73c-1.16-1.27-1.26-3-.14-4.33,1.23-1.45,3.96-1.3,4.95.32.89,1.45.6,3.2-.55,4.18s-3.07,1.13-4.26-.17Z"/>
        <circle class="cls-2" cx="177.51" cy="62.14" r="3.14" transform="translate(-.48 1.4) rotate(-.45)"/>
        <path class="cls-2" d="M338.4,216.54c.6,1.83-.24,3.54-1.85,4.07s-3.37-.25-4.02-1.85c-.63-1.56.17-3.29,1.69-3.95s3.6-.06,4.18,1.73Z"/>
        <path class="cls-2" d="M271.99,73.76c.28,1.92-.87,3.4-2.45,3.64-1.85.28-3.43-.73-3.7-2.54-.24-1.64.68-3.2,2.41-3.6,1.58-.37,3.46.62,3.74,2.5Z"/>
        <circle class="cls-2" cx="138.23" cy="49.13" r="3.14" transform="translate(-.38 1.09) rotate(-.45)"/>
        <path class="cls-2" d="M253.47,59.48c1.19-1.52,3.83-1.38,4.94.15,1,1.38.71,3.31-.5,4.29s-3.04,1.04-4.16-.06-1.46-2.88-.29-4.38Z"/>
        <circle class="cls-2" cx="256.68" cy="165.76" r="3.14" transform="translate(-1.3 2.02) rotate(-.45)"/>
        <path class="cls-2" d="M58.11,47.14c1.73-1.25,4.38-.18,4.82,1.83.37,1.69-.56,3.2-1.94,3.69-1.49.53-3.15-.05-3.88-1.39s-.45-3.08,1.01-4.13Z"/>
        <circle class="cls-2" cx="178.94" cy="244.76" r="3.14" transform="translate(-1.92 1.41) rotate(-.45)"/>
        <path class="cls-2" d="M102.94,166.03c.53,1.74-.48,3.54-1.99,3.93-1.76.46-3.52-.26-4.02-2.06-.43-1.54.31-3.24,1.97-3.86,1.48-.55,3.47.15,4.04,1.99Z"/>
        <path class="cls-2" d="M206.43,34.49c.65,1.66-.16,3.56-1.72,4.11s-3.47-.1-4.13-1.85c-.52-1.4.11-3.32,1.69-3.95,1.49-.59,3.44-.13,4.16,1.69Z"/>
        <path class="cls-2" d="M70.87,192.89c.21-1.39,1.35-2.35,2.64-2.53,1.36-.19,2.68.57,3.29,1.93.54,1.2.23,2.66-.69,3.47-1.06.94-2.35,1.16-3.61.51s-1.87-1.88-1.64-3.38Z"/>
        <circle class="cls-2" cx="9.18" cy="233.18" r="3.14" transform="translate(-1.83 .08) rotate(-.45)"/>
        <circle class="cls-2" cx="86.91" cy="154.16" r="3.14" transform="translate(-1.21 .69) rotate(-.45)"/>
        <circle class="cls-2" cx="165.29" cy="153.56" r="3.14" transform="translate(-1.2 1.3) rotate(-.45)"/>
        <path class="cls-2" d="M337.19,59.82c.6,1.84-.36,3.43-1.93,4.05s-3.33-.26-3.96-1.85.2-3.41,1.64-3.96c1.65-.63,3.67-.03,4.25,1.77Z"/>
        <path class="cls-2" d="M181.3,165.41c.54,1.76-.45,3.49-2,3.93-1.72.49-3.5-.3-3.99-2.05-.44-1.58.3-3.24,1.96-3.86,1.5-.56,3.46.15,4.03,1.99Z"/>
        <path class="cls-2" d="M194.22,152.6c.35,1.82-.67,3.45-2.38,3.8s-3.26-.6-3.68-2.22c-.44-1.71.47-3.36,2.18-3.88,1.56-.48,3.54.55,3.87,2.3Z"/>
        <path class="cls-2" d="M333.75,241.07c1.37-.92,2.9-.85,3.93.02,1.15.97,1.4,2.5.84,3.76-.64,1.45-2.07,2.02-3.73,1.68-1.1-.23-1.95-1.23-2.15-2.14-.29-1.29.02-2.58,1.12-3.32Z"/>
        <path class="cls-2" d="M320.98,77c-1.68-.15-2.83-1.77-2.74-3.18.1-1.63,1.23-2.75,2.82-3s3.14.88,3.38,2.54c.16,1.11-.03,1.99-.72,2.72s-1.47,1.04-2.75.92Z"/>
        <circle class="cls-2" cx="256.06" cy="87.39" r="3.13" transform="translate(-.68 2.02) rotate(-.45)"/>
        <path class="cls-2" d="M21.47,249.01c-1.57-.29-2.42-1.59-2.38-3.07.05-1.85,1.59-3.1,3.21-3.08,1.94.03,3.19,1.68,3.04,3.39-.17,1.95-1.79,3.14-3.87,2.76Z"/>
        <path class="cls-2" d="M24.41,140.95c.46,1.81-.5,3.31-2.15,3.82-1.56.47-3.44-.53-3.86-2.05-.47-1.74.45-3.56,2.03-3.96,1.75-.44,3.53.42,3.98,2.19Z"/>
        <circle class="cls-2" cx="86.31" cy="75.77" r="3.14" transform="translate(-.59 .68) rotate(-.45)"/>
        <path class="cls-2" d="M232.75,194.59c-1.75,1.37-3.86.82-4.77-.77-1.02-1.77-.27-4.04,1.79-4.56,1.2-.3,2.67,0,3.36.99.92,1.33.87,3.36-.38,4.34Z"/>
        <path class="cls-2" d="M142.24,179.15c.52,1.75-.54,3.39-2.08,3.9-1.65.54-3.42-.49-3.88-2.08s.33-3.36,1.85-3.86c1.73-.58,3.54.13,4.11,2.05Z"/>
        <path class="cls-2" d="M137.29,130.24c-1.22-.58-1.64-1.73-1.56-3,.13-1.92,2.02-3.19,3.77-2.8,1.9.43,2.92,2.33,2.32,4.1s-2.66,2.58-4.53,1.7Z"/>
        <circle class="cls-2" cx="100.58" cy="245.38" r="3.14" transform="translate(-1.93 .8) rotate(-.45)"/>
        <circle class="cls-2" cx="334.45" cy="86.78" r="3.14" transform="translate(-.67 2.63) rotate(-.45)"/>
        <path class="cls-2" d="M103.32,218.39c.62,1.84-.25,3.45-1.87,4.09-1.51.6-3.42-.32-3.99-1.86s.11-3.24,1.67-3.95,3.6-.03,4.19,1.72Z"/>
        <path class="cls-2" d="M148.99,38.51c-1.18-1.14-1.34-2.81-.58-4.09.7-1.18,2.15-1.75,3.63-1.3,1.29.39,2.28,1.66,2.14,3.16-.13,1.42-1.22,2.83-2.81,2.9-.85.04-1.79-.09-2.39-.67Z"/>
        <path class="cls-2" d="M256.98,247.23c-1.87-.1-2.82-1.63-2.81-3.23.01-1.57,1.31-2.93,2.97-2.95s3.13,1.02,3.27,2.78c.07.92-.18,1.86-.74,2.48-.6.65-1.59.99-2.69.94Z"/>
        <path class="cls-2" d="M96.56,90.1c-.74-1.5-.25-3.36,1.11-4.11s3.29-.59,4.26.85c1.04,1.54.56,3.46-.92,4.4s-3.63.56-4.46-1.14Z"/>
        <circle class="cls-2" cx="48.05" cy="193.67" r="3.13" transform="translate(-1.52 .38) rotate(-.45)"/>
        <circle class="cls-2" cx="60.88" cy="180.64" r="3.13" transform="translate(-1.42 .48) rotate(-.45)"/>
        <path class="cls-2" d="M228.92,38.54c-1.84-.17-2.7-1.84-2.6-3.45.09-1.43,1.39-2.66,3.01-2.73,1.47-.06,2.99.92,3.17,2.6.1.92-.16,2-.71,2.61-.64.72-1.72,1.09-2.87.98Z"/>
        <path class="cls-2" d="M72.53,112.1c1.75-.37,3.09.31,3.66,1.79.69,1.76-.06,3.42-1.71,4.08s-3.5-.1-4.07-1.73c-.63-1.79.16-3.73,2.11-4.15Z"/>
        <path class="cls-2" d="M202.15,190.81c.93-1.42,2.41-1.76,3.75-1.32,1.43.48,2.18,1.91,1.94,3.49-.3,1.94-2.33,3.04-4.04,2.42-1.85-.67-2.8-2.83-1.65-4.6Z"/>
        <path class="cls-2" d="M247.22,230.35c.53,1.72-.38,3.53-2.12,3.96-1.58.39-3.21-.36-3.83-2.04-.57-1.54.31-3.22,1.97-3.91,1.51-.62,3.44.24,3.98,2Z"/>
        <path class="cls-2" d="M168.87,230.96c.54,1.76-.37,3.42-2.12,3.99-1.5.49-3.21-.41-3.83-2.06-.56-1.5.31-3.24,1.95-3.91,1.53-.62,3.46.23,4,1.98Z"/>
        <path class="cls-2" d="M110.45,231.3c.32-1.23,1.48-1.86,2.62-2.05,1.04-.17,2.18.37,2.92,1.32.91,1.16.71,2.76-.2,3.8-.97,1.12-2.5,1.45-3.78.76s-2-2.15-1.56-3.84Z"/>
        <path class="cls-2" d="M48.41,39.62c-1.28.68-2.84.43-3.75-.5s-1.33-2.39-.65-3.69c.63-1.2,2-1.82,3.17-1.62,1.32.23,2.42,1.13,2.63,2.27.25,1.38-.1,2.84-1.41,3.54Z"/>
      </g>
    </g>
  </g>
</svg>