<?xml version="1.0" encoding="UTF-8"?>
<svg id="_레이어_1" data-name="레이어 1" xmlns="http://www.w3.org/2000/svg" xmlns:xlink="http://www.w3.org/1999/xlink" viewBox="0 0 342.6 253.33">
  <defs>
    <style>
      .cls-1 {
        fill: none;
      }

      .cls-2 {
        fill: #f55;
      }

      .cls-3 {
        fill: #fff;
      }

      .cls-4 {
        clip-path: url(#clippath);
      }
    </style>
    <clipPath id="clippath">
      <path class="cls-1" d="M17.8,239.42L15.8,15.42l309-1.5,2,223.5-309,2Z"/>
    </clipPath>
  </defs>
  <g class="cls-4">
   <g transform="translate(15.8 13.92)">
    <path class="cls-2" d="M-.48-.5h311v226H-.48V-.5ZM145,211.77c1.95-1.1,3.73-2.13,5.77-2.62,3.47-.84,7.14-.75,10.47.54l9.94,3.85c7.85,3.04,15.93,6.09,24.32,3.84,3.09-.83,5.78-2.35,8.53-4,5.7-3.43,11.93-5.16,18.4-4.47l7.05.75c7.38.79,13.33.6,19.78-4.17,4.64-3.43,7.47-7.45,9.84-13,1.49-3.48,3.52-6.37,6.28-8.77l7.6-5.72c3.63-2.41,7.09-4.92,10.24-8.02,1.65-1.62,2.89-3.34,4.01-5.4,1.3-2.39,2.67-4.68,3.31-7.46.73-3.15,1.11-6.62.49-9.82-.7-3.61-1.22-6.93-.98-10.65.13-2.01-.35-4.01-.79-5.95l-2.11-9.21c-.85-5.37-.45-10.59.71-15.84l.94-4.25c.75-3.39,1.62-6.64,1.8-10.17.35-6.89-1.14-13.47-3.94-19.6-4.42-9.7-9.25-15-17.74-20.43-4.84-3.09-8.89-7.65-12-12.71l-1.58-2.57c-1.73-2.82-3.37-5.54-5.43-8.11-3-3.73-8.43-8.09-12.95-7.91-3.9.15-9.03,3.68-14.98.4l-6.75-3.72c-9.14-5.04-16.79-8.63-27.4-6.17-4.6,1.07-8.79,3.04-13.05,5.15-6.71,3.33-13.12,5.39-20.53,3.98-3.33-.64-6.35-1.97-9.38-3.56-3.42-1.81-6.78-3.04-10.49-3.95-4.96-1.21-9.75-1.1-14.63.45-3.23,1.03-6.54,1.37-9.88,1.23l-5.4-.22-10.59-1.55c-7.02-1.03-14.07-.14-20.6,2.79-4.79,2.14-9.53,5.68-13.76,8.96l-9.09,7.06c-.76.59-1.49,1.45-2.16,2.16-1.66,1.78-2.79,3.96-3.79,6.28-3.25,7.54-7.15,12.25-13.06,17.4-2.15,1.88-4.07,3.77-5.69,6.23-3.6,5.47-4.72,12.17-4.47,18.91.27,6.99.94,13.65,1.94,20.56,1.14,7.9,1.27,15.63-.03,23.5l-2.02,12.24c-.98,5.92-.46,11.97,1.43,17.56,1.23,3.66,2.65,7.03,5.3,9.68l8.08,8.1c2.59,2.59,4.8,5.46,6.74,8.68l2.7,5.63c2.34,5.94,7.17,11.97,12.23,15.18l4.6,2.92c4.75,2.6,9.63,4.55,14.95,5.34,3.02.45,6.02.66,9.03.08l8.64-1.64c5.79-1.1,11.51.05,17.04,2.18l7.37,2.83,6.45,1.32c6.69.88,13.27-.71,19.32-4.13Z"/>
    <path class="cls-3" d="M145,211.77c-6.05,3.42-12.62,5.02-19.32,4.13l-6.45-1.32-7.37-2.83c-5.53-2.12-11.25-3.28-17.04-2.18l-8.64,1.64c-3.01.57-6.01.36-9.03-.08-5.31-.79-10.2-2.74-14.95-5.34l-4.6-2.92c-5.06-3.21-9.89-9.25-12.23-15.18l-2.7-5.63c-1.94-3.22-4.16-6.08-6.74-8.68l-8.08-8.1c-2.64-2.65-4.06-6.02-5.3-9.68-1.89-5.59-2.41-11.63-1.43-17.56l2.02-12.24c1.3-7.86,1.17-15.59.03-23.5-1-6.91-1.67-13.57-1.94-20.56-.26-6.74.86-13.45,4.47-18.91,1.62-2.46,3.54-4.36,5.69-6.23,5.91-5.15,9.81-9.86,13.06-17.4,1-2.31,2.12-4.5,3.79-6.28.67-.71,1.4-1.58,2.16-2.16l9.09-7.06c4.23-3.28,8.97-6.82,13.76-8.96,6.53-2.92,13.58-3.82,20.6-2.79l10.59,1.55,5.4.22c3.34.14,6.65-.2,9.88-1.23,4.88-1.55,9.68-1.66,14.63-.45,3.71.9,7.07,2.14,10.49,3.95,3.02,1.6,6.05,2.93,9.38,3.56,7.41,1.42,13.82-.65,20.53-3.98,4.26-2.11,8.45-4.09,13.05-5.15,10.61-2.45,18.26,1.13,27.4,6.17l6.75,3.72c5.94,3.28,11.07-.25,14.98-.4,4.53-.18,9.95,4.18,12.95,7.91,2.07,2.57,3.7,5.3,5.43,8.11l1.58,2.57c3.11,5.05,7.16,9.61,12,12.71,8.49,5.43,13.32,10.73,17.74,20.43,2.8,6.14,4.29,12.71,3.94,19.6-.18,3.53-1.05,6.78-1.8,10.17l-.94,4.25c-1.16,5.25-1.56,10.47-.71,15.84l2.11,9.21c.44,1.94.93,3.94.79,5.95-.25,3.72.28,7.04.98,10.65.62,3.2.24,6.67-.49,9.82-.64,2.77-2.01,5.06-3.31,7.46-1.12,2.06-2.36,3.77-4.01,5.4-3.15,3.1-6.6,5.6-10.24,8.02l-7.6,5.72c-2.75,2.4-4.79,5.29-6.28,8.77-2.37,5.55-5.2,9.57-9.84,13-6.45,4.77-12.4,4.95-19.78,4.17l-7.05-.75c-6.47-.69-12.7,1.04-18.4,4.47-2.75,1.66-5.44,3.18-8.53,4-8.39,2.24-16.46-.8-24.32-3.84l-9.94-3.85c-3.33-1.29-7-1.38-10.47-.54-2.04.49-3.82,1.52-5.77,2.62Z"/>
   </g>
  </g>
</svg>
