<svg width="334" height="334" viewBox="0 0 334 334" fill="none" xmlns="http://www.w3.org/2000/svg">
<g clip-path="url(#clip0_1356_6244)">
<rect width="334" height="334" fill="#FDFEFE"/>
<path d="M263.32 65.0512C265.736 65.0267 267.675 63.0483 267.65 60.6322C267.626 58.2162 265.648 56.2774 263.232 56.3019C260.816 56.3264 258.877 58.3048 258.901 60.7208C258.926 63.1368 260.904 65.0756 263.32 65.0512Z" fill="#A9CBEC"/>
<path d="M68.4356 259.768C67.3554 258.89 67.0313 257.378 67.0988 256.055C67.1664 254.731 68.0575 253.557 69.2998 252.679C71.0416 251.45 73.4451 252.179 74.8358 253.786C76.3346 255.515 76.0781 258.134 74.5793 259.579C72.932 261.172 70.4205 261.361 68.4356 259.754V259.768Z" fill="#A9CBEC"/>
<path d="M278.01 146.481C278.874 144.658 280.899 143.996 282.79 144.293C284.369 144.536 285.841 146.049 286.219 147.818C286.597 149.586 285.706 151.666 283.978 152.462C282.25 153.259 280.251 152.989 278.874 151.693C277.605 150.505 277.092 148.439 278.023 146.481H278.01Z" fill="#A9CBEC"/>
<path d="M331.169 202.152C331.007 201.369 331.047 200.019 331.223 199.452C331.79 197.602 333.491 196.67 335.125 196.603C336.908 196.522 338.798 197.494 339.379 199.236C340.202 201.72 339.203 204.191 337.002 204.988C334.801 205.785 331.736 204.92 331.182 202.166L331.169 202.152Z" fill="#A9CBEC"/>
<path d="M13.6558 204.839C13.2102 202.787 14.682 200.734 16.3294 200.1C18.3682 199.303 20.6637 200.1 21.7439 201.828C22.8241 203.556 22.5811 206.041 20.9607 207.391C19.6105 208.525 18.1387 208.822 16.4779 208.174C15.2626 207.702 14.0474 206.662 13.6558 204.839Z" fill="#A9CBEC"/>
<path d="M128.144 202.665C128.373 205.257 126.55 207.148 124.241 207.391C121.757 207.661 119.677 205.973 119.461 203.529C119.245 201.085 120.717 199.073 123.053 198.749C125.511 198.398 127.914 200.113 128.13 202.665H128.144Z" fill="#A9CBEC"/>
<path d="M215.546 293.66C213.588 295.078 210.766 294.889 209.375 293.053C208.133 291.392 208.133 289.34 209.186 287.665C210.077 286.261 212.197 285.572 214.088 286.072C215.667 286.49 216.734 287.976 216.977 289.299C217.274 290.933 216.829 292.729 215.532 293.66H215.546Z" fill="#A9CBEC"/>
<path d="M129.17 308.283C129.508 310.983 127.604 312.968 125.349 313.157C122.851 313.373 120.812 311.888 120.515 309.309C120.259 307.122 121.906 304.907 124.12 304.529C126.335 304.151 128.86 305.771 129.17 308.283Z" fill="#A9CBEC"/>
<path d="M101.287 12.7642C99.4773 11.3464 99.2208 8.28133 100.76 6.48548C101.395 5.74283 102.974 5.13522 103.866 5.0542C105.932 4.87867 107.525 6.16142 108.159 7.71422C108.97 9.6856 108.349 11.63 106.742 12.8317C105.229 13.9659 103.123 14.2225 101.273 12.7642H101.287Z" fill="#A9CBEC"/>
<path d="M207.999 110.835C209.362 109.606 211.847 109.431 213.197 110.335C215.263 111.713 215.898 114.346 214.75 116.25C213.508 118.315 211.118 119.166 208.714 117.91C206.311 116.655 205.717 112.887 207.999 110.848V110.835Z" fill="#A9CBEC"/>
<path d="M146.885 325.04C147.682 327.619 146.305 329.954 144.05 330.589C141.795 331.224 139.283 330.13 138.595 327.821C137.906 325.512 138.959 323.19 141.12 322.366C143.28 321.542 146.089 322.501 146.885 325.053V325.04Z" fill="#A9CBEC"/>
<path d="M155.014 170.07C153.921 168.341 154.015 166.005 155.244 164.642C156.473 163.278 158.795 162.873 160.496 163.629C161.658 164.142 162.535 165.398 162.832 166.316C163.264 167.68 162.9 169.017 162.049 170.205C160.469 172.433 156.594 172.541 155.014 170.07Z" fill="#A9CBEC"/>
<path d="M153.934 131.425C154.137 129.413 155.528 128.387 157.094 127.942C158.701 127.483 160.659 127.915 161.698 129.346C162.954 131.074 162.9 133.221 161.671 134.801C160.443 136.381 158.593 136.88 156.702 136.178C154.812 135.476 153.718 133.734 153.934 131.425Z" fill="#A9CBEC"/>
<path d="M180.507 149.276C180.763 151.68 178.765 153.854 176.631 154.002C174.147 154.178 172.162 152.53 171.784 150.127C171.433 147.845 173.202 145.685 175.362 145.361C177.887 144.983 180.21 146.684 180.493 149.276H180.507Z" fill="#A9CBEC"/>
<path d="M90.9301 25.5516C91.7403 27.982 90.4981 30.426 88.2701 31.1281C86.0422 31.8303 83.3822 30.8041 82.68 28.3736C82.0589 26.1997 82.9771 23.7962 85.2725 22.9456C87.3655 22.1489 90.0795 22.9861 90.9436 25.5651L90.9301 25.5516Z" fill="#A9CBEC"/>
<path d="M17.6649 94.0092C18.6371 94.1308 19.5823 94.6574 20.1089 95.2515C21.5672 96.9123 21.7157 99.2888 20.4735 100.936C19.2312 102.583 16.8683 103.272 14.9779 102.246C13.1956 101.26 12.1019 99.2077 12.7365 97.1824C13.3441 95.238 15.2615 93.6987 17.6649 94.0092Z" fill="#A9CBEC"/>
<path d="M-1.62372 14.8319C0.792314 14.8075 2.73107 12.829 2.70662 10.413C2.68216 7.99697 0.703743 6.05821 -1.71229 6.08267C-4.12833 6.10713 -6.06709 8.08554 -6.04263 10.5016C-6.01817 12.9176 -4.03976 14.8564 -1.62372 14.8319Z" fill="#A9CBEC"/>
<path d="M102.151 219.503C102.462 218.436 103.191 217.586 104.109 217.153C106.081 216.249 108.43 216.532 109.713 218.274C110.834 219.773 110.996 222.271 109.618 223.81C108.255 225.336 106.054 225.836 104.244 224.863C102.421 223.878 101.463 221.879 102.151 219.516V219.503Z" fill="#A9CBEC"/>
<path d="M245.369 12.3461C247.785 12.3216 249.724 10.3432 249.7 7.92716C249.675 5.51113 247.697 3.57237 245.281 3.59683C242.865 3.62129 240.926 5.5997 240.951 8.01574C240.975 10.4318 242.953 12.3705 245.369 12.3461Z" fill="#A9CBEC"/>
<path d="M1.60284 332.203C4.01888 332.179 5.95764 330.2 5.93318 327.784C5.90872 325.368 3.93031 323.429 1.51427 323.454C-0.901769 323.478 -2.84052 325.457 -2.81607 327.873C-2.79161 330.289 -0.813199 332.227 1.60284 332.203Z" fill="#A9CBEC"/>
<path d="M55.6751 26.2938C56.2422 28.6703 54.7839 31.0198 52.664 31.5734C50.22 32.208 47.8301 30.9522 47.1819 28.5083C46.5878 26.2668 47.9111 23.7418 50.301 23.1612C52.529 22.6076 55.108 23.8769 55.6886 26.3073L55.6751 26.2938Z" fill="#A9CBEC"/>
<path d="M258.619 24.5921C258.822 22.8638 260.01 21.6215 261.225 21.1625C262.751 20.5818 264.29 20.9329 265.708 21.8646C267.356 22.9448 267.734 25.6048 266.829 27.2656C265.789 29.1695 263.804 29.9662 261.657 29.3855C259.821 28.8994 258.363 26.9416 258.633 24.5921H258.619Z" fill="#A9CBEC"/>
<path d="M181.56 255.015C181.803 257.54 179.926 259.592 177.698 259.768C175.24 259.957 173.134 258.35 172.85 255.906C172.594 253.705 174.255 251.504 176.496 251.126C178.886 250.721 181.33 252.557 181.573 255.028L181.56 255.015Z" fill="#A9CBEC"/>
<path d="M264.018 135.39C266.427 135.365 268.36 133.393 268.335 130.984C268.311 128.576 266.339 126.643 263.93 126.667C261.521 126.692 259.589 128.664 259.613 131.073C259.637 133.481 261.61 135.414 264.018 135.39Z" fill="#A9CBEC"/>
<path d="M107.379 331.146C109.795 331.121 111.734 329.143 111.71 326.727C111.685 324.311 109.707 322.372 107.291 322.397C104.875 322.421 102.936 324.4 102.96 326.816C102.985 329.232 104.963 331.17 107.379 331.146Z" fill="#A9CBEC"/>
<path d="M316.406 81.9857C318.822 81.9613 320.76 79.9829 320.736 77.5668C320.711 75.1508 318.733 73.212 316.317 73.2365C313.901 73.2609 311.962 75.2393 311.987 77.6554C312.011 80.0714 313.99 82.0102 316.406 81.9857Z" fill="#A9CBEC"/>
<path d="M191.822 170.893C190.202 169.786 189.446 168.274 189.716 166.478C189.932 165.02 191.161 163.278 192.821 162.981C195.036 162.576 196.764 163.291 197.831 165.06C198.736 166.559 198.519 168.8 197.183 170.232C195.846 171.663 193.605 172.109 191.822 170.893Z" fill="#A9CBEC"/>
<path d="M39.9719 220.083C40.8496 222.608 39.7288 224.985 37.4334 225.795C35.138 226.605 32.775 225.538 31.8838 223.243C31.0332 221.096 31.9648 218.585 34.0577 217.734C36.3262 216.816 39.0807 217.531 39.9719 220.07V220.083Z" fill="#A9CBEC"/>
<path d="M234.95 307.514C235.085 310.201 233.14 312.091 230.818 312.132C228.495 312.172 226.402 310.43 226.267 308.04C226.132 305.65 227.915 303.638 230.156 303.422C232.627 303.179 234.815 304.881 234.95 307.514Z" fill="#A9CBEC"/>
<path d="M66.1261 151.396C65.9236 149.749 66.3422 148.236 67.3954 147.426C69.6098 145.711 72.7694 146.116 74.0927 148.371C75.4159 150.626 74.5653 153.556 72.2293 154.664C69.7043 155.865 66.4907 154.448 66.1261 151.396Z" fill="#A9CBEC"/>
<path d="M162.602 276.579C160.28 278.482 157.201 277.807 155.959 275.593C154.649 273.257 155.419 270.435 158.025 269.26C160.145 268.301 163.264 269.503 163.926 272.136C164.277 273.554 163.777 275.606 162.602 276.565V276.579Z" fill="#A9CBEC"/>
<path d="M19.1218 314.298C21.5304 314.274 23.4631 312.302 23.4388 309.893C23.4144 307.484 21.4421 305.552 19.0335 305.576C16.6249 305.6 14.6921 307.573 14.7165 309.981C14.7409 312.39 16.7132 314.323 19.1218 314.298Z" fill="#A9CBEC"/>
<path d="M300.464 170.38C298.02 170.799 295.941 169.097 295.495 167.018C295.009 164.709 296.616 162.4 298.547 161.941C301.22 161.32 303.448 162.603 304.002 165.128C304.556 167.653 303.246 169.894 300.464 170.38Z" fill="#A9CBEC"/>
<path d="M216.275 218.99C216.734 221.421 215.276 223.581 213.075 224.148C210.874 224.715 208.268 223.243 207.823 221.137C207.269 218.518 208.538 216.222 210.888 215.722C213.332 215.209 215.776 216.425 216.275 218.99Z" fill="#A9CBEC"/>
<path d="M287.299 253.948C287.542 256.406 285.611 258.512 283.465 258.701C280.926 258.931 278.941 257.27 278.631 254.772C278.361 252.598 280.075 250.343 282.236 249.992C284.707 249.601 287.056 251.396 287.313 253.935L287.299 253.948Z" fill="#A9CBEC"/>
<path d="M191.228 30.0481C189.013 29.4539 188.001 27.2125 188.311 25.1601C188.608 23.1887 190.445 21.6494 192.511 21.5819C194.576 21.5144 196.48 22.9187 196.858 25.0656C197.155 26.7399 196.75 28.0362 195.67 29.1029C194.59 30.1696 193.037 30.5612 191.214 30.0616L191.228 30.0481Z" fill="#A9CBEC"/>
<path d="M161.414 25.4028C161.941 28.0088 160.266 30.1422 158.106 30.5473C155.581 31.0334 153.421 29.6426 152.921 27.1311C152.462 24.8897 153.745 22.6213 156.081 22.0407C158.417 21.46 160.888 22.8103 161.414 25.3893V25.4028Z" fill="#A9CBEC"/>
<path d="M211.117 188.757C209.2 188.622 208.066 187.258 207.58 185.895C206.985 184.247 207.444 182.276 208.727 181.223C210.442 179.832 212.467 179.778 214.142 180.818C215.816 181.857 216.464 184.031 215.816 185.841C215.168 187.65 213.453 188.919 211.117 188.757Z" fill="#A9CBEC"/>
<path d="M232.735 205.028C231.574 206.257 229.913 206.527 228.428 206.216C227.185 205.96 225.795 204.839 225.443 203.354C224.971 201.369 225.497 199.424 227.064 198.371C228.63 197.318 230.615 197.305 232.316 198.56C234.153 199.897 234.436 203.246 232.735 205.028Z" fill="#A9CBEC"/>
<path d="M3.24428 79.7237C3.78439 82.1946 2.52864 84.3956 0.260204 84.9897C-2.15676 85.6243 -4.49271 84.3821 -5.15434 81.8976C-5.76196 79.6156 -4.51972 77.1312 -1.99473 76.591C0.260207 76.1185 2.67717 77.1852 3.23078 79.7102L3.24428 79.7237Z" fill="#A9CBEC"/>
<path d="M244.9 327.659C243.685 325.93 244.036 323.729 245.279 322.379C246.521 321.029 248.776 320.529 250.45 321.394C252.273 322.339 253.151 324.229 252.799 326.416C252.516 328.118 251.044 329.198 249.559 329.59C247.79 330.035 246.048 329.279 244.914 327.672L244.9 327.659Z" fill="#A9CBEC"/>
<path d="M319.826 6.01307C320.528 8.38953 319.03 10.874 316.91 11.3871C314.506 11.9677 311.954 10.82 311.387 8.33552C310.888 6.10759 311.887 3.87966 314.385 3.056C316.383 2.39437 319.084 3.43407 319.826 6.01307Z" fill="#A9CBEC"/>
<path d="M0.62483 296.644C-1.50858 296.536 -2.95336 294.551 -3.11539 292.877C-3.30443 290.838 -2.19722 288.759 -0.19883 288.245C2.60971 287.516 5.40476 289.164 5.52628 292.04C5.58029 293.309 5.16171 294.754 4.39206 295.51C3.50089 296.387 2.16413 296.725 0.62483 296.644Z" fill="#A9CBEC"/>
<path d="M340.688 305.934C341.026 308.54 339.527 310.511 337.367 310.956C334.788 311.483 332.6 309.984 332.155 307.608C331.696 305.11 333.086 302.909 335.625 302.409C337.799 301.991 340.391 303.625 340.688 305.934Z" fill="#A9CBEC"/>
<path d="M109.051 78.6711C109.591 81.0611 108.214 83.3295 106.027 83.9101C103.569 84.5582 101.26 83.343 100.625 80.8315C100.058 78.5496 101.287 76.1056 103.731 75.5115C105.999 74.9714 108.47 76.1596 109.038 78.6711H109.051Z" fill="#A9CBEC"/>
<path d="M317.449 187.762C319.857 187.738 321.79 185.765 321.766 183.357C321.742 180.948 319.769 179.015 317.361 179.04C314.952 179.064 313.019 181.037 313.044 183.445C313.068 185.854 315.04 187.786 317.449 187.762Z" fill="#A9CBEC"/>
<path d="M90.8227 171.826C88.9188 173 86.9474 172.771 85.5161 171.569C84.0038 170.313 83.3962 168.207 84.3414 166.33C85.2326 164.575 86.9204 163.751 88.8108 163.94C90.3771 164.102 92.0784 165.412 92.4565 166.911C92.9291 168.761 92.4565 170.813 90.8227 171.812V171.826Z" fill="#A9CBEC"/>
<path d="M318.879 328.964C321.287 328.94 323.22 326.968 323.196 324.559C323.171 322.15 321.199 320.218 318.79 320.242C316.382 320.266 314.449 322.239 314.473 324.647C314.498 327.056 316.47 328.989 318.879 328.964Z" fill="#A9CBEC"/>
<path d="M34.5407 84.7982C36.9493 84.7738 38.8821 82.8015 38.8577 80.3929C38.8333 77.9844 36.861 76.0516 34.4524 76.076C32.0439 76.1004 30.1111 78.0727 30.1355 80.4812C30.1598 82.8898 32.1322 84.8226 34.5407 84.7982Z" fill="#A9CBEC"/>
<path d="M87.9577 137.171C90.3663 137.147 92.2991 135.175 92.2747 132.766C92.2503 130.357 90.278 128.425 87.8694 128.449C85.4608 128.473 83.5281 130.446 83.5524 132.854C83.5768 135.263 85.5491 137.196 87.9577 137.171Z" fill="#A9CBEC"/>
<path d="M214.074 7.32295C214.614 10.037 213.061 12.1704 210.644 12.589C208.227 13.0076 206.148 11.6978 205.635 9.32134C205.122 6.94488 206.418 4.74395 208.876 4.05532C210.996 3.4612 213.575 4.83847 214.074 7.33645V7.32295Z" fill="#A9CBEC"/>
<path d="M330.116 96.3999C329.536 94.1315 330.413 92.3356 332.155 91.3094C333.749 90.3642 336.301 90.6613 337.489 92.1736C339.312 94.4825 338.785 97.6151 336.503 98.8844C334.046 100.262 330.886 99.357 330.116 96.3999Z" fill="#A9CBEC"/>
<path d="M105.189 189.798C102.651 189.46 101.193 187.097 101.625 184.667C102.057 182.304 104.325 180.818 107.039 181.304C109.213 181.696 110.523 184.099 110.199 186.246C109.861 188.515 107.62 190.135 105.176 189.798H105.189Z" fill="#A9CBEC"/>
<path d="M194.091 241.782C191.688 241.58 190.27 239.284 190.405 237.205C190.553 235.112 192.268 233.357 194.429 233.154C196.589 232.952 198.749 234.572 199.047 236.868C199.222 238.245 198.817 239.568 198.007 240.486C197.143 241.458 195.752 241.917 194.078 241.769L194.091 241.782Z" fill="#A9CBEC"/>
<path d="M260.064 165.668C260.374 163.264 262.832 161.887 265.127 162.224C267.504 162.575 269.03 164.857 268.679 167.085C268.314 169.462 266.181 171.15 263.966 170.812C261.441 170.42 259.686 168.611 260.064 165.681V165.668Z" fill="#A9CBEC"/>
<path d="M37.0275 331.83C39.4361 331.806 41.3689 329.834 41.3445 327.425C41.3201 325.017 39.3478 323.084 36.9392 323.108C34.5307 323.133 32.5979 325.105 32.6223 327.513C32.6467 329.922 34.619 331.855 37.0275 331.83Z" fill="#A9CBEC"/>
<path d="M52.5192 137.53C54.9278 137.506 56.8606 135.533 56.8362 133.125C56.8118 130.716 54.8395 128.784 52.4309 128.808C50.0224 128.832 48.0896 130.805 48.114 133.213C48.1384 135.622 50.1107 137.555 52.5192 137.53Z" fill="#A9CBEC"/>
<path d="M297.034 239.176C295.387 236.732 296.238 233.964 298.398 232.614C300.437 231.345 303.516 232.465 304.447 234.545C305.581 237.07 304.285 240.121 301.585 240.621C299.924 240.931 297.952 240.54 297.021 239.176H297.034Z" fill="#A9CBEC"/>
<path d="M264.021 276.389C261.914 275.849 261.104 273.878 261.118 272.082C261.118 270.178 262.441 268.679 264.129 268.153C266.06 267.545 268.234 268.247 269.206 270.003C270.124 271.663 269.949 273.446 268.909 274.958C267.991 276.281 265.992 276.889 264.034 276.403L264.021 276.389Z" fill="#A9CBEC"/>
<path d="M109.402 114.251C110.077 116.708 108.336 118.801 106.202 119.449C103.893 120.151 101.449 118.463 100.977 116.398C100.41 113.913 101.625 111.645 103.799 111.051C106.31 110.362 108.646 111.496 109.402 114.251Z" fill="#A9CBEC"/>
<path d="M322.055 217.95C322.581 220.327 321.042 222.514 318.828 223.081C316.613 223.648 314.021 222.149 313.575 220.07C313.021 217.532 314.399 215.155 316.627 214.642C319.152 214.061 321.488 215.371 322.055 217.937V217.95Z" fill="#A9CBEC"/>
<path d="M301.774 63.4936C299.749 65.2625 297.089 64.8439 295.631 63.3721C293.889 61.6168 294.051 59.0513 295.509 57.377C296.967 55.7026 299.87 55.5001 301.734 57.1339C303.448 58.6327 303.543 61.9409 301.774 63.5072V63.4936Z" fill="#A9CBEC"/>
<path d="M88.0414 242.795C85.692 242.43 84.3417 240.081 84.6793 238.029C85.0168 235.976 86.7587 234.248 88.8921 234.234C91.012 234.234 93.0374 235.666 93.3074 237.934C93.4965 239.487 93.0509 240.756 92.0922 241.742C91.1335 242.728 89.7292 243.065 88.0414 242.795Z" fill="#A9CBEC"/>
<path d="M56.0669 61.9951C56.58 64.2095 54.8922 66.613 52.8263 67.0585C50.4093 67.5851 48.0733 66.1539 47.5603 64.0205C46.9661 61.536 48.4379 59.146 50.6118 58.6464C53.1908 58.0388 55.4593 59.362 56.0669 61.9951Z" fill="#A9CBEC"/>
<path d="M37.5814 119.354C35.313 120.988 32.734 120.3 31.3162 118.436C29.8984 116.573 30.425 113.683 32.2344 112.401C34.3678 110.875 37.1898 111.388 38.6211 113.71C39.6473 115.398 39.2827 118.139 37.5949 119.354H37.5814Z" fill="#A9CBEC"/>
<path d="M155.595 240.284C154.609 238.542 154.771 236.557 155.878 235.153C156.918 233.816 158.889 233.235 160.888 233.856C162.265 234.289 163.656 236.017 163.683 237.88C163.71 239.906 162.319 241.526 160.523 242.053C158.835 242.552 156.608 242.053 155.608 240.27L155.595 240.284Z" fill="#A9CBEC"/>
<path d="M140.318 83.7543C142.726 83.7299 144.659 81.7576 144.635 79.349C144.61 76.9404 142.638 75.0076 140.229 75.032C137.821 75.0564 135.888 77.0287 135.912 79.4373C135.937 81.8459 137.909 83.7786 140.318 83.7543Z" fill="#A9CBEC"/>
<path d="M142.821 111.037C144.361 111.78 144.955 113.413 144.928 114.885C144.901 116.357 144.145 117.991 142.659 118.706C140.715 119.638 138.595 119.098 137.38 117.734C135.908 116.073 135.962 113.859 137.137 112.225C138.393 110.483 140.715 110.024 142.835 111.037H142.821Z" fill="#A9CBEC"/>
<path d="M300.9 276.259C303.301 276.235 305.228 274.269 305.204 271.868C305.179 269.466 303.213 267.54 300.812 267.564C298.411 267.588 296.484 269.554 296.508 271.956C296.533 274.357 298.499 276.283 300.9 276.259Z" fill="#A9CBEC"/>
<path d="M145.494 183.937C146.183 186.462 144.819 188.771 142.51 189.351C140.282 189.905 137.703 188.73 137.096 186.273C136.583 184.193 137.676 181.668 139.985 181.034C142.294 180.399 144.792 181.331 145.494 183.937Z" fill="#A9CBEC"/>
<path d="M141.733 224.97C144.141 224.945 146.074 222.973 146.05 220.564C146.025 218.156 144.053 216.223 141.644 216.247C139.236 216.272 137.303 218.244 137.327 220.653C137.352 223.061 139.324 224.994 141.733 224.97Z" fill="#A9CBEC"/>
<path d="M143.847 295.037C141.754 295.59 139.944 294.996 138.797 293.416C137.771 292.012 137.676 289.906 138.918 288.245C139.904 286.921 141.983 286.26 143.86 286.867C145.616 287.435 146.669 289.095 146.723 290.783C146.777 292.579 145.832 294.523 143.847 295.05V295.037Z" fill="#A9CBEC"/>
<path d="M210.642 83.015C213.05 82.9906 214.983 81.0183 214.959 78.6097C214.934 76.2012 212.962 74.2684 210.553 74.2928C208.145 74.3171 206.212 76.2895 206.237 78.698C206.261 81.1066 208.233 83.0394 210.642 83.015Z" fill="#A9CBEC"/>
<path d="M246.068 82.6703C248.476 82.6459 250.409 80.6736 250.385 78.265C250.36 75.8564 248.388 73.9237 245.979 73.948C243.571 73.9724 241.638 75.9447 241.662 78.3533C241.687 80.7619 243.659 82.6947 246.068 82.6703Z" fill="#A9CBEC"/>
<path d="M245.67 109.498C247.182 109.282 248.532 109.633 249.424 110.524C250.247 111.361 250.76 112.617 250.72 114.008C250.652 116.222 248.654 117.991 246.642 118.113C244.347 118.261 242.389 116.56 242.078 114.413C241.754 112.158 243.145 109.863 245.67 109.498Z" fill="#A9CBEC"/>
<path d="M107.021 295.707C109.429 295.683 111.362 293.711 111.338 291.302C111.313 288.894 109.341 286.961 106.932 286.985C104.524 287.01 102.591 288.982 102.615 291.39C102.64 293.799 104.612 295.732 107.021 295.707Z" fill="#A9CBEC"/>
<path d="M247.51 223.9C249.919 223.875 251.851 221.903 251.827 219.495C251.803 217.086 249.83 215.153 247.422 215.178C245.013 215.202 243.08 217.174 243.105 219.583C243.129 221.991 245.101 223.924 247.51 223.9Z" fill="#A9CBEC"/>
<path d="M247.236 294.064C244.441 293.591 243.051 290.458 244.158 288.15C245.265 285.841 248.114 284.814 250.383 286.138C252.651 287.461 253.205 290.621 251.476 292.781C250.558 293.942 248.978 294.361 247.236 294.064Z" fill="#A9CBEC"/>
<path d="M217.248 324.378C218.017 326.835 216.505 329.131 214.371 329.819C212.09 330.562 209.659 329.32 208.943 327.105C208.228 324.891 209.443 322.393 211.482 321.623C213.764 320.773 216.451 321.839 217.248 324.364V324.378Z" fill="#A9CBEC"/>
<path d="M36.6822 296.379C39.0834 296.354 41.0101 294.388 40.9858 291.987C40.9615 289.586 38.9953 287.659 36.5942 287.684C34.1931 287.708 32.2663 289.674 32.2906 292.075C32.3149 294.476 34.2811 296.403 36.6822 296.379Z" fill="#A9CBEC"/>
<path d="M193.735 136.114C196.144 136.09 198.076 134.117 198.052 131.709C198.028 129.3 196.055 127.368 193.647 127.392C191.238 127.416 189.305 129.389 189.33 131.797C189.354 134.206 191.326 136.139 193.735 136.114Z" fill="#A9CBEC"/>
<path d="M52.705 172.986C49.8154 172.811 48.2626 170.583 48.5192 168.166C48.8027 165.547 51.0711 163.94 53.7312 164.399C56.0536 164.79 57.8495 167.315 57.0123 169.827C56.4047 171.623 54.7034 173.122 52.705 173V172.986Z" fill="#A9CBEC"/>
<path d="M4.3385 185.679C4.86511 188.258 3.3123 190.297 1.05737 190.797C-1.40011 191.337 -3.70905 189.959 -4.14114 187.434C-4.53271 185.152 -3.31748 182.979 -0.86 182.384C1.30042 181.858 3.7849 182.992 4.3385 185.693V185.679Z" fill="#A9CBEC"/>
<path d="M118.639 95.8468C119.327 93.3353 122.257 92.2956 124.472 93.3083C126.686 94.321 127.861 97.1025 126.551 99.3845C125.39 101.41 123.054 102.153 121.123 101.315C118.99 100.397 117.937 98.4258 118.639 95.8468Z" fill="#A9CBEC"/>
<path d="M155.378 57.904C156.256 57.2693 158.632 57.3234 159.55 57.877C161.589 59.1057 162.345 61.2661 161.684 63.1025C160.874 65.3574 158.943 66.3431 156.499 65.938C154.757 65.6545 153.609 64.2502 153.299 62.7379C152.907 60.8475 153.501 59.2407 155.365 57.8905L155.378 57.904Z" fill="#A9CBEC"/>
<path d="M50.3012 276.929C49.0454 274.877 49.3695 272.73 50.8413 271.325C52.2591 269.962 54.46 269.597 56.2423 270.718C57.8626 271.73 58.8078 274.039 57.9302 276.024C57.282 277.483 55.8643 278.576 54.46 278.752C53.0557 278.927 51.1113 278.279 50.3012 276.942V276.929Z" fill="#A9CBEC"/>
<path d="M195.163 277.303C197.572 277.279 199.505 275.306 199.48 272.898C199.456 270.489 197.484 268.556 195.075 268.581C192.666 268.605 190.734 270.578 190.758 272.986C190.782 275.395 192.755 277.327 195.163 277.303Z" fill="#A9CBEC"/>
<path d="M316.478 117.396C315.263 117.261 313.859 116.559 313.143 115.654C311.995 114.196 312.13 111.981 313.076 110.644C314.196 109.065 315.965 108.295 318.058 108.876C320.151 109.456 321.434 111.792 320.975 113.858C320.542 115.775 318.693 117.652 316.478 117.396Z" fill="#A9CBEC"/>
<path d="M298.413 29.2128C300.814 29.1884 302.741 27.2222 302.717 24.8211C302.692 22.42 300.726 20.4932 298.325 20.5175C295.924 20.5418 293.997 22.508 294.022 24.9091C294.046 27.3103 296.012 29.2371 298.413 29.2128Z" fill="#A9CBEC"/>
<path d="M36.6369 13.4262C34.6251 15.033 32.1001 14.5874 30.6823 13.1561C28.9405 11.4008 29.0755 8.8218 30.5473 7.17448C32.1136 5.41914 34.9221 5.29762 36.745 6.91793C38.5813 8.55175 38.6218 11.8464 36.6369 13.4262Z" fill="#A9CBEC"/>
<path d="M170.893 45.0357C170.34 42.3757 171.623 40.1883 174.026 39.6211C176.294 39.081 178.752 40.2963 179.251 42.7673C179.751 45.2382 178.414 47.5202 176.092 48.1008C173.945 48.6409 171.339 47.2906 170.88 45.0492L170.893 45.0357Z" fill="#A9CBEC"/>
<path d="M143.712 7.87617C144.347 10.4012 143.077 12.7236 140.539 13.2907C138.487 13.7498 135.948 12.5616 135.354 10.2796C134.746 7.95718 135.854 5.74275 138.311 4.89209C140.377 4.17645 143.091 5.43219 143.712 7.88967V7.87617Z" fill="#A9CBEC"/>
<path d="M285.18 42.4303C285.409 44.7798 283.519 46.8322 281.547 47.0617C278.847 47.3858 276.862 45.7114 276.565 43.4025C276.254 40.8775 277.956 38.6901 280.346 38.4605C282.736 38.231 284.937 39.8513 285.18 42.4303Z" fill="#A9CBEC"/>
<path d="M-0.538863 120.609C1.86972 120.585 3.80249 118.613 3.77811 116.204C3.75373 113.795 1.78142 111.863 -0.62716 111.887C-3.03574 111.911 -4.96852 113.884 -4.94413 116.292C-4.91975 118.701 -2.94744 120.634 -0.538863 120.609Z" fill="#A9CBEC"/>
<path d="M317.626 293.376C314.763 292.903 313.507 289.825 314.547 287.435C315.587 285.045 318.76 283.924 320.947 285.571C322.716 286.895 323.297 288.934 322.568 290.784C321.839 292.633 320.016 293.781 317.626 293.39V293.376Z" fill="#A9CBEC"/>
<path d="M34.8267 182.019C36.3525 181.844 37.8513 182.222 38.6615 183.127C40.5789 185.287 40.2413 188.433 37.9593 189.851C35.6774 191.269 32.5583 190.459 31.5186 187.92C30.5599 185.557 31.8427 182.37 34.8267 182.006V182.019Z" fill="#A9CBEC"/>
<path d="M69.3537 49.2733C71.7623 49.2489 73.6951 47.2766 73.6707 44.868C73.6463 42.4595 71.674 40.5267 69.2654 40.5511C66.8568 40.5754 64.9241 42.5478 64.9484 44.9563C64.9728 47.3649 66.9451 49.2977 69.3537 49.2733Z" fill="#A9CBEC"/>
<path d="M49.3018 237.974C49.6528 235.679 51.8268 234.518 54.0412 234.693C56.4446 234.882 58.173 237.178 57.9029 239.352C57.5789 241.998 55.4995 243.524 53.0015 243.254C50.5035 242.984 48.8832 240.81 49.3153 237.974H49.3018Z" fill="#A9CBEC"/>
<path d="M91.3359 277.956C89.432 278.766 87.6091 278.347 86.4209 277.227C85.0436 275.917 84.6251 274.229 85.3542 272.271C86.0293 270.448 87.9332 269.557 89.8371 269.746C91.7409 269.935 93.1182 271.191 93.5503 273C93.9824 274.85 93.2532 277.146 91.3494 277.969L91.3359 277.956Z" fill="#A9CBEC"/>
<path d="M192.119 65.614C190.067 65.3844 188.744 63.5346 188.622 61.5227C188.514 59.6998 189.865 57.6069 191.755 57.2288C193.807 56.8238 195.252 57.3504 196.4 58.7546C197.547 60.1589 197.601 62.0358 196.737 63.6156C195.887 65.1954 194.172 65.8435 192.133 65.614H192.119Z" fill="#A9CBEC"/>
<path d="M1.5034 226.268C-0.616512 226.876 -2.74993 225.552 -3.45206 223.905C-4.35674 221.772 -3.6411 219.503 -1.87226 218.409C-0.00889436 217.248 2.47559 217.559 3.90686 219.301C4.86555 220.475 5.05459 222.042 4.54149 223.459C4.12291 224.634 3.11021 225.809 1.5034 226.268Z" fill="#A9CBEC"/>
<path d="M91.3352 61.1851C92.1453 63.6966 90.5655 66.1136 88.3916 66.6132C86.0016 67.1668 83.7467 66.0866 82.9906 63.6831C82.3424 61.5902 83.6117 59.0112 85.6641 58.3766C88.0135 57.6609 90.5115 58.6466 91.3217 61.1851H91.3352Z" fill="#A9CBEC"/>
<path d="M299.497 134.989C301.891 134.965 303.812 133.005 303.787 130.611C303.763 128.217 301.803 126.297 299.409 126.321C297.016 126.345 295.095 128.305 295.119 130.699C295.143 133.093 297.103 135.013 299.497 134.989Z" fill="#A9CBEC"/>
<path d="M265.103 241.165C267.504 241.141 269.431 239.175 269.406 236.774C269.382 234.373 267.416 232.446 265.015 232.47C262.613 232.494 260.687 234.461 260.711 236.862C260.735 239.263 262.702 241.19 265.103 241.165Z" fill="#A9CBEC"/>
<path d="M247.151 188.433C249.545 188.409 251.466 186.449 251.442 184.055C251.417 181.662 249.457 179.741 247.064 179.765C244.67 179.789 242.749 181.75 242.773 184.143C242.798 186.537 244.758 188.458 247.151 188.433Z" fill="#A9CBEC"/>
<path d="M228.507 100.562C230.908 100.538 232.835 98.5719 232.811 96.1707C232.786 93.7696 230.82 91.8428 228.419 91.8671C226.018 91.8914 224.091 93.8576 224.115 96.2588C224.14 98.6599 226.106 100.587 228.507 100.562Z" fill="#A9CBEC"/>
<path d="M140.788 154.27C143.144 154.246 145.035 152.316 145.011 149.96C144.988 147.604 143.058 145.713 140.702 145.737C138.345 145.76 136.454 147.69 136.478 150.046C136.502 152.403 138.432 154.294 140.788 154.27Z" fill="#A9CBEC"/>
<path d="M337.826 58.1195C338.758 60.442 337.57 62.94 335.477 63.6556C333.235 64.4117 330.724 63.5476 329.9 61.2251C329.076 58.9027 329.968 56.8773 332.209 55.7701C334.113 54.8384 336.867 55.7161 337.826 58.1195Z" fill="#A9CBEC"/>
<path d="M268.935 200.235C269.759 202.787 268.517 204.92 266.1 205.757C264.155 206.433 261.644 205.15 260.942 202.989C260.239 200.829 261.225 198.453 263.548 197.642C265.627 196.913 268.125 197.696 268.935 200.221V200.235Z" fill="#A9CBEC"/>
<path d="M304.069 200.438C304.542 203.098 302.922 204.948 300.599 205.488C298.452 205.974 296.116 204.205 295.779 202.206C295.374 199.736 296.629 197.67 299.019 197.116C301.193 196.603 303.624 197.967 304.069 200.451V200.438Z" fill="#A9CBEC"/>
<path d="M37.919 43.9012C38.7021 46.4126 37.3654 48.7081 35.0564 49.3562C32.8825 49.9638 30.614 48.9376 29.9119 46.6962C29.2098 44.4548 30.182 42.0378 32.5044 41.2816C34.6108 40.6065 37.1493 41.4437 37.919 43.8877V43.9012Z" fill="#A9CBEC"/>
<path d="M228.509 170.705C226.038 170.367 224.903 168.49 224.944 166.384C224.984 164.304 226.591 162.616 228.738 162.373C230.804 162.13 232.843 163.319 233.316 165.601C233.599 166.978 233.289 168.504 232.384 169.462C231.479 170.421 230.034 170.921 228.495 170.705H228.509Z" fill="#A9CBEC"/>
<path d="M302.652 303.178C304.205 303.908 304.866 304.826 305.164 306.392C305.663 309.039 303.557 311.28 300.883 311.307C298.304 311.334 296.4 308.89 296.805 306.23C297.184 303.732 300.06 301.963 302.652 303.178Z" fill="#A9CBEC"/>
<path d="M21.5945 167.113C22.4992 169.516 21.392 171.893 19.1911 172.622C16.9901 173.351 14.4516 172.554 13.6685 170.191C12.9934 168.166 13.79 165.654 15.9639 164.79C17.9758 163.994 20.6898 164.696 21.5945 167.113Z" fill="#A9CBEC"/>
<path d="M230.302 276.596C232.651 276.572 234.535 274.649 234.512 272.3C234.488 269.951 232.564 268.066 230.215 268.09C227.867 268.114 225.982 270.037 226.005 272.386C226.029 274.735 227.953 276.62 230.302 276.596Z" fill="#A9CBEC"/>
<path d="M317.362 152.442C319.711 152.418 321.596 150.495 321.572 148.146C321.548 145.797 319.625 143.912 317.276 143.936C314.927 143.96 313.042 145.883 313.066 148.232C313.089 150.581 315.013 152.466 317.362 152.442Z" fill="#A9CBEC"/>
<path d="M280.534 11.5984C282.883 11.5746 284.768 9.65117 284.744 7.30225C284.72 4.95332 282.797 3.06842 280.448 3.0922C278.099 3.11598 276.214 5.03943 276.238 7.38836C276.262 9.73728 278.185 11.6222 280.534 11.5984Z" fill="#A9CBEC"/>
<path d="M311.996 42.4567C311.928 40.1342 313.629 38.6219 315.547 38.2709C317.464 37.9198 319.584 38.8245 320.205 40.8094C321.015 43.4154 319.773 46.0754 317.14 46.5885C314.791 47.0476 312.09 45.3733 311.996 42.4567Z" fill="#A9CBEC"/>
<path d="M18.7757 278.738C21.1247 278.714 23.0096 276.79 22.9858 274.441C22.962 272.092 21.0386 270.208 18.6896 270.231C16.3407 270.255 14.4558 272.179 14.4796 274.528C14.5034 276.876 16.4268 278.761 18.7757 278.738Z" fill="#A9CBEC"/>
<path d="M122.057 31.1604C124.398 31.1367 126.277 29.2194 126.254 26.8779C126.23 24.5364 124.313 22.6575 121.971 22.6812C119.63 22.7049 117.751 24.6223 117.774 26.9637C117.798 29.3052 119.715 31.1841 122.057 31.1604Z" fill="#A9CBEC"/>
<path d="M123.129 136.977C125.478 136.953 127.363 135.03 127.339 132.681C127.315 130.332 125.392 128.447 123.043 128.471C120.694 128.494 118.809 130.418 118.833 132.767C118.856 135.116 120.78 137.001 123.129 136.977Z" fill="#A9CBEC"/>
<path d="M105.945 252.085C107.606 251.855 108.862 252.139 109.821 253.017C110.86 253.975 111.198 255.272 110.995 256.865C110.725 259.106 108.808 260.457 106.661 260.43C104.676 260.403 102.853 258.661 102.637 256.716C102.408 254.61 103.609 252.395 105.945 252.071V252.085Z" fill="#A9CBEC"/>
<path d="M195.248 312.38C197.597 312.356 199.482 310.432 199.458 308.084C199.435 305.735 197.511 303.85 195.162 303.873C192.813 303.897 190.928 305.821 190.952 308.17C190.976 310.519 192.899 312.403 195.248 312.38Z" fill="#A9CBEC"/>
<path d="M69.6971 84.5906C72.0461 84.5668 73.931 82.6434 73.9072 80.2944C73.8834 77.9455 71.9599 76.0606 69.611 76.0844C67.2621 76.1082 65.3772 78.0316 65.401 80.3805C65.4247 82.7295 67.3482 84.6144 69.6971 84.5906Z" fill="#A9CBEC"/>
<path d="M334.655 134.809C336.996 134.786 338.875 132.868 338.851 130.527C338.828 128.185 336.91 126.306 334.569 126.33C332.227 126.354 330.348 128.271 330.372 130.613C330.396 132.954 332.313 134.833 334.655 134.809Z" fill="#A9CBEC"/>
<path d="M227.793 30.1033C230.142 30.0795 232.027 28.1561 232.003 25.8071C231.979 23.4582 230.056 21.5733 227.707 21.5971C225.358 21.6209 223.473 23.5443 223.497 25.8932C223.52 28.2422 225.444 30.1271 227.793 30.1033Z" fill="#A9CBEC"/>
<path d="M0.0451664 155.681C2.38663 155.658 4.26555 153.74 4.24185 151.399C4.21815 149.057 2.3008 147.178 -0.0406708 147.202C-2.38214 147.226 -4.26106 149.143 -4.23735 151.485C-4.21365 153.826 -2.2963 155.705 0.0451664 155.681Z" fill="#A9CBEC"/>
<path d="M54.5599 313.804C56.9088 313.78 58.7938 311.857 58.77 309.508C58.7462 307.159 56.8227 305.274 54.4738 305.298C52.1249 305.322 50.24 307.245 50.2638 309.594C50.2875 311.943 52.211 313.828 54.5599 313.804Z" fill="#A9CBEC"/>
<path d="M16.3965 137.974C14.3441 137.461 13.2369 135.759 13.1019 134.045C12.9533 132.154 14.0875 130.196 16.0319 129.737C17.8413 129.319 19.5831 129.845 20.6633 131.182C21.7435 132.519 21.9056 134.477 20.9199 136.016C20.0422 137.38 18.3544 138.46 16.3965 137.974Z" fill="#A9CBEC"/>
<path d="M197.156 95.4947C197.804 98.0062 196.197 100.167 193.942 100.707C191.849 101.206 189.459 99.8156 188.987 97.7767C188.42 95.3057 189.581 93.1047 191.917 92.4566C194.091 91.8625 196.494 92.9427 197.156 95.4947Z" fill="#A9CBEC"/>
<path d="M83.1258 98.3575C82.8693 96.197 83.8009 94.6712 85.3267 93.8746C86.8525 93.0779 88.7834 93.1319 90.0392 94.3877C91.4974 95.8325 91.916 97.6553 91.0924 99.4917C90.4307 100.99 88.7159 102.111 86.7985 101.868C85.1917 101.666 83.3554 100.342 83.1258 98.3575Z" fill="#A9CBEC"/>
<path d="M335.008 169.735C337.35 169.711 339.228 167.794 339.205 165.452C339.181 163.111 337.264 161.232 334.922 161.255C332.581 161.279 330.702 163.196 330.726 165.538C330.749 167.879 332.667 169.758 335.008 169.735Z" fill="#A9CBEC"/>
<path d="M335.314 275.376C332.371 274.985 331.25 272.298 332.033 269.8C332.816 267.302 335.652 266.37 338.015 267.518C340.378 268.665 340.986 271.758 339.392 273.918C338.528 275.079 336.935 275.592 335.301 275.376H335.314Z" fill="#A9CBEC"/>
<path d="M89.1214 199.263C91.1198 199.654 92.092 200.762 92.4836 202.503C93.0642 205.015 91.3224 207.351 88.8514 207.648C86.3804 207.945 84.247 205.974 84.139 203.449C84.0445 200.951 86.4074 198.736 89.1079 199.263H89.1214Z" fill="#A9CBEC"/>
<path d="M158.195 101.166C160.544 101.142 162.429 99.2186 162.405 96.8696C162.381 94.5207 160.458 92.6358 158.109 92.6596C155.76 92.6834 153.875 94.6068 153.899 96.9557C153.923 99.3047 155.846 101.19 158.195 101.166Z" fill="#A9CBEC"/>
<path d="M137.609 255.191C137.798 252.693 139.918 251.545 141.998 251.572C144.077 251.599 145.67 253.206 145.954 255.191C146.278 257.432 144.928 259.444 142.632 259.984C141.35 260.295 139.905 259.809 138.973 258.972C138.041 258.135 137.474 256.771 137.596 255.191H137.609Z" fill="#A9CBEC"/>
<path d="M318.572 249.763C320.394 249.749 322.136 251.154 322.487 252.828C323.041 255.488 321.556 257.743 319.017 258.175C316.749 258.566 314.494 256.973 314.21 254.57C313.9 252.045 315.682 249.803 318.585 249.776L318.572 249.763Z" fill="#A9CBEC"/>
<path d="M178.779 286.814C180.466 287.219 181.452 288.394 181.695 289.987C182.114 292.687 180.277 295.023 177.739 295.104C175.038 295.185 173.161 293.12 173.35 290.473C173.54 287.867 175.97 286.125 178.779 286.8V286.814Z" fill="#A9CBEC"/>
<path d="M68.9808 13.74C71.3297 13.7162 73.2146 11.7928 73.1909 9.44385C73.1671 7.09492 71.2436 5.21002 68.8947 5.2338C66.5458 5.25758 64.6609 7.18103 64.6847 9.52996C64.7084 11.8789 66.6319 13.7638 68.9808 13.74Z" fill="#A9CBEC"/>
<path d="M15.1133 23.9581C16.6661 23.607 18.0704 23.9716 19.1236 24.9033C21.0814 26.6451 20.8789 29.8317 18.84 31.371C16.8011 32.9103 13.817 32.3702 12.5748 30.1558C11.265 27.8334 12.1832 24.6197 15.1133 23.9581Z" fill="#A9CBEC"/>
<path d="M282.323 188.226C284.664 188.202 286.543 186.285 286.519 183.943C286.496 181.602 284.578 179.723 282.237 179.747C279.895 179.77 278.016 181.688 278.04 184.029C278.064 186.371 279.981 188.25 282.323 188.226Z" fill="#A9CBEC"/>
<path d="M249.883 151.477C248.114 153.651 245.387 153.61 243.686 152.098C241.863 150.478 241.768 147.642 243.442 145.927C244.995 144.334 247.817 144.212 249.654 146.035C250.909 147.278 251.058 150.046 249.883 151.49V151.477Z" fill="#A9CBEC"/>
<path d="M228.147 65.0027C230.496 64.9789 232.381 63.0555 232.357 60.7065C232.333 58.3576 230.41 56.4727 228.061 56.4965C225.712 56.5203 223.827 58.4437 223.851 60.7927C223.874 63.1416 225.798 65.0265 228.147 65.0027Z" fill="#A9CBEC"/>
<path d="M101.408 47.1962C100.153 45.7109 100.193 43.3884 101.327 41.9301C102.462 40.4719 104.73 39.9318 106.418 40.6609C108.268 41.4576 109.186 43.51 108.808 45.5353C108.484 47.2637 107.269 48.3574 105.77 48.695C104.15 49.046 102.651 48.6815 101.408 47.1962Z" fill="#A9CBEC"/>
<path d="M102.853 147.304C104.095 146.251 105.621 145.887 107.025 146.251C108.241 146.575 109.631 147.804 109.888 149.195C110.293 151.369 109.415 153.313 107.579 154.204C105.743 155.095 103.623 154.42 102.353 152.827C101.084 151.234 101.192 148.709 102.853 147.304Z" fill="#A9CBEC"/>
<path d="M333.57 29.033C335.912 29.0093 337.79 27.0919 337.767 24.7504C337.743 22.409 335.826 20.5301 333.484 20.5538C331.143 20.5775 329.264 22.4948 329.288 24.8363C329.311 27.1778 331.229 29.0567 333.57 29.033Z" fill="#A9CBEC"/>
<path d="M267.923 94.5226C268.544 96.9261 267.451 99.181 265.209 99.8156C262.9 100.477 260.591 99.4646 259.822 96.9801C259.174 94.9007 260.267 92.4567 262.644 91.7411C264.669 91.1334 267.316 92.2137 267.923 94.5226Z" fill="#A9CBEC"/>
<path d="M283.352 294.016C285.693 293.993 287.572 292.075 287.548 289.734C287.525 287.392 285.607 285.513 283.266 285.537C280.924 285.561 279.046 287.478 279.069 289.82C279.093 292.161 281.01 294.04 283.352 294.016Z" fill="#A9CBEC"/>
<path d="M126.847 276.997C125.781 277.713 123.782 277.726 122.688 277.281C120.19 276.228 119.664 273.041 121.028 270.962C122.391 268.882 125.564 268.599 127.36 270.246C129.251 271.974 129.278 275.336 126.847 276.997Z" fill="#A9CBEC"/>
<path d="M74.7137 184.667C75.5374 187.097 74.3087 189.366 72.1482 190.108C69.9878 190.851 67.5844 189.771 66.7607 187.637C65.937 185.504 66.9902 182.992 68.9616 182.277C71.2571 181.439 73.8496 182.169 74.7002 184.667H74.7137Z" fill="#A9CBEC"/>
<path d="M233.963 236.328C234.557 238.745 233.275 240.838 231.087 241.499C228.9 242.161 226.564 240.892 225.862 238.704C225.119 236.395 226.429 233.938 228.576 233.411C231.006 232.804 233.356 233.857 233.963 236.341V236.328Z" fill="#A9CBEC"/>
<path d="M211.571 153.513C213.913 153.49 215.791 151.572 215.768 149.231C215.744 146.889 213.827 145.011 211.485 145.034C209.144 145.058 207.265 146.975 207.289 149.317C207.312 151.658 209.23 153.537 211.571 153.513Z" fill="#A9CBEC"/>
<path d="M228.036 127.537C229.562 127.294 230.898 127.618 231.789 128.523C232.721 129.482 233.167 130.792 232.978 132.277C232.681 134.518 230.763 135.963 228.711 135.882C226.658 135.801 224.822 134.181 224.633 132.196C224.417 129.981 225.538 127.943 228.036 127.537Z" fill="#A9CBEC"/>
<path d="M335.739 240.599C338.08 240.576 339.959 238.658 339.936 236.317C339.912 233.975 337.995 232.096 335.653 232.12C333.312 232.144 331.433 234.061 331.456 236.403C331.48 238.744 333.398 240.623 335.739 240.599Z" fill="#A9CBEC"/>
<path d="M174.757 12.6419C177.098 12.6182 178.977 10.7008 178.953 8.35933C178.93 6.01786 177.012 4.13894 174.671 4.16265C172.329 4.18635 170.45 6.1037 170.474 8.44517C170.498 10.7866 172.415 12.6656 174.757 12.6419Z" fill="#A9CBEC"/>
<path d="M179.804 112.995C180.425 115.263 179.264 117.653 177.117 118.22C174.795 118.828 172.432 117.815 171.743 115.425C171.135 113.292 172.175 110.821 174.511 110.159C176.699 109.552 179.156 110.591 179.804 112.995Z" fill="#A9CBEC"/>
<path d="M173.512 188.055C171.946 186.34 171.797 184.004 173.309 182.222C174.957 180.264 178.643 180.453 179.993 182.627C181.208 184.585 180.817 186.948 179.264 188.271C177.711 189.594 175.119 189.811 173.512 188.055Z" fill="#A9CBEC"/>
<path d="M175.46 83.5198C177.802 83.4961 179.681 81.5787 179.657 79.2373C179.633 76.8958 177.716 75.0169 175.374 75.0406C173.033 75.0643 171.154 76.9816 171.178 79.3231C171.201 81.6646 173.119 83.5435 175.46 83.5198Z" fill="#A9CBEC"/>
<path d="M302.975 94.6714C303.367 97.2639 301.801 99.2622 299.667 99.5998C297.183 99.9914 295.036 98.6276 294.671 96.1836C294.334 93.9692 295.576 91.8628 297.926 91.3092C300.059 90.8096 302.597 92.1464 302.975 94.6714Z" fill="#A9CBEC"/>
<path d="M122.411 66.0725C124.752 66.0488 126.631 64.1315 126.608 61.79C126.584 59.4485 124.667 57.5696 122.325 57.5933C119.984 57.617 118.105 59.5344 118.128 61.8758C118.152 64.2173 120.069 66.0962 122.411 66.0725Z" fill="#A9CBEC"/>
<path d="M277.942 75.4573C279.549 73.4049 283.114 73.5804 284.613 75.6463C285.963 77.5097 285.571 80.1157 283.951 81.4254C282.331 82.7352 279.846 82.8432 278.334 81.3579C276.822 79.8726 276.349 77.4691 277.929 75.4438L277.942 75.4573Z" fill="#A9CBEC"/>
<path d="M282.648 223.152C284.99 223.128 286.869 221.211 286.845 218.87C286.821 216.528 284.904 214.649 282.562 214.673C280.221 214.697 278.342 216.614 278.366 218.955C278.389 221.297 280.307 223.176 282.648 223.152Z" fill="#A9CBEC"/>
<path d="M14.2218 59.4028C16.5443 57.715 20.136 59.1463 20.7301 61.8603C21.2297 64.1423 19.9874 66.1811 18.1106 66.8563C16.0987 67.5854 13.8572 66.8023 12.8715 64.9929C11.8859 63.2106 12.2504 60.8476 14.2218 59.4163V59.4028Z" fill="#A9CBEC"/>
<path d="M177.955 330.013C180.297 329.989 182.176 328.072 182.152 325.73C182.128 323.389 180.211 321.51 177.869 321.534C175.528 321.557 173.649 323.475 173.673 325.816C173.697 328.158 175.614 330.037 177.955 330.013Z" fill="#A9CBEC"/>
<path d="M75.0917 219.733C75.8073 222.082 74.4571 224.513 72.4182 225.039C70.0417 225.661 67.6652 224.702 66.9901 222.271C66.4095 220.192 67.3952 217.897 69.6366 217.059C71.635 216.317 74.322 217.248 75.0917 219.733Z" fill="#A9CBEC"/>
<path d="M214.371 41.8762C215.249 44.1176 214.169 46.6831 212.062 47.4257C209.956 48.1684 207.377 47.3042 206.486 44.9413C205.77 43.0509 206.634 40.4584 208.754 39.6077C210.766 38.7976 213.399 39.4187 214.371 41.8762Z" fill="#A9CBEC"/>
<path d="M31.8974 256.082C32.1809 254.205 33.7067 252.895 35.4486 252.652C37.2849 252.396 39.0673 253.422 39.9044 255.245C40.6471 256.852 40.2285 258.836 38.9863 259.93C37.555 261.199 35.8131 261.51 34.1253 260.632C32.4375 259.755 31.6003 258.107 31.8974 256.082Z" fill="#A9CBEC"/>
<path d="M53.4617 208C55.8031 207.976 57.6821 206.059 57.6584 203.717C57.6347 201.376 55.7173 199.497 53.3758 199.521C51.0344 199.544 49.1554 201.462 49.1791 203.803C49.2029 206.145 51.1202 208.023 53.4617 208Z" fill="#A9CBEC"/>
<path d="M159.253 206.943C161.594 206.919 163.473 205.002 163.449 202.661C163.426 200.319 161.508 198.44 159.167 198.464C156.825 198.488 154.946 200.405 154.97 202.746C154.994 205.088 156.911 206.967 159.253 206.943Z" fill="#A9CBEC"/>
<path d="M180.858 218.666C181.601 221.029 180.25 223.378 178.171 223.972C175.849 224.634 173.445 223.581 172.784 221.218C172.189 219.084 173.175 216.843 175.417 215.992C177.428 215.223 180.088 216.181 180.858 218.666Z" fill="#A9CBEC"/>
<path d="M198.249 201.329C198.722 203.786 197.344 205.987 195.049 206.46C192.753 206.932 190.647 205.663 190.08 203.476C189.486 201.18 190.714 198.939 193.01 198.223C195.103 197.575 197.79 198.952 198.235 201.315L198.249 201.329Z" fill="#A9CBEC"/>
<path d="M281.564 117.348C283.898 117.325 285.771 115.414 285.747 113.079C285.723 110.745 283.812 108.873 281.478 108.896C279.144 108.92 277.271 110.831 277.295 113.165C277.318 115.499 279.23 117.372 281.564 117.348Z" fill="#A9CBEC"/>
<path d="M52.4172 102.21C54.7587 102.186 56.6376 100.269 56.6139 97.9272C56.5902 95.5857 54.6729 93.7068 52.3314 93.7305C49.9899 93.7542 48.111 95.6716 48.1347 98.013C48.1584 100.355 50.0758 102.233 52.4172 102.21Z" fill="#A9CBEC"/>
<path d="M250.396 257.877C248.034 259.727 245.198 258.998 243.956 256.851C242.578 254.474 243.578 251.396 246.359 250.694C247.98 250.289 249.964 250.694 250.896 252.017C252.152 253.813 252.084 256.54 250.396 257.877Z" fill="#A9CBEC"/>
<path d="M128.171 237.326C128.887 239.689 127.456 241.904 125.376 242.592C123.148 243.321 120.759 241.944 120.124 239.797C119.489 237.65 120.556 235.26 122.608 234.572C124.944 233.788 127.388 234.747 128.171 237.326Z" fill="#A9CBEC"/>
<path d="M121.352 171.326C119.705 170.556 119.124 168.99 119.232 167.289C119.394 164.696 121.96 162.968 124.309 163.494C126.875 164.062 128.252 166.627 127.455 169.031C126.659 171.434 123.877 172.514 121.352 171.34V171.326Z" fill="#A9CBEC"/>
<path d="M72.1926 331.07C74.5341 331.046 76.413 329.129 76.3893 326.787C76.3656 324.446 74.4483 322.567 72.1068 322.59C69.7653 322.614 67.8864 324.531 67.9101 326.873C67.9338 329.214 69.8512 331.093 72.1926 331.07Z" fill="#A9CBEC"/>
<path d="M75.754 290.406C76.5911 292.89 75.4164 295.064 73.2425 295.928C71.2036 296.738 68.6381 295.51 67.8414 293.43C67.0313 291.27 67.9764 289.069 70.0829 288.097C72.1893 287.125 74.9438 288.043 75.7405 290.406H75.754Z" fill="#A9CBEC"/>
<path d="M136.866 47.4793C135.273 45.94 135.043 43.6986 136.07 41.9567C137.015 40.3634 138.959 39.5938 140.957 40.1879C142.699 40.701 144.036 42.4158 143.861 44.4412C143.685 46.3586 142.227 48.276 140.08 48.3705C138.932 48.4245 137.663 48.2624 136.853 47.4793H136.866Z" fill="#A9CBEC"/>
<path d="M283.261 328.861C280.736 328.739 279.44 326.673 279.454 324.5C279.467 322.326 281.223 320.543 283.464 320.503C285.705 320.462 287.704 321.867 287.893 324.243C287.987 325.485 287.663 326.755 286.894 327.592C286.097 328.469 284.747 328.928 283.261 328.861Z" fill="#A9CBEC"/>
<path d="M66.2475 117.262C65.2483 115.25 65.8965 112.725 67.7328 111.712C69.5692 110.699 72.1617 110.902 73.4849 112.846C74.9027 114.912 74.2546 117.518 72.2697 118.787C70.2848 120.057 67.3683 119.544 66.2475 117.262Z" fill="#A9CBEC"/>
<path d="M1.12905 261.431C3.46306 261.407 5.336 259.496 5.31237 257.162C5.28874 254.828 3.3775 252.955 1.04349 252.979C-1.29053 253.002 -3.16346 254.914 -3.13984 257.248C-3.11621 259.582 -1.20496 261.455 1.12905 261.431Z" fill="#A9CBEC"/>
<path d="M18.4083 243.812C20.7424 243.788 22.6153 241.877 22.5917 239.543C22.568 237.209 20.6568 235.336 18.3228 235.36C15.9888 235.383 14.1158 237.294 14.1395 239.628C14.1631 241.962 16.0743 243.835 18.4083 243.812Z" fill="#A9CBEC"/>
<path d="M244.739 47.2776C242.254 47.048 241.08 44.8066 241.215 42.6192C241.336 40.6883 243.078 39.0275 245.279 38.933C247.264 38.8384 249.316 40.1617 249.559 42.4301C249.694 43.6724 249.343 45.1307 248.614 45.9543C247.75 46.9265 246.305 47.4261 244.739 47.2776Z" fill="#A9CBEC"/>
<path d="M33.8821 147.035C36.2451 146.521 38.0409 147.44 38.8376 149.438C39.7693 151.801 38.7701 154.056 36.5422 154.961C34.3142 155.865 31.8162 154.839 31.0466 152.638C30.1959 150.221 31.2491 147.602 33.8821 147.035Z" fill="#A9CBEC"/>
<path d="M209.065 252.881C210.321 250.964 212.306 250.491 214.128 251.099C216.059 251.733 217.072 253.678 216.748 255.811C216.356 258.431 213.615 259.916 211.306 259.092C208.795 258.188 207.512 255.285 209.065 252.895V252.881Z" fill="#A9CBEC"/>
<path d="M270.029 306.108C270.744 308.417 269.529 310.875 267.18 311.455C265.046 311.982 262.845 310.983 262.008 308.714C261.239 306.635 262.413 304.367 264.655 303.421C266.694 302.571 269.3 303.732 270.029 306.108Z" fill="#A9CBEC"/>
<path d="M164.277 307.162C165.02 309.538 163.791 311.78 161.428 312.563C159.403 313.225 157.094 312.023 156.257 309.795C155.487 307.77 156.662 305.434 158.876 304.515C160.928 303.665 163.548 304.813 164.277 307.175V307.162Z" fill="#A9CBEC"/>
<path d="M85.4215 307.809C85.8536 306.149 87.4199 305.285 88.9457 305.041C90.35 304.812 91.8893 305.541 92.8884 306.81C94.1172 308.377 93.8606 310.537 92.6319 311.941C91.3221 313.454 89.2697 313.913 87.5279 312.981C85.7861 312.049 84.8274 310.078 85.408 307.809H85.4215Z" fill="#A9CBEC"/>
<path d="M1.11091 49.2892C-0.617428 50.2074 -2.72384 49.8698 -3.95257 48.6276C-5.18131 47.3854 -5.76192 45.4005 -4.84375 43.6451C-3.99308 42.0248 -2.15673 41.1742 -0.563419 41.4577C1.21893 41.7683 2.70421 42.9835 3.00127 44.5093C3.35234 46.3727 2.86625 48.344 1.11091 49.2892Z" fill="#A9CBEC"/>
</g>
<defs>
<clipPath id="clip0_1356_6244">
<rect width="334" height="334" fill="white"/>
</clipPath>
</defs>
</svg>
