<svg width="100" height="100" viewBox="0 0 100 100" fill="none" xmlns="http://www.w3.org/2000/svg">
<g clip-path="url(#clip0_1962_22144)">
<rect width="100" height="100" fill="white"/>
<mask id="mask0_1962_22144" style="mask-type:luminance" maskUnits="userSpaceOnUse" x="-22" y="-2" width="145" height="105">
<path d="M-20.7388 102.197L-21.667 -0.902858L121.739 -1.59326L122.667 101.277L-20.7388 102.197Z" fill="white"/>
</mask>
<g mask="url(#mask0_1962_22144)">
<path d="M126.881 -46.2627H-25.9375V105.295H126.881V-46.2627Z" fill="#267F53"/>
<path d="M8.56002 26.644C8.75494 28.278 9.02875 29.9994 10.0823 31.2697C11.0429 32.425 12.5095 33.0372 13.9482 33.4836C23.8985 36.5582 35.5427 33.2535 42.3417 25.4197C43.3674 24.2368 44.3002 22.9481 44.8618 21.489C45.4233 20.03 45.595 18.4512 45.5347 16.8909C45.4605 14.9992 45.001 13.0385 43.7572 11.6024C42.5134 10.1664 40.3461 9.40235 38.615 10.1986C36.8143 11.0225 36.0439 13.1029 35.4499 14.9762C35.487 11.5702 35.422 7.86044 33.2547 5.2139C32.6838 4.51889 31.9413 3.90673 31.0548 3.73643C30.368 3.60756 29.6533 3.75024 28.9896 3.96657C24.1908 5.52228 21.1231 11.0869 22.3948 15.9336C22.0189 13.4849 21.4434 10.9811 19.9675 8.9835C18.4917 6.98593 15.9113 5.60973 13.4841 6.19427C11.5534 6.65914 10.0637 8.26548 9.24688 10.0651C6.96816 15.0959 7.93348 21.3555 8.56002 26.6348V26.644Z" fill="#9BB7F6"/>
<path d="M56.9702 26.644C57.1651 28.278 57.4389 29.9994 58.4924 31.2697C59.4531 32.425 60.9196 33.0372 62.3584 33.4836C72.3086 36.5582 83.9528 33.2535 90.7519 25.4197C91.7775 24.2368 92.7104 22.9481 93.2719 21.489C93.8335 20.03 94.0052 18.4512 93.9449 16.8909C93.8706 14.9992 93.4111 13.0385 92.1674 11.6024C90.9236 10.1664 88.7562 9.40235 87.0252 10.1986C85.2245 11.0225 84.4541 13.1029 83.86 14.9762C83.8971 11.5702 83.8322 7.86044 81.6648 5.2139C81.094 4.51889 80.3514 3.90673 79.465 3.73643C78.7781 3.60756 78.0634 3.75024 77.3998 3.96657C72.601 5.52228 69.5333 11.0869 70.8049 15.9336C70.429 13.4849 69.8535 10.9811 68.3777 8.9835C66.9019 6.98593 64.3215 5.60973 61.8943 6.19427C59.9636 6.65914 58.4738 8.26548 57.657 10.0651C55.3783 15.0959 56.3436 21.3555 56.9702 26.6348V26.644Z" fill="#9BB7F6"/>
<path d="M-16.1539 66.9546C-15.9589 68.5885 -15.6851 70.3099 -14.6316 71.5803C-13.6709 72.7356 -12.2044 73.3477 -10.7657 73.7942C-0.815409 76.8688 10.8288 73.564 17.6278 65.7303C18.6535 64.5474 19.5863 63.2586 20.1479 61.7996C20.7095 60.3405 20.8812 58.7618 20.8208 57.2015C20.7466 55.3098 20.2871 53.349 19.0433 51.913C17.7996 50.4769 15.6322 49.7129 13.9011 50.5092C12.1004 51.333 11.33 53.4135 10.736 55.2868C10.7731 51.8808 10.7081 48.171 8.54081 45.5244C7.96997 44.8294 7.22741 44.2173 6.34098 44.047C5.65412 43.9181 4.9394 44.0608 4.27574 44.2771C-0.52303 45.8328 -3.59072 51.3975 -2.31909 56.2441C-2.69501 53.7955 -3.27049 51.2916 -4.74632 49.294C-6.22215 47.2965 -8.80254 45.9203 -11.2298 46.5048C-13.1604 46.9697 -14.6502 48.576 -15.467 50.3757C-17.7457 55.4064 -16.7804 61.6661 -16.1539 66.9454V66.9546Z" fill="#9BB7F6"/>
<path d="M32.5122 66.9546C32.7071 68.5885 32.9809 70.3099 34.0344 71.5803C34.9951 72.7356 36.4616 73.3477 37.9003 73.7942C47.8506 76.8688 59.4948 73.564 66.2939 65.7303C67.3195 64.5474 68.2524 63.2586 68.8139 61.7996C69.3755 60.3405 69.5472 58.7618 69.4869 57.2015C69.4126 55.3098 68.9531 53.349 67.7094 51.913C66.4656 50.4769 64.2982 49.7129 62.5672 50.5092C60.7665 51.333 59.9961 53.4135 59.402 55.2868C59.4391 51.8808 59.3742 48.171 57.2068 45.5244C56.636 44.8294 55.8934 44.2173 55.007 44.047C54.3201 43.9181 53.6054 44.0608 52.9418 44.2771C48.143 45.8328 45.0753 51.3975 46.3469 56.2441C45.971 53.7955 45.3955 51.2916 43.9197 49.294C42.4439 47.2965 39.8635 45.9203 37.4362 46.5048C35.5056 46.9697 34.0158 48.576 33.199 50.3757C30.9203 55.4064 31.8856 61.6661 32.5122 66.9454V66.9546Z" fill="#9BB7F6"/>
<path d="M80.9174 66.9546C81.1124 68.5885 81.3862 70.3099 82.4397 71.5803C83.4004 72.7356 84.8669 73.3477 86.3056 73.7942C96.2559 76.8688 107.9 73.564 114.699 65.7303C115.725 64.5474 116.658 63.2586 117.219 61.7996C117.781 60.3405 117.952 58.7618 117.892 57.2015C117.818 55.3098 117.358 53.349 116.115 51.913C114.871 50.4769 112.704 49.7129 110.972 50.5092C109.172 51.333 108.401 53.4135 107.807 55.2868C107.844 51.8808 107.779 48.171 105.612 45.5244C105.041 44.8294 104.299 44.2173 103.412 44.047C102.725 43.9181 102.011 44.0608 101.347 44.2771C96.5483 45.8328 93.4806 51.3975 94.7522 56.2441C94.3763 53.7955 93.8008 51.2916 92.325 49.294C90.8491 47.2965 88.2687 45.9203 85.8415 46.5048C83.9109 46.9697 82.4211 48.576 81.6043 50.3757C79.3256 55.4064 80.2909 61.6661 80.9174 66.9454V66.9546Z" fill="#9BB7F6"/>
<path d="M8.56002 106.119C8.75494 107.753 9.02875 109.474 10.0823 110.744C11.0429 111.9 12.5095 112.512 13.9482 112.958C23.8985 116.033 35.5427 112.728 42.3417 104.894C43.3674 103.711 44.3002 102.423 44.8618 100.964C45.4233 99.5046 45.595 97.9258 45.5347 96.3655C45.4605 94.4738 45.001 92.5131 43.7572 91.077C42.5134 89.641 40.3461 88.877 38.615 89.6732C36.8143 90.4971 36.0439 92.5775 35.4499 94.4508C35.487 91.0448 35.422 87.3351 33.2547 84.6885C32.6838 83.9935 31.9413 83.3813 31.0548 83.211C30.368 83.0822 29.6533 83.2249 28.9896 83.4412C24.1908 84.9969 21.1231 90.5615 22.3948 95.4082C22.0189 92.9595 21.4434 90.4557 19.9675 88.4581C18.4917 86.4605 15.9113 85.0843 13.4841 85.6689C11.5534 86.1338 10.0637 87.7401 9.24688 89.5397C6.96816 94.5705 7.93348 100.83 8.56002 106.109V106.119Z" fill="#9BB7F6"/>
<path d="M56.9702 106.119C57.1651 107.753 57.4389 109.474 58.4924 110.744C59.4531 111.9 60.9196 112.512 62.3584 112.958C72.3086 116.033 83.9528 112.728 90.7519 104.894C91.7775 103.711 92.7104 102.423 93.2719 100.964C93.8335 99.5046 94.0052 97.9258 93.9449 96.3655C93.8706 94.4738 93.4111 92.5131 92.1674 91.077C90.9236 89.641 88.7562 88.877 87.0252 89.6732C85.2245 90.4971 84.4541 92.5775 83.86 94.4508C83.8971 91.0448 83.8322 87.3351 81.6648 84.6885C81.094 83.9935 80.3514 83.3813 79.465 83.211C78.7781 83.0822 78.0634 83.2249 77.3998 83.4412C72.601 84.9969 69.5333 90.5615 70.8049 95.4082C70.429 92.9595 69.8535 90.4557 68.3777 88.4581C66.9019 86.4605 64.3215 85.0843 61.8943 85.6689C59.9636 86.1338 58.4738 87.7401 57.657 89.5397C55.3783 94.5705 56.3436 100.83 56.9702 106.109V106.119Z" fill="#9BB7F6"/>
</g>
</g>
<defs>
<clipPath id="clip0_1962_22144">
<rect width="100" height="100" fill="white"/>
</clipPath>
</defs>
</svg>
