<svg width="312" height="312" viewBox="0 0 312 312" fill="none" xmlns="http://www.w3.org/2000/svg">
<rect width="312" height="312" fill="#FFEEA9"/>
<path d="M146.517 255.269C140.447 258.689 133.856 260.289 127.135 259.399L120.664 258.079L113.27 255.249C107.722 253.129 101.984 251.969 96.1753 253.069L87.5075 254.709C84.4879 255.279 81.4782 255.069 78.4485 254.629C73.1214 253.839 68.2157 251.889 63.4504 249.289L58.8356 246.369C53.7594 243.159 48.9138 237.119 46.5663 231.189L43.8576 225.559C41.9114 222.339 39.6843 219.479 37.096 216.879L28.99 208.779C26.3415 206.129 24.9169 202.759 23.6729 199.099C21.7769 193.509 21.2552 187.469 22.2383 181.539L24.2648 169.299C25.569 161.439 25.4386 153.709 24.2949 145.799C23.2917 138.889 22.6196 132.229 22.3487 125.239C22.0879 118.499 23.2115 111.789 26.8331 106.329C28.4583 103.869 30.3845 101.969 32.5414 100.099C38.4704 94.9491 42.3829 90.2391 45.6434 82.6991C46.6466 80.3891 47.7702 78.1991 49.4455 76.4191C50.1177 75.7091 50.85 74.8391 51.6125 74.2591L60.7317 67.1991C64.9753 63.9191 69.7306 60.3791 74.536 58.2391C81.087 55.3191 88.1596 54.4191 95.2022 55.4491L105.826 56.9991L111.244 57.2191C114.594 57.3591 117.915 57.0191 121.155 55.9891C126.051 54.4391 130.867 54.3291 135.832 55.5391C139.554 56.4391 142.925 57.6791 146.356 59.4891C149.386 61.0891 152.426 62.4191 155.766 63.0491C163.2 64.4691 169.631 62.3991 176.362 59.0691C180.636 56.9591 184.84 54.9791 189.454 53.9191C200.098 51.4691 207.773 55.0491 216.942 60.0891L223.714 63.8091C229.673 67.0891 234.82 63.5591 238.742 63.4091C243.287 63.2291 248.724 67.5891 251.734 71.3191C253.811 73.8891 255.446 76.6191 257.181 79.4291L258.766 81.9991C261.886 87.0491 265.949 91.6091 270.805 94.7091C279.322 100.139 284.168 105.439 288.602 115.139C291.411 121.279 292.906 127.849 292.555 134.739C292.374 138.269 291.501 141.519 290.749 144.909L289.806 149.159C288.642 154.409 288.241 159.629 289.094 164.999L291.21 174.209C291.652 176.149 292.143 178.149 292.003 180.159C291.752 183.879 292.284 187.199 292.986 190.809C293.608 194.009 293.227 197.479 292.495 200.629C291.853 203.399 290.478 205.689 289.174 208.089C288.05 210.149 286.806 211.859 285.151 213.489C281.991 216.589 278.53 219.089 274.878 221.509L267.254 227.229C264.495 229.629 262.448 232.519 260.953 235.999C258.576 241.549 255.737 245.569 251.082 248.999C244.611 253.769 238.642 253.949 231.238 253.169L224.166 252.419C217.675 251.729 211.425 253.459 205.706 256.889C202.948 258.549 200.249 260.069 197.149 260.889C188.732 263.129 180.636 260.089 172.751 257.049L162.779 253.199C159.438 251.909 155.756 251.819 152.275 252.659C150.229 253.149 148.443 254.179 146.487 255.279L146.517 255.269Z" fill="white"/>
</svg>
