<?xml version="1.0" encoding="UTF-8"?>
<svg id="_레이어_1" data-name="레이어 1" xmlns="http://www.w3.org/2000/svg" viewBox="0 0 1014 1474">
  <defs>
    <style>
      .cls-1 {
        fill: #efe5d5;
      }

      .cls-2 {
        fill: #959e7a;
      }

      .cls-3 {
        fill: #6f825e;
      }

      .cls-4 {
        fill: #3a553c;
      }

      .cls-5 {
        fill: #f8f3ea;
      }

      .cls-6 {
        fill: #f9f4ed;
      }

      .cls-7 {
        fill: #d6cbb4;
      }

      .cls-8 {
        fill: #4c6647;
      }

      .cls-9 {
        fill: #456043;
      }
    </style>
  </defs>
  <g>
    <path class="cls-2" d="M796.67,771.24c1.26,15.68,3.71,31.37,8.04,46.53l-32.29-.75c2.91-15.31,4.76-31.02,4.79-46.57l19.46.78h0Z"/>
    <path class="cls-9" d="M192.81,1050.07l3.54,5.18c2.99-5.08,6.34-4.71,10.73-3.91l8.62,1.58c-1.79,4.91-2.08,10.64-.73,13.22.47.89,2.48.13,5.05-.54-.35.99-1.68,3.18-2.57,4.24s-5.49,1.66-6.02.26l-2.84-7.5-2.13,1.81c1.06,5.12-1.95,10.34-8.13,10.97l3.68,1.76c.7.33.88,2.18,1.07,3.16l.43,2.12c.09.43,1.48-.56,1.63-.98l.84-2.49c.24-.71,2.61-.17,3.04.41l3.74,5.15c.22.3.4,1.93.1,2.14l-1.32.92c-.43.3-1.11-2.17-1.16-2.25-2.25.76-4.75.87-6.69.39l-.51.43-1.79,2.23c-.34.43-1.94-.48-2.16-.94l-1.56-3.23c-.26-.54-2.38,1.32-2.54,1.96l-2.23,9.19-7.77-3.07c1.88-4.87,8.6-8.79,6.62-10.05l-4.01-2.55c2.05-3.33,7.56,1.69,8.19-3.59.11-.92-1.85-2.17-2.82-2.36l-3.82-.74c-1.58-.3,3.78-6.28,2.67-7.63l-3.28-3.96,4.87-4.49-4.02-2.54c-.62-.39-.47-2.68-.38-3.18l3.65-1.1v-.02ZM200.09,1082.55c0-.64-.52-1.16-1.16-1.16s-1.16.52-1.16,1.16.52,1.16,1.16,1.16,1.16-.52,1.16-1.16ZM203.24,1084.83l-.82-1.13c-.22-.3-1.44.16-1.23.46l1.04,1.51,1.01-.84h0Z"/>
    <path class="cls-4" d="M676.03,1093.56c-13.34,11.35-28.54,19.53-45.38,25.7l-80.49,29.46-83.1,29.79-22.89,9.47c-.17-.83,1.65-2.37,2.6-2.75l15.64-6.28,28-10.9,10.28-3.78,22.29-8,23.1-7.82,44.47-15.48,38.78-15.12c13.13-5.12,25.42-11.22,37.15-18.87l4.2-2.74,5.37-2.66-.02-.02Z"/>
    <path class="cls-9" d="M176.14,1102.09c-3.65-3.04-2.34-6.86-.03-9.53l3.23-5.5c3.54,5.49.7,11.1-3.2,15.03Z"/>
    <path class="cls-4" d="M686,1083.43l3.28-8.9c3.61-8.84-.3-16.22-4.15-23.94l5.94,9.67c4.17,7.46-.01,17.51-5.07,23.16h0Z"/>
    <path class="cls-9" d="M227.36,1095.05l-2.82,9.81c-4.02-2.72-2.63-6.64-.37-9.15l.93-1.92c.25-.51,2.43.67,2.26,1.26h0Z"/>
    <path class="cls-9" d="M220.66,1078.21l-8.77.26c-.25-1.8,1.14-3.97,2.57-4.02,2.31-.08,3.54.48,5.78,2.19l1.79-1.56.83-3.08c.15-.54,2.16.16,2.25.43-.63,1.57-2.86,5.74-4.47,5.78h.02Z"/>
    <polygon class="cls-9" points="226.18 1090.87 220.3 1089.13 225.31 1080.99 226.18 1090.87"/>
    <path class="cls-4" d="M685.17,1084.49c-2.36,3.01-5.29,6.03-8.25,8.37.29-4.14,4.18-7.92,8.25-8.37Z"/>
    <path class="cls-9" d="M227.51,1104.18c1.12-.57,4.51-1.04,4.44-.22l-.42,4.59c-.07.8-2.76-.47-3.54-.73-.98-.32-1.44-3.15-.48-3.64h0Z"/>
    <path class="cls-4" d="M442.18,1188.94l-19.07,8.77-13.08,6.82c.44-1.56,2.72-3.26,4.73-4.21l15.06-7.11,10.9-5.5,1.45,1.23h0Z"/>
    <path class="cls-4" d="M409.02,1204.4l-12,7.18c-.25-.77,1.45-3.27,2.57-3.69l9.43-3.49h0Z"/>
    <path class="cls-9" d="M206.43,1097.41l1.6,1.78c.39.43-.92,1.04-2.38,1.64l-1.94-1.66-.66-2.24c-.16-.53,1.13-2.04,1.5-1.62l1.88,2.09h0Z"/>
    <path class="cls-4" d="M333.78,1255.55l-19.19,19.02c.45-.79,1.37-2.82,2.11-3.55l13.53-13.3c.93-.92,2.74-2.1,3.55-2.16h0Z"/>
    <path class="cls-9" d="M210.95,1091.82c-2.11,3.87-1.9,4.01-2.22,3.63l-1.52-1.81c-.43-.51.68-1.51,2.04-2.86,1.17.71,2.42,1.47,1.7,1.03h0Z"/>
    <path class="cls-9" d="M201.95,1105.32c-3.37.72-4.01.45-3.53-1.26l3.77-1.32c.65-.23.05,2.65-.23,2.58h-.01Z"/>
    <path class="cls-9" d="M196.28,1097.15l8.17-8.93c-.97,4.14-2.87,8.36-8.17,8.93Z"/>
    <path class="cls-4" d="M365.87,1230.31l-14.13,10.06c4-3.98,8.84-8.12,14.13-10.06Z"/>
    <path class="cls-9" d="M89.97,1250.84l-1.65,2.31c-.21.3-1.4,0-1.36-.09l1.2-1.99c.26-.43,2.01-.36,1.8-.23h.01Z"/>
    <path class="cls-4" d="M384.41,1218.86l-4.33,2.75c-.11-.66.12-2.61.9-2.72l3.43-.03Z"/>
    <path class="cls-4" d="M379.28,1221.58l-6.42,4.21c1.27-2.59,3.59-4.3,6.42-4.21Z"/>
    <path class="cls-4" d="M394.52,1212.92l-3.55,1.78c.04-.62.1-2.14.71-2.13l2.83.35h.01Z"/>
    <path class="cls-4" d="M351.08,1241.78l-3.1,1.92c.42-.39.08-2.12.65-2.13l2.45.2h0Z"/>
    <path class="cls-4" d="M311.36,1278.7l-4.35,4.69,4.35-4.69Z"/>
    <circle class="cls-4" cx="489.97" cy="1004.48" r="1.11"/>
    <circle class="cls-9" cx="224.97" cy="1077.48" r="1.11"/>
    <circle class="cls-9" cx="88.97" cy="1247.48" r="1.11"/>
    <path class="cls-4" d="M340.98,1249.5l-3.85,3.28,3.85-3.28Z"/>
    <path class="cls-4" d="M346.02,1245.5l-4,3.15,4-3.15Z"/>
    <rect class="cls-9" x="156.14" y="1111.61" width=".71" height=".71" transform="translate(-740.44 436.35) rotate(-45)"/>
    <rect class="cls-9" x="84.14" y="1246.61" width=".71" height=".71" transform="translate(-856.99 424.98) rotate(-45)"/>
    <path class="cls-4" d="M723.71,1139.11l4.57,3.63-7.75,5.59-3.01,6.58c-1.9,4.15-5.49,5.87-10.97,5.59,1.97,2.83,2.85,6.41.63,7.91-2.44,1.66-3.66,2.66-5.67,4.63l-6.89.82c-2.18,3.15-4.49,5.65-7.29,8.03l-.29-7.13-.56-2.59c-.09-.41-1.81,0-2.02.37l-1.4,2.53c-2.8,5.04-.35,11.34-2.64,8.9l-2.23-2.38-7.9,3.55-5.98-2.82-.97,5.78c-2.62-3.03-8.24-1.12-8.04,1.29l.9,10.8-3.62-.78c-1.48-.32-1.01,4.35-3.75,6.11-3.63,2.33-4.86,5.97-3.16,11.46l-4.32-5.59-4.01,3.56,1.38-6.19-5.5,2.91c.2-2.92.28-5.54-1.01-6.97l-2.95,4.83c-.74,1.21-4.1.86-6.02.26-3.25,3.84-7.89,4.86-13.67,4.19l2.98,7.48-7.68,3.27c-1.29,4.94-6.55,9.97-11.58,8.53-2.27-.65-6.23,1.33-4.92,3.93,1.46,2.9,5.9.72,8.5-.73.14,1.66-1.61,2.96-3.3,3.58l-3.24,1.19c-.8.29-2.59-1.52-3.02-1.81-2.24,2.41-3.75,3.84-5.98,5.54l.73,2.14c.12.34-1.29.44-1.48.13l-1.02-1.6c-.59-.92-2.38-2.94-2.94-3.42l-2.23,8.41-2.88-5.16-.82,4.42c-.16.87,2.48,1.38,3.52,1.62l5.56,7.47,4.66-4.1,1.46,4.96.73.61c1.98,1.05,2.2,1.78-.13,1.2l-1.07-1.11-3.98.12c-.87.03-.47,3.08.01,3.93,3.44,6.03-4.07,13.29-4.7,12.66l-2.62-2.63c-.76-.12-3.95,1.73-3.84,3.08l.53,6.66-4.76-1.68-1.18,5.47c-1.62,7.53,5.04,11.8,2.36,11.12l-1.98-.51c-.9-.23-3.67-.7-3.55.21l.46,3.54,5.81.16-.96,3.32s3.39,5.74,8.5,9.48l-6.67-1.37c-.88.02-3.25.98-3,1.81.18.63.74,2.55.74,2.53,3.44-1.36,5.36-1.75,8.34-1.55l3.27-1.43c1.66.49,3.91,5.23,2.66,6.41-2.01.85-5.34,1.79-6.27,3.14l-4.51,6.54c.34,4.82,1.87,9.96-3.69,13.68-2.08-2.08-3.75-5.14-5.14-8.1-6.04-12.82-10.02-25.78-10.95-40.15.22-9.52,2.23-18.62,5.32-27.9l-.59-2.64c4.24-9.78,10.75-17.97,17.62-26.04l3.29-3.87,2.08-1.87,2.81-3.4,2.86-2.81,9.6-6.41,20.35-14.85,21.31-13.6,22.31-12.78c.95-.55,2.73-2.61,2.69-3.31l.91.18c2.45-.51,5.31-1.72,7.92-3.28l12.5-7.44,28.28-16.84,12.27-9.83,1.86-1.15.02-.02ZM580.17,1261.46l-4.66-3.12.86,3.28c.17.65,1.78.44,3.81-.16h-.01ZM578.08,1266.48c0-.61-.5-1.11-1.11-1.11s-1.11.5-1.11,1.11.5,1.11,1.11,1.11,1.11-.5,1.11-1.11ZM575.15,1268.64l.17,2.88c.02.39,1.63-.18,1.64-.57l.06-1.96c.01-.39-1.89-.75-1.87-.35h0Z"/>
    <path class="cls-3" d="M697.47,820.27l5.74,20.08c2.77,9.69,13.81,28.54,24.63,32.92l-.59,55.12c-31.6,7.86-62.5,18.11-93.38,29.84l-13.85,5.26c.47-.49-2.34-.98-3.05-.78l-10,2.82-80.03,16.87-4.95,2.09c-45.24-14.06-89.61-29.7-134.81-45.17l-59.3-20.3,6.71-3.98,54.04-21.9,6.74-1.7,6.69-3.91,42.1-15.87,40.51-13.52,52.98-14.3,25.16-5.76c42.7-9.78,85.8-14.51,129.46-17.4l5.19-.42h.01Z"/>
    <path class="cls-2" d="M620.03,963.49l-65.46,23.56c-.99.36-2.74,1.67-2.45,2.27-1.95-.23-5.57,1.13-7.07,2.34l-23.04-7.16,4.95-2.09,80.03-16.87,10-2.82c.72-.2,3.52.29,3.05.78h-.01Z"/>
    <path class="cls-4" d="M583.71,1228.42l28.17-22.13,48.09-28.82c.04.7-1.73,2.76-2.69,3.31l-22.31,12.78-21.31,13.6-20.35,14.85-9.6,6.41h0Z"/>
    <path class="cls-4" d="M721.85,1140.27l-12.27,9.83-28.28,16.84-12.5,7.44c-2.62,1.56-5.47,2.77-7.92,3.28l4.84-3.51,40.93-23.96,15.2-9.93h0Z"/>
    <path class="cls-4" d="M580.86,1231.23l-2.81,3.4,2.81-3.4Z"/>
    <path class="cls-4" d="M572.68,1240.37l3.29-3.87-3.29,3.87Z"/>
    <path class="cls-3" d="M804.71,817.77l2.66,9.29,7.51,15.45c4.19,8.61,10.37,15.65,19.02,20.17l-.68,47.35-27.29,2.96-40.19,6.8-8.53,1.72-12.05,2.42-.74-41.01-.1-9.74c17.43-8.62,24.53-37.36,28.11-56.16l32.29.75h-.01Z"/>
    <path class="cls-9" d="M69.61,1166.3c-.01-1.72.11-4.74.25-5.08l3.72,4.92-.33-6.38c3.41,2.83,8.47,3.36,12.29-.6l-6.62-2.53-.98-1.63c-.18-.3.26-1.52.6-1.43l3.47.92-2.31-9.5,7.29,3.04c1.48,3.74,1.92,5.87.24,8.46.91,3.07.43,5.59-1.71,8.08s-5.04,1.72-9.17-.15c-.51.11-.31,3.57.46,4.65s2.52.93,5.66,1.21l-5.52,2.74c-4.47-5.3-10.05-5.1-16.7-6.39,2.58-1.44,6.96-.82,9.36-.32h0Z"/>
    <path class="cls-9" d="M82.75,1138.13c-1.43.68,3.7,4.9,1.93,5.25l-2.41.48-3.51-7.91,10.17-1.02,2.14-3.81c.5-.9,3.04-1.35,4.01-.99l-2.5,6.17c-.4.98-1.53,2.54-2.39,3.02-3.07,1.67-5.08-2.31-5.74-2l-1.69.81h0Z"/>
    <path class="cls-9" d="M111.22,1165.41l.58,5.98-5.51-1.95-2.04-11.6c-.17-.96,3.17-1.88,3.83-1.19s2.15,2.57,1.42,3.19l-1.94,1.67c-.4.34.03,1.8.23,1.9,1.13.3,3.37,1.29,3.44,2h-.01Z"/>
    <path class="cls-9" d="M98.82,1177.8l2.29-3.25c.5-.71-1.11-2.12-2.62-3.69l5.15-3.51,3.45,13.34-8.28-2.88h.01Z"/>
    <path class="cls-9" d="M136.8,1118.93c-.34.49-3.08.41-2.79-.09l1.24-2.1c.53-.9,1.74-1.92,1.48-2.54l-1.57-3.68,5.41,2.96-3.77,5.45h0Z"/>
    <path class="cls-1" d="M51.97,791.87V48.49h910v684.24l-20.88,7.09c-18.76,8.34-37.03,16.55-56.46,21.78,1.7-21.07,1.5-42.18.3-63.73l-1.13-20.32-4.34-52.29-4.9-42.79-4.69-32.9c-4.38-30.72-10.14-60.64-18.34-90.62-2.53-9.24-6.97-23.1-13.08-23.22-18.25-.37-35.87,146.08-38.31,174.53l-4.73,55.02-.69,12.24c-1.79,31.62-.55,62.7,1.95,93.74l-19.46-.78.07-41.18c-3.41-64.45-11.59-127.85-23.54-191.23-3.32-17.61-7.1-33.79-12.9-50.44-1.15-3.32-3.87-8.19-7.92-7.78-3.3.34-6.54,5.56-7.68,8.98-5.57,16.63-9.34,32.86-12.47,50.42-9.71,54.54-15.46,108.83-20.01,164.15l-2.27,46.15-44.65-18.04c-24.99-10.13-48.91-20.66-74.44-29.4-68.16-23.33-131.44-31.53-202.35-14.6-26.72,6.38-52.11,14.07-77.4,24.72l-62.58,26.36c-57.61,24.27-115.7,44.74-177.1,53.3v-.02ZM414.41,550.9l13.34.09,42.22-.18,29.92.08h16.64l33.82-.17,10.75.15,23.76.16,6.34.12,21.13-.82c.8-17.29-18.67-28.56-34.84-25.64-6.99-19.35-24.91-30.34-44.82-32.12-7.91-.7-15.6,2.07-24.18,4.33.4-9.86-1.29-19.78-7.01-28.06l-4.21-6.09c-2.89-4.19-9.45-10.19-13.64-12.14-.69-.32-3.4.64-4.13.85s-.63-3.48-1.31-3.85c-7.61-4.14-20.51-6.81-29.56-4.68l-14.22,3.35-.05-10.05c-1.33-14.93-5.79-29.64-13.54-42.5-3.25-5.4-7.32-10.02-11.27-14.75-17.23-20.64-43.94-31.97-70.84-33.32-11.11-.56-21.99,1.62-32.67,4.77-11.58,3.41-21.21,8.78-30.81,16.3-15.48,12.14-26.93,28.55-31.99,47.75l-2.8,10.65c-9.97-3.45-18.42-2.73-27.84-1.12-10.04,1.72-18.25,7.56-25.48,14.54-10.95,10.57-16.47,24.16-17.36,40.65-12.88-4.38-26.21-2.71-37.73,4.27-5.62,3.4-11,7.04-14.16,12.82l-3.24,5.94c-2.7,4.94-4.89,12.1-4.28,18.17,1.68,16.64,14.97,30.52,31.62,30.62l19.02.12,24.51-.13,19.28.16,36.44-.07,21.48-.2,13.3.02,21.98.11,18.92-.04,14.18-.03,13.51-.02,21.36.11,19.11.09,29.36-.22v-.02Z"/>
    <path class="cls-9" d="M144.29,1126.22c-2.55-1.2-.76-4.86,1.58-6.41.88-.24,2.32,1.92,2.35,3.2.04,1.43-2.59,3.84-3.93,3.2h0Z"/>
    <path class="cls-9" d="M684.15,1049.59c.07.03.86.74.99,1.01,3.85,7.72,7.76,15.09,4.15,23.94l-3.28,8.9-.83,1.06c-4.07.45-7.96,4.23-8.25,8.37l-.89.7-5.37,2.66-4.2,2.74c-11.73,7.66-24.02,13.76-37.15,18.87l-38.78,15.12-44.47,15.48-23.1,7.82-22.29,8-10.28,3.78-28,10.9-15.64,6.28c-.94.38-2.77,1.92-2.6,2.75l-2,.96-1.45-1.23-10.9,5.5-15.06,7.11c-2.01.95-4.29,2.65-4.73,4.21-.21-.04-.85-.18-1.01-.12l-9.43,3.49c-1.13.42-2.82,2.92-2.57,3.69l-2.5,1.34-2.83-.35c-.61-.02-.68,1.51-.71,2.13l-6.57,4.16-3.43.03c-.78.11-1.01,2.06-.9,2.72l-.8-.02c-2.82-.09-5.15,1.62-6.42,4.21-1.27,1.78-4.66,3.66-7,4.53-5.29,1.95-10.14,6.09-14.13,10.06-.13.35-.38,1.21-.66,1.41l-2.45-.2c-.57,0-.23,1.74-.65,2.13l-1.96,1.8-4,3.15-1.04.85-3.85,3.28-3.35,2.77c-.82.07-2.62,1.25-3.55,2.16l-13.53,13.3c-.74.73-1.66,2.76-2.11,3.55-.68,1.21-2.12,2.95-3.22,4.14l-4.35,4.69-1.19.96c-1.02.68-2.68,2.09-3.6,3.39-8.39,11.79-16.19,23.33-22.31,36.46l-3.89,8.34c-9.54,20.45-14.96,55.52-12.16,78.88l2.12,14.08H51.97v-157.01l4.93-.49c3.75.75,6.24-.22,8.32-3.19.35.39,1.29,2.03,1.4,1.69l1.04-3.14,2.13,1.71c.47.38,1.95-.92,2.57-.89l3.13.11c.87.03,1.9-1.94,2.6-2.53l4.81-4.07c.59.19,2.13.85,2.35.41l1.75-3.38-7.07.25-2.92-4.76-1.14.82.32,1.94c.11.65-1.46,2.37-1.7,1.76l-1.14-2.84c-1.85.77-3.79,1.36-6.74,1.4l3.21-10.62c.24-.78-.85-3.16-.42-3.73l2.17-2.91,1.12-1.5c.36-.48,2.46.57,2.41.97l-3.78,8.04,3.09,2.94,5.99-6.44,1.67,6.11,9.82-16c-1.22-1.19-2.48-2.52-2.76-3.42-.34-1.08.89-3.02,1.96-4.35l.31-2.69-4.49,4.91-7.46,2.48c-2.12.7-2.92,1.48-4.66,4.62l-3.19-3.81,4.11-1.13c1.77-.49.86-7.81-.63-6.19-1.26,1.38-4.37,5.01-6.14,4.65l6.34-8.84-1.01-1.13-1.38-.38c-.55-.15-1.11-1.53-.64-1.84.53-.36,2.16-1.09,2.33-.54l.79,2.5.24.54,1.41-.63c.38-.17.05-1.8-.13-2.27l-2.89-7.56,3.05-2.91,1.3,3.31c.14.36,1.14-.33,1.27-.69l.76-2.04c.22-.58,2.58-.61,2.44-.03l-.85,3.56c.23.56,3.34.73,4.26-.03.99-.83,1.48-3.65.8-4.63-.41-.59-1.16-2.1-.65-2.25l2.74-.79c1.13-.33,3.82-1.58,3.8-2.74-.05-2.46-1.46-5.92-3.95-7.61l3.51-2.65,3.18-1.35c.64-.27.73,2.11.63,4.48l1.11-.27c-.36-4.41-.46-6.71-.13-9.79,4.94,7.14,9.52,5.11,10.6,8.49.85,2.65-7.48,3.06-5.45,7.75l6.67-5.62,4.23-3.77c-.13-2.29.77-4.57,2.55-5.82l2.32-1.09c.47-.22,1.78.92,1.53,1.38l-1.15,2.09c-.31.56-.55,2.17-.57,2.81s2.37.85,2.97.66l4.98-2.32-2.24,4.16,8.23,3.48-1.06-5.47,3.27-2.23c2.32-1.58-5.7-2.88-5.44-3.97l.88-3.79,2.8,1.6c.38.22.96-1.95.55-2.1l-2.21-.81c-2.09-.77-5.75,2.87-5.64,5.51-.35.35-2.46.67-2.61-.05-.12-.54-.26-2.98-.74-3.26-1.61-.94-4.71-1.54-8.08-2.23l1.93-4.95-3.17-2.71,4.19-3.15-3-1.36c-.37-.17.44-1.26.85-1.3l2.69-.26c.58-.06-1.1-2.21-1.63-1.92l-2.19,1.17-2.28-4.25c-3.51-.27-5.68-2.07-5.27-5.82-3.21-1.94-4.36-6.98-1.2-9.5,1.33-1.5,1.84-2.63,3.07-5.83,5.7.22,9.96,4.04,9.01,1.12l-.88-2.7c4.33,1.34,9.22-1.26,9.37-4.5l-6.3-2.68,4.74-.36c.71-2.66,3.07-4.83,5.77-5.81l.25-2.66c.06-.61,3.17-.93,1.69-.59l1.23,5.89-1.91,1.2c-.38,2.46-.7,3.45-1.79,6.19,1.17,2.11,6.5,4.53,9.67,4.57l1.87,2.07-6.8,2.39c1.59,1.11,2.02,1.38,2.72,1.74,4.07-1.29,7.68-2.68,9.37-4.44l-.76-5.36c-.49-3.42,5.82-.04,8-1.01.77-.34,2.07-2.55,1.46-3.13l-2.86-2.73c1.77-1.01,3.9-2.12,4.75-3.07,1.28-1.43-1.03-7.39-4.34-9.05l1.61,5.17-6.43,2.14,1.94-7.59-7.75.53,3.07-3.15c-3.73-3.83-3.21-8.78-.43-12.84-2.32,1.26-3.4,1.95-4.33,2.2s-2.37-2.85-1.62-3.46l2.56-2.11c-.4-2.3-.46-5.01,1.42-6.73,2.27,5.3,2.87,9.2,8.17,9.66l-3.02,8.12,6.51-3.92,3.73-1.64,1.62-3.04,3.58-2.12c.81-.48.16-3.41-.29-4.36l-4.42,2.31-5.38-4.42,7.08-1.74c1.39-.34,4.62-.04,5.66-.91.89-.74,1.66-2.99,2.22-4.65,3.06-1,4.78-6.28,2.83-8.15l-11.16,1.15c-2.47-3.82-7.21-5.47-9.99-2.11-.87,1.05-1.71,1.84-2.4,2.08s-2.01-2.04-1.33-2.3l3.09-1.15v-8.1l8.27-2,12.38-3c.55-1.17,1.36-2.76,1.85-2.4.36.27,1.71,1.24,2.16,1.19l10.52-1.2,5.49-1.55c-.09.5-.24,2.79.38,3.18l4.02,2.54-4.87,4.49,3.28,3.96c1.11,1.34-4.25,7.32-2.67,7.63l3.82.74c.98.19,2.94,1.43,2.82,2.36-.63,5.28-6.14.26-8.19,3.59l4.01,2.55c1.97,1.26-4.74,5.17-6.62,10.05l7.77,3.07,2.23-9.19c.15-.63,2.28-2.5,2.54-1.96l1.56,3.23c.22.46,1.82,1.37,2.16.94l1.79-2.23-.96-.45-1.04-1.51c-.21-.3,1.02-.76,1.23-.46l.82,1.13.46.86c1.95.48,4.44.37,6.69-.39.05.09.72,2.56,1.16,2.25l1.32-.92c.31-.21.12-1.84-.1-2.14l-3.74-5.15c-.42-.58-2.79-1.13-3.04-.41l-.84,2.49c-.14.42-1.54,1.41-1.63.98l-.43-2.12c-.2-.98-.38-2.83-1.07-3.16l-3.68-1.76c6.18-.64,9.19-5.85,8.13-10.97l2.13-1.81,2.84,7.5c.53,1.4,5.13.8,6.02-.26s2.22-3.25,2.57-4.24c-2.56.67-4.58,1.43-5.05.54-1.35-2.57-1.06-8.31.73-13.22l-8.62-1.58c-4.39-.8-7.74-1.17-10.73,3.91l-3.54-5.18,19.89-4.28,8.12-1.67,16.53-3.64c1.37-.3,3.69.12,4.76.59,1.08-1.09,3.38-2.15,5.7-2.48l12.18-1.75,16.9-3.4,10.97-1.69c2.49-.38,4.02-.4,6.38-.86l12.67-2.47,12.42-2.23,15.99-2.87,7.84-1.19,10.48-1.85,12.31-2.17,19.69-3.25,5.4-1.02,19.61-3.13,11.81-2.14,5.47-.91,10.49-1.42,16.97-2.29,1.87-2.43c.3-.39,1.86,1.66,2.34,1.58l8.85-1.36c1.29-.2,3.9.68,5.28,1.28.62-.72,2-2.78,2.97-2.63l4.51.68,4.24-1.7,1.15,3.03c.13.34,1.41-.05,1.49-.4s.17-2.71.52-2.77l14.96-2.28,13.4-1.76,18.57-2.41c3.96-.51,6.4-.56,8.84,2.84,1.35-.73,3.87-1.57,4.29-.74l1.55,3.06,5.9-.27c1.14-.05,2.5,2.13,3.69,3.76l2.81-1.87,6.91,4.76c3.05-2.34,5.06-1.86,8.04-.81l8.25,2.89c3.28,1.15,8,4.02,11.09,4.35,4.9.53,8.16.86,12.24,3.49,3.03,1.95,6.87,2.66,10.4,3.61l12.42,3.34c5.32,1.43,5.37,5.6,6.96,9.67,1.39,2.76,7.7-.04,7.9-4.04l4.34,3.43,12.24,5.85c1.64.78,3.81,3.32,5.1,5.01,11.17.68,9.73,7.73,15.67,8.47v.02ZM491.08,1004.48c0-.61-.5-1.11-1.11-1.11s-1.11.5-1.11,1.11.5,1.11,1.11,1.11,1.11-.5,1.11-1.11ZM220.66,1078.21c1.61-.05,3.83-4.22,4.47-5.78-.1-.27-2.11-.98-2.25-.43l-.83,3.08-1.79,1.56c-2.25-1.71-3.48-2.27-5.78-2.19-1.43.05-2.83,2.22-2.57,4.02l8.77-.26h-.02ZM226.08,1077.48c0-.61-.5-1.11-1.11-1.11s-1.11.5-1.11,1.11.5,1.11,1.11,1.11,1.11-.5,1.11-1.11ZM226.18,1090.87l-.87-9.88-5.01,8.14,5.88,1.75h0ZM176.14,1102.09c3.9-3.93,6.74-9.54,3.2-15.03l-3.23,5.5c-2.31,2.67-3.61,6.49.03,9.53ZM196.28,1097.15c5.3-.57,7.2-4.8,8.17-8.93l-8.17,8.93ZM210.95,1091.82c.72.44-.53-.32-1.7-1.03-1.36,1.35-2.47,2.35-2.04,2.86l1.52,1.81c.31.37.1.24,2.22-3.63h0ZM227.36,1095.05c.17-.59-2.02-1.76-2.26-1.26l-.93,1.92c-2.26,2.51-3.65,6.43.37,9.15l2.82-9.81h0ZM206.43,1097.41l-1.88-2.09c-.37-.41-1.65,1.09-1.5,1.62l.66,2.24,1.94,1.66c1.46-.6,2.77-1.21,2.38-1.64l-1.6-1.78h0ZM201.95,1105.32c.28.07.89-2.81.23-2.58l-3.77,1.32c-.47,1.71.16,1.98,3.53,1.26h.01ZM227.51,1104.18c-.95.49-.5,3.32.48,3.64.78.26,3.47,1.53,3.54.73l.42-4.59c.07-.82-3.32-.35-4.44.22h0ZM156.47,1111.48l-.5.5.5.5.5-.5-.5-.5ZM84.47,1246.48l-.5.5.5.5.5-.5-.5-.5ZM90.08,1247.48c0-.61-.5-1.11-1.11-1.11s-1.11.5-1.11,1.11.5,1.11,1.11,1.11,1.11-.5,1.11-1.11ZM76.04,1249.78l-.64-1.31c-.21-.43-1.29-.83-1.85-1.06-.45-.19-.3,1.66.13,1.9l1.6.87.75-.4h.01ZM89.97,1250.84c.2-.13-1.55-.2-1.8.23l-1.2,1.99c-.05.09,1.14.38,1.36.09l1.65-2.31h-.01Z"/>
    <rect class="cls-9" x="73" y="1258.34" width="2.52" height="4.21" transform="translate(-512.5 142.43) rotate(-24.32)"/>
    <path class="cls-9" d="M167.3,1071.32c.62.39,1.28.63,1.22,1.01l-.34,2.23c-.08.51-2.63-.25-2.37-.69l1.5-2.55h-.01Z"/>
    <path class="cls-4" d="M961.97,1085.93l-.03,339.56h-318.97c-29.74-22.83-63.31-50.94-81.14-84.65-13.13-24.82-17.93-48.69-6.78-74.42l.59,2.64c-3.09,9.28-5.1,18.38-5.32,27.9.93,14.37,4.91,27.33,10.95,40.15,1.39,2.96,3.06,6.02,5.14,8.1,5.56-3.72,4.03-8.86,3.69-13.68l4.51-6.54c.93-1.35,4.25-2.29,6.27-3.14,1.25-1.18-1-5.92-2.66-6.41l-3.27,1.43c-2.98-.2-4.9.19-8.34,1.55,0,.02-.55-1.9-.74-2.53-.24-.84,2.12-1.8,3-1.81l6.67,1.37c-5.11-3.74-8.5-9.47-8.5-9.48l.96-3.32-5.81-.16-.46-3.54c-.12-.91,2.65-.44,3.55-.21l1.98.51c2.68.69-3.99-3.58-2.36-11.12l1.18-5.47,4.76,1.68-.53-6.66c-.11-1.35,3.08-3.2,3.84-3.08l2.62,2.63c.63.63,8.14-6.63,4.7-12.66-.49-.85-.88-3.91-.01-3.93l3.98-.12.48-.7-1.46-4.96-4.66,4.1-5.56-7.47c-1.04-.24-3.69-.74-3.52-1.62l.82-4.42,2.88,5.16,2.23-8.41c.56.48,2.35,2.51,2.94,3.42l1.02,1.6c.2.31,1.6.21,1.48-.13l-.73-2.14c2.23-1.7,3.74-3.13,5.98-5.54.43.29,2.22,2.11,3.02,1.81l3.24-1.19c1.69-.62,3.44-1.92,3.3-3.58-2.6,1.45-7.05,3.63-8.5.73-1.31-2.6,2.65-4.58,4.92-3.93,5.03,1.44,10.29-3.58,11.58-8.53l7.68-3.27-2.98-7.48c5.78.67,10.42-.35,13.67-4.19,1.92.6,5.28.95,6.02-.26l2.95-4.83c1.3,1.43,1.21,4.06,1.01,6.97l5.5-2.91-1.38,6.19,4.01-3.56,4.32,5.59c-1.7-5.49-.47-9.13,3.16-11.46,2.74-1.76,2.27-6.43,3.75-6.11l3.62.78-.9-10.8c-.2-2.41,5.42-4.32,8.04-1.29l.97-5.78,5.98,2.82,7.9-3.55,2.23,2.38c2.28,2.44-.16-3.86,2.64-8.9l1.4-2.53c.2-.36,1.93-.77,2.02-.37l.56,2.59.29,7.13c2.8-2.38,5.11-4.88,7.29-8.03l6.89-.82c2-1.97,3.23-2.97,5.67-4.63,2.21-1.5,1.34-5.08-.63-7.91,5.47.28,9.07-1.44,10.97-5.59l3.01-6.58,7.75-5.59-4.57-3.63c10.86-8.21,21.37-16.66,30.15-27.71,14.15-18.54,16.85-40.29.65-57.46-8.24-8.74-17.62-15.26-28.46-20.66-17.57-8.75-35.18-16.15-54.49-20.47l-75.94-16.97-23.69-4.23c2.21-1.23,8.48-.87,10.54-.17,5.9,1.98,14.66,1.78,21.62,2.4,32.39,2.9,63.97,6.74,95.72,12.59l19.21,3.54,31.87,6.54,19.1,4.76,16.23,4c1.5.37,4.33-1.2,5.42,1.71,39.93,10.19,78.35,23.18,116.78,37.78l31.41,11.93c2.28.87,3.95,2.62,4.98,4.67l2.91-1.96,14.24,6.53h-.02ZM586.66,1260.42l-.13,1.2c2.33.58,2.11-.15.13-1.2Z"/>
    <path class="cls-2" d="M690.49,749.53l1.94,40.34,5.04,30.4-5.19.42c-43.66,2.89-86.76,7.62-129.46,17.4l-25.16,5.76-52.98,14.3-40.51,13.52-42.1,15.87-6.69,3.91-6.74,1.7-54.04,21.9-6.71,3.98-85.09-27.44c-60.45-19.49-121.44-34.73-183.87-45.75l-6.95-.64v-53.34c61.41-8.56,119.5-29.03,177.1-53.3l62.58-26.36c25.29-10.66,50.68-18.34,77.4-24.72,70.91-16.93,134.18-8.73,202.35,14.6,25.53,8.74,49.45,19.27,74.44,29.4l44.65,18.04h-.01Z"/>
    <path class="cls-9" d="M134.15,1127.65c-.02-.4,1.88-.05,1.87.34l-.06,1.96c0,.39-1.61.96-1.64.57l-.17-2.87h0Z"/>
    <path class="cls-9" d="M152.01,1090.91l2.38-.5c.39-.08.95,1.46.58,1.6l-1.6.6c-.57.21-1.97-1.57-1.36-1.7Z"/>
    <path class="cls-7" d="M552.11,989.32l19.82,2.3,23.69,4.23,75.94,16.97c19.31,4.31,36.92,11.72,54.49,20.47,10.84,5.4,20.21,11.92,28.46,20.66,16.2,17.17,13.5,38.92-.65,57.46-8.78,11.04-19.29,19.49-30.15,27.71l-1.86,1.15-15.2,9.93-40.93,23.96-4.84,3.51-.91-.18-48.09,28.82-28.17,22.13-2.86,2.81-2.81,3.4-2.08,1.87-3.29,3.87c-6.87,8.07-13.38,16.26-17.62,26.04-11.16,25.73-6.35,49.6,6.78,74.42,17.83,33.71,51.4,61.82,81.14,84.65h-376l-1.19-14.08c-3.51-35.4,5.56-71.84,23.72-102.48l16.31-24.58,1.19-.96,4.35-4.69c1.1-1.19,2.54-2.93,3.22-4.14l19.19-19.02,3.35-2.77,3.85-3.28,1.04-.85,4-3.15,1.96-1.8,3.1-1.92c.27-.2.53-1.05.66-1.41l14.13-10.06c2.34-.86,5.73-2.74,7-4.53l6.42-4.21.8.02,4.33-2.75,6.57-4.16,3.55-1.78,2.5-1.34,12-7.18c.16-.06.8.09,1.01.12l13.08-6.82,19.07-8.77,2-.96,22.89-9.47,83.1-29.79,80.49-29.46c16.84-6.16,32.05-14.34,45.38-25.7l.89-.7c2.96-2.34,5.89-5.35,8.25-8.37l.83-1.06c5.06-5.65,9.24-15.7,5.07-23.16l-5.94-9.67c-.13-.26-.92-.98-.99-1.01-16.69-18.01-49.77-30.11-74.57-37.83l-64.54-20.1c1.51-1.21,5.13-2.57,7.07-2.34v.03Z"/>
    <circle class="cls-9" cx="83.97" cy="1131.48" r="1.11"/>
    <path class="cls-4" d="M327.89,919.03l59.3,20.3c45.2,15.47,89.57,31.1,134.81,45.17l23.04,7.16,64.54,20.1c24.8,7.72,57.88,19.83,74.57,37.83-5.94-.74-4.5-7.79-15.67-8.47-1.28-1.7-3.46-4.23-5.1-5.01l-12.24-5.85-4.34-3.43c-.2,4-6.5,6.8-7.9,4.04-1.59-4.07-1.64-8.23-6.96-9.67l-12.42-3.34c-3.53-.95-7.37-1.65-10.4-3.61-4.08-2.63-7.33-2.97-12.24-3.49-3.09-.33-7.81-3.2-11.09-4.35l-8.25-2.89c-2.98-1.05-4.99-1.53-8.04.81l-6.91-4.76-2.81,1.87c-1.19-1.63-2.55-3.81-3.69-3.76l-5.9.27-1.55-3.06c-.42-.83-2.95,0-4.29.74-2.44-3.4-4.88-3.35-8.84-2.84l-18.57,2.41-13.4,1.76-14.96,2.28c-.35.05-.45,2.42-.52,2.77s-1.36.73-1.49.4l-1.15-3.03-4.24,1.7-4.51-.68c-.97-.15-2.34,1.92-2.97,2.63-1.38-.6-3.99-1.48-5.28-1.28l-8.85,1.36c-.48.07-2.05-1.97-2.34-1.58l-1.87,2.43-16.97,2.29-10.49,1.42-5.47.91-11.81,2.14-19.61,3.13-5.4,1.02-19.69,3.25-12.31,2.17-10.48,1.85-7.84,1.19-15.99,2.87-12.42,2.23-12.67,2.47c-2.36.46-3.89.47-6.38.86l-10.97,1.69-16.9,3.4-12.18,1.75c-2.32.33-4.62,1.39-5.7,2.48-1.07-.47-3.39-.89-4.76-.59l-16.53,3.64-8.12,1.67-19.89,4.28-3.65,1.1-5.49,1.55-10.52,1.2c-.45.05-1.8-.93-2.16-1.19-.48-.35-1.3,1.24-1.85,2.4l-12.38,3-8.26,2-34.21,8.69-35.89,10.05-.83-2.71c-.11-.37-1.26-1.09-1.3-.7l-.36,3.82-8.07,3.12-15.86,4.07v-241.27l6.96.64c62.43,11.01,123.42,26.25,183.87,45.75l85.09,27.44h.02Z"/>
    <path class="cls-8" d="M851.08,908.83c25.63-1.72,51.29-.31,77,3.13l14.64,1.96,19.25,3.55v168.46l-14.24-6.53-2.91,1.96c-1.03-2.05-2.7-3.81-4.98-4.67l-31.41-11.93c-38.43-14.6-76.85-27.59-116.78-37.78-1.1-2.91-3.92-1.34-5.42-1.71l-16.23-4-19.1-4.76-31.87-6.54-19.21-3.54c-31.75-5.86-63.33-9.69-95.72-12.59-6.96-.62-15.72-.42-21.62-2.4-2.06-.69-8.33-1.05-10.54.17l-19.82-2.3c-.28-.6,1.46-1.91,2.45-2.27l65.46-23.56,13.85-5.26c30.87-11.73,61.77-21.98,93.38-29.84l17.91-4.46,12.05-2.42,8.53-1.72,40.19-6.8,27.29-2.96,17.86-1.2h-.01Z"/>
    <circle class="cls-9" cx="105.97" cy="1132.48" r="1.11"/>
    <path class="cls-9" d="M148.5,1060.14v8.1l-3.1,1.15c-.68.25.64,2.54,1.33,2.3s1.53-1.03,2.4-2.08c2.78-3.36,7.51-1.7,9.99,2.11l11.16-1.15c1.95,1.87.23,7.14-2.83,8.15-.56,1.66-1.32,3.9-2.22,4.65-1.04.86-4.27.57-5.66.91l-7.08,1.74,5.38,4.42,4.42-2.31c.46.95,1.11,3.88.29,4.36l-3.58,2.12-1.62,3.04-3.73,1.64-6.51,3.92,3.02-8.12c-5.3-.46-5.9-4.35-8.17-9.66-1.88,1.72-1.82,4.43-1.42,6.73l-2.56,2.11c-.74.61.7,3.71,1.62,3.46s2-.94,4.33-2.2c-2.78,4.07-3.3,9.02.43,12.84l-3.07,3.15,7.75-.53-1.94,7.59,6.43-2.14-1.61-5.17c3.31,1.66,5.62,7.62,4.34,9.05-.85.95-2.98,2.06-4.75,3.07l2.86,2.73c.61.58-.69,2.78-1.46,3.13-2.19.97-8.49-2.41-8,1.01l.76,5.36c-1.7,1.76-5.31,3.15-9.37,4.44-.7-.36-1.13-.63-2.72-1.74l6.8-2.39-1.87-2.07c-3.17-.04-8.5-2.46-9.67-4.57,1.1-2.74,1.42-3.72,1.79-6.19l1.91-1.2-1.23-5.89c1.47-.34-1.64-.03-1.69.59l-.25,2.66c-2.7.99-5.06,3.15-5.77,5.81l-4.74.36,6.3,2.68c-.14,3.25-5.04,5.84-9.37,4.5l.88,2.7c.95,2.91-3.31-.9-9.01-1.12-1.24,3.19-1.74,4.33-3.07,5.83-3.15,2.52-2.01,7.56,1.2,9.5-.41,3.75,1.76,5.55,5.27,5.82l2.28,4.25,2.19-1.17c.54-.29,2.21,1.87,1.63,1.92l-2.69.26c-.41.04-1.21,1.14-.85,1.3l3,1.36-4.19,3.15,3.17,2.71-1.93,4.95c3.36.69,6.47,1.29,8.08,2.23.48.28.62,2.72.74,3.26.16.72,2.26.4,2.61.05-.11-2.64,3.55-6.28,5.64-5.51l2.21.81c.41.15-.17,2.32-.55,2.1l-2.8-1.6-.88,3.79c-.26,1.09,7.77,2.39,5.44,3.97l-3.27,2.23,1.06,5.47-8.23-3.48,2.24-4.16-4.98,2.32c-.6.19-2.99-.02-2.97-.66s.26-2.25.57-2.81l1.15-2.09c.25-.46-1.06-1.6-1.53-1.38l-2.32,1.09c-1.79,1.25-2.68,3.53-2.55,5.82l-4.23,3.77-6.67,5.62c-2.03-4.7,6.29-5.1,5.45-7.75-1.08-3.38-5.66-1.34-10.6-8.49-.33,3.08-.23,5.39.13,9.79l-1.11.27c.1-2.37,0-4.75-.63-4.48l-3.18,1.35-3.51,2.65c2.49,1.69,3.9,5.16,3.95,7.61.02,1.16-2.67,2.41-3.8,2.74l-2.74.79c-.51.15.25,1.66.65,2.25.68.98.19,3.8-.8,4.63-.92.76-4.03.58-4.26.03l.85-3.56c.14-.58-2.22-.55-2.44.03l-.76,2.04c-.13.36-1.13,1.04-1.27.69l-1.3-3.31-3.05,2.91,2.89,7.56c.18.47.51,2.1.13,2.27l-1.41.63-.34.85-6.34,8.84c1.76.36,4.87-3.27,6.14-4.65,1.48-1.62,2.4,5.7.63,6.19l-4.11,1.13,3.19,3.81c1.74-3.15,2.53-3.92,4.66-4.62l7.46-2.48,4.49-4.91-.31,2.69c-1.07,1.33-2.3,3.27-1.96,4.35.28.9,1.54,2.23,2.76,3.42l-9.82,16-1.67-6.11-5.99,6.44-3.09-2.94,3.78-8.04c.05-.4-2.05-1.46-2.41-.97l-1.12,1.5-2.17,2.91c-.43.57.66,2.95.42,3.73l-3.21,10.62c2.94-.05,4.89-.64,6.74-1.4l1.14,2.84c.25.61,1.81-1.11,1.7-1.76l-.32-1.94-.6-.87-1.6-.87c-.43-.23-.58-2.09-.13-1.9.56.24,1.63.63,1.85,1.06l.64,1.31.98.44,2.92,4.76,7.07-.25-1.75,3.38c-.23.44-1.76-.23-2.35-.41l-4.81,4.07c-.7.59-1.73,2.56-2.6,2.53l-3.13-.11c-.62-.02-2.1,1.27-2.57.89l-2.13-1.71-1.04,3.14c-.11.34-1.05-1.3-1.4-1.69-2.08,2.96-4.56,3.94-8.32,3.19l-4.93.49v-2c1.96-.46,4.77-2.07,6.25-3.58,1.31-1.33.48-5.44.15-7.57l3.36,1.97c.62.36,2.54-1.02,2.11-1.27l-4.18-3.6,4.32-.41c1.31-.12-4.09-4.8.04-10.7l-6.21.46,4.17-5.18c.41-.51,2.77-.34,3.42-.45.87-.13.73-2.7.2-3.09l-5.92-2.77-2.98,6.89,1.59-12.21-6.3-1.89v-19.02l8.48,2.96-.13-6.21c-.04-2.05.45-5.47,1.39-7.53,4.28,0,6.01,3.73,8.26,6.57,1.71.78,4.85-1.33,6.2-2.96l2.7-3.25c.63-.75-.15-3.37-.96-3.94l-2.28-1.62c-.5-.36.28-2.86.88-2.72l3.58.84c-1.13-2.11-1.76-3.33-1.36-4.45,1.66-4.62,7.85.58,7.68-2.5l-1.18-.88c-1.11-.82-1.47-1.62.1-1.11l1.04,1.01,7.04-2.72-2.3-3.74c-.46-.74-2.7.98-3.36,1.5l-5.16-.36c-1.97,2.71-5.08,3.4-7.91,2.62-1.77,3.61-5.54,7.23-10.09,7.47-.39.55-.6,2.79.09,3.09s2.68,1.19,2.43,1.08l5.12-4.52,1.62-3.01c.4-.74,2.64-.91,2.67-.85l-3.27,9.1-5.12,3.45-6.8-4.62c-2.61-1.77-1.55-6.23.46-9.01-1.3-3.26-6.35-5.52-9.82-5.76v-85.55l15.85-4.07,8.07-3.12.36-3.82c.04-.38,1.19.33,1.3.7l.83,2.71,35.89-10.05,34.21-8.69h-.03ZM167.3,1071.32l-1.5,2.55c-.26.44,2.29,1.2,2.37.69l.34-2.23c.06-.38-.6-.62-1.22-1.01h.01ZM152.01,1090.91c-.61.13.79,1.91,1.36,1.7l1.6-.6c.38-.14-.18-1.68-.58-1.6l-2.38.5ZM136.8,1118.93l3.77-5.45-5.41-2.96,1.57,3.68c.26.62-.94,1.64-1.48,2.54l-1.24,2.1c-.29.49,2.45.58,2.79.09h0ZM144.29,1126.22c1.34.63,3.97-1.77,3.93-3.2-.03-1.28-1.48-3.45-2.35-3.2-2.33,1.55-4.13,5.2-1.58,6.41h0ZM134.15,1127.65l.17,2.87c.02.39,1.63-.18,1.64-.57l.06-1.96c0-.39-1.89-.74-1.87-.34h0ZM82.75,1138.13l1.69-.81c.66-.32,2.67,3.67,5.74,2,.86-.47,1.99-2.04,2.39-3.02l2.5-6.17c-.97-.36-3.5.09-4.01.99l-2.14,3.81-10.17,1.02,3.51,7.91,2.41-.48c1.77-.35-3.35-4.57-1.93-5.25h0ZM85.08,1131.48c0-.61-.5-1.11-1.11-1.11s-1.11.5-1.11,1.11.5,1.11,1.11,1.11,1.11-.5,1.11-1.11ZM107.08,1132.48c0-.61-.5-1.11-1.11-1.11s-1.11.5-1.11,1.11.5,1.11,1.11,1.11,1.11-.5,1.11-1.11ZM80.08,1142.48c0-.61-.5-1.11-1.11-1.11s-1.11.5-1.11,1.11.5,1.11,1.11,1.11,1.11-.5,1.11-1.11ZM69.61,1166.3c-2.41-.5-6.78-1.12-9.36.32,6.66,1.28,12.24,1.08,16.7,6.39l5.52-2.74c-3.14-.27-4.89-.13-5.66-1.21s-.96-4.54-.46-4.65c4.13,1.87,7,2.67,9.17.15s2.63-5.01,1.71-8.08c1.68-2.59,1.24-4.72-.24-8.46l-7.29-3.04,2.31,9.5-3.47-.92c-.35-.09-.79,1.12-.6,1.43l.98,1.63,6.62,2.53c-3.82,3.96-8.88,3.43-12.29.6l.33,6.38-3.72-4.92c-.14.34-.26,3.36-.25,5.08h0ZM111.22,1165.41c-.07-.71-2.31-1.7-3.44-2-.2-.11-.63-1.56-.23-1.9l1.94-1.67c.72-.62-.76-2.51-1.42-3.19s-4,.23-3.83,1.19l2.04,11.6,5.51,1.95-.58-5.98h.01ZM98.82,1177.8l8.28,2.88-3.45-13.34-5.15,3.51c1.51,1.58,3.12,2.98,2.62,3.69l-2.29,3.25h-.01ZM75.39,1214.99l-.79-2.5c-.17-.55-1.8.18-2.33.54-.47.32.09,1.69.64,1.84l1.38.38,1.11-.26h0ZM74.53,1258.01l-2.3,1.04,1.73,3.84,2.3-1.04-1.73-3.84Z"/>
    <circle class="cls-9" cx="78.97" cy="1142.48" r="1.11"/>
    <path class="cls-9" d="M74.54,1194.02c.45.04-.46,1.44-.92,1.55l-1.97.51c-.61.16-.24-2.41.05-2.33l2.83.27h0Z"/>
    <path class="cls-3" d="M961.97,828.84v88.64l-19.25-3.55-14.64-1.96c-25.71-3.44-51.37-4.85-77-3.13l-.62-46.28c7.98-4.47,13.64-10.73,16.75-18.9l8.82-23.21,14.89.38,18.58,1.23,40.04,5.04,12.43,1.74h0Z"/>
    <path class="cls-2" d="M961.97,732.73v96.11l-12.43-1.74-40.04-5.04-18.58-1.23-14.89-.38,7.25-41.97,1.36-16.87c19.43-5.23,37.7-13.44,56.46-21.78l20.88-7.09h-.01Z"/>
    <path class="cls-9" d="M54.47,1200.99c2.21.13,2.8.38,2.51.84-.61.97-1.18,1.74-1.72,1.84-.72.13-1.42-2.56-.79-2.69h0Z"/>
    <circle class="cls-9" cx="198.94" cy="1082.55" r="1.16"/>
    <path class="cls-9" d="M51.98,1204.08v-32.06c3.47.24,8.52,2.5,9.82,5.76-2.01,2.78-3.08,7.24-.46,9.01l6.8,4.62,5.12-3.45,3.27-9.1c-.03-.07-2.27.1-2.67.85l-1.62,3.01-5.12,4.52c.25.11-1.74-.78-2.43-1.08s-.48-2.54-.09-3.09c4.55-.24,8.32-3.87,10.09-7.47,2.82.78,5.93.09,7.91-2.62l5.16.36c.66-.51,2.91-2.24,3.36-1.5l2.3,3.74-7.04,2.72.03.97c.17,3.08-6.02-2.12-7.68,2.5-.4,1.12.23,2.34,1.36,4.45l-3.58-.84c-.59-.14-1.38,2.36-.88,2.72l2.28,1.62c.81.58,1.59,3.19.96,3.94l-2.7,3.25c-1.36,1.64-4.5,3.74-6.2,2.96-2.25-2.84-3.98-6.57-8.26-6.57-.94,2.05-1.43,5.48-1.39,7.53l.13,6.21-8.48-2.96h0ZM85.34,1177.29c-1.57-.51-1.21.28-.1,1.11l.1-1.11ZM74.54,1194.02l-2.83-.27c-.29-.08-.66,2.49-.05,2.33l1.97-.51c.46-.12,1.37-1.51.92-1.55h0ZM54.47,1200.99c-.63.12.08,2.82.79,2.69.54-.1,1.11-.87,1.72-1.84.29-.46-.3-.71-2.51-.84h0Z"/>
    <path class="cls-4" d="M580.17,1261.46c-2.03.6-3.64.81-3.81.16l-.86-3.28,4.66,3.12h.01Z"/>
    <path class="cls-9" d="M51.97,1266.48v-43.38l6.31,1.89-1.59,12.21,2.98-6.89,5.92,2.77c.53.38.66,2.95-.2,3.09-.65.1-3.01-.06-3.42.45l-4.17,5.18,6.21-.46c-4.12,5.9,1.27,10.57-.04,10.7l-4.32.41,4.18,3.6c.43.24-1.49,1.63-2.11,1.27l-3.36-1.97c.33,2.14,1.16,6.24-.15,7.57-1.48,1.51-4.3,3.12-6.25,3.58v-.02Z"/>
    <path class="cls-4" d="M266.97,1425.49h-1l-2.12-14.08c-2.8-23.36,2.63-58.43,12.16-78.88l3.89-8.34c6.12-13.13,13.92-24.67,22.31-36.46.92-1.3,2.58-2.71,3.6-3.39l-16.31,24.58c-18.17,30.64-27.24,67.08-23.72,102.48l1.19,14.08h0Z"/>
    <path class="cls-4" d="M575.15,1268.64c-.02-.39,1.88-.04,1.87.35l-.06,1.96c-.01.39-1.61.96-1.64.57l-.17-2.88h0Z"/>
    <path class="cls-6" d="M414.41,550.9l-29.36.22-19.11-.09-21.36-.11-13.51.02-14.18.03-18.92.04-21.98-.11-13.3-.02-21.48.2-36.44.07-19.28-.16-24.51.13-19.02-.12c-16.65-.1-29.94-13.98-31.62-30.62-.61-6.06,1.58-13.22,4.28-18.17l3.24-5.94c3.16-5.78,8.54-9.42,14.16-12.82,11.52-6.98,24.84-8.64,37.73-4.27.89-16.49,6.4-30.07,17.36-40.65,7.23-6.98,15.44-12.82,25.48-14.54,9.42-1.61,17.87-2.34,27.84,1.12l2.8-10.65c5.05-19.19,16.5-35.61,31.99-47.75,9.6-7.52,19.23-12.89,30.81-16.3,10.68-3.15,21.57-5.33,32.67-4.77,26.9,1.34,53.61,12.68,70.84,33.32,3.95,4.73,8.02,9.35,11.27,14.75,7.74,12.86,12.21,27.57,13.54,42.5l.05,10.05,14.22-3.35c9.05-2.13,21.95.53,29.56,4.68.68.37.58,4.06,1.31,3.85s3.44-1.17,4.13-.85c4.19,1.95,10.75,7.95,13.64,12.14l4.21,6.09c5.72,8.28,7.41,18.2,7.01,28.06,8.58-2.26,16.27-5.03,24.18-4.33,19.91,1.77,37.83,12.76,44.82,32.12,16.17-2.92,35.64,8.35,34.84,25.64l-21.13.82-6.34-.12-23.76-.16-10.75-.15-33.82.16h-16.64l-29.92-.07-42.22.18-13.34-.09v.02Z"/>
    <circle class="cls-4" cx="576.97" cy="1266.48" r="1.11"/>
    <g>
      <path class="cls-4" d="M884.63,761.6l-1.36,16.87-7.25,41.97-8.82,23.21c-3.11,8.18-8.77,14.43-16.75,18.9l.62,46.28-17.86,1.2.68-47.35c-8.65-4.52-14.83-11.55-19.02-20.17l-7.51-15.45-2.66-9.29c-4.34-15.17-6.78-30.85-8.04-46.53-2.5-31.04-3.73-62.12-1.95-93.74l.69-12.24,4.73-55.02c2.44-28.45,20.06-174.9,38.31-174.53,6.11.12,10.55,13.98,13.08,23.22,8.2,29.99,13.96,59.91,18.34,90.62l4.69,32.9,4.9,42.79,4.34,52.29,1.13,20.32c1.2,21.56,1.39,42.66-.3,63.73v.02Z"/>
      <path class="cls-4" d="M777.22,770.46c-.03,15.55-1.88,31.26-4.79,46.57-3.58,18.8-10.68,47.54-28.11,56.16l.1,9.74.74,41.01-17.91,4.46.59-55.12c-10.82-4.38-21.86-23.23-24.63-32.92l-5.74-20.08-5.04-30.4-1.94-40.34,2.27-46.15c4.55-55.32,10.31-109.6,20.01-164.15,3.12-17.56,6.9-33.79,12.47-50.42,1.14-3.42,4.39-8.64,7.68-8.98,4.05-.41,6.76,4.46,7.92,7.78,5.8,16.65,9.58,32.82,12.9,50.44,11.95,63.38,20.13,126.78,23.54,191.23l-.07,41.18h0Z"/>
    </g>
    <path class="cls-5" d="M995,1473.24h-21.01l-2.17-9.64c-1.58-5.67-8.58-8.02-13.84-7.94-5.1.08-11.63,3.13-12.84,9.04l-2.14,8.55h-23.01c.11-3.29-.08-8.41-2.14-11.5-5.22-7.82-17.13-8.23-23.5-1.54-3.2,3.36-3.6,9.02-4.34,13.04h-22.01l-.92-5.71c-1.41-6.72-5.96-11.1-13.02-11.84-4.63-.48-9.91,1.01-12.6,4.24-3.14,3.77-3.91,9.04-3.45,13.3h-25c1.64-4.68.91-9.77-3.14-13.62-6.73-6.39-19.16-5.31-23.39,3.63l-3.46,10h-21.01l-1.74-8.09c-1.74-6.86-8.71-9.9-15.13-9.49-6.4.4-11.72,5.32-13.29,11.98l-1.83,5.6h-22.01c-.04-3.65-.64-8.45-2.69-11.93-2.63-4.48-8.49-5.9-13.18-5.59-4.25.29-10.31,2.45-11.77,7.38l-3.35,10.14h-22.01l-1.81-9.79c-1.3-5.44-7.7-7.78-12.34-7.76-5.35.02-11.15,1.93-13.79,7.3-1.44,2.93-1.72,7.24-2.06,10.25h-23.6c.82-5.9-.88-12.08-6.14-15.29-4.9-2.99-11.63-3.08-16.69.01-4.96,3.04-6.6,9.59-6.57,15.27h-23.6c.8-5.46-1.22-12.19-6.12-15.29s-11.75-3.09-16.57.05c-4.93,3.21-6.76,9.49-6.71,15.24h-22l-2.01-8.87c-1.26-4.67-6.8-7.88-10.68-8.47-5.13-.77-10.62.16-14.04,4.25-2.99,3.58-3.67,8.87-4.27,13.09h-22.01c-.31-3.31-1.11-7.66-2.67-10.84-2.6-5.29-8.22-6.98-13.32-6.75-4.84.21-11.15,2.05-12.46,7.72l-2.54,9.87h-23.01c.45-3.49,0-8.28-2.03-11.57-3.86-6.26-12.18-7.3-18.42-4.84-6.48,2.56-9.21,9.62-9.53,16.41h-22.01l-2.23-9.55c-1.32-4.57-6.67-7.2-10.45-7.8-5-.79-10.6.29-13.91,4.36-2.95,3.63-3.56,8.78-4.4,12.99h-24.01c1.72-5.13.32-11.57-4.6-14.92-7.58-5.15-19.93-3.01-22.47,6.14l-2.92,8.78h-22.01l-1.01-6.72c-1.71-8.45-10.03-12.34-17.62-10.68s-12.18,9.51-11.36,17.4h-25c1.39-5.06.68-10.97-4.1-14.51-6.52-4.84-17.42-4.31-21.7,3.2-1.93,3.39-2.73,8-4.19,11.31h-22.01l-2.26-10.21c-1.63-5.95-8.2-7.68-13.64-7.33-5.02.32-11.16,2.75-12.58,8.62l-2.51,8.93h-22.01l-1.72-8.1c-2.06-7.89-10.67-10.63-17.57-8.99-7.78,1.85-11.4,9.55-10.7,17.08l-23,.04-.89-7.76c-1.18-6.66-7.83-9.38-14.73-10.49l.15-19.44,6.39-1.94c7.74-2.35,10.89-9.91,9.57-16.95-1.44-7.67-8.69-11.27-16.51-11.68l.27-16.02c.04-2.14,1.63-3.64,3.9-3.91,8.54-1.01,13.21-7.79,12.57-15.84-1.24-15.53-16.89-10.37-16.71-16.74l.47-16.15c9.54-.26,16.52-6.13,16.39-14.63-.14-8.88-6.56-15.3-16.47-14.75l-.24-16.96c-.07-4.66,17.09-1.48,16.74-18.93-.56-7.43-6.35-13.43-14.92-13.19-.69-.49-1.81-2.48-1.8-3.56l.08-14.67c0-.64,2.4-2.01,2.74-2.04,8.69-.22,14.27-6.79,13.94-14.79.03-7.38-5.7-13.44-13.96-13.92-.49-.13-2.71-2.13-2.71-2.96l.13-16.07c4.64-1.35,9.06-1.89,11.98-4.56,6.07-5.55,6.12-15.73.25-21.25-3.04-2.85-7.56-3.59-12.12-4.34l-.43-15.76c-.04-1.58,1.57-3.67,3.29-3.75,9.18-.45,14.17-7.98,13.48-16.14s-7.25-13.06-16.4-12.97l-.24-15.11c-.03-1.71,1.59-4.41,3.31-4.58,9.23-.88,14.2-8,13.32-16.33-.85-7.98-7.15-12.97-16.39-13.05l-.09-19.41c10.02.52,16.07-5.57,16.61-13.9.5-7.84-5.37-14.46-13.75-15.11-1.13-.09-3.17-2.14-3.12-3.33l.69-16.14c7.82-.53,12.5-3.58,14.86-9.31,2.16-5.26,1.74-11.72-2.81-16.27-2.89-2.89-7.48-3.76-12.46-4.76v-19.13c9.93.28,16.46-5.56,16.51-14.03.56-8.33-5.4-14.76-14.61-14.98-.25-.15-2.03-2.24-2.02-2.83l.19-16.29c7.43-.87,12.99-3.57,15.3-9.52,2.17-5.58,1.6-12.52-3.4-16.89-2.81-2.46-7.7-3.16-12.01-3.95l-.1-19.19c9.97.35,16.78-6.2,16.68-15.11-.09-8.93-6.43-14.57-16.56-14.7l.05-19.47c10.83.38,16.7-6.96,16.53-15.8-.17-8.89-7.93-13.93-16.78-13.79l.09-19.17c9.86.2,16.78-6.11,16.7-15.06-.09-9.25-7.52-14.59-16.83-14.73l.15-19.16c9.95.35,17.02-5.86,16.74-15.06-.26-8.55-7.17-14.61-16.83-14.43l.1-19.32c9.16.2,16.79-5.95,16.59-14.35.34-8.63-6.34-14.98-15.65-15.17-.17-.25-1.15-2.24-1.14-2.74l.03-13.75c0-.88,1.25-2.88,1.9-3.3,9.48-.14,15.71-7.36,14.79-15.7-.5-8.45-7.38-13.58-16.61-13.86l.02-16.76c0-.8,1.51-2.64,1.92-2.75,9.29.02,15.68-7.46,14.68-15.63-.33-8.53-7.37-13.46-16.69-13.63l.29-19.05c10.14-.29,16.89-6.37,16.61-15.63-.26-8.3-6.9-14.42-16.68-14.65l.08-19.35c10,.17,15.77-5.31,16.59-13.25.79-7.58-4.6-14.3-12.39-15.3-1.39-.18-4.32-1.77-4.31-3.13l.08-16.6c9.54-.65,15.85-5.75,16.59-13.98s-4.83-14.66-13.04-15.56c-.98-.11-3.54-1.92-3.54-2.93l.12-16.62c9.55-.66,15.73-5.29,16.47-13.87,1.37-15.84-16.49-14.51-16.52-18.53l-.07-12.79c0-2.33,1.49-4.24,3.56-4.47,8.49-.93,13.24-7.29,13.03-14.97-.2-7.23-5.31-12.81-13.48-13.73-1.72-.19-3.2-2.8-3.17-4.58l.27-15.08c9.88-.33,16.64-6.42,16.37-15.49-.25-8.5-6.81-14.19-16.47-14.68v-18.72c7.04-.27,12.39-3.42,14.92-8.76,2.53-5.34,1.98-12.48-2.81-16.77-3.22-2.88-7.49-3.74-12.38-4.86l.42-17.54,10.29-3.76c7.36-5.6,8.22-17.24,1.18-23.23-3.06-2.61-7.14-3.39-11.57-4.76l-.16-17.8c3.82-1.01,8.12-1.52,11.08-3.76,6.3-4.75,7.14-14.55,2.66-20.65-3.22-4.38-8.48-5.33-13.82-6.16l-.09-19.11c7.65.18,13.74-3.31,15.83-9.91,1.8-5.69.82-13.21-5.15-16.69-2.84-1.66-6.36-2.17-10.54-3.04l-.03-16.15c9.25-.85,14.53-6.74,15.22-15.21.98-1.52,4.79-1.24,6.73-1.26l14.5-.19c0,10.52,6.35,17.38,16.02,17.02,8.84-.33,14.64-7.74,14.76-17.25,12.41,1.91,23.06-2.13,23.17,2.73.19,8.58,7.52,15.2,16.05,14.6s14.56-7.44,14.28-16.97h23.58c-.43,9.42,5.76,16.35,14.42,16.75,7.98.37,15.3-5.08,15.58-14.1.13-4.34,7.31-2.21,19.9-2.68.96-.04,3.32.26,3.47,1.12l.54,3.06c1.56,8.78,8.7,13.67,17.02,12.53,7.56-1.03,13.53-7.97,12.72-16.56l20.31-.14c2.46-.02,3.67,1.63,3.89,4.33.72,8.72,9.09,13.57,17.02,12.44s13.16-8.04,12.74-16.73l23.11.03c.38,5.68,2,11.27,5.85,13.89,4.17,2.83,9.16,3.69,13.99,2.2,5.73-1.77,9.52-5.8,9.8-12.16.32-7.23,9.36-2.21,23.27-4.39-.04,9.68,6.27,17.68,15.48,17.31,9.06-.36,15.22-6.58,15.26-16.73l9.37-.06,13.25-.08c.15,6.48,2.08,11.19,6.37,14.3,4.18,3.03,9.8,3.24,14.69,1.27,6.29-2.53,8.95-7.47,9.06-15.1l8.64-.39,14.11-.12c.42,5.19.94,9.52,3.95,12.72,2.31,2.45,7.07,4.2,10.79,4.16,9.45-.1,15.85-7.06,14.94-16.83l15.23.03c2.46,0,5.4.08,7.58.52-.08,9.2,5.18,15.58,13.08,16.3s15.47-3.94,16.41-12.65c.14-1.29.48-2.93.82-3.74s3.05-.5,3.99-.51l15.23-.19c1.22-.02,3.73,1.5,3.73,2.63,0,8.68,6.55,15.03,15.11,14.43,8.01-.14,14.67-6.03,13.89-14.67.3-.65,2.34-2.25,3.24-2.25l17.63.05c.7,0,2.81,1.46,2.99,1.81.02,9.67,6.99,15.39,15.72,15.05,8.37-.19,14.83-7.42,14.34-16.77l20.64-.12c1.75,0,2.69,2.94,2.92,5.2.89,8.75,9.84,12.85,17.41,11.41,7.82-1.5,12.42-8.56,12.4-16.83l20.14.18c1.74.02,2.87,3.07,3.08,5.12.9,8.7,9.77,12.91,17.52,11.54,7.77-1.38,12.48-8.6,12.26-16.71l19.82.05c1.26,0,3.18,2.08,3.23,3.21.42,9.47,8.43,14.84,16.9,13.58,7.97-1.18,13.61-8.46,13.06-16.89l19.86.19c1.26,0,3.29,1.95,3.31,3.07.13,8.11,6.05,13.42,13.78,13.72,8.23.32,15.55-4.9,15.7-13.67.03-1.76,2.29-3.19,3.99-3.21l19.05-.25c.02,8.52,5.02,16.19,13,17.11s16.46-3.52,16.9-12.57c.08-1.74,1.48-4.3,3.12-4.32l20.02-.28c-.11,9.75,6.28,17.6,15.5,17.33,9.24-.27,15.04-7.01,15.03-16.93l14.58.07,7.68.31c.03,9.88,5.6,15.22,15.35,16.28l-.02,16.46c-9.98-.18-16.97,5.8-16.88,14.63.09,8.37,6.42,14.67,16.51,14.56l.28,19.58c-9.98-.32-16.89,6.2-16.74,14.84.16,8.78,6.81,14.98,16.8,14.63l.34,19.5c-10.06-.15-17.06,5.64-17.16,14.86s7.03,14.64,16.94,15.09l.03,18.73c-9.7.12-17.24,6.26-16.93,15.18.3,8.76,6.99,14.75,16.75,14.69l.35,15.57c.02.97-1.59,3.27-2.13,3.73-9.24.11-15.53,7.46-14.85,15.79.77,8.54,6.95,13.62,16.77,13.83l-.09,19.54c-10.03-.36-16.18,5.61-16.9,13.92-.02,8.19,5.77,14.97,15.04,15.21.41.11,2.45,2.56,2.41,3.53l-.72,16.19c-10.15-.19-16.96,6.45-16.71,14.97s7.28,14.81,17.02,14.36l-.04,19.6c-9.92-.51-17.23,5.83-16.98,15.04.23,8.4,7.16,14.53,16.9,14.64l.1,18.42-8.53,2.4c-6.53,1.84-9.3,9.85-8.2,16.09,2.3,13.1,17.02,9.73,16.91,14.81l-.36,16.09c-9.45.37-15.97,5.52-16.79,13.73-.84,8.39,5.07,15.41,13.88,16.25,1.22.12,3.31,2.7,3.28,3.99l-.4,15.53c-10.13-.06-16.17,5.63-16.79,14.16-.57,7.79,5.86,14.47,14,14.98,1.19.07,3.18,2.21,3.18,3.57l-.07,15.93c-7.39.1-12.57,3.06-15.4,8.44s-2.22,12.47,2.69,17.13c3.1,2.95,7.67,3.77,12.59,4.55l.36,18.94c-8,.19-13.63,3.07-16,9.01s-1.83,12.89,3.46,17c3.21,2.49,7.23,3.17,12.09,4.27l.27,18.87c-10.13-.21-16.66,5.51-17.06,14.37s6.25,15.39,16.67,14.93l.04,19.79c-10.43-.55-16.89,6.38-16.66,15.02.22,8.55,7.43,14.61,16.84,14.16l.26,19.7c-10.24-.61-17.5,5.75-17.17,15.11.3,8.43,7.38,14.13,16.97,14.32l-.14,18.87c-4.79,1.04-8.96,1.83-12.02,4.38-5.34,4.46-6.06,11.88-3.19,17.58,2.77,5.51,8.15,8.11,15.34,8.24v19.36c-9.29-.09-16.16,5.09-16.9,13.58-.66,7.61,4.83,14.99,13.29,15.63,1.91.15,4.06,2.58,3.99,4.39l-.64,15.65c-10.52-.53-17.19,6.31-16.71,14.99s6.67,14.42,16.63,13.91l.37,19.82c-9.47-.41-16.37,4.98-16.96,13.46-.54,7.7,4.86,14.91,13.36,15.68,1.27.12,3.77,2.33,3.74,3.57l-.36,15.62c-4.22,1.13-7.9,1.82-10.87,3.67-5.83,3.64-7.13,11.23-4.87,17.04s7.84,9.27,15.77,9.35l.22,19.59c-10.18-.27-17.44,5.96-17,15.25.41,8.57,7.33,14.24,17,14.18l-.19,19.39c-10.34-.39-17.29,6.11-16.88,15.45.37,8.5,7.49,13.99,17.05,14.21l-.18,19.04c-7.72.19-13.06,3.01-15.55,8.54s-1.7,12.72,3.52,16.98c3.06,2.5,7.18,3.22,11.98,4.54l.26,16c.01.8-2.38,2.86-2.83,2.98-8.8.14-14.31,6.83-14.28,14.78,1.77,17.21,17.2,11.59,17.14,17.44l-.14,16.18c-6.73.53-12.17,2.88-15.01,7.76-3.08,5.29-2.83,11.85,1.45,16.77,2.98,3.43,8.12,4.84,12.74,6.26,1.65,5.67,1.46,12.74.42,18.74-9.75-.14-16.73,6.18-16.55,14.91.18,8.36,6.57,15,16.6,14.19.65,6.55.76,13.18.09,19.94-9.68-.18-16.18,5.66-16.66,13.94-.47,8.1,4.92,14.75,13.87,15.39,1.36.1,3.34,2.41,3.3,3.65l-.52,16.64c-10.38-.57-16.89,6.35-16.65,15.08.24,8.58,7.49,14.22,16.93,14.15l-.14,20.06c-12.24,3.22-13.9,6.93-16.4,18.4h-.03ZM962.39,48.39H52.4v1376.87h910V48.39h-.01Z"/>
  </g>
  <g>
    <path class="cls-4" d="M109.3,123.28h39.09v7.7h-15.13v43.21h-8.77v-43.21h-15.2v-7.7Z"/>
    <path class="cls-4" d="M154.64,123.28h18.34c3.7,0,6.85.67,9.44,2s4.55,3.23,5.87,5.7,1.98,5.32,1.98,8.58-.67,6.08-2,8.47c-1.33,2.39-3.31,4.24-5.92,5.55-2.62,1.31-5.79,1.97-9.51,1.97h-13.13v-7.66h11.95c2.23,0,4.05-.32,5.45-.97,1.4-.64,2.44-1.58,3.13-2.79.69-1.22,1.03-2.74,1.03-4.57s-.34-3.42-1.03-4.69c-.69-1.28-1.74-2.25-3.16-2.92-1.42-.67-3.24-1-5.45-1h-8.19v43.24h-8.8v-50.91ZM192.04,174.19h-9.88l-11.88-23.03h9.65l12.12,23.03Z"/>
    <path class="cls-4" d="M193.98,174.19l17.26-50.91h10.86l17.26,50.91h-9.41l-13.1-40.5h-.41l-13.1,40.5h-9.38ZM229.56,154.22v7.35h-25.82v-7.35h25.82Z"/>
    <path class="cls-4" d="M258.24,163.4h.47l12.79-40.11h9.68l-17.26,50.91h-10.86l-17.26-50.91h9.68l12.76,40.11Z"/>
    <path class="cls-4" d="M286.42,123.28h31.85v7.7h-23.05v13.92h21.39v7.63h-21.39v13.96h23.19v7.7h-31.98v-50.91Z"/>
    <path class="cls-4" d="M326.04,123.28h8.8v43.21h21.66v7.7h-30.46v-50.91Z"/>
  </g>
</svg>