<?xml version="1.0" encoding="UTF-8"?>
<svg id="_레이어_1" data-name="레이어 1" xmlns="http://www.w3.org/2000/svg" viewBox="0 0 1014 1474">
  <defs>
    <style>
      .cls-1 {
        fill: #858dd0;
      }

      .cls-2 {
        fill: #deda72;
      }

      .cls-3 {
        fill: #fffbf8;
      }
    </style>
  </defs>
  <path class="cls-3" d="M995.39,1473.24h-21.01l-2.17-9.64c-1.58-5.67-8.58-8.02-13.84-7.94-5.1.08-11.63,3.13-12.84,9.04l-2.14,8.55h-23.01c.11-3.29-.08-8.41-2.14-11.5-5.22-7.82-17.13-8.23-23.5-1.54-3.2,3.36-3.6,9.02-4.34,13.04h-22.01l-.92-5.71c-1.41-6.72-5.96-11.1-13.02-11.84-4.63-.48-9.91,1.01-12.6,4.24-3.14,3.77-3.91,9.04-3.45,13.3h-25c1.64-4.68.91-9.77-3.14-13.62-6.73-6.39-19.16-5.31-23.39,3.63l-3.46,10h-21.01l-1.74-8.09c-1.74-6.86-8.71-9.9-15.13-9.49-6.4.4-11.72,5.32-13.29,11.98l-1.83,5.6h-22.01c-.04-3.65-.64-8.45-2.69-11.93-2.63-4.48-8.49-5.9-13.18-5.59-4.25.29-10.31,2.45-11.77,7.38l-3.35,10.14h-22.01l-1.81-9.79c-1.3-5.44-7.7-7.78-12.34-7.76-5.35.02-11.15,1.93-13.79,7.3-1.44,2.93-1.72,7.24-2.06,10.25h-23.6c.82-5.9-.88-12.08-6.14-15.29-4.9-2.99-11.63-3.08-16.69.01-4.96,3.04-6.6,9.59-6.57,15.27h-23.6c.8-5.46-1.22-12.19-6.12-15.29s-11.75-3.09-16.57.05c-4.93,3.21-6.76,9.49-6.71,15.24h-22l-2.01-8.87c-1.26-4.67-6.8-7.88-10.68-8.47-5.13-.77-10.62.16-14.04,4.25-2.99,3.58-3.67,8.87-4.27,13.09h-22.01c-.31-3.31-1.11-7.66-2.67-10.84-2.6-5.29-8.22-6.98-13.32-6.75-4.84.21-11.15,2.05-12.46,7.72l-2.54,9.87h-23.01c.45-3.49,0-8.28-2.03-11.57-3.86-6.26-12.18-7.3-18.42-4.84-6.48,2.56-9.21,9.62-9.53,16.41h-22.01l-2.23-9.55c-1.32-4.57-6.67-7.2-10.45-7.8-5-.79-10.6.29-13.91,4.36-2.95,3.63-3.56,8.78-4.4,12.99h-24.01c1.72-5.13.32-11.57-4.6-14.92-7.58-5.15-19.93-3.01-22.47,6.14l-2.92,8.78h-22.01l-1.01-6.72c-1.71-8.45-10.03-12.34-17.62-10.68s-12.18,9.51-11.36,17.4h-25c1.39-5.06.68-10.97-4.1-14.51-6.52-4.84-17.42-4.31-21.7,3.2-1.93,3.39-2.73,8-4.19,11.31h-22.01l-2.26-10.21c-1.63-5.95-8.2-7.68-13.64-7.33-5.02.32-11.16,2.75-12.58,8.62l-2.51,8.93h-22.01l-1.72-8.1c-2.06-7.89-10.67-10.63-17.57-8.99-7.78,1.85-11.4,9.55-10.7,17.08l-23,.04-.89-7.76c-1.18-6.66-7.83-9.38-14.73-10.49l.15-19.44,6.39-1.94c7.74-2.35,10.89-9.91,9.57-16.95-1.44-7.67-8.69-11.27-16.51-11.68l.27-16.02c.04-2.14,1.63-3.64,3.9-3.91,8.54-1.01,13.21-7.79,12.57-15.84-1.24-15.53-16.89-10.37-16.71-16.74l.47-16.15c9.54-.26,16.52-6.13,16.39-14.63-.14-8.88-6.56-15.3-16.47-14.75l-.24-16.96c-.07-4.66,17.09-1.48,16.74-18.93-.56-7.43-6.35-13.43-14.92-13.19-.69-.49-1.81-2.48-1.8-3.56l.08-14.67c0-.64,2.4-2.01,2.74-2.04,8.69-.22,14.27-6.79,13.94-14.79.03-7.38-5.7-13.44-13.96-13.92-.49-.13-2.71-2.13-2.71-2.96l.13-16.07c4.64-1.35,9.06-1.89,11.98-4.56,6.07-5.55,6.12-15.73.25-21.25-3.04-2.85-7.56-3.59-12.12-4.34l-.43-15.76c-.04-1.58,1.57-3.67,3.29-3.75,9.18-.45,14.17-7.98,13.48-16.14s-7.25-13.06-16.4-12.97l-.24-15.11c-.03-1.71,1.59-4.41,3.31-4.58,9.23-.88,14.2-8,13.32-16.33-.85-7.98-7.15-12.97-16.39-13.05l-.09-19.41c10.02.52,16.07-5.57,16.61-13.9.5-7.84-5.37-14.46-13.75-15.11-1.13-.09-3.17-2.14-3.12-3.33l.69-16.14c7.82-.53,12.5-3.58,14.86-9.31,2.16-5.26,1.74-11.72-2.81-16.27-2.89-2.89-7.48-3.76-12.46-4.76v-19.13c9.93.28,16.46-5.56,16.51-14.03.56-8.33-5.4-14.76-14.61-14.98-.25-.15-2.03-2.24-2.02-2.83l.19-16.29c7.43-.87,12.99-3.57,15.3-9.52,2.17-5.58,1.6-12.52-3.4-16.89-2.81-2.46-7.7-3.16-12.01-3.95l-.1-19.19c9.97.35,16.78-6.2,16.68-15.11-.09-8.93-6.43-14.57-16.56-14.7l.05-19.47c10.83.38,16.7-6.96,16.53-15.8-.17-8.89-7.93-13.93-16.78-13.79l.09-19.17c9.86.2,16.78-6.11,16.7-15.06-.09-9.25-7.52-14.59-16.83-14.73l.15-19.16c9.95.35,17.02-5.86,16.74-15.06-.26-8.55-7.17-14.61-16.83-14.43l.1-19.32c9.16.2,16.79-5.95,16.59-14.35.34-8.63-6.34-14.98-15.65-15.17-.17-.25-1.15-2.24-1.14-2.74l.03-13.75c0-.88,1.25-2.88,1.9-3.3,9.48-.14,15.71-7.36,14.79-15.7-.5-8.45-7.38-13.58-16.61-13.86l.02-16.76c0-.8,1.51-2.64,1.92-2.75,9.29.02,15.68-7.46,14.68-15.63-.33-8.53-7.37-13.46-16.69-13.63l.29-19.05c10.14-.29,16.89-6.37,16.61-15.63-.26-8.3-6.9-14.42-16.68-14.65l.08-19.35c10,.17,15.77-5.31,16.59-13.25.79-7.58-4.6-14.3-12.39-15.3-1.39-.18-4.32-1.77-4.31-3.13l.08-16.6c9.54-.65,15.85-5.75,16.59-13.98s-4.83-14.66-13.04-15.56c-.98-.11-3.54-1.92-3.54-2.93l.12-16.62c9.55-.66,15.73-5.29,16.47-13.87,1.37-15.84-16.49-14.51-16.52-18.53l-.07-12.79c0-2.33,1.49-4.24,3.56-4.47,8.49-.93,13.24-7.29,13.03-14.97-.2-7.23-5.31-12.81-13.48-13.73-1.72-.19-3.2-2.8-3.17-4.58l.27-15.08c9.88-.33,16.64-6.42,16.37-15.49-.25-8.5-6.81-14.19-16.47-14.68v-18.72c7.04-.27,12.39-3.42,14.92-8.76,2.53-5.34,1.98-12.48-2.81-16.77-3.22-2.88-7.49-3.74-12.38-4.86l.42-17.54,10.29-3.76c7.36-5.6,8.22-17.24,1.18-23.23-3.06-2.61-7.14-3.39-11.57-4.76l-.16-17.8c3.82-1.01,8.12-1.52,11.08-3.76,6.3-4.75,7.14-14.55,2.66-20.65-3.22-4.38-8.48-5.33-13.82-6.16l-.09-19.11c7.65.18,13.74-3.31,15.83-9.91,1.8-5.69.82-13.21-5.15-16.69-2.84-1.66-6.36-2.17-10.54-3.04l-.03-16.15c9.25-.85,14.53-6.74,15.22-15.21.98-1.52,4.79-1.24,6.73-1.26l14.5-.19c0,10.52,6.35,17.38,16.02,17.02,8.84-.33,14.64-7.74,14.76-17.25,12.41,1.91,23.06-2.13,23.17,2.73.19,8.58,7.52,15.2,16.05,14.6s14.56-7.44,14.28-16.97h23.58c-.43,9.42,5.76,16.35,14.42,16.75,7.98.37,15.3-5.08,15.58-14.1.13-4.34,7.31-2.21,19.9-2.68.96-.04,3.32.26,3.47,1.12l.54,3.06c1.56,8.78,8.7,13.67,17.02,12.53,7.56-1.03,13.53-7.97,12.72-16.56l20.31-.14c2.46-.02,3.67,1.63,3.89,4.33.72,8.72,9.09,13.57,17.02,12.44s13.16-8.04,12.74-16.73l23.11.03c.38,5.68,2,11.27,5.85,13.89,4.17,2.83,9.16,3.69,13.99,2.2,5.73-1.77,9.52-5.8,9.8-12.16.32-7.23,9.36-2.21,23.27-4.39-.04,9.68,6.27,17.68,15.48,17.31,9.06-.36,15.22-6.58,15.26-16.73l9.37-.06,13.25-.08c.15,6.48,2.08,11.19,6.37,14.3,4.18,3.03,9.8,3.24,14.69,1.27,6.29-2.53,8.95-7.47,9.06-15.1l8.64-.39,14.11-.12c.42,5.19.94,9.52,3.95,12.72,2.31,2.45,7.07,4.2,10.79,4.16,9.45-.1,15.85-7.06,14.94-16.83l15.23.03c2.46,0,5.4.08,7.58.52-.08,9.2,5.18,15.58,13.08,16.3s15.47-3.94,16.41-12.65c.14-1.29.48-2.93.82-3.74s3.05-.5,3.99-.51l15.23-.19c1.22-.02,3.73,1.5,3.73,2.63,0,8.68,6.55,15.03,15.11,14.43,8.01-.14,14.67-6.03,13.89-14.67.3-.65,2.34-2.25,3.24-2.25l17.63.05c.7,0,2.81,1.46,2.99,1.81.02,9.67,6.99,15.39,15.72,15.05,8.37-.19,14.83-7.42,14.34-16.77l20.64-.12c1.75,0,2.69,2.94,2.92,5.2.89,8.75,9.84,12.85,17.41,11.41,7.82-1.5,12.42-8.56,12.4-16.83l20.14.18c1.74.02,2.87,3.07,3.08,5.12.9,8.7,9.77,12.91,17.52,11.54,7.77-1.38,12.48-8.6,12.26-16.71l19.82.05c1.26,0,3.18,2.08,3.23,3.21.42,9.47,8.43,14.84,16.9,13.58,7.97-1.18,13.61-8.46,13.06-16.89l19.86.19c1.26,0,3.29,1.95,3.31,3.07.13,8.11,6.05,13.42,13.78,13.72,8.23.32,15.55-4.9,15.7-13.67.03-1.76,2.29-3.19,3.99-3.21l19.05-.25c.02,8.52,5.02,16.19,13,17.11s16.46-3.52,16.9-12.57c.08-1.74,1.48-4.3,3.12-4.32l20.02-.28c-.11,9.75,6.28,17.6,15.5,17.33,9.24-.27,15.04-7.01,15.03-16.93l14.58.07,7.68.31c.03,9.88,5.6,15.22,15.35,16.28l-.02,16.46c-9.98-.18-16.97,5.8-16.88,14.63.09,8.37,6.42,14.67,16.51,14.56l.28,19.58c-9.98-.32-16.89,6.2-16.74,14.84.16,8.78,6.81,14.98,16.8,14.63l.34,19.5c-10.06-.15-17.06,5.64-17.16,14.86s7.03,14.64,16.94,15.09l.03,18.73c-9.7.12-17.24,6.26-16.93,15.18.3,8.76,6.99,14.75,16.75,14.69l.35,15.57c.02.97-1.59,3.27-2.13,3.73-9.24.11-15.53,7.46-14.85,15.79.77,8.54,6.95,13.62,16.77,13.83l-.09,19.54c-10.03-.36-16.18,5.61-16.9,13.92-.02,8.19,5.77,14.97,15.04,15.21.41.11,2.45,2.56,2.41,3.53l-.72,16.19c-10.15-.19-16.96,6.45-16.71,14.97s7.28,14.81,17.02,14.36l-.04,19.6c-9.92-.51-17.23,5.83-16.98,15.04.23,8.4,7.16,14.53,16.9,14.64l.1,18.42-8.53,2.4c-6.53,1.84-9.3,9.85-8.2,16.09,2.3,13.1,17.02,9.73,16.91,14.81l-.36,16.09c-9.45.37-15.97,5.52-16.79,13.73-.84,8.39,5.07,15.41,13.88,16.25,1.22.12,3.31,2.7,3.28,3.99l-.4,15.53c-10.13-.06-16.17,5.63-16.79,14.16-.57,7.79,5.86,14.47,14,14.98,1.19.07,3.18,2.21,3.18,3.57l-.07,15.93c-7.39.1-12.57,3.06-15.4,8.44s-2.22,12.47,2.69,17.13c3.1,2.95,7.67,3.77,12.59,4.55l.36,18.94c-8,.19-13.63,3.07-16,9.01s-1.83,12.89,3.46,17c3.21,2.49,7.23,3.17,12.09,4.27l.27,18.87c-10.13-.21-16.66,5.51-17.06,14.37s6.25,15.39,16.67,14.93l.04,19.79c-10.43-.55-16.89,6.38-16.66,15.02.22,8.55,7.43,14.61,16.84,14.16l.26,19.7c-10.24-.61-17.5,5.75-17.17,15.11.3,8.43,7.38,14.13,16.97,14.32l-.14,18.87c-4.79,1.04-8.96,1.83-12.02,4.38-5.34,4.46-6.06,11.88-3.19,17.58,2.77,5.51,8.15,8.11,15.34,8.24v19.36c-9.29-.09-16.16,5.09-16.9,13.58-.66,7.61,4.83,14.99,13.29,15.63,1.91.15,4.06,2.58,3.99,4.39l-.64,15.65c-10.52-.53-17.19,6.31-16.71,14.99s6.67,14.42,16.63,13.91l.37,19.82c-9.47-.41-16.37,4.98-16.96,13.46-.54,7.7,4.86,14.91,13.36,15.68,1.27.12,3.77,2.33,3.74,3.57l-.36,15.62c-4.22,1.13-7.9,1.82-10.87,3.67-5.83,3.64-7.13,11.23-4.87,17.04s7.84,9.27,15.77,9.35l.22,19.59c-10.18-.27-17.44,5.96-17,15.25.41,8.57,7.33,14.24,17,14.18l-.19,19.39c-10.34-.39-17.29,6.11-16.88,15.45.37,8.5,7.49,13.99,17.05,14.21l-.18,19.04c-7.72.19-13.06,3.01-15.55,8.54s-1.7,12.72,3.52,16.98c3.06,2.5,7.18,3.22,11.98,4.54l.26,16c.01.8-2.38,2.86-2.83,2.98-8.8.14-14.31,6.83-14.28,14.78,1.77,17.21,17.2,11.59,17.14,17.44l-.14,16.18c-6.73.53-12.17,2.88-15.01,7.76-3.08,5.29-2.83,11.85,1.45,16.77,2.98,3.43,8.12,4.84,12.74,6.26,1.65,5.67,1.46,12.74.42,18.74-9.75-.14-16.73,6.18-16.55,14.91.18,8.36,6.57,15,16.6,14.19.65,6.55.76,13.18.09,19.94-9.68-.18-16.18,5.66-16.66,13.94-.47,8.1,4.92,14.75,13.87,15.39,1.36.1,3.34,2.41,3.3,3.65l-.52,16.64c-10.38-.57-16.89,6.35-16.65,15.08.24,8.58,7.49,14.22,16.93,14.15l-.14,20.06c-12.24,3.22-13.9,6.93-16.4,18.4h-.03ZM962.78,48.39H52.79v1376.87h910V48.39h-.01Z"/>
  <g>
    <path class="cls-1" d="M52.79,531.03V48.39h910v1376.87H52.79v-154.63c1.13.31,2.89,1.69,3.79,2.8,5.64,6.93,14.48,8.49,21.69,3.12,18.55-13.8,30.66-57.17,36.6-80.99l13.17-66.22c6.31-39,10.79-77.67,13.8-116.95l.87-11.34.62-8.76.69-10.07.6-9.42.72-12.75.56-11.07.65-14.12.65-16.13.71-24.98v-94.69s-.71-25.65-.71-25.65l-.65-16.13-.64-13.47-.72-13.31-.67-11.66c-1.98-34.65-5.42-68.8-10.94-103.14l-8.58-45.9c-2.83-15.12-7.31-29.33-12.81-43.63-3.53-9.18-7.7-17.57-13.88-25.14s-15.85-10.01-23.9-3.44l-6.13,6.02c-6.03,8.27-10.82,16.99-14.32,26.62l-1.18.78ZM179.06,1279.1c5.99,4.97,13.7,5.04,19.64.26,6.04-4.87,10.49-11.04,14.19-18.04,17.25-32.63,27.73-84.54,34-121.98,6.24-37.28,10.9-74.18,13.85-111.74l2.83-36.05.74-11.32.68-12.11.7-12.78.55-10.78.62-15.1.7-22.18.59-38.43v-44.21s-.59-33.74-.59-33.74l-.7-22.18-.62-15.1-.56-10.77-.68-11.44-.68-11.42-.82-11.99c-2.08-30.44-4.63-60.44-10.08-90.48l-6.42-35.35c-3.19-17.56-7.97-34.3-14.07-51.03l-6.23-13.98c-2.59-5.81-6.25-11.08-10.75-15.35-6.25-5.92-14.78-7.12-21.15-1.4l-4.58,4.12c-10.54,12.68-17.56,30.02-22.71,45.9-6.71,20.69-11.59,41.36-15.88,62.69-.73,3.65-.9,6.85-.36,10.57,4.46,30.78,7.53,61.32,9.46,92.37l.79,12.68.69,12.09.59,11.42.59,13.77.7,22.2.65,41.6v23.75s-.65,50.31-.65,50.31l-.71,22.23-.67,15.57-.51,10.29-.7,12.77-.67,12.11-.65,10.06-.68,9.4-.6,8.09-.88,11.34c-3,38.83-6.98,77.18-13.8,115.55l-4.61,25.95c3.16,21.71,7.08,42.98,12.59,64.32l10.4,32c2.42,7.45,9.83,20,16.48,25.52ZM499.35,1026.93l2.48-31.31.82-12.72.61-10.13.67-11.43.51-10.06.38-8.12.64-17.04.69-22.21.63-42.96v-28.41s-.64-36.93-.64-36.93l-.68-20.87-.72-18.02-.66-13.58-1.33-21.38-.68-10.3c-1.92-29.31-4.41-58.21-9.4-87.23l-5.34-31.04c-2.99-17.37-7.08-33.95-12.41-50.74-3.42-10.79-7.56-20.77-13.24-30.44-2.13-3.63-4.9-6.81-7.9-9.56-6.13-5.62-14.54-5.98-21.06-.6-5.58,4.6-9.34,10.68-13.18,17.01-6.65,12.66-11.53,25.58-15.71,39.4-6.19,20.47-10.89,40.71-14.76,61.83,4.35,29.77,7.35,59.22,9.52,89.24l.87,11.99.65,11.42.62,10.77.54,11.07.69,17.46.7,23.64v102.75s-.7,24.32-.7,24.32l-.7,18.13-.51,10.41-.66,12.11-.68,12.11-.75,11.99-2.83,36.73c-3.48,45.13-9.38,89.46-17.76,134.21l9.46,51.57c3.3,14.64,7.33,28.49,12.63,42.46,4.31,10.5,9.98,22.36,18.89,28.78,6.05,4.36,13.29,3.37,18.9-1.26,38.66-31.93,57.1-198.71,61.39-253.07ZM316.6,1282.93c6.56-4.96,11.12-11.71,14.99-19.2,6.57-12.7,11.35-25.76,15.47-39.61,5.76-19.39,10.28-38.49,14.06-58.51,8.93-47.33,14.88-94.58,18.65-142.44l.84-10.69.64-8.76.69-9.42.6-8.73.72-12.08.55-10.4.66-13.44.61-13.58.74-20.74.64-43.66v-43.13s-.64-37.63-.64-37.63l-.74-20.73-.61-13.59-.68-13.45-.72-12.63-.66-10.32c-3.26-50.86-10.63-114.37-23.96-163.42-2.7-9.94-5.8-19.18-9.69-28.6-5.67-13.71-17.41-33.78-32.05-26.78-8.45,4.04-13.85,13.46-18.6,21.74-5.48,11.31-9.97,22.5-13.7,34.64-6.26,20.39-11.04,40.58-15.05,61.69,4.85,32.39,8.01,64.55,10.29,97.26l.84,12.01.66,12.76.6,11.44.57,11.75.7,20.82.73,30.97v63.22s-.73,34.98-.73,34.98l-.7,20.16-.56,12.44-.61,12.09-.7,12.78-.66,11.44-.69,10.04-.61,8.08-.66,8.77-.81,10.64-3.43,36.17c-3.39,35.84-8.68,70.87-15.31,106.31l7.56,41.81c2.85,15.78,7.48,30.59,12.7,45.7,3.7,9.18,7.46,17.83,13.29,25.72,6.33,8.56,15.9,12.8,24.77,6.08ZM523.12,1265.01l5.43,9.73c2.31,4.15,5.69,7.78,9.5,10.62,6.09,4.53,13.82,3.62,19.57-1.34,37.93-32.74,56.33-193.49,60.67-247.68l2.83-35.38.77-11.32.54-9.06,1.3-23.51.69-16.15.68-18.81.65-21.63v-90.65s-.65-22.98-.65-22.98l-.67-18.8-.71-16.26c-1.7-39.26-5.16-77.96-10.64-116.98l-5.86-35.2c-3.22-19.32-7.83-37.85-14.04-56.36-3.21-9.58-6.97-18.35-12.1-26.94s-13.51-16.37-22.35-13.55c-12.88,4.11-20.82,22.13-26.6,34.61l-11.67,34.7c-4.85,17.28-8.6,34.12-12,52.04,4.06,28,6.96,55.65,9.12,83.91l.86,11.31.64,10.75.68,11.44.57,10.1.61,13.75.68,19.47.67,26.97v80.64s-.66,24.96-.66,24.96l-.69,20.14-.59,13.79-.6,11.41-.66,11.43-.7,12.11-.75,11.32-2.84,35.38c-3.37,41.93-8.85,83.19-16.44,124.59-.72,3.95-.75,7.1-.11,11.02,5.04,30.97,11.81,67.9,24.88,96.42ZM651.58,1281.48l6.62,6.64c7.51,6.27,16.85,3.42,23.35-4.36,3.9-4.67,7.29-9.38,10.04-14.86,5.4-10.74,10.25-21.35,13.28-33.05l13.28-51.28,10.91-61.73c6.57-44.91,10.92-89.55,13.59-134.73l.72-12.24.64-12.23,1.33-30.1.71-23.66v-96.7s-.72-27.68-.72-27.68l-1.33-30.1-.63-11.57-.73-12.2c-3.2-53.56-12.81-145.89-32.3-194.05-3.73-9.2-7.77-17.85-14.34-25.4-1.25-1.44-3.57-3.02-5.16-4.12-5.77-3.99-12.83-3.2-18.09,1.18-9.81,8.18-15.04,19.83-20.32,31.48l-10.49,30.5c-5.09,17.74-9.05,35.07-12.62,53.44,4.52,30.33,7.62,60.22,9.86,90.74l.88,11.99.65,12.09.68,12.11.55,10.09.63,16.44.69,22.88.65,42.97v30.42s-.65,35.6-.65,35.6l-.69,23.53-.62,15.1-.53,10.78-.73,13.44-.67,12.1-.77,11.99-2.82,36.06c-3.39,43.33-8.94,86.01-16.87,128.78-.74,3.97-1.38,7.33-.65,11.14l8.63,45.16c4.69,20.15,12.12,47.31,24.03,63.41Z"/>
    <g>
      <g>
        <path class="cls-2" d="M316.6,1282.93c-8.87,6.71-18.44,2.48-24.77-6.08-5.83-7.89-9.59-16.54-13.29-25.72-5.22-15.11-9.85-29.92-12.7-45.7l-7.56-41.81c6.64-35.44,11.92-70.47,15.31-106.31l3.43-36.17.81-10.64.66-8.77.61-8.08.69-10.04.66-11.44.7-12.78.61-12.09.56-12.44.7-20.16.72-34.98v-63.22s-.72-30.97-.72-30.97l-.7-20.82-.57-11.75-.6-11.44-.66-12.76-.84-12.01c-2.28-32.71-5.44-64.87-10.29-97.26,4.01-21.11,8.78-41.31,15.05-61.69,3.73-12.15,8.23-23.33,13.7-34.64,4.75-8.28,10.15-17.7,18.6-21.74,14.64-7,26.38,13.07,32.05,26.78,3.9,9.42,6.99,18.65,9.69,28.6,13.33,49.05,20.7,112.56,23.96,163.42l.66,10.32.72,12.63.68,13.45.61,13.59.74,20.73.65,37.63v43.13s-.64,43.66-.64,43.66l-.74,20.74-.61,13.58-.66,13.44-.55,10.4-.72,12.08-.6,8.73-.69,9.42-.64,8.76-.84,10.69c-3.77,47.86-9.71,95.11-18.65,142.44-3.78,20.02-8.3,39.12-14.06,58.51-4.12,13.85-8.9,26.91-15.47,39.61-3.87,7.49-8.44,14.24-14.99,19.2Z"/>
        <g>
          <path class="cls-2" d="M52.79,1270.63v-739.6l1.18-.78c3.5-9.63,8.29-18.35,14.32-26.62l6.13-6.02c8.05-6.57,17.68-4.19,23.9,3.44s10.34,15.97,13.88,25.14c5.51,14.3,9.99,28.51,12.81,43.63l8.58,45.9c5.52,34.34,8.96,68.49,10.94,103.14l.67,11.66.72,13.31.64,13.47.65,16.13.7,25.65v94.69s-.7,24.98-.7,24.98l-.65,16.13-.65,14.12-.56,11.07-.72,12.75-.6,9.42-.69,10.07-.62,8.76-.87,11.34c-3.01,39.28-7.5,77.95-13.8,116.95l-13.17,66.22c-5.94,23.82-18.05,67.19-36.6,80.99-7.22,5.37-16.05,3.81-21.69-3.12-.91-1.11-2.66-2.5-3.79-2.8Z"/>
          <path class="cls-2" d="M179.06,1279.1c-6.65-5.51-14.06-18.07-16.48-25.52l-10.4-32c-5.51-21.34-9.43-42.61-12.59-64.32l4.61-25.95c6.82-38.37,10.8-76.72,13.8-115.55l.88-11.34.6-8.09.68-9.4.65-10.06.67-12.11.7-12.77.51-10.29.67-15.57.71-22.23.65-50.31v-23.75s-.65-41.6-.65-41.6l-.7-22.2-.59-13.77-.59-11.42-.69-12.09-.79-12.68c-1.93-31.05-5-61.59-9.46-92.37-.54-3.72-.38-6.92.36-10.57,4.29-21.33,9.18-42,15.88-62.69,5.15-15.88,12.17-33.22,22.71-45.9l4.58-4.12c6.37-5.72,14.9-4.52,21.15,1.4,4.5,4.27,8.16,9.54,10.75,15.35l6.23,13.98c6.11,16.73,10.88,33.47,14.07,51.03l6.42,35.35c5.46,30.04,8.01,60.05,10.08,90.48l.82,11.99.68,11.42.68,11.44.56,10.77.62,15.1.7,22.18.6,33.74v44.21s-.6,38.43-.6,38.43l-.7,22.18-.62,15.1-.55,10.78-.7,12.78-.68,12.11-.74,11.32-2.83,36.05c-2.95,37.56-7.61,74.46-13.85,111.74-6.27,37.44-16.75,89.35-34,121.98-3.7,7-8.15,13.17-14.19,18.04-5.93,4.78-13.65,4.71-19.64-.26Z"/>
        </g>
      </g>
      <g>
        <path class="cls-2" d="M523.12,1265.01c-13.07-28.52-19.84-65.45-24.88-96.42-.64-3.92-.61-7.07.11-11.02,7.59-41.39,13.07-82.65,16.44-124.59l2.84-35.38.75-11.32.7-12.11.66-11.43.6-11.41.59-13.79.69-20.14.65-24.96v-80.64s-.66-26.97-.66-26.97l-.68-19.47-.61-13.75-.57-10.1-.68-11.44-.64-10.75-.86-11.31c-2.16-28.26-5.06-55.91-9.12-83.91,3.4-17.93,7.15-34.76,12-52.04l11.67-34.7c5.78-12.48,13.72-30.49,26.6-34.61,8.84-2.82,17.48,5.39,22.35,13.55,5.13,8.59,8.89,17.36,12.1,26.94,6.2,18.51,10.82,37.04,14.04,56.36l5.86,35.2c5.47,39.01,8.93,77.71,10.64,116.98l.71,16.26.67,18.8.65,22.98v90.65s-.65,21.63-.65,21.63l-.68,18.81-.69,16.15-1.3,23.51-.54,9.06-.77,11.32-2.83,35.38c-4.34,54.19-22.74,214.94-60.67,247.68-5.75,4.96-13.48,5.87-19.57,1.34-3.81-2.84-7.18-6.47-9.5-10.62l-5.43-9.73Z"/>
        <path class="cls-2" d="M499.35,1026.93c-4.3,54.36-22.74,221.13-61.39,253.07-5.61,4.63-12.84,5.63-18.9,1.26-8.91-6.42-14.58-18.28-18.89-28.78-5.3-13.96-9.32-27.81-12.63-42.46l-9.46-51.57c8.38-44.75,14.28-89.09,17.76-134.21l2.83-36.73.75-11.99.68-12.11.66-12.11.51-10.41.7-18.13.7-24.32v-102.75s-.7-23.64-.7-23.64l-.69-17.46-.54-11.07-.62-10.77-.65-11.42-.87-11.99c-2.17-30.02-5.17-59.48-9.52-89.24,3.87-21.12,8.57-41.36,14.76-61.83,4.18-13.82,9.06-26.73,15.71-39.4,3.84-6.33,7.61-12.41,13.18-17.01,6.52-5.38,14.93-5.02,21.06.6,3,2.75,5.77,5.92,7.9,9.56,5.68,9.67,9.82,19.65,13.24,30.44,5.33,16.79,9.42,33.37,12.41,50.74l5.34,31.04c4.99,29.01,7.48,57.91,9.4,87.23l.68,10.3,1.33,21.38.66,13.58.72,18.02.68,20.87.64,36.93v28.41s-.63,42.96-.63,42.96l-.69,22.21-.64,17.04-.38,8.12-.51,10.06-.67,11.43-.61,10.13-.82,12.72-2.48,31.31Z"/>
        <path class="cls-2" d="M651.58,1281.48c-11.91-16.1-19.34-43.27-24.03-63.41l-8.63-45.16c-.73-3.81-.09-7.16.65-11.14,7.93-42.77,13.48-85.45,16.87-128.78l2.82-36.06.77-11.99.67-12.1.73-13.44.53-10.78.62-15.1.69-23.53.64-35.6v-30.42s-.64-42.97-.64-42.97l-.69-22.88-.63-16.44-.55-10.09-.68-12.11-.65-12.09-.88-11.99c-2.23-30.53-5.33-60.41-9.86-90.74,3.58-18.37,7.54-35.7,12.62-53.44l10.49-30.5c5.28-11.65,10.51-23.3,20.32-31.48,5.26-4.39,12.33-5.17,18.09-1.18,1.59,1.1,3.91,2.68,5.16,4.12,6.56,7.55,10.61,16.2,14.34,25.4,19.5,48.16,29.1,140.49,32.3,194.05l.73,12.2.63,11.57,1.33,30.1.71,27.68v96.7s-.7,23.66-.7,23.66l-1.33,30.1-.64,12.23-.72,12.24c-2.67,45.18-7.02,89.82-13.59,134.73l-10.91,61.73-13.28,51.28c-3.03,11.7-7.88,22.31-13.28,33.05-2.76,5.48-6.14,10.2-10.04,14.86-6.51,7.78-15.85,10.63-23.35,4.36l-6.62-6.64Z"/>
      </g>
    </g>
  </g>
</svg>