<?xml version="1.0" encoding="UTF-8"?>
<svg id="_레이어_1" data-name="레이어 1" xmlns="http://www.w3.org/2000/svg" viewBox="0 0 1014 1474">
  <defs>
    <style>
      .cls-1 {
        fill: #fffbf8;
      }

      .cls-2 {
        fill: #f7f7f7;
      }

      .cls-3 {
        fill: #61d4ad;
      }
    </style>
  </defs>
  <path class="cls-1" d="M995.39,1473.24h-21.01l-2.17-9.64c-1.58-5.67-8.58-8.02-13.84-7.94-5.1.08-11.63,3.13-12.84,9.04l-2.14,8.55h-23.01c.11-3.29-.08-8.41-2.14-11.5-5.22-7.82-17.13-8.23-23.5-1.54-3.2,3.36-3.6,9.02-4.34,13.04h-22.01l-.92-5.71c-1.41-6.72-5.96-11.1-13.02-11.84-4.63-.48-9.91,1.01-12.6,4.24-3.14,3.77-3.91,9.04-3.45,13.3h-25c1.64-4.68.91-9.77-3.14-13.62-6.73-6.39-19.16-5.31-23.39,3.63l-3.46,10h-21.01l-1.74-8.09c-1.74-6.86-8.71-9.9-15.13-9.49-6.4.4-11.72,5.32-13.29,11.98l-1.83,5.6h-22.01c-.04-3.65-.64-8.45-2.69-11.93-2.63-4.48-8.49-5.9-13.18-5.59-4.25.29-10.31,2.45-11.77,7.38l-3.35,10.14h-22.01l-1.81-9.79c-1.3-5.44-7.7-7.78-12.34-7.76-5.35.02-11.15,1.93-13.79,7.3-1.44,2.93-1.72,7.24-2.06,10.25h-23.6c.82-5.9-.88-12.08-6.14-15.29-4.9-2.99-11.63-3.08-16.69.01-4.96,3.04-6.6,9.59-6.57,15.27h-23.6c.8-5.46-1.22-12.19-6.12-15.29s-11.75-3.09-16.57.05c-4.93,3.21-6.76,9.49-6.71,15.24h-22l-2.01-8.87c-1.26-4.67-6.8-7.88-10.68-8.47-5.13-.77-10.62.16-14.04,4.25-2.99,3.58-3.67,8.87-4.27,13.09h-22.01c-.31-3.31-1.11-7.66-2.67-10.84-2.6-5.29-8.22-6.98-13.32-6.75-4.84.21-11.15,2.05-12.46,7.72l-2.54,9.87h-23.01c.45-3.49,0-8.28-2.03-11.57-3.86-6.26-12.18-7.3-18.42-4.84-6.48,2.56-9.21,9.62-9.53,16.41h-22.01l-2.23-9.55c-1.32-4.57-6.67-7.2-10.45-7.8-5-.79-10.6.29-13.91,4.36-2.95,3.63-3.56,8.78-4.4,12.99h-24.01c1.72-5.13.32-11.57-4.6-14.92-7.58-5.15-19.93-3.01-22.47,6.14l-2.92,8.78h-22.01l-1.01-6.72c-1.71-8.45-10.03-12.34-17.62-10.68s-12.18,9.51-11.36,17.4h-25c1.39-5.06.68-10.97-4.1-14.51-6.52-4.84-17.42-4.31-21.7,3.2-1.93,3.39-2.73,8-4.19,11.31h-22.01l-2.26-10.21c-1.63-5.95-8.2-7.68-13.64-7.33-5.02.32-11.16,2.75-12.58,8.62l-2.51,8.93h-22.01l-1.72-8.1c-2.06-7.89-10.67-10.63-17.57-8.99-7.78,1.85-11.4,9.55-10.7,17.08l-23,.04-.89-7.76c-1.18-6.66-7.83-9.38-14.73-10.49l.15-19.44,6.39-1.94c7.74-2.35,10.89-9.91,9.57-16.95-1.44-7.67-8.69-11.27-16.51-11.68l.27-16.02c.04-2.14,1.63-3.64,3.9-3.91,8.54-1.01,13.21-7.79,12.57-15.84-1.24-15.53-16.89-10.37-16.71-16.74l.47-16.15c9.54-.26,16.52-6.13,16.39-14.63-.14-8.88-6.56-15.3-16.47-14.75l-.24-16.96c-.07-4.66,17.09-1.48,16.74-18.93-.56-7.43-6.35-13.43-14.92-13.19-.69-.49-1.81-2.48-1.8-3.56l.08-14.67c0-.64,2.4-2.01,2.74-2.04,8.69-.22,14.27-6.79,13.94-14.79.03-7.38-5.7-13.44-13.96-13.92-.49-.13-2.71-2.13-2.71-2.96l.13-16.07c4.64-1.35,9.06-1.89,11.98-4.56,6.07-5.55,6.12-15.73.25-21.25-3.04-2.85-7.56-3.59-12.12-4.34l-.43-15.76c-.04-1.58,1.57-3.67,3.29-3.75,9.18-.45,14.17-7.98,13.48-16.14s-7.25-13.06-16.4-12.97l-.24-15.11c-.03-1.71,1.59-4.41,3.31-4.58,9.23-.88,14.2-8,13.32-16.33-.85-7.98-7.15-12.97-16.39-13.05l-.09-19.41c10.02.52,16.07-5.57,16.61-13.9.5-7.84-5.37-14.46-13.75-15.11-1.13-.09-3.17-2.14-3.12-3.33l.69-16.14c7.82-.53,12.5-3.58,14.86-9.31,2.16-5.26,1.74-11.72-2.81-16.27-2.89-2.89-7.48-3.76-12.46-4.76v-19.13c9.93.28,16.46-5.56,16.51-14.03.56-8.33-5.4-14.76-14.61-14.98-.25-.15-2.03-2.24-2.02-2.83l.19-16.29c7.43-.87,12.99-3.57,15.3-9.52,2.17-5.58,1.6-12.52-3.4-16.89-2.81-2.46-7.7-3.16-12.01-3.95l-.1-19.19c9.97.35,16.78-6.2,16.68-15.11-.09-8.93-6.43-14.57-16.56-14.7l.05-19.47c10.83.38,16.7-6.96,16.53-15.8-.17-8.89-7.93-13.93-16.78-13.79l.09-19.17c9.86.2,16.78-6.11,16.7-15.06-.09-9.25-7.52-14.59-16.83-14.73l.15-19.16c9.95.35,17.02-5.86,16.74-15.06-.26-8.55-7.17-14.61-16.83-14.43l.1-19.32c9.16.2,16.79-5.95,16.59-14.35.34-8.63-6.34-14.98-15.65-15.17-.17-.25-1.15-2.24-1.14-2.74l.03-13.75c0-.88,1.25-2.88,1.9-3.3,9.48-.14,15.71-7.36,14.79-15.7-.5-8.45-7.38-13.58-16.61-13.86l.02-16.76c0-.8,1.51-2.64,1.92-2.75,9.29.02,15.68-7.46,14.68-15.63-.33-8.53-7.37-13.46-16.69-13.63l.29-19.05c10.14-.29,16.89-6.37,16.61-15.63-.26-8.3-6.9-14.42-16.68-14.65l.08-19.35c10,.17,15.77-5.31,16.59-13.25.79-7.58-4.6-14.3-12.39-15.3-1.39-.18-4.32-1.77-4.31-3.13l.08-16.6c9.54-.65,15.85-5.75,16.59-13.98s-4.83-14.66-13.04-15.56c-.98-.11-3.54-1.92-3.54-2.93l.12-16.62c9.55-.66,15.73-5.29,16.47-13.87,1.37-15.84-16.49-14.51-16.52-18.53l-.07-12.79c0-2.33,1.49-4.24,3.56-4.47,8.49-.93,13.24-7.29,13.03-14.97-.2-7.23-5.31-12.81-13.48-13.73-1.72-.19-3.2-2.8-3.17-4.58l.27-15.08c9.88-.33,16.64-6.42,16.37-15.49-.25-8.5-6.81-14.19-16.47-14.68v-18.72c7.04-.27,12.39-3.42,14.92-8.76,2.53-5.34,1.98-12.48-2.81-16.77-3.22-2.88-7.49-3.74-12.38-4.86l.42-17.54,10.29-3.76c7.36-5.6,8.22-17.24,1.18-23.23-3.06-2.61-7.14-3.39-11.57-4.76l-.16-17.8c3.82-1.01,8.12-1.52,11.08-3.76,6.3-4.75,7.14-14.55,2.66-20.65-3.22-4.38-8.48-5.33-13.82-6.16l-.09-19.11c7.65.18,13.74-3.31,15.83-9.91,1.8-5.69.82-13.21-5.15-16.69-2.84-1.66-6.36-2.17-10.54-3.04l-.03-16.15c9.25-.85,14.53-6.74,15.22-15.21.98-1.52,4.79-1.24,6.73-1.26l14.5-.19c0,10.52,6.35,17.38,16.02,17.02,8.84-.33,14.64-7.74,14.76-17.25,12.41,1.91,23.06-2.13,23.17,2.73.19,8.58,7.52,15.2,16.05,14.6s14.56-7.44,14.28-16.97h23.58c-.43,9.42,5.76,16.35,14.42,16.75,7.98.37,15.3-5.08,15.58-14.1.13-4.34,7.31-2.21,19.9-2.68.96-.04,3.32.26,3.47,1.12l.54,3.06c1.56,8.78,8.7,13.67,17.02,12.53,7.56-1.03,13.53-7.97,12.72-16.56l20.31-.14c2.46-.02,3.67,1.63,3.89,4.33.72,8.72,9.09,13.57,17.02,12.44s13.16-8.04,12.74-16.73l23.11.03c.38,5.68,2,11.27,5.85,13.89,4.17,2.83,9.16,3.69,13.99,2.2,5.73-1.77,9.52-5.8,9.8-12.16.32-7.23,9.36-2.21,23.27-4.39-.04,9.68,6.27,17.68,15.48,17.31,9.06-.36,15.22-6.58,15.26-16.73l9.37-.06,13.25-.08c.15,6.48,2.08,11.19,6.37,14.3,4.18,3.03,9.8,3.24,14.69,1.27,6.29-2.53,8.95-7.47,9.06-15.1l8.64-.39,14.11-.12c.42,5.19.94,9.52,3.95,12.72,2.31,2.45,7.07,4.2,10.79,4.16,9.45-.1,15.85-7.06,14.94-16.83l15.23.03c2.46,0,5.4.08,7.58.52-.08,9.2,5.18,15.58,13.08,16.3s15.47-3.94,16.41-12.65c.14-1.29.48-2.93.82-3.74s3.05-.5,3.99-.51l15.23-.19c1.22-.02,3.73,1.5,3.73,2.63,0,8.68,6.55,15.03,15.11,14.43,8.01-.14,14.67-6.03,13.89-14.67.3-.65,2.34-2.25,3.24-2.25l17.63.05c.7,0,2.81,1.46,2.99,1.81.02,9.67,6.99,15.39,15.72,15.05,8.37-.19,14.83-7.42,14.34-16.77l20.64-.12c1.75,0,2.69,2.94,2.92,5.2.89,8.75,9.84,12.85,17.41,11.41,7.82-1.5,12.42-8.56,12.4-16.83l20.14.18c1.74.02,2.87,3.07,3.08,5.12.9,8.7,9.77,12.91,17.52,11.54,7.77-1.38,12.48-8.6,12.26-16.71l19.82.05c1.26,0,3.18,2.08,3.23,3.21.42,9.47,8.43,14.84,16.9,13.58,7.97-1.18,13.61-8.46,13.06-16.89l19.86.19c1.26,0,3.29,1.95,3.31,3.07.13,8.11,6.05,13.42,13.78,13.72,8.23.32,15.55-4.9,15.7-13.67.03-1.76,2.29-3.19,3.99-3.21l19.05-.25c.02,8.52,5.02,16.19,13,17.11s16.46-3.52,16.9-12.57c.08-1.74,1.48-4.3,3.12-4.32l20.02-.28c-.11,9.75,6.28,17.6,15.5,17.33,9.24-.27,15.04-7.01,15.03-16.93l14.58.07,7.68.31c.03,9.88,5.6,15.22,15.35,16.28l-.02,16.46c-9.98-.18-16.97,5.8-16.88,14.63.09,8.37,6.42,14.67,16.51,14.56l.28,19.58c-9.98-.32-16.89,6.2-16.74,14.84.16,8.78,6.81,14.98,16.8,14.63l.34,19.5c-10.06-.15-17.06,5.64-17.16,14.86s7.03,14.64,16.94,15.09l.03,18.73c-9.7.12-17.24,6.26-16.93,15.18.3,8.76,6.99,14.75,16.75,14.69l.35,15.57c.02.97-1.59,3.27-2.13,3.73-9.24.11-15.53,7.46-14.85,15.79.77,8.54,6.95,13.62,16.77,13.83l-.09,19.54c-10.03-.36-16.18,5.61-16.9,13.92-.02,8.19,5.77,14.97,15.04,15.21.41.11,2.45,2.56,2.41,3.53l-.72,16.19c-10.15-.19-16.96,6.45-16.71,14.97s7.28,14.81,17.02,14.36l-.04,19.6c-9.92-.51-17.23,5.83-16.98,15.04.23,8.4,7.16,14.53,16.9,14.64l.1,18.42-8.53,2.4c-6.53,1.84-9.3,9.85-8.2,16.09,2.3,13.1,17.02,9.73,16.91,14.81l-.36,16.09c-9.45.37-15.97,5.52-16.79,13.73-.84,8.39,5.07,15.41,13.88,16.25,1.22.12,3.31,2.7,3.28,3.99l-.4,15.53c-10.13-.06-16.17,5.63-16.79,14.16-.57,7.79,5.86,14.47,14,14.98,1.19.07,3.18,2.21,3.18,3.57l-.07,15.93c-7.39.1-12.57,3.06-15.4,8.44s-2.22,12.47,2.69,17.13c3.1,2.95,7.67,3.77,12.59,4.55l.36,18.94c-8,.19-13.63,3.07-16,9.01s-1.83,12.89,3.46,17c3.21,2.49,7.23,3.17,12.09,4.27l.27,18.87c-10.13-.21-16.66,5.51-17.06,14.37s6.25,15.39,16.67,14.93l.04,19.79c-10.43-.55-16.89,6.38-16.66,15.02.22,8.55,7.43,14.61,16.84,14.16l.26,19.7c-10.24-.61-17.5,5.75-17.17,15.11.3,8.43,7.38,14.13,16.97,14.32l-.14,18.87c-4.79,1.04-8.96,1.83-12.02,4.38-5.34,4.46-6.06,11.88-3.19,17.58,2.77,5.51,8.15,8.11,15.34,8.24v19.36c-9.29-.09-16.16,5.09-16.9,13.58-.66,7.61,4.83,14.99,13.29,15.63,1.91.15,4.06,2.58,3.99,4.39l-.64,15.65c-10.52-.53-17.19,6.31-16.71,14.99s6.67,14.42,16.63,13.91l.37,19.82c-9.47-.41-16.37,4.98-16.96,13.46-.54,7.7,4.86,14.91,13.36,15.68,1.27.12,3.77,2.33,3.74,3.57l-.36,15.62c-4.22,1.13-7.9,1.82-10.87,3.67-5.83,3.64-7.13,11.23-4.87,17.04s7.84,9.27,15.77,9.35l.22,19.59c-10.18-.27-17.44,5.96-17,15.25.41,8.57,7.33,14.24,17,14.18l-.19,19.39c-10.34-.39-17.29,6.11-16.88,15.45.37,8.5,7.49,13.99,17.05,14.21l-.18,19.04c-7.72.19-13.06,3.01-15.55,8.54s-1.7,12.72,3.52,16.98c3.06,2.5,7.18,3.22,11.98,4.54l.26,16c.01.8-2.38,2.86-2.83,2.98-8.8.14-14.31,6.83-14.28,14.78,1.77,17.21,17.2,11.59,17.14,17.44l-.14,16.18c-6.73.53-12.17,2.88-15.01,7.76-3.08,5.29-2.83,11.85,1.45,16.77,2.98,3.43,8.12,4.84,12.74,6.26,1.65,5.67,1.46,12.74.42,18.74-9.75-.14-16.73,6.18-16.55,14.91.18,8.36,6.57,15,16.6,14.19.65,6.55.76,13.18.09,19.94-9.68-.18-16.18,5.66-16.66,13.94-.47,8.1,4.92,14.75,13.87,15.39,1.36.1,3.34,2.41,3.3,3.65l-.52,16.64c-10.38-.57-16.89,6.35-16.65,15.08.24,8.58,7.49,14.22,16.93,14.15l-.14,20.06c-12.24,3.22-13.9,6.93-16.4,18.4h-.03ZM962.78,48.39H52.79v1376.87h910V48.39h-.01Z"/>
  <g>
    <path class="cls-2" d="M52.79,610.43V48.39h910v1376.87H52.79v-146.56l3.2,1.09c9.97,4.02,20.58,8.78,32.07,8.79l243.49.14,9.62-.68c10.98-.78,21.67-2.75,32.07-6.17l11.54-4.61c13.33-5.33,29.85-20.07,39.25-31.98,9.16-11.59,16.65-23.86,23.41-37.02l16.66-32.45c8.76-17.07,18.3-33.22,31-47.56l13.81-13.86c15.13-13.5,32.6-23,51.84-29.48,28.34-9.54,57.85,1.82,80.69,19.73,24.93,19.55,44.35,45.58,60.22,72.96l35.66,63.52c12.08,14.57,25.26,26.78,41.83,35.81,24.36,13.28,53.43,16.85,79.77,7.3,10.27-3.72,19.17-10.05,28-16.21,14.22-9.91,25.36-22.88,32.76-38.44,11.54-24.24,9.49-49.79,2.77-75.11-3.17-11.93-8.28-22.22-16.44-31.49-22.76-25.86-66.87-40.12-100.69-45.82-23.63-3.98-46.89-5.87-70.69-7.18l-9.81-.54-10.74-.64-30.51-2.89c-30.1-2.85-63.39-11.45-89.47-26.8-32.61-19.19-49.62-50.42-51.71-88.01l.04-27.88c2.51-24.45,12.93-47.17,29.32-65.15,18.75-20.56,41.52-28.98,68.81-31.46l34-3.08,119.72-11.78,12.64-2.32c59.68-10.98,122.57-41.39,120.98-110.33-1.48-14.33-4.9-27.83-10.83-40.91-16.88-37.26-55.66-59.44-95.82-62.89l-61.85-7.94-77.48-9.16-37.69-4.03-22.9-2.16-17.44-2.64c-30.73-4.66-64.85-16.16-88.41-36.54l-13.07-13.11c-7.07-8.21-12.87-16.88-18-26.39l-19.09-35.4c-10.84-20.1-22.71-39.14-37.34-56.64l-11.62-12.72c-12.65-13.83-30.78-24.59-49.33-29.37-38.72-9.98-75.7-3.26-102.99,26.99-9.98,11.06-18.55,23.6-23.97,37.61-4.86,12.56-5.47,26.03-5.05,39.42,1.02,32.87,20.11,59.3,44.76,79.52,11.88,9.74,24.03,18.21,37.45,25.73l38.32,21.47c18.67,10.46,36.94,20.93,53.16,34.89l12.1,12.12c10.13,10.15,14.79,23.32,19.04,36.85,3.51,11.18,4.65,22.29,4.18,34.2-1.24,31.56-20.27,60.02-45.21,78.48-18.38,13.6-23.48,15.96-46.43,17.97l-22.51.02c-39.38-2.93-66.99-27.4-85.41-60.99l-13.34-24.32-20.66-34.47c-9.79-16.33-19.97-31.94-31.74-46.75-10.48-13.19-23.18-22.37-38.5-28.95-28.21-12.1-59.83-11.44-87.41,1.49Z"/>
    <path class="cls-3" d="M52.79,1278.7v-668.27c27.58-12.93,59.2-13.59,87.41-1.49,15.32,6.58,28.03,15.76,38.5,28.95,11.77,14.81,21.96,30.42,31.74,46.75l20.66,34.47,13.34,24.32c18.43,33.59,46.03,58.06,85.41,60.99l22.51-.02c22.95-2,28.05-4.37,46.43-17.97,24.94-18.45,43.97-46.91,45.21-78.48.47-11.9-.67-23.02-4.18-34.2-4.25-13.52-8.9-26.7-19.04-36.85l-12.1-12.12c-16.22-13.96-34.49-24.43-53.16-34.89l-38.32-21.47c-13.43-7.52-25.57-15.99-37.45-25.73-24.65-20.22-43.74-46.64-44.76-79.52-.42-13.38.19-26.85,5.05-39.42,5.42-14.01,13.99-26.55,23.97-37.61,27.29-30.25,64.27-36.97,102.99-26.99,18.55,4.78,36.68,15.53,49.33,29.37l11.62,12.72c14.63,17.5,26.5,36.54,37.34,56.64l19.09,35.4c5.13,9.52,10.93,18.18,18,26.39l13.07,13.11c23.57,20.39,57.69,31.88,88.41,36.54l17.44,2.64,22.9,2.16,37.69,4.03,77.48,9.16,61.85,7.94c40.16,3.46,78.94,25.63,95.82,62.89,5.93,13.08,9.34,26.58,10.83,40.91,1.59,68.94-61.3,99.35-120.98,110.33l-12.64,2.32-119.72,11.78-34,3.08c-27.3,2.47-50.06,10.89-68.81,31.46-16.39,17.97-26.8,40.7-29.32,65.15l-.04,27.88c2.09,37.59,19.1,68.82,51.71,88.01,26.08,15.35,59.37,23.95,89.47,26.8l30.51,2.89,10.74.64,9.81.54c23.8,1.31,47.06,3.19,70.69,7.18,33.82,5.7,77.93,19.97,100.69,45.82,8.16,9.27,13.27,19.56,16.44,31.49,6.72,25.32,8.76,50.88-2.77,75.11-7.4,15.55-18.54,28.53-32.76,38.44-8.83,6.15-17.73,12.48-28,16.21-26.34,9.55-55.41,5.98-79.77-7.3-16.56-9.03-29.75-21.23-41.83-35.81l-35.66-63.52c-15.87-27.39-35.29-53.41-60.22-72.96-22.84-17.91-52.35-29.26-80.69-19.73-19.24,6.47-36.71,15.97-51.84,29.48l-13.81,13.86c-12.7,14.34-22.23,30.5-31,47.56l-16.66,32.45c-6.76,13.16-14.25,25.43-23.41,37.02-9.4,11.9-25.93,26.65-39.25,31.98l-11.54,4.61c-10.4,3.41-21.08,5.39-32.07,6.17l-9.62.68-243.49-.14c-11.49,0-22.1-4.77-32.07-8.79l-3.2-1.09Z"/>
  </g>
</svg>