<?xml version="1.0" encoding="UTF-8"?>
<svg id="_레이어_1" data-name="레이어 1" xmlns="http://www.w3.org/2000/svg" viewBox="0 0 1014 1474">
  <defs>
    <style>
      .cls-1 {
        fill: #f5efea;
      }

      .cls-2 {
        fill: #fffbf8;
      }

      .cls-3 {
        fill: #9ba8b6;
      }
    </style>
  </defs>
  <path class="cls-2" d="M995.39,1473.24h-21.01l-2.17-9.64c-1.58-5.67-8.58-8.02-13.84-7.94-5.1.08-11.63,3.13-12.84,9.04l-2.14,8.55h-23.01c.11-3.29-.08-8.41-2.14-11.5-5.22-7.82-17.13-8.23-23.5-1.54-3.2,3.36-3.6,9.02-4.34,13.04h-22.01l-.92-5.71c-1.41-6.72-5.96-11.1-13.02-11.84-4.63-.48-9.91,1.01-12.6,4.24-3.14,3.77-3.91,9.04-3.45,13.3h-25c1.64-4.68.91-9.77-3.14-13.62-6.73-6.39-19.16-5.31-23.39,3.63l-3.46,10h-21.01l-1.74-8.09c-1.74-6.86-8.71-9.9-15.13-9.49-6.4.4-11.72,5.32-13.29,11.98l-1.83,5.6h-22.01c-.04-3.65-.64-8.45-2.69-11.93-2.63-4.48-8.49-5.9-13.18-5.59-4.25.29-10.31,2.45-11.77,7.38l-3.35,10.14h-22.01l-1.81-9.79c-1.3-5.44-7.7-7.78-12.34-7.76-5.35.02-11.15,1.93-13.79,7.3-1.44,2.93-1.72,7.24-2.06,10.25h-23.6c.82-5.9-.88-12.08-6.14-15.29-4.9-2.99-11.63-3.08-16.69.01-4.96,3.04-6.6,9.59-6.57,15.27h-23.6c.8-5.46-1.22-12.19-6.12-15.29s-11.75-3.09-16.57.05c-4.93,3.21-6.76,9.49-6.71,15.24h-22l-2.01-8.87c-1.26-4.67-6.8-7.88-10.68-8.47-5.13-.77-10.62.16-14.04,4.25-2.99,3.58-3.67,8.87-4.27,13.09h-22.01c-.31-3.31-1.11-7.66-2.67-10.84-2.6-5.29-8.22-6.98-13.32-6.75-4.84.21-11.15,2.05-12.46,7.72l-2.54,9.87h-23.01c.45-3.49,0-8.28-2.03-11.57-3.86-6.26-12.18-7.3-18.42-4.84-6.48,2.56-9.21,9.62-9.53,16.41h-22.01l-2.23-9.55c-1.32-4.57-6.67-7.2-10.45-7.8-5-.79-10.6.29-13.91,4.36-2.95,3.63-3.56,8.78-4.4,12.99h-24.01c1.72-5.13.32-11.57-4.6-14.92-7.58-5.15-19.93-3.01-22.47,6.14l-2.92,8.78h-22.01l-1.01-6.72c-1.71-8.45-10.03-12.34-17.62-10.68s-12.18,9.51-11.36,17.4h-25c1.39-5.06.68-10.97-4.1-14.51-6.52-4.84-17.42-4.31-21.7,3.2-1.93,3.39-2.73,8-4.19,11.31h-22.01l-2.26-10.21c-1.63-5.95-8.2-7.68-13.64-7.33-5.02.32-11.16,2.75-12.58,8.62l-2.51,8.93h-22.01l-1.72-8.1c-2.06-7.89-10.67-10.63-17.57-8.99-7.78,1.85-11.4,9.55-10.7,17.08l-23,.04-.89-7.76c-1.18-6.66-7.83-9.38-14.73-10.49l.15-19.44,6.39-1.94c7.74-2.35,10.89-9.91,9.57-16.95-1.44-7.67-8.69-11.27-16.51-11.68l.27-16.02c.04-2.14,1.63-3.64,3.9-3.91,8.54-1.01,13.21-7.79,12.57-15.84-1.24-15.53-16.89-10.37-16.71-16.74l.47-16.15c9.54-.26,16.52-6.13,16.39-14.63-.14-8.88-6.56-15.3-16.47-14.75l-.24-16.96c-.07-4.66,17.09-1.48,16.74-18.93-.56-7.43-6.35-13.43-14.92-13.19-.69-.49-1.81-2.48-1.8-3.56l.08-14.67c0-.64,2.4-2.01,2.74-2.04,8.69-.22,14.27-6.79,13.94-14.79.03-7.38-5.7-13.44-13.96-13.92-.49-.13-2.71-2.13-2.71-2.96l.13-16.07c4.64-1.35,9.06-1.89,11.98-4.56,6.07-5.55,6.12-15.73.25-21.25-3.04-2.85-7.56-3.59-12.12-4.34l-.43-15.76c-.04-1.58,1.57-3.67,3.29-3.75,9.18-.45,14.17-7.98,13.48-16.14s-7.25-13.06-16.4-12.97l-.24-15.11c-.03-1.71,1.59-4.41,3.31-4.58,9.23-.88,14.2-8,13.32-16.33-.85-7.98-7.15-12.97-16.39-13.05l-.09-19.41c10.02.52,16.07-5.57,16.61-13.9.5-7.84-5.37-14.46-13.75-15.11-1.13-.09-3.17-2.14-3.12-3.33l.69-16.14c7.82-.53,12.5-3.58,14.86-9.31,2.16-5.26,1.74-11.72-2.81-16.27-2.89-2.89-7.48-3.76-12.46-4.76v-19.13c9.93.28,16.46-5.56,16.51-14.03.56-8.33-5.4-14.76-14.61-14.98-.25-.15-2.03-2.24-2.02-2.83l.19-16.29c7.43-.87,12.99-3.57,15.3-9.52,2.17-5.58,1.6-12.52-3.4-16.89-2.81-2.46-7.7-3.16-12.01-3.95l-.1-19.19c9.97.35,16.78-6.2,16.68-15.11-.09-8.93-6.43-14.57-16.56-14.7l.05-19.47c10.83.38,16.7-6.96,16.53-15.8-.17-8.89-7.93-13.93-16.78-13.79l.09-19.17c9.86.2,16.78-6.11,16.7-15.06-.09-9.25-7.52-14.59-16.83-14.73l.15-19.16c9.95.35,17.02-5.86,16.74-15.06-.26-8.55-7.17-14.61-16.83-14.43l.1-19.32c9.16.2,16.79-5.95,16.59-14.35.34-8.63-6.34-14.98-15.65-15.17-.17-.25-1.15-2.24-1.14-2.74l.03-13.75c0-.88,1.25-2.88,1.9-3.3,9.48-.14,15.71-7.36,14.79-15.7-.5-8.45-7.38-13.58-16.61-13.86l.02-16.76c0-.8,1.51-2.64,1.92-2.75,9.29.02,15.68-7.46,14.68-15.63-.33-8.53-7.37-13.46-16.69-13.63l.29-19.05c10.14-.29,16.89-6.37,16.61-15.63-.26-8.3-6.9-14.42-16.68-14.65l.08-19.35c10,.17,15.77-5.31,16.59-13.25.79-7.58-4.6-14.3-12.39-15.3-1.39-.18-4.32-1.77-4.31-3.13l.08-16.6c9.54-.65,15.85-5.75,16.59-13.98s-4.83-14.66-13.04-15.56c-.98-.11-3.54-1.92-3.54-2.93l.12-16.62c9.55-.66,15.73-5.29,16.47-13.87,1.37-15.84-16.49-14.51-16.52-18.53l-.07-12.79c0-2.33,1.49-4.24,3.56-4.47,8.49-.93,13.24-7.29,13.03-14.97-.2-7.23-5.31-12.81-13.48-13.73-1.72-.19-3.2-2.8-3.17-4.58l.27-15.08c9.88-.33,16.64-6.42,16.37-15.49-.25-8.5-6.81-14.19-16.47-14.68v-18.72c7.04-.27,12.39-3.42,14.92-8.76,2.53-5.34,1.98-12.48-2.81-16.77-3.22-2.88-7.49-3.74-12.38-4.86l.42-17.54,10.29-3.76c7.36-5.6,8.22-17.24,1.18-23.23-3.06-2.61-7.14-3.39-11.57-4.76l-.16-17.8c3.82-1.01,8.12-1.52,11.08-3.76,6.3-4.75,7.14-14.55,2.66-20.65-3.22-4.38-8.48-5.33-13.82-6.16l-.09-19.11c7.65.18,13.74-3.31,15.83-9.91,1.8-5.69.82-13.21-5.15-16.69-2.84-1.66-6.36-2.17-10.54-3.04l-.03-16.15c9.25-.85,14.53-6.74,15.22-15.21.98-1.52,4.79-1.24,6.73-1.26l14.5-.19c0,10.52,6.35,17.38,16.02,17.02,8.84-.33,14.64-7.74,14.76-17.25,12.41,1.91,23.06-2.13,23.17,2.73.19,8.58,7.52,15.2,16.05,14.6s14.56-7.44,14.28-16.97h23.58c-.43,9.42,5.76,16.35,14.42,16.75,7.98.37,15.3-5.08,15.58-14.1.13-4.34,7.31-2.21,19.9-2.68.96-.04,3.32.26,3.47,1.12l.54,3.06c1.56,8.78,8.7,13.67,17.02,12.53,7.56-1.03,13.53-7.97,12.72-16.56l20.31-.14c2.46-.02,3.67,1.63,3.89,4.33.72,8.72,9.09,13.57,17.02,12.44s13.16-8.04,12.74-16.73l23.11.03c.38,5.68,2,11.27,5.85,13.89,4.17,2.83,9.16,3.69,13.99,2.2,5.73-1.77,9.52-5.8,9.8-12.16.32-7.23,9.36-2.21,23.27-4.39-.04,9.68,6.27,17.68,15.48,17.31,9.06-.36,15.22-6.58,15.26-16.73l9.37-.06,13.25-.08c.15,6.48,2.08,11.19,6.37,14.3,4.18,3.03,9.8,3.24,14.69,1.27,6.29-2.53,8.95-7.47,9.06-15.1l8.64-.39,14.11-.12c.42,5.19.94,9.52,3.95,12.72,2.31,2.45,7.07,4.2,10.79,4.16,9.45-.1,15.85-7.06,14.94-16.83l15.23.03c2.46,0,5.4.08,7.58.52-.08,9.2,5.18,15.58,13.08,16.3s15.47-3.94,16.41-12.65c.14-1.29.48-2.93.82-3.74s3.05-.5,3.99-.51l15.23-.19c1.22-.02,3.73,1.5,3.73,2.63,0,8.68,6.55,15.03,15.11,14.43,8.01-.14,14.67-6.03,13.89-14.67.3-.65,2.34-2.25,3.24-2.25l17.63.05c.7,0,2.81,1.46,2.99,1.81.02,9.67,6.99,15.39,15.72,15.05,8.37-.19,14.83-7.42,14.34-16.77l20.64-.12c1.75,0,2.69,2.94,2.92,5.2.89,8.75,9.84,12.85,17.41,11.41,7.82-1.5,12.42-8.56,12.4-16.83l20.14.18c1.74.02,2.87,3.07,3.08,5.12.9,8.7,9.77,12.91,17.52,11.54,7.77-1.38,12.48-8.6,12.26-16.71l19.82.05c1.26,0,3.18,2.08,3.23,3.21.42,9.47,8.43,14.84,16.9,13.58,7.97-1.18,13.61-8.46,13.06-16.89l19.86.19c1.26,0,3.29,1.95,3.31,3.07.13,8.11,6.05,13.42,13.78,13.72,8.23.32,15.55-4.9,15.7-13.67.03-1.76,2.29-3.19,3.99-3.21l19.05-.25c.02,8.52,5.02,16.19,13,17.11s16.46-3.52,16.9-12.57c.08-1.74,1.48-4.3,3.12-4.32l20.02-.28c-.11,9.75,6.28,17.6,15.5,17.33,9.24-.27,15.04-7.01,15.03-16.93l14.58.07,7.68.31c.03,9.88,5.6,15.22,15.35,16.28l-.02,16.46c-9.98-.18-16.97,5.8-16.88,14.63.09,8.37,6.42,14.67,16.51,14.56l.28,19.58c-9.98-.32-16.89,6.2-16.74,14.84.16,8.78,6.81,14.98,16.8,14.63l.34,19.5c-10.06-.15-17.06,5.64-17.16,14.86s7.03,14.64,16.94,15.09l.03,18.73c-9.7.12-17.24,6.26-16.93,15.18.3,8.76,6.99,14.75,16.75,14.69l.35,15.57c.02.97-1.59,3.27-2.13,3.73-9.24.11-15.53,7.46-14.85,15.79.77,8.54,6.95,13.62,16.77,13.83l-.09,19.54c-10.03-.36-16.18,5.61-16.9,13.92-.02,8.19,5.77,14.97,15.04,15.21.41.11,2.45,2.56,2.41,3.53l-.72,16.19c-10.15-.19-16.96,6.45-16.71,14.97s7.28,14.81,17.02,14.36l-.04,19.6c-9.92-.51-17.23,5.83-16.98,15.04.23,8.4,7.16,14.53,16.9,14.64l.1,18.42-8.53,2.4c-6.53,1.84-9.3,9.85-8.2,16.09,2.3,13.1,17.02,9.73,16.91,14.81l-.36,16.09c-9.45.37-15.97,5.52-16.79,13.73-.84,8.39,5.07,15.41,13.88,16.25,1.22.12,3.31,2.7,3.28,3.99l-.4,15.53c-10.13-.06-16.17,5.63-16.79,14.16-.57,7.79,5.86,14.47,14,14.98,1.19.07,3.18,2.21,3.18,3.57l-.07,15.93c-7.39.1-12.57,3.06-15.4,8.44s-2.22,12.47,2.69,17.13c3.1,2.95,7.67,3.77,12.59,4.55l.36,18.94c-8,.19-13.63,3.07-16,9.01s-1.83,12.89,3.46,17c3.21,2.49,7.23,3.17,12.09,4.27l.27,18.87c-10.13-.21-16.66,5.51-17.06,14.37s6.25,15.39,16.67,14.93l.04,19.79c-10.43-.55-16.89,6.38-16.66,15.02.22,8.55,7.43,14.61,16.84,14.16l.26,19.7c-10.24-.61-17.5,5.75-17.17,15.11.3,8.43,7.38,14.13,16.97,14.32l-.14,18.87c-4.79,1.04-8.96,1.83-12.02,4.38-5.34,4.46-6.06,11.88-3.19,17.58,2.77,5.51,8.15,8.11,15.34,8.24v19.36c-9.29-.09-16.16,5.09-16.9,13.58-.66,7.61,4.83,14.99,13.29,15.63,1.91.15,4.06,2.58,3.99,4.39l-.64,15.65c-10.52-.53-17.19,6.31-16.71,14.99s6.67,14.42,16.63,13.91l.37,19.82c-9.47-.41-16.37,4.98-16.96,13.46-.54,7.7,4.86,14.91,13.36,15.68,1.27.12,3.77,2.33,3.74,3.57l-.36,15.62c-4.22,1.13-7.9,1.82-10.87,3.67-5.83,3.64-7.13,11.23-4.87,17.04s7.84,9.27,15.77,9.35l.22,19.59c-10.18-.27-17.44,5.96-17,15.25.41,8.57,7.33,14.24,17,14.18l-.19,19.39c-10.34-.39-17.29,6.11-16.88,15.45.37,8.5,7.49,13.99,17.05,14.21l-.18,19.04c-7.72.19-13.06,3.01-15.55,8.54s-1.7,12.72,3.52,16.98c3.06,2.5,7.18,3.22,11.98,4.54l.26,16c.01.8-2.38,2.86-2.83,2.98-8.8.14-14.31,6.83-14.28,14.78,1.77,17.21,17.2,11.59,17.14,17.44l-.14,16.18c-6.73.53-12.17,2.88-15.01,7.76-3.08,5.29-2.83,11.85,1.45,16.77,2.98,3.43,8.12,4.84,12.74,6.26,1.65,5.67,1.46,12.74.42,18.74-9.75-.14-16.73,6.18-16.55,14.91.18,8.36,6.57,15,16.6,14.19.65,6.55.76,13.18.09,19.94-9.68-.18-16.18,5.66-16.66,13.94-.47,8.1,4.92,14.75,13.87,15.39,1.36.1,3.34,2.41,3.3,3.65l-.52,16.64c-10.38-.57-16.89,6.35-16.65,15.08.24,8.58,7.49,14.22,16.93,14.15l-.14,20.06c-12.24,3.22-13.9,6.93-16.4,18.4h-.03ZM962.78,48.39H52.79v1376.87h910V48.39h-.01Z"/>
  <g>
    <path class="cls-1" d="M52.79,1425.26V48.39h917.81v1376.87H52.79ZM640.31,1001.53l20.37,11.69c28.09,16.12,55.91,21.09,88.06,23.12l19.23,1.21c21.34,1.34,42.26,2.47,63.62,1.15,7.02-.43,13.22-1.62,19.04-5.42,4.15-2.71,6.11-7.84,4.75-12.78-1.48-5.34-3.39-10.49-6.53-15.08l-10.66-15.56-15.16-19.96c-11.29-14.87-20.56-29.96-29.19-46.46-8.13-15.55-19.71-28.52-30.89-41.97l.64-1.71,16.27,4.6,24.7,4.32,35.79,3.68c5.45.56,10.03.59,15.74-.44-3.05-6.68-10.37-11.65-10.64-18.67-.21-5.56,3.62-10.71,7.68-14.17l9.93-8.45c11.33-9.65,21.15-20.64,27.9-34.05,5.79-11.5,10.52-22.91,13.85-35.39l15.28-57.12c1.75-6.53,1.13-13.36.67-19.85-.54-7.6-6.1-13.39-13.97-13.91-7.41-.49-14.91.31-22.32,2.23l-47.2,12.2c-11.41,2.95-22.44,4.03-34.12,5.19-12.2,1.21-23.31,4.41-35.61,8.05-3.06-10.79-5.95-21.2-6.97-32.19-1.47-15.9,1.89-31.6,9.91-45.17,4.23-7.16,10.56-11.85,16.86-17.04,5.48-4.52,3.58-17.19-.71-25-4.77-8.69-11.22-15.9-18.82-22.26l-12.9-10.79c-5.96-4.99-10.89-10.75-14.86-17.53-11.21-19.11-.78-34.3-51.47-41.08-19.11-2.56-37.77-3.85-56.99-1.39-10.76,1.38-14.36,8.36-21.74,2.82l-24.27-18.2c-7.02-5.27-14.55-9.56-22.94-12.11-6.45-1.96-13.15-.63-19.12,1.88-7.3,3.57-14.1,7.14-20.45,12.01-9.79,12.65-16.55,26.07-24.17,40.95-6.14-19.29-13.63-31.01-32.19-37.16-13.86-4.59-27.38-8.85-41.84-11.49-9.58-1.75-22.4-2.42-29.14-8.1-10.88-9.18-15.01-17.91-22.96-24.27-10.99-8.79-23.59-5.16-36.35-.33l-25.46,9.66c-7.14,2.71-14.59,4.03-22.31,4.65l-35.91,2.87c-6.5.52-13.48,3.95-16.67,9.47-3.39,5.86-4.25,12.82-3.74,19.34l1.36,17.58c2.15,13.91,3.89,27.37,4.44,41.46l1.51,38.51c.34,8.8,1.71,16.96,3.63,25.43,4.45,19.68,14.61,36.58,29.55,50.06l12.46,10.04c-1.99.7-4.01.75-6.16.54-13.17-1.3-26.2-2.06-39.24.66-19.56,4.07-38.78,4.23-58.27-.05-9.41-2.07-18.16-4.73-26.52-9.26-6.37-3.45-10.67-7.84-15.17-13.44-2.86-3.56-8.19-5.84-12.44-7.57-3.91-1.59-8.1-1.63-12.12-.23-4.73,1.65-4.02,13.67-1.51,19.74l7.51,18.18c8.3,15.95,17.74,30.89,29.23,44.81,9.47,11.47,18.96,22.2,29.97,32.12l29.15,26.26c5.13,4.62,9.86,9.47,12.08,16.26,4.01,12.27-17.63,24.98-25.11,40.6-6.87,14.35,13.75,23.15,27.84,26.74,24.75,6.3,50.01,8.16,75.62,6.82l19.45-2.18,23.23-3.36c.21,5.98-.19,11.83,1.91,17.23,7.74,19.84,18.03,37.89,30.25,55.22,4.66,6.61,7.42,13.91,6.33,21.85l-1.84,13.5-.29,12.85c-.27,12.02,13.27,20.08,24.02,24.82,10.54,4.65,20.94,9.02,30.52,15.33,8.52,5.61,15.72,11.95,23.09,18.86,9.24,8.67,22.54,23.31,34.72,18.94,8.39-3.01,15.49-8.45,21.29-15.15l22.87-26.39,39.66-39.86,17.75-22.16,6.95,24.51c1.59,5.59,3.15,10.51,6.25,15.66,6.07-2.03,8.31-10.27,15.46-13.02,6.09-2.34,12.79-1.13,18.55,2.17Z"/>
    <g>
      <path class="cls-3" d="M640.31,1001.53c-5.76-3.31-12.46-4.51-18.55-2.17-7.14,2.75-9.38,10.99-15.46,13.02-3.1-5.15-4.66-10.07-6.25-15.66l-6.95-24.51-17.75,22.16-39.66,39.86-22.87,26.39c-5.8,6.7-12.9,12.14-21.29,15.15-12.18,4.36-25.48-10.27-34.72-18.94-7.36-6.91-14.57-13.25-23.09-18.86-9.57-6.3-19.98-10.68-30.52-15.33-10.75-4.74-24.29-12.8-24.02-24.82l.29-12.85,1.84-13.5c1.08-7.94-1.67-15.24-6.33-21.85-12.23-17.32-22.51-35.38-30.25-55.22-2.11-5.4-1.7-11.25-1.91-17.23l-23.23,3.36-19.45,2.18c-25.61,1.34-50.87-.52-75.62-6.82-14.09-3.59-34.71-12.38-27.84-26.74,7.48-15.62,29.12-28.33,25.11-40.6-2.22-6.79-6.94-11.64-12.08-16.26l-29.15-26.26c-11.01-9.92-20.51-20.66-29.97-32.12-11.49-13.92-20.93-28.86-29.23-44.81l-7.51-18.18c-2.51-6.07-3.21-18.09,1.51-19.74,4.02-1.4,8.21-1.36,12.12.23,4.24,1.73,9.57,4.01,12.44,7.57,4.5,5.6,8.8,9.98,15.17,13.44,8.35,4.53,17.11,7.19,26.52,9.26,19.49,4.28,38.72,4.13,58.27.05,13.04-2.72,26.06-1.95,39.24-.66,2.15.21,4.17.16,6.16-.54l-12.46-10.04c-14.94-13.48-25.11-30.38-29.55-50.06-1.91-8.47-3.28-16.64-3.63-25.43l-1.51-38.51c-.55-14.09-2.3-27.55-4.44-41.46l-1.36-17.58c-.5-6.51.36-13.48,3.74-19.34,3.19-5.51,10.16-8.95,16.67-9.47l35.91-2.87c7.72-.62,15.17-1.94,22.31-4.65l25.46-9.66c12.75-4.84,25.36-8.47,36.35.33,7.95,6.36,12.08,15.1,22.96,24.27,6.74,5.69,19.56,6.35,29.14,8.1,14.46,2.65,27.98,6.9,41.84,11.49,18.56,6.15,26.04,17.88,32.19,37.16,7.62-14.87,14.38-28.3,24.17-40.95,6.35-4.87,13.15-8.44,20.45-12.01,5.96-2.51,12.66-3.84,19.12-1.88,8.39,2.55,15.91,6.84,22.94,12.11l24.27,18.2c7.38,5.54,10.99-1.44,21.74-2.82,19.21-2.46,37.87-1.17,56.99,1.39,50.69,6.78,40.26,21.97,51.47,41.08,3.97,6.77,8.9,12.54,14.86,17.53l12.9,10.79c7.6,6.36,14.05,13.58,18.82,22.26,4.29,7.81,6.19,20.48.71,25-6.3,5.2-12.63,9.89-16.86,17.04-8.01,13.57-11.37,29.27-9.91,45.17,1.01,10.99,3.9,21.41,6.97,32.19,12.3-3.64,23.41-6.84,35.61-8.05,11.67-1.16,22.71-2.24,34.12-5.19l47.2-12.2c7.41-1.92,14.91-2.71,22.32-2.23,7.87.52,13.43,6.3,13.97,13.91.46,6.49,1.08,13.32-.67,19.85l-15.28,57.12c-3.34,12.48-8.06,23.89-13.85,35.39-6.75,13.4-16.57,24.39-27.9,34.05l-9.93,8.45c-4.06,3.46-7.89,8.61-7.68,14.17.27,7.01,7.59,11.99,10.64,18.67-5.71,1.03-10.29,1-15.74.44l-35.79-3.68-24.7-4.32-16.27-4.6-.64,1.71c11.18,13.45,22.76,26.43,30.89,41.97,8.64,16.51,17.91,31.6,29.19,46.46l15.16,19.96,10.66,15.56c3.14,4.59,5.05,9.74,6.53,15.08,1.37,4.94-.59,10.07-4.75,12.78-5.81,3.8-12.02,4.99-19.04,5.42-21.37,1.32-42.28.19-63.62-1.15l-19.23-1.21c-32.15-2.02-59.97-7-88.06-23.12l-20.37-11.69ZM529.45,688.65c6.11.97,11.26-1.55,13.85-6.25s1.51-10.68-2.64-14.73c-2.03-1.98-4.97-4.36-7.96-4.65s-6.72.15-9.44,1.4c-2.87,1.32-5.73,5.06-6.32,8.05-1.59,8.07,4.58,14.92,12.51,16.17ZM480.03,703.09c4.12-4.42,4.24-10.3,1.76-14.98-2.56-4.83-7.78-7.39-13.5-7.24-4.91.13-9.31,2.68-11.39,6.73-2.1,4.09-1.29,9.04,1.39,12.7,6.11,8.32,17.69,7.14,21.73,2.8ZM511.67,700.01l-8.36,51.92,8.04,1.27,8.36-51.92-8.04-1.27ZM592.25,727.87c3.2-5.64.88-11.61-3-15.35-3.19-3.07-6.08-4.16-10.51-4.07-5.46.11-10.67,2.73-12.2,8.1-1.67,5.85.37,11.14,5.21,14.55,6.44,4.54,16.3,4.17,20.5-3.23ZM639.36,743.51c3.91-2.7,4.83-7.38,4.42-11.56-.71-7.09-9.99-13.72-18.98-11.17-6.35,1.8-10.17,8.67-7.93,15.43,2.95,8.92,14.41,12.89,22.5,7.3ZM560.79,781.65l40.02-30c-.52-2.22-2.86-4.9-4.76-4.74l-11.81,8.82-27.17,20.2c-4.67-4.17-8.46-8.71-13.76-11.4l-44.09-7.07-13.13-1.07-8.43-15.37-10.77-19.65c-2.2-.53-5.19.76-5.97,2.95l16.96,31.44-11.19,2.44c-1.56.34-3.22,3.73-2.91,5.31,1.49,7.42,2.95,14.61,6.43,21.04,5.37,9.92,13.46,16.82,23.72,21.01,7.98,3.26,15.66,6.22,24.3,7.43l39.07,5.5c3.44.48,8.65,1.11,11.48-.9s2.58-7.72,1.67-10.73l-4.55-15.15-5.1-10.08ZM582.65,794.79l32.61-24.46,8.65-6.42-5.18-5.03-18.28,13.56-24.02,17.95c.12,1.45.99,3.04,1.85,3.89.75.74,3.29,1.32,4.37.51ZM646.96,788.81c2.46-1.45,4.84-5.02,5.34-7.82,1.06-5.93-2.29-11.58-7.23-14.33-4.43-2.46-9.23-2.86-13.79-.43-3.49,1.86-6.91,6.09-6.67,10.85.28,5.52,3.98,9.83,9.02,12.39,3.87,1.97,9.31,1.7,13.33-.66Z"/>
      <g>
        <path class="cls-1" d="M560.79,781.65l5.1,10.08,4.55,15.15c.9,3.01,1.23,8.67-1.67,10.73s-8.03,1.38-11.48.9l-39.07-5.5c-8.64-1.22-16.32-4.17-24.3-7.43-10.26-4.19-18.34-11.09-23.72-21.01-3.49-6.44-4.94-13.63-6.43-21.04-.32-1.59,1.35-4.97,2.91-5.31l11.19-2.44-16.96-31.44c.79-2.18,3.77-3.47,5.97-2.95l10.77,19.65,8.43,15.37,13.13,1.07,44.09,7.07c5.3,2.69,9.1,7.22,13.76,11.4l27.17-20.2,11.81-8.82c1.9-.16,4.23,2.53,4.76,4.74l-40.02,30Z"/>
        <path class="cls-1" d="M529.45,688.65c-7.94-1.26-14.1-8.1-12.51-16.17.59-2.98,3.45-6.73,6.32-8.05s6.4-1.7,9.44-1.4,5.94,2.67,7.96,4.65c4.14,4.05,5.32,9.86,2.64,14.73s-7.74,7.21-13.85,6.25Z"/>
        <path class="cls-1" d="M646.96,788.81c-4.02,2.36-9.46,2.62-13.33.66-5.04-2.56-8.74-6.87-9.02-12.39-.25-4.76,3.17-8.99,6.67-10.85,4.57-2.44,9.36-2.04,13.79.43,4.94,2.75,8.3,8.4,7.23,14.33-.5,2.8-2.88,6.38-5.34,7.82Z"/>
        <path class="cls-1" d="M639.36,743.51c-8.08,5.59-19.54,1.62-22.5-7.3-2.24-6.76,1.58-13.63,7.93-15.43,8.99-2.55,18.27,4.08,18.98,11.17.42,4.19-.51,8.86-4.42,11.56Z"/>
        <path class="cls-1" d="M480.03,703.09c-4.04,4.34-15.63,5.52-21.73-2.8-2.68-3.65-3.49-8.61-1.39-12.7,2.08-4.05,6.48-6.6,11.39-6.73,5.72-.15,10.94,2.41,13.5,7.24,2.48,4.68,2.36,10.56-1.76,14.98Z"/>
        <path class="cls-1" d="M592.25,727.87c-4.2,7.4-14.06,7.76-20.5,3.23-4.84-3.41-6.88-8.7-5.21-14.55,1.53-5.37,6.74-7.99,12.2-8.1,4.44-.09,7.33,1,10.51,4.07,3.88,3.74,6.2,9.71,3,15.35Z"/>
        <polygon class="cls-1" points="511.67 700.01 519.71 701.28 511.35 753.2 503.31 751.93 511.67 700.01"/>
        <path class="cls-1" d="M582.65,794.79c-1.08.81-3.62.23-4.37-.51-.86-.84-1.73-2.43-1.85-3.89l24.02-17.95,18.28-13.56,5.18,5.03-8.65,6.42-32.61,24.46Z"/>
      </g>
    </g>
  </g>
</svg>