<?xml version="1.0" encoding="UTF-8"?>
<svg id="_레이어_1" data-name="레이어 1" xmlns="http://www.w3.org/2000/svg" viewBox="0 0 1014 1474">
  <defs>
    <style>
      .cls-1 {
        fill: #f7f5f4;
      }

      .cls-2 {
        fill: #fffbf8;
      }

      .cls-3 {
        fill: #e73032;
      }

      .cls-4 {
        fill: #219243;
      }

      .cls-5 {
        fill: #d42b26;
      }
    </style>
  </defs>
  <g>
    <polygon class="cls-1" points="201.4 753.7 202.28 754.42 202.35 1401.7 201.99 1425.26 153.36 1425.25 153.35 1023.96 153.4 900.21 153.56 754.27 154.32 753.47 201.4 753.7"/>
    <polygon class="cls-1" points="201.55 48.39 201.67 130.5 201.77 316 201.81 359.04 201.93 414.91 202.09 642.63 202.12 720.02 201.29 720.92 154.1 721.26 153.54 719.83 153.51 529.9 153.43 499.33 153.6 48.39 201.55 48.39"/>
    <polygon class="cls-1" points="149.14 48.4 149.06 127.16 149.42 414.32 149.67 559.23 149.67 623.25 149.56 720.09 148.39 721.09 101.81 720.92 101.45 710.49 101.51 601.67 101.34 441.1 101.21 411.26 101.08 223.19 101.49 48.4 149.14 48.4"/>
    <polygon class="cls-1" points="148.39 753.63 149.68 754.3 149.26 1425.25 101.62 1425.25 101.7 1388.98 101.65 1360.61 101.53 1245.93 101.51 1239.53 101.52 1164.98 101.39 895.41 101.45 781.99 101.72 753.61 148.39 753.63"/>
    <path class="cls-1" d="M98.4,753.54c.36.79.81,2.23.81,3.57l.07,143.76v149.81s-.03,48.51-.03,48.51l.07,29.07-.04,207.52-.45,89.48h-46.05s0-671.73,0-671.73h45.61Z"/>
    <polygon class="cls-1" points="98.7 48.4 98.53 86.8 98.63 167.48 98.97 450.7 99.08 525.16 98.91 721.11 52.79 720.26 52.79 48.39 98.7 48.4"/>
    <path class="cls-1" d="M252.63,48.39l-.37,39.52.08,25.81.03,125.59.08,113.53-.08,10.29.27,113.47-.13,80.77.07,160.52c0,1.24-.56,2.45-1.09,3.06l-42.59-.09-.66-.85.02-152.48-.02-23.58-.05-9.47-.05-17.13-.14-113.25v-51.85s-.03-75.96-.03-75.96l-.12-88.01.12-42.48.4-97.41h44.29Z"/>
    <polygon class="cls-1" points="251.25 754.3 252.25 755.9 252.1 1425.25 208.04 1425.26 208.04 1088.64 208.01 1075.46 208.09 758.52 208.69 754.2 251.25 754.3"/>
    <polygon class="cls-1" points="302.78 755.43 303.44 756.92 303.58 813.54 303.62 938.52 303.63 1076.29 303.6 1163.68 303.61 1206.08 303.57 1243.19 303.18 1425.26 261.57 1425.25 261.62 1187.24 261.62 929.84 261.66 787.39 262.17 754.86 302.78 755.43"/>
    <path class="cls-1" d="M303.72,48.4l.13,10.52-.2,37.88-.09,22.92-.2,69.99-.25,206.93.08,181.45.07,41.22.5,99.23c-.25.03-.88.68-.94.78l-40.7,1.57-.47-15.79-.11-155.07-.07-55.08-.05-86.58.09-73.66.29-286.3h41.91Z"/>
    <polygon class="cls-1" points="353.33 759.64 354.39 760.52 354.53 897.54 354.47 1122.52 354.51 1134.87 354.45 1199.46 354.26 1425.25 315.33 1425.26 315.7 1311.06 315.72 1270.47 315.84 1114 315.89 770.66 316.21 756.32 316.81 756.3 353.33 759.64"/>
    <polygon class="cls-1" points="354.13 48.39 353.53 50.8 353.56 193.63 353.73 365.04 353.84 507.58 354.43 714.54 353.38 715.3 316.69 718.56 315.94 717.26 315.84 669.8 315.51 549.29 315.35 473.24 315.3 353.79 315.49 280.39 315.44 253.42 315.5 210.44 315.4 171.37 315.47 96.19 315.43 85.36 315.41 71.92 315.87 48.4 354.13 48.39"/>
    <polygon class="cls-1" points="405.43 767.67 406.44 768.98 406.28 864.51 406.3 909.1 406.2 1367.29 406.04 1418.32 406.02 1425.25 371.36 1425.26 371.67 1397.17 371.38 1187.38 371.44 1139.47 371.62 1031.27 371.79 914.3 371.56 769.24 371.86 762.82 372.96 762.24 405.43 767.67"/>
    <polygon class="cls-1" points="405.89 48.39 406.19 495.41 406.36 705.26 405.54 706.03 391.85 709.04 372.47 713.23 371.72 712.28 371.71 623.12 371.79 256.88 371.95 138.54 372.03 48.39 405.89 48.39"/>
    <path class="cls-3" d="M752,48.39l-.13,275.62v181.35s.49,12.82.49,12.82l.21.71c-.66.13-2.03,1.12-2.57,1.66l-14.13,14.16-20.9,18.76c-1.18,1.06-2.1,3.05-3.45,3.26l.22-508.34h40.27Z"/>
    <path class="cls-3" d="M752.53,955.84l-.61,25.15.02,92.09-.32,339.42-.53,12.77h-39.9s-.08-15.15-.08-15.15l.16-109.16.07-51.93.15-157.1.18-12.9-.05-14.91.04-147.81c2.33-.08,1.99,2.83,3.57,4.25l19.5,17.52,9.61,9.19,8.19,8.59Z"/>
    <path class="cls-3" d="M698.23,48.39l-.32,25.75.17,353.37-.03,139.28-28.66,21.12c-4.4,3.24-5.89,6.7-8.18,7.83l.09-547.35h36.92Z"/>
    <path class="cls-3" d="M698.68,906.35l-.45.52-.46,23.69.17,24.81-.09,15.5-.16,100.47v87.7s-.1,35.33-.1,35.33v23.87s-.06,127.66-.06,127.66l-.51,79.35h-36.67s.88-547.46.88-547.46c.93.47,1.92,2.32,2.94,3.09l17.22,13.03,12.72,9.48,4.58,2.96Z"/>
    <path class="cls-3" d="M644.47,48.4l-.25,556.66.69,1.18c-.93.03-2.95.56-3.76,1.08l-27.87,17.94c-2.48,4.5-1.67,10.53-2.36,10.65l-.87.09v-7.7s.67-2.4.67-2.4l.08-61.22-.02-106.81-.21-65.99-.05-135.03-.09-91.42-.18-53.03v-64s34.24,0,34.24,0Z"/>
    <path class="cls-3" d="M644.31,867.91l-.32,35.07-.1,125.98.08,65.49-.02,19.01-.26,197.43-.19,71.31-.25,43.06h-33.58s1.04-341.49,1.04-341.49l.04-202.2-.08-31.87c0-1.56-.56-3.58-1.31-4.48l.59-31.07c.28-.11.37.65.45,1.33l.75,6.19.36,12.51,3.05,13.95c.28,1.3,2.7,2.85,4.1,3.73l25.64,16.07Z"/>
    <path class="cls-3" d="M591.18,835.66l-.38.56-.62,14.41-.27,218.95-.23,129.74-.12,96.21-.73,129.72h-30.9s.38-59.79.38-59.79l.03-29.78.16-276.73.19-77.45-.22-159.86c0-.97-.71-2.84-.89-3.44,1.52,0,2.96,2.82,4.46,3.57l25.99,12.91c.72.36,2.63.78,3.16.99Z"/>
    <polygon class="cls-1" points="455.49 779.94 456.82 780.87 457.03 985.57 456.86 1123.42 456.56 1385.42 455.77 1425.25 427.14 1425.26 427.52 1412.43 427.54 1341.85 427.68 1242.32 427.96 993.75 427.89 926.37 427.91 808.19 427.82 781.18 428.26 773.35 429.19 773.07 455.49 779.94"/>
    <polygon class="cls-3" points="805.76 48.39 805.37 161.26 805.27 228.24 805.28 459.26 805.87 461.23 802.97 463.38 772.8 497.63 764.26 507.24 762.28 509.45 762.41 282.35 762.81 48.39 805.76 48.39"/>
    <path class="cls-3" d="M589.78,48.39l-.08,27.68.16,120.11-.02,12.44.07,218.28.21,206.2.45,5.06-3.23,1.42-23.25,11.68c-.89.45-3.1,1.93-3.32,2.88l-2,8.53c-.08.33-1.09,1.29-1.23.98l.04-8.21c.32-.54.97-1.95.97-2.88l.04-124.18-.06-256.43-.19-18.63.1-161.11.7-43.8h30.64Z"/>
    <polygon class="cls-1" points="456.71 48.39 456.34 50.58 456.12 217.8 456.33 341.28 456.55 525.73 456.79 691.81 456 693.78 432.62 699.97 428.37 700.46 427.91 295.84 428.09 48.39 456.71 48.39"/>
    <path class="cls-3" d="M805.6,1015.14l-.44,8.78v47.84s-.05,200.19-.05,200.19l-.04,136.34-.52,16.96h-42.28s0-36.33,0-36.33l.05-63.88.06-88.1.06-200.18.1-66.6-.57-6.72c.56.16,1.74.86,2.05,1.61,1.68,4.06,3.89,6.63,6.68,9.67l17.31,18.92,13.17,15.11,4.42,6.39Z"/>
    <path class="cls-3" d="M915.4,48.4h47.39s0,1064.92,0,1064.92l-.67.76v68.45s.67,1.38.67,1.38v241.35h-47.95s.2-6.23.2-6.23v-219.05c.41-.23,1.44,1.19,1.61,1.84l5.13,19.75,14.74,49.17c7.42,27.68,12.81,55.17,16.43,83.6l3.25,35.28c.04.4.09,1.32.11,1.32.06,0,.73-.59,1.03-.84l-.65-67.05-.07-94.04v-39.73s.17-43.69.17-43.69l.21-51.86.42-136.38.49-135.03.05-42.47.64-38.97,1.23-9.55.39-21.45-.22-74.61-.41-145.75-.19-51.2-.12-73.96.11-104.12v-51.14s-.16-45.1-.16-45.1l.12-77.34c.05-1.3-.29-1.39-.91-.34l-1.41,11.41c-3.08,24.86-6.4,49.34-12.46,73.75l-19.46,66.5-7.67,23.91c-.38,1.18-1.19,2.91-1.75,3.76l-.29-217.23Z"/>
    <polygon class="cls-3" points="536.28 48.39 536.12 94.9 535.88 290.3 535.72 337.5 536.03 451.81 535.91 663.38 533.08 664.61 510.81 673.94 507.21 675.84 507.34 619.02 507.35 340.17 507.39 48.39 536.28 48.39"/>
    <path class="cls-3" d="M536.53,809.41l-.08.57c-.24.51-.74,2.15-.74,2.88l.07,20.89v36.67s-.12,174.24-.12,174.24l.03,67.63-.16,133.45-.24,114.88-.13,37.11-.08,27.53h-27.95s.19-627.12.19-627.12l29.22,11.28Z"/>
    <path class="cls-3" d="M860.19,48.39l-.52,7.59.06,63,.12,64.63-.23,194.69c0,1.25.56,3.08,1.13,3.65l-.64,3.31c-1,.47-2.03,1.6-2.79,2.72l-29.12,43.39-12.9,17.43-2.15,2.45.05-402.86h46.98Z"/>
    <path class="cls-3" d="M859.94,1089.91l-.35,1.32-.43,40.98.03,104.73-.09,26.96.07,16.81-.05,22.22-.04,57.12-.11,65.2h-46.3s.27-53.73.27-53.73l.02-15.82-.09-94.41.15-32.03.06-170.36v-13.53s-.12-23.4-.12-23.4c.57-.14,1.91.8,2.27,1.58,1.69,3.73,3.98,7.06,6.38,10.5l32.25,46.3,4.17,7.88c.33.62,1.53,1.7,1.91,1.67Z"/>
    <polygon class="cls-1" points="507.39 48.39 507.35 340.17 507.34 619.02 507.21 675.84 506.47 676.21 482.47 684.55 481.48 683.92 481.82 514.23 481.85 48.4 507.39 48.39"/>
    <polygon class="cls-1" points="506.37 797.12 507.31 798.13 507.12 1425.26 481.31 1425.25 481.08 1406.83 481.23 1350.51 481.45 1107.92 481.64 826.43 481.95 789.28 482.93 788.87 506.37 797.12"/>
    <polygon class="cls-3" points="481.85 48.4 481.82 514.23 481.48 683.92 461.24 690.93 456.79 691.81 456.55 525.73 456.33 341.28 456.12 217.8 456.34 50.58 456.71 48.39 481.85 48.4"/>
    <polygon class="cls-3" points="481.95 789.28 481.64 826.43 481.45 1107.92 481.23 1350.51 481.08 1406.83 481.31 1425.25 455.77 1425.25 456.56 1385.42 456.86 1123.42 457.03 985.57 456.82 780.87 471.83 785.65 481.95 789.28"/>
    <polygon class="cls-3" points="428.09 48.39 427.91 295.84 428.37 700.46 406.36 705.26 406.19 495.41 405.89 48.39 428.09 48.39"/>
    <polygon class="cls-3" points="428.26 773.35 427.82 781.18 427.91 808.19 427.89 926.37 427.96 993.75 427.68 1242.32 427.54 1341.85 427.52 1412.43 427.14 1425.26 406.02 1425.25 406.04 1418.32 406.2 1367.29 406.3 909.1 406.28 864.51 406.44 768.98 428.26 773.35"/>
    <path class="cls-1" d="M557.58,818.2c.18.6.89,2.47.89,3.44l.22,159.86-.19,77.45-.16,276.73-.03,29.78-.38,59.79h-22.86s.08-27.53.08-27.53l.13-37.11.24-114.88.16-133.45-.03-67.63.13-174.24v-36.67s-.08-20.89-.08-20.89c0-.73.5-2.37.74-2.88l19.33,8.01,1.81.21Z"/>
    <path class="cls-1" d="M559.14,48.39l-.7,43.8-.1,161.11.19,18.63.06,256.43-.04,124.18c0,.93-.65,2.35-.97,2.88l-20.83,8.38c-.05-.07-.58-.54-.84-.43l.12-211.57-.31-114.31.16-47.2.24-195.4.15-46.5h22.86Z"/>
    <path class="cls-3" d="M261.81,48.39l-.29,286.3-.09,73.66.05,86.58.07,55.08.11,155.07.47,15.79.26,21.98-.22,12-.51,32.53-.05,142.45v257.4s-.05,238.01-.05,238.01h-9.47s.15-669.35.15-669.35l-1-1.6.22-33.34c.53-.6,1.09-1.82,1.09-3.06l-.07-160.52.13-80.77-.27-113.47.08-10.29-.08-113.53-.03-125.59-.08-25.81.37-39.52h9.17Z"/>
    <path class="cls-3" d="M911.05,1191.28l.79,2.56-1.23.92-.15,57.67.1,35.12-.49,137.7h-44.96s.16-327.44.16-327.44c1.49,1.04,1.51,3.75,2.52,5.65l20.34,38.1,18.69,39.19,1.67,7.13c.28,1.2,1.7,3,2.57,3.4Z"/>
    <path class="cls-3" d="M910.36,48.39l-.4,217.66.31,10.19.06,1.39-.52,2.7c-.13,2.34-.38,3.87-2.31,5.23-7.02,18.6-14.68,36.45-23.89,54.04l-16.2,30.92c-.36.7-1.46,1.89-2.05,2.01l.25-324.13h44.73Z"/>
    <polygon class="cls-1" points="610.23 48.39 610.24 112.39 610.41 165.42 610.5 256.84 610.55 391.87 610.77 457.86 610.79 564.68 610.71 625.9 610.05 628.3 591.28 638.1 590.57 638.15 590.12 633.09 589.91 426.89 589.84 208.61 589.86 196.18 589.7 76.07 589.78 48.39 610.23 48.39"/>
    <path class="cls-1" d="M609.38,845.21c.76.91,1.31,2.92,1.31,4.48l.08,31.87-.04,202.2-1.04,341.49h-20.86s.73-129.72.73-129.72l.12-96.21.23-129.74.27-218.95.62-14.41,3.91,1.22,14.66,7.77Z"/>
    <polygon class="cls-3" points="372.03 48.39 371.95 138.54 371.79 256.88 371.71 623.12 371.72 712.28 354.43 714.54 353.84 507.58 353.73 365.04 353.56 193.63 353.53 50.8 354.13 48.39 372.03 48.39"/>
    <polygon class="cls-3" points="371.86 762.82 371.56 769.24 371.79 914.3 371.62 1031.27 371.44 1139.47 371.38 1187.38 371.67 1397.17 371.36 1425.26 354.26 1425.25 354.45 1199.46 354.51 1134.87 354.47 1122.52 354.53 897.54 354.39 760.52 371.86 762.82"/>
    <polygon class="cls-1" points="645.51 867.87 659.43 876.9 661.23 877.8 660.35 1425.26 643.26 1425.25 643.51 1382.19 643.7 1310.88 643.96 1113.46 643.97 1094.44 643.89 1028.96 643.99 902.98 644.31 867.91 645.51 867.87"/>
    <path class="cls-1" d="M661.31,48.4l-.09,547.35c-.11.02-1.06.27-1.28.42l-11.88,7.9c-.99.66-2.37,1.06-3.85.99l.25-556.66h16.84Z"/>
    <polygon class="cls-3" points="315.87 48.4 315.41 71.92 315.43 85.36 315.47 96.19 315.4 171.37 315.5 210.44 315.44 253.42 315.49 280.39 315.3 353.79 315.35 473.24 315.51 549.29 315.84 669.8 315.94 717.26 303.76 718.54 303.26 619.3 303.19 578.08 303.11 396.63 303.36 189.7 303.56 119.71 303.64 96.79 303.85 58.91 303.72 48.4 315.87 48.4"/>
    <polygon class="cls-3" points="316.21 756.32 315.89 770.66 315.84 1114 315.72 1270.47 315.7 1311.06 315.33 1425.26 303.18 1425.26 303.57 1243.19 303.61 1206.08 303.6 1163.68 303.63 1076.29 303.62 938.52 303.58 813.54 303.44 756.92 316.21 756.32"/>
    <polygon class="cls-1" points="711.65 916.3 711.62 1064.11 711.66 1079.02 711.48 1091.92 711.34 1249.01 711.26 1300.95 711.11 1410.11 711.18 1425.25 697.02 1425.25 697.53 1345.9 697.6 1218.24 697.59 1194.37 697.68 1159.04 697.69 1071.34 697.86 970.87 697.95 955.37 697.78 930.56 698.24 906.87 702.51 909.12 711.65 916.3"/>
    <path class="cls-1" d="M711.72,48.39l-.22,508.34-.86,1.29-8.88,7.2c-.76.61-2.18,1.35-2.96,1.6-.16.05-.59-.01-.74-.03l.03-139.28-.17-353.37.32-25.75h13.49Z"/>
    <path class="cls-1" d="M762.81,48.39l-.39,233.96-.13,227.1-.13.8-6.88,6.82c-.5.5-2.27,1.15-2.92,1.11l-.49-12.82v-181.35s.13-275.62.13-275.62h10.81Z"/>
    <path class="cls-1" d="M761.97,963.44l.57,6.72-.1,66.6-.06,200.18-.06,88.1-.05,63.88v36.32s-11.18,0-11.18,0l.53-12.77.32-339.42-.02-92.09.61-25.15.81-.06,4.81,4.59c1.16,1.11,2.42,2.67,3.81,3.07Z"/>
    <polygon class="cls-3" points="208.34 48.39 207.94 145.8 207.83 188.28 207.95 276.29 207.97 352.25 207.97 404.1 208.11 517.35 208.16 534.48 208.21 543.95 208.23 567.54 208.22 720.02 202.12 720.02 202.09 642.63 201.93 414.91 201.81 359.04 201.77 316 201.67 130.5 201.55 48.39 208.34 48.39"/>
    <polygon class="cls-3" points="208.69 754.2 208.09 758.52 208.01 1075.46 208.04 1088.64 208.04 1425.26 201.99 1425.26 202.35 1401.7 202.28 754.42 208.69 754.2"/>
    <path class="cls-3" d="M101.49,48.4l-.41,174.8.14,188.07.12,29.84.17,160.56-.06,108.82.36,10.44-.09,32.68-.28,28.39-.06,113.41.13,269.57v74.56s0,6.4,0,6.4l.11,114.68.05,28.37-.08,36.28h-2.79s.45-89.48.45-89.48l.04-207.52-.07-29.07.04-48.51v-149.81s-.07-143.76-.07-143.76c0-1.34-.46-2.78-.81-3.57l.51-32.42.17-195.95-.11-74.46-.33-283.23-.1-80.68.17-38.4h2.79Z"/>
    <polygon class="cls-1" points="812.16 1020.72 812.96 1021.97 813.08 1045.37 813.08 1058.9 813.03 1229.26 812.87 1261.3 812.96 1355.7 812.94 1371.52 812.68 1425.26 804.55 1425.26 805.07 1408.3 805.11 1271.95 805.16 1071.76 805.16 1023.92 805.6 1015.14 806.57 1015.03 812.16 1020.72"/>
    <path class="cls-1" d="M813.22,48.39l-.05,402.86-.4,1.88-4.56,4.8c-.51.58-1.87,1.4-2.93,1.33l-.02-231.02.1-66.98.39-112.87h7.46Z"/>
    <polygon class="cls-3" points="153.6 48.39 153.43 499.33 153.51 529.9 153.54 719.83 149.56 720.09 149.67 623.25 149.67 559.23 149.42 414.32 149.06 127.16 149.14 48.4 153.6 48.39"/>
    <polygon class="cls-3" points="153.56 754.27 153.4 900.21 153.35 1023.96 153.36 1425.25 149.26 1425.25 149.68 754.3 153.56 754.27"/>
    <path class="cls-1" d="M864.57,1097.08l.69.73-.16,327.44h-6.12s.11-65.2.11-65.2l.04-57.12.05-22.22-.07-16.81.09-26.96-.03-104.73.43-40.98c.52-.14,1.81.69,2.04,1.08l2.93,4.77Z"/>
    <path class="cls-1" d="M865.64,48.39l-.25,324.13-.36,4.53-2.06,2.62c-.49.76-1.56,1.82-2.21,2.29-.57-.57-1.14-2.4-1.13-3.65l.23-194.69-.12-64.63-.06-63,.52-7.59h5.44Z"/>
    <polygon class="cls-4" points="98.91 721.11 98.4 753.54 52.79 753.52 52.79 720.26 98.91 721.11"/>
    <path class="cls-1" d="M915.4,48.4l.29,217.23-.57,3.81-2.3,4.76c-.33.83-1.65,2.05-2.54,2.04l-.31-10.19.4-217.66h5.04Z"/>
    <path class="cls-1" d="M911.84,1193.84c.71.89,1.88,2.5,2.24,3.49l.96,2.64v219.05s-.21,6.23-.21,6.23h-4.77s.49-137.7.49-137.7l-.1-35.12.15-57.67,1.23-.92Z"/>
    <polygon class="cls-1" points="962.79 1183.9 962.11 1182.53 962.11 1114.07 962.79 1113.31 962.79 1183.9"/>
    <polygon class="cls-4" points="201.29 720.92 201.4 753.7 154.32 753.47 154.1 721.26 201.29 720.92"/>
    <polygon class="cls-5" points="208.22 720.02 208.88 720.87 208.69 754.2 202.28 754.42 201.4 753.7 201.29 720.92 202.12 720.02 208.22 720.02"/>
    <polygon class="cls-5" points="153.54 719.83 154.1 721.26 154.32 753.47 153.56 754.27 149.68 754.3 148.39 753.63 148.39 721.09 149.56 720.09 153.54 719.83"/>
    <polygon class="cls-4" points="148.39 721.09 148.39 753.63 101.72 753.61 101.81 720.92 148.39 721.09"/>
    <polygon class="cls-4" points="251.47 720.96 251.25 754.3 208.69 754.2 208.88 720.87 251.47 720.96"/>
    <polygon class="cls-4" points="302.83 719.32 302.78 755.43 262.17 754.86 262.39 742.86 262.13 720.89 302.83 719.32"/>
    <path class="cls-5" d="M315.94,717.26l.75,1.3.12,37.74-.6.02-12.77.59-.65-1.49.04-36.12c.06-.1.69-.75.94-.78l12.18-1.27Z"/>
    <polygon class="cls-4" points="353.38 715.3 353.33 759.64 316.81 756.3 316.69 718.56 353.38 715.3"/>
    <polygon class="cls-5" points="371.72 712.28 372.47 713.23 372.41 758.34 372.96 762.24 371.86 762.82 354.39 760.52 353.33 759.64 353.38 715.3 354.43 714.54 371.72 712.28"/>
    <polygon class="cls-4" points="405.54 706.03 405.43 767.67 372.96 762.24 372.41 758.34 372.47 713.23 391.85 709.04 405.54 706.03"/>
    <polygon class="cls-5" points="428.37 700.46 428.65 767.71 429.19 773.07 428.26 773.35 406.44 768.98 405.43 767.67 405.54 706.03 406.36 705.26 428.37 700.46"/>
    <path class="cls-5" d="M752.56,518.89l.08,21.83v274.72s.03,118.23.03,118.23l.67,22.12-.81.06-8.19-8.59-9.61-9.19-19.5-17.52c-1.58-1.42-1.25-4.33-3.57-4.25l-.65-11.54-.09-153.82-.03-155.83-.22-29.74v-7.35s.85-1.29.85-1.29c1.34-.22,2.27-2.2,3.45-3.26l20.9-18.76,14.13-14.16c.54-.54,1.91-1.54,2.57-1.66Z"/>
    <path class="cls-4" d="M761.97,963.44c-1.4-.41-2.65-1.97-3.81-3.07l-4.81-4.59-.67-22.12-.04-118.23v-274.72s-.07-21.83-.07-21.83l-.21-.71c.65.04,2.42-.6,2.92-1.11l6.88-6.82-.05,26.35v100.62s-.14,292.38-.14,292.38v33.84Z"/>
    <path class="cls-5" d="M698.8,566.83l-.2,306.99.08,32.54-4.58-2.96-12.72-9.48-17.22-13.03c-1.02-.77-2-2.62-2.94-3.09l-1.8-.9.92-1.75-.41-278.99c.21-.14,1.17-.39,1.28-.42,2.29-1.14,3.78-4.59,8.18-7.83l28.66-21.12c.15.02.58.09.74.03Z"/>
    <path class="cls-4" d="M711.65,916.3l-9.14-7.18-4.28-2.25.45-.52-.08-32.54.2-306.99c.78-.26,2.2-.99,2.96-1.6l8.88-7.2v7.35s.23,29.74.23,29.74l.03,155.83.09,153.82.65,11.54Z"/>
    <path class="cls-5" d="M644.9,606.24l-.07,185.64-.07,71.99.74,4-1.2.04-25.64-16.07c-1.4-.88-3.82-2.42-4.1-3.73l-3.05-13.95-.36-12.51-.75-6.19c-.08-.68-.17-1.44-.45-1.33l.07-178.14.87-.09c.69-.12-.12-6.15,2.36-10.65l27.87-17.94c.81-.52,2.83-1.05,3.76-1.08Z"/>
    <path class="cls-4" d="M659.95,596.16l.41,278.99-.92,1.75-13.93-9.03-.74-4,.07-71.99.07-185.64-.69-1.18c1.48.07,2.86-.33,3.85-.99l11.88-7.9Z"/>
    <polygon class="cls-4" points="610.05 628.3 610.05 636 609.97 814.14 609.38 845.21 594.71 837.44 590.8 836.22 591.18 835.66 590.91 831.47 590.93 652.94 591.28 638.1 610.05 628.3"/>
    <path class="cls-5" d="M591.18,835.66c-.53-.21-2.44-.63-3.16-.99l-25.99-12.91c-1.5-.74-2.94-3.56-4.46-3.57l-.04-154.56c.15.31,1.16-.64,1.23-.98l2-8.53c.22-.96,2.43-2.44,3.32-2.88l23.25-11.68,3.23-1.42.71-.06-.35,14.85-.02,178.53.27,4.19Z"/>
    <polygon class="cls-5" points="481.48 683.92 482.47 684.55 482.93 788.87 481.95 789.28 471.83 785.65 456.82 780.87 455.49 779.94 455.75 704.68 456 693.78 456.79 691.81 461.24 690.93 481.48 683.92"/>
    <polygon class="cls-4" points="456 693.78 455.75 704.68 455.49 779.94 429.19 773.07 428.65 767.71 428.37 700.46 432.62 699.97 456 693.78"/>
    <path class="cls-5" d="M806.57,1015.03l-.97.12-4.42-6.39-13.17-15.11-17.31-18.92c-2.79-3.05-5-5.61-6.68-9.67-.31-.75-1.49-1.45-2.05-1.61v-33.84s.12-292.38.12-292.38v-100.62s.07-26.35.07-26.35l.13-.8,1.98-2.21,8.54-9.61,30.17-34.26,2.9-2.15.17,208.98-.12,100.46.11,73.79-.13,165.46.67,5.11Z"/>
    <path class="cls-4" d="M812.16,1020.72l-5.59-5.7-.67-5.11.13-165.46-.11-73.79.12-100.46-.17-208.98-.59-1.96c1.06.07,2.42-.75,2.93-1.33l4.56-4.8-.17,353.58-.44,214.01Z"/>
    <polygon class="cls-4" points="557.58 655.43 557.54 663.64 557.58 818.2 555.77 817.99 536.45 809.98 536.53 809.41 536.75 663.81 557.58 655.43"/>
    <path class="cls-5" d="M915.04,1199.98l-.96-2.64.75-.63v-3.41s.02-55.8.02-55.8l.07-81.94.08-42.55.15-190.1.16-114.74-.33-180.44-.13-239.79.27-18.5.57-3.81c.56-.85,1.37-2.57,1.75-3.76l7.67-23.91,19.46-66.5c6.06-24.42,9.38-48.9,12.46-73.75l1.41-11.41c.63-1.06.96-.97.91.34l-.12,77.34.16,45.1v51.14s-.11,104.12-.11,104.12l.12,73.96.19,51.2.41,145.75.22,74.61-.39,21.45-1.23,9.55-.64,38.97-.05,42.47-.49,135.03-.42,136.38-.21,51.86-.16,43.69v39.73s.06,94.04.06,94.04l.65,67.05c-.3.26-.97.85-1.03.84-.02,0-.07-.92-.11-1.32l-3.25-35.28c-3.62-28.43-9-55.92-16.43-83.6l-14.74-49.17-5.13-19.75c-.17-.65-1.19-2.07-1.6-1.84Z"/>
    <path class="cls-5" d="M535.91,663.38c.26-.11.79.36.84.43l-.22,145.6-29.22-11.28-.93-1.01.03-60.94-.02-43.7.09-16.27.73-.37,3.61-1.91,22.27-9.32,2.83-1.24Z"/>
    <path class="cls-5" d="M859.94,1089.91c-.37.03-1.58-1.05-1.91-1.67l-4.17-7.88-32.25-46.3c-2.4-3.44-4.69-6.77-6.38-10.5-.35-.78-1.7-1.72-2.27-1.58l-.8-1.25.44-214.01.17-353.58.4-1.88,2.15-2.45,12.9-17.43,29.12-43.39c.76-1.13,1.79-2.25,2.79-2.72l.06,128.36.04,121.02-.1,130.31-.1,35.23-.08,289.72Z"/>
    <path class="cls-4" d="M865.03,377.05l.18,215.25.1,264.78-.11,116.37-.14,116.21-.5,7.41-2.93-4.77c-.24-.39-1.52-1.22-2.04-1.08l.35-1.32.08-289.72.1-35.23.1-130.31-.04-121.02-.06-128.36.64-3.31c.66-.47,1.72-1.52,2.21-2.29l2.06-2.62Z"/>
    <polygon class="cls-4" points="506.47 676.21 506.38 692.48 506.4 736.18 506.37 797.12 482.93 788.87 482.47 684.55 506.47 676.21"/>
    <path class="cls-5" d="M911.05,1191.28c-.87-.4-2.29-2.2-2.57-3.4l-1.67-7.13-18.69-39.19-20.34-38.1c-1.01-1.9-1.04-4.61-2.52-5.65l-.69-.73.5-7.41.14-116.21.11-116.37-.1-264.78-.18-215.25.36-4.53c.59-.12,1.68-1.32,2.05-2.01l16.2-30.92c9.21-17.58,16.87-35.44,23.89-54.04,1.92-1.36,2.18-2.89,2.31-5.23l.52-2.7.2,19.71.25,338.7-.03,73.4.27,130.18-.06,56.64.04,196.78-.13,49.87.16,48.37Z"/>
    <path class="cls-4" d="M914.08,1197.33c-.36-.99-1.54-2.61-2.24-3.49l-.79-2.56-.16-48.37.13-49.87-.04-196.78.06-56.64-.27-130.18.03-73.4-.25-338.7-.2-19.71-.06-1.39c.89.02,2.21-1.2,2.54-2.04l2.3-4.76-.27,18.5.13,239.79.33,180.44-.16,114.74-.15,190.1-.08,42.55-.07,81.94-.03,55.8v3.41s-.75.63-.75.63Z"/>
  </g>
  <path class="cls-2" d="M995.39,1473.24h-21.01l-2.17-9.64c-1.58-5.67-8.58-8.02-13.84-7.94-5.1.08-11.63,3.13-12.84,9.04l-2.14,8.55h-23.01c.11-3.29-.08-8.41-2.14-11.5-5.22-7.82-17.13-8.23-23.5-1.54-3.2,3.36-3.6,9.02-4.34,13.04h-22.01l-.92-5.71c-1.41-6.72-5.96-11.1-13.02-11.84-4.63-.48-9.91,1.01-12.6,4.24-3.14,3.77-3.91,9.04-3.45,13.3h-25c1.64-4.68.91-9.77-3.14-13.62-6.73-6.39-19.16-5.31-23.39,3.63l-3.46,10h-21.01l-1.74-8.09c-1.74-6.86-8.71-9.9-15.13-9.49-6.4.4-11.72,5.32-13.29,11.98l-1.83,5.6h-22.01c-.04-3.65-.64-8.45-2.69-11.93-2.63-4.48-8.49-5.9-13.18-5.59-4.25.29-10.31,2.45-11.77,7.38l-3.35,10.14h-22.01l-1.81-9.79c-1.3-5.44-7.7-7.78-12.34-7.76-5.35.02-11.15,1.93-13.79,7.3-1.44,2.93-1.72,7.24-2.06,10.25h-23.6c.82-5.9-.88-12.08-6.14-15.29-4.9-2.99-11.63-3.08-16.69.01-4.96,3.04-6.6,9.59-6.57,15.27h-23.6c.8-5.46-1.22-12.19-6.12-15.29s-11.75-3.09-16.57.05c-4.93,3.21-6.76,9.49-6.71,15.24h-22l-2.01-8.87c-1.26-4.67-6.8-7.88-10.68-8.47-5.13-.77-10.62.16-14.04,4.25-2.99,3.58-3.67,8.87-4.27,13.09h-22.01c-.31-3.31-1.11-7.66-2.67-10.84-2.6-5.29-8.22-6.98-13.32-6.75-4.84.21-11.15,2.05-12.46,7.72l-2.54,9.87h-23.01c.45-3.49,0-8.28-2.03-11.57-3.86-6.26-12.18-7.3-18.42-4.84-6.48,2.56-9.21,9.62-9.53,16.41h-22.01l-2.23-9.55c-1.32-4.57-6.67-7.2-10.45-7.8-5-.79-10.6.29-13.91,4.36-2.95,3.63-3.56,8.78-4.4,12.99h-24.01c1.72-5.13.32-11.57-4.6-14.92-7.58-5.15-19.93-3.01-22.47,6.14l-2.92,8.78h-22.01l-1.01-6.72c-1.71-8.45-10.03-12.34-17.62-10.68s-12.18,9.51-11.36,17.4h-25c1.39-5.06.68-10.97-4.1-14.51-6.52-4.84-17.42-4.31-21.7,3.2-1.93,3.39-2.73,8-4.19,11.31h-22.01l-2.26-10.21c-1.63-5.95-8.2-7.68-13.64-7.33-5.02.32-11.16,2.75-12.58,8.62l-2.51,8.93h-22.01l-1.72-8.1c-2.06-7.89-10.67-10.63-17.57-8.99-7.78,1.85-11.4,9.55-10.7,17.08l-23,.04-.89-7.76c-1.18-6.66-7.83-9.38-14.73-10.49l.15-19.44,6.39-1.94c7.74-2.35,10.89-9.91,9.57-16.95-1.44-7.67-8.69-11.27-16.51-11.68l.27-16.02c.04-2.14,1.63-3.64,3.9-3.91,8.54-1.01,13.21-7.79,12.57-15.84-1.24-15.53-16.89-10.37-16.71-16.74l.47-16.15c9.54-.26,16.52-6.13,16.39-14.63-.14-8.88-6.56-15.3-16.47-14.75l-.24-16.96c-.07-4.66,17.09-1.48,16.74-18.93-.56-7.43-6.35-13.43-14.92-13.19-.69-.49-1.81-2.48-1.8-3.56l.08-14.67c0-.64,2.4-2.01,2.74-2.04,8.69-.22,14.27-6.79,13.94-14.79.03-7.38-5.7-13.44-13.96-13.92-.49-.13-2.71-2.13-2.71-2.96l.13-16.07c4.64-1.35,9.06-1.89,11.98-4.56,6.07-5.55,6.12-15.73.25-21.25-3.04-2.85-7.56-3.59-12.12-4.34l-.43-15.76c-.04-1.58,1.57-3.67,3.29-3.75,9.18-.45,14.17-7.98,13.48-16.14s-7.25-13.06-16.4-12.97l-.24-15.11c-.03-1.71,1.59-4.41,3.31-4.58,9.23-.88,14.2-8,13.32-16.33-.85-7.98-7.15-12.97-16.39-13.05l-.09-19.41c10.02.52,16.07-5.57,16.61-13.9.5-7.84-5.37-14.46-13.75-15.11-1.13-.09-3.17-2.14-3.12-3.33l.69-16.14c7.82-.53,12.5-3.58,14.86-9.31,2.16-5.26,1.74-11.72-2.81-16.27-2.89-2.89-7.48-3.76-12.46-4.76v-19.13c9.93.28,16.46-5.56,16.51-14.03.56-8.33-5.4-14.76-14.61-14.98-.25-.15-2.03-2.24-2.02-2.83l.19-16.29c7.43-.87,12.99-3.57,15.3-9.52,2.17-5.58,1.6-12.52-3.4-16.89-2.81-2.46-7.7-3.16-12.01-3.95l-.1-19.19c9.97.35,16.78-6.2,16.68-15.11-.09-8.93-6.43-14.57-16.56-14.7l.05-19.47c10.83.38,16.7-6.96,16.53-15.8-.17-8.89-7.93-13.93-16.78-13.79l.09-19.17c9.86.2,16.78-6.11,16.7-15.06-.09-9.25-7.52-14.59-16.83-14.73l.15-19.16c9.95.35,17.02-5.86,16.74-15.06-.26-8.55-7.17-14.61-16.83-14.43l.1-19.32c9.16.2,16.79-5.95,16.59-14.35.34-8.63-6.34-14.98-15.65-15.17-.17-.25-1.15-2.24-1.14-2.74l.03-13.75c0-.88,1.25-2.88,1.9-3.3,9.48-.14,15.71-7.36,14.79-15.7-.5-8.45-7.38-13.58-16.61-13.86l.02-16.76c0-.8,1.51-2.64,1.92-2.75,9.29.02,15.68-7.46,14.68-15.63-.33-8.53-7.37-13.46-16.69-13.63l.29-19.05c10.14-.29,16.89-6.37,16.61-15.63-.26-8.3-6.9-14.42-16.68-14.65l.08-19.35c10,.17,15.77-5.31,16.59-13.25.79-7.58-4.6-14.3-12.39-15.3-1.39-.18-4.32-1.77-4.31-3.13l.08-16.6c9.54-.65,15.85-5.75,16.59-13.98s-4.83-14.66-13.04-15.56c-.98-.11-3.54-1.92-3.54-2.93l.12-16.62c9.55-.66,15.73-5.29,16.47-13.87,1.37-15.84-16.49-14.51-16.52-18.53l-.07-12.79c0-2.33,1.49-4.24,3.56-4.47,8.49-.93,13.24-7.29,13.03-14.97-.2-7.23-5.31-12.81-13.48-13.73-1.72-.19-3.2-2.8-3.17-4.58l.27-15.08c9.88-.33,16.64-6.42,16.37-15.49-.25-8.5-6.81-14.19-16.47-14.68v-18.72c7.04-.27,12.39-3.42,14.92-8.76,2.53-5.34,1.98-12.48-2.81-16.77-3.22-2.88-7.49-3.74-12.38-4.86l.42-17.54,10.29-3.76c7.36-5.6,8.22-17.24,1.18-23.23-3.06-2.61-7.14-3.39-11.57-4.76l-.16-17.8c3.82-1.01,8.12-1.52,11.08-3.76,6.3-4.75,7.14-14.55,2.66-20.65-3.22-4.38-8.48-5.33-13.82-6.16l-.09-19.11c7.65.18,13.74-3.31,15.83-9.91,1.8-5.69.82-13.21-5.15-16.69-2.84-1.66-6.36-2.17-10.54-3.04l-.03-16.15c9.25-.85,14.53-6.74,15.22-15.21.98-1.52,4.79-1.24,6.73-1.26l14.5-.19c0,10.52,6.35,17.38,16.02,17.02,8.84-.33,14.64-7.74,14.76-17.25,12.41,1.91,23.06-2.13,23.17,2.73.19,8.58,7.52,15.2,16.05,14.6s14.56-7.44,14.28-16.97h23.58c-.43,9.42,5.76,16.35,14.42,16.75,7.98.37,15.3-5.08,15.58-14.1.13-4.34,7.31-2.21,19.9-2.68.96-.04,3.32.26,3.47,1.12l.54,3.06c1.56,8.78,8.7,13.67,17.02,12.53,7.56-1.03,13.53-7.97,12.72-16.56l20.31-.14c2.46-.02,3.67,1.63,3.89,4.33.72,8.72,9.09,13.57,17.02,12.44s13.16-8.04,12.74-16.73l23.11.03c.38,5.68,2,11.27,5.85,13.89,4.17,2.83,9.16,3.69,13.99,2.2,5.73-1.77,9.52-5.8,9.8-12.16.32-7.23,9.36-2.21,23.27-4.39-.04,9.68,6.27,17.68,15.48,17.31,9.06-.36,15.22-6.58,15.26-16.73l9.37-.06,13.25-.08c.15,6.48,2.08,11.19,6.37,14.3,4.18,3.03,9.8,3.24,14.69,1.27,6.29-2.53,8.95-7.47,9.06-15.1l8.64-.39,14.11-.12c.42,5.19.94,9.52,3.95,12.72,2.31,2.45,7.07,4.2,10.79,4.16,9.45-.1,15.85-7.06,14.94-16.83l15.23.03c2.46,0,5.4.08,7.58.52-.08,9.2,5.18,15.58,13.08,16.3s15.47-3.94,16.41-12.65c.14-1.29.48-2.93.82-3.74s3.05-.5,3.99-.51l15.23-.19c1.22-.02,3.73,1.5,3.73,2.63,0,8.68,6.55,15.03,15.11,14.43,8.01-.14,14.67-6.03,13.89-14.67.3-.65,2.34-2.25,3.24-2.25l17.63.05c.7,0,2.81,1.46,2.99,1.81.02,9.67,6.99,15.39,15.72,15.05,8.37-.19,14.83-7.42,14.34-16.77l20.64-.12c1.75,0,2.69,2.94,2.92,5.2.89,8.75,9.84,12.85,17.41,11.41,7.82-1.5,12.42-8.56,12.4-16.83l20.14.18c1.74.02,2.87,3.07,3.08,5.12.9,8.7,9.77,12.91,17.52,11.54,7.77-1.38,12.48-8.6,12.26-16.71l19.82.05c1.26,0,3.18,2.08,3.23,3.21.42,9.47,8.43,14.84,16.9,13.58,7.97-1.18,13.61-8.46,13.06-16.89l19.86.19c1.26,0,3.29,1.95,3.31,3.07.13,8.11,6.05,13.42,13.78,13.72,8.23.32,15.55-4.9,15.7-13.67.03-1.76,2.29-3.19,3.99-3.21l19.05-.25c.02,8.52,5.02,16.19,13,17.11s16.46-3.52,16.9-12.57c.08-1.74,1.48-4.3,3.12-4.32l20.02-.28c-.11,9.75,6.28,17.6,15.5,17.33,9.24-.27,15.04-7.01,15.03-16.93l14.58.07,7.68.31c.03,9.88,5.6,15.22,15.35,16.28l-.02,16.46c-9.98-.18-16.97,5.8-16.88,14.63.09,8.37,6.42,14.67,16.51,14.56l.28,19.58c-9.98-.32-16.89,6.2-16.74,14.84.16,8.78,6.81,14.98,16.8,14.63l.34,19.5c-10.06-.15-17.06,5.64-17.16,14.86s7.03,14.64,16.94,15.09l.03,18.73c-9.7.12-17.24,6.26-16.93,15.18.3,8.76,6.99,14.75,16.75,14.69l.35,15.57c.02.97-1.59,3.27-2.13,3.73-9.24.11-15.53,7.46-14.85,15.79.77,8.54,6.95,13.62,16.77,13.83l-.09,19.54c-10.03-.36-16.18,5.61-16.9,13.92-.02,8.19,5.77,14.97,15.04,15.21.41.11,2.45,2.56,2.41,3.53l-.72,16.19c-10.15-.19-16.96,6.45-16.71,14.97s7.28,14.81,17.02,14.36l-.04,19.6c-9.92-.51-17.23,5.83-16.98,15.04.23,8.4,7.16,14.53,16.9,14.64l.1,18.42-8.53,2.4c-6.53,1.84-9.3,9.85-8.2,16.09,2.3,13.1,17.02,9.73,16.91,14.81l-.36,16.09c-9.45.37-15.97,5.52-16.79,13.73-.84,8.39,5.07,15.41,13.88,16.25,1.22.12,3.31,2.7,3.28,3.99l-.4,15.53c-10.13-.06-16.17,5.63-16.79,14.16-.57,7.79,5.86,14.47,14,14.98,1.19.07,3.18,2.21,3.18,3.57l-.07,15.93c-7.39.1-12.57,3.06-15.4,8.44s-2.22,12.47,2.69,17.13c3.1,2.95,7.67,3.77,12.59,4.55l.36,18.94c-8,.19-13.63,3.07-16,9.01s-1.83,12.89,3.46,17c3.21,2.49,7.23,3.17,12.09,4.27l.27,18.87c-10.13-.21-16.66,5.51-17.06,14.37s6.25,15.39,16.67,14.93l.04,19.79c-10.43-.55-16.89,6.38-16.66,15.02.22,8.55,7.43,14.61,16.84,14.16l.26,19.7c-10.24-.61-17.5,5.75-17.17,15.11.3,8.43,7.38,14.13,16.97,14.32l-.14,18.87c-4.79,1.04-8.96,1.83-12.02,4.38-5.34,4.46-6.06,11.88-3.19,17.58,2.77,5.51,8.15,8.11,15.34,8.24v19.36c-9.29-.09-16.16,5.09-16.9,13.58-.66,7.61,4.83,14.99,13.29,15.63,1.91.15,4.06,2.58,3.99,4.39l-.64,15.65c-10.52-.53-17.19,6.31-16.71,14.99s6.67,14.42,16.63,13.91l.37,19.82c-9.47-.41-16.37,4.98-16.96,13.46-.54,7.7,4.86,14.91,13.36,15.68,1.27.12,3.77,2.33,3.74,3.57l-.36,15.62c-4.22,1.13-7.9,1.82-10.87,3.67-5.83,3.64-7.13,11.23-4.87,17.04s7.84,9.27,15.77,9.35l.22,19.59c-10.18-.27-17.44,5.96-17,15.25.41,8.57,7.33,14.24,17,14.18l-.19,19.39c-10.34-.39-17.29,6.11-16.88,15.45.37,8.5,7.49,13.99,17.05,14.21l-.18,19.04c-7.72.19-13.06,3.01-15.55,8.54s-1.7,12.72,3.52,16.98c3.06,2.5,7.18,3.22,11.98,4.54l.26,16c.01.8-2.38,2.86-2.83,2.98-8.8.14-14.31,6.83-14.28,14.78,1.77,17.21,17.2,11.59,17.14,17.44l-.14,16.18c-6.73.53-12.17,2.88-15.01,7.76-3.08,5.29-2.83,11.85,1.45,16.77,2.98,3.43,8.12,4.84,12.74,6.26,1.65,5.67,1.46,12.74.42,18.74-9.75-.14-16.73,6.18-16.55,14.91.18,8.36,6.57,15,16.6,14.19.65,6.55.76,13.18.09,19.94-9.68-.18-16.18,5.66-16.66,13.94-.47,8.1,4.92,14.75,13.87,15.39,1.36.1,3.34,2.41,3.3,3.65l-.52,16.64c-10.38-.57-16.89,6.35-16.65,15.08.24,8.58,7.49,14.22,16.93,14.15l-.14,20.06c-12.24,3.22-13.9,6.93-16.4,18.4h-.03ZM962.78,48.39H52.79v1376.87h910V48.39h-.01Z"/>
</svg>