<?xml version="1.0" encoding="UTF-8"?>
<svg id="_레이어_1" data-name="레이어 1" xmlns="http://www.w3.org/2000/svg" viewBox="0 0 1014 1474">
  <defs>
    <style>
      .cls-1 {
        fill: #8ca36b;
      }

      .cls-2 {
        fill: #f8f3ea;
      }

      .cls-3 {
        fill: #326a4a;
      }

      .cls-4 {
        fill: #f0eae1;
      }
    </style>
  </defs>
  <g>
    <path class="cls-3" d="M52,48.5h910v1377H52V48.5ZM740.73,744.9l-24.41,54.44c1.94,1.6,3.66,2.56,5.96,3.38,7.22-20.04,15.5-38.71,24.7-57.59l1.7-.15,8.9-.03-5.83-6.32c1-4.11,3.22-6.59,7.24-8.34l14.93-6.52,22.07,2.65c26.04.82,47.36-12.58,63.58-33.23-33.84-7.56-63.98-.77-86.14,25.86l-14.96,6.77,19.49-39.28,20.14-13.27c25.7,2.1,49.76-6.85,67.36-25.31,6.61-6.94,12.31-13.64,17.02-23.12-24.09-2.54-47.91,3.94-66.47,19.57-8.14,6.86-13.14,15.36-19.34,24-3.2,4.47-9.69,7.36-14.94,10.27l19.73-50.85,18.57-17.63c37.88-3.24,62.99-29.33,75.49-64.9-38.31,5.6-65.75,25.71-77.74,61.63-4.11,3.66-7.23,7.09-12.39,10.14l17.22-56.85c27.18-27.16,34.04-64.65,23.84-101.53-25.65,26.97-38.74,59.15-29.07,94.66,1.07,3.93.96,8.13-.31,12.05l-18.42,56.62-3.86-17.55c3.63-11.08,7.47-22.17,6.86-33.92l-.63-12.11c-3.52-18.79-11.6-36.02-25.35-50.97-12.79,34.55-9.55,70.41,15.25,97.17l4.24,25.7c-6.94,19.47-14.51,37.49-23.45,56.52l-3.48-16.84c10.55-34.7-2.63-66.79-30.63-91.2-4.8,20.05-4.45,40.43,2.74,59.5,4.96,13.15,13.9,23.36,24.11,32.74l4.69,21.39-17.8,34.31-4.15,8.09-20.32-15.25c-4.86-32.2-35.6-51.14-66.64-41.64-13.15,4.03-24.03,11.96-33.48,22.39-7.86,8.68-13.66,18.67-20.8,28.07l-18.54,24.42c-6.47,7-13.45,12.4-22.36,16.38-16.94-8.59-25.75-31.98-28.58-50.26l-7.12-45.82c-7.26-46.76-35.91-86.39-71.14-116.81l-44.59-38.51c-38.84-33.54-74.52-69.41-105.43-110.39l-41.28-54.73c-7.83-10.38-18.29-23.21-28.71-19.73-2.63.88-5.63,4.5-6.65,8.16-7.87,28.38,14,63.16,28.45,88.58-10.51-9.65-20.1-23.88-33.14-26.84-4.44-1.01-8.81,2.09-10.3,6.24-10.3,28.63,18.53,71,36.05,95.06l.25.27-.46.85-1.4-1.26c-11.34-10.19-31.81-24.97-37.01-9.59-4.83,14.29,2.14,33.62,9.65,47.48,6.7,12.37,14.89,23.26,23.94,34.03,2.19,2.61,4,5.54,5.49,8.87l-16.17-4.83c-5.06-1.51-9.92,2.52-10.95,7.52-1.18,5.69-.85,11.7.75,17.45,8.5,30.36,33.42,53.94,57.83,73.86-12.38-4.82-27.77-10.19-30.59,1.79-3.17,13.46,7.42,30.74,16.58,42.47,10.77,12.24,23.28,22.13,37.1,30.68l1.32,2.55c-4.77-.55-9.9-1.1-14.49-.35-5.31.86-7.13,6.62-6.15,11.45,4.6,22.71,32.54,38.1,53.98,45.85-6.34.59-12.74-.5-17.73,2.81-4.2,2.78-3.23,9.01-1.02,13.08,10.98,20.21,36.98,27.6,58.73,31.8-5.49,1.24-12.86,1.47-14.46,7.23-1.5,5.4,3.76,10.63,7.91,13.67,8.7,6.39,18.86,9.56,29.64,11.04,3.87.53,7.57.95,11.64,2.64-27.21,28.3-62.15,44.59-100.26,49.7l-7.18,1.26-12.11.99c-26.65.95-52.19-2.63-78.51-5.64l-32.54-3.73c-11.63-1.33-25.76,1.52-29.54,12.03-5.29,14.7,9.19,29.8,25.29,36.27,2.15.86,4.33,2.81,5.11,4.37l-15.93,4.32c-13.04,3.54-21.94,16.76-16.21,29.38,7.65,16.84,27.5,18.95,46.38,18.09l-14.64,8.86c-2.74,1.66-4.51,3.77-6.43,6.47-5.38,7.56-8.12,16.1-4.07,25.38,2.91,6.67,9.86,12.13,18.73,13.42,14.97,2.18,26.84-4.87,28.1-3.1l1.67,2.35c-10.57,8.68-15.48,30.64-8.15,38.02l6.3,6.35c5.55,5.59,14.56,4.24,21.68,1.8,8.2-2.82,14.33-8.12,22.16-12.73-4.24,11.07-6.15,20.03-2.54,29.85,2.68,7.28,8.63,13.51,16.88,13.95,15.38.82,24.94-15.56,32.82-27.69l26.81-41.28c15.08-20.44,32.06-39.35,53.05-53.41,21.65-14.49,46.05-17.77,71.24-19.92,22.37-1.9,43.46-4.43,65.15-10.13,44.82-11.78,83.97-37.16,111.35-74.65l8.28-12.12,9.09-17.06,8.84-21.94c6.63-19.71,9.9-39.65,13.29-60.25,4.76-28.95,11.17-64.69,34.91-82.22,7.15-5.28,16.57-7.92,24.73-7.62Z"/>
    <path class="cls-1" d="M757.56,744.96l-8.9.03,8.9-.03Z"/>
    <g>
      <g>
        <path class="cls-1" d="M751.73,738.64l-4.57-3.79,4.15-8.09,17.8-34.31-4.69-21.39c-10.21-9.37-19.15-19.59-24.11-32.74-7.19-19.08-7.54-39.45-2.74-59.5,27.99,24.42,41.18,56.5,30.63,91.2l3.48,16.84c8.94-19.03,16.51-37.05,23.45-56.52l-4.24-25.7c-24.8-26.76-28.04-62.61-15.25-97.17,13.75,14.96,21.83,32.18,25.35,50.97l.63,12.11c.61,11.75-3.22,22.83-6.86,33.92l3.86,17.55,18.42-56.62c1.27-3.91,1.38-8.11.31-12.05-9.67-35.51,3.42-67.69,29.07-94.66,10.2,36.88,3.34,74.37-23.84,101.53l-17.22,56.85c5.16-3.05,8.28-6.48,12.39-10.14,11.99-35.92,39.43-56.03,77.74-61.63-12.5,35.57-37.61,61.66-75.49,64.9l-18.57,17.63-19.73,50.85c5.25-2.91,11.74-5.8,14.94-10.27,6.2-8.64,11.2-17.13,19.34-24,18.56-15.64,42.37-22.12,66.47-19.57-4.7,9.48-10.41,16.18-17.02,23.12-17.59,18.46-41.66,27.41-67.36,25.31l-20.14,13.27-19.49,39.28,14.96-6.77c22.16-26.63,52.3-33.42,86.14-25.86-16.22,20.65-37.53,34.04-63.58,33.23l-22.07-2.65-14.93,6.52c-4.02,1.76-6.24,4.24-7.24,8.34ZM805.5,617.5l-.5.5.5.5.5-.5-.5-.5Z"/>
        <path class="cls-1" d="M746.97,745.14c-9.2,18.88-17.48,37.55-24.7,57.59-2.3-.82-4.02-1.78-5.96-3.38l24.41-54.44,6.24.23Z"/>
        <rect class="cls-3" x="805.15" y="617.65" width=".71" height=".71" transform="translate(-201.07 750.58) rotate(-45)"/>
      </g>
      <g>
        <path class="cls-4" d="M747.16,734.84l4.57,3.79,5.83,6.32-8.9.03-1.7.15-6.24-.23c-8.16-.31-17.58,2.34-24.73,7.62-23.74,17.53-30.14,53.27-34.91,82.22-3.39,20.6-6.66,40.54-13.29,60.25l-8.84,21.94-9.09,17.06-8.28,12.12c-27.37,37.49-66.52,62.86-111.35,74.65-21.69,5.7-42.79,8.23-65.15,10.13-25.19,2.14-49.59,5.42-71.24,19.92-20.99,14.05-37.98,32.97-53.05,53.41l-26.81,41.28c-7.88,12.13-17.44,28.51-32.82,27.69-8.25-.44-14.2-6.67-16.88-13.95-3.61-9.82-1.7-18.78,2.54-29.85-7.83,4.61-13.96,9.92-22.16,12.73-7.12,2.44-16.13,3.8-21.68-1.8l-6.3-6.35c-7.33-7.39-2.42-29.34,8.15-38.02l-1.67-2.35c-1.26-1.77-13.13,5.28-28.1,3.1-8.87-1.29-15.82-6.75-18.73-13.42-4.05-9.28-1.31-17.83,4.07-25.38,1.92-2.7,3.69-4.81,6.43-6.47l14.64-8.86c-18.89.86-38.74-1.25-46.38-18.09-5.73-12.61,3.17-25.84,16.21-29.38l15.93-4.32c-.78-1.56-2.96-3.51-5.11-4.37-16.1-6.47-30.58-21.57-25.29-36.27,3.78-10.51,17.91-13.36,29.54-12.03l32.54,3.73c26.31,3.01,51.86,6.6,78.51,5.64l12.11-.99,7.18-1.26c38.11-5.11,73.05-21.4,100.26-49.7-4.08-1.69-7.77-2.11-11.64-2.64-10.78-1.48-20.93-4.65-29.64-11.04-4.15-3.04-9.41-8.28-7.91-13.67,1.61-5.76,8.97-5.99,14.46-7.23-21.75-4.2-47.75-11.59-58.73-31.8-2.21-4.07-3.18-10.31,1.02-13.08,4.99-3.3,11.39-2.21,17.73-2.81-21.44-7.75-49.38-23.14-53.98-45.85-.98-4.84.83-10.59,6.15-11.45,4.59-.74,9.72-.2,14.49.35l-1.32-2.55c-13.82-8.55-26.32-18.43-37.1-30.68-9.16-11.73-19.75-29.02-16.58-42.47,2.82-11.98,18.21-6.61,30.59-1.79-24.42-19.92-49.34-43.5-57.83-73.86-1.61-5.75-1.93-11.76-.75-17.45,1.03-4.99,5.88-9.03,10.95-7.52l16.17,4.83c-1.5-3.33-3.3-6.26-5.49-8.87-9.05-10.78-17.24-21.67-23.94-34.03-7.51-13.86-14.48-33.19-9.65-47.48,5.2-15.38,25.67-.6,37.01,9.59l1.61.14c-17.52-24.06-46.35-66.43-36.05-95.06,1.49-4.15,5.87-7.25,10.3-6.24,13.04,2.96,22.64,17.19,33.14,26.84-14.45-25.43-36.33-60.2-28.45-88.58,1.02-3.66,4.02-7.29,6.65-8.16,10.42-3.48,20.88,9.35,28.71,19.73l41.28,54.73c30.91,40.98,66.6,76.85,105.43,110.39l44.59,38.51c35.23,30.42,63.87,70.06,71.14,116.81l7.12,45.82c2.84,18.28,11.65,41.67,28.58,50.26,8.91-3.98,15.88-9.37,22.36-16.38l18.54-24.42c7.14-9.4,12.94-19.39,20.8-28.07,9.44-10.43,20.32-18.36,33.48-22.39,31.03-9.5,61.78,9.44,66.64,41.64l20.32,15.25ZM252.38,505.27l.46-.85-.46.85ZM679.39,704.04c-5.78,1.75-8.75,7.94-6.39,13.67,1.93,4.67,7.48,8,13.73,5.38,3.82-1.6,6.91-7.76,5.68-12-1.7-5.89-7.44-8.75-13.03-7.06Z"/>
        <path class="cls-3" d="M679.39,704.04c5.59-1.69,11.32,1.16,13.03,7.06,1.23,4.24-1.86,10.4-5.68,12-6.26,2.61-11.81-.71-13.73-5.38-2.36-5.72.61-11.92,6.39-13.67Z"/>
      </g>
    </g>
  </g>
  <g>
    <path class="cls-4" d="M111.5,123.28h18.34c3.66,0,6.79.72,9.39,2.14,2.61,1.43,4.57,3.42,5.91,5.96,1.33,2.54,2,5.47,2,8.77s-.68,6.18-2.03,8.7c-1.35,2.52-3.33,4.5-5.94,5.94-2.61,1.44-5.76,2.16-9.46,2.16h-12.19v-7.56h11c2.17,0,3.97-.39,5.4-1.18,1.43-.79,2.49-1.87,3.18-3.25.69-1.38,1.03-2.99,1.03-4.82s-.34-3.5-1.03-4.87c-.69-1.37-1.75-2.44-3.2-3.2-1.44-.76-3.25-1.14-5.42-1.14h-8.19v43.24h-8.8v-50.91Z"/>
    <path class="cls-4" d="M153.59,123.28h31.85v7.7h-23.05v13.92h21.39v7.63h-21.39v13.96h23.19v7.7h-31.98v-50.91Z"/>
    <path class="cls-4" d="M189.99,174.19l17.26-50.91h10.86l17.26,50.91h-9.41l-13.1-40.5h-.41l-13.1,40.5h-9.38ZM225.56,154.22v7.35h-25.82v-7.35h25.82Z"/>
    <path class="cls-4" d="M269.19,135.27c-1.09-1.45-2.47-2.56-4.13-3.32-1.66-.76-3.48-1.14-5.47-1.14-2.69,0-5.06.7-7.12,2.09-2.06,1.39-3.68,3.44-4.84,6.13-1.16,2.7-1.74,5.93-1.74,9.7s.58,7.07,1.74,9.76c1.16,2.68,2.78,4.72,4.84,6.1,2.06,1.38,4.43,2.07,7.09,2.07,1.96,0,3.76-.37,5.38-1.11,1.62-.74,3-1.81,4.11-3.22,1.12-1.41,1.87-3.08,2.25-5.03l8.9.04c-.45,3.26-1.59,6.22-3.42,8.89s-4.23,4.78-7.21,6.33-6.35,2.32-10.12,2.32c-4.31,0-8.16-1.05-11.56-3.15-3.4-2.1-6.05-5.12-7.97-9.07-1.92-3.95-2.88-8.6-2.88-13.94s.97-10.05,2.91-13.99c1.94-3.94,4.6-6.95,7.97-9.04,3.37-2.09,7.21-3.13,11.52-3.13,3.61,0,6.9.71,9.87,2.13,2.97,1.42,5.39,3.47,7.28,6.15,1.88,2.68,3.09,5.88,3.6,9.58h-8.9c-.32-1.99-1.02-3.71-2.12-5.17Z"/>
    <path class="cls-4" d="M287.1,123.28h31.85v7.7h-23.05v13.92h21.39v7.63h-21.39v13.96h23.19v7.7h-31.98v-50.91Z"/>
  </g>
  <path class="cls-2" d="M995.03,1473.25h-21.01s-2.17-9.64-2.17-9.64c-1.58-5.67-8.58-8.02-13.84-7.94-5.1.08-11.63,3.13-12.84,9.04l-2.14,8.55h-23.01c.11-3.29-.08-8.41-2.14-11.5-5.22-7.82-17.13-8.23-23.5-1.54-3.2,3.36-3.6,9.02-4.34,13.04h-22.01s-.92-5.71-.92-5.71c-1.41-6.72-5.96-11.1-13.02-11.84-4.63-.48-9.91,1.01-12.6,4.24-3.14,3.77-3.91,9.04-3.45,13.3h-25c1.64-4.68.91-9.77-3.14-13.62-6.73-6.39-19.16-5.31-23.39,3.63l-3.46,10h-21.01s-1.74-8.09-1.74-8.09c-1.74-6.86-8.71-9.9-15.13-9.49-6.4.4-11.72,5.32-13.29,11.98l-1.83,5.6h-22.01c-.04-3.65-.64-8.45-2.69-11.93-2.63-4.48-8.49-5.9-13.18-5.59-4.25.29-10.31,2.45-11.77,7.38l-3.35,10.14h-22.01s-1.81-9.79-1.81-9.79c-1.3-5.44-7.7-7.78-12.34-7.76-5.35.02-11.15,1.93-13.79,7.3-1.44,2.93-1.72,7.24-2.06,10.25h-23.6c.82-5.9-.88-12.08-6.14-15.29-4.9-2.99-11.63-3.08-16.69.01-4.96,3.04-6.6,9.59-6.57,15.27h-23.6c.8-5.46-1.22-12.19-6.12-15.29s-11.75-3.09-16.57.05c-4.93,3.21-6.76,9.49-6.71,15.24h-22s-2.01-8.87-2.01-8.87c-1.26-4.67-6.8-7.88-10.68-8.47-5.13-.77-10.62.16-14.04,4.25-2.99,3.58-3.67,8.87-4.27,13.09h-22.01c-.31-3.31-1.11-7.66-2.67-10.84-2.6-5.29-8.22-6.98-13.32-6.75-4.84.21-11.15,2.05-12.46,7.72l-2.54,9.87h-23.01c.45-3.49,0-8.28-2.03-11.57-3.86-6.26-12.18-7.3-18.42-4.84-6.48,2.56-9.21,9.62-9.53,16.41h-22.01s-2.23-9.55-2.23-9.55c-1.32-4.57-6.67-7.2-10.45-7.8-5-.79-10.6.29-13.91,4.36-2.95,3.63-3.56,8.78-4.4,12.99h-24.01c1.72-5.13.32-11.57-4.6-14.92-7.58-5.15-19.93-3.01-22.47,6.14l-2.92,8.78h-22.01s-1.01-6.72-1.01-6.72c-1.71-8.45-10.03-12.34-17.62-10.68s-12.18,9.51-11.36,17.4h-25c1.39-5.06.68-10.97-4.1-14.51-6.52-4.84-17.42-4.31-21.7,3.2-1.93,3.39-2.73,8-4.19,11.31h-22.01s-2.26-10.21-2.26-10.21c-1.63-5.95-8.2-7.68-13.64-7.33-5.02.32-11.16,2.75-12.58,8.62l-2.51,8.93h-22.01s-1.72-8.1-1.72-8.1c-2.06-7.89-10.67-10.63-17.57-8.99-7.78,1.85-11.4,9.55-10.7,17.08l-23,.04-.89-7.76c-1.18-6.66-7.83-9.38-14.73-10.49l.15-19.44,6.39-1.94c7.74-2.35,10.89-9.91,9.57-16.95-1.44-7.67-8.69-11.27-16.51-11.68l.27-16.02c.04-2.14,1.63-3.64,3.9-3.91,8.54-1.01,13.21-7.79,12.57-15.84-1.24-15.53-16.89-10.37-16.71-16.74l.47-16.15c9.54-.26,16.52-6.13,16.39-14.63-.14-8.88-6.56-15.3-16.47-14.75l-.24-16.96c-.07-4.66,17.09-1.48,16.74-18.93-.56-7.43-6.35-13.43-14.92-13.19-.69-.49-1.81-2.48-1.8-3.56l.08-14.67c0-.64,2.4-2.01,2.74-2.04,8.69-.22,14.27-6.79,13.94-14.79.03-7.38-5.7-13.44-13.96-13.92-.49-.13-2.71-2.13-2.71-2.96l.13-16.07c4.64-1.35,9.06-1.89,11.98-4.56,6.07-5.55,6.12-15.73.25-21.25-3.04-2.85-7.56-3.59-12.12-4.34l-.43-15.76c-.04-1.58,1.57-3.67,3.29-3.75,9.18-.45,14.17-7.98,13.48-16.14s-7.25-13.06-16.4-12.97l-.24-15.11c-.03-1.71,1.59-4.41,3.31-4.58,9.23-.88,14.2-8,13.32-16.33-.85-7.98-7.15-12.97-16.39-13.05l-.09-19.41c10.02.52,16.07-5.57,16.61-13.9.5-7.84-5.37-14.46-13.75-15.11-1.13-.09-3.17-2.14-3.12-3.33l.69-16.14c7.82-.53,12.5-3.58,14.86-9.31,2.16-5.26,1.74-11.72-2.81-16.27-2.89-2.89-7.48-3.76-12.46-4.76v-19.13c9.93.28,16.46-5.56,16.51-14.03.56-8.33-5.4-14.76-14.61-14.98-.25-.15-2.03-2.24-2.02-2.83l.19-16.29c7.43-.87,12.99-3.57,15.3-9.52,2.17-5.58,1.6-12.52-3.4-16.89-2.81-2.46-7.7-3.16-12.01-3.95l-.1-19.19c9.97.35,16.78-6.2,16.68-15.11-.09-8.93-6.43-14.57-16.56-14.7l.05-19.47c10.83.38,16.7-6.96,16.53-15.8-.17-8.89-7.93-13.93-16.78-13.79l.09-19.17c9.86.2,16.78-6.11,16.7-15.06-.09-9.25-7.52-14.59-16.83-14.73l.15-19.16c9.95.35,17.02-5.86,16.74-15.06-.26-8.55-7.17-14.61-16.83-14.43l.1-19.32c9.16.2,16.79-5.95,16.59-14.35.34-8.63-6.34-14.98-15.65-15.17-.17-.25-1.15-2.24-1.14-2.74l.03-13.75c0-.88,1.25-2.88,1.9-3.3,9.48-.14,15.71-7.36,14.79-15.7-.5-8.45-7.38-13.58-16.61-13.86l.02-16.76c0-.8,1.51-2.64,1.92-2.75,9.29.02,15.68-7.46,14.68-15.63-.33-8.53-7.37-13.46-16.69-13.63l.29-19.05c10.14-.29,16.89-6.37,16.61-15.63-.26-8.3-6.9-14.42-16.68-14.65l.08-19.35c10,.17,15.77-5.31,16.59-13.25.79-7.58-4.6-14.3-12.39-15.3-1.39-.18-4.32-1.77-4.31-3.13l.08-16.6c9.54-.65,15.85-5.75,16.59-13.98s-4.83-14.66-13.04-15.56c-.98-.11-3.54-1.92-3.54-2.93l.12-16.62c9.55-.66,15.73-5.29,16.47-13.87,1.37-15.84-16.49-14.51-16.52-18.53l-.07-12.79c-.01-2.33,1.49-4.24,3.56-4.47,8.49-.93,13.24-7.29,13.03-14.97-.2-7.23-5.31-12.81-13.48-13.73-1.72-.19-3.2-2.8-3.17-4.58l.27-15.08c9.88-.33,16.64-6.42,16.37-15.49-.25-8.5-6.81-14.19-16.47-14.68v-18.72c7.04-.27,12.39-3.42,14.92-8.76s1.98-12.48-2.81-16.77c-3.22-2.88-7.49-3.74-12.38-4.86l.42-17.54,10.29-3.76c7.36-5.6,8.22-17.24,1.18-23.23-3.06-2.61-7.14-3.39-11.57-4.76l-.16-17.8c3.82-1.01,8.12-1.52,11.08-3.76,6.3-4.75,7.14-14.55,2.66-20.65-3.22-4.38-8.48-5.33-13.82-6.16l-.09-19.11c7.65.18,13.74-3.31,15.83-9.91,1.8-5.69.82-13.21-5.15-16.69-2.84-1.66-6.36-2.17-10.54-3.04l-.03-16.15c9.25-.85,14.53-6.74,15.22-15.21.98-1.52,4.79-1.24,6.73-1.26l14.5-.19c0,10.52,6.35,17.38,16.02,17.02,8.84-.33,14.64-7.74,14.76-17.25,12.41,1.91,23.06-2.13,23.17,2.73.19,8.58,7.52,15.2,16.05,14.6s14.56-7.44,14.28-16.97h23.58c-.43,9.42,5.76,16.35,14.42,16.75,7.98.37,15.3-5.08,15.58-14.1.13-4.34,7.31-2.21,19.9-2.68.96-.04,3.32.26,3.47,1.12l.54,3.06c1.56,8.78,8.7,13.67,17.02,12.53,7.56-1.03,13.53-7.97,12.72-16.56l20.31-.14c2.46-.02,3.67,1.63,3.89,4.33.72,8.72,9.09,13.57,17.02,12.44s13.16-8.04,12.74-16.73l23.11.03c.38,5.68,2,11.27,5.85,13.89,4.17,2.83,9.16,3.69,13.99,2.2,5.73-1.77,9.52-5.8,9.8-12.16.32-7.23,9.36-2.21,23.27-4.39-.04,9.68,6.27,17.68,15.48,17.31,9.06-.36,15.22-6.58,15.26-16.73l9.37-.06,13.25-.08c.15,6.48,2.08,11.19,6.37,14.3,4.18,3.03,9.8,3.24,14.69,1.27,6.29-2.53,8.95-7.47,9.06-15.1l8.64-.39,14.11-.12c.42,5.19.94,9.52,3.95,12.72,2.31,2.45,7.07,4.2,10.79,4.16,9.45-.1,15.85-7.06,14.94-16.83l15.23.03c2.46,0,5.4.08,7.58.52-.08,9.2,5.18,15.58,13.08,16.3s15.47-3.94,16.41-12.65c.14-1.29.48-2.93.82-3.74s3.05-.5,3.99-.51l15.23-.19c1.22-.02,3.73,1.5,3.73,2.63,0,8.68,6.55,15.03,15.11,14.43,8.01-.14,14.67-6.03,13.89-14.67.3-.65,2.34-2.25,3.24-2.25l17.63.05c.7,0,2.81,1.46,2.99,1.81.02,9.67,6.99,15.39,15.72,15.05,8.37-.19,14.83-7.42,14.34-16.77l20.64-.12c1.75-.01,2.69,2.94,2.92,5.2.89,8.75,9.84,12.85,17.41,11.41,7.82-1.5,12.42-8.56,12.4-16.83l20.14.18c1.74.02,2.87,3.07,3.08,5.12.9,8.7,9.77,12.91,17.52,11.54,7.77-1.38,12.48-8.6,12.26-16.71l19.82.05c1.26,0,3.18,2.08,3.23,3.21.42,9.47,8.43,14.84,16.9,13.58,7.97-1.18,13.61-8.46,13.06-16.89l19.86.19c1.26.01,3.29,1.95,3.31,3.07.13,8.11,6.05,13.42,13.78,13.72,8.23.32,15.55-4.9,15.7-13.67.03-1.76,2.29-3.19,3.99-3.21l19.05-.25c.02,8.52,5.02,16.19,13,17.11s16.46-3.52,16.9-12.57c.08-1.74,1.48-4.3,3.12-4.32l20.02-.28c-.11,9.75,6.28,17.6,15.5,17.33,9.24-.27,15.04-7.01,15.03-16.93l14.58.07,7.68.31c.03,9.88,5.6,15.22,15.35,16.28l-.02,16.46c-9.98-.18-16.97,5.8-16.88,14.63.09,8.37,6.42,14.67,16.51,14.56l.28,19.58c-9.98-.32-16.89,6.2-16.74,14.84.16,8.78,6.81,14.98,16.8,14.63l.34,19.5c-10.06-.15-17.06,5.64-17.16,14.86s7.03,14.64,16.94,15.09l.03,18.73c-9.7.12-17.24,6.26-16.93,15.18.3,8.76,6.99,14.75,16.75,14.69l.35,15.57c.02.97-1.59,3.27-2.13,3.73-9.24.11-15.53,7.46-14.85,15.79.77,8.54,6.95,13.62,16.77,13.83l-.09,19.54c-10.03-.36-16.18,5.61-16.9,13.92-.02,8.19,5.77,14.97,15.04,15.21.41.11,2.45,2.56,2.41,3.53l-.72,16.19c-10.15-.19-16.96,6.45-16.71,14.97s7.28,14.81,17.02,14.36l-.04,19.6c-9.92-.51-17.23,5.83-16.98,15.04.23,8.4,7.16,14.53,16.9,14.64l.1,18.42-8.53,2.4c-6.53,1.84-9.3,9.85-8.2,16.09,2.3,13.1,17.02,9.73,16.91,14.81l-.36,16.09c-9.45.37-15.97,5.52-16.79,13.73-.84,8.39,5.07,15.41,13.88,16.25,1.22.12,3.31,2.7,3.28,3.99l-.4,15.53c-10.13-.06-16.17,5.63-16.79,14.16-.57,7.79,5.86,14.47,14,14.98,1.19.07,3.18,2.21,3.18,3.57l-.07,15.93c-7.39.1-12.57,3.06-15.4,8.44s-2.22,12.47,2.69,17.13c3.1,2.95,7.67,3.77,12.59,4.55l.36,18.94c-8,.19-13.63,3.07-16,9.01s-1.83,12.89,3.46,17c3.21,2.49,7.23,3.17,12.09,4.27l.27,18.87c-10.13-.21-16.66,5.51-17.06,14.37s6.25,15.39,16.67,14.93l.04,19.79c-10.43-.55-16.89,6.38-16.66,15.02.22,8.55,7.43,14.61,16.84,14.16l.26,19.7c-10.24-.61-17.5,5.75-17.17,15.11.3,8.43,7.38,14.13,16.97,14.32l-.14,18.87c-4.79,1.04-8.96,1.83-12.02,4.38-5.34,4.46-6.06,11.88-3.19,17.58,2.77,5.51,8.15,8.11,15.34,8.24v19.36c-9.29-.09-16.16,5.09-16.9,13.58-.66,7.61,4.83,14.99,13.29,15.63,1.91.15,4.06,2.58,3.99,4.39l-.64,15.65c-10.52-.53-17.19,6.31-16.71,14.99s6.67,14.42,16.63,13.91l.37,19.82c-9.47-.41-16.37,4.98-16.96,13.46-.54,7.7,4.86,14.91,13.36,15.68,1.27.12,3.77,2.33,3.74,3.57l-.36,15.62c-4.22,1.13-7.9,1.82-10.87,3.67-5.83,3.64-7.13,11.23-4.87,17.04s7.84,9.27,15.77,9.35l.22,19.59c-10.18-.27-17.44,5.96-17,15.25.41,8.57,7.33,14.24,17,14.18l-.19,19.39c-10.34-.39-17.29,6.11-16.88,15.45.37,8.5,7.49,13.99,17.05,14.21l-.18,19.04c-7.72.19-13.06,3.01-15.55,8.54s-1.7,12.72,3.52,16.98c3.06,2.5,7.18,3.22,11.98,4.54l.26,16c.01.8-2.38,2.86-2.83,2.98-8.8.14-14.31,6.83-14.28,14.78,1.77,17.21,17.2,11.59,17.14,17.44l-.14,16.18c-6.73.53-12.17,2.88-15.01,7.76-3.08,5.29-2.83,11.85,1.45,16.77,2.98,3.43,8.12,4.84,12.74,6.26,1.65,5.67,1.46,12.74.42,18.74-9.75-.14-16.73,6.18-16.55,14.91.18,8.36,6.57,15,16.6,14.19.65,6.55.76,13.18.09,19.94-9.68-.18-16.18,5.66-16.66,13.94-.47,8.1,4.92,14.75,13.87,15.39,1.36.1,3.34,2.41,3.3,3.65l-.52,16.64c-10.38-.57-16.89,6.35-16.65,15.08.24,8.58,7.49,14.22,16.93,14.15l-.14,20.06c-12.24,3.22-13.9,6.93-16.4,18.4ZM962.42,48.4H52.43v1376.87h910V48.4Z"/>
</svg>