<?xml version="1.0" encoding="UTF-8"?>
<svg id="_레이어_1" data-name="레이어 1" xmlns="http://www.w3.org/2000/svg" viewBox="0 0 1014 1474">
  <defs>
    <style>
      .cls-1 {
        fill: #f5f2ed;
      }

      .cls-2 {
        fill: #91a180;
      }

      .cls-3 {
        fill: #f8f3ea;
      }
    </style>
  </defs>
  <path class="cls-3" d="M995.03,1473.25h-21.01s-2.17-9.64-2.17-9.64c-1.58-5.67-8.58-8.02-13.84-7.94-5.1.08-11.63,3.13-12.84,9.04l-2.14,8.55h-23.01c.11-3.29-.08-8.41-2.14-11.5-5.22-7.82-17.13-8.23-23.5-1.54-3.2,3.36-3.6,9.02-4.34,13.04h-22.01s-.92-5.71-.92-5.71c-1.41-6.72-5.96-11.1-13.02-11.84-4.63-.48-9.91,1.01-12.6,4.24-3.14,3.77-3.91,9.04-3.45,13.3h-25c1.64-4.68.91-9.77-3.14-13.62-6.73-6.39-19.16-5.31-23.39,3.63l-3.46,10h-21.01s-1.74-8.09-1.74-8.09c-1.74-6.86-8.71-9.9-15.13-9.49-6.4.4-11.72,5.32-13.29,11.98l-1.83,5.6h-22.01c-.04-3.65-.64-8.45-2.69-11.93-2.63-4.48-8.49-5.9-13.18-5.59-4.25.29-10.31,2.45-11.77,7.38l-3.35,10.14h-22.01s-1.81-9.79-1.81-9.79c-1.3-5.44-7.7-7.78-12.34-7.76-5.35.02-11.15,1.93-13.79,7.3-1.44,2.93-1.72,7.24-2.06,10.25h-23.6c.82-5.9-.88-12.08-6.14-15.29-4.9-2.99-11.63-3.08-16.69.01-4.96,3.04-6.6,9.59-6.57,15.27h-23.6c.8-5.46-1.22-12.19-6.12-15.29s-11.75-3.09-16.57.05c-4.93,3.21-6.76,9.49-6.71,15.24h-22s-2.01-8.87-2.01-8.87c-1.26-4.67-6.8-7.88-10.68-8.47-5.13-.77-10.62.16-14.04,4.25-2.99,3.58-3.67,8.87-4.27,13.09h-22.01c-.31-3.31-1.11-7.66-2.67-10.84-2.6-5.29-8.22-6.98-13.32-6.75-4.84.21-11.15,2.05-12.46,7.72l-2.54,9.87h-23.01c.45-3.49,0-8.28-2.03-11.57-3.86-6.26-12.18-7.3-18.42-4.84-6.48,2.56-9.21,9.62-9.53,16.41h-22.01s-2.23-9.55-2.23-9.55c-1.32-4.57-6.67-7.2-10.45-7.8-5-.79-10.6.29-13.91,4.36-2.95,3.63-3.56,8.78-4.4,12.99h-24.01c1.72-5.13.32-11.57-4.6-14.92-7.58-5.15-19.93-3.01-22.47,6.14l-2.92,8.78h-22.01s-1.01-6.72-1.01-6.72c-1.71-8.45-10.03-12.34-17.62-10.68s-12.18,9.51-11.36,17.4h-25c1.39-5.06.68-10.97-4.1-14.51-6.52-4.84-17.42-4.31-21.7,3.2-1.93,3.39-2.73,8-4.19,11.31h-22.01s-2.26-10.21-2.26-10.21c-1.63-5.95-8.2-7.68-13.64-7.33-5.02.32-11.16,2.75-12.58,8.62l-2.51,8.93h-22.01s-1.72-8.1-1.72-8.1c-2.06-7.89-10.67-10.63-17.57-8.99-7.78,1.85-11.4,9.55-10.7,17.08l-23,.04-.89-7.76c-1.18-6.66-7.83-9.38-14.73-10.49l.15-19.44,6.39-1.94c7.74-2.35,10.89-9.91,9.57-16.95-1.44-7.67-8.69-11.27-16.51-11.68l.27-16.02c.04-2.14,1.63-3.64,3.9-3.91,8.54-1.01,13.21-7.79,12.57-15.84-1.24-15.53-16.89-10.37-16.71-16.74l.47-16.15c9.54-.26,16.52-6.13,16.39-14.63-.14-8.88-6.56-15.3-16.47-14.75l-.24-16.96c-.07-4.66,17.09-1.48,16.74-18.93-.56-7.43-6.35-13.43-14.92-13.19-.69-.49-1.81-2.48-1.8-3.56l.08-14.67c0-.64,2.4-2.01,2.74-2.04,8.69-.22,14.27-6.79,13.94-14.79.03-7.38-5.7-13.44-13.96-13.92-.49-.13-2.71-2.13-2.71-2.96l.13-16.07c4.64-1.35,9.06-1.89,11.98-4.56,6.07-5.55,6.12-15.73.25-21.25-3.04-2.85-7.56-3.59-12.12-4.34l-.43-15.76c-.04-1.58,1.57-3.67,3.29-3.75,9.18-.45,14.17-7.98,13.48-16.14s-7.25-13.06-16.4-12.97l-.24-15.11c-.03-1.71,1.59-4.41,3.31-4.58,9.23-.88,14.2-8,13.32-16.33-.85-7.98-7.15-12.97-16.39-13.05l-.09-19.41c10.02.52,16.07-5.57,16.61-13.9.5-7.84-5.37-14.46-13.75-15.11-1.13-.09-3.17-2.14-3.12-3.33l.69-16.14c7.82-.53,12.5-3.58,14.86-9.31,2.16-5.26,1.74-11.72-2.81-16.27-2.89-2.89-7.48-3.76-12.46-4.76v-19.13c9.93.28,16.46-5.56,16.51-14.03.56-8.33-5.4-14.76-14.61-14.98-.25-.15-2.03-2.24-2.02-2.83l.19-16.29c7.43-.87,12.99-3.57,15.3-9.52,2.17-5.58,1.6-12.52-3.4-16.89-2.81-2.46-7.7-3.16-12.01-3.95l-.1-19.19c9.97.35,16.78-6.2,16.68-15.11-.09-8.93-6.43-14.57-16.56-14.7l.05-19.47c10.83.38,16.7-6.96,16.53-15.8-.17-8.89-7.93-13.93-16.78-13.79l.09-19.17c9.86.2,16.78-6.11,16.7-15.06-.09-9.25-7.52-14.59-16.83-14.73l.15-19.16c9.95.35,17.02-5.86,16.74-15.06-.26-8.55-7.17-14.61-16.83-14.43l.1-19.32c9.16.2,16.79-5.95,16.59-14.35.34-8.63-6.34-14.98-15.65-15.17-.17-.25-1.15-2.24-1.14-2.74l.03-13.75c0-.88,1.25-2.88,1.9-3.3,9.48-.14,15.71-7.36,14.79-15.7-.5-8.45-7.38-13.58-16.61-13.86l.02-16.76c0-.8,1.51-2.64,1.92-2.75,9.29.02,15.68-7.46,14.68-15.63-.33-8.53-7.37-13.46-16.69-13.63l.29-19.05c10.14-.29,16.89-6.37,16.61-15.63-.26-8.3-6.9-14.42-16.68-14.65l.08-19.35c10,.17,15.77-5.31,16.59-13.25.79-7.58-4.6-14.3-12.39-15.3-1.39-.18-4.32-1.77-4.31-3.13l.08-16.6c9.54-.65,15.85-5.75,16.59-13.98s-4.83-14.66-13.04-15.56c-.98-.11-3.54-1.92-3.54-2.93l.12-16.62c9.55-.66,15.73-5.29,16.47-13.87,1.37-15.84-16.49-14.51-16.52-18.53l-.07-12.79c-.01-2.33,1.49-4.24,3.56-4.47,8.49-.93,13.24-7.29,13.03-14.97-.2-7.23-5.31-12.81-13.48-13.73-1.72-.19-3.2-2.8-3.17-4.58l.27-15.08c9.88-.33,16.64-6.42,16.37-15.49-.25-8.5-6.81-14.19-16.47-14.68v-18.72c7.04-.27,12.39-3.42,14.92-8.76s1.98-12.48-2.81-16.77c-3.22-2.88-7.49-3.74-12.38-4.86l.42-17.54,10.29-3.76c7.36-5.6,8.22-17.24,1.18-23.23-3.06-2.61-7.14-3.39-11.57-4.76l-.16-17.8c3.82-1.01,8.12-1.52,11.08-3.76,6.3-4.75,7.14-14.55,2.66-20.65-3.22-4.38-8.48-5.33-13.82-6.16l-.09-19.11c7.65.18,13.74-3.31,15.83-9.91,1.8-5.69.82-13.21-5.15-16.69-2.84-1.66-6.36-2.17-10.54-3.04l-.03-16.15c9.25-.85,14.53-6.74,15.22-15.21.98-1.52,4.79-1.24,6.73-1.26l14.5-.19c0,10.52,6.35,17.38,16.02,17.02,8.84-.33,14.64-7.74,14.76-17.25,12.41,1.91,23.06-2.13,23.17,2.73.19,8.58,7.52,15.2,16.05,14.6s14.56-7.44,14.28-16.97h23.58c-.43,9.42,5.76,16.35,14.42,16.75,7.98.37,15.3-5.08,15.58-14.1.13-4.34,7.31-2.21,19.9-2.68.96-.04,3.32.26,3.47,1.12l.54,3.06c1.56,8.78,8.7,13.67,17.02,12.53,7.56-1.03,13.53-7.97,12.72-16.56l20.31-.14c2.46-.02,3.67,1.63,3.89,4.33.72,8.72,9.09,13.57,17.02,12.44s13.16-8.04,12.74-16.73l23.11.03c.38,5.68,2,11.27,5.85,13.89,4.17,2.83,9.16,3.69,13.99,2.2,5.73-1.77,9.52-5.8,9.8-12.16.32-7.23,9.36-2.21,23.27-4.39-.04,9.68,6.27,17.68,15.48,17.31,9.06-.36,15.22-6.58,15.26-16.73l9.37-.06,13.25-.08c.15,6.48,2.08,11.19,6.37,14.3,4.18,3.03,9.8,3.24,14.69,1.27,6.29-2.53,8.95-7.47,9.06-15.1l8.64-.39,14.11-.12c.42,5.19.94,9.52,3.95,12.72,2.31,2.45,7.07,4.2,10.79,4.16,9.45-.1,15.85-7.06,14.94-16.83l15.23.03c2.46,0,5.4.08,7.58.52-.08,9.2,5.18,15.58,13.08,16.3s15.47-3.94,16.41-12.65c.14-1.29.48-2.93.82-3.74s3.05-.5,3.99-.51l15.23-.19c1.22-.02,3.73,1.5,3.73,2.63,0,8.68,6.55,15.03,15.11,14.43,8.01-.14,14.67-6.03,13.89-14.67.3-.65,2.34-2.25,3.24-2.25l17.63.05c.7,0,2.81,1.46,2.99,1.81.02,9.67,6.99,15.39,15.72,15.05,8.37-.19,14.83-7.42,14.34-16.77l20.64-.12c1.75-.01,2.69,2.94,2.92,5.2.89,8.75,9.84,12.85,17.41,11.41,7.82-1.5,12.42-8.56,12.4-16.83l20.14.18c1.74.02,2.87,3.07,3.08,5.12.9,8.7,9.77,12.91,17.52,11.54,7.77-1.38,12.48-8.6,12.26-16.71l19.82.05c1.26,0,3.18,2.08,3.23,3.21.42,9.47,8.43,14.84,16.9,13.58,7.97-1.18,13.61-8.46,13.06-16.89l19.86.19c1.26.01,3.29,1.95,3.31,3.07.13,8.11,6.05,13.42,13.78,13.72,8.23.32,15.55-4.9,15.7-13.67.03-1.76,2.29-3.19,3.99-3.21l19.05-.25c.02,8.52,5.02,16.19,13,17.11s16.46-3.52,16.9-12.57c.08-1.74,1.48-4.3,3.12-4.32l20.02-.28c-.11,9.75,6.28,17.6,15.5,17.33,9.24-.27,15.04-7.01,15.03-16.93l14.58.07,7.68.31c.03,9.88,5.6,15.22,15.35,16.28l-.02,16.46c-9.98-.18-16.97,5.8-16.88,14.63.09,8.37,6.42,14.67,16.51,14.56l.28,19.58c-9.98-.32-16.89,6.2-16.74,14.84.16,8.78,6.81,14.98,16.8,14.63l.34,19.5c-10.06-.15-17.06,5.64-17.16,14.86s7.03,14.64,16.94,15.09l.03,18.73c-9.7.12-17.24,6.26-16.93,15.18.3,8.76,6.99,14.75,16.75,14.69l.35,15.57c.02.97-1.59,3.27-2.13,3.73-9.24.11-15.53,7.46-14.85,15.79.77,8.54,6.95,13.62,16.77,13.83l-.09,19.54c-10.03-.36-16.18,5.61-16.9,13.92-.02,8.19,5.77,14.97,15.04,15.21.41.11,2.45,2.56,2.41,3.53l-.72,16.19c-10.15-.19-16.96,6.45-16.71,14.97s7.28,14.81,17.02,14.36l-.04,19.6c-9.92-.51-17.23,5.83-16.98,15.04.23,8.4,7.16,14.53,16.9,14.64l.1,18.42-8.53,2.4c-6.53,1.84-9.3,9.85-8.2,16.09,2.3,13.1,17.02,9.73,16.91,14.81l-.36,16.09c-9.45.37-15.97,5.52-16.79,13.73-.84,8.39,5.07,15.41,13.88,16.25,1.22.12,3.31,2.7,3.28,3.99l-.4,15.53c-10.13-.06-16.17,5.63-16.79,14.16-.57,7.79,5.86,14.47,14,14.98,1.19.07,3.18,2.21,3.18,3.57l-.07,15.93c-7.39.1-12.57,3.06-15.4,8.44s-2.22,12.47,2.69,17.13c3.1,2.95,7.67,3.77,12.59,4.55l.36,18.94c-8,.19-13.63,3.07-16,9.01s-1.83,12.89,3.46,17c3.21,2.49,7.23,3.17,12.09,4.27l.27,18.87c-10.13-.21-16.66,5.51-17.06,14.37s6.25,15.39,16.67,14.93l.04,19.79c-10.43-.55-16.89,6.38-16.66,15.02.22,8.55,7.43,14.61,16.84,14.16l.26,19.7c-10.24-.61-17.5,5.75-17.17,15.11.3,8.43,7.38,14.13,16.97,14.32l-.14,18.87c-4.79,1.04-8.96,1.83-12.02,4.38-5.34,4.46-6.06,11.88-3.19,17.58,2.77,5.51,8.15,8.11,15.34,8.24v19.36c-9.29-.09-16.16,5.09-16.9,13.58-.66,7.61,4.83,14.99,13.29,15.63,1.91.15,4.06,2.58,3.99,4.39l-.64,15.65c-10.52-.53-17.19,6.31-16.71,14.99s6.67,14.42,16.63,13.91l.37,19.82c-9.47-.41-16.37,4.98-16.96,13.46-.54,7.7,4.86,14.91,13.36,15.68,1.27.12,3.77,2.33,3.74,3.57l-.36,15.62c-4.22,1.13-7.9,1.82-10.87,3.67-5.83,3.64-7.13,11.23-4.87,17.04s7.84,9.27,15.77,9.35l.22,19.59c-10.18-.27-17.44,5.96-17,15.25.41,8.57,7.33,14.24,17,14.18l-.19,19.39c-10.34-.39-17.29,6.11-16.88,15.45.37,8.5,7.49,13.99,17.05,14.21l-.18,19.04c-7.72.19-13.06,3.01-15.55,8.54s-1.7,12.72,3.52,16.98c3.06,2.5,7.18,3.22,11.98,4.54l.26,16c.01.8-2.38,2.86-2.83,2.98-8.8.14-14.31,6.83-14.28,14.78,1.77,17.21,17.2,11.59,17.14,17.44l-.14,16.18c-6.73.53-12.17,2.88-15.01,7.76-3.08,5.29-2.83,11.85,1.45,16.77,2.98,3.43,8.12,4.84,12.74,6.26,1.65,5.67,1.46,12.74.42,18.74-9.75-.14-16.73,6.18-16.55,14.91.18,8.36,6.57,15,16.6,14.19.65,6.55.76,13.18.09,19.94-9.68-.18-16.18,5.66-16.66,13.94-.47,8.1,4.92,14.75,13.87,15.39,1.36.1,3.34,2.41,3.3,3.65l-.52,16.64c-10.38-.57-16.89,6.35-16.65,15.08.24,8.58,7.49,14.22,16.93,14.15l-.14,20.06c-12.24,3.22-13.9,6.93-16.4,18.4ZM962.42,48.4H52.43v1376.87h910V48.4Z"/>
  <g>
    <circle class="cls-2" cx="145.74" cy="1264.95" r="8.95"/>
    <circle class="cls-2" cx="145.77" cy="1312.72" r="8.94"/>
    <circle class="cls-2" cx="145.79" cy="1217.03" r="8.86"/>
    <g>
      <path class="cls-1" d="M52.43,48.5h910v1377H52.43V48.5ZM664.4,1277.03c-43.54-28.6-83.23-60.32-120.63-95.84-44.13-41.91-112.29-109.2-141.37-159.69l-33.31-57.84c-16.54-30.53-30.72-61.25-43.15-93.79-14.72-38.54-28.57-76.43-41.28-115.67-9.02-27.87-16.42-54.95-22.71-83.53-15.92-72.25-13.6-144.99-3.62-217.96,4.62-33.79,10.79-66.31,21.67-98.53,7.78-23.05,18.29-43.83,32.6-63.56,25.78-35.53,55.77-67.39,90.18-94.72,36.62-29.08,77.21-51.02,121.61-65.53,59.24-19.36,126.88-30.47,189.01-25.49l107.9,8.63c45.19,3.62,100.65,19.29,139.49,41.13l-.77-6.68c-39.84-21.57-87.39-34.53-132.47-39.43-38.26-4.16-75.52-7.3-114.07-9.4-38.21-2.08-75.17-.6-112.75,6.15-31.21,5.61-61.2,13.01-91.04,23.85-81.43,29.58-149.89,87.4-200.68,156.84-16.7,22.83-28.8,47.04-36.91,74.08-21.02,70.11-29.55,164.61-25.7,237.54,2.64,49.98,21.38,127.25,38.67,174.48l40.15,109.71c17.7,48.36,74.43,155.47,107.48,191.55l50.15,54.77,57.8,57.24c39.01,36.88,80.58,69.88,125.54,99.31l85.58,52.42,52.58,27.48c49,22.56,101.73,34.03,155.85,33.69l.26-5.21c-64.29,1.34-137.91-19.51-193.24-53.27l-102.81-62.72ZM586.29,1129.17l-67.13-73.34c-32.82-35.85-72.6-96.38-98.01-139.14-19.19-32.29-34.06-65.95-46.79-101.37-18.86-52.48-34.5-105.3-47.26-159.6-6.24-26.54-10.61-52.15-13.16-79.25-2.78-29.57-.64-58.2,6.08-87.18,8.3-35.76,20.05-69.9,34.39-103.59,16.14-37.9,40.44-69.97,72.58-95.71,29.4-23.53,60.82-43.53,94.49-60.49,21.14-10.64,42.32-18.26,65.3-23.9,48.64-11.95,107.27-18.84,156.56-10.26,27.16,4.73,53.13,10.58,79.79,17.18,16.01,3.97,30.6,9.17,45.92,15.19,32.98,12.95,62.94,29.87,91.37,52.18l-.36-7.81c-18.15-12.97-35.61-24.84-55.45-34.7-25.19-12.51-50.47-22.77-77.72-30.05-27.72-7.4-54.76-13.3-83.12-17.77-49.41-7.78-102.24-2.2-151.05,8.45-25.22,5.5-48.47,13.84-71.55,25.42-33.03,16.58-63.66,36.35-92.91,58.83-34.55,26.57-60.81,60.13-77.71,100.39-13.52,32.19-24.47,64.67-33.09,98.62s-10.79,64.14-7.51,97.26c2.41,24.31,6.21,47.19,11.69,71.13,18.56,81.13,54.58,207.38,99.09,275.58l48.16,73.78c13.19,20.21,27.54,38.42,43.79,56.32l63.72,70.22c49.81,53.01,106.22,98.34,169.37,134.38,19.99,11.41,39.96,20.77,61.49,28.52,50.76,18.27,99.72,19.76,152.92,12.89l.14-5.99-44.97,3.66c-68.89,2.01-126.5-18.46-184.85-53.67-53.21-32.1-100.93-70.81-144.21-116.2ZM607.4,1030.08l-48.15-58.46-54.29-69.78c-32.9-43.79-60.52-90.74-81.63-141.34-21.34-51.15-33.65-104.52-37.79-159.63-3.23-42.99,4.1-84.35,21.32-123.69,19.69-44.98,48.17-83.87,85.84-115.46,21.03-17.63,43.13-32.38,69.28-41.87,61.57-22.34,119.98-26.35,184.73-15.82,39.55,6.43,75.99,20.45,110.37,40.77,36.29,21.45,70.08,45.46,103.11,72.07l.31-6.77c-28.19-22.48-56.9-43.74-87.89-62.65-16.53-10.09-32.21-19.49-50.14-27.02-34.71-14.57-71.08-24.51-109.05-27.24-62.54-4.51-146.32,8.69-198.41,45.03-61.51,42.91-101.97,98.14-125.11,169.46-7.9,24.35-10.81,48.25-10.05,73.97,2.17,73.7,20.76,145.32,52.91,211.59,19,39.16,40.92,76.07,67.42,110.48l53.08,68.93,47.95,59.13c27.66,31.45,58.51,59.37,93.74,82.1,80.25,51.76,172.23,67.8,265.47,50.06l-.15-6.6c-21.74,3.73-42.53,7.07-64.94,7.54-74.81,1.56-147.3-21.02-208.66-63.64-29.32-20.36-55.2-44.16-79.29-71.15ZM646.26,947.13l-55.07-58.5c-62.04-65.9-115.17-146.39-130.23-236.84-3.95-23.69-5.59-46.36-3.36-70.11,3.23-34.53,13.8-67.1,33.09-95.89,24.58-36.7,61.67-61.89,101.99-79.17,33.59-14.4,69.44-19.7,105.91-15.68,42.51,4.68,82.03,19.41,117.81,42.56,54.02,34.96,102.67,85.74,143.8,134.83v-8.71c-42.27-49.64-91.47-100.37-147.21-134.66-63.23-38.9-140.5-52.86-211.12-26.85-21.76,8.01-41.52,18.3-60.77,31.06-33.66,22.32-59.25,53.17-74.08,90.85-12.25,31.15-17.05,63.91-14.97,97.48,2.97,48.03,12.42,86.04,33.36,129.23,26.27,54.19,61.61,102.11,102.67,146.07l48.77,52.22,34.44,35.66c23.84,23.18,50.52,42.02,80.66,56.12,68.99,32.28,141.23,26.79,208.28-7.4l.15-8.06c-33.99,16.58-69.36,27.23-106.86,30.63-61.12,3.62-122.43-25.39-167.26-65.25l-40-39.61ZM833.98,953.71c49.46-6.02,75.56-49.56,84.54-96.14,11.29-58.54,11.55-118.24.66-176.87-5.74-30.91-18.61-58.52-37.96-83.13-31.22-39.71-70.13-72.19-114.83-95.88-51.95-27.53-111.93-33.71-165.85-9.13-30.84,14.06-54.66,37.94-67.66,69.24-29.29,70.53,3.21,144.4,44.95,203.41,29.53,41.74,63.97,78.78,102.61,112.18,19.68,17.02,39.18,32.79,60.61,47.36,27.51,18.71,59.47,33.03,92.93,28.96ZM154.65,1217.03c0-4.9-3.97-8.86-8.86-8.86s-8.86,3.97-8.86,8.86,3.97,8.86,8.86,8.86,8.86-3.97,8.86-8.86ZM154.69,1264.95c0-4.94-4.01-8.95-8.95-8.95s-8.95,4.01-8.95,8.95,4.01,8.95,8.95,8.95,8.95-4.01,8.95-8.95ZM154.7,1312.72c0-4.93-4-8.94-8.94-8.94s-8.94,4-8.94,8.94,4,8.94,8.94,8.94,8.94-4,8.94-8.94Z"/>
      <path class="cls-2" d="M664.4,1277.03l102.81,62.72c55.34,33.76,128.96,54.61,193.24,53.27l-.26,5.21c-54.12.34-106.85-11.13-155.85-33.69l-52.58-27.48-85.58-52.42c-44.96-29.43-86.53-62.43-125.54-99.31l-57.8-57.24-50.15-54.77c-33.05-36.09-89.78-143.2-107.48-191.55l-40.15-109.71c-17.28-47.23-36.03-124.5-38.67-174.48-3.85-72.93,4.68-167.43,25.7-237.54,8.11-27.04,20.21-51.25,36.91-74.08,50.8-69.44,119.25-127.26,200.68-156.84,29.84-10.84,59.83-18.24,91.04-23.85,37.59-6.75,74.54-8.24,112.75-6.15,38.55,2.1,75.81,5.25,114.07,9.4,45.08,4.9,92.64,17.86,132.47,39.43l.77,6.68c-38.84-21.84-94.29-37.51-139.49-41.13l-107.9-8.63c-62.13-4.97-129.77,6.13-189.01,25.49-44.4,14.51-84.99,36.45-121.61,65.53-34.41,27.33-64.4,59.2-90.18,94.72-14.31,19.73-24.82,40.51-32.6,63.56-10.88,32.22-17.04,64.74-21.67,98.53-9.98,72.97-12.31,145.71,3.62,217.96,6.3,28.58,13.69,55.66,22.71,83.53,12.71,39.24,26.56,77.13,41.28,115.67,12.43,32.54,26.6,63.26,43.15,93.79l33.31,57.84c29.08,50.49,97.23,117.78,141.37,159.69,37.4,35.51,77.09,67.24,120.63,95.84Z"/>
      <path class="cls-2" d="M586.29,1129.17c43.28,45.39,91.01,84.1,144.21,116.2,58.35,35.2,115.96,55.67,184.85,53.67l44.97-3.66-.14,5.99c-53.19,6.88-102.16,5.39-152.92-12.89-21.53-7.75-41.5-17.12-61.49-28.52-63.15-36.04-119.56-81.38-169.37-134.38l-63.72-70.22c-16.25-17.91-30.61-36.12-43.79-56.32l-48.16-73.78c-44.51-68.2-80.53-194.45-99.09-275.58-5.48-23.93-9.28-46.82-11.69-71.13-3.28-33.12-.67-65.02,7.51-97.26,8.61-33.95,19.57-66.42,33.09-98.62,16.9-40.26,43.16-73.82,77.71-100.39,29.25-22.49,59.88-42.26,92.91-58.83,23.08-11.58,46.33-19.92,71.55-25.42,48.81-10.65,101.65-16.24,151.05-8.45,28.36,4.47,55.41,10.37,83.12,17.77,27.26,7.28,52.54,17.53,77.72,30.05,19.85,9.86,37.3,21.74,55.45,34.7l.36,7.81c-28.43-22.31-58.39-39.23-91.37-52.18-15.33-6.02-29.91-11.22-45.92-15.19-26.66-6.6-52.63-12.45-79.79-17.18-49.29-8.58-107.93-1.69-156.56,10.26-22.98,5.65-44.16,13.26-65.3,23.9-33.67,16.95-65.1,36.96-94.49,60.49-32.14,25.73-56.45,57.8-72.58,95.71-14.34,33.69-26.09,67.83-34.39,103.59-6.72,28.98-8.86,57.61-6.08,87.18,2.55,27.1,6.92,52.71,13.16,79.25,12.76,54.29,28.4,107.12,47.26,159.6,12.73,35.42,27.6,69.08,46.79,101.37,25.41,42.76,65.19,103.28,98.01,139.14l67.13,73.34Z"/>
      <path class="cls-2" d="M607.4,1030.08c24.09,26.99,49.97,50.79,79.29,71.15,61.36,42.62,133.85,65.2,208.66,63.64,22.41-.47,43.2-3.81,64.94-7.54l.15,6.6c-93.23,17.74-185.22,1.7-265.47-50.06-35.24-22.73-66.08-50.65-93.74-82.1l-47.95-59.13-53.08-68.93c-26.5-34.41-48.42-71.32-67.42-110.48-32.15-66.27-50.74-137.89-52.91-211.59-.76-25.72,2.15-49.63,10.05-73.97,23.15-71.32,63.6-126.54,125.11-169.46,52.09-36.34,135.87-49.53,198.41-45.03,37.97,2.74,74.34,12.67,109.05,27.24,17.93,7.52,33.61,16.93,50.14,27.02,30.98,18.91,59.69,40.17,87.89,62.65l-.31,6.77c-33.03-26.61-66.82-50.62-103.11-72.07-34.38-20.32-70.83-34.34-110.37-40.77-64.75-10.53-123.17-6.52-184.73,15.82-26.15,9.49-48.25,24.24-69.28,41.87-37.67,31.59-66.15,70.48-85.84,115.46-17.22,39.34-24.55,80.7-21.32,123.69,4.14,55.1,16.45,108.48,37.79,159.63,21.11,50.6,48.73,97.55,81.63,141.34l54.29,69.78,48.15,58.46Z"/>
      <path class="cls-2" d="M646.26,947.13l40,39.61c44.83,39.86,106.15,68.87,167.26,65.25,37.5-3.4,72.87-14.05,106.86-30.63l-.15,8.06c-67.06,34.19-139.29,39.68-208.28,7.4-30.14-14.1-56.82-32.94-80.66-56.12l-34.44-35.66-48.77-52.22c-41.06-43.96-76.4-91.88-102.67-146.07-20.94-43.19-30.38-81.19-33.36-129.23-2.08-33.57,2.72-66.33,14.97-97.48,14.83-37.69,40.42-68.54,74.08-90.85,19.25-12.77,39.02-23.05,60.77-31.06,70.62-26.01,147.88-12.05,211.12,26.85,55.74,34.29,104.93,85.02,147.22,134.66v8.71c-41.14-49.08-89.8-99.86-143.82-134.83-35.79-23.16-75.3-37.88-117.81-42.56-36.47-4.02-72.32,1.28-105.91,15.68-40.32,17.28-77.41,42.47-101.99,79.17-19.29,28.8-29.86,61.37-33.09,95.89-2.22,23.75-.58,46.42,3.36,70.11,15.06,90.45,68.19,170.93,130.23,236.84l55.07,58.5Z"/>
      <path class="cls-2" d="M833.98,953.71c-33.46,4.07-65.42-10.26-92.93-28.96-21.43-14.57-40.93-30.35-60.61-47.36-38.63-33.41-73.08-70.44-102.61-112.18-41.74-59-74.24-132.88-44.95-203.41,13-31.29,36.82-55.18,67.66-69.24,53.92-24.58,113.9-18.4,165.85,9.13,44.7,23.69,83.62,56.17,114.83,95.88,19.35,24.61,32.22,52.22,37.96,83.13,10.88,58.63,10.63,118.33-.66,176.87-8.99,46.58-35.08,90.13-84.54,96.14ZM815.43,948.91c27.79,2.35,54.22-9.28,71.37-31,20.72-26.26,27.81-61.4,31.58-94.72,5.12-45.2,4.16-90.41-3-135.37-5.48-34.37-19.65-65.03-41.47-91.92-33.86-41.73-77.01-74.95-126.26-96.59-52.19-22.93-111.41-24.01-160.33,6.02-21.27,13.06-37.57,31.49-48,54.12-21.44,46.51-14.03,95.62,6.79,141.26,12.48,27.33,27.78,52.19,46.02,76.1,19.1,25.03,39.25,48.2,61.98,70.03,26.72,25.65,54.7,48.71,84.94,69.95,22.07,15.5,49.48,29.85,76.38,32.13Z"/>
      <path class="cls-1" d="M815.43,948.91c-26.9-2.28-54.3-16.62-76.38-32.13-30.24-21.24-58.23-44.3-84.94-69.95-22.73-21.83-42.88-45-61.98-70.03-18.24-23.91-33.54-48.77-46.02-76.1-20.83-45.63-28.23-94.75-6.79-141.26,10.43-22.63,26.73-41.06,48-54.12,48.92-30.03,108.14-28.95,160.33-6.02,49.25,21.64,92.4,54.86,126.26,96.59,21.82,26.89,35.99,57.55,41.47,91.92,7.17,44.96,8.12,90.17,3,135.37-3.77,33.32-10.86,68.47-31.58,94.72-17.15,21.73-43.58,33.35-71.37,31ZM825.87,830.83c25.52-30.63,24.89-90.57,16.02-129.01-7.94-34.45-25.66-65.36-51.84-88.87-18.45-16.56-39.93-27.23-63.6-34.26-23.61-7.01-47.87-10.75-71.93-7.09-37.47,5.71-62.62,37.54-60.05,75,1,14.56,4.83,27.71,10.98,41.15,11.21,24.54,25.49,46.96,43.2,67.63,24.59,28.68,52.36,54.01,83.66,74.96,30.45,20.38,68.24,30.86,93.55.49Z"/>
      <path class="cls-2" d="M825.87,830.83c-25.31,30.37-63.1,19.89-93.55-.49-31.31-20.95-59.08-46.28-83.66-74.96-17.71-20.66-31.99-43.08-43.2-67.63-6.14-13.44-9.98-26.59-10.98-41.15-2.57-37.47,22.58-69.29,60.05-75,24.06-3.66,48.32.07,71.93,7.09,23.67,7.03,45.15,17.71,63.6,34.26,26.18,23.5,43.9,54.42,51.84,88.87,8.86,38.44,9.5,98.38-16.02,129.01ZM823.93,824.93c18.13-25.4,20.65-64.22,17.61-95.44-5.59-57.3-35.9-109.63-88.32-134.92-25.05-12.08-51.8-19.16-79.67-20.1-17.8-.6-34.46,3.2-48.82,13.38-16.34,11.58-25.74,29.95-27.04,50.06-.98,15.2,2.39,29.68,8.43,43.94,24.14,57.01,71,106.34,121.89,141.02,10.97,7.48,22.02,13.63,34.51,17.67,22.36,7.24,47.7,3.59,61.41-15.61Z"/>
      <path class="cls-1" d="M823.93,824.93c-13.71,19.2-39.05,22.84-61.41,15.61-12.49-4.04-23.54-10.19-34.51-17.67-50.89-34.68-97.75-84.01-121.89-141.02-6.04-14.26-9.41-28.74-8.43-43.94,1.3-20.11,10.7-38.48,27.04-50.06,14.36-10.18,31.02-13.98,48.82-13.38,27.87.94,54.62,8.02,79.67,20.1,52.42,25.29,82.73,77.62,88.32,134.92,3.05,31.23.53,70.05-17.61,95.44ZM771.44,744.38c6.26-10.85,7.55-24,4.25-36.75-8.8-34-41.14-57.4-76.17-56.22-18.47.62-32.57,14.6-33.35,32.55-1.08,24.79,20.45,49.95,41.15,63.59,22.28,14.68,50.37,20.67,64.13-3.17Z"/>
      <path class="cls-2" d="M771.44,744.38c-13.76,23.84-41.84,17.85-64.13,3.17-20.69-13.64-42.22-38.8-41.15-63.59.78-17.95,14.87-31.93,33.35-32.55,35.04-1.17,67.37,22.23,76.17,56.22,3.3,12.75,2.01,25.89-4.25,36.75ZM731.69,754.69c19.03,6.08,36.23-4.85,39.92-23.37,1.54-7.73,1.85-14.52-.5-22.44-9.18-30.9-37.71-52.68-69.95-53.09-16.7-.21-29.53,10.85-31.21,27.71-.83,8.37,2.15,17.31,6.39,25.13,11.77,21.73,31.51,38.44,55.35,46.05Z"/>
      <path class="cls-1" d="M731.69,754.69c-23.84-7.61-43.58-24.32-55.35-46.05-4.23-7.82-7.22-16.76-6.39-25.13,1.68-16.87,14.51-27.93,31.21-27.71,32.24.41,60.77,22.18,69.95,53.09,2.35,7.91,2.04,14.71.5,22.44-3.7,18.51-20.89,29.45-39.92,23.37Z"/>
    </g>
  </g>
</svg>