<?xml version="1.0" encoding="UTF-8"?>
<svg id="_레이어_1" data-name="레이어 1" xmlns="http://www.w3.org/2000/svg" viewBox="0 0 1014 1474">
  <defs>
    <style>
      .cls-1 {
        fill: #f5efea;
      }

      .cls-2 {
        fill: #fffbf8;
      }

      .cls-3 {
        fill: #98b8a1;
      }
    </style>
  </defs>
  <path class="cls-2" d="M995.39,1473.24h-21.01l-2.17-9.64c-1.58-5.67-8.58-8.02-13.84-7.94-5.1.08-11.63,3.13-12.84,9.04l-2.14,8.55h-23.01c.11-3.29-.08-8.41-2.14-11.5-5.22-7.82-17.13-8.23-23.5-1.54-3.2,3.36-3.6,9.02-4.34,13.04h-22.01l-.92-5.71c-1.41-6.72-5.96-11.1-13.02-11.84-4.63-.48-9.91,1.01-12.6,4.24-3.14,3.77-3.91,9.04-3.45,13.3h-25c1.64-4.68.91-9.77-3.14-13.62-6.73-6.39-19.16-5.31-23.39,3.63l-3.46,10h-21.01l-1.74-8.09c-1.74-6.86-8.71-9.9-15.13-9.49-6.4.4-11.72,5.32-13.29,11.98l-1.83,5.6h-22.01c-.04-3.65-.64-8.45-2.69-11.93-2.63-4.48-8.49-5.9-13.18-5.59-4.25.29-10.31,2.45-11.77,7.38l-3.35,10.14h-22.01l-1.81-9.79c-1.3-5.44-7.7-7.78-12.34-7.76-5.35.02-11.15,1.93-13.79,7.3-1.44,2.93-1.72,7.24-2.06,10.25h-23.6c.82-5.9-.88-12.08-6.14-15.29-4.9-2.99-11.63-3.08-16.69.01-4.96,3.04-6.6,9.59-6.57,15.27h-23.6c.8-5.46-1.22-12.19-6.12-15.29s-11.75-3.09-16.57.05c-4.93,3.21-6.76,9.49-6.71,15.24h-22l-2.01-8.87c-1.26-4.67-6.8-7.88-10.68-8.47-5.13-.77-10.62.16-14.04,4.25-2.99,3.58-3.67,8.87-4.27,13.09h-22.01c-.31-3.31-1.11-7.66-2.67-10.84-2.6-5.29-8.22-6.98-13.32-6.75-4.84.21-11.15,2.05-12.46,7.72l-2.54,9.87h-23.01c.45-3.49,0-8.28-2.03-11.57-3.86-6.26-12.18-7.3-18.42-4.84-6.48,2.56-9.21,9.62-9.53,16.41h-22.01l-2.23-9.55c-1.32-4.57-6.67-7.2-10.45-7.8-5-.79-10.6.29-13.91,4.36-2.95,3.63-3.56,8.78-4.4,12.99h-24.01c1.72-5.13.32-11.57-4.6-14.92-7.58-5.15-19.93-3.01-22.47,6.14l-2.92,8.78h-22.01l-1.01-6.72c-1.71-8.45-10.03-12.34-17.62-10.68s-12.18,9.51-11.36,17.4h-25c1.39-5.06.68-10.97-4.1-14.51-6.52-4.84-17.42-4.31-21.7,3.2-1.93,3.39-2.73,8-4.19,11.31h-22.01l-2.26-10.21c-1.63-5.95-8.2-7.68-13.64-7.33-5.02.32-11.16,2.75-12.58,8.62l-2.51,8.93h-22.01l-1.72-8.1c-2.06-7.89-10.67-10.63-17.57-8.99-7.78,1.85-11.4,9.55-10.7,17.08l-23,.04-.89-7.76c-1.18-6.66-7.83-9.38-14.73-10.49l.15-19.44,6.39-1.94c7.74-2.35,10.89-9.91,9.57-16.95-1.44-7.67-8.69-11.27-16.51-11.68l.27-16.02c.04-2.14,1.63-3.64,3.9-3.91,8.54-1.01,13.21-7.79,12.57-15.84-1.24-15.53-16.89-10.37-16.71-16.74l.47-16.15c9.54-.26,16.52-6.13,16.39-14.63-.14-8.88-6.56-15.3-16.47-14.75l-.24-16.96c-.07-4.66,17.09-1.48,16.74-18.93-.56-7.43-6.35-13.43-14.92-13.19-.69-.49-1.81-2.48-1.8-3.56l.08-14.67c0-.64,2.4-2.01,2.74-2.04,8.69-.22,14.27-6.79,13.94-14.79.03-7.38-5.7-13.44-13.96-13.92-.49-.13-2.71-2.13-2.71-2.96l.13-16.07c4.64-1.35,9.06-1.89,11.98-4.56,6.07-5.55,6.12-15.73.25-21.25-3.04-2.85-7.56-3.59-12.12-4.34l-.43-15.76c-.04-1.58,1.57-3.67,3.29-3.75,9.18-.45,14.17-7.98,13.48-16.14s-7.25-13.06-16.4-12.97l-.24-15.11c-.03-1.71,1.59-4.41,3.31-4.58,9.23-.88,14.2-8,13.32-16.33-.85-7.98-7.15-12.97-16.39-13.05l-.09-19.41c10.02.52,16.07-5.57,16.61-13.9.5-7.84-5.37-14.46-13.75-15.11-1.13-.09-3.17-2.14-3.12-3.33l.69-16.14c7.82-.53,12.5-3.58,14.86-9.31,2.16-5.26,1.74-11.72-2.81-16.27-2.89-2.89-7.48-3.76-12.46-4.76v-19.13c9.93.28,16.46-5.56,16.51-14.03.56-8.33-5.4-14.76-14.61-14.98-.25-.15-2.03-2.24-2.02-2.83l.19-16.29c7.43-.87,12.99-3.57,15.3-9.52,2.17-5.58,1.6-12.52-3.4-16.89-2.81-2.46-7.7-3.16-12.01-3.95l-.1-19.19c9.97.35,16.78-6.2,16.68-15.11-.09-8.93-6.43-14.57-16.56-14.7l.05-19.47c10.83.38,16.7-6.96,16.53-15.8-.17-8.89-7.93-13.93-16.78-13.79l.09-19.17c9.86.2,16.78-6.11,16.7-15.06-.09-9.25-7.52-14.59-16.83-14.73l.15-19.16c9.95.35,17.02-5.86,16.74-15.06-.26-8.55-7.17-14.61-16.83-14.43l.1-19.32c9.16.2,16.79-5.95,16.59-14.35.34-8.63-6.34-14.98-15.65-15.17-.17-.25-1.15-2.24-1.14-2.74l.03-13.75c0-.88,1.25-2.88,1.9-3.3,9.48-.14,15.71-7.36,14.79-15.7-.5-8.45-7.38-13.58-16.61-13.86l.02-16.76c0-.8,1.51-2.64,1.92-2.75,9.29.02,15.68-7.46,14.68-15.63-.33-8.53-7.37-13.46-16.69-13.63l.29-19.05c10.14-.29,16.89-6.37,16.61-15.63-.26-8.3-6.9-14.42-16.68-14.65l.08-19.35c10,.17,15.77-5.31,16.59-13.25.79-7.58-4.6-14.3-12.39-15.3-1.39-.18-4.32-1.77-4.31-3.13l.08-16.6c9.54-.65,15.85-5.75,16.59-13.98s-4.83-14.66-13.04-15.56c-.98-.11-3.54-1.92-3.54-2.93l.12-16.62c9.55-.66,15.73-5.29,16.47-13.87,1.37-15.84-16.49-14.51-16.52-18.53l-.07-12.79c0-2.33,1.49-4.24,3.56-4.47,8.49-.93,13.24-7.29,13.03-14.97-.2-7.23-5.31-12.81-13.48-13.73-1.72-.19-3.2-2.8-3.17-4.58l.27-15.08c9.88-.33,16.64-6.42,16.37-15.49-.25-8.5-6.81-14.19-16.47-14.68v-18.72c7.04-.27,12.39-3.42,14.92-8.76,2.53-5.34,1.98-12.48-2.81-16.77-3.22-2.88-7.49-3.74-12.38-4.86l.42-17.54,10.29-3.76c7.36-5.6,8.22-17.24,1.18-23.23-3.06-2.61-7.14-3.39-11.57-4.76l-.16-17.8c3.82-1.01,8.12-1.52,11.08-3.76,6.3-4.75,7.14-14.55,2.66-20.65-3.22-4.38-8.48-5.33-13.82-6.16l-.09-19.11c7.65.18,13.74-3.31,15.83-9.91,1.8-5.69.82-13.21-5.15-16.69-2.84-1.66-6.36-2.17-10.54-3.04l-.03-16.15c9.25-.85,14.53-6.74,15.22-15.21.98-1.52,4.79-1.24,6.73-1.26l14.5-.19c0,10.52,6.35,17.38,16.02,17.02,8.84-.33,14.64-7.74,14.76-17.25,12.41,1.91,23.06-2.13,23.17,2.73.19,8.58,7.52,15.2,16.05,14.6s14.56-7.44,14.28-16.97h23.58c-.43,9.42,5.76,16.35,14.42,16.75,7.98.37,15.3-5.08,15.58-14.1.13-4.34,7.31-2.21,19.9-2.68.96-.04,3.32.26,3.47,1.12l.54,3.06c1.56,8.78,8.7,13.67,17.02,12.53,7.56-1.03,13.53-7.97,12.72-16.56l20.31-.14c2.46-.02,3.67,1.63,3.89,4.33.72,8.72,9.09,13.57,17.02,12.44s13.16-8.04,12.74-16.73l23.11.03c.38,5.68,2,11.27,5.85,13.89,4.17,2.83,9.16,3.69,13.99,2.2,5.73-1.77,9.52-5.8,9.8-12.16.32-7.23,9.36-2.21,23.27-4.39-.04,9.68,6.27,17.68,15.48,17.31,9.06-.36,15.22-6.58,15.26-16.73l9.37-.06,13.25-.08c.15,6.48,2.08,11.19,6.37,14.3,4.18,3.03,9.8,3.24,14.69,1.27,6.29-2.53,8.95-7.47,9.06-15.1l8.64-.39,14.11-.12c.42,5.19.94,9.52,3.95,12.72,2.31,2.45,7.07,4.2,10.79,4.16,9.45-.1,15.85-7.06,14.94-16.83l15.23.03c2.46,0,5.4.08,7.58.52-.08,9.2,5.18,15.58,13.08,16.3s15.47-3.94,16.41-12.65c.14-1.29.48-2.93.82-3.74s3.05-.5,3.99-.51l15.23-.19c1.22-.02,3.73,1.5,3.73,2.63,0,8.68,6.55,15.03,15.11,14.43,8.01-.14,14.67-6.03,13.89-14.67.3-.65,2.34-2.25,3.24-2.25l17.63.05c.7,0,2.81,1.46,2.99,1.81.02,9.67,6.99,15.39,15.72,15.05,8.37-.19,14.83-7.42,14.34-16.77l20.64-.12c1.75,0,2.69,2.94,2.92,5.2.89,8.75,9.84,12.85,17.41,11.41,7.82-1.5,12.42-8.56,12.4-16.83l20.14.18c1.74.02,2.87,3.07,3.08,5.12.9,8.7,9.77,12.91,17.52,11.54,7.77-1.38,12.48-8.6,12.26-16.71l19.82.05c1.26,0,3.18,2.08,3.23,3.21.42,9.47,8.43,14.84,16.9,13.58,7.97-1.18,13.61-8.46,13.06-16.89l19.86.19c1.26,0,3.29,1.95,3.31,3.07.13,8.11,6.05,13.42,13.78,13.72,8.23.32,15.55-4.9,15.7-13.67.03-1.76,2.29-3.19,3.99-3.21l19.05-.25c.02,8.52,5.02,16.19,13,17.11s16.46-3.52,16.9-12.57c.08-1.74,1.48-4.3,3.12-4.32l20.02-.28c-.11,9.75,6.28,17.6,15.5,17.33,9.24-.27,15.04-7.01,15.03-16.93l14.58.07,7.68.31c.03,9.88,5.6,15.22,15.35,16.28l-.02,16.46c-9.98-.18-16.97,5.8-16.88,14.63.09,8.37,6.42,14.67,16.51,14.56l.28,19.58c-9.98-.32-16.89,6.2-16.74,14.84.16,8.78,6.81,14.98,16.8,14.63l.34,19.5c-10.06-.15-17.06,5.64-17.16,14.86s7.03,14.64,16.94,15.09l.03,18.73c-9.7.12-17.24,6.26-16.93,15.18.3,8.76,6.99,14.75,16.75,14.69l.35,15.57c.02.97-1.59,3.27-2.13,3.73-9.24.11-15.53,7.46-14.85,15.79.77,8.54,6.95,13.62,16.77,13.83l-.09,19.54c-10.03-.36-16.18,5.61-16.9,13.92-.02,8.19,5.77,14.97,15.04,15.21.41.11,2.45,2.56,2.41,3.53l-.72,16.19c-10.15-.19-16.96,6.45-16.71,14.97s7.28,14.81,17.02,14.36l-.04,19.6c-9.92-.51-17.23,5.83-16.98,15.04.23,8.4,7.16,14.53,16.9,14.64l.1,18.42-8.53,2.4c-6.53,1.84-9.3,9.85-8.2,16.09,2.3,13.1,17.02,9.73,16.91,14.81l-.36,16.09c-9.45.37-15.97,5.52-16.79,13.73-.84,8.39,5.07,15.41,13.88,16.25,1.22.12,3.31,2.7,3.28,3.99l-.4,15.53c-10.13-.06-16.17,5.63-16.79,14.16-.57,7.79,5.86,14.47,14,14.98,1.19.07,3.18,2.21,3.18,3.57l-.07,15.93c-7.39.1-12.57,3.06-15.4,8.44s-2.22,12.47,2.69,17.13c3.1,2.95,7.67,3.77,12.59,4.55l.36,18.94c-8,.19-13.63,3.07-16,9.01s-1.83,12.89,3.46,17c3.21,2.49,7.23,3.17,12.09,4.27l.27,18.87c-10.13-.21-16.66,5.51-17.06,14.37s6.25,15.39,16.67,14.93l.04,19.79c-10.43-.55-16.89,6.38-16.66,15.02.22,8.55,7.43,14.61,16.84,14.16l.26,19.7c-10.24-.61-17.5,5.75-17.17,15.11.3,8.43,7.38,14.13,16.97,14.32l-.14,18.87c-4.79,1.04-8.96,1.83-12.02,4.38-5.34,4.46-6.06,11.88-3.19,17.58,2.77,5.51,8.15,8.11,15.34,8.24v19.36c-9.29-.09-16.16,5.09-16.9,13.58-.66,7.61,4.83,14.99,13.29,15.63,1.91.15,4.06,2.58,3.99,4.39l-.64,15.65c-10.52-.53-17.19,6.31-16.71,14.99s6.67,14.42,16.63,13.91l.37,19.82c-9.47-.41-16.37,4.98-16.96,13.46-.54,7.7,4.86,14.91,13.36,15.68,1.27.12,3.77,2.33,3.74,3.57l-.36,15.62c-4.22,1.13-7.9,1.82-10.87,3.67-5.83,3.64-7.13,11.23-4.87,17.04s7.84,9.27,15.77,9.35l.22,19.59c-10.18-.27-17.44,5.96-17,15.25.41,8.57,7.33,14.24,17,14.18l-.19,19.39c-10.34-.39-17.29,6.11-16.88,15.45.37,8.5,7.49,13.99,17.05,14.21l-.18,19.04c-7.72.19-13.06,3.01-15.55,8.54s-1.7,12.72,3.52,16.98c3.06,2.5,7.18,3.22,11.98,4.54l.26,16c.01.8-2.38,2.86-2.83,2.98-8.8.14-14.31,6.83-14.28,14.78,1.77,17.21,17.2,11.59,17.14,17.44l-.14,16.18c-6.73.53-12.17,2.88-15.01,7.76-3.08,5.29-2.83,11.85,1.45,16.77,2.98,3.43,8.12,4.84,12.74,6.26,1.65,5.67,1.46,12.74.42,18.74-9.75-.14-16.73,6.18-16.55,14.91.18,8.36,6.57,15,16.6,14.19.65,6.55.76,13.18.09,19.94-9.68-.18-16.18,5.66-16.66,13.94-.47,8.1,4.92,14.75,13.87,15.39,1.36.1,3.34,2.41,3.3,3.65l-.52,16.64c-10.38-.57-16.89,6.35-16.65,15.08.24,8.58,7.49,14.22,16.93,14.15l-.14,20.06c-12.24,3.22-13.9,6.93-16.4,18.4h-.03ZM962.78,48.39H52.79v1376.87h910V48.39h-.01Z"/>
  <g>
    <path class="cls-1" d="M52.79,1425.26V48.39h910v1376.87H52.79ZM668.35,829.21l-4.34-10.69c-2.53-6.22-8.96-10.1-15.49-7.39-5.21,2.16-8.02,8.79-5.14,14.15,9.39,17.49,9.8,37.86-1.06,54.83-4.47,6.98-8.95,13.52-15.55,18.89-3.6,2.92-14.02-2.29-19.35.84-2.52,1.48-4.6,5.64-5.62,8.27l2.14,7.94-21.37,10.61-20.5,8.38-20.66,6.92c-.47-.23-1.47-.74-1.3-1.05l.59-1.12,13.95-26.29,8.95-17.37,18.38-38.6c1.28-2.68,2.8-4.3,5.41-5.6,4.93-2.45,6.77-8.32,4.7-13.37-.87-2.12-.34-4.11.53-6.13l11.07-25.9,8.67-22.56,28.27-4.52,17.16-2.94,35.58-6.72,33.8-7.8,18.32-5.24c7.54-2.16,14.73-4.83,21.49-8.72,3.31-1.91,5.07-4.82,5.46-8.37.69-6.19-7.97-13.2-14.19-10.41-13.88,6.22-27.69,10.51-42.64,13.92-31.03,7.43-61.92,12.93-93.39,17.88-.36-.21-1.42-1.25-1.29-1.56l2.2-5.45,11.79-34.58,2.37-5.11,35.95-20.64,28.15-16.04,18.81-10.73c5.52-3.14,6.15-9.9,2.78-14.99-2.3-3.48-10.55-4.77-11.74-4.1l-9.56,5.34-53.09,30.03-1.95.58c-.28.08-.32-1.13-.29-1.39l9.31-32.98,12.06-48.48,4.54-19.09c.99-4.18.48-9.05-2.53-12.42s-7.89-4.27-11.95-2.54-5.97,5.02-6.99,9.69l-9.07,41.38-4.36,15.06-8.66,32.27-7.7,26.61-9.03,27.27-5.41-25.61c-6.47-30.62-15.91-60.09-26.37-89.58-1.63-4.6-3.62-8.79-8.45-10.52-1.76-.63-5.82-.68-7.69.13-5.52,2.36-7.06,8.87-4.92,14.62,10.87,29.21,19.72,58.61,26.47,89.11,4.21,19,7.04,37.51,7.6,56.9.19,6.61-.37,12.71-1.54,19.02-.44,4.08-1.41,7.81-2.9,11.49l-13.11,32.26-33.52-42.56c-3.42-4.34-6.33-8.81-10.8-12.15-3.55-2.65-9.39-1.45-12.4,1.5-2.48,2.42-4.86,8.49-2.23,11.87l49.5,63.42-20.4,43.96-13.35,26.27-8.4,15.79-9.21,17.09c-.44.82-2.92,2.36-3.26,1.35-7.31-22.2-13.47-43.87-18.17-66.7-10.06-48.88-13.37-91.66-14.69-141.34-.07-2.56.37-6.29,1.14-8.16,2.17-5.24.96-8.84-.65-13.61-1.15-3.41-.31-8.48-.16-12.19l1.5-36.01,4.72-56.49,2.07-18.52,31.21-13.06,38.96-16.12c3.22-1.33,6.01-3.66,7.04-7.04,1.15-3.74-.54-7.99-3.38-10.29s-6.96-3.25-10.72-1.73l-27.22,11.03-31.86,13.1,1.67-17.9,3.03-17.73c6.02-25.78,28.49-53.38,46.51-73.15,12.09-13.27,23.95-25.96,37.36-37.94l28.04-25.04c3.09-2.76,5.91-5.85,5.48-10.53-.22-2.44-2.61-6.25-4.69-7.61-5.37-3.51-10.31-.74-14.65,2.95-26.06,22.19-50.41,45.67-73.1,71.21l-7.88,9.72c-.77.94-2.76,2.45-3.67,3.11-1.6-3.83,1.49-6.32,2.11-9.17l4.14-18.85c8.84-40.2,20.34-79.26,33.4-118.3,1.44-4.3-2.01-8.74-5.63-10.98-3.14-1.95-9.63-.97-12.12,2.25s-3.54,7.63-4.77,11.44l-5.62,17.46-16.58,58.43-5.44,20.13-.96.92c-.19.19-.91-.52-1.05-.82l-2.29-4.87-12.82-22.88-18.99-34.04-2.92-2.63c-3.63-3.27-11.44-1.55-14.26,3.39-1.93,3.37-1.87,6.66.16,10.34l45.41,81.92-6.88,32.79-3.26,16.17c-21.31-18.01-41.16-35.12-60.75-53.71-9.74-9.24-18.51-18.52-27.28-28.56l-11.1-14.88c-2.7-3.62-7.2-3.67-10.71-1.84-2.99,1.56-5.54,4.16-6.11,6.97-.68,3.39.27,6.58,2.14,9.33,6.97,10.26,14.76,19.4,23.65,28.13l24.04,23.6,6.34,5.89,55.29,47.75-2.82,17.73-1.8,11.62-3.14,26.42-2.83,2.67c-4.75,4.48-5.5,11.13-.19,15.67l-1.7,19.53c-3.04,26.27-4.59,52.06-5.36,78.59-.05.54-.71,1.23-1.31,1.41-9.56-10.11-18.12-20.26-25.5-31.81l-14.57-22.81c4.09-2.9,6.96-5.92,6.94-10.72-.01-3.07-2.33-6.74-5.09-8l-11.64-5.35c-2.58-9.11-4.4-18.18-4.01-27.51.81-19.34,10.59-36.37,26.65-46.69,3.31-2.12,5.58-6.64,4.65-10.34-.84-3.36-3.49-5.86-6.07-7.97-3.26-.55-6.67-.46-9.62,1.28-15.34,9.05-25.61,23.01-32.29,40.63l-48.7-50.66c-4.12-4.29-10.63-4.43-14.56-.63-4.22,4.07-4.36,10.31-.16,14.68l47.63,49.67,9.87,10.46c1.74,1.84,2.19,4.8,2.34,7.22l.57,9.25-7.46-2.57-14.95-6.57-19.49-8.22c-3.52-1.49-6.66-3.89-10.94-3.36-3.19.4-7.79,3.85-8.58,6.82-2.01,7.53,3.3,11.88,9.22,14.41l59.22,25.33,8.43,18.04c7.31,14.05,15.52,27.23,25.88,39.16l23.76,27.37,8.49,8.98c1.01,1.07.89,4.68.93,6.08l.37,29.92c1.55,35.75,5,70.75,11.33,106.07l13.69,59.57,15.11,43.97-4.52,7.33c-16.29,26.38-34.2,51.08-53.81,75.17l-23.03,26.73-9.17,9.72-21.83,21.77-7.14,6.46-35.1,28.61c-2.95,2.41-5.96,5.46-5.43,9.55.63,4.83,4.67,9.92,9.81,10.52,3.55.42,7.4-2.06,10.08-4.19l22.14-17.59c16.11-13.85,31.72-27.57,45.92-43.38l17.21-19.16,13.2-15.8c20.25-24.23,37.93-49.93,55.02-76.48l11.9-18.49,30.74-8.89,25.13-9.18c18.09-6.61,34.84-15.42,50.21-27.03,2.1-1.58,4.09-1.41,6.35-.68,4.86,1.57,9.94,1.04,15.07,1.67l52.97,6.55c4.45.55,9.08-3.85,9.74-7.85,1.29-7.78-4.86-12.38-11.72-13.25l-32.78-4.15-17.21-2.73,1.75-2.43,6.45-9.25,17.59-4.49,39.11-10.53,29.6-8.13c6.18-1.7,8.47-9.93,4.8-15.15-1.63-2.31-5.83-5.4-8.78-4.71l-17.57,4.11-25.83,6.86-29.53,7.53c2.14-13.49,2.11-25.63-1.89-38.07ZM929.57,1375.25c-.47,0-.28,2.07.17,1.96l1.48-.39c.45-.12.57-1.57.09-1.57h-1.74Z"/>
    <path class="cls-3" d="M668.35,829.21c4,12.44,4.04,24.58,1.89,38.07l29.53-7.53,25.83-6.86,17.57-4.11c2.95-.69,7.16,2.4,8.78,4.71,3.67,5.21,1.38,13.45-4.8,15.15l-29.6,8.13-39.11,10.53-17.59,4.49-6.45,9.25-1.75,2.43,17.21,2.73,32.78,4.15c6.86.87,13.01,5.47,11.72,13.25-.66,4-5.29,8.4-9.74,7.85l-52.97-6.55c-5.13-.63-10.22-.1-15.07-1.67-2.27-.73-4.26-.9-6.35.68-15.36,11.61-32.12,20.43-50.21,27.03l-25.13,9.18-30.74,8.89-11.9,18.49c-17.09,26.55-34.77,52.25-55.02,76.48l-13.2,15.8-17.21,19.16c-14.2,15.81-29.81,29.53-45.92,43.38l-22.14,17.59c-2.68,2.13-6.53,4.6-10.08,4.19-5.15-.61-9.18-5.69-9.81-10.52-.53-4.09,2.48-7.14,5.43-9.55l35.1-28.61,7.14-6.46,21.83-21.77,9.17-9.72,23.03-26.73c19.61-24.09,37.52-48.79,53.81-75.17l4.52-7.33-15.11-43.97-13.69-59.57c-6.33-35.32-9.78-70.32-11.33-106.07l-.37-29.92c-.04-1.4.08-5.01-.93-6.08l-8.49-8.98-23.76-27.37c-10.36-11.93-18.57-25.11-25.88-39.16l-8.43-18.04-59.22-25.33c-5.92-2.53-11.23-6.89-9.22-14.41.79-2.97,5.39-6.42,8.58-6.82,4.28-.53,7.42,1.87,10.94,3.36l19.49,8.22,14.95,6.57,7.46,2.57-.57-9.25c-.15-2.42-.6-5.37-2.34-7.22l-9.87-10.46-47.63-49.67c-4.2-4.38-4.05-10.61.16-14.68,3.93-3.8,10.44-3.65,14.56.63l48.7,50.66c6.68-17.63,16.95-31.58,32.29-40.63,2.95-1.74,6.36-1.83,9.62-1.28,2.58,2.11,5.22,4.61,6.07,7.97.93,3.7-1.34,8.22-4.65,10.34-16.06,10.32-25.84,27.35-26.65,46.69-.39,9.33,1.43,18.39,4.01,27.51l11.64,5.35c2.76,1.27,5.08,4.93,5.09,8,.02,4.81-2.85,7.83-6.94,10.72l14.57,22.81c7.38,11.56,15.94,21.7,25.5,31.81.6-.18,1.26-.87,1.31-1.41.77-26.53,2.31-52.33,5.36-78.59l1.7-19.53c-5.31-4.54-4.56-11.18.19-15.67l2.83-2.67,3.14-26.42,1.8-11.62,2.82-17.73-55.29-47.75-6.34-5.89-24.04-23.6c-8.89-8.73-16.68-17.87-23.65-28.13-1.87-2.75-2.82-5.94-2.14-9.33.57-2.82,3.12-5.41,6.11-6.97,3.51-1.83,8.01-1.78,10.71,1.84l11.1,14.88c8.77,10.04,17.54,19.32,27.28,28.56,19.59,18.59,39.44,35.7,60.75,53.71l3.26-16.17,6.88-32.79-45.41-81.92c-2.04-3.67-2.09-6.96-.16-10.34,2.83-4.94,10.64-6.65,14.26-3.39l2.92,2.63,18.99,34.04,12.82,22.88,2.29,4.87c.14.3.86,1.01,1.05.82l.96-.92,5.44-20.13,16.58-58.43,5.62-17.46c1.23-3.81,2.25-8.19,4.77-11.44s8.98-4.2,12.12-2.25c3.61,2.24,7.07,6.68,5.63,10.98-13.07,39.04-24.57,78.1-33.4,118.3l-4.14,18.85c-.63,2.84-3.72,5.34-2.11,9.17.91-.65,2.91-2.16,3.67-3.11l7.88-9.72c22.69-25.53,47.03-49.02,73.1-71.21,4.34-3.69,9.28-6.46,14.65-2.95,2.08,1.36,4.47,5.17,4.69,7.61.43,4.68-2.4,7.77-5.48,10.53l-28.04,25.04c-13.41,11.98-25.27,24.67-37.36,37.94-18.02,19.78-40.49,47.37-46.51,73.15l-3.03,17.73-1.67,17.9,31.86-13.1,27.22-11.03c3.76-1.52,7.9-.55,10.72,1.73s4.53,6.55,3.38,10.29c-1.04,3.38-3.82,5.7-7.04,7.04l-38.96,16.12-31.21,13.06-2.07,18.52-4.72,56.49-1.5,36.01c-.15,3.71-1,8.77.16,12.19,1.61,4.77,2.82,8.37.65,13.61-.77,1.87-1.21,5.6-1.14,8.16,1.32,49.68,4.63,92.46,14.69,141.34,4.7,22.83,10.86,44.5,18.17,66.7.33,1.02,2.82-.53,3.26-1.35l9.21-17.09,8.4-15.79,13.35-26.27,20.4-43.96-49.5-63.42c-2.63-3.37-.25-9.44,2.23-11.87,3.01-2.95,8.85-4.15,12.4-1.5,4.47,3.34,7.38,7.81,10.8,12.15l33.52,42.56,13.11-32.26c1.5-3.68,2.47-7.41,2.9-11.49,1.16-6.31,1.73-12.41,1.54-19.02-.57-19.38-3.4-37.9-7.6-56.9-6.75-30.5-15.6-59.9-26.47-89.11-2.14-5.75-.6-12.26,4.92-14.62,1.88-.8,5.93-.75,7.69-.13,4.83,1.73,6.82,5.92,8.45,10.52,10.46,29.48,19.9,58.96,26.37,89.58l5.41,25.61,9.03-27.27,7.7-26.61,8.66-32.27,4.36-15.06,9.07-41.38c1.02-4.68,2.85-7.93,6.99-9.69s8.86-.91,11.95,2.54,3.52,8.24,2.53,12.42l-4.54,19.09-12.06,48.48-9.31,32.98c-.03.26.01,1.47.29,1.39l1.95-.58,53.09-30.03,9.56-5.34c1.19-.67,9.44.62,11.74,4.1,3.37,5.09,2.74,11.84-2.78,14.99l-18.81,10.73-28.15,16.04-35.95,20.64-2.37,5.11-11.79,34.58-2.2,5.45c-.12.31.93,1.34,1.29,1.56,31.47-4.96,62.35-10.45,93.39-17.88,14.94-3.41,28.76-7.7,42.64-13.92,6.22-2.79,14.88,4.23,14.19,10.41-.4,3.55-2.15,6.46-5.46,8.37-6.75,3.89-13.95,6.57-21.49,8.72l-18.32,5.24-33.8,7.8-35.58,6.72-17.16,2.94-28.27,4.52-8.67,22.56-11.07,25.9c-.86,2.02-1.4,4.01-.53,6.13,2.08,5.05.23,10.91-4.7,13.37-2.61,1.3-4.13,2.92-5.41,5.6l-18.38,38.6-8.95,17.37-13.95,26.29-.59,1.12c-.17.32.83.83,1.3,1.05l20.66-6.92,20.5-8.38,21.37-10.61-2.14-7.94c1.02-2.62,3.11-6.79,5.62-8.27,5.33-3.14,15.76,2.08,19.35-.84,6.61-5.37,11.09-11.92,15.55-18.89,10.86-16.97,10.45-37.34,1.06-54.83-2.88-5.37-.06-11.99,5.14-14.15,6.53-2.71,12.96,1.17,15.49,7.39l4.34,10.69Z"/>
    <path class="cls-3" d="M929.57,1375.25h1.74c.47,0,.36,1.45-.09,1.57l-1.48.39c-.45.12-.64-1.96-.17-1.96Z"/>
  </g>
</svg>