<?xml version="1.0" encoding="UTF-8"?>
<svg id="_레이어_1" data-name="레이어 1" xmlns="http://www.w3.org/2000/svg" viewBox="0 0 1014 1474">
  <defs>
    <style>
      .cls-1 {
        fill: #060607;
      }

      .cls-2 {
        fill: #f5efea;
      }

      .cls-3 {
        fill: #fffbf8;
      }

      .cls-4 {
        fill: #98b8a1;
      }

      .cls-5 {
        fill: #9ba8b6;
      }
    </style>
  </defs>
  <path class="cls-3" d="M995.39,1473.24h-21.01l-2.17-9.64c-1.58-5.67-8.58-8.02-13.84-7.94-5.1.08-11.63,3.13-12.84,9.04l-2.14,8.55h-23.01c.11-3.29-.08-8.41-2.14-11.5-5.22-7.82-17.13-8.23-23.5-1.54-3.2,3.36-3.6,9.02-4.34,13.04h-22.01l-.92-5.71c-1.41-6.72-5.96-11.1-13.02-11.84-4.63-.48-9.91,1.01-12.6,4.24-3.14,3.77-3.91,9.04-3.45,13.3h-25c1.64-4.68.91-9.77-3.14-13.62-6.73-6.39-19.16-5.31-23.39,3.63l-3.46,10h-21.01l-1.74-8.09c-1.74-6.86-8.71-9.9-15.13-9.49-6.4.4-11.72,5.32-13.29,11.98l-1.83,5.6h-22.01c-.04-3.65-.64-8.45-2.69-11.93-2.63-4.48-8.49-5.9-13.18-5.59-4.25.29-10.31,2.45-11.77,7.38l-3.35,10.14h-22.01l-1.81-9.79c-1.3-5.44-7.7-7.78-12.34-7.76-5.35.02-11.15,1.93-13.79,7.3-1.44,2.93-1.72,7.24-2.06,10.25h-23.6c.82-5.9-.88-12.08-6.14-15.29-4.9-2.99-11.63-3.08-16.69.01-4.96,3.04-6.6,9.59-6.57,15.27h-23.6c.8-5.46-1.22-12.19-6.12-15.29s-11.75-3.09-16.57.05c-4.93,3.21-6.76,9.49-6.71,15.24h-22l-2.01-8.87c-1.26-4.67-6.8-7.88-10.68-8.47-5.13-.77-10.62.16-14.04,4.25-2.99,3.58-3.67,8.87-4.27,13.09h-22.01c-.31-3.31-1.11-7.66-2.67-10.84-2.6-5.29-8.22-6.98-13.32-6.75-4.84.21-11.15,2.05-12.46,7.72l-2.54,9.87h-23.01c.45-3.49,0-8.28-2.03-11.57-3.86-6.26-12.18-7.3-18.42-4.84-6.48,2.56-9.21,9.62-9.53,16.41h-22.01l-2.23-9.55c-1.32-4.57-6.67-7.2-10.45-7.8-5-.79-10.6.29-13.91,4.36-2.95,3.63-3.56,8.78-4.4,12.99h-24.01c1.72-5.13.32-11.57-4.6-14.92-7.58-5.15-19.93-3.01-22.47,6.14l-2.92,8.78h-22.01l-1.01-6.72c-1.71-8.45-10.03-12.34-17.62-10.68s-12.18,9.51-11.36,17.4h-25c1.39-5.06.68-10.97-4.1-14.51-6.52-4.84-17.42-4.31-21.7,3.2-1.93,3.39-2.73,8-4.19,11.31h-22.01l-2.26-10.21c-1.63-5.95-8.2-7.68-13.64-7.33-5.02.32-11.16,2.75-12.58,8.62l-2.51,8.93h-22.01l-1.72-8.1c-2.06-7.89-10.67-10.63-17.57-8.99-7.78,1.85-11.4,9.55-10.7,17.08l-23,.04-.89-7.76c-1.18-6.66-7.83-9.38-14.73-10.49l.15-19.44,6.39-1.94c7.74-2.35,10.89-9.91,9.57-16.95-1.44-7.67-8.69-11.27-16.51-11.68l.27-16.02c.04-2.14,1.63-3.64,3.9-3.91,8.54-1.01,13.21-7.79,12.57-15.84-1.24-15.53-16.89-10.37-16.71-16.74l.47-16.15c9.54-.26,16.52-6.13,16.39-14.63-.14-8.88-6.56-15.3-16.47-14.75l-.24-16.96c-.07-4.66,17.09-1.48,16.74-18.93-.56-7.43-6.35-13.43-14.92-13.19-.69-.49-1.81-2.48-1.8-3.56l.08-14.67c0-.64,2.4-2.01,2.74-2.04,8.69-.22,14.27-6.79,13.94-14.79.03-7.38-5.7-13.44-13.96-13.92-.49-.13-2.71-2.13-2.71-2.96l.13-16.07c4.64-1.35,9.06-1.89,11.98-4.56,6.07-5.55,6.12-15.73.25-21.25-3.04-2.85-7.56-3.59-12.12-4.34l-.43-15.76c-.04-1.58,1.57-3.67,3.29-3.75,9.18-.45,14.17-7.98,13.48-16.14s-7.25-13.06-16.4-12.97l-.24-15.11c-.03-1.71,1.59-4.41,3.31-4.58,9.23-.88,14.2-8,13.32-16.33-.85-7.98-7.15-12.97-16.39-13.05l-.09-19.41c10.02.52,16.07-5.57,16.61-13.9.5-7.84-5.37-14.46-13.75-15.11-1.13-.09-3.17-2.14-3.12-3.33l.69-16.14c7.82-.53,12.5-3.58,14.86-9.31,2.16-5.26,1.74-11.72-2.81-16.27-2.89-2.89-7.48-3.76-12.46-4.76v-19.13c9.93.28,16.46-5.56,16.51-14.03.56-8.33-5.4-14.76-14.61-14.98-.25-.15-2.03-2.24-2.02-2.83l.19-16.29c7.43-.87,12.99-3.57,15.3-9.52,2.17-5.58,1.6-12.52-3.4-16.89-2.81-2.46-7.7-3.16-12.01-3.95l-.1-19.19c9.97.35,16.78-6.2,16.68-15.11-.09-8.93-6.43-14.57-16.56-14.7l.05-19.47c10.83.38,16.7-6.96,16.53-15.8-.17-8.89-7.93-13.93-16.78-13.79l.09-19.17c9.86.2,16.78-6.11,16.7-15.06-.09-9.25-7.52-14.59-16.83-14.73l.15-19.16c9.95.35,17.02-5.86,16.74-15.06-.26-8.55-7.17-14.61-16.83-14.43l.1-19.32c9.16.2,16.79-5.95,16.59-14.35.34-8.63-6.34-14.98-15.65-15.17-.17-.25-1.15-2.24-1.14-2.74l.03-13.75c0-.88,1.25-2.88,1.9-3.3,9.48-.14,15.71-7.36,14.79-15.7-.5-8.45-7.38-13.58-16.61-13.86l.02-16.76c0-.8,1.51-2.64,1.92-2.75,9.29.02,15.68-7.46,14.68-15.63-.33-8.53-7.37-13.46-16.69-13.63l.29-19.05c10.14-.29,16.89-6.37,16.61-15.63-.26-8.3-6.9-14.42-16.68-14.65l.08-19.35c10,.17,15.77-5.31,16.59-13.25.79-7.58-4.6-14.3-12.39-15.3-1.39-.18-4.32-1.77-4.31-3.13l.08-16.6c9.54-.65,15.85-5.75,16.59-13.98s-4.83-14.66-13.04-15.56c-.98-.11-3.54-1.92-3.54-2.93l.12-16.62c9.55-.66,15.73-5.29,16.47-13.87,1.37-15.84-16.49-14.51-16.52-18.53l-.07-12.79c0-2.33,1.49-4.24,3.56-4.47,8.49-.93,13.24-7.29,13.03-14.97-.2-7.23-5.31-12.81-13.48-13.73-1.72-.19-3.2-2.8-3.17-4.58l.27-15.08c9.88-.33,16.64-6.42,16.37-15.49-.25-8.5-6.81-14.19-16.47-14.68v-18.72c7.04-.27,12.39-3.42,14.92-8.76,2.53-5.34,1.98-12.48-2.81-16.77-3.22-2.88-7.49-3.74-12.38-4.86l.42-17.54,10.29-3.76c7.36-5.6,8.22-17.24,1.18-23.23-3.06-2.61-7.14-3.39-11.57-4.76l-.16-17.8c3.82-1.01,8.12-1.52,11.08-3.76,6.3-4.75,7.14-14.55,2.66-20.65-3.22-4.38-8.48-5.33-13.82-6.16l-.09-19.11c7.65.18,13.74-3.31,15.83-9.91,1.8-5.69.82-13.21-5.15-16.69-2.84-1.66-6.36-2.17-10.54-3.04l-.03-16.15c9.25-.85,14.53-6.74,15.22-15.21.98-1.52,4.79-1.24,6.73-1.26l14.5-.19c0,10.52,6.35,17.38,16.02,17.02,8.84-.33,14.64-7.74,14.76-17.25,12.41,1.91,23.06-2.13,23.17,2.73.19,8.58,7.52,15.2,16.05,14.6s14.56-7.44,14.28-16.97h23.58c-.43,9.42,5.76,16.35,14.42,16.75,7.98.37,15.3-5.08,15.58-14.1.13-4.34,7.31-2.21,19.9-2.68.96-.04,3.32.26,3.47,1.12l.54,3.06c1.56,8.78,8.7,13.67,17.02,12.53,7.56-1.03,13.53-7.97,12.72-16.56l20.31-.14c2.46-.02,3.67,1.63,3.89,4.33.72,8.72,9.09,13.57,17.02,12.44s13.16-8.04,12.74-16.73l23.11.03c.38,5.68,2,11.27,5.85,13.89,4.17,2.83,9.16,3.69,13.99,2.2,5.73-1.77,9.52-5.8,9.8-12.16.32-7.23,9.36-2.21,23.27-4.39-.04,9.68,6.27,17.68,15.48,17.31,9.06-.36,15.22-6.58,15.26-16.73l9.37-.06,13.25-.08c.15,6.48,2.08,11.19,6.37,14.3,4.18,3.03,9.8,3.24,14.69,1.27,6.29-2.53,8.95-7.47,9.06-15.1l8.64-.39,14.11-.12c.42,5.19.94,9.52,3.95,12.72,2.31,2.45,7.07,4.2,10.79,4.16,9.45-.1,15.85-7.06,14.94-16.83l15.23.03c2.46,0,5.4.08,7.58.52-.08,9.2,5.18,15.58,13.08,16.3s15.47-3.94,16.41-12.65c.14-1.29.48-2.93.82-3.74s3.05-.5,3.99-.51l15.23-.19c1.22-.02,3.73,1.5,3.73,2.63,0,8.68,6.55,15.03,15.11,14.43,8.01-.14,14.67-6.03,13.89-14.67.3-.65,2.34-2.25,3.24-2.25l17.63.05c.7,0,2.81,1.46,2.99,1.81.02,9.67,6.99,15.39,15.72,15.05,8.37-.19,14.83-7.42,14.34-16.77l20.64-.12c1.75,0,2.69,2.94,2.92,5.2.89,8.75,9.84,12.85,17.41,11.41,7.82-1.5,12.42-8.56,12.4-16.83l20.14.18c1.74.02,2.87,3.07,3.08,5.12.9,8.7,9.77,12.91,17.52,11.54,7.77-1.38,12.48-8.6,12.26-16.71l19.82.05c1.26,0,3.18,2.08,3.23,3.21.42,9.47,8.43,14.84,16.9,13.58,7.97-1.18,13.61-8.46,13.06-16.89l19.86.19c1.26,0,3.29,1.95,3.31,3.07.13,8.11,6.05,13.42,13.78,13.72,8.23.32,15.55-4.9,15.7-13.67.03-1.76,2.29-3.19,3.99-3.21l19.05-.25c.02,8.52,5.02,16.19,13,17.11s16.46-3.52,16.9-12.57c.08-1.74,1.48-4.3,3.12-4.32l20.02-.28c-.11,9.75,6.28,17.6,15.5,17.33,9.24-.27,15.04-7.01,15.03-16.93l14.58.07,7.68.31c.03,9.88,5.6,15.22,15.35,16.28l-.02,16.46c-9.98-.18-16.97,5.8-16.88,14.63.09,8.37,6.42,14.67,16.51,14.56l.28,19.58c-9.98-.32-16.89,6.2-16.74,14.84.16,8.78,6.81,14.98,16.8,14.63l.34,19.5c-10.06-.15-17.06,5.64-17.16,14.86s7.03,14.64,16.94,15.09l.03,18.73c-9.7.12-17.24,6.26-16.93,15.18.3,8.76,6.99,14.75,16.75,14.69l.35,15.57c.02.97-1.59,3.27-2.13,3.73-9.24.11-15.53,7.46-14.85,15.79.77,8.54,6.95,13.62,16.77,13.83l-.09,19.54c-10.03-.36-16.18,5.61-16.9,13.92-.02,8.19,5.77,14.97,15.04,15.21.41.11,2.45,2.56,2.41,3.53l-.72,16.19c-10.15-.19-16.96,6.45-16.71,14.97s7.28,14.81,17.02,14.36l-.04,19.6c-9.92-.51-17.23,5.83-16.98,15.04.23,8.4,7.16,14.53,16.9,14.64l.1,18.42-8.53,2.4c-6.53,1.84-9.3,9.85-8.2,16.09,2.3,13.1,17.02,9.73,16.91,14.81l-.36,16.09c-9.45.37-15.97,5.52-16.79,13.73-.84,8.39,5.07,15.41,13.88,16.25,1.22.12,3.31,2.7,3.28,3.99l-.4,15.53c-10.13-.06-16.17,5.63-16.79,14.16-.57,7.79,5.86,14.47,14,14.98,1.19.07,3.18,2.21,3.18,3.57l-.07,15.93c-7.39.1-12.57,3.06-15.4,8.44s-2.22,12.47,2.69,17.13c3.1,2.95,7.67,3.77,12.59,4.55l.36,18.94c-8,.19-13.63,3.07-16,9.01s-1.83,12.89,3.46,17c3.21,2.49,7.23,3.17,12.09,4.27l.27,18.87c-10.13-.21-16.66,5.51-17.06,14.37s6.25,15.39,16.67,14.93l.04,19.79c-10.43-.55-16.89,6.38-16.66,15.02.22,8.55,7.43,14.61,16.84,14.16l.26,19.7c-10.24-.61-17.5,5.75-17.17,15.11.3,8.43,7.38,14.13,16.97,14.32l-.14,18.87c-4.79,1.04-8.96,1.83-12.02,4.38-5.34,4.46-6.06,11.88-3.19,17.58,2.77,5.51,8.15,8.11,15.34,8.24v19.36c-9.29-.09-16.16,5.09-16.9,13.58-.66,7.61,4.83,14.99,13.29,15.63,1.91.15,4.06,2.58,3.99,4.39l-.64,15.65c-10.52-.53-17.19,6.31-16.71,14.99s6.67,14.42,16.63,13.91l.37,19.82c-9.47-.41-16.37,4.98-16.96,13.46-.54,7.7,4.86,14.91,13.36,15.68,1.27.12,3.77,2.33,3.74,3.57l-.36,15.62c-4.22,1.13-7.9,1.82-10.87,3.67-5.83,3.64-7.13,11.23-4.87,17.04s7.84,9.27,15.77,9.35l.22,19.59c-10.18-.27-17.44,5.96-17,15.25.41,8.57,7.33,14.24,17,14.18l-.19,19.39c-10.34-.39-17.29,6.11-16.88,15.45.37,8.5,7.49,13.99,17.05,14.21l-.18,19.04c-7.72.19-13.06,3.01-15.55,8.54s-1.7,12.72,3.52,16.98c3.06,2.5,7.18,3.22,11.98,4.54l.26,16c.01.8-2.38,2.86-2.83,2.98-8.8.14-14.31,6.83-14.28,14.78,1.77,17.21,17.2,11.59,17.14,17.44l-.14,16.18c-6.73.53-12.17,2.88-15.01,7.76-3.08,5.29-2.83,11.85,1.45,16.77,2.98,3.43,8.12,4.84,12.74,6.26,1.65,5.67,1.46,12.74.42,18.74-9.75-.14-16.73,6.18-16.55,14.91.18,8.36,6.57,15,16.6,14.19.65,6.55.76,13.18.09,19.94-9.68-.18-16.18,5.66-16.66,13.94-.47,8.1,4.92,14.75,13.87,15.39,1.36.1,3.34,2.41,3.3,3.65l-.52,16.64c-10.38-.57-16.89,6.35-16.65,15.08.24,8.58,7.49,14.22,16.93,14.15l-.14,20.06c-12.24,3.22-13.9,6.93-16.4,18.4h-.03ZM962.78,48.39H52.79v1376.87h910V48.39h-.01Z"/>
  <g>
    <path class="cls-2" d="M52.79,1425.26V48.39h910v1376.87H52.79ZM519.68,536.16c-.4-1.05-1.01-2.89-1.22-4.38-1.91-13.48-4.54-26.38-10.43-38.69-3.35-7-8.38-12.86-14.3-17.88-16.42-13.93-44.41-15.6-65.92-13.93l-26.44,3.24c-20.65,3.95-38.99,15.1-53.32,30.5-14.77,15.88-23.28,36.02-25.59,57.57-1.02,9.55.22,18.48,1.52,27.86,5.29,38.35,11.88,61.01,51.92,71.85l21.65,4.1,28.2,1.97c13.03.91,25.76.41,38.74-1.29,10-1.31,19.39-4.22,28.46-8.38,19.9-9.12,29.58-27.41,30.93-49.03.81-12.93-.13-25.41-1.47-38.3v-5.2c16.46-12.96,37.65-27.56,59.87-29.16-17.3,39.75-38,76.76-61.34,112.5l-6,5.57c-.26,3.52-1.52,6.01-3.38,8.75l-6.3,9.26c-15.55,22.84-32.02,44.74-48.83,66.55-2.16,2.8-3.77,1.54-6.42,1.18-7.9-1.09-15.92-.04-23.87,1.8-15.61,3.61-29.87,10.55-43.5,18.77l-3.54,1.73-4.33-11.67c-13.02-29.75-46.02-33.79-76.07-31.16l-31.09,4.78c-9.3,1.43-17.73,4.44-26.43,7.93-35.24,14.15-52.59,40.11-52.62,78.32-.02,26.11,9.4,50,29.82,66.48,12.64,10.21,27.89,16.7,44.01,19.61,8.05,1.45,15.55,1.6,23.54,2.22l9.96.77c5.84.45,11.23-.04,17.07-.72,14.23-1.65,26.49-2.96,39.04-10.84,1.39-.87,3.02-1.42,4.4-1.34,5.4,21.22-1.99,42.92-10.23,63.29l-1.39,4.8c-16.19-2.54-39.24-.8-51.41,10.99-6.99,6.78-11.87,14.6-15.43,23.68-5.32,13.58-8.89,27.31-12.06,41.62-7.08,31.89-.72,66.29,23.09,89.05,10.45,9.99,23.2,15.6,37.45,17.74,10.6,1.59,20.84,2.81,31.56,1.47,24.39-3.05,36.67-18.39,44.46-40.82l8.62-30.44c8.85-31.22,3.18-68.5-19.92-92.51-8.19-8.51-18.22-14.83-29.92-17.55l.98-3.35,4.93-11.91c4.42-10.68,6.27-21.75,7.69-33.26s-.45-26.41-6.3-35.39c-.46-1.41.54-4.09,1.47-5.61l5.81-9.48,4.92-4.82,7.77-8.36,25.86-29.23,21.49-25.53c.49.89.55,2.39.4,3.61-1.34,11.21-1.15,22.02-.08,33.4,1.76,18.79,8.11,36.02,17,52.52,11.28,20.92,23.55,45.88,44.67,58.09,26.12,15.1,58.55,2.61,83.86-10.54,12.83-6.67,24.69-13.99,35.19-23.91,19.65-18.57,24.78-38.17,17.36-64.33-4.02-14.16-10.18-27.01-16.97-40.01l-10.87-20.8c-4.87-9.31-10.27-17.96-17.04-25.92-5.87-6.9-12.25-12.22-20.74-15.65s-17.63-5.76-26.57-5.55l.74-8.2c2.04-21.85,3.09-45.29-8.38-64.63l18.11-29.12c17.74-28.53,32.7-58.05,46.02-88.87l5.1-9.94,1.44-7.16c.19-.92,1.39-2.29,2.14-2.46s2.3.27,3.18.64c7.32,3.06,13.54,7.02,19.28,12.4,8.28,7.76,15.28,16.07,21.54,25.56l11.13,19.18c-13.38,7.72-25,16.83-36.19,27.61-11.15,11.22-20.2,24.53-24.32,40.05-7.79,29.34-2.3,60.3,13.95,85.57,3.54,5.5,6.72,10.55,11.3,15.11l27.23,27.12c9.19,9.15,19.53,16.46,31.49,21.52,34.71,14.68,67.17-10.7,91.45-35,12.6-12.61,20.31-28.68,23.33-46.56,4.37-25.89-1.89-52.28-15.7-74.55l-9.03-12.58c-11.44-13.08-23.62-25-36.78-36.33-6.26-5.39-12.85-9.87-20.01-13.6-10.27-5.36-21.03-6.78-32.54-5.79l-8.07.7-2.38-3.89c-6.87-12.75-14.82-24.47-24.05-35.58-6.67-6.9-12.9-13.56-20.93-18.76l-18.87-9.85c5.72-15.8,9.82-31.37,13.1-47.75,3.76-18.77,5.82-37.04,5.23-56.19-1.93-2.56-5.29-5.08-8.14-4.83-5.44.46-7.96,3.67-8.11,8.55-.82,26.2-4.21,51.88-12.26,76.82l-10.47,32.46c-1.21,3.75-2.34,5.26-6.57,5.32-21.47.3-42.78,11.29-60.3,23.42l-5.03,2.95Z"/>
    <path class="cls-2" d="M524.76,722.35l-24.39,2.52-20.02,2.63,1.66-3.15,41.43-57.56c4.2,13.42,4.76,26.94,3.05,40.43l-1.71,15.13Z"/>
    <g>
      <g>
        <path class="cls-5" d="M662.37,570.21l2.51-.94,10.46-3.76c.89-.32,2.51-1.47,3.12-2.02l8.07-.7c11.51-1,22.27.42,32.54,5.79,7.16,3.74,13.75,8.21,20.01,13.6,13.16,11.32,25.34,23.25,36.78,36.33l9.03,12.58c13.81,22.26,20.07,48.66,15.7,74.55-3.02,17.88-10.73,33.95-23.33,46.56-24.27,24.3-56.73,49.68-91.45,35-11.97-5.06-22.31-12.37-31.49-21.52l-27.23-27.12c-4.58-4.56-7.76-9.61-11.3-15.11-16.26-25.27-21.75-56.22-13.95-85.57,4.12-15.52,13.17-28.84,24.32-40.05,11.2-10.78,22.81-19.88,36.19-27.61ZM694.68,746.62c.38.29,1.95.08,2.08.58l.57,2.94c-.55.52-1.32,1.95-1.72,2.6l-1.08,1.2c-.17.19.2.95.45.95l1.29.02,2,.03c6.32-1.48,12.5-3.07,19.21-2.72,2.4.13,4.96,1.5,7.1,2.28l7.95,2.9c1.17.43,3.65-.59,4.06-1.33,3.3-1.69,4.8-4.31,6.85-6.91l3.61-4.58c7.35-4.88,26.17-16.62,19.27-21.89l-9.34-7.13c-7.39-5.65-5.58-10.85-8.42-10.96-2.6-.1-7.85,4.36-12.29,4.54l-19.9.81c-1.51.95-3.11,1.27-4.88,1.64-10.08,2.09-24.24,12.1-24.12,14.86.1,2.13,4.41,3.48,1.48,7.4-1.67,2.24-4.01,5.85-3.38,8.81.66,3.12,2.93,5.58,5.06,7.91l4.17-3.93Z"/>
        <g>
          <path class="cls-1" d="M747.03,744.57l-3.12-3.75-1.94-.6c-.37-.12-.2,1.55-.11,1.98l1.57,6.95c-2.05,2.6-3.55,5.23-6.85,6.91-4.48-.02-8.55-.68-12.51-2.84l-4.95-2.7c-3.41-.53-7.36-.36-10.85.59l-8.86,2.41c-.52.14-1.74,1.05-1.14,1.42l-2-.03-.66-2.17c.4-.65,1.18-2.07,1.72-2.6.74-.71,2.03-1.84,2.26-2.66s-.22-2.6-.72-3.63c-1.93.89-3.08,1.73-4.18,2.77l-4.17,3.93c-2.13-2.33-4.4-4.78-5.06-7.91-.62-2.96,1.71-6.57,3.38-8.81,2.93-3.92-1.39-5.27-1.48-7.4-.12-2.76,14.03-12.77,24.12-14.86,1.77-.37,3.37-.69,4.88-1.64l19.9-.81c4.44-.18,9.68-4.65,12.29-4.54,2.85.11,1.03,5.32,8.42,10.96l9.34,7.13c6.9,5.27-11.92,17.01-19.27,21.89Z"/>
          <path class="cls-4" d="M736.57,756.07c-.41.74-2.89,1.76-4.06,1.33l-7.95-2.9c-2.14-.78-4.7-2.15-7.1-2.28-6.7-.36-12.89,1.24-19.21,2.72-.6-.37.62-1.28,1.14-1.42l8.86-2.41c3.49-.95,7.44-1.12,10.85-.59l4.95,2.7c3.96,2.16,8.03,2.82,12.51,2.84Z"/>
          <path class="cls-4" d="M747.03,744.57l-3.61,4.58-1.57-6.95c-.09-.43-.26-2.1.11-1.98l1.94.6,3.12,3.75Z"/>
          <path class="cls-4" d="M697.33,750.14l-.57-2.94c-.13-.5-1.7-.29-2.08-.58,1.1-1.04,2.26-1.88,4.18-2.77.5,1.03.95,2.8.72,3.63s-1.52,1.96-2.26,2.66Z"/>
        </g>
        <path class="cls-4" d="M695.6,752.73l.66,2.17-1.29-.02c-.25,0-.62-.76-.45-.95l1.08-1.2Z"/>
      </g>
      <g>
        <path class="cls-4" d="M678.46,563.49c-.61.55-2.24,1.7-3.12,2.02l-10.46,3.76-2.51.94-11.13-19.18c-6.26-9.49-13.26-17.8-21.54-25.56-5.74-5.38-11.96-9.35-19.28-12.4-.89-.37-2.43-.81-3.18-.64s-1.95,1.54-2.14,2.46l-1.44,7.16-5.1,9.94c-13.32,30.82-28.27,60.34-46.02,88.87l-18.11,29.12c11.47,19.34,10.42,42.79,8.38,64.63l-.74,8.2-9.49.22-7.81-.69,1.71-15.13c1.72-13.49,1.15-27-3.05-40.43l-41.43,57.56-1.66,3.15c-12.37,1.62-27.7,14.01-33.06,25.55l-1.91,4.12c-2.9,6.25-5.49,12.3-7.05,19.1-.49,2.14-1.27,4.18-2.48,5.62l-21.49,25.53-25.86,29.23-7.77,8.36-4.92,4.82c-.07-3.37.32-7,.86-10.57l1.67-11.07,1.03-8.52,1.77-.49,14.58-16.96,8.9-9.92,10.14-12.13,23.68-28.66c1.18-1.43,1.89-2.04,2.36-3.99-5.1.21-8.93.78-13.31,2.31l-15.54,5.42c-9.28,4.18-17.78,9.1-26.35,14.6l-3.74,1.49-2.36-10-.38-8.25,3.54-1.73c13.62-8.22,27.89-15.16,43.5-18.77,7.95-1.84,15.97-2.89,23.87-1.8,2.65.37,4.26,1.62,6.42-1.18,16.81-21.81,33.28-43.72,48.83-66.55l6.3-9.26c1.87-2.74,3.13-5.23,3.38-8.75l6-5.57c23.34-35.74,44.03-72.75,61.34-112.5-22.22,1.6-43.42,16.2-59.88,29.16l-1.75-8.8c-.75-3.76-1.23-7.26-.97-11.22l5.03-2.95c17.52-12.14,38.83-23.12,60.3-23.42,4.22-.06,5.36-1.57,6.57-5.32l10.47-32.46c8.04-24.93,11.44-50.62,12.26-76.82.15-4.88,2.68-8.09,8.11-8.55,2.85-.24,6.21,2.27,8.14,4.83.59,19.15-1.47,37.41-5.23,56.19-3.28,16.38-7.38,31.95-13.1,47.75l18.87,9.85c8.03,5.2,14.26,11.86,20.93,18.76,9.24,11.11,17.19,22.83,24.05,35.58l2.38,3.89Z"/>
        <path class="cls-4" d="M368.52,864.92c5.84,8.98,7.67,24.23,6.3,35.39s-3.27,22.58-7.69,33.26l-4.93,11.91-.98,3.35-8.7-2.02-7.73-1.21,1.39-4.8c8.24-20.38,15.63-42.08,10.23-63.29.07-.24.57-1.36.89-1.74l6.55-7.89,4.67-2.94Z"/>
        <g>
          <path class="cls-5" d="M519.68,536.16c-.26,3.95.22,7.45.97,11.22l1.75,8.8v5.2c1.35,12.88,2.29,25.37,1.48,38.3-1.35,21.62-11.04,39.91-30.93,49.03-9.07,4.16-18.46,7.07-28.46,8.38-12.98,1.7-25.71,2.2-38.74,1.29l-28.2-1.97-21.65-4.1c-40.04-10.84-46.63-33.5-51.92-71.85-1.29-9.38-2.54-18.31-1.52-27.86,2.31-21.55,10.82-41.69,25.59-57.57,14.33-15.41,32.67-26.55,53.32-30.5l26.44-3.24c21.51-1.67,49.5,0,65.92,13.93,5.92,5.02,10.95,10.88,14.3,17.88,5.89,12.3,8.52,25.2,10.43,38.69.21,1.49.82,3.32,1.22,4.38ZM352.42,586.24c6.35,2.61,13.12-4.34,19.41-3.15,1.9.36,3.95.83,5.48.55,1.33-4.49,2.53-8.37,4.66-12.26l11.16-20.43c2.82-5.16,4.22-11.78,2.52-17.39-1.37-4.51-5.45-7.58-8.22-11.07-1.43-1.81-2.53-3.76-4.35-5.24-1.57-1.28-5.35-.63-6.89.23l-.25,6.05c-.02.5-1.63,1.07-1.86.63-.17-.33-.76-1.36-1.02-1.62l-3.82-3.85c-1.89,10-8.15,18.28-16.97,23.5-3.35,1.98-5.74,5.29-6.58,8.93l3.36,6.12c.69.31,2.62,1.12,2.3,1.68l-1.28,2.24v18.78c.45,1.75.79,5.66,2.37,6.3Z"/>
          <path class="cls-1" d="M352.42,586.24c-1.58-.65-1.92-4.56-2.35-6.3v-18.78s1.27-2.24,1.27-2.24c.32-.56-1.6-1.38-2.3-1.68l-3.36-6.12c.84-3.64,3.23-6.95,6.58-8.93,8.82-5.22,15.08-13.5,16.97-23.5l3.82,3.85c.26.26.85,1.29,1.02,1.62.23.44,1.84-.14,1.86-.63l.25-6.05c1.54-.86,5.31-1.51,6.89-.23,1.82,1.48,2.92,3.44,4.35,5.24,2.77,3.49,6.85,6.56,8.22,11.07,1.7,5.61.31,12.22-2.52,17.39l-11.16,20.43c-2.13,3.9-3.33,7.77-4.66,12.26-1.53.29-3.58-.19-5.48-.55-6.29-1.18-13.05,5.77-19.41,3.15Z"/>
        </g>
      </g>
      <g>
        <path class="cls-5" d="M542.06,722.82c8.94-.21,18.11,2.14,26.57,5.55s14.88,8.74,20.74,15.65c6.77,7.96,12.17,16.61,17.04,25.92l10.87,20.8c6.79,12.99,12.95,25.84,16.97,40.01,7.42,26.16,2.3,45.76-17.36,64.33-10.5,9.92-22.36,17.24-35.19,23.91-25.31,13.15-57.75,25.64-83.86,10.54-21.12-12.21-33.39-37.18-44.67-58.09-8.9-16.5-15.24-33.73-17-52.52-1.07-11.38-1.26-22.19.08-33.4.15-1.22.09-2.72-.4-3.61,1.21-1.44,1.99-3.48,2.48-5.62,1.56-6.8,4.14-12.85,7.05-19.1l1.91-4.12c5.36-11.54,20.69-23.93,33.06-25.55l20.02-2.63,24.39-2.52,7.81.69,9.49-.22ZM543.84,911.96c14.96-16.47,30.04-6.63,36.96-13.2,5.3-5.03-.76-11.01.28-11.54l2.12-1.07,9.36-17.56c.81-1.31,1.85-4.47,1.04-5.63-5.86-8.26-17.78-5.78-22.28-10.71l-3.69-4.04-4.98,4.02c-9.57,7.74-23.6,11.75-33.4,21.54-7.21,7.2-3.57,14.27-2.51,19.55l1.62,8.04c.77,3.85,5.03,7.07,8.51,7.38,1.28-2.45,3.16-4.74,5.79-5.44l1.18,8.65Z"/>
        <path class="cls-1" d="M543.84,911.96l-1.18-8.65c-2.63.7-4.51,2.99-5.79,5.44-3.49-.31-7.74-3.53-8.51-7.38l-1.62-8.04c-1.06-5.28-4.7-12.36,2.51-19.55,9.8-9.78,23.83-13.8,33.4-21.54l4.98-4.02,3.69,4.04c4.5,4.93,16.42,2.45,22.28,10.71.82,1.15-.23,4.31-1.04,5.63l-9.36,17.56-2.12,1.07c-1.04.52,5.02,6.51-.28,11.54-6.91,6.56-22-3.28-36.96,13.2Z"/>
      </g>
      <path class="cls-2" d="M379.36,819.67c1.77-14.66,1.58-29.43,2.3-44.51l.18-3.8,3.74-1.49c8.57-5.5,17.07-10.42,26.35-14.6l15.54-5.42c4.37-1.53,8.2-2.1,13.31-2.31-.47,1.95-1.18,2.56-2.36,3.99l-23.68,28.66-10.14,12.13-8.9,9.92-14.58,16.96-1.77.49Z"/>
      <g>
        <g>
          <path class="cls-5" d="M379.12,753.11l.38,8.25,2.36,10-.18,3.8c-.72,15.08-.53,29.85-2.3,44.51l-1.03,8.52-1.67,11.07c-.54,3.57-.93,7.2-.86,10.57l-5.81,9.48c-.94,1.53-1.93,4.2-1.47,5.61l-4.67,2.94-6.55,7.89c-.32.39-.82,1.5-.89,1.74-1.38-.09-3.01.46-4.4,1.34-12.55,7.88-24.81,9.19-39.04,10.84-5.84.68-11.23,1.17-17.07.72l-9.96-.77c-7.99-.62-15.49-.77-23.54-2.22-16.12-2.91-31.37-9.4-44.01-19.61-20.41-16.48-29.84-40.37-29.82-66.48.03-38.21,17.38-64.17,52.62-78.32,8.71-3.5,17.13-6.5,26.43-7.93l31.09-4.78c30.05-2.63,63.05,1.41,76.07,31.16l4.33,11.67ZM217.86,832.93c7.62-.38,10.78-5.57,16.26-5.97l8.05-.58c.42-7.31,2.37-12.67,4.76-19.03l3.5-9.35c2.01-5.38,2.97-10.82,3.65-16.61.72-6.22-3.15-11.09-8.15-14.68l-7.58-7.06c-1.71-1.59-3.77-1.43-5.78-.27-.9.52-2.83,1.81-2.52,2.66l1.56,4.26c.18.51-.86.64-1.62-.01-.61,0-2.33.48-2.55-.13l-1.2-3.23c-.47-.11-2.11,1.21-2.63,2.16-.79,10.55-6.28,19.07-14.62,24.93-1.65,2.61-2.69,5.16-2.53,8.03.13,2.2,2.21,5.33,4.4,6.23l1.97.81c.35.14-.7,1.23-1.1,1.61.17,8.16.72,20.46,6.14,26.23Z"/>
          <path class="cls-1" d="M217.86,832.93c-5.42-5.77-5.98-18.07-6.14-26.23.4-.38,1.46-1.47,1.1-1.61l-1.97-.81c-2.19-.9-4.27-4.03-4.4-6.23-.17-2.87.87-5.42,2.53-8.03,8.35-5.85,13.84-14.38,14.62-24.93.52-.94,2.16-2.26,2.63-2.16l1.2,3.23c.22.6,1.94.13,2.55.13.76.65,1.81.52,1.62.01l-1.56-4.26c-.31-.85,1.62-2.14,2.52-2.66,2.01-1.16,4.07-1.33,5.78.27l7.58,7.06c5,3.6,8.88,8.47,8.15,14.68-.68,5.8-1.63,11.24-3.65,16.61l-3.5,9.35c-2.38,6.36-4.34,11.72-4.76,19.03l-8.05.58c-5.48.4-8.64,5.58-16.26,5.97Z"/>
        </g>
        <g>
          <path class="cls-5" d="M344.79,945.59l7.73,1.21,8.7,2.02c11.71,2.72,21.73,9.04,29.92,17.55,23.1,24.01,28.77,61.3,19.92,92.51l-8.62,30.44c-7.79,22.42-20.06,37.77-44.46,40.82-10.72,1.34-20.96.13-31.56-1.47-14.25-2.14-27-7.75-37.45-17.74-23.81-22.76-30.17-57.17-23.09-89.05,3.18-14.31,6.75-28.05,12.06-41.62,3.55-9.08,8.43-16.9,15.43-23.68,12.17-11.79,35.21-13.54,51.41-10.99ZM326.39,1112.69c4.72.3,7.66-.3,10.4-3.22,7.87.17,21.82-.02,23.19-4.54.41-1.36-.1-3.56-.73-5l-3.93-8.91.44-6.32c-7-1.03-13.2-2.28-18.88-6.11-7.04-4.75-14.9-6.48-23.33-4.93l-5.03.93c-.13,3.78-2.22,5.64-5.09,7.06-3.82,1.89-4.74,6.68-2.16,9.72l4.93.79c.31,1.47-1.51,2.54-4.17,3.09,5.38,5.71,13.55,1.65,18.8,10.93,1.33,2.36,3.49,4.68,5.57,6.53Z"/>
          <path class="cls-1" d="M326.39,1112.69c-2.08-1.85-4.24-4.17-5.57-6.53-5.25-9.28-13.41-5.22-18.8-10.93,2.65-.56,4.48-1.62,4.17-3.09l-4.93-.79c-2.58-3.04-1.66-7.83,2.16-9.72,2.87-1.42,4.96-3.27,5.09-7.06l5.03-.93c8.44-1.55,16.29.19,23.33,4.93,5.68,3.83,11.89,5.08,18.88,6.11l-.44,6.32,3.93,8.91c.64,1.44,1.14,3.64.73,5-1.37,4.52-15.32,4.71-23.19,4.54-2.74,2.92-5.68,3.52-10.4,3.22Z"/>
        </g>
      </g>
    </g>
  </g>
</svg>