<?xml version="1.0" encoding="UTF-8"?>
<svg id="_레이어_1" data-name="레이어 1" xmlns="http://www.w3.org/2000/svg" viewBox="0 0 1014 1474">
  <defs>
    <style>
      .cls-1 {
        fill: #262924;
      }

      .cls-2 {
        fill: #dec8a8;
      }

      .cls-3 {
        fill: #9d4135;
      }

      .cls-4 {
        fill: #f8f3ea;
      }

      .cls-5 {
        fill: #d3583f;
      }

      .cls-6 {
        fill: #f0eae1;
      }
    </style>
  </defs>
  <g>
    <path class="cls-5" d="M52.43,770.5V48.5h910v827l-34.04.14-68.91.2-11.71-.31-35.36.09-7.98.03-29.84.4-22.36.3c-4.17,3.56-9.41,6.46-15.2,6.53l-8.97,2.17,14.38,1.01c2.61.18,6.83-1.55,9.24-.18l-6.71,1.15,16.79,4.84c1.44.42,3.29,3.78,2.89,5.07s-2.73,3.29-4.37,3.58c-17.8,3.22-34.99,4.49-53.12,5.59-3.07.19-8.97,1.95-8.79,5.18.25,4.62,6.63,5.05,9.91,5.39l25.02,2.57,15.75,2.75,11.95,3.11c1.82.48,5.82,3.19,5.29,4.98-1.4,4.33-6.26,4.46-9.75,5.56s-7.2,3.1-10.66,3.24l-48.36,2.08-27.37,2.13c-1.55.12-3.86,2.73-4.02,4.07s1.9,3.67,3.37,4.15l8.16,2.61,35.47,2.99,6.69,3.03,14.82,4.29c1.99.57,3.93,4.09,4.16,5.82,1.02,7.61-18.62,13.28-28.28,14.1l-34.76,2.94-18.31,2.28-28.75,3.2c-1.21.13-3.18,2.09-3.83,3.06-.76,1.13-.45,4.94.92,5.71,15.88,8.91,34.33,4.28,51.51,8.44,5.44,1.32,10.67,3.87,16.42,2.97,7.38-.94,14.55,1.02,21.13,4.22l44.62,1.73,13.96,1.62c6.85.79,12.84,1.65,19.41,3.81l-23.74,8.77-28.72,4.14-26.04,2.29c-6.23.55-13.84,1.32-18.11,5.95.36,2.01,1.02,4.9.93,6.22-.11,1.51-2.81,4.06-4.29,4.38l-14.87,3.23-24.42,5.59c-7.89,1.81-15.96,3.11-22.43,8.68-2.1,1.81-.06,6.64,2.51,7.94,4.44,2.25,9.3,2.15,14.23,2.9l11.13,1.7,12.49,1.88c4.75.71,11.11.64,15.57,2.24,8.09,2.91,15.34,6.91,24.21,7.85l55.01,5.8c4.21.44,8.1,1.73,11.72,4.23-3.57,1.34-6.43,2.65-9.08,3.02-18.18,2.55-36.13,2.29-54.52.76l-36.89,2.01c-36.63,10.04-74.24,12.29-111.8,7.48l-1.51,1.76c-.27.31-.7-.47-1.29-1.42l-21.68-2.87c-11.79-1.56-28.19-7.2-37.46-15.17,1.86-3.29,4.41-6.1,7.84-6.84l24.72-5.38,8.23-1.47c14.86-1.12,28.88-2.89,42.6-8.45,1.42-.58,3.41-3.82,2.7-5.01-4.26-7.14-28.19-6.47-42.71-8.81-13.45-2.17-25.99-4.8-39.78-5.09-14.54-.31-28.8-1.08-42.98-3.98l-29.39-8.33-13.92-3.24-8.22,2.09-45.46-1.22-13.15-.52c-7.65-.3-17.3-.81-15.73-4.16.3-.64,1.96-1.95,2.81-2l36.28-2.09,39.94.02,37.84-1.44,34.03-3.29c13.66-1.32,42.4-2.93,42.81-11.8.18-3.9-5.33-5.35-8.35-6.19l-25.06-7.01c-6.15-1.72-12.63-1.52-18.97-4.32,1.96-2,4.05-2.89,6.38-2.99l101.2-4.11c2.84-.12,4.99-2.75,5.26-4.91s-1.66-4.97-4.51-5.39c-20.64-3.04-40.79-3.65-61.77-4.12l-43.02-.97c-8.99-.2-17.66-.74-26.25-2.43-5.27-2.34-9.09-6.1-7.19-12.15,6.32-4.56,14-10.05,22.15-10.68l42.14-3.25,13.58-3.08c1.28-.29,3.44-2.57,3.46-3.82.13-6.4-15.72-5.46-26.84-5.7l-20.1-.42c-8.28-.51-16.2-1.81-23.92-4.51l-36.11-2.38-2.58-1.46c-.55-.31-.5-3.19.11-3.38,14.25-4.45,27.94-1.19,35.12-4.21,5.02-2.11,9.16-5.03,14.89-6.1l15.71-2.96c1.05-.2,2.74-2.96,2.71-4.04-.3-10.18-59.58-3.79-66.02-13.09-.55-.8.93-3.52,1.96-3.76l14.42-3.43c15.25-3.62,29.94-3.66,45.83-3.36l-23.33-3.49-23.22-5.79c-.03-.79-.06-1.69-.04-1.07l6.52-1.32,3.98-.28,2.51,1.29c.73.22,2.5-.73,2.51-1.48h292.49c21.44-51.39,15.78-105.35-14.83-151.37-18.02-27.1-43.22-48.02-73.25-60.63-34.75-14.59-71.92-16.44-107.97-6.23-70.57,19.99-120.06,84.99-119.59,158.69.13,20.63,5.21,40.06,11.81,59.12l-32.74.11-79.6.21c-17.2-15.94-33.47-18.75-57.51-18.14l-19.64-15.38c-5.18-4.05-8.11-7.43-15.3-7l-44.95,2.71c-3.23.19-5.42-2.05-7.25-4.4l-4.77-6.1-11.63-11.67c-5.94-5.96-23.44-3.03-34.66.15-4.47-2-7.52-7.1-10.1-11.07-13.46-20.66-24.97-14.38-36.36-15.77l-22.53-2.75-7.73-11.13c-1.6-2.3-4.53-4.33-6.91-4.99Z"/>
    <path class="cls-3" d="M962.43,875.5v550H52.43v-514l169.58-.43c-15.79-9.75-34.07-11.64-51.55-14.46-7.88-4.12-13.24-11.27-15.12-20.2l176.43-.37,79.6-.21,32.74-.11,2.34.9-6.52,1.32c-.02-.62.01.28.04,1.07l23.22,5.79,23.33,3.49c-15.89-.3-30.58-.26-45.83,3.36l-14.42,3.43c-1.04.25-2.51,2.97-1.96,3.76,6.44,9.29,65.72,2.91,66.02,13.09.03,1.08-1.66,3.84-2.71,4.04l-15.71,2.96c-5.74,1.08-9.87,4-14.89,6.1-7.18,3.01-20.87-.24-35.12,4.21-.6.19-.66,3.07-.11,3.38l2.58,1.46,36.11,2.38c7.72,2.7,15.63,4,23.92,4.51l20.1.42c11.11.23,26.96-.7,26.84,5.7-.02,1.24-2.18,3.53-3.46,3.82l-13.58,3.08-42.14,3.25c-8.14.63-15.82,6.12-22.15,10.68-1.91,6.05,1.91,9.81,7.19,12.15,8.59,1.69,17.26,2.23,26.25,2.43l43.02.97c20.98.47,41.13,1.08,61.77,4.12,2.85.42,4.79,3.13,4.51,5.39s-2.42,4.79-5.26,4.91l-101.2,4.11c-2.33.09-4.42.99-6.38,2.99,6.34,2.8,12.82,2.6,18.97,4.32l25.06,7.01c3.02.84,8.53,2.29,8.35,6.19-.42,8.86-29.16,10.48-42.81,11.8l-34.03,3.29-37.84,1.44-39.94-.02-36.28,2.09c-.85.05-2.51,1.36-2.81,2-1.57,3.35,8.08,3.86,15.73,4.16l13.15.52,45.46,1.22,8.22-2.09,13.92,3.24,29.39,8.33c14.17,2.89,28.43,3.67,42.98,3.98,13.79.29,26.33,2.93,39.78,5.09,14.53,2.34,38.46,1.68,42.71,8.81.71,1.19-1.28,4.44-2.7,5.01-13.71,5.55-27.74,7.33-42.6,8.45l-8.23,1.47-24.72,5.38c-3.43.75-5.98,3.55-7.84,6.84,9.27,7.97,25.66,13.61,37.46,15.17l21.68,2.87c.59.95,1.02,1.73,1.29,1.42l1.51-1.76c37.55,4.81,75.16,2.56,111.8-7.48l36.89-2.01c18.39,1.53,36.34,1.79,54.52-.76,2.65-.37,5.51-1.68,9.08-3.02-3.62-2.5-7.51-3.78-11.72-4.23l-55.01-5.8c-8.87-.94-16.12-4.94-24.21-7.85-4.46-1.6-10.81-1.52-15.57-2.24l-12.49-1.88-11.13-1.7c-4.93-.75-9.79-.65-14.23-2.9-2.57-1.3-4.61-6.13-2.51-7.94,6.48-5.57,14.54-6.87,22.43-8.68l24.42-5.59,14.87-3.23c1.49-.32,4.19-2.88,4.29-4.38.09-1.32-.57-4.21-.93-6.22,4.27-4.63,11.88-5.4,18.11-5.95l26.04-2.29,28.72-4.14,23.74-8.77c-6.57-2.16-12.56-3.01-19.41-3.81l-13.96-1.62-44.62-1.73c-6.57-3.19-13.75-5.16-21.13-4.22-5.75.9-10.98-1.65-16.42-2.97-17.18-4.16-35.63.47-51.51-8.44-1.37-.77-1.68-4.58-.92-5.71.65-.97,2.62-2.92,3.83-3.06l28.75-3.2,18.31-2.28,34.76-2.94c9.65-.82,29.29-6.49,28.28-14.1-.23-1.73-2.17-5.24-4.16-5.82l-14.82-4.29-6.69-3.03-35.47-2.99-8.16-2.61c-1.48-.47-3.53-2.8-3.37-4.15s2.47-3.95,4.02-4.07l27.37-2.13,48.36-2.08c3.46-.15,7.33-2.2,10.66-3.24s8.35-1.23,9.75-5.56c.52-1.79-3.47-4.5-5.29-4.98l-11.95-3.11-15.75-2.75-25.02-2.57c-3.28-.34-9.66-.77-9.91-5.39-.17-3.23,5.72-4.99,8.79-5.18,18.12-1.1,35.31-2.38,53.12-5.59,1.64-.3,3.97-2.3,4.37-3.58s-1.45-4.65-2.89-5.07l-16.79-4.84,6.71-1.15c-2.41-1.37-6.63.36-9.24.18l-14.38-1.01,8.97-2.17c5.8-.07,11.03-2.97,15.2-6.53l22.36-.3,29.84-.4,7.98-.03,35.36-.09,11.71.31,68.91-.2,34.04-.14ZM240.38,923.8c8.53.19,16.17-.16,24.76-1.75-4.12-4.44-8.44-6.17-13.64-6.65l-18.09-1.65c-18.65.73-36.43,4.19-54.97,5.67l-24.94,1.99c8.36,1.86,15.75.85,23.98,1.03l62.9,1.37ZM336.88,922.68l11.55-.45-.02-1.48-9.9-.4c-4.66-1.2-9.19-2.02-14.08-1.65l-32.84,2.45c4.21,2.09,8.55,1.14,12.84,1.19l32.45.35ZM143.43,921.5v1h8.5v-1h-8.5ZM274.99,941.6c7.18.17,13.06-.1,20.02-2.13-3.11-3.23-6.55-3.3-10.59-3.71-14.62-1.49-28.92-2.14-43.36.44-10.44,1.87-20.5.96-30.72,1.76l14.18,1.08,20.97,1.86,29.49.7ZM814.96,980.29l-11.56-.78-18.2-.33c-9.9.88-19.76-.26-30.24,4.21,26.78,6.57,54.06,4.93,81.27.48-6.95-3.31-13.78-3.08-21.27-3.58ZM223.12,1001.6c1.98.09,4.77-.8,5.88-1.32l8.33,2.59-4.5-3.93c1.77-1.2,2.68-3.29,3.42-6.16.57-2.2,4.95-2.94,8.44-3.98-1.23-1.62-4.34-2.28-7.23-2.56-3.88-.09-7.01.49-9.97,2.52l-20.44.42-19.8,1.67-14.13,1.25c-3.45.3-5.66,1.63-8.53,4.84,4.95,1.7,8.88,2.37,13.83,2.61l22.04,1.07,22.64.99ZM257.01,989.63l.44-2.08-7.17,1.53,6.73.55ZM641.86,1182.42l7.12-1.29,34.85-3.08,37.98-1.36,13.21-1.93c2.86-.42,5.78-1.88,9.52-3.71-7.55-3.84-14.93-4.57-23.02-5.06l-27.12-1.63c-15.77-.95-31.05-1.32-46.52-4.36l-26.19-5.14-23.36-2.14-58.94.95-62.96,2.23c-19.33-.3-37.65,1.13-56.63,3.73-1.8.25-4.5,2.25-4.82,4.11,3.74,2.9,8.86,4.07,13.68,4.73,22.47,3.09,44.49,4.12,67.13,4.66,10.55.25,20.41,2.58,29.77,7.29,6.75,3.39,13.82,5.39,21.48,5.61l56.49,1.63c13.06.38,25.13-2.84,38.33-5.24ZM658.07,1212.95c10.51,1.79,20.27,1.86,29.9-2.43-3.16-1.57-6.05-2.4-9.51-2.55l-13.95-.59-18.35,3.55,11.92,2.03ZM644.09,1211.98l-.65.02.65.02h.68l.65-.02-.65-.02h-.68ZM675.35,1225.18c-3.28-1.32-6.7-2.6-8.8-2.52l-23.16.87.07,1.63,12.68.7c2.02.11,6.16,2.02,8.29,1.58l10.93-2.25ZM630.2,1235.2c-20.48-4-39.44-3.3-59.31.3,18.99,4.82,41.75,5.54,59.31-.3Z"/>
    <g>
      <path class="cls-1" d="M331.77,876.04l-176.43.37c1.88,8.94,7.24,16.08,15.12,20.2,17.48,2.82,35.76,4.71,51.55,14.46l-169.58.43v-141c2.38.66,5.32,2.69,6.91,4.99l7.73,11.13,22.53,2.75c11.39,1.39,22.9-4.89,36.36,15.77,2.59,3.97,5.64,9.07,10.1,11.07,11.23-3.18,28.72-6.11,34.66-.15l11.63,11.67,4.77,6.1c1.83,2.34,4.02,4.59,7.25,4.4l44.95-2.71c7.2-.43,10.13,2.94,15.3,7l19.64,15.38c24.04-.61,40.31,2.2,57.51,18.14Z"/>
      <g>
        <path class="cls-2" d="M455.44,876.14l-5.01.19-3.98.28-2.34-.9c-6.6-19.06-11.68-38.49-11.81-59.12-.46-73.7,49.02-138.7,119.59-158.69,36.05-10.21,73.22-8.36,107.97,6.23,30.03,12.61,55.23,33.53,73.25,60.63,30.6,46.02,36.26,99.98,14.83,151.36h-292.49Z"/>
        <path class="cls-3" d="M455.44,876.14c0,.75-1.78,1.7-2.51,1.48l-2.51-1.29,5.01-.19Z"/>
      </g>
    </g>
    <path class="cls-5" d="M641.86,1182.42c-13.21,2.4-25.27,5.61-38.33,5.24l-56.49-1.63c-7.66-.22-14.72-2.22-21.48-5.61-9.36-4.7-19.21-7.04-29.77-7.29-22.63-.54-44.65-1.57-67.13-4.66-4.82-.66-9.94-1.83-13.68-4.73.32-1.87,3.01-3.87,4.82-4.11,18.98-2.6,37.3-4.04,56.63-3.73l62.96-2.23,58.94-.95,23.36,2.14,26.19,5.14c15.46,3.04,30.75,3.41,46.52,4.36l27.12,1.63c8.1.49,15.47,1.22,23.02,5.06-3.75,1.83-6.66,3.3-9.52,3.71l-13.21,1.93-37.98,1.36-34.85,3.08-7.12,1.29Z"/>
    <path class="cls-5" d="M223.12,1001.6l-22.64-.99-22.04-1.07c-4.95-.24-8.87-.91-13.83-2.61,2.87-3.21,5.08-4.54,8.53-4.84l14.13-1.25,19.8-1.67,20.44-.42c2.96-2.03,6.09-2.61,9.97-2.52,2.89.29,5.99.95,7.23,2.56-3.49,1.04-7.87,1.78-8.44,3.98-.74,2.87-1.65,4.97-3.42,6.16l4.5,3.93-8.33-2.59c-1.11.52-3.9,1.41-5.88,1.32Z"/>
    <path class="cls-1" d="M240.38,923.8l-62.9-1.37c-8.23-.18-15.62.84-23.98-1.03l24.94-1.99c18.53-1.48,36.32-4.93,54.97-5.67l18.09,1.65c5.2.47,9.52,2.2,13.64,6.65-8.59,1.59-16.23,1.94-24.76,1.75Z"/>
    <path class="cls-5" d="M814.96,980.29c7.49.51,14.32.28,21.27,3.58-27.21,4.45-54.48,6.08-81.27-.48,10.47-4.47,20.33-3.33,30.24-4.21l18.2.33,11.56.78Z"/>
    <path class="cls-1" d="M274.99,941.6l-29.49-.7-20.97-1.86-14.18-1.08c10.22-.8,20.28.11,30.72-1.76,14.44-2.59,28.74-1.93,43.36-.44,4.04.41,7.49.48,10.59,3.71-6.97,2.03-12.85,2.3-20.02,2.13Z"/>
    <path class="cls-5" d="M630.2,1235.2c-17.57,5.84-40.32,5.11-59.31.3,19.87-3.6,38.83-4.29,59.31-.3Z"/>
    <path class="cls-5" d="M658.07,1212.95l-11.92-2.03,18.35-3.55,13.95.59c3.47.15,6.35.98,9.51,2.55-9.63,4.29-19.39,4.22-29.9,2.43Z"/>
    <path class="cls-1" d="M336.88,922.68l-32.45-.35c-4.29-.05-8.63.9-12.84-1.19l32.84-2.45c4.89-.36,9.42.45,14.08,1.65l9.9.4.02,1.48-11.55.45Z"/>
    <path class="cls-5" d="M675.35,1225.18l-10.93,2.25c-2.13.44-6.27-1.47-8.29-1.58l-12.68-.7-.07-1.63,23.16-.87c2.11-.08,5.52,1.2,8.8,2.52Z"/>
    <rect class="cls-1" x="143.43" y="921.5" width="8.5" height="1"/>
    <polygon class="cls-5" points="257.01 989.63 250.28 989.09 257.45 987.56 257.01 989.63"/>
    <polygon class="cls-5" points="644.09 1211.98 644.76 1211.98 645.42 1212 644.76 1212.02 644.09 1212.02 643.44 1212 644.09 1211.98"/>
  </g>
  <g>
    <path class="cls-6" d="M136.73,133.51c-.78-1.05-1.84-1.85-3.18-2.37-1.34-.53-2.91-.79-4.69-.79s-3.38.28-4.72.84c-1.34.56-2.38,1.35-3.11,2.36-.73,1.01-1.1,2.17-1.1,3.48,0,1.92.77,3.41,2.32,4.46,1.55,1.05,3.57,1.91,6.08,2.57l4.57,1.2c4.35,1.05,7.84,2.73,10.46,5.03,2.62,2.3,3.94,5.5,3.96,9.6,0,2.98-.74,5.6-2.22,7.88-1.48,2.27-3.61,4.04-6.4,5.31-2.79,1.27-6.12,1.9-10,1.9s-7.09-.62-9.9-1.85c-2.81-1.23-4.99-3.03-6.55-5.4-1.56-2.37-2.4-5.21-2.54-8.54h8.66c.14,1.73.67,3.19,1.59,4.38.92,1.18,2.13,2.07,3.62,2.67s3.17.9,5.04.9,3.66-.3,5.15-.91c1.49-.61,2.65-1.47,3.47-2.58.82-1.11,1.24-2.38,1.24-3.81,0-1.27-.35-2.34-1.05-3.22-.7-.88-1.69-1.61-2.96-2.2-1.28-.59-2.88-1.14-4.82-1.65l-5.58-1.48c-4.2-1.15-7.42-2.84-9.66-5.06-2.25-2.23-3.37-5.11-3.37-8.65,0-2.95.78-5.56,2.34-7.82,1.56-2.26,3.7-4.02,6.43-5.27,2.73-1.25,5.8-1.88,9.21-1.88s6.44.62,9.09,1.86c2.65,1.24,4.72,2.97,6.21,5.19s2.27,4.75,2.34,7.61h-8.53c-.14-1.43-.59-2.67-1.37-3.73Z"/>
    <path class="cls-6" d="M193.7,123.28v33.29c0,3.59-.82,6.77-2.47,9.54-1.65,2.78-3.97,4.95-6.97,6.5-3,1.56-6.48,2.34-10.42,2.34s-7.42-.78-10.42-2.34c-3-1.56-5.33-3.73-6.97-6.5-1.65-2.78-2.47-5.96-2.47-9.54v-33.29h8.8v32.52c0,2.11.46,4,1.37,5.66.91,1.66,2.21,2.97,3.89,3.92,1.68.95,3.62,1.42,5.8,1.42s4.19-.47,5.86-1.42c1.67-.95,2.95-2.26,3.84-3.92.89-1.66,1.34-3.55,1.34-5.66v-32.52h8.83Z"/>
    <path class="cls-6" d="M242.35,174.19h-7.82l-23.19-34.77h-.44v34.77h-8.8v-50.91h7.92l23.12,34.8h.44v-34.8h8.77v50.91Z"/>
    <path class="cls-6" d="M276.03,133.51c-.78-1.05-1.84-1.85-3.18-2.37-1.34-.53-2.91-.79-4.69-.79s-3.38.28-4.72.84c-1.34.56-2.38,1.35-3.11,2.36-.73,1.01-1.1,2.17-1.1,3.48,0,1.92.77,3.41,2.32,4.46,1.55,1.05,3.57,1.91,6.08,2.57l4.57,1.2c4.35,1.05,7.84,2.73,10.46,5.03,2.62,2.3,3.94,5.5,3.96,9.6,0,2.98-.74,5.6-2.22,7.88-1.48,2.27-3.61,4.04-6.4,5.31-2.79,1.27-6.12,1.9-10,1.9s-7.09-.62-9.9-1.85c-2.81-1.23-4.99-3.03-6.55-5.4-1.56-2.37-2.4-5.21-2.54-8.54h8.66c.14,1.73.67,3.19,1.59,4.38.92,1.18,2.13,2.07,3.62,2.67s3.17.9,5.04.9,3.66-.3,5.15-.91c1.49-.61,2.65-1.47,3.47-2.58.82-1.11,1.24-2.38,1.24-3.81,0-1.27-.35-2.34-1.05-3.22-.7-.88-1.69-1.61-2.96-2.2-1.28-.59-2.88-1.14-4.82-1.65l-5.58-1.48c-4.2-1.15-7.42-2.84-9.66-5.06-2.25-2.23-3.37-5.11-3.37-8.65,0-2.95.78-5.56,2.34-7.82,1.56-2.26,3.7-4.02,6.43-5.27,2.73-1.25,5.8-1.88,9.21-1.88s6.44.62,9.09,1.86c2.65,1.24,4.72,2.97,6.21,5.19s2.27,4.75,2.34,7.61h-8.53c-.14-1.43-.59-2.67-1.37-3.73Z"/>
    <path class="cls-6" d="M293.26,123.28h31.85v7.7h-23.05v13.92h21.39v7.63h-21.39v13.96h23.19v7.7h-31.98v-50.91Z"/>
    <path class="cls-6" d="M330.67,123.28h39.09v7.7h-15.13v43.21h-8.77v-43.21h-15.2v-7.7Z"/>
  </g>
  <path class="cls-4" d="M995.03,1473.25h-21.01s-2.17-9.64-2.17-9.64c-1.58-5.67-8.58-8.02-13.84-7.94-5.1.08-11.63,3.13-12.84,9.04l-2.14,8.55h-23.01c.11-3.29-.08-8.41-2.14-11.5-5.22-7.82-17.13-8.23-23.5-1.54-3.2,3.36-3.6,9.02-4.34,13.04h-22.01s-.92-5.71-.92-5.71c-1.41-6.72-5.96-11.1-13.02-11.84-4.63-.48-9.91,1.01-12.6,4.24-3.14,3.77-3.91,9.04-3.45,13.3h-25c1.64-4.68.91-9.77-3.14-13.62-6.73-6.39-19.16-5.31-23.39,3.63l-3.46,10h-21.01s-1.74-8.09-1.74-8.09c-1.74-6.86-8.71-9.9-15.13-9.49-6.4.4-11.72,5.32-13.29,11.98l-1.83,5.6h-22.01c-.04-3.65-.64-8.45-2.69-11.93-2.63-4.48-8.49-5.9-13.18-5.59-4.25.29-10.31,2.45-11.77,7.38l-3.35,10.14h-22.01s-1.81-9.79-1.81-9.79c-1.3-5.44-7.7-7.78-12.34-7.76-5.35.02-11.15,1.93-13.79,7.3-1.44,2.93-1.72,7.24-2.06,10.25h-23.6c.82-5.9-.88-12.08-6.14-15.29-4.9-2.99-11.63-3.08-16.69.01-4.96,3.04-6.6,9.59-6.57,15.27h-23.6c.8-5.46-1.22-12.19-6.12-15.29s-11.75-3.09-16.57.05c-4.93,3.21-6.76,9.49-6.71,15.24h-22s-2.01-8.87-2.01-8.87c-1.26-4.67-6.8-7.88-10.68-8.47-5.13-.77-10.62.16-14.04,4.25-2.99,3.58-3.67,8.87-4.27,13.09h-22.01c-.31-3.31-1.11-7.66-2.67-10.84-2.6-5.29-8.22-6.98-13.32-6.75-4.84.21-11.15,2.05-12.46,7.72l-2.54,9.87h-23.01c.45-3.49,0-8.28-2.03-11.57-3.86-6.26-12.18-7.3-18.42-4.84-6.48,2.56-9.21,9.62-9.53,16.41h-22.01s-2.23-9.55-2.23-9.55c-1.32-4.57-6.67-7.2-10.45-7.8-5-.79-10.6.29-13.91,4.36-2.95,3.63-3.56,8.78-4.4,12.99h-24.01c1.72-5.13.32-11.57-4.6-14.92-7.58-5.15-19.93-3.01-22.47,6.14l-2.92,8.78h-22.01s-1.01-6.72-1.01-6.72c-1.71-8.45-10.03-12.34-17.62-10.68s-12.18,9.51-11.36,17.4h-25c1.39-5.06.68-10.97-4.1-14.51-6.52-4.84-17.42-4.31-21.7,3.2-1.93,3.39-2.73,8-4.19,11.31h-22.01s-2.26-10.21-2.26-10.21c-1.63-5.95-8.2-7.68-13.64-7.33-5.02.32-11.16,2.75-12.58,8.62l-2.51,8.93h-22.01s-1.72-8.1-1.72-8.1c-2.06-7.89-10.67-10.63-17.57-8.99-7.78,1.85-11.4,9.55-10.7,17.08l-23,.04-.89-7.76c-1.18-6.66-7.83-9.38-14.73-10.49l.15-19.44,6.39-1.94c7.74-2.35,10.89-9.91,9.57-16.95-1.44-7.67-8.69-11.27-16.51-11.68l.27-16.02c.04-2.14,1.63-3.64,3.9-3.91,8.54-1.01,13.21-7.79,12.57-15.84-1.24-15.53-16.89-10.37-16.71-16.74l.47-16.15c9.54-.26,16.52-6.13,16.39-14.63-.14-8.88-6.56-15.3-16.47-14.75l-.24-16.96c-.07-4.66,17.09-1.48,16.74-18.93-.56-7.43-6.35-13.43-14.92-13.19-.69-.49-1.81-2.48-1.8-3.56l.08-14.67c0-.64,2.4-2.01,2.74-2.04,8.69-.22,14.27-6.79,13.94-14.79.03-7.38-5.7-13.44-13.96-13.92-.49-.13-2.71-2.13-2.71-2.96l.13-16.07c4.64-1.35,9.06-1.89,11.98-4.56,6.07-5.55,6.12-15.73.25-21.25-3.04-2.85-7.56-3.59-12.12-4.34l-.43-15.76c-.04-1.58,1.57-3.67,3.29-3.75,9.18-.45,14.17-7.98,13.48-16.14s-7.25-13.06-16.4-12.97l-.24-15.11c-.03-1.71,1.59-4.41,3.31-4.58,9.23-.88,14.2-8,13.32-16.33-.85-7.98-7.15-12.97-16.39-13.05l-.09-19.41c10.02.52,16.07-5.57,16.61-13.9.5-7.84-5.37-14.46-13.75-15.11-1.13-.09-3.17-2.14-3.12-3.33l.69-16.14c7.82-.53,12.5-3.58,14.86-9.31,2.16-5.26,1.74-11.72-2.81-16.27-2.89-2.89-7.48-3.76-12.46-4.76v-19.13c9.93.28,16.46-5.56,16.51-14.03.56-8.33-5.4-14.76-14.61-14.98-.25-.15-2.03-2.24-2.02-2.83l.19-16.29c7.43-.87,12.99-3.57,15.3-9.52,2.17-5.58,1.6-12.52-3.4-16.89-2.81-2.46-7.7-3.16-12.01-3.95l-.1-19.19c9.97.35,16.78-6.2,16.68-15.11-.09-8.93-6.43-14.57-16.56-14.7l.05-19.47c10.83.38,16.7-6.96,16.53-15.8-.17-8.89-7.93-13.93-16.78-13.79l.09-19.17c9.86.2,16.78-6.11,16.7-15.06-.09-9.25-7.52-14.59-16.83-14.73l.15-19.16c9.95.35,17.02-5.86,16.74-15.06-.26-8.55-7.17-14.61-16.83-14.43l.1-19.32c9.16.2,16.79-5.95,16.59-14.35.34-8.63-6.34-14.98-15.65-15.17-.17-.25-1.15-2.24-1.14-2.74l.03-13.75c0-.88,1.25-2.88,1.9-3.3,9.48-.14,15.71-7.36,14.79-15.7-.5-8.45-7.38-13.58-16.61-13.86l.02-16.76c0-.8,1.51-2.64,1.92-2.75,9.29.02,15.68-7.46,14.68-15.63-.33-8.53-7.37-13.46-16.69-13.63l.29-19.05c10.14-.29,16.89-6.37,16.61-15.63-.26-8.3-6.9-14.42-16.68-14.65l.08-19.35c10,.17,15.77-5.31,16.59-13.25.79-7.58-4.6-14.3-12.39-15.3-1.39-.18-4.32-1.77-4.31-3.13l.08-16.6c9.54-.65,15.85-5.75,16.59-13.98s-4.83-14.66-13.04-15.56c-.98-.11-3.54-1.92-3.54-2.93l.12-16.62c9.55-.66,15.73-5.29,16.47-13.87,1.37-15.84-16.49-14.51-16.52-18.53l-.07-12.79c-.01-2.33,1.49-4.24,3.56-4.47,8.49-.93,13.24-7.29,13.03-14.97-.2-7.23-5.31-12.81-13.48-13.73-1.72-.19-3.2-2.8-3.17-4.58l.27-15.08c9.88-.33,16.64-6.42,16.37-15.49-.25-8.5-6.81-14.19-16.47-14.68v-18.72c7.04-.27,12.39-3.42,14.92-8.76s1.98-12.48-2.81-16.77c-3.22-2.88-7.49-3.74-12.38-4.86l.42-17.54,10.29-3.76c7.36-5.6,8.22-17.24,1.18-23.23-3.06-2.61-7.14-3.39-11.57-4.76l-.16-17.8c3.82-1.01,8.12-1.52,11.08-3.76,6.3-4.75,7.14-14.55,2.66-20.65-3.22-4.38-8.48-5.33-13.82-6.16l-.09-19.11c7.65.18,13.74-3.31,15.83-9.91,1.8-5.69.82-13.21-5.15-16.69-2.84-1.66-6.36-2.17-10.54-3.04l-.03-16.15c9.25-.85,14.53-6.74,15.22-15.21.98-1.52,4.79-1.24,6.73-1.26l14.5-.19c0,10.52,6.35,17.38,16.02,17.02,8.84-.33,14.64-7.74,14.76-17.25,12.41,1.91,23.06-2.13,23.17,2.73.19,8.58,7.52,15.2,16.05,14.6s14.56-7.44,14.28-16.97h23.58c-.43,9.42,5.76,16.35,14.42,16.75,7.98.37,15.3-5.08,15.58-14.1.13-4.34,7.31-2.21,19.9-2.68.96-.04,3.32.26,3.47,1.12l.54,3.06c1.56,8.78,8.7,13.67,17.02,12.53,7.56-1.03,13.53-7.97,12.72-16.56l20.31-.14c2.46-.02,3.67,1.63,3.89,4.33.72,8.72,9.09,13.57,17.02,12.44s13.16-8.04,12.74-16.73l23.11.03c.38,5.68,2,11.27,5.85,13.89,4.17,2.83,9.16,3.69,13.99,2.2,5.73-1.77,9.52-5.8,9.8-12.16.32-7.23,9.36-2.21,23.27-4.39-.04,9.68,6.27,17.68,15.48,17.31,9.06-.36,15.22-6.58,15.26-16.73l9.37-.06,13.25-.08c.15,6.48,2.08,11.19,6.37,14.3,4.18,3.03,9.8,3.24,14.69,1.27,6.29-2.53,8.95-7.47,9.06-15.1l8.64-.39,14.11-.12c.42,5.19.94,9.52,3.95,12.72,2.31,2.45,7.07,4.2,10.79,4.16,9.45-.1,15.85-7.06,14.94-16.83l15.23.03c2.46,0,5.4.08,7.58.52-.08,9.2,5.18,15.58,13.08,16.3s15.47-3.94,16.41-12.65c.14-1.29.48-2.93.82-3.74s3.05-.5,3.99-.51l15.23-.19c1.22-.02,3.73,1.5,3.73,2.63,0,8.68,6.55,15.03,15.11,14.43,8.01-.14,14.67-6.03,13.89-14.67.3-.65,2.34-2.25,3.24-2.25l17.63.05c.7,0,2.81,1.46,2.99,1.81.02,9.67,6.99,15.39,15.72,15.05,8.37-.19,14.83-7.42,14.34-16.77l20.64-.12c1.75-.01,2.69,2.94,2.92,5.2.89,8.75,9.84,12.85,17.41,11.41,7.82-1.5,12.42-8.56,12.4-16.83l20.14.18c1.74.02,2.87,3.07,3.08,5.12.9,8.7,9.77,12.91,17.52,11.54,7.77-1.38,12.48-8.6,12.26-16.71l19.82.05c1.26,0,3.18,2.08,3.23,3.21.42,9.47,8.43,14.84,16.9,13.58,7.97-1.18,13.61-8.46,13.06-16.89l19.86.19c1.26.01,3.29,1.95,3.31,3.07.13,8.11,6.05,13.42,13.78,13.72,8.23.32,15.55-4.9,15.7-13.67.03-1.76,2.29-3.19,3.99-3.21l19.05-.25c.02,8.52,5.02,16.19,13,17.11s16.46-3.52,16.9-12.57c.08-1.74,1.48-4.3,3.12-4.32l20.02-.28c-.11,9.75,6.28,17.6,15.5,17.33,9.24-.27,15.04-7.01,15.03-16.93l14.58.07,7.68.31c.03,9.88,5.6,15.22,15.35,16.28l-.02,16.46c-9.98-.18-16.97,5.8-16.88,14.63.09,8.37,6.42,14.67,16.51,14.56l.28,19.58c-9.98-.32-16.89,6.2-16.74,14.84.16,8.78,6.81,14.98,16.8,14.63l.34,19.5c-10.06-.15-17.06,5.64-17.16,14.86s7.03,14.64,16.94,15.09l.03,18.73c-9.7.12-17.24,6.26-16.93,15.18.3,8.76,6.99,14.75,16.75,14.69l.35,15.57c.02.97-1.59,3.27-2.13,3.73-9.24.11-15.53,7.46-14.85,15.79.77,8.54,6.95,13.62,16.77,13.83l-.09,19.54c-10.03-.36-16.18,5.61-16.9,13.92-.02,8.19,5.77,14.97,15.04,15.21.41.11,2.45,2.56,2.41,3.53l-.72,16.19c-10.15-.19-16.96,6.45-16.71,14.97s7.28,14.81,17.02,14.36l-.04,19.6c-9.92-.51-17.23,5.83-16.98,15.04.23,8.4,7.16,14.53,16.9,14.64l.1,18.42-8.53,2.4c-6.53,1.84-9.3,9.85-8.2,16.09,2.3,13.1,17.02,9.73,16.91,14.81l-.36,16.09c-9.45.37-15.97,5.52-16.79,13.73-.84,8.39,5.07,15.41,13.88,16.25,1.22.12,3.31,2.7,3.28,3.99l-.4,15.53c-10.13-.06-16.17,5.63-16.79,14.16-.57,7.79,5.86,14.47,14,14.98,1.19.07,3.18,2.21,3.18,3.57l-.07,15.93c-7.39.1-12.57,3.06-15.4,8.44s-2.22,12.47,2.69,17.13c3.1,2.95,7.67,3.77,12.59,4.55l.36,18.94c-8,.19-13.63,3.07-16,9.01s-1.83,12.89,3.46,17c3.21,2.49,7.23,3.17,12.09,4.27l.27,18.87c-10.13-.21-16.66,5.51-17.06,14.37s6.25,15.39,16.67,14.93l.04,19.79c-10.43-.55-16.89,6.38-16.66,15.02.22,8.55,7.43,14.61,16.84,14.16l.26,19.7c-10.24-.61-17.5,5.75-17.17,15.11.3,8.43,7.38,14.13,16.97,14.32l-.14,18.87c-4.79,1.04-8.96,1.83-12.02,4.38-5.34,4.46-6.06,11.88-3.19,17.58,2.77,5.51,8.15,8.11,15.34,8.24v19.36c-9.29-.09-16.16,5.09-16.9,13.58-.66,7.61,4.83,14.99,13.29,15.63,1.91.15,4.06,2.58,3.99,4.39l-.64,15.65c-10.52-.53-17.19,6.31-16.71,14.99s6.67,14.42,16.63,13.91l.37,19.82c-9.47-.41-16.37,4.98-16.96,13.46-.54,7.7,4.86,14.91,13.36,15.68,1.27.12,3.77,2.33,3.74,3.57l-.36,15.62c-4.22,1.13-7.9,1.82-10.87,3.67-5.83,3.64-7.13,11.23-4.87,17.04s7.84,9.27,15.77,9.35l.22,19.59c-10.18-.27-17.44,5.96-17,15.25.41,8.57,7.33,14.24,17,14.18l-.19,19.39c-10.34-.39-17.29,6.11-16.88,15.45.37,8.5,7.49,13.99,17.05,14.21l-.18,19.04c-7.72.19-13.06,3.01-15.55,8.54s-1.7,12.72,3.52,16.98c3.06,2.5,7.18,3.22,11.98,4.54l.26,16c.01.8-2.38,2.86-2.83,2.98-8.8.14-14.31,6.83-14.28,14.78,1.77,17.21,17.2,11.59,17.14,17.44l-.14,16.18c-6.73.53-12.17,2.88-15.01,7.76-3.08,5.29-2.83,11.85,1.45,16.77,2.98,3.43,8.12,4.84,12.74,6.26,1.65,5.67,1.46,12.74.42,18.74-9.75-.14-16.73,6.18-16.55,14.91.18,8.36,6.57,15,16.6,14.19.65,6.55.76,13.18.09,19.94-9.68-.18-16.18,5.66-16.66,13.94-.47,8.1,4.92,14.75,13.87,15.39,1.36.1,3.34,2.41,3.3,3.65l-.52,16.64c-10.38-.57-16.89,6.35-16.65,15.08.24,8.58,7.49,14.22,16.93,14.15l-.14,20.06c-12.24,3.22-13.9,6.93-16.4,18.4ZM962.42,48.4H52.43v1376.87h910V48.4Z"/>
</svg>