<?xml version="1.0" encoding="UTF-8"?>
<svg id="_레이어_1" data-name="레이어 1" xmlns="http://www.w3.org/2000/svg" viewBox="0 0 1014 1474">
  <defs>
    <style>
      .cls-1 {
        fill: #03945e;
      }

      .cls-2 {
        fill: #fffbf8;
      }

      .cls-3 {
        fill: #0371ab;
      }

      .cls-4 {
        fill: #f5f5f5;
      }
    </style>
  </defs>
  <path class="cls-2" d="M995.39,1473.24h-21.01l-2.17-9.64c-1.58-5.67-8.58-8.02-13.84-7.94-5.1.08-11.63,3.13-12.84,9.04l-2.14,8.55h-23.01c.11-3.29-.08-8.41-2.14-11.5-5.22-7.82-17.13-8.23-23.5-1.54-3.2,3.36-3.6,9.02-4.34,13.04h-22.01l-.92-5.71c-1.41-6.72-5.96-11.1-13.02-11.84-4.63-.48-9.91,1.01-12.6,4.24-3.14,3.77-3.91,9.04-3.45,13.3h-25c1.64-4.68.91-9.77-3.14-13.62-6.73-6.39-19.16-5.31-23.39,3.63l-3.46,10h-21.01l-1.74-8.09c-1.74-6.86-8.71-9.9-15.13-9.49-6.4.4-11.72,5.32-13.29,11.98l-1.83,5.6h-22.01c-.04-3.65-.64-8.45-2.69-11.93-2.63-4.48-8.49-5.9-13.18-5.59-4.25.29-10.31,2.45-11.77,7.38l-3.35,10.14h-22.01l-1.81-9.79c-1.3-5.44-7.7-7.78-12.34-7.76-5.35.02-11.15,1.93-13.79,7.3-1.44,2.93-1.72,7.24-2.06,10.25h-23.6c.82-5.9-.88-12.08-6.14-15.29-4.9-2.99-11.63-3.08-16.69.01-4.96,3.04-6.6,9.59-6.57,15.27h-23.6c.8-5.46-1.22-12.19-6.12-15.29s-11.75-3.09-16.57.05c-4.93,3.21-6.76,9.49-6.71,15.24h-22l-2.01-8.87c-1.26-4.67-6.8-7.88-10.68-8.47-5.13-.77-10.62.16-14.04,4.25-2.99,3.58-3.67,8.87-4.27,13.09h-22.01c-.31-3.31-1.11-7.66-2.67-10.84-2.6-5.29-8.22-6.98-13.32-6.75-4.84.21-11.15,2.05-12.46,7.72l-2.54,9.87h-23.01c.45-3.49,0-8.28-2.03-11.57-3.86-6.26-12.18-7.3-18.42-4.84-6.48,2.56-9.21,9.62-9.53,16.41h-22.01l-2.23-9.55c-1.32-4.57-6.67-7.2-10.45-7.8-5-.79-10.6.29-13.91,4.36-2.95,3.63-3.56,8.78-4.4,12.99h-24.01c1.72-5.13.32-11.57-4.6-14.92-7.58-5.15-19.93-3.01-22.47,6.14l-2.92,8.78h-22.01l-1.01-6.72c-1.71-8.45-10.03-12.34-17.62-10.68s-12.18,9.51-11.36,17.4h-25c1.39-5.06.68-10.97-4.1-14.51-6.52-4.84-17.42-4.31-21.7,3.2-1.93,3.39-2.73,8-4.19,11.31h-22.01l-2.26-10.21c-1.63-5.95-8.2-7.68-13.64-7.33-5.02.32-11.16,2.75-12.58,8.62l-2.51,8.93h-22.01l-1.72-8.1c-2.06-7.89-10.67-10.63-17.57-8.99-7.78,1.85-11.4,9.55-10.7,17.08l-23,.04-.89-7.76c-1.18-6.66-7.83-9.38-14.73-10.49l.15-19.44,6.39-1.94c7.74-2.35,10.89-9.91,9.57-16.95-1.44-7.67-8.69-11.27-16.51-11.68l.27-16.02c.04-2.14,1.63-3.64,3.9-3.91,8.54-1.01,13.21-7.79,12.57-15.84-1.24-15.53-16.89-10.37-16.71-16.74l.47-16.15c9.54-.26,16.52-6.13,16.39-14.63-.14-8.88-6.56-15.3-16.47-14.75l-.24-16.96c-.07-4.66,17.09-1.48,16.74-18.93-.56-7.43-6.35-13.43-14.92-13.19-.69-.49-1.81-2.48-1.8-3.56l.08-14.67c0-.64,2.4-2.01,2.74-2.04,8.69-.22,14.27-6.79,13.94-14.79.03-7.38-5.7-13.44-13.96-13.92-.49-.13-2.71-2.13-2.71-2.96l.13-16.07c4.64-1.35,9.06-1.89,11.98-4.56,6.07-5.55,6.12-15.73.25-21.25-3.04-2.85-7.56-3.59-12.12-4.34l-.43-15.76c-.04-1.58,1.57-3.67,3.29-3.75,9.18-.45,14.17-7.98,13.48-16.14s-7.25-13.06-16.4-12.97l-.24-15.11c-.03-1.71,1.59-4.41,3.31-4.58,9.23-.88,14.2-8,13.32-16.33-.85-7.98-7.15-12.97-16.39-13.05l-.09-19.41c10.02.52,16.07-5.57,16.61-13.9.5-7.84-5.37-14.46-13.75-15.11-1.13-.09-3.17-2.14-3.12-3.33l.69-16.14c7.82-.53,12.5-3.58,14.86-9.31,2.16-5.26,1.74-11.72-2.81-16.27-2.89-2.89-7.48-3.76-12.46-4.76v-19.13c9.93.28,16.46-5.56,16.51-14.03.56-8.33-5.4-14.76-14.61-14.98-.25-.15-2.03-2.24-2.02-2.83l.19-16.29c7.43-.87,12.99-3.57,15.3-9.52,2.17-5.58,1.6-12.52-3.4-16.89-2.81-2.46-7.7-3.16-12.01-3.95l-.1-19.19c9.97.35,16.78-6.2,16.68-15.11-.09-8.93-6.43-14.57-16.56-14.7l.05-19.47c10.83.38,16.7-6.96,16.53-15.8-.17-8.89-7.93-13.93-16.78-13.79l.09-19.17c9.86.2,16.78-6.11,16.7-15.06-.09-9.25-7.52-14.59-16.83-14.73l.15-19.16c9.95.35,17.02-5.86,16.74-15.06-.26-8.55-7.17-14.61-16.83-14.43l.1-19.32c9.16.2,16.79-5.95,16.59-14.35.34-8.63-6.34-14.98-15.65-15.17-.17-.25-1.15-2.24-1.14-2.74l.03-13.75c0-.88,1.25-2.88,1.9-3.3,9.48-.14,15.71-7.36,14.79-15.7-.5-8.45-7.38-13.58-16.61-13.86l.02-16.76c0-.8,1.51-2.64,1.92-2.75,9.29.02,15.68-7.46,14.68-15.63-.33-8.53-7.37-13.46-16.69-13.63l.29-19.05c10.14-.29,16.89-6.37,16.61-15.63-.26-8.3-6.9-14.42-16.68-14.65l.08-19.35c10,.17,15.77-5.31,16.59-13.25.79-7.58-4.6-14.3-12.39-15.3-1.39-.18-4.32-1.77-4.31-3.13l.08-16.6c9.54-.65,15.85-5.75,16.59-13.98s-4.83-14.66-13.04-15.56c-.98-.11-3.54-1.92-3.54-2.93l.12-16.62c9.55-.66,15.73-5.29,16.47-13.87,1.37-15.84-16.49-14.51-16.52-18.53l-.07-12.79c0-2.33,1.49-4.24,3.56-4.47,8.49-.93,13.24-7.29,13.03-14.97-.2-7.23-5.31-12.81-13.48-13.73-1.72-.19-3.2-2.8-3.17-4.58l.27-15.08c9.88-.33,16.64-6.42,16.37-15.49-.25-8.5-6.81-14.19-16.47-14.68v-18.72c7.04-.27,12.39-3.42,14.92-8.76,2.53-5.34,1.98-12.48-2.81-16.77-3.22-2.88-7.49-3.74-12.38-4.86l.42-17.54,10.29-3.76c7.36-5.6,8.22-17.24,1.18-23.23-3.06-2.61-7.14-3.39-11.57-4.76l-.16-17.8c3.82-1.01,8.12-1.52,11.08-3.76,6.3-4.75,7.14-14.55,2.66-20.65-3.22-4.38-8.48-5.33-13.82-6.16l-.09-19.11c7.65.18,13.74-3.31,15.83-9.91,1.8-5.69.82-13.21-5.15-16.69-2.84-1.66-6.36-2.17-10.54-3.04l-.03-16.15c9.25-.85,14.53-6.74,15.22-15.21.98-1.52,4.79-1.24,6.73-1.26l14.5-.19c0,10.52,6.35,17.38,16.02,17.02,8.84-.33,14.64-7.74,14.76-17.25,12.41,1.91,23.06-2.13,23.17,2.73.19,8.58,7.52,15.2,16.05,14.6s14.56-7.44,14.28-16.97h23.58c-.43,9.42,5.76,16.35,14.42,16.75,7.98.37,15.3-5.08,15.58-14.1.13-4.34,7.31-2.21,19.9-2.68.96-.04,3.32.26,3.47,1.12l.54,3.06c1.56,8.78,8.7,13.67,17.02,12.53,7.56-1.03,13.53-7.97,12.72-16.56l20.31-.14c2.46-.02,3.67,1.63,3.89,4.33.72,8.72,9.09,13.57,17.02,12.44s13.16-8.04,12.74-16.73l23.11.03c.38,5.68,2,11.27,5.85,13.89,4.17,2.83,9.16,3.69,13.99,2.2,5.73-1.77,9.52-5.8,9.8-12.16.32-7.23,9.36-2.21,23.27-4.39-.04,9.68,6.27,17.68,15.48,17.31,9.06-.36,15.22-6.58,15.26-16.73l9.37-.06,13.25-.08c.15,6.48,2.08,11.19,6.37,14.3,4.18,3.03,9.8,3.24,14.69,1.27,6.29-2.53,8.95-7.47,9.06-15.1l8.64-.39,14.11-.12c.42,5.19.94,9.52,3.95,12.72,2.31,2.45,7.07,4.2,10.79,4.16,9.45-.1,15.85-7.06,14.94-16.83l15.23.03c2.46,0,5.4.08,7.58.52-.08,9.2,5.18,15.58,13.08,16.3s15.47-3.94,16.41-12.65c.14-1.29.48-2.93.82-3.74s3.05-.5,3.99-.51l15.23-.19c1.22-.02,3.73,1.5,3.73,2.63,0,8.68,6.55,15.03,15.11,14.43,8.01-.14,14.67-6.03,13.89-14.67.3-.65,2.34-2.25,3.24-2.25l17.63.05c.7,0,2.81,1.46,2.99,1.81.02,9.67,6.99,15.39,15.72,15.05,8.37-.19,14.83-7.42,14.34-16.77l20.64-.12c1.75,0,2.69,2.94,2.92,5.2.89,8.75,9.84,12.85,17.41,11.41,7.82-1.5,12.42-8.56,12.4-16.83l20.14.18c1.74.02,2.87,3.07,3.08,5.12.9,8.7,9.77,12.91,17.52,11.54,7.77-1.38,12.48-8.6,12.26-16.71l19.82.05c1.26,0,3.18,2.08,3.23,3.21.42,9.47,8.43,14.84,16.9,13.58,7.97-1.18,13.61-8.46,13.06-16.89l19.86.19c1.26,0,3.29,1.95,3.31,3.07.13,8.11,6.05,13.42,13.78,13.72,8.23.32,15.55-4.9,15.7-13.67.03-1.76,2.29-3.19,3.99-3.21l19.05-.25c.02,8.52,5.02,16.19,13,17.11s16.46-3.52,16.9-12.57c.08-1.74,1.48-4.3,3.12-4.32l20.02-.28c-.11,9.75,6.28,17.6,15.5,17.33,9.24-.27,15.04-7.01,15.03-16.93l14.58.07,7.68.31c.03,9.88,5.6,15.22,15.35,16.28l-.02,16.46c-9.98-.18-16.97,5.8-16.88,14.63.09,8.37,6.42,14.67,16.51,14.56l.28,19.58c-9.98-.32-16.89,6.2-16.74,14.84.16,8.78,6.81,14.98,16.8,14.63l.34,19.5c-10.06-.15-17.06,5.64-17.16,14.86s7.03,14.64,16.94,15.09l.03,18.73c-9.7.12-17.24,6.26-16.93,15.18.3,8.76,6.99,14.75,16.75,14.69l.35,15.57c.02.97-1.59,3.27-2.13,3.73-9.24.11-15.53,7.46-14.85,15.79.77,8.54,6.95,13.62,16.77,13.83l-.09,19.54c-10.03-.36-16.18,5.61-16.9,13.92-.02,8.19,5.77,14.97,15.04,15.21.41.11,2.45,2.56,2.41,3.53l-.72,16.19c-10.15-.19-16.96,6.45-16.71,14.97s7.28,14.81,17.02,14.36l-.04,19.6c-9.92-.51-17.23,5.83-16.98,15.04.23,8.4,7.16,14.53,16.9,14.64l.1,18.42-8.53,2.4c-6.53,1.84-9.3,9.85-8.2,16.09,2.3,13.1,17.02,9.73,16.91,14.81l-.36,16.09c-9.45.37-15.97,5.52-16.79,13.73-.84,8.39,5.07,15.41,13.88,16.25,1.22.12,3.31,2.7,3.28,3.99l-.4,15.53c-10.13-.06-16.17,5.63-16.79,14.16-.57,7.79,5.86,14.47,14,14.98,1.19.07,3.18,2.21,3.18,3.57l-.07,15.93c-7.39.1-12.57,3.06-15.4,8.44s-2.22,12.47,2.69,17.13c3.1,2.95,7.67,3.77,12.59,4.55l.36,18.94c-8,.19-13.63,3.07-16,9.01s-1.83,12.89,3.46,17c3.21,2.49,7.23,3.17,12.09,4.27l.27,18.87c-10.13-.21-16.66,5.51-17.06,14.37s6.25,15.39,16.67,14.93l.04,19.79c-10.43-.55-16.89,6.38-16.66,15.02.22,8.55,7.43,14.61,16.84,14.16l.26,19.7c-10.24-.61-17.5,5.75-17.17,15.11.3,8.43,7.38,14.13,16.97,14.32l-.14,18.87c-4.79,1.04-8.96,1.83-12.02,4.38-5.34,4.46-6.06,11.88-3.19,17.58,2.77,5.51,8.15,8.11,15.34,8.24v19.36c-9.29-.09-16.16,5.09-16.9,13.58-.66,7.61,4.83,14.99,13.29,15.63,1.91.15,4.06,2.58,3.99,4.39l-.64,15.65c-10.52-.53-17.19,6.31-16.71,14.99s6.67,14.42,16.63,13.91l.37,19.82c-9.47-.41-16.37,4.98-16.96,13.46-.54,7.7,4.86,14.91,13.36,15.68,1.27.12,3.77,2.33,3.74,3.57l-.36,15.62c-4.22,1.13-7.9,1.82-10.87,3.67-5.83,3.64-7.13,11.23-4.87,17.04s7.84,9.27,15.77,9.35l.22,19.59c-10.18-.27-17.44,5.96-17,15.25.41,8.57,7.33,14.24,17,14.18l-.19,19.39c-10.34-.39-17.29,6.11-16.88,15.45.37,8.5,7.49,13.99,17.05,14.21l-.18,19.04c-7.72.19-13.06,3.01-15.55,8.54s-1.7,12.72,3.52,16.98c3.06,2.5,7.18,3.22,11.98,4.54l.26,16c.01.8-2.38,2.86-2.83,2.98-8.8.14-14.31,6.83-14.28,14.78,1.77,17.21,17.2,11.59,17.14,17.44l-.14,16.18c-6.73.53-12.17,2.88-15.01,7.76-3.08,5.29-2.83,11.85,1.45,16.77,2.98,3.43,8.12,4.84,12.74,6.26,1.65,5.67,1.46,12.74.42,18.74-9.75-.14-16.73,6.18-16.55,14.91.18,8.36,6.57,15,16.6,14.19.65,6.55.76,13.18.09,19.94-9.68-.18-16.18,5.66-16.66,13.94-.47,8.1,4.92,14.75,13.87,15.39,1.36.1,3.34,2.41,3.3,3.65l-.52,16.64c-10.38-.57-16.89,6.35-16.65,15.08.24,8.58,7.49,14.22,16.93,14.15l-.14,20.06c-12.24,3.22-13.9,6.93-16.4,18.4h-.03ZM962.78,48.39H52.79v1376.87h910V48.39h-.01Z"/>
  <g>
    <path class="cls-4" d="M962.79,911.62v512.08c0,.76,0,1.53,0,1.56,0,.02-.81,0-1.58,0H53.7s-.91-.81-.91-.81v-232.47s159.25-.77,159.25-.77l106.87-.37c29.69-.1,58.61-2.12,87.82-7.22,54.62-9.53,106.71-28.89,154.27-57.42,31.34-18.8,60.55-40.98,86.64-66.63,55.46-54.51,96.02-122.61,117.93-197.26,11.03-37.59,16.7-76.2,17.91-115.38,1.38-44.52-7.62-88.1-26.5-128.34-15.14-32.27-36.51-60.99-62.68-85.13-23.14-21.35-49.48-38.27-78.39-50.68-99.94-42.91-214.97-22.89-295.02,50.34-39.16,35.84-67.25,82.33-80.49,133.86-5.99,23.31-9.35,46.98-9.06,70.91.58,48.54,37.57,89.26,85.56,95.23,58.18,7.24,110.15-38.82,109.71-96.69-.34-44.68,36.48-80.92,81.77-80.15,37.8.64,69.5,27.1,77.24,63.94,1.48,7.06,2.13,13.3,2.02,20.71-.95,64.2-25.65,125.49-69.47,172.46-22.43,24.05-49.37,43.76-79.14,57.71-74.2,34.78-160.74,32.71-233.09-5.79-25.85-13.76-49.28-32.02-69.12-53.64-40.07-43.67-64.04-99.34-67.28-158.78-1.88-34.55,1.65-69.2,8.37-103.19,20.21-102.23,79-195.4,161.3-258.82,58.09-44.76,126.21-74.63,198.63-86.36,94.13-15.24,190.58.84,274.84,45.18,33.94,17.86,65.18,39.85,93.14,66.05l23.5,23.48c76.01,81.86,116.94,189.91,116.85,301.75l-.13,169.86-.35,61.25c-.05,9.62,6.74,17.3,16.42,17.05l-.02-76.13.68-1.39ZM208.79,738.08c.27,24.95,8.21,48.15,22.6,68.15,18.41,25.59,45.67,42.78,76.77,48.21,40.54,7.08,81.48-7.04,109.11-37.52,19.76-21.8,30.98-50.36,31.06-80.01.09-31.88,24.81-57.95,56.86-58.78,17.47-.45,34.08,6.48,45.62,19.69,8.19,9.38,13.56,20.83,14.01,33.69,1.4,39.91-8,79.29-26.4,114.58-24.07,46.17-62.57,82.75-109.7,104.84-39.05,18.3-82.45,25.33-125.38,20.83-56.03-5.87-107.84-31.26-146.57-72.11-17.84-18.82-32.7-40.15-43.6-63.86-12.88-28.03-20.3-57.84-21.32-88.98-1.4-42.77,4.39-85.59,16.42-126.67,20.67-70.58,60.08-134.53,113.5-184.83,31.25-29.43,66.59-53.68,105.16-72.38,108.47-52.6,234.92-55.14,345.56-7.42,43.86,18.92,84.02,44.84,118.74,77.48l21.3,21.3c67.37,72.54,110.3,174.43,110.37,273.8l.11,137.77-.15,107.51c-.03,21.82,17.66,38.44,39.25,38.65l-.11-16.94c-11.23.07-21.82-8.12-21.8-19.87l.37-232.31c.07-42.98-5.13-85.43-17.24-126.6-16.03-54.52-42.1-105.29-77.69-149.58-25.84-32.16-55.9-60.71-89.76-84.3-68.79-47.93-150.09-75.02-234.01-77.88-123.61-4.21-242.53,45.69-327.79,134.58-78.44,81.78-122.74,194.24-119.13,307.71,2.84,89.26,54.49,169.86,131.53,212.04,102,55.84,228.41,35.18,307.52-49.74,43.6-46.81,68.87-109.34,67.96-174.3-.54-38.66-31.79-70.72-70-73.25-43.81-2.91-80.21,31.78-80.53,75.44-.26,35.32-18.06,67.67-47.97,86.63-15.89,10.07-33.53,15.11-52.32,15.63-54.33,1.49-101.24-39.91-104.7-94.58-1.71-27.05,2.32-54.1,9.16-80.46,9.36-36.06,25.91-69.29,48.46-98.62,50.33-65.45,127.11-105.6,209.66-109.39,68.32-3.14,135.16,18.42,188.72,60.9,67.27,53.35,105.86,134.23,105.99,220.45l.34,239.84c.07,47.72,22.2,92.73,57.22,124.25,31.65,28.49,72.24,43.91,114.8,44.8l1.39-1.32-.07-14.48c0-.5-.5-1.41-.96-1.42l-1.82-.04c-38.32-.89-74.92-14.98-103.26-41.01-30.07-27.63-49.96-66.71-50.06-108.07l-.61-249.23c-1.02-89.52-44.17-173.96-114.04-228.61-77.3-60.45-179.53-79.42-273.36-49.98-42.1,13.21-80.79,35.84-113.34,65.71l-17.59,17.61c-50.01,54.3-79.08,128.4-78.27,202.44ZM728.11,504.35c-14.57-13.82-30.29-25.99-47.18-36.87-109.8-70.72-251.01-67.9-357.88,7.21-85.28,59.93-136.4,156.91-136.66,261.37-.1,40.46,16.7,78.03,46.39,105.24,22.11,20.26,50.38,33.13,80.33,36.39,51.39,5.58,101.89-17.29,131.66-59.44,16.69-23.63,25.97-51.57,25.85-80.66-.09-22.01,17.17-39,39.28-37.17,19.08,1.58,33.19,16.96,33.23,36.2.09,42.04-12.21,82.7-35.23,117.94-16.27,24.89-37.47,45.79-62.41,61.97-43,27.9-94.41,39.4-145.34,32.65-49.76-6.59-95.87-30.19-129.7-67.09-34.98-38.16-55.51-87.26-56.43-139.24-1.17-66.36,14.7-131.55,45.79-190.07,42.9-80.75,112.19-143.3,196.5-178.62,49.08-20.56,101.62-30.71,154.79-30.25,100.34.88,196.6,39.96,269.03,109.23,74.68,71.42,119.13,172.51,120.54,276.25l.03,107.61-.11,138.44c-.01,14.83,6.15,28.32,15.88,38.99,11.65,12.78,27.68,19.64,44.94,20.04.27-.25.84-.79.79-.74v-1.71s-.03-3.43-.03-3.43v-1.31s-.07-10.01-.07-10.01c-15.41-.09-29.45-7.34-37.67-20.09-5.12-7.95-6.81-16.22-6.8-25.85l.21-155.78.23-75.42c.14-45.13-6.61-89.69-20.98-132.51-19.35-57.67-50.9-110.52-93-154.32-16.17-16.82-33.45-32.23-52.17-46.05-108.57-80.15-250.35-102.29-378.04-57.86-65.1,22.65-122.07,60.18-168.89,110.82-24.48,26.48-45.02,56.04-61.78,88.06-22.35,42.71-36.94,88.62-42.92,136.45-2.28,18.29-3.56,36.09-3.4,54.31.58,63.25,27.15,122.81,72.65,165.71,69.19,65.23,171.07,81.69,257.35,41.17,40.96-19.24,75.49-50.22,99.39-89.1,21.6-35.15,32.58-74.72,34.11-115.84,1.21-32.64-23.92-59.64-57.24-57.55-13.92.87-27.02,7.67-36.48,18.3-8.63,9.69-13,22.05-13.22,35.08l-1.57,19.41c-4.47,28.95-18.73,54.83-40.64,74.18-41.88,36.98-104.12,41.26-151.04,10.79-15.21-9.88-27.66-22.94-37.48-38.31-12.75-19.93-18.86-42.35-18.95-66.08-.15-39.83,7.58-78.53,22.77-115.26,27.89-67.44,76.7-120.05,141.07-153.97,12.97-6.84,25.83-12.1,39.68-16.97,42.3-14.85,86.98-19.88,131.63-15.27,47.62,4.91,93.08,21.04,133.22,47,39.36,25.45,72.22,59.2,96,99.61,9.67,16.43,17.94,32.94,24.37,51.01,11.16,31.37,17.83,64.3,17.92,97.89l.63,245.28c.1,40.58,18.05,79.61,47.5,106.91,28.31,26.24,64.89,40.66,103.55,41l.04-17.18c-34-.13-66.56-12.53-91.6-35.73-26.33-24.4-42.23-58.73-42.28-95.01l-.29-210.88.17-19.11c2.31-91.36-33.7-178.89-100-241.76ZM255.12,504.83c-58.64,63.39-91.48,146.81-90.88,233.34.24,34.23,11.2,67.04,31.14,94.59,34.63,47.84,92.7,73.35,150.97,67.01,83.27-9.06,146.43-79.39,146.61-163.32.02-8,6.33-14.45,14.95-13.86,5.94.41,12.27,5.23,12.39,11.21,1.95,98.79-72.19,182.44-170.17,193.38-39.75,4.44-79.83-3.33-115.19-23.01-39.41-21.93-69.83-56.71-85.83-99.02-7.83-20.71-12.22-41.99-12.5-64.39-.81-66.02,16.21-131.11,49.08-188.33,37.34-65.02,93.76-116.86,161.2-149.38,52.34-25.24,109.45-37.63,167.65-36.46,48.07.97,95.09,10.94,139.23,29.86,45.42,19.46,86.32,47.55,120.7,83.01,26.61,27.45,48.56,58.94,65.44,93.22,26.32,53.47,38.4,111.88,38.3,171.53l-.19,115.62-.1,113.55c-.02,21.08,7.45,40.08,21.34,55.61,11.7,13.09,26.94,21.84,44.13,25.7l16.82,2.28c.78.11,1.95-.54,1.94-1.13v-2.31s-.06-13.85-.06-13.85c-25.19-.01-48.19-13.43-59.78-35.98-4.45-8.66-7.26-17.86-7.16-27.6l.19-18.27-.16-229.09c-.04-55.33-14.38-110.12-38.02-159.76-23.68-49.73-57.49-93.2-99.51-128.53-39.58-33.28-85.23-58.32-134.69-73.63-39.53-12.24-80.38-18.35-121.93-17.49-46.92.97-93.23,10.05-136.77,27.48-71.27,28.52-132.92,77.52-176.47,140.71-45.59,66.15-69.83,144.87-68.33,225.34.94,50.64,21.53,98.86,55.61,135.71,46.87,50.68,116.22,74.86,183.86,64.78,102.7-15.3,179.08-103.45,178.71-207.48-.06-17.46-16.12-31.88-33.85-30.07-15.89,1.62-27.8,15.04-27.83,30.89-.09,41.86-17.54,81.23-48.66,109.28-14.51,13.07-31.09,23.13-49.72,29.56-38.83,13.39-81.57,10.4-118-8.73-46.04-24.17-76.52-71.61-78.04-123.98-2.63-90.4,35.29-179.55,100.71-241.66,44.53-42.28,100.27-71.39,160.5-83.52,57.54-11.59,117.22-7.16,172.53,11.89,26.55,9.15,51.02,21.85,74.26,37.36,18.67,12.45,35.32,26.48,51.07,42.47,30.73,31.19,54.36,68.28,70.39,109.09,15.42,39.25,22.22,80.85,22.23,123.13l.06,225.07c-2.19,42.09,16.29,82.13,49.42,107.86,22.46,17.42,50.04,26.63,78.49,27.21.24-.23.9-1.02.9-1.26l.02-4.56.03-11.5c-63.46-1.13-111.78-48.57-111.82-113.7l-.07-114.22.2-115.56c.8-86.81-30.89-170.73-89.32-234.74l-22.85-22.88c-47.73-43.11-106.69-72.32-170.2-83.78-115.57-20.86-233.49,19.42-312.96,105.32ZM654.43,421.35c39.45,18.3,75.15,43.61,105.02,75.02,60.41,63.52,94.94,147.21,95.9,235.19l.23,135.64.15,110.13c.03,24.39,10.23,47.49,26.08,65.68,19.95,22.89,48.7,35.62,78.95,36.26l1.43-1.38-.1-15.65c-22.76-.27-44.33-8.23-61.01-23.74-16.91-15.72-28.12-37.41-28.13-61.08l-.1-178.67.06-64.69c.04-48.39-10.43-95.76-29.26-140.23-33.47-79.02-93.41-142.98-169.4-181.89-101.97-52.21-222.66-53.64-325.81-3.63-65.03,31.53-120.05,82.02-156.73,144.74-32.51,55.58-49.85,119.28-49.81,183.71.03,46.75,17.67,91.82,49.21,125.89,31.88,34.43,75.55,55.99,122.46,59.75,56.72,4.55,112.96-17.3,151.56-58.83,32.6-35.07,50.18-80.12,50.09-128.03,0-4.93-4.25-7.84-8.39-7.84s-8.02,3.13-8.37,7.85l-1.57,21.14c-8.57,74.61-65.89,134.56-139.81,146.94-44.43,7.44-89.96-2.69-126.85-29-10.37-7.39-19.74-15.29-28.25-24.91-26.28-29.69-41.95-67.59-42.8-107.48-1.96-91.58,33.15-179.85,96.32-245.87,30.26-31.63,66.44-57.27,106.35-75.66,92.8-42.76,199.94-42.35,292.59.63Z"/>
    <path class="cls-4" d="M52.79,700.52V48.39h910v671.62c-1.43-6.17-.1-12.61-1.01-19.24-7.54-102.84-55.19-208.42-128.01-281.11l-9.26-9.24c-32.86-32.81-71.21-59.69-112.98-80.42-110.03-54.61-236.41-63.42-352.38-22.95-107.37,37.47-197.39,113.61-251.83,213.43-29.32,53.76-47.17,112.89-53.15,173.81l-1.37,6.22Z"/>
    <g>
      <path class="cls-1" d="M52.8,1169.11v-16.81s2.19-.3,2.19-.3l227.53-.94,51.25.05c30.33.03,59.86-3.93,89.4-10.92,69.22-16.37,135.87-51.2,187.77-99.77l25.26-25.33c70.23-77.24,109.43-179.21,107.73-283.82-1.04-63.75-28.52-124.28-74.08-167.13-91.18-85.77-233.8-86.09-324.97-.17-47.73,44.98-76.91,111.03-73.7,177.74,1.37,28.37,24.94,50.2,52.4,52.69,34.33,3.12,63.54-23.18,63.68-57.66.07-17.27,3.32-33.72,10.49-49.5,15.91-35.06,47.5-60.77,85.35-68.56,40.52-8.34,82.75,5.1,111.07,35.09,20.84,22.06,32.48,50.55,32.83,81.07.89,75.41-28.45,148.75-79.26,203.81l-11.72,12.05c-53.88,51.42-125.26,82.33-200.28,83.44l-163.94.55-116.21.23-2.79-.27v-16.81s275.44-.71,275.44-.71c78.24-.23,152.73-32.09,206.01-89.24,50.05-53.69,77.82-125.41,75.08-199.24-.99-26.56-14.36-51.99-33.85-69.35-35.64-31.74-88.74-34.46-127.61-7.21-26.92,18.88-43.15,49.56-43.32,82.7-.15,28.95-15.17,54.97-41.02,68.25-12.79,6.57-26.61,9.71-41.23,8.34-38.04-3.57-68.09-35.49-68.53-73.91-.8-71.59,29.62-139.84,82.15-188.13,32.46-29.84,71.89-50.55,115.04-60.36,42.54-9.67,86.75-8.55,128.49,4.03,43.66,13.16,82.59,37.25,113.73,70.54,42.58,45.53,67.06,105.98,67.99,168.57,1.65,110.67-41.02,217.84-116.26,298.52-43.95,47.12-98.12,83.72-158.08,107.39-48.84,19.28-100.52,30.2-152.96,30.33l-45.95.12-205.39.64h-29.71Z"/>
      <path class="cls-1" d="M52.8,1146.25v-16.81s201.95-.38,201.95-.38l81.04-.46c56.2-.32,111.25-14.07,161.92-38.14,44.22-21,83.97-49.88,117.46-85.57,27.91-29.75,51.29-63.66,68.76-100.57,25.81-54.51,38.91-113.82,37.43-174.19-.74-30.23-7.97-59.58-20.7-86.3-41.32-86.68-135.49-135.12-230.15-118.67-49.16,8.55-94.39,33.84-126.86,72.39-33.21,39.42-51.68,90.04-50.44,141.71.47,19.8,18.75,34.26,37.71,33.2,19.77-1.11,34.29-16.74,34.17-36.35-.13-23.41,5.57-45.74,16.43-66.33,24.73-46.88,74.06-76.24,126.5-75.75,81.4.77,144.35,68.27,141.39,149.21-2.06,56.41-17.27,111.33-47.32,159.88-14.64,23.66-31.81,45.55-52.11,64.81-58.24,55.26-135.62,88.02-216.32,88.35l-177.3.72-101.45.17-2.11-.35v-16.81s286.9-1.2,286.9-1.2c73.98-1.36,144.46-32.31,197.95-82.48,24.19-22.69,43.98-49.17,59.47-78.33,22.35-42.09,33.59-88.23,35.16-135.76,1.39-42-16.88-82-50.55-106.66-51.6-37.8-123.58-31.34-166.91,16-22.23,24.29-32.12,52.59-32.91,85.93-.35,14.81-7,28.6-17.87,38.23-17.53,15.52-42.31,17.84-62.24,5.73-14.58-8.86-24.47-23.9-25.34-41.33-1.17-23.27,2.28-45.76,8.67-68.04,11.45-39.96,33.38-75.42,63.5-103.92,48.72-46.1,115.78-68.98,182.7-61.91,55.25,5.84,106.56,31.49,144.5,71.76,44.7,47.68,67.24,111.88,62.11,176.59-6.68,153.01-99.95,290.26-239.1,353.62-53.03,24.14-110.82,37.29-169.87,37.42l-225.62.5-50.55.08Z"/>
      <path class="cls-1" d="M52.8,1124.06v-16.81s114.3-.56,114.3-.56l168.64-.81c61.95-.3,122.6-17.82,176.17-48.15,89.01-50.39,153.26-135.72,177.01-235.27,7.2-30.18,10.74-61.34,9.9-92.45-1.27-47.21-19.97-91.77-52.42-125.83-42.91-45.03-103.1-65.83-164.23-58.03-95.85,12.23-167.52,94.37-166.57,191.1.05,5.44,3.22,10.42,8.85,12.21,4.53,1.44,9.34.79,13.16-2,3.53-2.58,5.08-6.14,5.1-10.72.3-69.07,41.65-129.44,106.27-154.23,41.85-16.05,88.22-13.97,128.4,5.1,58.63,27.82,95.2,87.12,94.32,151.98-1.17,86.06-34.3,168.53-93.35,231.28-62.41,66.32-149.79,105.88-241.34,107.58l-149.1.6-131.64.33-3.47-.37v-16.81s113.58-.11,113.58-.11l136.99-.52,41.88-.56c84.58-4.06,164.07-41.1,221.89-102.95,56.53-60.48,88.42-142.06,87.08-225.27-.79-49.11-26.61-94.74-67.85-120.92-26.78-17-57.89-24.52-89.03-22.53-77.39,4.95-137.33,68.91-137.45,146.45-.03,16.22-12.49,29.98-28.9,31.06-17.67,1.16-32.55-12.97-32.47-30.73.11-23.08,3.67-45.3,11.16-67.14,38.58-112.48,162.46-170.59,273.96-126.98,25.96,10.15,49.35,25.54,69.3,44.85,42.93,41.54,65.29,99.76,63.18,159.44-1.4,39.78-8.18,78.83-21.37,116.38-55.67,158.52-202.39,260.6-371.1,260.73l-60.58.05-163.14.48-47.14.14Z"/>
      <path class="cls-3" d="M962.79,720.01v191.61s-.68,1.39-.68,1.39l.02,76.13c-9.68.24-16.47-7.43-16.42-17.05l.35-61.25.13-169.86c.08-111.84-40.84-219.89-116.85-301.75l-23.5-23.48c-27.96-26.19-59.2-48.19-93.14-66.05-84.26-44.34-180.71-60.42-274.84-45.18-72.42,11.72-140.54,41.6-198.63,86.36-82.31,63.42-141.1,156.59-161.3,258.82-6.72,33.99-10.25,68.64-8.37,103.19,3.24,59.44,27.21,115.11,67.28,158.78,19.84,21.62,43.26,39.89,69.12,53.64,72.36,38.5,158.89,40.56,233.09,5.79,29.77-13.95,56.71-33.66,79.14-57.71,43.82-46.97,68.52-108.26,69.47-172.46.11-7.41-.54-13.65-2.02-20.71-7.73-36.83-39.43-63.29-77.24-63.94-45.29-.77-82.11,35.47-81.77,80.15l-17.04-.41c.1-23.74,8.68-46.26,24.4-63.9,38.74-43.48,106.88-43.67,145.61.02,15.47,17.45,24.16,39.99,24.62,63.73.38,19.36-1.71,37.85-5.67,56.85-11.82,56.74-40.21,106.63-82.41,145.87-69.11,64.25-167.31,88.78-258.55,64.53-43.42-11.54-83.15-33.23-116.3-63.71-32.38-29.77-57.27-66.47-72.18-107.95-7.85-21.42-12.86-43.3-15.38-65.84l-.93-1.22v-63.87l1.37-6.22c5.98-60.93,23.83-120.05,53.15-173.81,54.44-99.83,144.45-175.96,251.83-213.43,115.96-40.47,242.35-31.66,352.38,22.95,41.77,20.73,80.12,47.61,112.98,80.42l9.26,9.24c72.82,72.7,120.48,178.27,128.01,281.11.92,6.64-.41,13.07,1.01,19.24Z"/>
      <path class="cls-1" d="M52.79,1191.96v-17.48s206.91-.64,206.91-.64l63.98-.23c73.03-.26,144.45-16.93,208.93-50.83,98.3-51.68,173.48-138.99,209.93-244.05,16.36-47.14,24.48-97.16,23.68-147.09-1.13-70.32-30.95-136.52-81.57-184.02-85.57-80.29-215.5-93.08-315.14-30.54-32.25,20.24-60.1,47.88-80.89,80.43-26.03,40.76-39.11,87.66-40.27,135.87-.83,34.84,19.47,66.25,52.16,78.32,37.92,14,80.39-1.64,99.68-37.45,6.34-11.77,9.33-25.11,9.38-38.25l17.04.41c.44,57.87-51.53,103.93-109.71,96.69-47.98-5.97-84.98-46.69-85.56-95.23-.29-23.93,3.08-47.6,9.06-70.91,13.24-51.53,41.32-98.03,80.49-133.86,80.04-73.24,195.07-93.25,295.02-50.34,28.92,12.41,55.26,29.33,78.39,50.68,26.17,24.15,47.55,52.86,62.68,85.13,18.87,40.25,27.87,83.82,26.5,128.34-1.21,39.18-6.88,77.79-17.91,115.38-21.91,74.65-62.47,142.75-117.93,197.26-26.09,25.64-55.3,47.83-86.64,66.63-47.56,28.53-99.65,47.89-154.27,57.42-29.21,5.1-58.13,7.12-87.82,7.22l-106.87.37-159.25.77Z"/>
      <path class="cls-4" d="M52.79,1174.49v-5.38s29.71.01,29.71.01l205.39-.64,45.95-.12c52.44-.13,104.12-11.06,152.96-30.33,59.96-23.67,114.14-60.27,158.08-107.39,75.25-80.68,117.91-187.86,116.26-298.52-.93-62.59-25.42-123.04-67.99-168.57-31.14-33.3-70.07-57.38-113.73-70.54-41.74-12.58-85.95-13.71-128.49-4.03-43.15,9.81-82.58,30.53-115.04,60.36-52.54,48.29-82.96,116.54-82.15,188.13.43,38.42,30.49,70.34,68.53,73.91,14.62,1.37,28.44-1.77,41.23-8.34,25.85-13.27,40.87-39.3,41.02-68.25.17-33.14,16.4-63.83,43.32-82.7,38.87-27.26,91.97-24.53,127.61,7.21,19.49,17.36,32.87,42.79,33.85,69.35,2.74,73.83-25.03,145.56-75.08,199.24-53.28,57.15-127.77,89.02-206.01,89.24l-275.44.71v-253.46s.93,1.22.93,1.22c2.52,22.54,7.53,44.42,15.38,65.84,14.91,41.48,39.8,78.18,72.18,107.95,33.15,30.48,72.88,52.17,116.3,63.71,91.23,24.25,189.44-.28,258.55-64.53,42.2-39.23,70.59-89.13,82.41-145.87,3.96-19,6.05-37.49,5.67-56.85-.47-23.74-9.15-46.28-24.62-63.73-38.73-43.69-106.86-43.51-145.61-.02-15.72,17.65-24.3,40.16-24.4,63.9-.06,13.14-3.04,26.48-9.38,38.25-19.3,35.81-61.76,51.46-99.68,37.45-32.7-12.07-53-43.48-52.16-78.32,1.15-48.21,14.24-95.11,40.27-135.87,20.79-32.55,48.64-60.19,80.89-80.43,99.64-62.54,229.57-49.74,315.14,30.54,50.62,47.5,80.44,113.69,81.57,184.02.8,49.94-7.32,99.96-23.68,147.09-36.46,105.06-111.64,192.37-209.93,244.05-64.48,33.9-135.9,50.57-208.93,50.83l-63.98.23-206.91.64Z"/>
      <path class="cls-1" d="M52.8,1101.2v-16.14s2.12-.29,2.12-.29l95.38-.2,183.34-.8c49.1-.21,101.49-12.88,145.64-34.07,32.55-15.62,62.57-36.16,88.78-60.96,70.15-66.39,109.85-159.16,108.52-255.92-1.18-85.77-66.96-156.51-152.03-165.22-48.99-5.02-97.76,11.26-133.55,45-34.22,32.27-52.81,75.73-53.29,122.85-.05,5.32-3.92,8.98-8.99,8.68-4.84-.29-7.71-4.1-7.66-9.46.42-45.97,17.87-90.3,48.88-124.24,45.11-49.37,114.17-70.82,179.44-55.64,37.57,8.74,71.5,29.37,97.12,57.91,33.35,37.15,48.82,85.45,46.91,134.82-4.07,105.31-52.42,204.37-134.28,270.75-63.68,51.64-142.99,81.03-225.41,82.04l-75.34.12-205.58.77Z"/>
      <path class="cls-4" d="M52.8,1152.3v-6.05s50.55-.08,50.55-.08l225.62-.5c59.05-.13,116.84-13.27,169.87-37.42,139.15-63.36,232.42-200.61,239.1-353.62,5.12-64.71-17.42-128.91-62.11-176.59-37.95-40.27-89.25-65.92-144.5-71.76-66.91-7.07-133.98,15.8-182.7,61.91-30.12,28.5-52.05,63.96-63.5,103.92-6.38,22.28-9.83,44.77-8.67,68.04.87,17.42,10.76,32.47,25.34,41.33,19.93,12.11,44.71,9.79,62.24-5.73,10.87-9.63,17.52-23.42,17.87-38.23.79-33.34,10.67-61.64,32.91-85.93,43.33-47.34,115.32-53.8,166.91-16,33.67,24.67,51.94,64.67,50.55,106.66-1.57,47.53-12.81,93.67-35.16,135.76-15.49,29.16-35.28,55.64-59.47,78.33-53.49,50.17-123.97,81.13-197.95,82.48l-286.9,1.2v-5.38s2.79.27,2.79.27l116.21-.23,163.94-.55c75.01-1.12,146.4-32.02,200.28-83.44l11.72-12.05c50.81-55.06,80.14-128.4,79.26-203.81-.36-30.52-11.99-59.01-32.83-81.07-28.32-29.98-70.54-43.42-111.07-35.09-37.85,7.79-69.44,33.5-85.35,68.56-7.16,15.78-10.41,32.23-10.49,49.5-.14,34.47-29.36,60.78-63.68,57.66-27.46-2.5-51.03-24.32-52.4-52.69-3.21-66.71,25.97-132.77,73.7-177.74,91.18-85.91,233.8-85.6,324.97.17,45.56,42.86,73.04,103.38,74.08,167.13,1.7,104.61-37.5,206.58-107.73,283.82l-25.26,25.33c-51.89,48.56-118.55,83.4-187.77,99.77-29.54,6.98-59.07,10.95-89.4,10.92l-51.25-.05-227.53.94-2.19.3Z"/>
      <path class="cls-4" d="M52.79,1129.44v-5.38s47.14-.14,47.14-.14l163.14-.48,60.58-.05c168.71-.13,315.43-102.21,371.1-260.73,13.19-37.55,19.97-76.61,21.37-116.38,2.11-59.68-20.25-117.9-63.18-159.44-19.95-19.3-43.34-34.69-69.3-44.85-111.5-43.61-235.38,14.51-273.96,126.98-7.49,21.84-11.05,44.06-11.16,67.14-.08,17.75,14.8,31.89,32.47,30.73,16.41-1.07,28.87-14.83,28.9-31.06.13-77.54,60.06-141.5,137.45-146.45,31.14-1.99,62.25,5.53,89.03,22.53,41.24,26.18,67.06,71.8,67.85,120.92,1.34,83.21-30.54,164.79-87.08,225.27-57.82,61.85-137.3,98.89-221.89,102.95l-41.88.56-136.99.52-113.58.11v-5.38s2.11.35,2.11.35l101.45-.17,177.3-.72c80.7-.33,158.08-33.09,216.32-88.35,20.3-19.26,37.47-41.16,52.11-64.81,30.05-48.55,45.26-103.47,47.32-159.88,2.96-80.94-60-148.45-141.39-149.21-52.43-.49-101.76,28.86-126.5,75.75-10.86,20.59-16.57,42.92-16.43,66.33.11,19.61-14.41,35.24-34.17,36.35-18.96,1.07-37.24-13.4-37.71-33.2-1.24-51.67,17.23-102.29,50.44-141.71,32.47-38.55,77.7-63.84,126.86-72.39,94.66-16.46,188.83,31.98,230.15,118.67,12.73,26.72,19.96,56.07,20.7,86.3,1.48,60.37-11.62,119.68-37.43,174.19-17.47,36.91-40.85,70.82-68.76,100.57-33.49,35.7-73.24,64.57-117.46,85.57-50.67,24.07-105.72,37.82-161.92,38.14l-81.04.46-201.96.38Z"/>
      <path class="cls-4" d="M52.8,1107.26v-6.05s205.58-.77,205.58-.77l75.34-.12c82.42-1.01,161.73-30.4,225.41-82.04,81.86-66.38,130.2-165.44,134.28-270.75,1.91-49.37-13.56-97.67-46.91-134.82-25.62-28.54-59.55-49.17-97.12-57.91-65.27-15.18-134.33,6.27-179.44,55.64-31.01,33.94-48.46,78.26-48.88,124.24-.05,5.37,2.82,9.17,7.66,9.46,5.07.31,8.94-3.36,8.99-8.68.48-47.12,19.07-90.59,53.29-122.85,35.79-33.75,84.56-50.02,133.55-45,85.07,8.71,150.86,79.46,152.03,165.22,1.33,96.77-38.36,189.53-108.52,255.92-26.21,24.8-56.23,45.34-88.78,60.96-44.15,21.19-96.54,33.86-145.64,34.07l-183.34.8-95.38.2-2.12.29v-6.05s3.47.37,3.47.37l131.64-.33,149.1-.6c91.55-1.7,178.93-41.26,241.34-107.58,59.06-62.75,92.18-145.22,93.35-231.28.88-64.86-35.69-124.16-94.32-151.98-40.19-19.07-86.55-21.15-128.4-5.1-64.63,24.78-105.98,85.15-106.27,154.23-.02,4.58-1.57,8.14-5.1,10.72-3.82,2.79-8.63,3.44-13.16,2-5.63-1.79-8.8-6.77-8.85-12.21-.94-96.74,70.73-178.87,166.57-191.1,61.12-7.8,121.32,13,164.23,58.03,32.45,34.06,51.15,78.62,52.42,125.83.83,31.12-2.7,62.28-9.9,92.45-23.75,99.55-88.01,184.88-177.01,235.27-53.57,30.33-114.22,47.85-176.17,48.15l-168.64.81-114.3.56Z"/>
      <path class="cls-3" d="M208.79,738.08c-.81-74.04,28.26-148.14,78.27-202.44l17.59-17.61c32.55-29.87,71.24-52.5,113.34-65.71,93.83-29.44,196.07-10.47,273.36,49.98,69.87,54.64,113.02,139.08,114.04,228.61l.61,249.23c.1,41.35,19.99,80.44,50.06,108.07,28.33,26.03,64.94,40.12,103.26,41.01l1.82.04c.45.01.95.92.96,1.42l.07,14.48-1.39,1.32c-42.56-.89-83.15-16.31-114.8-44.8-35.02-31.53-57.15-76.53-57.22-124.25l-.34-239.84c-.12-86.22-38.72-167.1-105.99-220.45-53.56-42.48-120.4-64.04-188.72-60.9-82.54,3.79-159.33,43.95-209.66,109.39-22.55,29.32-39.1,62.56-48.46,98.62-6.84,26.36-10.87,53.41-9.16,80.46,3.47,54.68,50.38,96.07,104.7,94.58,18.79-.52,36.43-5.56,52.32-15.63,29.91-18.96,47.71-51.31,47.97-86.63.32-43.65,36.73-78.34,80.53-75.44,38.21,2.54,69.46,34.6,70,73.25.91,64.97-24.36,127.49-67.96,174.3-79.1,84.93-205.52,105.59-307.52,49.74-77.04-42.18-128.7-122.78-131.53-212.04-3.61-113.48,40.69-225.93,119.13-307.71,85.26-88.89,204.18-138.79,327.79-134.58,83.93,2.86,165.22,29.95,234.01,77.88,33.86,23.59,63.92,52.15,89.76,84.3,35.59,44.29,61.66,95.07,77.69,149.58,12.1,41.17,17.31,83.62,17.24,126.6l-.37,232.31c-.02,11.75,10.57,19.93,21.8,19.87l.11,16.94c-21.6-.21-39.28-16.84-39.25-38.65l.15-107.51-.11-137.77c-.08-99.37-43-201.26-110.37-273.8l-21.3-21.3c-34.72-32.64-74.88-58.56-118.74-77.48-110.65-47.72-237.09-45.18-345.56,7.42-38.57,18.7-73.92,42.95-105.16,72.38-53.42,50.3-92.83,114.25-113.5,184.83-12.03,41.08-17.82,83.91-16.42,126.67,1.02,31.14,8.44,60.95,21.32,88.98,10.89,23.71,25.75,45.04,43.6,63.86,38.73,40.85,90.54,66.23,146.57,72.11,42.93,4.5,86.33-2.53,125.38-20.83,47.12-22.08,85.63-58.67,109.7-104.84,18.4-35.29,27.8-74.66,26.4-114.58-.45-12.85-5.81-24.31-14.01-33.69-11.54-13.21-28.15-20.14-45.62-19.69-32.05.83-56.77,26.9-56.86,58.78-.08,29.65-11.29,58.21-31.06,80.01-27.63,30.48-68.57,44.6-109.11,37.52-31.1-5.43-58.37-22.63-76.77-48.21-14.39-20-22.33-43.2-22.6-68.15Z"/>
      <path class="cls-3" d="M728.11,504.35c66.3,62.87,102.31,150.4,100,241.76l-.17,19.11.29,210.88c.05,36.28,15.94,70.61,42.28,95.01,25.04,23.2,57.6,35.6,91.6,35.73l-.04,17.18c-38.66-.34-75.24-14.76-103.55-41-29.44-27.3-47.39-66.33-47.5-106.91l-.63-245.28c-.09-33.59-6.76-66.52-17.92-97.89-6.43-18.08-14.7-34.58-24.37-51.01-23.78-40.4-56.65-74.15-96-99.61-40.15-25.96-85.61-42.08-133.22-47-44.65-4.61-89.33.42-131.63,15.27-13.85,4.86-26.71,10.13-39.68,16.97-64.37,33.92-113.19,86.53-141.07,153.97-15.19,36.73-22.92,75.43-22.77,115.26.09,23.73,6.2,46.15,18.95,66.08,9.83,15.36,22.27,28.43,37.48,38.31,46.92,30.47,109.16,26.18,151.04-10.79,21.91-19.35,36.17-45.23,40.64-74.18l1.57-19.41c.22-13.03,4.59-25.39,13.22-35.08,9.46-10.62,22.57-17.43,36.48-18.3,33.33-2.09,58.46,24.91,57.24,57.55-1.53,41.12-12.5,80.69-34.11,115.84-23.89,38.88-58.42,69.86-99.39,89.1-86.28,40.52-188.16,24.07-257.35-41.17-45.5-42.9-72.07-102.47-72.65-165.71-.17-18.22,1.11-36.03,3.4-54.31,5.98-47.84,20.57-93.74,42.92-136.45,16.76-32.02,37.3-61.58,61.78-88.06,46.81-50.64,103.79-88.17,168.89-110.82,127.69-44.43,269.47-22.29,378.04,57.86,18.72,13.82,36,29.23,52.17,46.05,42.1,43.8,73.65,96.65,93,154.32,14.37,42.82,21.12,87.37,20.98,132.51l-.23,75.42-.21,155.78c-.01,9.62,1.67,17.9,6.8,25.85,8.22,12.75,22.26,20,37.67,20.09l.06,10.01v1.31s.02,3.43.02,3.43v1.71c.06-.05-.51.49-.78.74-17.26-.39-33.29-7.26-44.94-20.04-9.73-10.67-15.89-24.15-15.88-38.99l.11-138.44-.03-107.61c-1.41-103.74-45.85-204.83-120.54-276.25-72.44-69.27-168.69-108.35-269.03-109.23-53.17-.47-105.71,9.69-154.79,30.25-84.3,35.31-153.6,97.86-196.5,178.62-31.09,58.53-46.96,123.71-45.79,190.07.92,51.98,21.45,101.07,56.43,139.24,33.83,36.91,79.94,60.5,129.7,67.09,50.93,6.75,102.34-4.75,145.34-32.65,24.94-16.18,46.14-37.07,62.41-61.97,23.02-35.24,35.32-75.9,35.23-117.94-.04-19.24-14.15-34.62-33.23-36.2-22.12-1.83-39.38,15.15-39.28,37.17.12,29.09-9.16,57.03-25.85,80.66-29.76,42.15-80.27,65.02-131.66,59.44-29.95-3.25-58.21-16.12-80.33-36.39-29.69-27.2-46.49-64.78-46.39-105.24.26-104.46,51.37-201.43,136.66-261.37,106.87-75.1,248.08-77.92,357.88-7.21,16.9,10.88,32.61,23.05,47.18,36.87Z"/>
      <path class="cls-3" d="M255.12,504.83c79.48-85.91,197.39-126.18,312.96-105.32,63.52,11.46,122.47,40.67,170.2,83.78l22.85,22.88c58.42,64.01,90.12,147.93,89.32,234.74l-.2,115.56.07,114.22c.04,65.12,48.36,112.56,111.82,113.7l-.03,11.5-.02,4.56c0,.24-.65,1.02-.9,1.26-28.45-.58-56.02-9.79-78.49-27.21-33.14-25.73-51.61-65.76-49.42-107.86l-.06-225.07c-.01-42.28-6.82-83.88-22.23-123.13-16.03-40.81-39.66-77.9-70.39-109.09-15.75-15.99-32.4-30.02-51.07-42.47-23.24-15.5-47.71-28.21-74.26-37.36-55.31-19.05-114.99-23.48-172.53-11.89-60.23,12.13-115.97,41.24-160.5,83.52-65.42,62.11-103.34,151.26-100.71,241.66,1.52,52.36,32,99.8,78.04,123.98,36.43,19.13,79.16,22.12,118,8.73,18.63-6.43,35.21-16.49,49.72-29.56,31.12-28.04,48.57-67.41,48.66-109.28.03-15.84,11.95-29.27,27.83-30.89,17.73-1.81,33.79,12.61,33.85,30.07.38,104.03-76,192.19-178.71,207.48-67.64,10.07-136.99-14.1-183.86-64.78-34.08-36.85-54.67-85.07-55.61-135.71-1.5-80.47,22.75-159.19,68.33-225.34,43.54-63.18,105.19-112.18,176.47-140.71,43.54-17.43,89.86-26.51,136.77-27.48,41.55-.86,82.39,5.25,121.93,17.49,49.46,15.32,95.11,40.36,134.69,73.63,42.02,35.33,75.83,78.8,99.51,128.53,23.63,49.64,37.98,104.42,38.02,159.76l.16,229.09-.19,18.27c-.1,9.74,2.71,18.94,7.16,27.6,11.59,22.56,34.59,35.97,59.78,35.98l.05,13.85v2.31c.01.58-1.15,1.23-1.93,1.13l-16.82-2.28c-17.19-3.86-32.43-12.61-44.13-25.7-13.89-15.53-21.35-34.53-21.34-55.61l.1-113.55.19-115.62c.1-59.65-11.98-118.06-38.3-171.53-16.88-34.28-38.83-65.78-65.44-93.22-34.38-35.46-75.28-63.55-120.7-83.01-44.15-18.92-91.16-28.89-139.23-29.86-58.2-1.17-115.31,11.22-167.65,36.46-67.44,32.52-123.85,84.36-161.2,149.38-32.87,57.22-49.89,122.3-49.08,188.33.28,22.4,4.66,43.68,12.5,64.39,16,42.31,46.43,77.09,85.83,99.02,35.36,19.68,75.44,27.45,115.19,23.01,97.98-10.94,172.12-94.59,170.17-193.38-.12-5.98-6.45-10.8-12.39-11.21-8.62-.59-14.93,5.85-14.95,13.86-.19,83.93-63.34,154.26-146.61,163.32-58.26,6.34-116.33-19.17-150.97-67.01-19.94-27.55-30.9-60.36-31.14-94.59-.6-86.53,32.24-169.96,90.88-233.34Z"/>
      <path class="cls-3" d="M654.43,421.35c-92.66-42.98-199.8-43.39-292.59-.63-39.91,18.39-76.09,44.03-106.35,75.66-63.17,66.02-98.28,154.29-96.32,245.87.85,39.89,16.52,77.78,42.8,107.48,8.51,9.62,17.88,17.52,28.25,24.91,36.9,26.31,82.43,36.44,126.85,29,73.91-12.38,131.24-72.33,139.81-146.94l1.57-21.14c.35-4.72,4.15-7.86,8.37-7.85s8.38,2.91,8.39,7.84c.1,47.91-17.49,92.96-50.09,128.03-38.6,41.53-94.84,63.38-151.56,58.83-46.91-3.76-90.57-25.32-122.46-59.75-31.54-34.06-49.18-79.14-49.21-125.89-.04-64.43,17.3-128.13,49.81-183.71,36.69-62.72,91.71-113.21,156.73-144.74,103.14-50.02,223.84-48.58,325.81,3.63,75.99,38.91,135.93,102.87,169.4,181.89,18.84,44.47,29.31,91.84,29.26,140.23l-.06,64.69.1,178.67c.01,23.68,11.22,45.36,28.13,61.08,16.69,15.51,38.25,23.47,61.01,23.74l.1,15.65-1.43,1.38c-30.26-.63-59.01-13.37-78.95-36.26-15.85-18.19-26.04-41.29-26.08-65.68l-.15-110.13-.23-135.64c-.95-87.98-35.48-171.67-95.9-235.19-29.87-31.41-65.56-56.72-105.02-75.02Z"/>
    </g>
  </g>
</svg>