<?xml version="1.0" encoding="UTF-8"?>
<svg id="_레이어_1" data-name="레이어 1" xmlns="http://www.w3.org/2000/svg" viewBox="0 0 1014 1474">
  <defs>
    <style>
      .cls-1 {
        fill: #00792b;
      }

      .cls-2 {
        fill: #efeeec;
      }

      .cls-3 {
        fill: #f9f8f7;
      }

      .cls-4 {
        fill: #fff;
      }
    </style>
  </defs>
  <g>
    <path class="cls-1" d="M49.51,49.93h910v1377H49.51V49.93ZM498.9,501.76l4.71-35.3.29-7.65,1.26-1.84c6.03,54.34,11.68,102.78,49.93,144.53,16.98,18.53,38.89,30.74,63.31,37.74,59.99,17.18,133.4,1.32,184.32-35.03,16.34-11.66,30.21-25.35,40.78-42.14,19.01-30.18,20.66-66.68,3.85-98.09-17.3-32.33-48.73-54.58-81.47-70.46-17.76-8.62-35.5-15.69-54.57-20.82l-33.06-8.89c-25.52-6.86-51.28-10.59-77.7-13.75-61.19-7.33-138.14-6.77-198.99,1.29l-11.99,1.59c-63.66,10.24-134.06,26.91-186.65,65.31-7.3,5.33-13.26,11.35-20.07,17.08-1.78,1.5-2.74,2.83-4.29,4.71l-9.51,11.54c-1.13,1.37-1.96,2.45-2.74,4.1l-9.09,19.07c-8.9,21.49-9.11,44.63-2.1,66.59-1.07,4.17,3.72,5.72,5.49,13.87l4.88,6.76c8.97,14.14,20.33,26.13,33.51,36.47l4.37,3.43c12.34,9.68,25.55,17.03,39.93,23.38,44,19.43,96.82,26.98,143.79,15.35,66.54-16.47,103.06-73.55,111.77-138.84ZM504.52,712.74c7.39-29.2,24.61-46.18,53.23-53.44-28.69-9.13-46.48-26.12-52.97-54.78-7.21,29.86-24.91,45.79-53.05,54.91l4.14,1.95,8.41,2.8c21.41,7.13,34.4,26.45,40.24,48.56ZM347.2,949.69l8.09.73c37.01,3.33,79.6-.06,108.82-23.92,15.23-12.44,25.15-29.14,29.67-48.65,8.75-37.77,7.3-77.57-4.46-114.45-9.61-30.14-27.51-55.26-53.17-73.14-44.63-31.1-98.66-36.3-151.12-24.1-47.72,11.1-94.45,36.82-119,79.88,1.17,2.35-1.61,3.43-2.41,4.93-18.17,33.9-16.9,72.24,2.35,105.61,12.07,20.93,29.25,37.34,49.53,50.38,36.71,23.6,88.67,38.85,131.7,42.72ZM807.6,897.03c43.8-34.15,63.74-88.14,41.05-140.28-7.83-17.99-19.28-32.98-33.97-46.06-40.96-36.47-100.53-53.95-155.05-49.98-26.82,1.95-51.63,9.42-74.42,22.85-53.19,31.36-74.17,88.8-74.47,148.69-.08,16.24.59,31.62,4.01,47.4,10.6,48.93,55.07,70.07,102.93,71.42,63.17,1.78,139.52-14.74,189.93-54.04ZM700.28,1096.59l20.57-6.29,13.93-4.55,11.02-3.77,25.76-9.82c31.08-11.85,59.72-27.86,87.84-47.37-14.53-12.59-30.65-22.2-47.7-30.41l-11.35-5.46-7.72-2.94-10.37-4.07-15.02-5.04-6.44-1.76-6.28-2.1-36.06-7.86-5.29-.87c-13.38-2.2-26.84-3.82-40.46-4.37l-7.94-.32c-28.21-2.77-56.54-1.39-84.63,3.54-39.34,8.03-66.68,26.08-75.17,66.55-5.13-25.52-19.43-44.72-41.76-55.54-32.01-15.89-74.58-16.8-110.51-15.03-33.19,1.64-65.12,5.89-97.25,14.68-38.08,10.42-73.43,26.77-105.73,51.57,22.77,16.08,46.48,29.16,71.91,40.46,81.07,36.02,171.14,53.22,259.79,54.62,2.13-1.16,4.12-1.13,6.17.12l63.7-.85c1.65-1.59,3.29-1.48,5.33-.28,40.97-2.59,81.03-8.01,120.89-17.32,3.9-2.81,8.93-.2,15.23-5.37,1.96.36,5.21.55,7.56-.16Z"/>
    <g>
      <g>
        <path class="cls-2" d="M700.28,1096.59c-2.35.72-5.6.52-7.56.16-6.3,5.17-11.33,2.56-15.23,5.37-39.87,9.31-79.92,14.73-120.89,17.32-2.04-1.2-3.68-1.31-5.33.28l-63.7.85c-2.05-1.25-4.04-1.28-6.17-.12-88.65-1.39-178.71-18.59-259.79-54.62-25.43-11.3-49.14-24.37-71.91-40.46,32.3-24.8,67.65-41.15,105.73-51.57,32.13-8.79,64.06-13.05,97.25-14.68,35.93-1.77,78.5-.86,110.51,15.03,22.33,10.82,36.63,30.02,41.76,55.54,8.49-40.47,35.83-58.52,75.17-66.55,28.09-4.93,56.42-6.31,84.63-3.54l7.94.32c13.62.55,27.08,2.18,40.46,4.37l5.29.87,36.06,7.86,6.28,2.1,6.44,1.76,15.02,5.04,10.37,4.07,7.72,2.94,11.35,5.46c17.05,8.2,33.16,17.82,47.7,30.41-28.13,19.51-56.77,35.52-87.84,47.37l-25.76,9.82-11.02,3.77-13.93,4.55-20.57,6.29Z"/>
        <g>
          <path class="cls-2" d="M347.2,949.69c-43.03-3.87-94.99-19.12-131.7-42.72-20.28-13.04-37.46-29.46-49.53-50.38-19.25-33.37-20.51-71.71-2.35-105.61.8-1.49,3.58-2.58,2.41-4.93,24.55-43.06,71.28-68.78,119-79.88,52.46-12.21,106.49-7.01,151.12,24.1,25.66,17.88,43.56,43,53.17,73.14,11.76,36.88,13.21,76.68,4.46,114.45-4.52,19.52-14.44,36.21-29.67,48.65-29.21,23.86-71.81,27.24-108.82,23.92l-8.09-.73Z"/>
          <path class="cls-2" d="M807.6,897.03c-50.4,39.3-126.76,55.82-189.93,54.04-47.86-1.35-92.33-22.49-102.93-71.42-3.42-15.79-4.09-31.17-4.01-47.4.3-59.88,21.28-117.33,74.47-148.69,22.79-13.44,47.6-20.9,74.42-22.85,54.52-3.96,114.09,13.51,155.05,49.98,14.69,13.08,26.14,28.07,33.97,46.06,22.7,52.14,2.75,106.13-41.05,140.28Z"/>
        </g>
      </g>
      <g>
        <path class="cls-2" d="M498.9,501.76c-8.71,65.29-45.24,122.37-111.77,138.84-46.97,11.63-99.79,4.08-143.79-15.35-14.38-6.35-27.59-13.7-39.93-23.38l-4.37-3.43c-13.18-10.33-24.55-22.33-33.51-36.47l-4.88-6.76c-1.76-8.15-6.55-9.7-5.49-13.87-7.01-21.96-6.79-45.1,2.1-66.59l9.09-19.07c.79-1.65,1.61-2.73,2.74-4.1l9.51-11.54c1.55-1.88,2.51-3.21,4.29-4.71,6.81-5.73,12.77-11.75,20.07-17.08,52.59-38.41,122.99-55.07,186.65-65.31l11.99-1.59c60.85-8.06,137.8-8.63,198.99-1.29,26.42,3.17,52.18,6.89,77.7,13.75l33.06,8.89c19.07,5.13,36.81,12.21,54.57,20.82,32.73,15.88,64.17,38.14,81.47,70.46,16.8,31.4,15.16,67.91-3.85,98.09-10.58,16.79-24.45,30.47-40.78,42.14-50.92,36.35-124.33,52.21-184.32,35.03-24.41-6.99-46.33-19.21-63.31-37.74-38.25-41.75-43.9-90.19-49.93-144.53l-1.26,1.84-.29,7.65-4.71,35.3Z"/>
        <path class="cls-2" d="M504.52,712.74c-5.84-22.11-18.83-41.43-40.24-48.56l-8.41-2.8-4.14-1.95c28.14-9.11,45.84-25.05,53.05-54.91,6.48,28.66,24.28,45.64,52.97,54.78-28.61,7.26-45.83,24.24-53.23,53.44Z"/>
      </g>
    </g>
  </g>
  <g>
    <path d="M52.79,49.93h910v1377H52.79V49.93ZM514.39,1166.47c128.64-2.35,244.4-72.75,310.62-182.18,35.09-57.99,55.78-121.49,58.81-189.28l-1.03-38.1,49.83-.16c2.72,0,5.42-3.22,5.43-5.31.01-2.2-2.57-5.5-5.23-5.5l-51.04-.04c-.67-3.55-1-7.11-.53-10.59,10.38-75.34.16-146.12-35.22-213.59-25.26-48.19-60.99-89.08-104.76-121.31-65.98-48.57-145.2-75.44-226.95-76.51l-.04-88.27c0-3.62-4.43-6.42-6.98-6.1s-5.91,3.14-5.91,6.46l-.14,87.95c-96.1,1.76-187.36,37.63-257.55,101.91-52.19,47.78-88.71,110.29-104.72,179.23-9.09,41.56-10.57,83.61-4.91,125.61.75,5.54.58,10.51-.73,15.23h-50.57c-2.78,0-5.16,3.15-5.16,5.53,0,1.94,2.68,5.38,5.37,5.38l49.14.03c-2.08,24.46-1.15,48.09,2.33,72.45,9.83,68.71,37.18,133.49,79.15,188.83,68.69,90.58,173.54,146.05,287.71,148.33l.05,79.42c0,3.91,3.89,6.44,6.92,6.19,2.53-.21,6.01-2.7,6.02-6.19l.1-79.42Z"/>
    <g>
      <path class="cls-4" d="M514.39,1166.47l-.1,79.42c0,3.49-3.48,5.98-6.02,6.19-3.03.25-6.92-2.28-6.92-6.19l-.05-79.42c-114.17-2.28-219.02-57.74-287.71-148.33-41.97-55.34-69.32-120.12-79.15-188.83-3.48-24.36-4.41-47.99-2.33-72.45l-49.14-.03c-2.69,0-5.38-3.45-5.37-5.38,0-2.38,2.38-5.53,5.16-5.53h50.57c1.31-4.72,1.47-9.7.73-15.23-5.66-42-4.17-84.05,4.91-125.61,16.01-68.93,52.53-131.44,104.72-179.23,70.19-64.27,161.45-100.14,257.55-101.91l.14-87.95c0-3.32,3.47-6.15,5.91-6.46s6.98,2.48,6.98,6.1l.04,88.27c81.75,1.07,160.97,27.94,226.95,76.51,43.78,32.23,79.5,73.12,104.76,121.31,35.37,67.47,45.59,138.25,35.22,213.59-.48,3.47-.15,7.03.53,10.59l51.04.04c2.66,0,5.24,3.31,5.23,5.5s-2.71,5.3-5.43,5.31l-49.83.16,1.03,38.1c-3.04,67.79-23.72,131.29-58.81,189.28-66.22,109.43-181.98,179.83-310.62,182.18ZM152.98,675.32c25.35-62.93,69.65-116.19,126.48-153.75,31.97-99.17,117.09-168.02,221.74-173.21l.06-12.26c-87.26,2.43-169.5,31.39-236.8,87.45-62.85,52.36-105.37,126.26-117.75,207.3.79,15.21,2.83,29.12,6.27,44.47ZM862.97,676.67l6.57-43.62c-8.4-60.1-34.79-117.8-73.35-164.56-68.06-82.53-175.37-131.01-281.81-132.22l.24,12.09c109.77,3.07,197.35,75.66,229.61,179.02,43.82,30.26,79.11,70.17,103.99,116.98l14.75,32.31ZM501.35,453.87l-.02-101.72c-25.32.64-49.71,5.68-73.46,14.79-25.26,9.79-47.94,23.02-68.79,40.39-34.28,29.47-59.89,67.32-74.55,111.02,66.14-41.96,139.49-62.54,216.81-64.47ZM738.89,523.39c-12.03-37.79-31.65-69.81-57.25-97.2-43.73-45.99-103-72.96-167.27-74.21l-.07,101.75c54.21.85,107.52,11.75,157.41,33.17,23.78,10.21,45.2,22.64,67.18,36.49ZM389.11,698.34c-25.22-47.47-25.38-101.8-1.93-148,22.13-43.51,65.38-71.98,114.12-74.7l-.33-12.86c-80.19,2.29-154.93,24.54-220.99,69.38-8.67,29.47-12.03,59.02-10.44,89.82,2.63,42.42,14.38,82.91,35.35,120.08,26.19-18.67,54.08-33.06,84.22-43.72ZM626.69,698.49c32.46,11.06,60.41,26.58,86.88,45.58,37.24-62.11,47.54-136.57,29.47-206.24-66.65-48.13-145.99-74.22-228.43-74.97l.04,12.8c51.79,3.08,96.86,34.91,117.5,81.93,20.04,45.52,17.88,97.26-5.45,140.91ZM484.85,679.1c.96-11.05,7.42-18.21,16.48-21.67l-.03-169.87c-42.25,2.6-79.63,25.51-100.08,61.73-25.37,44.94-26,99.98-.87,145.37,27.65-8.57,55.7-13.54,84.5-15.56ZM615.49,694.79c24.67-45.17,24.44-98.88.5-143-20.4-37.59-58.29-61.86-101.65-64.11v169.88c9.83,3.56,15.55,11.49,16.5,21.7,28.99,1.57,57.03,7.02,84.65,15.53ZM297.08,745.92c2.29-.45,3.76-1.03,4.65-1.92-35.69-64.89-45.91-136.02-26.86-208.16-54.17,38.25-94.53,92.13-116.89,153.99,4.93,19.64,11.7,38.11,20.82,56.07l118.28.02ZM854.99,712.5l-13.34,33.45,26.8-.07.97-9.76c-14.25-77.83-57.85-147.1-121.54-194.79,3.59,16.5,5.84,31.31,6.8,47.65,3.59,55.29-9.59,109.26-38.02,156.91l120.64.02,16.69-41.36c1.57,1.83,2.12,5.14,1,7.94ZM150.44,681.81l-5.56-34.85c-2.35,19.22-2.09,36.62-1.46,55.21l7.01-20.36ZM865.41,683.26l7.1,20.9c.55-18.46.51-36.33-1.13-55.36l-2.11,11.92-3.87,22.54ZM501.37,745.87l-.1-42.88c-9.1-3.17-14.84-10.2-16.33-19.67-27.93,2.12-55.46,6.69-82.37,15.18,12.47,20.72,29.61,36.37,50.55,47.39h48.26ZM562.91,745.85c21.11-11.52,37.78-26.95,50.36-47.13-27.18-8.78-54.68-13.35-82.67-15.4-1.46,9.49-7.41,16.3-16.22,19.63l-.07,42.97,48.6-.07ZM147.51,746.04l26.62-.31c-8.07-16.92-13.64-32.02-18.24-49.56-4.58,16.26-12.5,35.91-8.37,49.87ZM431.16,745.85c-16.99-12.46-29.64-26.45-39.93-43.76-30.5,10.93-58.33,24.66-83.97,43.79l123.9-.04ZM708.22,745.71c-26.71-19.73-53.82-32.86-83.69-43.57-10.34,17.76-23.94,31.89-39.86,43.7l123.54-.14ZM485.71,768.71c-6.65-2.38-12.03.08-16.74-6.09l32.44.82-.07-9.16-30.71,2.57-156.56.04c19.37,30.1,44.93,54.5,75.75,72.69,22.35-33.58,57.36-54.72,95.89-60.86ZM530.91,768.73c40.26,6.77,73.59,28.88,95.57,61.21,31.79-18.25,58.43-42.56,78.68-73.08l-169.22-.03-21.54-2.42.21,9.09,27.4-1.33c.99-.05,3.12,2.08,2.87,2.91l-13.98,3.65ZM227.99,824.71c-19.06-21.36-34.67-43.48-48.11-67.8l-30.68-.08c3.57,16.73,7.96,31.98,13.98,47.79,10.79,27.23,24.31,52.38,41.97,76.8,4.76-20.12,12.45-38.59,22.84-56.72ZM285.29,756.96l-100.74-.14c13.11,23.2,27.98,44.22,45.69,64.12,14.68-24.38,33.52-44.89,55.05-63.98ZM387.9,832.64c-32.51-19.05-58.2-44.65-78.22-75.73l-17.73.09c-23.12,19.14-43.13,41.02-59.04,67.02,36.85,40.26,81.6,71.34,130.8,92.02,0-30.59,8.16-58.43,24.18-83.39ZM782.82,823.72c-16.39-26.12-36.55-48.17-59.8-66.91l-13.48.05c-20.67,31.81-48.54,57.45-81.14,76.3,16.18,25.4,23.64,53.5,23.39,82.85,50.48-20.67,94.19-52.04,131.03-92.29ZM831.05,756.88l-101.12.03c21.8,19.14,40.82,39.52,55.53,64.02,17.23-20.16,32.92-40.63,45.59-64.05ZM844.45,823.06c9.98-21.82,17.43-42.91,22.02-66.27l-30.59.15c-13.76,24.56-29.81,46.75-48.29,67.73,10.57,18.07,18.43,36.5,22.95,56.68,13.4-18.83,24.31-37.41,33.92-58.29ZM501.33,862.21l-.04-91.21c-44.65,1.99-84.81,24.79-108.28,60.49,34,18.53,69.87,29.45,108.32,30.73ZM623.21,831.76c-24.54-36.26-64.18-58.91-108.87-60.82v91.18c38.7-1.41,75.03-11.88,108.87-30.36ZM212.56,995.82c-12.21-33.01-16.53-65.94-10.54-99.82-26.01-34.31-45.87-71.99-58-111.95l.19,19.76c4.64,59.99,22.91,117.28,53.56,169.03l14.79,22.99ZM803.78,994.24c21.42-30.56,36.74-62.67,48.48-96.86,11.96-36.68,19.11-73.75,19.25-112.56-12.84,40-32.08,77.35-58.07,111.18,6.18,33.44,1.03,65.88-9.66,98.23ZM410.35,1020.2c-28.24-28.12-43.83-61.97-46.4-99.48-51.4-21.26-96.06-52.61-133.03-92.85-10.78,18.12-18.19,37.39-22.49,57.8,50.08,66.31,121.1,113.14,201.93,134.53ZM660.53,1001.02c58.77-25.55,108.86-65.22,147.05-115.82-4.49-20.5-12.17-39.33-22.76-57.64-19.31,20.84-39.6,38.79-62.45,54.94-22.37,15.4-45.68,27.86-70.73,38.26-2.39,38.46-19.01,72.83-47.12,99.54,19.58-4.9,37.3-11.27,56-19.28ZM501.29,944.86l.04-78.97c-39-1.35-76.18-12.25-110.23-31.52-16.33,25.26-24.37,53.97-23.41,83.25,42.8,17.06,87.01,25.84,133.59,27.24ZM514.44,944.78c47.37-.91,90.79-10.37,133.53-27.09.98-29.36-7.03-58.21-22.77-82.82-34.52,18.91-71.36,29.74-110.88,30.91l.12,79ZM501.31,1154.12v-108.35c-53.8-1.18-106.76-13.9-156.11-36.3-54.86-25-102.64-62.43-140.04-109.66-5.98,39.91.99,74.84,17.89,110.99,67.33,87.31,166.18,140.79,278.26,143.32ZM792.03,1011.31l5.51-12.63c13.64-31.29,18.04-65.26,12.88-98.95-40.22,50.65-90.82,89.28-149.76,114.13-46.54,19.62-96.03,30.9-146.33,31.97l.04,108.34c112.26-2.62,209.97-55.42,277.67-142.86ZM482.7,1010.86l18.74-38.15-.13-23.6c-46.02-1.12-90.41-10.15-133.43-26.84,2.93,39.86,21.72,75.28,51.12,100.22,27.41,6.65,54.28,10.5,82.3,11l.02-22.74-18.62.11ZM514.3,1010.81l.09,22.75c28.57-.61,55.06-4.58,82.11-11.02,29.46-25.12,48.51-60.42,51.24-100.31-43.1,16.74-87.71,26.01-133.41,26.82l-.09,23.85,18.9,38.06-18.85-.15Z"/>
      <path d="M501.31,1154.12c-112.08-2.54-210.93-56.01-278.26-143.32-16.9-36.15-23.87-71.07-17.89-110.99,37.4,47.23,85.19,84.66,140.04,109.66,49.35,22.41,102.3,35.12,156.11,36.3v108.35Z"/>
      <path d="M792.03,1011.31c-67.7,87.44-165.41,140.23-277.67,142.86l-.04-108.34c50.3-1.07,99.8-12.35,146.33-31.97,58.95-24.85,109.55-63.48,149.76-114.13,5.16,33.69.76,67.66-12.88,98.95l-5.51,12.63Z"/>
      <path d="M626.69,698.49c23.33-43.65,25.49-95.39,5.45-140.91-20.64-47.02-65.71-78.85-117.5-81.93l-.04-12.8c82.44.76,161.78,26.85,228.43,74.97,18.06,69.67,7.76,144.12-29.47,206.24-26.47-19-54.42-34.51-86.88-45.58Z"/>
      <path d="M389.11,698.34c-30.14,10.65-58.03,25.05-84.22,43.72-20.97-37.17-32.72-77.65-35.35-120.08-1.59-30.81,1.77-60.35,10.44-89.82,66.06-44.85,140.8-67.09,220.99-69.38l.33,12.86c-48.74,2.72-91.99,31.19-114.12,74.7-23.45,46.2-23.29,100.53,1.93,148Z"/>
      <path d="M152.98,675.32c-3.44-15.35-5.48-29.27-6.27-44.47,12.38-81.04,54.91-154.94,117.75-207.3,67.29-56.06,149.53-85.02,236.8-87.45l-.06,12.26c-104.64,5.19-189.77,74.04-221.74,173.21-56.84,37.57-101.13,90.82-126.48,153.75Z"/>
      <path d="M862.97,676.67l-14.75-32.31c-24.88-46.81-60.17-86.72-103.99-116.98-32.26-103.36-119.84-175.94-229.61-179.02l-.24-12.09c106.45,1.2,213.76,49.69,281.81,132.22,38.56,46.76,64.95,104.46,73.35,164.56l-6.57,43.62Z"/>
      <path d="M484.85,679.1c-28.81,2.03-56.85,7-84.5,15.56-25.13-45.39-24.5-100.43.87-145.37,20.44-36.22,57.83-59.13,100.08-61.73l.03,169.87c-9.06,3.46-15.52,10.62-16.48,21.67Z"/>
      <path d="M615.49,694.79c-27.62-8.51-55.66-13.97-84.65-15.53-.95-10.21-6.67-18.14-16.49-21.7v-169.88c43.36,2.25,81.25,26.52,101.64,64.11,23.94,44.11,24.17,97.83-.5,143Z"/>
      <path d="M738.89,523.39c-21.98-13.84-43.4-26.28-67.18-36.49-49.89-21.41-103.2-32.31-157.41-33.17l.07-101.75c64.27,1.25,123.54,28.22,167.27,74.21,25.6,27.4,45.22,59.42,57.25,97.2Z"/>
      <path d="M297.08,745.92l-118.28-.02c-9.13-17.96-15.9-36.43-20.82-56.07,22.36-61.86,62.72-115.74,116.89-153.99-19.05,72.14-8.82,143.27,26.86,208.16-.89.89-2.36,1.47-4.65,1.92Z"/>
      <path d="M501.35,453.87c-77.32,1.92-150.67,22.51-216.81,64.47,14.66-43.69,40.27-81.54,74.55-111.02,20.84-17.36,43.53-30.59,68.79-40.39,23.75-9.11,48.14-14.15,73.46-14.79l.02,101.72Z"/>
      <path d="M854.99,712.5c1.12-2.8.58-6.12-1-7.94l-16.69,41.36-120.64-.02c28.43-47.65,41.61-101.62,38.02-156.91-.95-16.34-3.21-31.15-6.8-47.65,63.69,47.68,107.29,116.96,121.54,194.79l-.97,9.76-26.8.07,13.34-33.45Z"/>
      <path d="M660.53,1001.02c-18.7,8.01-36.42,14.38-56,19.28,28.11-26.71,44.72-61.08,47.12-99.54,25.05-10.4,48.35-22.86,70.73-38.26,22.84-16.15,43.14-34.1,62.45-54.94,10.59,18.31,18.27,37.13,22.76,57.64-38.2,50.6-88.28,90.27-147.05,115.82Z"/>
      <path d="M410.35,1020.2c-80.83-21.39-151.85-68.22-201.93-134.53,4.31-20.42,11.71-39.69,22.49-57.8,36.97,40.25,81.64,71.59,133.03,92.85,2.57,37.5,18.17,71.36,46.4,99.48Z"/>
      <path d="M387.9,832.64c-16.02,24.96-24.18,52.81-24.18,83.39-49.2-20.69-93.95-51.77-130.8-92.02,15.91-25.99,35.91-47.87,59.04-67.02l17.73-.09c20.02,31.08,45.71,56.68,78.22,75.73Z"/>
      <path d="M782.82,823.72c-36.84,40.26-80.55,71.62-131.03,92.29.25-29.35-7.21-57.45-23.39-82.85,32.6-18.85,60.48-44.49,81.14-76.3l13.48-.05c23.25,18.74,43.41,40.79,59.8,66.91Z"/>
      <path d="M501.29,944.86c-46.58-1.4-90.8-10.17-133.59-27.24-.96-29.28,7.08-57.99,23.41-83.25,34.05,19.27,71.23,30.17,110.23,31.52l-.04,78.97Z"/>
      <path d="M514.44,944.78l-.12-79c39.52-1.17,76.35-12,110.88-30.91,15.75,24.61,23.76,53.46,22.77,82.82-42.74,16.72-86.16,26.18-133.53,27.09Z"/>
      <path d="M482.7,1010.86l18.62-.11-.02,22.74c-28.02-.5-54.89-4.35-82.3-11-29.41-24.94-48.19-60.36-51.12-100.22,43.02,16.69,87.41,25.72,133.43,26.84l.13,23.6-18.74,38.15Z"/>
      <path d="M514.3,1010.81l18.85.15-18.9-38.06.09-23.85c45.69-.81,90.3-10.08,133.41-26.82-2.73,39.89-21.78,75.19-51.24,100.31-27.05,6.44-53.54,10.4-82.11,11.02l-.09-22.75Z"/>
      <path d="M501.33,862.21c-38.45-1.28-74.32-12.2-108.32-30.73,23.48-35.7,63.63-58.5,108.28-60.49l.04,91.21Z"/>
      <path d="M623.21,831.76c-33.84,18.48-70.18,28.95-108.87,30.36v-91.18c44.69,1.9,84.32,24.56,108.87,60.82Z"/>
      <path d="M530.91,768.73l13.98-3.65c.24-.83-1.89-2.96-2.87-2.91l-27.4,1.33-.21-9.09,21.54,2.42,169.22.03c-20.25,30.51-46.88,54.83-78.68,73.08-21.99-32.33-55.32-54.44-95.57-61.21Z"/>
      <path d="M485.71,768.71c-38.53,6.14-73.54,27.28-95.89,60.86-30.82-18.19-56.38-42.58-75.75-72.69l156.56-.04,30.71-2.57.07,9.16-32.44-.82c4.71,6.17,10.09,3.72,16.74,6.09Z"/>
      <path d="M501.37,745.87h-48.26c-20.94-11.01-38.07-26.65-50.55-47.37,26.91-8.49,54.44-13.06,82.37-15.18,1.49,9.46,7.23,16.5,16.33,19.67l.1,42.88Z"/>
      <path d="M227.99,824.71c-10.39,18.13-18.08,36.59-22.84,56.72-17.66-24.42-31.18-49.58-41.97-76.8-6.02-15.82-10.41-31.07-13.98-47.79l30.68.08c13.44,24.32,29.05,46.43,48.11,67.8Z"/>
      <path d="M844.45,823.06c-9.61,20.88-20.52,39.46-33.92,58.29-4.52-20.18-12.38-38.62-22.95-56.68,18.48-20.98,34.53-43.17,48.29-67.73l30.59-.15c-4.58,23.36-12.04,44.45-22.02,66.27Z"/>
      <path d="M562.91,745.85l-48.6.07.07-42.97c8.81-3.33,14.76-10.14,16.22-19.63,27.99,2.05,55.49,6.62,82.67,15.4-12.58,20.18-29.25,35.62-50.36,47.13Z"/>
      <path d="M212.56,995.82l-14.79-22.99c-30.65-51.75-48.92-109.04-53.56-169.03l-.19-19.76c12.13,39.96,31.99,77.64,58,111.95-5.99,33.88-1.67,66.8,10.54,99.82Z"/>
      <path d="M803.78,994.24c10.69-32.35,15.84-64.8,9.66-98.23,25.99-33.83,45.23-71.18,58.07-111.18-.14,38.81-7.29,75.88-19.25,112.56-11.74,34.19-27.05,66.3-48.48,96.86Z"/>
      <path d="M831.05,756.88c-12.68,23.43-28.37,43.9-45.59,64.05-14.71-24.5-33.73-44.88-55.53-64.02l101.12-.03Z"/>
      <path d="M285.29,756.96c-21.52,19.09-40.36,39.6-55.05,63.98-17.71-19.89-32.58-40.92-45.69-64.12l100.74.14Z"/>
      <path d="M431.16,745.85l-123.9.04c25.64-19.13,53.47-32.86,83.97-43.79,10.29,17.31,22.93,31.3,39.93,43.76Z"/>
      <path d="M708.22,745.71l-123.54.14c15.92-11.82,29.52-25.94,39.86-43.7,29.86,10.7,56.97,23.84,83.69,43.57Z"/>
      <path d="M147.51,746.04c-4.12-13.96,3.8-33.61,8.37-49.87,4.6,17.55,10.17,32.65,18.24,49.56l-26.62.31Z"/>
      <path d="M150.44,681.81l-7.01,20.36c-.63-18.59-.89-35.99,1.46-55.21l5.56,34.85Z"/>
      <path d="M865.41,683.26l3.87-22.54,2.11-11.92c1.64,19.04,1.68,36.91,1.13,55.36l-7.1-20.9Z"/>
    </g>
  </g>
  <path class="cls-3" d="M995.39,1473.24h-21.01l-2.17-9.64c-1.58-5.67-8.58-8.02-13.84-7.94-5.1.08-11.63,3.13-12.84,9.04l-2.14,8.55h-23.01c.11-3.29-.08-8.41-2.14-11.5-5.22-7.82-17.13-8.23-23.5-1.54-3.2,3.36-3.6,9.02-4.34,13.04h-22.01l-.92-5.71c-1.41-6.72-5.96-11.1-13.02-11.84-4.63-.48-9.91,1.01-12.6,4.24-3.14,3.77-3.91,9.04-3.45,13.3h-25c1.64-4.68.91-9.77-3.14-13.62-6.73-6.39-19.16-5.31-23.39,3.63l-3.46,10h-21.01l-1.74-8.09c-1.74-6.86-8.71-9.9-15.13-9.49-6.4.4-11.72,5.32-13.29,11.98l-1.83,5.6h-22.01c-.04-3.65-.64-8.45-2.69-11.93-2.63-4.48-8.49-5.9-13.18-5.59-4.25.29-10.31,2.45-11.77,7.38l-3.35,10.14h-22.01l-1.81-9.79c-1.3-5.44-7.7-7.78-12.34-7.76-5.35.02-11.15,1.93-13.79,7.3-1.44,2.93-1.72,7.24-2.06,10.25h-23.6c.82-5.9-.88-12.08-6.14-15.29-4.9-2.99-11.63-3.08-16.69.01-4.96,3.04-6.6,9.59-6.57,15.27h-23.6c.8-5.46-1.22-12.19-6.12-15.29s-11.75-3.09-16.57.05c-4.93,3.21-6.76,9.49-6.71,15.24h-22l-2.01-8.87c-1.26-4.67-6.8-7.88-10.68-8.47-5.13-.77-10.62.16-14.04,4.25-2.99,3.58-3.67,8.87-4.27,13.09h-22.01c-.31-3.31-1.11-7.66-2.67-10.84-2.6-5.29-8.22-6.98-13.32-6.75-4.84.21-11.15,2.05-12.46,7.72l-2.54,9.87h-23.01c.45-3.49,0-8.28-2.03-11.57-3.86-6.26-12.18-7.3-18.42-4.84-6.48,2.56-9.21,9.62-9.53,16.41h-22.01l-2.23-9.55c-1.32-4.57-6.67-7.2-10.45-7.8-5-.79-10.6.29-13.91,4.36-2.95,3.63-3.56,8.78-4.4,12.99h-24.01c1.72-5.13.32-11.57-4.6-14.92-7.58-5.15-19.93-3.01-22.47,6.14l-2.92,8.78h-22.01l-1.01-6.72c-1.71-8.45-10.03-12.34-17.62-10.68s-12.18,9.51-11.36,17.4h-25c1.39-5.06.68-10.97-4.1-14.51-6.52-4.84-17.42-4.31-21.7,3.2-1.93,3.39-2.73,8-4.19,11.31h-22.01l-2.26-10.21c-1.63-5.95-8.2-7.68-13.64-7.33-5.02.32-11.16,2.75-12.58,8.62l-2.51,8.93h-22.01l-1.72-8.1c-2.06-7.89-10.67-10.63-17.57-8.99-7.78,1.85-11.4,9.55-10.7,17.08l-23,.04-.89-7.76c-1.18-6.66-7.83-9.38-14.73-10.49l.15-19.44,6.39-1.94c7.74-2.35,10.89-9.91,9.57-16.95-1.44-7.67-8.69-11.27-16.51-11.68l.27-16.02c.04-2.14,1.63-3.64,3.9-3.91,8.54-1.01,13.21-7.79,12.57-15.84-1.24-15.53-16.89-10.37-16.71-16.74l.47-16.15c9.54-.26,16.52-6.13,16.39-14.63-.14-8.88-6.56-15.3-16.47-14.75l-.24-16.96c-.07-4.66,17.09-1.48,16.74-18.93-.56-7.43-6.35-13.43-14.92-13.19-.69-.49-1.81-2.48-1.8-3.56l.08-14.67c0-.64,2.4-2.01,2.74-2.04,8.69-.22,14.27-6.79,13.94-14.79.03-7.38-5.7-13.44-13.96-13.92-.49-.13-2.71-2.13-2.71-2.96l.13-16.07c4.64-1.35,9.06-1.89,11.98-4.56,6.07-5.55,6.12-15.73.25-21.25-3.04-2.85-7.56-3.59-12.12-4.34l-.43-15.76c-.04-1.58,1.57-3.67,3.29-3.75,9.18-.45,14.17-7.98,13.48-16.14s-7.25-13.06-16.4-12.97l-.24-15.11c-.03-1.71,1.59-4.41,3.31-4.58,9.23-.88,14.2-8,13.32-16.33-.85-7.98-7.15-12.97-16.39-13.05l-.09-19.41c10.02.52,16.07-5.57,16.61-13.9.5-7.84-5.37-14.46-13.75-15.11-1.13-.09-3.17-2.14-3.12-3.33l.69-16.14c7.82-.53,12.5-3.58,14.86-9.31,2.16-5.26,1.74-11.72-2.81-16.27-2.89-2.89-7.48-3.76-12.46-4.76v-19.13c9.93.28,16.46-5.56,16.51-14.03.56-8.33-5.4-14.76-14.61-14.98-.25-.15-2.03-2.24-2.02-2.83l.19-16.29c7.43-.87,12.99-3.57,15.3-9.52,2.17-5.58,1.6-12.52-3.4-16.89-2.81-2.46-7.7-3.16-12.01-3.95l-.1-19.19c9.97.35,16.78-6.2,16.68-15.11-.09-8.93-6.43-14.57-16.56-14.7l.05-19.47c10.83.38,16.7-6.96,16.53-15.8-.17-8.89-7.93-13.93-16.78-13.79l.09-19.17c9.86.2,16.78-6.11,16.7-15.06-.09-9.25-7.52-14.59-16.83-14.73l.15-19.16c9.95.35,17.02-5.86,16.74-15.06-.26-8.55-7.17-14.61-16.83-14.43l.1-19.32c9.16.2,16.79-5.95,16.59-14.35.34-8.63-6.34-14.98-15.65-15.17-.17-.25-1.15-2.24-1.14-2.74l.03-13.75c0-.88,1.25-2.88,1.9-3.3,9.48-.14,15.71-7.36,14.79-15.7-.5-8.45-7.38-13.58-16.61-13.86l.02-16.76c0-.8,1.51-2.64,1.92-2.75,9.29.02,15.68-7.46,14.68-15.63-.33-8.53-7.37-13.46-16.69-13.63l.29-19.05c10.14-.29,16.89-6.37,16.61-15.63-.26-8.3-6.9-14.42-16.68-14.65l.08-19.35c10,.17,15.77-5.31,16.59-13.25.79-7.58-4.6-14.3-12.39-15.3-1.39-.18-4.32-1.77-4.31-3.13l.08-16.6c9.54-.65,15.85-5.75,16.59-13.98s-4.83-14.66-13.04-15.56c-.98-.11-3.54-1.92-3.54-2.93l.12-16.62c9.55-.66,15.73-5.29,16.47-13.87,1.37-15.84-16.49-14.51-16.52-18.53l-.07-12.79c0-2.33,1.49-4.24,3.56-4.47,8.49-.93,13.24-7.29,13.03-14.97-.2-7.23-5.31-12.81-13.48-13.73-1.72-.19-3.2-2.8-3.17-4.58l.27-15.08c9.88-.33,16.64-6.42,16.37-15.49-.25-8.5-6.81-14.19-16.47-14.68v-18.72c7.04-.27,12.39-3.42,14.92-8.76,2.53-5.34,1.98-12.48-2.81-16.77-3.22-2.88-7.49-3.74-12.38-4.86l.42-17.54,10.29-3.76c7.36-5.6,8.22-17.24,1.18-23.23-3.06-2.61-7.14-3.39-11.57-4.76l-.16-17.8c3.82-1.01,8.12-1.52,11.08-3.76,6.3-4.75,7.14-14.55,2.66-20.65-3.22-4.38-8.48-5.33-13.82-6.16l-.09-19.11c7.65.18,13.74-3.31,15.83-9.91,1.8-5.69.82-13.21-5.15-16.69-2.84-1.66-6.36-2.17-10.54-3.04l-.03-16.15c9.25-.85,14.53-6.74,15.22-15.21.98-1.52,4.79-1.24,6.73-1.26l14.5-.19c0,10.52,6.35,17.38,16.02,17.02,8.84-.33,14.64-7.74,14.76-17.25,12.41,1.91,23.06-2.13,23.17,2.73.19,8.58,7.52,15.2,16.05,14.6s14.56-7.44,14.28-16.97h23.58c-.43,9.42,5.76,16.35,14.42,16.75,7.98.37,15.3-5.08,15.58-14.1.13-4.34,7.31-2.21,19.9-2.68.96-.04,3.32.26,3.47,1.12l.54,3.06c1.56,8.78,8.7,13.67,17.02,12.53,7.56-1.03,13.53-7.97,12.72-16.56l20.31-.14c2.46-.02,3.67,1.63,3.89,4.33.72,8.72,9.09,13.57,17.02,12.44s13.16-8.04,12.74-16.73l23.11.03c.38,5.68,2,11.27,5.85,13.89,4.17,2.83,9.16,3.69,13.99,2.2,5.73-1.77,9.52-5.8,9.8-12.16.32-7.23,9.36-2.21,23.27-4.39-.04,9.68,6.27,17.68,15.48,17.31,9.06-.36,15.22-6.58,15.26-16.73l9.37-.06,13.25-.08c.15,6.48,2.08,11.19,6.37,14.3,4.18,3.03,9.8,3.24,14.69,1.27,6.29-2.53,8.95-7.47,9.06-15.1l8.64-.39,14.11-.12c.42,5.19.94,9.52,3.95,12.72,2.31,2.45,7.07,4.2,10.79,4.16,9.45-.1,15.85-7.06,14.94-16.83l15.23.03c2.46,0,5.4.08,7.58.52-.08,9.2,5.18,15.58,13.08,16.3s15.47-3.94,16.41-12.65c.14-1.29.48-2.93.82-3.74s3.05-.5,3.99-.51l15.23-.19c1.22-.02,3.73,1.5,3.73,2.63,0,8.68,6.55,15.03,15.11,14.43,8.01-.14,14.67-6.03,13.89-14.67.3-.65,2.34-2.25,3.24-2.25l17.63.05c.7,0,2.81,1.46,2.99,1.81.02,9.67,6.99,15.39,15.72,15.05,8.37-.19,14.83-7.42,14.34-16.77l20.64-.12c1.75,0,2.69,2.94,2.92,5.2.89,8.75,9.84,12.85,17.41,11.41,7.82-1.5,12.42-8.56,12.4-16.83l20.14.18c1.74.02,2.87,3.07,3.08,5.12.9,8.7,9.77,12.91,17.52,11.54,7.77-1.38,12.48-8.6,12.26-16.71l19.82.05c1.26,0,3.18,2.08,3.23,3.21.42,9.47,8.43,14.84,16.9,13.58,7.97-1.18,13.61-8.46,13.06-16.89l19.86.19c1.26,0,3.29,1.95,3.31,3.07.13,8.11,6.05,13.42,13.78,13.72,8.23.32,15.55-4.9,15.7-13.67.03-1.76,2.29-3.19,3.99-3.21l19.05-.25c.02,8.52,5.02,16.19,13,17.11s16.46-3.52,16.9-12.57c.08-1.74,1.48-4.3,3.12-4.32l20.02-.28c-.11,9.75,6.28,17.6,15.5,17.33,9.24-.27,15.04-7.01,15.03-16.93l14.58.07,7.68.31c.03,9.88,5.6,15.22,15.35,16.28l-.02,16.46c-9.98-.18-16.97,5.8-16.88,14.63.09,8.37,6.42,14.67,16.51,14.56l.28,19.58c-9.98-.32-16.89,6.2-16.74,14.84.16,8.78,6.81,14.98,16.8,14.63l.34,19.5c-10.06-.15-17.06,5.64-17.16,14.86s7.03,14.64,16.94,15.09l.03,18.73c-9.7.12-17.24,6.26-16.93,15.18.3,8.76,6.99,14.75,16.75,14.69l.35,15.57c.02.97-1.59,3.27-2.13,3.73-9.24.11-15.53,7.46-14.85,15.79.77,8.54,6.95,13.62,16.77,13.83l-.09,19.54c-10.03-.36-16.18,5.61-16.9,13.92-.02,8.19,5.77,14.97,15.04,15.21.41.11,2.45,2.56,2.41,3.53l-.72,16.19c-10.15-.19-16.96,6.45-16.71,14.97s7.28,14.81,17.02,14.36l-.04,19.6c-9.92-.51-17.23,5.83-16.98,15.04.23,8.4,7.16,14.53,16.9,14.64l.1,18.42-8.53,2.4c-6.53,1.84-9.3,9.85-8.2,16.09,2.3,13.1,17.02,9.73,16.91,14.81l-.36,16.09c-9.45.37-15.97,5.52-16.79,13.73-.84,8.39,5.07,15.41,13.88,16.25,1.22.12,3.31,2.7,3.28,3.99l-.4,15.53c-10.13-.06-16.17,5.63-16.79,14.16-.57,7.79,5.86,14.47,14,14.98,1.19.07,3.18,2.21,3.18,3.57l-.07,15.93c-7.39.1-12.57,3.06-15.4,8.44s-2.22,12.47,2.69,17.13c3.1,2.95,7.67,3.77,12.59,4.55l.36,18.94c-8,.19-13.63,3.07-16,9.01s-1.83,12.89,3.46,17c3.21,2.49,7.23,3.17,12.09,4.27l.27,18.87c-10.13-.21-16.66,5.51-17.06,14.37s6.25,15.39,16.67,14.93l.04,19.79c-10.43-.55-16.89,6.38-16.66,15.02.22,8.55,7.43,14.61,16.84,14.16l.26,19.7c-10.24-.61-17.5,5.75-17.17,15.11.3,8.43,7.38,14.13,16.97,14.32l-.14,18.87c-4.79,1.04-8.96,1.83-12.02,4.38-5.34,4.46-6.06,11.88-3.19,17.58,2.77,5.51,8.15,8.11,15.34,8.24v19.36c-9.29-.09-16.16,5.09-16.9,13.58-.66,7.61,4.83,14.99,13.29,15.63,1.91.15,4.06,2.58,3.99,4.39l-.64,15.65c-10.52-.53-17.19,6.31-16.71,14.99s6.67,14.42,16.63,13.91l.37,19.82c-9.47-.41-16.37,4.98-16.96,13.46-.54,7.7,4.86,14.91,13.36,15.68,1.27.12,3.77,2.33,3.74,3.57l-.36,15.62c-4.22,1.13-7.9,1.82-10.87,3.67-5.83,3.64-7.13,11.23-4.87,17.04s7.84,9.27,15.77,9.35l.22,19.59c-10.18-.27-17.44,5.96-17,15.25.41,8.57,7.33,14.24,17,14.18l-.19,19.39c-10.34-.39-17.29,6.11-16.88,15.45.37,8.5,7.49,13.99,17.05,14.21l-.18,19.04c-7.72.19-13.06,3.01-15.55,8.54s-1.7,12.72,3.52,16.98c3.06,2.5,7.18,3.22,11.98,4.54l.26,16c.01.8-2.38,2.86-2.83,2.98-8.8.14-14.31,6.83-14.28,14.78,1.77,17.21,17.2,11.59,17.14,17.44l-.14,16.18c-6.73.53-12.17,2.88-15.01,7.76-3.08,5.29-2.83,11.85,1.45,16.77,2.98,3.43,8.12,4.84,12.74,6.26,1.65,5.67,1.46,12.74.42,18.74-9.75-.14-16.73,6.18-16.55,14.91.18,8.36,6.57,15,16.6,14.19.65,6.55.76,13.18.09,19.94-9.68-.18-16.18,5.66-16.66,13.94-.47,8.1,4.92,14.75,13.87,15.39,1.36.1,3.34,2.41,3.3,3.65l-.52,16.64c-10.38-.57-16.89,6.35-16.65,15.08.24,8.58,7.49,14.22,16.93,14.15l-.14,20.06c-12.24,3.22-13.9,6.93-16.4,18.4h-.03ZM962.78,48.39H52.79v1376.87h910V48.39h-.01Z"/>
</svg>