<?xml version="1.0" encoding="UTF-8"?>
<svg id="_레이어_1" data-name="레이어 1" xmlns="http://www.w3.org/2000/svg" viewBox="0 0 1014 1474">
  <defs>
    <style>
      .cls-1 {
        fill: #98b7a1;
      }

      .cls-2 {
        fill: #f5efea;
      }

      .cls-3 {
        fill: #fffbf8;
      }
    </style>
  </defs>
  <path class="cls-3" d="M995.39,1473.24h-21.01l-2.17-9.64c-1.58-5.67-8.58-8.02-13.84-7.94-5.1.08-11.63,3.13-12.84,9.04l-2.14,8.55h-23.01c.11-3.29-.08-8.41-2.14-11.5-5.22-7.82-17.13-8.23-23.5-1.54-3.2,3.36-3.6,9.02-4.34,13.04h-22.01l-.92-5.71c-1.41-6.72-5.96-11.1-13.02-11.84-4.63-.48-9.91,1.01-12.6,4.24-3.14,3.77-3.91,9.04-3.45,13.3h-25c1.64-4.68.91-9.77-3.14-13.62-6.73-6.39-19.16-5.31-23.39,3.63l-3.46,10h-21.01l-1.74-8.09c-1.74-6.86-8.71-9.9-15.13-9.49-6.4.4-11.72,5.32-13.29,11.98l-1.83,5.6h-22.01c-.04-3.65-.64-8.45-2.69-11.93-2.63-4.48-8.49-5.9-13.18-5.59-4.25.29-10.31,2.45-11.77,7.38l-3.35,10.14h-22.01l-1.81-9.79c-1.3-5.44-7.7-7.78-12.34-7.76-5.35.02-11.15,1.93-13.79,7.3-1.44,2.93-1.72,7.24-2.06,10.25h-23.6c.82-5.9-.88-12.08-6.14-15.29-4.9-2.99-11.63-3.08-16.69.01-4.96,3.04-6.6,9.59-6.57,15.27h-23.6c.8-5.46-1.22-12.19-6.12-15.29s-11.75-3.09-16.57.05c-4.93,3.21-6.76,9.49-6.71,15.24h-22l-2.01-8.87c-1.26-4.67-6.8-7.88-10.68-8.47-5.13-.77-10.62.16-14.04,4.25-2.99,3.58-3.67,8.87-4.27,13.09h-22.01c-.31-3.31-1.11-7.66-2.67-10.84-2.6-5.29-8.22-6.98-13.32-6.75-4.84.21-11.15,2.05-12.46,7.72l-2.54,9.87h-23.01c.45-3.49,0-8.28-2.03-11.57-3.86-6.26-12.18-7.3-18.42-4.84-6.48,2.56-9.21,9.62-9.53,16.41h-22.01l-2.23-9.55c-1.32-4.57-6.67-7.2-10.45-7.8-5-.79-10.6.29-13.91,4.36-2.95,3.63-3.56,8.78-4.4,12.99h-24.01c1.72-5.13.32-11.57-4.6-14.92-7.58-5.15-19.93-3.01-22.47,6.14l-2.92,8.78h-22.01l-1.01-6.72c-1.71-8.45-10.03-12.34-17.62-10.68s-12.18,9.51-11.36,17.4h-25c1.39-5.06.68-10.97-4.1-14.51-6.52-4.84-17.42-4.31-21.7,3.2-1.93,3.39-2.73,8-4.19,11.31h-22.01l-2.26-10.21c-1.63-5.95-8.2-7.68-13.64-7.33-5.02.32-11.16,2.75-12.58,8.62l-2.51,8.93h-22.01l-1.72-8.1c-2.06-7.89-10.67-10.63-17.57-8.99-7.78,1.85-11.4,9.55-10.7,17.08l-23,.04-.89-7.76c-1.18-6.66-7.83-9.38-14.73-10.49l.15-19.44,6.39-1.94c7.74-2.35,10.89-9.91,9.57-16.95-1.44-7.67-8.69-11.27-16.51-11.68l.27-16.02c.04-2.14,1.63-3.64,3.9-3.91,8.54-1.01,13.21-7.79,12.57-15.84-1.24-15.53-16.89-10.37-16.71-16.74l.47-16.15c9.54-.26,16.52-6.13,16.39-14.63-.14-8.88-6.56-15.3-16.47-14.75l-.24-16.96c-.07-4.66,17.09-1.48,16.74-18.93-.56-7.43-6.35-13.43-14.92-13.19-.69-.49-1.81-2.48-1.8-3.56l.08-14.67c0-.64,2.4-2.01,2.74-2.04,8.69-.22,14.27-6.79,13.94-14.79.03-7.38-5.7-13.44-13.96-13.92-.49-.13-2.71-2.13-2.71-2.96l.13-16.07c4.64-1.35,9.06-1.89,11.98-4.56,6.07-5.55,6.12-15.73.25-21.25-3.04-2.85-7.56-3.59-12.12-4.34l-.43-15.76c-.04-1.58,1.57-3.67,3.29-3.75,9.18-.45,14.17-7.98,13.48-16.14s-7.25-13.06-16.4-12.97l-.24-15.11c-.03-1.71,1.59-4.41,3.31-4.58,9.23-.88,14.2-8,13.32-16.33-.85-7.98-7.15-12.97-16.39-13.05l-.09-19.41c10.02.52,16.07-5.57,16.61-13.9.5-7.84-5.37-14.46-13.75-15.11-1.13-.09-3.17-2.14-3.12-3.33l.69-16.14c7.82-.53,12.5-3.58,14.86-9.31,2.16-5.26,1.74-11.72-2.81-16.27-2.89-2.89-7.48-3.76-12.46-4.76v-19.13c9.93.28,16.46-5.56,16.51-14.03.56-8.33-5.4-14.76-14.61-14.98-.25-.15-2.03-2.24-2.02-2.83l.19-16.29c7.43-.87,12.99-3.57,15.3-9.52,2.17-5.58,1.6-12.52-3.4-16.89-2.81-2.46-7.7-3.16-12.01-3.95l-.1-19.19c9.97.35,16.78-6.2,16.68-15.11-.09-8.93-6.43-14.57-16.56-14.7l.05-19.47c10.83.38,16.7-6.96,16.53-15.8-.17-8.89-7.93-13.93-16.78-13.79l.09-19.17c9.86.2,16.78-6.11,16.7-15.06-.09-9.25-7.52-14.59-16.83-14.73l.15-19.16c9.95.35,17.02-5.86,16.74-15.06-.26-8.55-7.17-14.61-16.83-14.43l.1-19.32c9.16.2,16.79-5.95,16.59-14.35.34-8.63-6.34-14.98-15.65-15.17-.17-.25-1.15-2.24-1.14-2.74l.03-13.75c0-.88,1.25-2.88,1.9-3.3,9.48-.14,15.71-7.36,14.79-15.7-.5-8.45-7.38-13.58-16.61-13.86l.02-16.76c0-.8,1.51-2.64,1.92-2.75,9.29.02,15.68-7.46,14.68-15.63-.33-8.53-7.37-13.46-16.69-13.63l.29-19.05c10.14-.29,16.89-6.37,16.61-15.63-.26-8.3-6.9-14.42-16.68-14.65l.08-19.35c10,.17,15.77-5.31,16.59-13.25.79-7.58-4.6-14.3-12.39-15.3-1.39-.18-4.32-1.77-4.31-3.13l.08-16.6c9.54-.65,15.85-5.75,16.59-13.98s-4.83-14.66-13.04-15.56c-.98-.11-3.54-1.92-3.54-2.93l.12-16.62c9.55-.66,15.73-5.29,16.47-13.87,1.37-15.84-16.49-14.51-16.52-18.53l-.07-12.79c0-2.33,1.49-4.24,3.56-4.47,8.49-.93,13.24-7.29,13.03-14.97-.2-7.23-5.31-12.81-13.48-13.73-1.72-.19-3.2-2.8-3.17-4.58l.27-15.08c9.88-.33,16.64-6.42,16.37-15.49-.25-8.5-6.81-14.19-16.47-14.68v-18.72c7.04-.27,12.39-3.42,14.92-8.76,2.53-5.34,1.98-12.48-2.81-16.77-3.22-2.88-7.49-3.74-12.38-4.86l.42-17.54,10.29-3.76c7.36-5.6,8.22-17.24,1.18-23.23-3.06-2.61-7.14-3.39-11.57-4.76l-.16-17.8c3.82-1.01,8.12-1.52,11.08-3.76,6.3-4.75,7.14-14.55,2.66-20.65-3.22-4.38-8.48-5.33-13.82-6.16l-.09-19.11c7.65.18,13.74-3.31,15.83-9.91,1.8-5.69.82-13.21-5.15-16.69-2.84-1.66-6.36-2.17-10.54-3.04l-.03-16.15c9.25-.85,14.53-6.74,15.22-15.21.98-1.52,4.79-1.24,6.73-1.26l14.5-.19c0,10.52,6.35,17.38,16.02,17.02,8.84-.33,14.64-7.74,14.76-17.25,12.41,1.91,23.06-2.13,23.17,2.73.19,8.58,7.52,15.2,16.05,14.6s14.56-7.44,14.28-16.97h23.58c-.43,9.42,5.76,16.35,14.42,16.75,7.98.37,15.3-5.08,15.58-14.1.13-4.34,7.31-2.21,19.9-2.68.96-.04,3.32.26,3.47,1.12l.54,3.06c1.56,8.78,8.7,13.67,17.02,12.53,7.56-1.03,13.53-7.97,12.72-16.56l20.31-.14c2.46-.02,3.67,1.63,3.89,4.33.72,8.72,9.09,13.57,17.02,12.44s13.16-8.04,12.74-16.73l23.11.03c.38,5.68,2,11.27,5.85,13.89,4.17,2.83,9.16,3.69,13.99,2.2,5.73-1.77,9.52-5.8,9.8-12.16.32-7.23,9.36-2.21,23.27-4.39-.04,9.68,6.27,17.68,15.48,17.31,9.06-.36,15.22-6.58,15.26-16.73l9.37-.06,13.25-.08c.15,6.48,2.08,11.19,6.37,14.3,4.18,3.03,9.8,3.24,14.69,1.27,6.29-2.53,8.95-7.47,9.06-15.1l8.64-.39,14.11-.12c.42,5.19.94,9.52,3.95,12.72,2.31,2.45,7.07,4.2,10.79,4.16,9.45-.1,15.85-7.06,14.94-16.83l15.23.03c2.46,0,5.4.08,7.58.52-.08,9.2,5.18,15.58,13.08,16.3s15.47-3.94,16.41-12.65c.14-1.29.48-2.93.82-3.74s3.05-.5,3.99-.51l15.23-.19c1.22-.02,3.73,1.5,3.73,2.63,0,8.68,6.55,15.03,15.11,14.43,8.01-.14,14.67-6.03,13.89-14.67.3-.65,2.34-2.25,3.24-2.25l17.63.05c.7,0,2.81,1.46,2.99,1.81.02,9.67,6.99,15.39,15.72,15.05,8.37-.19,14.83-7.42,14.34-16.77l20.64-.12c1.75,0,2.69,2.94,2.92,5.2.89,8.75,9.84,12.85,17.41,11.41,7.82-1.5,12.42-8.56,12.4-16.83l20.14.18c1.74.02,2.87,3.07,3.08,5.12.9,8.7,9.77,12.91,17.52,11.54,7.77-1.38,12.48-8.6,12.26-16.71l19.82.05c1.26,0,3.18,2.08,3.23,3.21.42,9.47,8.43,14.84,16.9,13.58,7.97-1.18,13.61-8.46,13.06-16.89l19.86.19c1.26,0,3.29,1.95,3.31,3.07.13,8.11,6.05,13.42,13.78,13.72,8.23.32,15.55-4.9,15.7-13.67.03-1.76,2.29-3.19,3.99-3.21l19.05-.25c.02,8.52,5.02,16.19,13,17.11s16.46-3.52,16.9-12.57c.08-1.74,1.48-4.3,3.12-4.32l20.02-.28c-.11,9.75,6.28,17.6,15.5,17.33,9.24-.27,15.04-7.01,15.03-16.93l14.58.07,7.68.31c.03,9.88,5.6,15.22,15.35,16.28l-.02,16.46c-9.98-.18-16.97,5.8-16.88,14.63.09,8.37,6.42,14.67,16.51,14.56l.28,19.58c-9.98-.32-16.89,6.2-16.74,14.84.16,8.78,6.81,14.98,16.8,14.63l.34,19.5c-10.06-.15-17.06,5.64-17.16,14.86s7.03,14.64,16.94,15.09l.03,18.73c-9.7.12-17.24,6.26-16.93,15.18.3,8.76,6.99,14.75,16.75,14.69l.35,15.57c.02.97-1.59,3.27-2.13,3.73-9.24.11-15.53,7.46-14.85,15.79.77,8.54,6.95,13.62,16.77,13.83l-.09,19.54c-10.03-.36-16.18,5.61-16.9,13.92-.02,8.19,5.77,14.97,15.04,15.21.41.11,2.45,2.56,2.41,3.53l-.72,16.19c-10.15-.19-16.96,6.45-16.71,14.97s7.28,14.81,17.02,14.36l-.04,19.6c-9.92-.51-17.23,5.83-16.98,15.04.23,8.4,7.16,14.53,16.9,14.64l.1,18.42-8.53,2.4c-6.53,1.84-9.3,9.85-8.2,16.09,2.3,13.1,17.02,9.73,16.91,14.81l-.36,16.09c-9.45.37-15.97,5.52-16.79,13.73-.84,8.39,5.07,15.41,13.88,16.25,1.22.12,3.31,2.7,3.28,3.99l-.4,15.53c-10.13-.06-16.17,5.63-16.79,14.16-.57,7.79,5.86,14.47,14,14.98,1.19.07,3.18,2.21,3.18,3.57l-.07,15.93c-7.39.1-12.57,3.06-15.4,8.44s-2.22,12.47,2.69,17.13c3.1,2.95,7.67,3.77,12.59,4.55l.36,18.94c-8,.19-13.63,3.07-16,9.01s-1.83,12.89,3.46,17c3.21,2.49,7.23,3.17,12.09,4.27l.27,18.87c-10.13-.21-16.66,5.51-17.06,14.37s6.25,15.39,16.67,14.93l.04,19.79c-10.43-.55-16.89,6.38-16.66,15.02.22,8.55,7.43,14.61,16.84,14.16l.26,19.7c-10.24-.61-17.5,5.75-17.17,15.11.3,8.43,7.38,14.13,16.97,14.32l-.14,18.87c-4.79,1.04-8.96,1.83-12.02,4.38-5.34,4.46-6.06,11.88-3.19,17.58,2.77,5.51,8.15,8.11,15.34,8.24v19.36c-9.29-.09-16.16,5.09-16.9,13.58-.66,7.61,4.83,14.99,13.29,15.63,1.91.15,4.06,2.58,3.99,4.39l-.64,15.65c-10.52-.53-17.19,6.31-16.71,14.99s6.67,14.42,16.63,13.91l.37,19.82c-9.47-.41-16.37,4.98-16.96,13.46-.54,7.7,4.86,14.91,13.36,15.68,1.27.12,3.77,2.33,3.74,3.57l-.36,15.62c-4.22,1.13-7.9,1.82-10.87,3.67-5.83,3.64-7.13,11.23-4.87,17.04s7.84,9.27,15.77,9.35l.22,19.59c-10.18-.27-17.44,5.96-17,15.25.41,8.57,7.33,14.24,17,14.18l-.19,19.39c-10.34-.39-17.29,6.11-16.88,15.45.37,8.5,7.49,13.99,17.05,14.21l-.18,19.04c-7.72.19-13.06,3.01-15.55,8.54s-1.7,12.72,3.52,16.98c3.06,2.5,7.18,3.22,11.98,4.54l.26,16c.01.8-2.38,2.86-2.83,2.98-8.8.14-14.31,6.83-14.28,14.78,1.77,17.21,17.2,11.59,17.14,17.44l-.14,16.18c-6.73.53-12.17,2.88-15.01,7.76-3.08,5.29-2.83,11.85,1.45,16.77,2.98,3.43,8.12,4.84,12.74,6.26,1.65,5.67,1.46,12.74.42,18.74-9.75-.14-16.73,6.18-16.55,14.91.18,8.36,6.57,15,16.6,14.19.65,6.55.76,13.18.09,19.94-9.68-.18-16.18,5.66-16.66,13.94-.47,8.1,4.92,14.75,13.87,15.39,1.36.1,3.34,2.41,3.3,3.65l-.52,16.64c-10.38-.57-16.89,6.35-16.65,15.08.24,8.58,7.49,14.22,16.93,14.15l-.14,20.06c-12.24,3.22-13.9,6.93-16.4,18.4h-.03ZM962.78,48.39H52.79v1376.87h910V48.39h-.01Z"/>
  <g>
    <path class="cls-2" d="M52.79,1425.26V48.39h910v1376.87H52.79ZM645.85,493.45c2.92,2.54,4.85,5.36,9.06,6.46l-21.11-52.43-14.19-33.72-13.73-33.22-8.51-19.04c-2.18-4.88-4.88-9-8.6-12.96-1.52-1.62-6.31-2.5-7.12.16-2.06,6.78-1.55,13.99-.58,21.11,2.46,18,9.3,34.7,19.6,49.56,4.55,6.56,9.37,12.4,12.58,19.67l10.75,24.31c2.67,6.04,6.01,11.66,9.7,17.09,3.37,4.97,7.52,8.99,12.15,13.01ZM700.49,441.75c-1.24-7.2-2.95-14.44-6.79-20.68-5.96-9.67-10.14-19.42-12.52-30.6-3.79-17.81-9.13-28.42-24.21-40.02,1.41,12.16,4.01,22.78,6.82,34.02l11.28,45.2,6.76,28.19c2.13,8.86,6.96,22.56,14.44,19.9,7.06-10.04,6.33-23.73,4.21-36ZM172.72,797.77c22.34,21.63,47.04,37.54,76.16,48.76,11.73,4.52,23.59,6.81,35.77,10.09,12.94,3.49,24.81,8.8,36.66,14.99l29.98,15.67c24.31,12.71,52.52,18.04,79.82,14.68-.19,2.35-.72,4.14-1.5,6.06l-13.42,34.96c-.36.41-1.06,1.07-1.37.88l-1.55-.93c-9.31-8.93-19.02-16.79-29.81-23.89-8.23-4.68-16.08-9.01-25.07-11.97l-39.86-13.13c-16.14-5.31-30.63-12.02-45.03-20.87-9.84-6.04-20.09-11.28-31.2-14.36l-24.22-6.72c-25-4.92-49.84-2.42-74.78,1.43l-33.42,5.16c-.73,3.23,1.38,5.33,4.16,6.59,6.28,2.84,12.42,4.7,19.19,6.44l63.01,16.19,65.6,19.05,53.6,16.36,78.43,23.65,14.92,3.56c-1.12,3.2-.61,6.06,1.93,8.43-15.13,45.69-26.17,93.28-20.49,141.53.38,3.27,2.45,6.17,6.1,5.56,6.63-1.11,11.86-6.26,14.33-12.56-3.59-24.42-2.81-48.61,2.23-72.76l5.69-27.31,7.27-25.92c.3-1.08,2-1.63,3.14-1.24l14.73,4.97,48.06,12.38,34.29,7.49,22.87,4.66,77.51,13.04,43.37,6.92,55.71,10.19c4.39.8,8.33,1.45,13.13.19-10.33-10.62-20.16-20-31.18-29.06l-25.47-18.19c-14.41-9-29.5-15.82-46.17-19.56-18.66-4.19-36.96-5.65-56.16-6.33l-72.49-2.58-39.7-2.09-32.94-.82c-.6-.18-1.83-.69-1.69-1.11l.54-1.54,27.81-70.16,18.49-41.37c.38-.85,1.46-2.64,2.24-2.54.65.08,1.84.9,2.66,1.5l27.25,3.49,22.82,1.27,21.53.59,38.86.45,33.72-.58,32.93-1.15,16.8-.7,24.18-.72,14.13-.14,39.58-.77c.57-.25,1.31-.45,1.29-.73l-.09-1.48c-9.69-6.19-19.54-11.22-30.08-16.15-14.18-6.67-28.57-11.74-44.15-14.23-27.84-4.46-59.73,1.02-87.79,5.14l-30.68,4.5-39.62,5.41-26.85,4.05-14.32,2.79,11.16-22.88,21.88-43.3c.41-.81,1.23-2.12,1.83-1.97l2.34.58,15.37.7,36.88-1.61,39.19-1.45,22.76-.83c30.91-.3,61.19-.34,91.96-3.76l27.05-4.38c5.39-.87,10.11-3.18,14.6-6.22s-5.27-9.29-12.08-12.61c-14.36-6.99-29.38-10.54-45.25-12.5-21.27-2.63-42.02-1.01-62.43,5.58l-41.45,10.94-42.72,7.86-24.59,4.93-17.67,3.64,2.09-3.8,9.87-18.37c.32-.59.61-1.95,1.15-2.04l2.58-.41,1.44-.23c.27-.04-.79-.87-.83-1.14l-.44-3,26.21-45.79,17.74-30c.5-.46,1.46-1.35,1.87-1.07l1.42.95c3.16,2.13,5.73,4.06,9.88,4.39.77-2.41.53-5.05-1.09-7.09l-4.5-5.63c-.52-.65-.59-2.72-.09-3.51l15.95-25.13c.47-.75,1.12-1.92,1.74-2.09s1.96.01,2.82.08l1.94.16c1.52.13-1.5-5.66-.65-6.99l10.85-16.93,47.09-68.35,13.98-19.11c1.86-2.54,4.54-6.81,3.7-9.94-1-3.75-6.65-3.93-9.32-2.57-4.32,2.21-6.95,5.06-9.65,8.77l-13.54,18.66-18.99,26.75-6.57,9.93c-.31.47-1.38,1.15-1.81,1.32-.29.12-.93-.87-1.04-1.33l-3.83-15.68-4.83-11.88-16.01-28.23c-4.14-7.31-6.58-14.86-8.82-22.94-4.78-17.22-13.46-32.37-26.05-45.16-5.27-5.36-10.8-10.27-17.16-14.37l-14.31-9.24-18-11.52-1.82.16c-1.04.09-.13,4.63,2.12,8.15l12.38,19.36c14.26,20.7,27.35,41.5,40.33,63.12l34.01,56.65,15.43,24.55-16.85,25.8-28.31-39.99-18.01-26.39-15.11-25.2c-10.22-19.44-23.71-36.14-41.08-49.69-11.93-9.31-24.73-16.75-39.22-21.16-4.09-1.25-7.94-1.29-12.28-.52-.1,3.95.73,7.43,2.58,10.88,4.12,7.73,9.12,14.69,14.67,21.51l14.79,18.18,22.73,25,30.29,30.9,41.29,44.68,20.6,22.33-16.97,26.88-27.89-31.02c-13.7-15.52-26.72-30.99-38.75-47.84l-13.43-17.04c-18.95-20.15-45.15-37.92-72.92-42.36-3.87-.62-7.84.03-11.97.41-.35,3.88.43,7.56,2.92,10.52l12.57,14.98,27.19,26.56,39.15,32.82,55.32,46.73,20.43,17.66-17.06,28.33-14.42-10.1-95.31-63.09-27.31-18.52c-11.97-8.12-23.67-15.81-36.35-22.73-5.2-2.84-10.38-4.89-16.22-5.89-4.87-.84-10.48,2.02-11.11,7.32-1.18,9.91,13.39,29.2,21.41,38.07,17.45,19.29,39.07,33.32,64.15,40.63,10.61,3.09,20.67,6.55,29.97,12.38l17.42,10.93c9.55,5.99,18.55,12.25,29.04,16.54,10.02,4.1,19.52,5.85,31.12,6.68l-14.29,25.48-7.06,12.38-40.71-27.68-62.61-41.52-55.13-36.96-33.24-21.91c-8.37-5.52-16.92-9.75-26.37-13.22-5.23-1.92-11.77-1.96-14.72,2.51-3.74,5.66,6.3,21.01,11.84,28.55,16.87,22.95,48.75,49.14,74.59,59.05l9.27,3.56c10.57,4.06,21.46,6.66,31.12,12.65l30.25,18.75,24.28,14.83c13.64,7.33,28.43,12.1,44.28,13.78l-16.83,31.62-7.19,14.19-12.76-9.31-14.76-10.15-30.49-20.55-28.29-18.82-48.47-32.14-22.53-15.25-32.15-21.57-21.07-12.56c-6.13-3.65-12.62-6.32-19.65-7.7-5.36-.77-9.95,1.93-10.98,7.33,1.9,7.07,4.93,13.27,9.08,19.35,14.75,21.6,33.95,38.75,56.03,52.78,14.79,9.4,30.56,15.27,46.98,20.99l20.59,9.58,29.95,19.11c12.56,8.01,24.79,15.41,38.95,20.12,10.77,3.63,21.33,5.51,32.67,6.22.59.08,2.58.76,2.29,1.32l-.98,1.95-7.16,14.37-20.9,43.11c-1.31-2.99-1.52-5.95-3.24-7.64-6.99-6.88-14.37-12.52-22.29-18.14l-22.79-16.2-37.55-26.25-30.85-22.24-16.88-12.08c-25.56-18.3-51.69-31.25-83.77-31.15-9.11.03-17.76.24-26.6,1.7l-24.7,4.09c.95,2.97,2.65,4.38,5.09,5.64l57.04,29.47,29.41,16.5c31.81,17.85,63.84,34.45,96.91,50.06l50.29,21.59,13.51,4.78c4.96,1.76,10.15,2.39,15.6,2.05l-11.8,25.97-13.54,31.58c.16,1.15-1.3,3.63-2.27,3.33l-15.9-9.48-39.87-21.88-42.66-22.57-25.63-13.46-58.62-31.39-38.47-20.69c-13.06-7.03-26.04-13.17-40.25-17.48-5.45-1.65-11.62-3.07-16.4-.23-2.32,1.38-3.94,5.92-3.11,8.15,2.68,7.2,6.72,13.1,11.73,18.64l9.28,10.27ZM721.57,491.54l22.31-11.98,13.12-7.12,56.76-30.51,8.45-5.07c.66-.4,1.36-2.17,1.04-2.73l-7.67-.6c-9.16-.72-18.02.02-26.28,4.16l-21.89,10.96c-14.78,6.75-27.68,5.87-42.3,14.78-11.52,7.03-23.22,17.2-27.65,29.91.71,1.83,3.34,4.7,5.26,4.56,6.89-.52,12.92-3.17,18.85-6.35ZM707.68,540.28l31.33-4.41,69.17-8.21c12.61-1.5,24.39-3.98,36.52-7.1,7.25-1.87,17.96-5.55,20.77-11.78-3.68-3.88-7.59-6.87-12.52-9.02-16.61-7.24-34.73-9.17-52.57-6.12-8.28,1.41-15.66,3.47-23.18,7.2-11.54,5.74-23.02,10.51-35.29,14.48l-21.79,7.06-25.94,8.27c-4.7,1.5-9.47,3.68-12.72,7.46-.49,1.67,2.6,4.07,4.39,3.93l21.84-1.76ZM724.15,595.51l18.24,2.07c27.86,3.16,64.21,7.33,90.78,1.49,2.65-.58,5.86-2.43,6.17-5.54-2.34-4.07-5.78-7.67-9.92-10.47-22.97-15.54-51.32-22.72-78.74-17.12l-23.95,4.89-46.92,5.19c-13.2,1.46-25.74,2.27-38.69,5.09-1.46.32-2.8,2.13-2.7,3.33.39,4.61,19.93,6.33,28.86,6.98l56.88,4.09ZM676.45,674.09l39.04-1.85,64.43-3.54c6.02-.33,11.32-.3,17.9-1.66-5.51-6.81-11.85-10.89-18.29-15.85-23.71-18.24-49.65-30.68-80.25-23.17l-21.45,5.26-20.58,5.03-36.02,8.29-22.32,5.2c-6.12,1.43-16.6,5.81-17.72,10.24-3.26,12.96,79.73,12.79,95.26,12.05ZM574.03,919.89l72.83,7.72c22.93,1.78,45.05,2.23,67.87,1.26,9.84-.42,27.02-2.55,30.37-10.53-4.05-7.15-9.76-12.68-16.46-17.19-15.29-10.28-35.92-19.54-53.91-22.62l-15.52-2.65c-13.91-.97-27.82-.63-41.75,1.83l-57.13,10.06-37.13,3.64-35.56,3.43c-10.89,1.05-20.88,2.45-31.46,5.58-.89,1.35-1.64,3.16-2.22,5.09,4.04,2.63,7.74,4.72,12.5,5.26l40.41,4.54,29.19,1.77,37.99,2.83Z"/>
    <g>
      <path class="cls-1" d="M172.72,797.77l-9.28-10.27c-5-5.54-9.05-11.44-11.73-18.64-.83-2.23.79-6.77,3.11-8.15,4.78-2.84,10.96-1.42,16.4.23,14.22,4.32,27.19,10.46,40.25,17.48l38.47,20.69,58.62,31.39,25.63,13.46,42.66,22.57,39.87,21.88,15.9,9.48c.97.3,2.44-2.18,2.27-3.33l13.54-31.58,11.8-25.97c-5.45.33-10.64-.3-15.6-2.05l-13.51-4.78-50.29-21.59c-33.07-15.61-65.1-32.21-96.91-50.06l-29.41-16.5-57.04-29.47c-2.44-1.26-4.14-2.67-5.09-5.64l24.7-4.09c8.84-1.46,17.5-1.67,26.6-1.7,32.08-.1,58.22,12.85,83.77,31.15l16.88,12.08,30.85,22.24,37.55,26.25,22.79,16.2c7.92,5.63,15.3,11.26,22.29,18.14,1.72,1.69,1.92,4.65,3.24,7.64l20.9-43.11,7.16-14.37.98-1.95c.28-.56-1.7-1.25-2.29-1.32-11.35-.71-21.9-2.59-32.67-6.22-14.16-4.71-26.39-12.11-38.95-20.12l-29.95-19.11-20.59-9.58c-16.42-5.72-32.18-11.59-46.98-20.99-22.08-14.03-41.28-31.19-56.03-52.78-4.15-6.07-7.17-12.28-9.08-19.35,1.03-5.39,5.62-8.09,10.98-7.33,7.03,1.37,13.52,4.04,19.65,7.7l21.07,12.56,32.15,21.57,22.53,15.25,48.47,32.14,28.29,18.82,30.49,20.55,14.76,10.15,12.76,9.31,7.19-14.19,16.83-31.62c-15.85-1.68-30.64-6.45-44.28-13.78l-24.28-14.83-30.25-18.75c-9.66-5.99-20.55-8.59-31.12-12.65l-9.27-3.56c-25.84-9.91-57.72-36.1-74.59-59.05-5.54-7.54-15.58-22.89-11.84-28.55,2.95-4.48,9.49-4.44,14.72-2.51,9.44,3.47,18,7.71,26.37,13.22l33.24,21.91,55.13,36.96,62.61,41.52,40.71,27.68,7.06-12.38,14.29-25.48c-11.6-.83-21.1-2.58-31.12-6.68-10.48-4.29-19.48-10.55-29.04-16.54l-17.42-10.93c-9.3-5.83-19.36-9.29-29.97-12.38-25.08-7.31-46.7-21.34-64.15-40.63-8.02-8.87-22.59-28.16-21.41-38.07.63-5.3,6.24-8.16,11.11-7.32,5.84,1,11.02,3.06,16.22,5.89,12.68,6.92,24.38,14.62,36.35,22.73l27.31,18.52,95.31,63.09,14.42,10.1,17.06-28.33-20.43-17.66-55.32-46.73-39.15-32.82-27.19-26.56-12.57-14.98c-2.49-2.96-3.27-6.64-2.92-10.52,4.13-.37,8.09-1.02,11.97-.41,27.77,4.44,53.97,22.2,72.92,42.36l13.43,17.04c12.03,16.85,25.05,32.32,38.75,47.84l27.89,31.02,16.97-26.88-20.6-22.33-41.29-44.68-30.29-30.9-22.73-25-14.79-18.18c-5.55-6.82-10.55-13.78-14.67-21.51-1.84-3.45-2.68-6.93-2.58-10.88,4.34-.77,8.18-.72,12.28.52,14.49,4.41,27.29,11.85,39.22,21.16,17.36,13.55,30.86,30.25,41.08,49.69l15.11,25.2,18.01,26.39,28.31,39.99,16.85-25.8-15.43-24.55-34.01-56.65c-12.98-21.62-26.06-42.42-40.33-63.12l-12.38-19.36c-2.25-3.52-3.15-8.06-2.12-8.15l1.82-.16,18,11.52,14.31,9.24c6.36,4.1,11.89,9.02,17.16,14.37,12.59,12.79,21.27,27.94,26.05,45.16,2.24,8.08,4.68,15.63,8.82,22.94l16.01,28.23,4.83,11.88,3.83,15.68c.11.46.75,1.44,1.04,1.33.43-.17,1.5-.85,1.81-1.32l6.57-9.93,18.99-26.75,13.54-18.66c2.69-3.71,5.32-6.56,9.65-8.77,2.67-1.36,8.32-1.18,9.32,2.57.84,3.14-1.84,7.4-3.7,9.94l-13.98,19.11-47.09,68.35-10.85,16.93c-.85,1.33,2.17,7.12.65,6.99l-1.94-.16c-.86-.07-2.21-.25-2.82-.08s-1.26,1.35-1.74,2.09l-15.95,25.13c-.5.79-.43,2.86.09,3.51l4.5,5.63c1.63,2.04,1.87,4.68,1.09,7.09-4.15-.34-6.72-2.27-9.88-4.39l-1.42-.95c-.41-.27-1.36.61-1.87,1.07l-17.74,30-26.21,45.79.44,3c.04.27,1.1,1.1.83,1.14l-1.44.23-2.58.41c-.55.09-.83,1.45-1.15,2.04l-9.87,18.37-2.09,3.8,17.67-3.64,24.59-4.93,42.72-7.86,41.45-10.94c20.42-6.59,41.17-8.21,62.43-5.58,15.88,1.96,30.9,5.51,45.25,12.5,6.8,3.31,16.36,9.71,12.08,12.61s-9.21,5.35-14.6,6.22l-27.05,4.38c-30.77,3.43-61.05,3.46-91.96,3.76l-22.76.83-39.19,1.45-36.88,1.61-15.37-.7-2.34-.58c-.6-.15-1.42,1.16-1.83,1.97l-21.88,43.3-11.16,22.88,14.32-2.79,26.85-4.05,39.62-5.41,30.68-4.5c28.06-4.12,59.96-9.6,87.79-5.14,15.58,2.49,29.97,7.56,44.15,14.23,10.54,4.93,20.39,9.97,30.08,16.15l.09,1.48c.02.28-.72.48-1.29.73l-39.58.77-14.13.14-24.18.72-16.8.7-32.93,1.15-33.72.58-38.86-.45-21.53-.59-22.82-1.27-27.25-3.49c-.82-.6-2-1.42-2.66-1.5-.78-.1-1.86,1.69-2.24,2.54l-18.49,41.37-27.81,70.16-.54,1.54c-.15.42,1.09.93,1.69,1.11l32.94.82,39.7,2.09,72.49,2.58c19.2.68,37.5,2.14,56.16,6.33,16.66,3.74,31.76,10.56,46.17,19.56l25.47,18.19c11.02,9.06,20.85,18.44,31.18,29.06-4.8,1.26-8.74.62-13.13-.19l-55.71-10.19-43.37-6.92-77.51-13.04-22.87-4.66-34.29-7.49-48.06-12.38-14.73-4.97c-1.15-.39-2.84.16-3.14,1.24l-7.27,25.92-5.69,27.31c-5.04,24.15-5.82,48.34-2.23,72.76-2.47,6.3-7.7,11.45-14.33,12.56-3.65.61-5.71-2.29-6.1-5.56-5.68-48.24,5.36-95.83,20.49-141.53-2.54-2.37-3.05-5.23-1.93-8.43l-14.92-3.56-78.43-23.65-53.6-16.36-65.6-19.05-63.01-16.19c-6.77-1.74-12.91-3.6-19.19-6.44-2.77-1.26-4.89-3.35-4.16-6.59l33.42-5.16c24.93-3.85,49.77-6.35,74.78-1.43l24.22,6.72c11.1,3.08,21.35,8.32,31.2,14.36,14.4,8.84,28.89,15.55,45.03,20.87l39.86,13.13c8.99,2.96,16.84,7.29,25.07,11.97,10.8,7.1,20.5,14.96,29.81,23.89l1.55.93c.32.19,1.02-.47,1.37-.88l13.42-34.96c.78-1.92,1.32-3.71,1.5-6.06-27.3,3.36-55.51-1.97-79.82-14.68l-29.98-15.67c-11.85-6.19-23.73-11.51-36.66-14.99-12.18-3.28-24.04-5.57-35.77-10.09-29.13-11.22-53.83-27.14-76.16-48.76Z"/>
      <path class="cls-1" d="M574.03,919.89l-37.99-2.83-29.19-1.77-40.41-4.54c-4.76-.53-8.46-2.63-12.5-5.26.58-1.93,1.33-3.73,2.22-5.09,10.59-3.12,20.58-4.53,31.46-5.58l35.56-3.43,37.13-3.64,57.13-10.06c13.93-2.45,27.84-2.8,41.75-1.83l15.52,2.65c18,3.08,38.63,12.34,53.91,22.62,6.7,4.5,12.4,10.04,16.46,17.19-3.35,7.99-20.53,10.11-30.37,10.53-22.82.97-44.95.53-67.87-1.26l-72.83-7.72Z"/>
      <path class="cls-1" d="M676.45,674.09c-15.54.74-98.53.91-95.26-12.05,1.12-4.43,11.6-8.81,17.72-10.24l22.32-5.2,36.02-8.29,20.58-5.03,21.45-5.26c30.6-7.51,56.54,4.93,80.25,23.17,6.44,4.95,12.79,9.04,18.29,15.85-6.59,1.37-11.88,1.33-17.9,1.66l-64.43,3.54-39.04,1.85Z"/>
      <path class="cls-1" d="M724.15,595.51l-56.88-4.09c-8.93-.64-28.48-2.36-28.86-6.98-.1-1.21,1.24-3.01,2.7-3.33,12.95-2.82,25.49-3.63,38.69-5.09l46.92-5.19,23.95-4.89c27.42-5.6,55.77,1.58,78.74,17.12,4.14,2.8,7.58,6.4,9.92,10.47-.31,3.11-3.52,4.95-6.17,5.54-26.56,5.84-62.91,1.67-90.78-1.49l-18.24-2.07Z"/>
      <path class="cls-1" d="M707.68,540.28l-21.84,1.76c-1.79.14-4.88-2.26-4.39-3.93,3.26-3.78,8.02-5.96,12.72-7.46l25.94-8.27,21.79-7.06c12.28-3.98,23.76-8.74,35.29-14.48,7.51-3.74,14.9-5.79,23.18-7.2,17.84-3.05,35.96-1.12,52.57,6.12,4.93,2.15,8.84,5.14,12.52,9.02-2.81,6.23-13.51,9.92-20.77,11.78-12.13,3.12-23.91,5.61-36.52,7.1l-69.17,8.21-31.33,4.41Z"/>
      <path class="cls-1" d="M645.85,493.45c-4.63-4.02-8.79-8.04-12.15-13.01-3.68-5.43-7.03-11.05-9.7-17.09l-10.75-24.31c-3.21-7.26-8.04-13.11-12.58-19.67-10.31-14.86-17.14-31.56-19.6-49.56-.97-7.11-1.48-14.33.58-21.11.81-2.66,5.6-1.79,7.12-.16,3.72,3.96,6.42,8.08,8.6,12.96l8.51,19.04,13.73,33.22,14.19,33.72,21.11,52.43c-4.21-1.1-6.13-3.92-9.06-6.46Z"/>
      <path class="cls-1" d="M721.57,491.54c-5.93,3.19-11.97,5.84-18.85,6.35-1.92.14-4.56-2.73-5.26-4.56,4.43-12.71,16.13-22.89,27.65-29.91,14.62-8.92,27.52-8.03,42.3-14.78l21.89-10.96c8.26-4.14,17.12-4.88,26.28-4.16l7.67.6c.32.56-.38,2.34-1.04,2.73l-8.45,5.07-56.76,30.51-13.12,7.12-22.31,11.98Z"/>
      <path class="cls-1" d="M700.49,441.75c2.11,12.26,2.85,25.96-4.21,36-7.48,2.67-12.31-11.04-14.44-19.9l-6.76-28.19-11.28-45.2c-2.81-11.24-5.41-21.86-6.82-34.02,15.08,11.61,20.42,22.22,24.21,40.02,2.38,11.19,6.56,20.93,12.52,30.6,3.85,6.24,5.55,13.48,6.79,20.68Z"/>
    </g>
  </g>
</svg>