<?xml version="1.0" encoding="UTF-8"?>
<svg id="_레이어_1" data-name="레이어 1" xmlns="http://www.w3.org/2000/svg" viewBox="0 0 1014 1474">
  <defs>
    <style>
      .cls-1 {
        fill: #00792b;
      }

      .cls-2 {
        fill: #efeeec;
      }

      .cls-3 {
        fill: #f9f8f7;
      }
    </style>
  </defs>
  <g>
    <path class="cls-1" d="M49.51,49.93h910v1377H49.51V49.93ZM498.9,501.76l4.71-35.3.29-7.65,1.26-1.84c6.03,54.34,11.68,102.78,49.93,144.53,16.98,18.53,38.89,30.74,63.31,37.74,59.99,17.18,133.4,1.32,184.32-35.03,16.34-11.66,30.21-25.35,40.78-42.14,19.01-30.18,20.66-66.68,3.85-98.09-17.3-32.33-48.73-54.58-81.47-70.46-17.76-8.62-35.5-15.69-54.57-20.82l-33.06-8.89c-25.52-6.86-51.28-10.59-77.7-13.75-61.19-7.33-138.14-6.77-198.99,1.29l-11.99,1.59c-63.66,10.24-134.06,26.91-186.65,65.31-7.3,5.33-13.26,11.35-20.07,17.08-1.78,1.5-2.74,2.83-4.29,4.71l-9.51,11.54c-1.13,1.37-1.96,2.45-2.74,4.1l-9.09,19.07c-8.9,21.49-9.11,44.63-2.1,66.59-1.07,4.17,3.72,5.72,5.49,13.87l4.88,6.76c8.97,14.14,20.33,26.13,33.51,36.47l4.37,3.43c12.34,9.68,25.55,17.03,39.93,23.38,44,19.43,96.82,26.98,143.79,15.35,66.54-16.47,103.06-73.55,111.77-138.84ZM504.52,712.74c7.39-29.2,24.61-46.18,53.23-53.44-28.69-9.13-46.48-26.12-52.97-54.78-7.21,29.86-24.91,45.79-53.05,54.91l4.14,1.95,8.41,2.8c21.41,7.13,34.4,26.45,40.24,48.56ZM347.2,949.69l8.09.73c37.01,3.33,79.6-.06,108.82-23.92,15.23-12.44,25.15-29.14,29.67-48.65,8.75-37.77,7.3-77.57-4.46-114.45-9.61-30.14-27.51-55.26-53.17-73.14-44.63-31.1-98.66-36.3-151.12-24.1-47.72,11.1-94.45,36.82-119,79.88,1.17,2.35-1.61,3.43-2.41,4.93-18.17,33.9-16.9,72.24,2.35,105.61,12.07,20.93,29.25,37.34,49.53,50.38,36.71,23.6,88.67,38.85,131.7,42.72ZM807.6,897.03c43.8-34.15,63.74-88.14,41.05-140.28-7.83-17.99-19.28-32.98-33.97-46.06-40.96-36.47-100.53-53.95-155.05-49.98-26.82,1.95-51.63,9.42-74.42,22.85-53.19,31.36-74.17,88.8-74.47,148.69-.08,16.24.59,31.62,4.01,47.4,10.6,48.93,55.07,70.07,102.93,71.42,63.17,1.78,139.52-14.74,189.93-54.04ZM700.28,1096.59l20.57-6.29,13.93-4.55,11.02-3.77,25.76-9.82c31.08-11.85,59.72-27.86,87.84-47.37-14.53-12.59-30.65-22.2-47.7-30.41l-11.35-5.46-7.72-2.94-10.37-4.07-15.02-5.04-6.44-1.76-6.28-2.1-36.06-7.86-5.29-.87c-13.38-2.2-26.84-3.82-40.46-4.37l-7.94-.32c-28.21-2.77-56.54-1.39-84.63,3.54-39.34,8.03-66.68,26.08-75.17,66.55-5.13-25.52-19.43-44.72-41.76-55.54-32.01-15.89-74.58-16.8-110.51-15.03-33.19,1.64-65.12,5.89-97.25,14.68-38.08,10.42-73.43,26.77-105.73,51.57,22.77,16.08,46.48,29.16,71.91,40.46,81.07,36.02,171.14,53.22,259.79,54.62,2.13-1.16,4.12-1.13,6.17.12l63.7-.85c1.65-1.59,3.29-1.48,5.33-.28,40.97-2.59,81.03-8.01,120.89-17.32,3.9-2.81,8.93-.2,15.23-5.37,1.96.36,5.21.55,7.56-.16Z"/>
    <g>
      <g>
        <path class="cls-2" d="M700.28,1096.59c-2.35.72-5.6.52-7.56.16-6.3,5.17-11.33,2.56-15.23,5.37-39.87,9.31-79.92,14.73-120.89,17.32-2.04-1.2-3.68-1.31-5.33.28l-63.7.85c-2.05-1.25-4.04-1.28-6.17-.12-88.65-1.39-178.71-18.59-259.79-54.62-25.43-11.3-49.14-24.37-71.91-40.46,32.3-24.8,67.65-41.15,105.73-51.57,32.13-8.79,64.06-13.05,97.25-14.68,35.93-1.77,78.5-.86,110.51,15.03,22.33,10.82,36.63,30.02,41.76,55.54,8.49-40.47,35.83-58.52,75.17-66.55,28.09-4.93,56.42-6.31,84.63-3.54l7.94.32c13.62.55,27.08,2.18,40.46,4.37l5.29.87,36.06,7.86,6.28,2.1,6.44,1.76,15.02,5.04,10.37,4.07,7.72,2.94,11.35,5.46c17.05,8.2,33.16,17.82,47.7,30.41-28.13,19.51-56.77,35.52-87.84,47.37l-25.76,9.82-11.02,3.77-13.93,4.55-20.57,6.29Z"/>
        <g>
          <path class="cls-2" d="M347.2,949.69c-43.03-3.87-94.99-19.12-131.7-42.72-20.28-13.04-37.46-29.46-49.53-50.38-19.25-33.37-20.51-71.71-2.35-105.61.8-1.49,3.58-2.58,2.41-4.93,24.55-43.06,71.28-68.78,119-79.88,52.46-12.21,106.49-7.01,151.12,24.1,25.66,17.88,43.56,43,53.17,73.14,11.76,36.88,13.21,76.68,4.46,114.45-4.52,19.52-14.44,36.21-29.67,48.65-29.21,23.86-71.81,27.24-108.82,23.92l-8.09-.73Z"/>
          <path class="cls-2" d="M807.6,897.03c-50.4,39.3-126.76,55.82-189.93,54.04-47.86-1.35-92.33-22.49-102.93-71.42-3.42-15.79-4.09-31.17-4.01-47.4.3-59.88,21.28-117.33,74.47-148.69,22.79-13.44,47.6-20.9,74.42-22.85,54.52-3.96,114.09,13.51,155.05,49.98,14.69,13.08,26.14,28.07,33.97,46.06,22.7,52.14,2.75,106.13-41.05,140.28Z"/>
        </g>
      </g>
      <g>
        <path class="cls-2" d="M498.9,501.76c-8.71,65.29-45.24,122.37-111.77,138.84-46.97,11.63-99.79,4.08-143.79-15.35-14.38-6.35-27.59-13.7-39.93-23.38l-4.37-3.43c-13.18-10.33-24.55-22.33-33.51-36.47l-4.88-6.76c-1.76-8.15-6.55-9.7-5.49-13.87-7.01-21.96-6.79-45.1,2.1-66.59l9.09-19.07c.79-1.65,1.61-2.73,2.74-4.1l9.51-11.54c1.55-1.88,2.51-3.21,4.29-4.71,6.81-5.73,12.77-11.75,20.07-17.08,52.59-38.41,122.99-55.07,186.65-65.31l11.99-1.59c60.85-8.06,137.8-8.63,198.99-1.29,26.42,3.17,52.18,6.89,77.7,13.75l33.06,8.89c19.07,5.13,36.81,12.21,54.57,20.82,32.73,15.88,64.17,38.14,81.47,70.46,16.8,31.4,15.16,67.91-3.85,98.09-10.58,16.79-24.45,30.47-40.78,42.14-50.92,36.35-124.33,52.21-184.32,35.03-24.41-6.99-46.33-19.21-63.31-37.74-38.25-41.75-43.9-90.19-49.93-144.53l-1.26,1.84-.29,7.65-4.71,35.3Z"/>
        <path class="cls-2" d="M504.52,712.74c-5.84-22.11-18.83-41.43-40.24-48.56l-8.41-2.8-4.14-1.95c28.14-9.11,45.84-25.05,53.05-54.91,6.48,28.66,24.28,45.64,52.97,54.78-28.61,7.26-45.83,24.24-53.23,53.44Z"/>
      </g>
    </g>
  </g>
  <path class="cls-3" d="M995.39,1473.24h-21.01l-2.17-9.64c-1.58-5.67-8.58-8.02-13.84-7.94-5.1.08-11.63,3.13-12.84,9.04l-2.14,8.55h-23.01c.11-3.29-.08-8.41-2.14-11.5-5.22-7.82-17.13-8.23-23.5-1.54-3.2,3.36-3.6,9.02-4.34,13.04h-22.01l-.92-5.71c-1.41-6.72-5.96-11.1-13.02-11.84-4.63-.48-9.91,1.01-12.6,4.24-3.14,3.77-3.91,9.04-3.45,13.3h-25c1.64-4.68.91-9.77-3.14-13.62-6.73-6.39-19.16-5.31-23.39,3.63l-3.46,10h-21.01l-1.74-8.09c-1.74-6.86-8.71-9.9-15.13-9.49-6.4.4-11.72,5.32-13.29,11.98l-1.83,5.6h-22.01c-.04-3.65-.64-8.45-2.69-11.93-2.63-4.48-8.49-5.9-13.18-5.59-4.25.29-10.31,2.45-11.77,7.38l-3.35,10.14h-22.01l-1.81-9.79c-1.3-5.44-7.7-7.78-12.34-7.76-5.35.02-11.15,1.93-13.79,7.3-1.44,2.93-1.72,7.24-2.06,10.25h-23.6c.82-5.9-.88-12.08-6.14-15.29-4.9-2.99-11.63-3.08-16.69.01-4.96,3.04-6.6,9.59-6.57,15.27h-23.6c.8-5.46-1.22-12.19-6.12-15.29s-11.75-3.09-16.57.05c-4.93,3.21-6.76,9.49-6.71,15.24h-22l-2.01-8.87c-1.26-4.67-6.8-7.88-10.68-8.47-5.13-.77-10.62.16-14.04,4.25-2.99,3.58-3.67,8.87-4.27,13.09h-22.01c-.31-3.31-1.11-7.66-2.67-10.84-2.6-5.29-8.22-6.98-13.32-6.75-4.84.21-11.15,2.05-12.46,7.72l-2.54,9.87h-23.01c.45-3.49,0-8.28-2.03-11.57-3.86-6.26-12.18-7.3-18.42-4.84-6.48,2.56-9.21,9.62-9.53,16.41h-22.01l-2.23-9.55c-1.32-4.57-6.67-7.2-10.45-7.8-5-.79-10.6.29-13.91,4.36-2.95,3.63-3.56,8.78-4.4,12.99h-24.01c1.72-5.13.32-11.57-4.6-14.92-7.58-5.15-19.93-3.01-22.47,6.14l-2.92,8.78h-22.01l-1.01-6.72c-1.71-8.45-10.03-12.34-17.62-10.68s-12.18,9.51-11.36,17.4h-25c1.39-5.06.68-10.97-4.1-14.51-6.52-4.84-17.42-4.31-21.7,3.2-1.93,3.39-2.73,8-4.19,11.31h-22.01l-2.26-10.21c-1.63-5.95-8.2-7.68-13.64-7.33-5.02.32-11.16,2.75-12.58,8.62l-2.51,8.93h-22.01l-1.72-8.1c-2.06-7.89-10.67-10.63-17.57-8.99-7.78,1.85-11.4,9.55-10.7,17.08l-23,.04-.89-7.76c-1.18-6.66-7.83-9.38-14.73-10.49l.15-19.44,6.39-1.94c7.74-2.35,10.89-9.91,9.57-16.95-1.44-7.67-8.69-11.27-16.51-11.68l.27-16.02c.04-2.14,1.63-3.64,3.9-3.91,8.54-1.01,13.21-7.79,12.57-15.84-1.24-15.53-16.89-10.37-16.71-16.74l.47-16.15c9.54-.26,16.52-6.13,16.39-14.63-.14-8.88-6.56-15.3-16.47-14.75l-.24-16.96c-.07-4.66,17.09-1.48,16.74-18.93-.56-7.43-6.35-13.43-14.92-13.19-.69-.49-1.81-2.48-1.8-3.56l.08-14.67c0-.64,2.4-2.01,2.74-2.04,8.69-.22,14.27-6.79,13.94-14.79.03-7.38-5.7-13.44-13.96-13.92-.49-.13-2.71-2.13-2.71-2.96l.13-16.07c4.64-1.35,9.06-1.89,11.98-4.56,6.07-5.55,6.12-15.73.25-21.25-3.04-2.85-7.56-3.59-12.12-4.34l-.43-15.76c-.04-1.58,1.57-3.67,3.29-3.75,9.18-.45,14.17-7.98,13.48-16.14s-7.25-13.06-16.4-12.97l-.24-15.11c-.03-1.71,1.59-4.41,3.31-4.58,9.23-.88,14.2-8,13.32-16.33-.85-7.98-7.15-12.97-16.39-13.05l-.09-19.41c10.02.52,16.07-5.57,16.61-13.9.5-7.84-5.37-14.46-13.75-15.11-1.13-.09-3.17-2.14-3.12-3.33l.69-16.14c7.82-.53,12.5-3.58,14.86-9.31,2.16-5.26,1.74-11.72-2.81-16.27-2.89-2.89-7.48-3.76-12.46-4.76v-19.13c9.93.28,16.46-5.56,16.51-14.03.56-8.33-5.4-14.76-14.61-14.98-.25-.15-2.03-2.24-2.02-2.83l.19-16.29c7.43-.87,12.99-3.57,15.3-9.52,2.17-5.58,1.6-12.52-3.4-16.89-2.81-2.46-7.7-3.16-12.01-3.95l-.1-19.19c9.97.35,16.78-6.2,16.68-15.11-.09-8.93-6.43-14.57-16.56-14.7l.05-19.47c10.83.38,16.7-6.96,16.53-15.8-.17-8.89-7.93-13.93-16.78-13.79l.09-19.17c9.86.2,16.78-6.11,16.7-15.06-.09-9.25-7.52-14.59-16.83-14.73l.15-19.16c9.95.35,17.02-5.86,16.74-15.06-.26-8.55-7.17-14.61-16.83-14.43l.1-19.32c9.16.2,16.79-5.95,16.59-14.35.34-8.63-6.34-14.98-15.65-15.17-.17-.25-1.15-2.24-1.14-2.74l.03-13.75c0-.88,1.25-2.88,1.9-3.3,9.48-.14,15.71-7.36,14.79-15.7-.5-8.45-7.38-13.58-16.61-13.86l.02-16.76c0-.8,1.51-2.64,1.92-2.75,9.29.02,15.68-7.46,14.68-15.63-.33-8.53-7.37-13.46-16.69-13.63l.29-19.05c10.14-.29,16.89-6.37,16.61-15.63-.26-8.3-6.9-14.42-16.68-14.65l.08-19.35c10,.17,15.77-5.31,16.59-13.25.79-7.58-4.6-14.3-12.39-15.3-1.39-.18-4.32-1.77-4.31-3.13l.08-16.6c9.54-.65,15.85-5.75,16.59-13.98s-4.83-14.66-13.04-15.56c-.98-.11-3.54-1.92-3.54-2.93l.12-16.62c9.55-.66,15.73-5.29,16.47-13.87,1.37-15.84-16.49-14.51-16.52-18.53l-.07-12.79c0-2.33,1.49-4.24,3.56-4.47,8.49-.93,13.24-7.29,13.03-14.97-.2-7.23-5.31-12.81-13.48-13.73-1.72-.19-3.2-2.8-3.17-4.58l.27-15.08c9.88-.33,16.64-6.42,16.37-15.49-.25-8.5-6.81-14.19-16.47-14.68v-18.72c7.04-.27,12.39-3.42,14.92-8.76,2.53-5.34,1.98-12.48-2.81-16.77-3.22-2.88-7.49-3.74-12.38-4.86l.42-17.54,10.29-3.76c7.36-5.6,8.22-17.24,1.18-23.23-3.06-2.61-7.14-3.39-11.57-4.76l-.16-17.8c3.82-1.01,8.12-1.52,11.08-3.76,6.3-4.75,7.14-14.55,2.66-20.65-3.22-4.38-8.48-5.33-13.82-6.16l-.09-19.11c7.65.18,13.74-3.31,15.83-9.91,1.8-5.69.82-13.21-5.15-16.69-2.84-1.66-6.36-2.17-10.54-3.04l-.03-16.15c9.25-.85,14.53-6.74,15.22-15.21.98-1.52,4.79-1.24,6.73-1.26l14.5-.19c0,10.52,6.35,17.38,16.02,17.02,8.84-.33,14.64-7.74,14.76-17.25,12.41,1.91,23.06-2.13,23.17,2.73.19,8.58,7.52,15.2,16.05,14.6s14.56-7.44,14.28-16.97h23.58c-.43,9.42,5.76,16.35,14.42,16.75,7.98.37,15.3-5.08,15.58-14.1.13-4.34,7.31-2.21,19.9-2.68.96-.04,3.32.26,3.47,1.12l.54,3.06c1.56,8.78,8.7,13.67,17.02,12.53,7.56-1.03,13.53-7.97,12.72-16.56l20.31-.14c2.46-.02,3.67,1.63,3.89,4.33.72,8.72,9.09,13.57,17.02,12.44s13.16-8.04,12.74-16.73l23.11.03c.38,5.68,2,11.27,5.85,13.89,4.17,2.83,9.16,3.69,13.99,2.2,5.73-1.77,9.52-5.8,9.8-12.16.32-7.23,9.36-2.21,23.27-4.39-.04,9.68,6.27,17.68,15.48,17.31,9.06-.36,15.22-6.58,15.26-16.73l9.37-.06,13.25-.08c.15,6.48,2.08,11.19,6.37,14.3,4.18,3.03,9.8,3.24,14.69,1.27,6.29-2.53,8.95-7.47,9.06-15.1l8.64-.39,14.11-.12c.42,5.19.94,9.52,3.95,12.72,2.31,2.45,7.07,4.2,10.79,4.16,9.45-.1,15.85-7.06,14.94-16.83l15.23.03c2.46,0,5.4.08,7.58.52-.08,9.2,5.18,15.58,13.08,16.3s15.47-3.94,16.41-12.65c.14-1.29.48-2.93.82-3.74s3.05-.5,3.99-.51l15.23-.19c1.22-.02,3.73,1.5,3.73,2.63,0,8.68,6.55,15.03,15.11,14.43,8.01-.14,14.67-6.03,13.89-14.67.3-.65,2.34-2.25,3.24-2.25l17.63.05c.7,0,2.81,1.46,2.99,1.81.02,9.67,6.99,15.39,15.72,15.05,8.37-.19,14.83-7.42,14.34-16.77l20.64-.12c1.75,0,2.69,2.94,2.92,5.2.89,8.75,9.84,12.85,17.41,11.41,7.82-1.5,12.42-8.56,12.4-16.83l20.14.18c1.74.02,2.87,3.07,3.08,5.12.9,8.7,9.77,12.91,17.52,11.54,7.77-1.38,12.48-8.6,12.26-16.71l19.82.05c1.26,0,3.18,2.08,3.23,3.21.42,9.47,8.43,14.84,16.9,13.58,7.97-1.18,13.61-8.46,13.06-16.89l19.86.19c1.26,0,3.29,1.95,3.31,3.07.13,8.11,6.05,13.42,13.78,13.72,8.23.32,15.55-4.9,15.7-13.67.03-1.76,2.29-3.19,3.99-3.21l19.05-.25c.02,8.52,5.02,16.19,13,17.11s16.46-3.52,16.9-12.57c.08-1.74,1.48-4.3,3.12-4.32l20.02-.28c-.11,9.75,6.28,17.6,15.5,17.33,9.24-.27,15.04-7.01,15.03-16.93l14.58.07,7.68.31c.03,9.88,5.6,15.22,15.35,16.28l-.02,16.46c-9.98-.18-16.97,5.8-16.88,14.63.09,8.37,6.42,14.67,16.51,14.56l.28,19.58c-9.98-.32-16.89,6.2-16.74,14.84.16,8.78,6.81,14.98,16.8,14.63l.34,19.5c-10.06-.15-17.06,5.64-17.16,14.86s7.03,14.64,16.94,15.09l.03,18.73c-9.7.12-17.24,6.26-16.93,15.18.3,8.76,6.99,14.75,16.75,14.69l.35,15.57c.02.97-1.59,3.27-2.13,3.73-9.24.11-15.53,7.46-14.85,15.79.77,8.54,6.95,13.62,16.77,13.83l-.09,19.54c-10.03-.36-16.18,5.61-16.9,13.92-.02,8.19,5.77,14.97,15.04,15.21.41.11,2.45,2.56,2.41,3.53l-.72,16.19c-10.15-.19-16.96,6.45-16.71,14.97s7.28,14.81,17.02,14.36l-.04,19.6c-9.92-.51-17.23,5.83-16.98,15.04.23,8.4,7.16,14.53,16.9,14.64l.1,18.42-8.53,2.4c-6.53,1.84-9.3,9.85-8.2,16.09,2.3,13.1,17.02,9.73,16.91,14.81l-.36,16.09c-9.45.37-15.97,5.52-16.79,13.73-.84,8.39,5.07,15.41,13.88,16.25,1.22.12,3.31,2.7,3.28,3.99l-.4,15.53c-10.13-.06-16.17,5.63-16.79,14.16-.57,7.79,5.86,14.47,14,14.98,1.19.07,3.18,2.21,3.18,3.57l-.07,15.93c-7.39.1-12.57,3.06-15.4,8.44s-2.22,12.47,2.69,17.13c3.1,2.95,7.67,3.77,12.59,4.55l.36,18.94c-8,.19-13.63,3.07-16,9.01s-1.83,12.89,3.46,17c3.21,2.49,7.23,3.17,12.09,4.27l.27,18.87c-10.13-.21-16.66,5.51-17.06,14.37s6.25,15.39,16.67,14.93l.04,19.79c-10.43-.55-16.89,6.38-16.66,15.02.22,8.55,7.43,14.61,16.84,14.16l.26,19.7c-10.24-.61-17.5,5.75-17.17,15.11.3,8.43,7.38,14.13,16.97,14.32l-.14,18.87c-4.79,1.04-8.96,1.83-12.02,4.38-5.34,4.46-6.06,11.88-3.19,17.58,2.77,5.51,8.15,8.11,15.34,8.24v19.36c-9.29-.09-16.16,5.09-16.9,13.58-.66,7.61,4.83,14.99,13.29,15.63,1.91.15,4.06,2.58,3.99,4.39l-.64,15.65c-10.52-.53-17.19,6.31-16.71,14.99s6.67,14.42,16.63,13.91l.37,19.82c-9.47-.41-16.37,4.98-16.96,13.46-.54,7.7,4.86,14.91,13.36,15.68,1.27.12,3.77,2.33,3.74,3.57l-.36,15.62c-4.22,1.13-7.9,1.82-10.87,3.67-5.83,3.64-7.13,11.23-4.87,17.04s7.84,9.27,15.77,9.35l.22,19.59c-10.18-.27-17.44,5.96-17,15.25.41,8.57,7.33,14.24,17,14.18l-.19,19.39c-10.34-.39-17.29,6.11-16.88,15.45.37,8.5,7.49,13.99,17.05,14.21l-.18,19.04c-7.72.19-13.06,3.01-15.55,8.54s-1.7,12.72,3.52,16.98c3.06,2.5,7.18,3.22,11.98,4.54l.26,16c.01.8-2.38,2.86-2.83,2.98-8.8.14-14.31,6.83-14.28,14.78,1.77,17.21,17.2,11.59,17.14,17.44l-.14,16.18c-6.73.53-12.17,2.88-15.01,7.76-3.08,5.29-2.83,11.85,1.45,16.77,2.98,3.43,8.12,4.84,12.74,6.26,1.65,5.67,1.46,12.74.42,18.74-9.75-.14-16.73,6.18-16.55,14.91.18,8.36,6.57,15,16.6,14.19.65,6.55.76,13.18.09,19.94-9.68-.18-16.18,5.66-16.66,13.94-.47,8.1,4.92,14.75,13.87,15.39,1.36.1,3.34,2.41,3.3,3.65l-.52,16.64c-10.38-.57-16.89,6.35-16.65,15.08.24,8.58,7.49,14.22,16.93,14.15l-.14,20.06c-12.24,3.22-13.9,6.93-16.4,18.4h-.03ZM962.78,48.39H52.79v1376.87h910V48.39h-.01Z"/>
</svg>