<svg width="24" height="24" viewBox="0 0 24 24" fill="none" xmlns="http://www.w3.org/2000/svg">
<path d="M17.9935 0C18.8797 0 19.6536 0.337945 20.2718 0.979059C20.8887 1.61892 21.2035 2.40614 21.2028 3.29667V23.1882C21.2028 23.4628 21.0637 23.7193 20.8335 23.8689C20.6032 24.0185 20.3129 24.0416 20.062 23.9301L11.999 20.3461L3.93814 23.9301C3.68721 24.0416 3.39586 24.0186 3.1656 23.8689C2.93552 23.7193 2.79736 23.4627 2.79736 23.1882V3.29667C2.79749 2.4054 3.11177 1.61742 3.72944 0.977966C4.34725 0.338387 5.11976 0.0011924 6.00444 0H17.9935ZM4.41893 21.9403L11.6701 18.7179L11.7498 18.6873C11.9391 18.626 12.1453 18.6364 12.329 18.7179L19.5801 21.9403V3.29667L19.5736 3.12293C19.54 2.72702 19.386 2.39727 19.1037 2.10454C18.7821 1.77115 18.426 1.62157 17.9935 1.62157H6.00662C5.57443 1.62215 5.21837 1.77234 4.89644 2.10563C4.57459 2.4389 4.41904 2.82096 4.41893 3.29667V21.9403Z" fill="currentColor"/>
</svg>
