<svg width="24" height="24" viewBox="0 0 24 24" fill="none" xmlns="http://www.w3.org/2000/svg">
<g clip-path="url(#clip0_2965_13326)">
<path d="M22.1049 16.4211V3.15826C22.1049 2.82326 21.9727 2.50146 21.7358 2.26457C21.4989 2.02769 21.1771 1.89544 20.8421 1.89544H3.15837C2.82336 1.89544 2.50156 2.02769 2.26468 2.26457C2.0278 2.50146 1.89555 2.82326 1.89555 3.15826V16.4211C1.89555 16.7561 2.0278 17.0779 2.26468 17.3148C2.50156 17.5516 2.82337 17.6839 3.15837 17.6839H7.57931C8.10251 17.6839 8.52696 18.1083 8.52696 18.6315V21.9472C8.52696 21.9891 8.54376 22.0288 8.57337 22.0584C8.60298 22.088 8.64266 22.1048 8.68454 22.1048H9.23716C9.25716 22.1048 9.30072 22.0964 9.35372 22.0476L13.4293 17.9624C13.607 17.7842 13.8489 17.6839 14.1006 17.6839H20.8421C21.1771 17.6839 21.4989 17.5516 21.7358 17.3148C21.9727 17.0779 22.1049 16.7561 22.1049 16.4211ZM24.0002 16.4211C24.0002 17.2586 23.6675 18.062 23.0753 18.6542C22.4831 19.2464 21.6796 19.5792 20.8421 19.5792H14.4935L10.6813 23.4011C10.6754 23.4071 10.669 23.4126 10.663 23.4184C10.2755 23.7865 9.7693 24.0001 9.23716 24.0001H8.68454C8.14016 24.0001 7.61777 23.7839 7.23284 23.3989C6.84791 23.014 6.63165 22.4916 6.63165 21.9472V19.5792H3.15837C2.32086 19.5792 1.51744 19.2464 0.925231 18.6542C0.333026 18.062 0.000244699 17.2586 0.000244141 16.4211V3.15826C0.000244141 2.32076 0.333026 1.51733 0.925231 0.925124C1.51744 0.332919 2.32086 0.000137329 3.15837 0.000137329H20.8421C21.6796 0.000137887 22.4831 0.33292 23.0753 0.925124C23.6675 1.51733 24.0002 2.32075 24.0002 3.15826V16.4211Z" fill="currentColor"/>
</g>
<defs>
<clipPath id="clip0_2965_13326">
<rect width="24" height="24" fill="white"/>
</clipPath>
</defs>
</svg>
