<svg width="24" height="24" viewBox="0 0 24 24" color="#ffffff" fill="none" xmlns="http://www.w3.org/2000/svg">
<g clip-path="url(#clip0_1033_2917)">
<path d="M14.7533 0.344727C14.9785 0.119621 15.2838 -0.00683594 15.6022 -0.00683594C15.9206 -0.00683594 16.226 0.119621 16.4512 0.344727L21.2542 5.14773C21.4793 5.3729 21.6057 5.67826 21.6057 5.99666C21.6057 6.31506 21.4793 6.62042 21.2542 6.84559L16.4512 11.6486C16.2247 11.8673 15.9214 11.9883 15.6066 11.9856C15.2917 11.9829 14.9906 11.8566 14.7679 11.634C14.5453 11.4113 14.419 11.1102 14.4163 10.7953C14.4136 10.4805 14.5346 10.1772 14.7533 9.95073L17.5066 7.19741H3.59473C3.27627 7.19741 2.97086 7.0709 2.74567 6.84572C2.52049 6.62053 2.39398 6.31512 2.39398 5.99666C2.39398 5.6782 2.52049 5.37279 2.74567 5.1476C2.97086 4.92242 3.27627 4.79591 3.59473 4.79591H17.5066L14.7533 2.04259C14.5282 1.81741 14.4017 1.51205 14.4017 1.19366C14.4017 0.875262 14.5282 0.569901 14.7533 0.344727ZM9.24666 12.3522C9.47177 12.5774 9.59823 12.8828 9.59823 13.2012C9.59823 13.5196 9.47177 13.8249 9.24666 14.0501L6.49334 16.8034H20.4052C20.7237 16.8034 21.0291 16.9299 21.2543 17.1551C21.4795 17.3803 21.606 17.6857 21.606 18.0042C21.606 18.3226 21.4795 18.628 21.2543 18.8532C21.0291 19.0784 20.7237 19.2049 20.4052 19.2049H6.49334L9.24666 21.9582C9.46539 22.1847 9.58642 22.488 9.58368 22.8028C9.58095 23.1177 9.45467 23.4188 9.23204 23.6415C9.00941 23.8641 8.70825 23.9904 8.39341 23.9931C8.07858 23.9959 7.77527 23.8748 7.5488 23.6561L2.7458 18.8531C2.5207 18.6279 2.39424 18.3226 2.39424 18.0042C2.39424 17.6858 2.5207 17.3804 2.7458 17.1552L7.5488 12.3522C7.77398 12.1271 8.07934 12.0007 8.39773 12.0007C8.71613 12.0007 9.02149 12.1271 9.24666 12.3522Z" fill="currentColor"/>
</g>
<defs>
<clipPath id="clip0_1033_2917">
<rect width="24" height="24" fill="white"/>
</clipPath>
</defs>
</svg>
