<svg width="24" height="24" viewBox="0 0 24 24" fill="none" xmlns="http://www.w3.org/2000/svg">
<path d="M24 7.88712C24 10.263 22.9222 12.3609 21.195 14.4739C19.4769 16.5759 17.0331 18.7915 14.1679 21.3896L12.5463 22.8647C12.2368 23.1465 11.7632 23.1465 11.4537 22.8647L7.76689 19.508C5.79042 17.6904 4.09351 16.0503 2.80495 14.4739C1.07784 12.3609 0 10.263 0 7.88712C0 3.98067 3.07152 0.922272 6.96485 0.922272C8.85058 0.922272 10.6599 1.6752 12 2.90005C13.3401 1.6752 15.1494 0.922272 17.0351 0.922272C20.9285 0.922272 24 3.98067 24 7.88712Z" fill="currentColor"/>
</svg>
