<svg width="24" height="24" viewBox="0 0 24 24" fill="none" xmlns="http://www.w3.org/2000/svg">
<path d="M22.3784 7.88712C22.3784 4.87865 20.0344 2.54383 17.0351 2.54383C15.3335 2.54383 13.6864 3.34022 12.6152 4.58827C12.4611 4.76783 12.2366 4.87128 12 4.87128C11.7634 4.87128 11.5389 4.76783 11.3848 4.58827C10.3136 3.34022 8.66651 2.54383 6.96485 2.54383C3.96563 2.54383 1.62156 4.87864 1.62156 7.88712C1.62156 9.7296 2.44589 11.4701 4.06156 13.4468C5.2799 14.9373 6.9002 16.5057 8.85631 18.3049L10.9226 20.1876L10.9237 20.1887L12 21.1678L13.0763 20.1887L13.0774 20.1876C15.9745 17.5605 18.3139 15.4343 19.9384 13.4468C21.5541 11.4701 22.3784 9.7296 22.3784 7.88712ZM24 7.88712C24 10.263 22.9222 12.3609 21.195 14.4739C19.4769 16.5759 17.0331 18.7915 14.1679 21.3896L12.5463 22.8647C12.2368 23.1465 11.7632 23.1465 11.4537 22.8647L7.76689 19.508C5.79042 17.6904 4.09351 16.0503 2.80495 14.4739C1.07784 12.3609 0 10.263 0 7.88712C0 3.98067 3.07152 0.922272 6.96485 0.922272C8.85058 0.922272 10.6599 1.6752 12 2.90005C13.3401 1.6752 15.1494 0.922272 17.0351 0.922272C20.9285 0.922272 24 3.98067 24 7.88712Z" fill="currentColor"/>
</svg>
