<svg width="24" height="24" viewBox="0 0 24 24" fill="none" xmlns="http://www.w3.org/2000/svg">
<path d="M0 5.33333C0 4.59695 0.596954 4 1.33333 4H22.6667C23.403 4 24 4.59695 24 5.33333C24 6.06971 23.403 6.66667 22.6667 6.66667H1.33333C0.596954 6.66667 0 6.06971 0 5.33333ZM0 12C0 11.2636 0.596954 10.6667 1.33333 10.6667H22.6667C23.403 10.6667 24 11.2636 24 12C24 12.7364 23.403 13.3333 22.6667 13.3333H1.33333C0.596954 13.3333 0 12.7364 0 12ZM0 18.6667C0 17.9303 0.596954 17.3333 1.33333 17.3333H22.6667C23.403 17.3333 24 17.9303 24 18.6667C24 19.403 23.403 20 22.6667 20H1.33333C0.596954 20 0 19.403 0 18.6667Z" fill="white"/>
</svg>
