<svg width="24" height="24" viewBox="0 0 24 24" fill="none" xmlns="http://www.w3.org/2000/svg">
<g clip-path="url(#clip0_1662_16173)">
<path d="M1.48572 21.1214V9.29286C1.48572 8.87666 1.57903 8.48238 1.76566 8.11C1.95229 7.73762 2.20945 7.43095 2.53715 7.19L10.4229 1.27571C10.8829 0.925238 11.4086 0.75 12 0.75C12.5914 0.75 13.1171 0.925238 13.5771 1.27571L21.4629 7.19C21.7914 7.43095 22.049 7.73762 22.2357 8.11C22.4223 8.48238 22.5152 8.87666 22.5143 9.29286V21.1214C22.5143 21.8443 22.2567 22.4633 21.7415 22.9785C21.2263 23.4937 20.6077 23.7509 19.8857 23.75H15.9429C15.5705 23.75 15.2586 23.6238 15.0071 23.3715C14.7556 23.1191 14.6294 22.8072 14.6286 22.4357V15.8643C14.6286 15.4919 14.5024 15.18 14.2501 14.9285C13.9977 14.677 13.6858 14.5509 13.3143 14.55H10.6857C10.3133 14.55 10.0014 14.6762 9.74994 14.9285C9.49848 15.1809 9.37231 15.4928 9.37143 15.8643V22.4357C9.37143 22.8081 9.24526 23.1205 8.99292 23.3728C8.74057 23.6251 8.42865 23.7509 8.05714 23.75H4.11429C3.39143 23.75 2.77284 23.4928 2.25852 22.9785C1.74419 22.4642 1.48659 21.8452 1.48572 21.1214Z" fill="white"/>
</g>
<defs>
<clipPath id="clip0_1662_16173">
<rect width="24" height="24" fill="white"/>
</clipPath>
</defs>
</svg>
