<svg width="24" height="24" viewBox="0 0 24 24" fill="none" xmlns="http://www.w3.org/2000/svg">
<g clip-path="url(#clip0_1662_16173)">
<path d="M1.02856 21.5071V9.16428C1.02856 8.73 1.12594 8.31857 1.32068 7.93C1.51542 7.54143 1.78376 7.22143 2.12571 6.97L10.3543 0.798571C10.8343 0.432857 11.3828 0.25 12 0.25C12.6171 0.25 13.1657 0.432857 13.6457 0.798571L21.8743 6.97C22.2171 7.22143 22.4859 7.54143 22.6807 7.93C22.8754 8.31857 22.9723 8.73 22.9714 9.16428V21.5071C22.9714 22.2614 22.7026 22.9074 22.165 23.445C21.6274 23.9826 20.9819 24.2509 20.2286 24.25H16.1143C15.7257 24.25 15.4002 24.1183 15.1378 23.855C14.8754 23.5917 14.7438 23.2662 14.7428 22.8786V16.0214C14.7428 15.6329 14.6112 15.3074 14.3479 15.045C14.0846 14.7826 13.7591 14.6509 13.3714 14.65H10.6286C10.24 14.65 9.91451 14.7817 9.65211 15.045C9.38971 15.3083 9.25805 15.6338 9.25713 16.0214V22.8786C9.25713 23.2671 9.12548 23.5931 8.86216 23.8564C8.59885 24.1197 8.27336 24.2509 7.88571 24.25H3.77142C3.01714 24.25 2.37165 23.9817 1.83496 23.445C1.29828 22.9083 1.02948 22.2623 1.02856 21.5071Z" fill="currentColor"/>
</g>
<defs>
<clipPath id="clip0_1662_16173">
<rect width="24" height="24" fill="white"/>
</clipPath>
</defs>
</svg>
