<svg width="16" height="16" viewBox="0 0 16 16" fill="none" xmlns="http://www.w3.org/2000/svg">
<g clip-path="url(#clip0_970_362)">
<path d="M1.77778 16H14.2222C15.2 16 16 15.2 16 14.2222V1.77778C16 0.8 15.2 0 14.2222 0H1.77778C0.8 0 0 0.8 0 1.77778V14.2222C0 15.2 0.8 16 1.77778 16ZM4.88889 3.55556C5.62667 3.55556 6.22222 4.15111 6.22222 4.88889C6.22222 5.62667 5.62667 6.22222 4.88889 6.22222C4.15111 6.22222 3.55556 5.62667 3.55556 4.88889C3.55556 4.15111 4.15111 3.55556 4.88889 3.55556ZM1.77778 12.8089L4.44444 10.1422L5.59111 11.2889C5.93778 11.6356 6.49778 11.6356 6.84444 11.2889L11.5467 6.58667L14.2133 9.25333V14.2222H1.76889V12.8089H1.77778Z" fill="#54595F"/>
</g>
<defs>
<clipPath id="clip0_970_362">
<rect width="16" height="16" fill="white"/>
</clipPath>
</defs>
</svg>
