<svg width="24" height="24" viewBox="0 0 24 24" fill="none" xmlns="http://www.w3.org/2000/svg">
<path d="M12 5.25C11.4033 5.25 10.831 5.01295 10.409 4.59099C9.98705 4.16903 9.75 3.59674 9.75 3C9.75 2.40326 9.98705 1.83097 10.409 1.40901C10.831 0.987053 11.4033 0.75 12 0.75C12.5967 0.75 13.169 0.987053 13.591 1.40901C14.0129 1.83097 14.25 2.40326 14.25 3C14.25 3.59674 14.0129 4.16903 13.591 4.59099C13.169 5.01295 12.5967 5.25 12 5.25ZM12 14.25C11.4033 14.25 10.831 14.0129 10.409 13.591C9.98705 13.169 9.75 12.5967 9.75 12C9.75 11.4033 9.98705 10.831 10.409 10.409C10.831 9.98705 11.4033 9.75 12 9.75C12.5967 9.75 13.169 9.98705 13.591 10.409C14.0129 10.831 14.25 11.4033 14.25 12C14.25 12.5967 14.0129 13.169 13.591 13.591C13.169 14.0129 12.5967 14.25 12 14.25ZM9.75 21C9.75 21.5967 9.98705 22.169 10.409 22.591C10.831 23.0129 11.4033 23.25 12 23.25C12.5967 23.25 13.169 23.0129 13.591 22.591C14.0129 22.169 14.25 21.5967 14.25 21C14.25 20.4033 14.0129 19.831 13.591 19.409C13.169 18.9871 12.5967 18.75 12 18.75C11.4033 18.75 10.831 18.9871 10.409 19.409C9.98705 19.831 9.75 20.4033 9.75 21Z" fill="currentColor"/>
</svg>
