<svg width="24" height="24" viewBox="0 0 24 24" fill="none" xmlns="http://www.w3.org/2000/svg">
<path d="M16.6151 23.0769C16.6151 23.3217 16.5179 23.5565 16.3447 23.7296C16.1716 23.9027 15.9368 24 15.692 24H8.30742C8.0626 24 7.82781 23.9027 7.6547 23.7296C7.48159 23.5565 7.38434 23.3217 7.38434 23.0769C7.38434 22.8321 7.48159 22.5973 7.6547 22.4242C7.82781 22.2511 8.0626 22.1538 8.30742 22.1538H15.692C15.9368 22.1538 16.1716 22.2511 16.3447 22.4242C16.5179 22.5973 16.6151 22.8321 16.6151 23.0769ZM22.8286 19.3846C22.6684 19.6668 22.4359 19.901 22.155 20.0633C21.874 20.2256 21.5549 20.3099 21.2305 20.3077H2.76896C2.44442 20.3073 2.12574 20.2213 1.84502 20.0584C1.56431 19.8956 1.33148 19.6616 1.17001 19.3801C1.00854 19.0986 0.92414 18.7794 0.925305 18.4549C0.92647 18.1304 1.01316 17.8119 1.17665 17.5315C1.81703 16.4285 2.76896 13.3085 2.76896 9.23077C2.76896 6.78262 3.74148 4.43473 5.47259 2.70363C7.20369 0.972525 9.55157 0 11.9997 0C14.4479 0 16.7958 0.972525 18.5269 2.70363C20.258 4.43473 21.2305 6.78262 21.2305 9.23077C21.2305 13.3073 22.1836 16.4285 22.824 17.5315C22.9891 17.8123 23.0764 18.1319 23.077 18.4576C23.0776 18.7833 22.9915 19.1033 22.8274 19.3846H22.8286ZM21.2305 18.4615C20.3386 16.9304 19.3843 13.3904 19.3843 9.23077C19.3843 7.27225 18.6063 5.39394 17.2214 4.00906C15.8366 2.62417 13.9582 1.84615 11.9997 1.84615C10.0412 1.84615 8.1629 2.62417 6.77801 4.00906C5.39313 5.39394 4.61511 7.27225 4.61511 9.23077C4.61511 13.3915 3.65973 16.9315 2.76896 18.4615H21.2305Z" fill="currentColor"/>
</svg>
