<svg width="24" height="24" viewBox="0 0 24 24" fill="none" xmlns="http://www.w3.org/2000/svg">
<g clip-path="url(#clip0_1660_14144)">
<path fill-rule="evenodd" clip-rule="evenodd" d="M12.0002 -0.000728607C18.6277 -0.000728607 24.0002 5.37185 24.0002 11.9993C24 18.6265 18.6275 23.9993 12.0002 23.9993C5.37301 23.9992 0.000440732 18.6265 0.000244141 11.9993C0.000244141 5.3719 5.37288 -0.000661311 12.0002 -0.000728607ZM11.509 9.06177C10.7558 8.62687 10.3785 8.40953 10.0959 8.57251C9.81343 8.73563 9.81372 9.17133 9.81372 10.0413V13.9553C9.81372 14.825 9.81366 15.2599 10.0959 15.4231C10.3785 15.5862 10.7557 15.3688 11.509 14.9338L14.8987 12.9768C15.652 12.5419 16.0285 12.3245 16.0286 11.9983C16.0286 11.6721 15.6521 11.4547 14.8987 11.0198L11.509 9.06177Z" fill="currentColor"/>
</g>
<defs>
<clipPath id="clip0_1660_14144">
<rect width="24" height="24" fill="white"/>
</clipPath>
</defs>
</svg>
