<svg width="24" height="24" viewBox="0 0 24 24" fill="none" xmlns="http://www.w3.org/2000/svg">
<g clip-path="url(#clip0_1660_14143)">
<path d="M12 0C18.6274 0 24 5.37258 24 12C23.9998 18.6272 18.6273 24 12 24C5.37276 23.9999 0.000196592 18.6272 0 12C0 5.37262 5.37264 6.7296e-05 12 0ZM9.64941 8.00098C9.18028 8.00119 8.80002 8.38145 8.7998 8.85059V15.1514C8.80002 15.6205 9.18028 16.0008 9.64941 16.001C10.1187 16.001 10.4998 15.6206 10.5 15.1514V8.85059C10.4998 8.38132 10.1187 8.00098 9.64941 8.00098ZM14.6494 8.00098C14.1803 8.00119 13.8 8.38145 13.7998 8.85059V15.1514C13.8 15.6205 14.1803 16.0008 14.6494 16.001C15.1187 16.001 15.4998 15.6206 15.5 15.1514V8.85059C15.4998 8.38132 15.1187 8.00098 14.6494 8.00098Z" fill="#34373A"/>
</g>
<defs>
<clipPath id="clip0_1660_14143">
<rect width="24" height="24" fill="white"/>
</clipPath>
</defs>
</svg>
