<svg width="24" height="24" viewBox="0 0 24 24" fill="none" xmlns="http://www.w3.org/2000/svg">
<g clip-path="url(#clip0_2391_7814)">
<path d="M1.65582 16.7399C1.49982 16.8959 1.39182 17.0879 1.34382 17.2919L0.0478203 22.4999C-0.0601797 22.9079 0.0598203 23.3399 0.35982 23.6399C0.58782 23.8679 0.89982 23.9879 1.21182 23.9879C1.30782 23.9879 1.40382 23.9879 1.49982 23.9519L6.70782 22.6439C6.92382 22.5959 7.11582 22.4879 7.25982 22.3319L19.4398 10.1519L13.8358 4.54793L1.65582 16.7399ZM21.2038 0.73193C20.2318 -0.24007 18.6358 -0.24007 17.6638 0.73193L15.5278 2.86793L21.1318 8.47193L23.2678 6.33593C24.2398 5.36393 24.2398 3.77993 23.2678 2.79593L21.2038 0.73193Z" fill="currentColor"/>
</g>
<defs>
<clipPath id="clip0_2391_7814">
<rect width="24" height="24" fill="white"/>
</clipPath>
</defs>
</svg>
