<svg width="24" height="24" viewBox="0 0 24 24" fill="none" xmlns="http://www.w3.org/2000/svg">
<path d="M20.0278 0C20.1161 0 20.192 0.0602948 20.2223 0.143266C20.3785 0.571774 20.7186 0.911874 21.1471 1.06809C21.2301 1.09834 21.2904 1.17425 21.2904 1.26257V2.12903C21.2904 2.23593 21.2033 2.32131 21.0972 2.33451C20.3332 2.42959 19.742 3.08123 19.742 3.87097C19.742 4.6607 20.3332 5.31235 21.0972 5.40742C21.2033 5.42062 21.2904 5.50601 21.2904 5.6129V7.54839C21.2904 7.65528 21.2033 7.74067 21.0972 7.75387C20.3332 7.84894 19.742 8.50059 19.742 9.29032C19.742 10.0801 20.3332 10.7317 21.0972 10.8268C21.2033 10.84 21.2904 10.9254 21.2904 11.0323V12.9677C21.2904 13.0746 21.2033 13.16 21.0972 13.1732C20.3332 13.2683 19.742 13.9199 19.742 14.7097C19.742 15.4994 20.3332 16.1511 21.0972 16.2461C21.2033 16.2593 21.2904 16.3447 21.2904 16.4516V18.3871C21.2904 18.494 21.2033 18.5794 21.0972 18.5926C20.3332 18.6877 19.742 19.3393 19.742 20.129C19.742 20.9188 20.3332 21.5704 21.0972 21.6655C21.2033 21.6787 21.2904 21.7641 21.2904 21.871V22.7374C21.2904 22.8257 21.2301 22.9017 21.1471 22.9319C20.7186 23.0881 20.3785 23.4282 20.2223 23.8567C20.192 23.9397 20.1161 24 20.0278 24H19.1613C19.0544 24 18.969 23.9129 18.9558 23.8068C18.8608 23.0428 18.2091 22.4516 17.4194 22.4516C16.6297 22.4516 15.978 23.0428 15.8829 23.8068C15.8697 23.9129 15.7844 24 15.6775 24H13.742C13.6351 24 13.5497 23.9129 13.5365 23.8068C13.4414 23.0428 12.7898 22.4516 12 22.4516C11.2103 22.4516 10.5587 23.0428 10.4636 23.8068C10.4504 23.9129 10.365 24 10.2581 24H8.32262C8.21573 24 8.13034 23.9129 8.11714 23.8068C8.02207 23.0428 7.37042 22.4516 6.58068 22.4516C5.79095 22.4516 5.1393 23.0428 5.04423 23.8068C5.03103 23.9129 4.94564 24 4.83875 24H3.97228C3.88397 24 3.80806 23.9397 3.77781 23.8567C3.62159 23.4282 3.28149 23.0881 2.85298 22.9319C2.77001 22.9017 2.70972 22.8257 2.70972 22.7374V21.871C2.70972 21.7641 2.79681 21.6787 2.90288 21.6655C3.66687 21.5704 4.2581 20.9188 4.2581 20.129C4.2581 19.3393 3.66687 18.6877 2.90288 18.5926C2.79681 18.5794 2.70972 18.494 2.70972 18.3871V16.4516C2.70972 16.3447 2.79681 16.2593 2.90288 16.2461C3.66687 16.1511 4.2581 15.4994 4.2581 14.7097C4.2581 13.9199 3.66687 13.2683 2.90288 13.1732C2.79681 13.16 2.70972 13.0746 2.70972 12.9677V11.0323C2.70972 10.9254 2.79681 10.84 2.90288 10.8268C3.66687 10.7317 4.2581 10.0801 4.2581 9.29032C4.2581 8.50059 3.66687 7.84894 2.90288 7.75387C2.79681 7.74067 2.70972 7.65528 2.70972 7.54839V5.6129C2.70972 5.50601 2.79681 5.42062 2.90288 5.40742C3.66687 5.31235 4.2581 4.6607 4.2581 3.87097C4.2581 3.08123 3.66687 2.42959 2.90288 2.33451C2.79681 2.32131 2.70972 2.23593 2.70972 2.12903V1.26257C2.70972 1.17425 2.77001 1.09834 2.85298 1.06809C3.28149 0.911874 3.62159 0.571774 3.77781 0.143266C3.80806 0.0602947 3.88397 0 3.97228 0H4.83875C4.94564 0 5.03103 0.0870884 5.04423 0.193164C5.1393 0.957152 5.79095 1.54839 6.58068 1.54839C7.37042 1.54839 8.02207 0.957152 8.11714 0.193164C8.13034 0.0870883 8.21573 0 8.32262 0H10.2581C10.365 0 10.4504 0.0870884 10.4636 0.193164C10.5587 0.957152 11.2103 1.54839 12 1.54839C12.7898 1.54839 13.4414 0.957152 13.5365 0.193164C13.5497 0.0870883 13.6351 0 13.742 0H15.6775C15.7844 0 15.8697 0.0870884 15.8829 0.193164C15.978 0.957152 16.6297 1.54839 17.4194 1.54839C18.2091 1.54839 18.8608 0.957152 18.9558 0.193164C18.969 0.0870883 19.0544 0 19.1613 0H20.0278Z" fill="currentColor"/>
</svg>
