<svg width="24" height="24" viewBox="0 0 24 24" color="#747a81" fill="none" xmlns="http://www.w3.org/2000/svg">
<g clip-path="url(#clip0_796_12807)">
<path d="M18.2551 10.1776C18.2551 9.11683 18.046 8.06631 17.6401 7.08631C17.2342 6.10637 16.6388 5.21633 15.8888 4.4663C15.1388 3.71631 14.2487 3.12097 13.2688 2.71504C12.2888 2.30913 11.2382 2.10005 10.1775 2.10004C9.11679 2.10004 8.06627 2.30911 7.08627 2.71504C6.10631 3.12097 5.21629 3.71627 4.46626 4.4663C2.95145 5.98111 2.1 8.03531 2.1 10.1776C2.10003 12.3198 2.95148 14.3741 4.46626 15.8888C5.98106 17.4036 8.03532 18.2551 10.1775 18.2551C12.3198 18.2551 14.374 17.4036 15.8888 15.8888C16.6388 15.1388 17.2341 14.2488 17.6401 13.2688C18.046 12.2889 18.2551 11.2383 18.2551 10.1776ZM20.1751 10.1776C20.1751 11.4904 19.9162 12.7909 19.4138 14.0038C19.0343 14.9199 18.5196 15.7714 17.8913 16.5339L22.9388 21.5814C23.3137 21.9563 23.3137 22.564 22.9388 22.9389C22.5639 23.3138 21.9562 23.3137 21.5813 22.9389L16.5351 17.8926C14.7526 19.3616 12.5071 20.1751 10.1775 20.1751C7.5261 20.1751 4.98363 19.1212 3.10876 17.2464C1.2339 15.3715 0.180022 12.829 0.179993 10.1776C0.179993 7.52609 1.23387 4.98368 3.10876 3.10879C4.03701 2.18053 5.13846 1.4437 6.35127 0.941284C7.56421 0.438866 8.86465 0.180031 10.1775 0.180031C11.4904 0.180045 12.7909 0.43888 14.0038 0.941284C15.2165 1.4437 16.3181 2.18058 17.2463 3.10879C18.1745 4.03705 18.9114 5.13852 19.4138 6.35131C19.9162 7.56425 20.1751 8.86469 20.1751 10.1776Z" fill="currentColor"/>
</g>
<defs>
<clipPath id="clip0_796_12807">
<rect width="24" height="24" fill="white"/>
</clipPath>
</defs>
</svg>
