<svg width="24" height="24" viewBox="0 0 24 24" fill="none" xmlns="http://www.w3.org/2000/svg">
<path d="M21.5038 4.87212C21.8066 4.87245 22.0978 4.9884 22.318 5.19626C22.5382 5.40412 22.6707 5.68822 22.6884 5.99049C22.7061 6.29277 22.6078 6.59042 22.4135 6.82261C22.2191 7.05481 21.9434 7.20404 21.6428 7.2398L21.5038 7.24812H21.4075L20.3158 20.3161C20.3158 21.2252 19.9685 22.0999 19.3448 22.7613C18.7212 23.4227 17.8684 23.8208 16.9609 23.8742L16.7518 23.8801H7.24777C5.34934 23.8801 3.79781 22.3963 3.69327 20.6131L3.68733 20.4147L2.59081 7.24812H2.49577C2.19297 7.24778 1.90173 7.13184 1.68155 6.92397C1.46137 6.71611 1.32887 6.43202 1.31113 6.12974C1.29338 5.82746 1.39173 5.52982 1.58607 5.29762C1.78042 5.06542 2.05609 4.9162 2.35677 4.88043L2.49577 4.87212H21.5038ZM10.2308 10.9784C9.98192 10.8303 9.68746 10.7781 9.40281 10.8319C9.11816 10.8856 8.86296 11.0415 8.68518 11.2702C8.50741 11.4989 8.41933 11.7847 8.4375 12.0738C8.45567 12.3629 8.57884 12.6354 8.78385 12.84L10.3187 14.3761L8.78385 15.9122L8.68525 16.0239C8.50062 16.2627 8.4138 16.5628 8.44242 16.8632C8.47104 17.1637 8.61296 17.442 8.83936 17.6416C9.06575 17.8413 9.35963 17.9472 9.66133 17.938C9.96302 17.9288 10.2499 17.8051 10.4637 17.592L11.9998 16.0571L13.5358 17.592L13.6475 17.6906C13.8863 17.8753 14.1864 17.9621 14.4869 17.9335C14.7873 17.9048 15.0657 17.7629 15.2653 17.5365C15.4649 17.3101 15.5709 17.0162 15.5617 16.7146C15.5524 16.4129 15.4287 16.126 15.2157 15.9122L13.6808 14.3761L15.2157 12.84L15.3143 12.7284C15.4989 12.4896 15.5857 12.1895 15.5571 11.889C15.5285 11.5885 15.3866 11.3102 15.1602 11.1106C14.9338 10.911 14.6399 10.805 14.3382 10.8142C14.0365 10.8234 13.7496 10.9471 13.5358 11.1602L11.9998 12.6951L10.4637 11.1602L10.352 11.0616L10.2308 10.9784ZM14.3758 0.120117C15.0059 0.120117 15.6103 0.370445 16.0559 0.816031C16.5014 1.26162 16.7518 1.86596 16.7518 2.49612C16.7514 2.79891 16.6355 3.09016 16.4276 3.31033C16.2198 3.53051 15.9357 3.66301 15.6334 3.68076C15.3311 3.6985 15.0335 3.60016 14.8013 3.40581C14.5691 3.21147 14.4198 2.93579 14.3841 2.63511L14.3758 2.49612H9.62377L9.61545 2.63511C9.57969 2.93579 9.43046 3.21147 9.19826 3.40581C8.96606 3.60016 8.66842 3.6985 8.36614 3.68076C8.06387 3.66301 7.77977 3.53051 7.57191 3.31033C7.36405 3.09016 7.2481 2.79891 7.24777 2.49612C7.24758 1.89668 7.47397 1.31932 7.88156 0.879786C8.28915 0.440248 8.84782 0.171015 9.44557 0.126057L9.62377 0.120117H14.3758Z" fill="currentColor"/>
</svg>
