<svg width="24" height="24" viewBox="0 0 24 24" fill="none" xmlns="http://www.w3.org/2000/svg">
<path d="M20.6634 0.572109C21.4264 -0.19087 22.6646 -0.190536 23.4278 0.572109C24.1906 1.33522 24.1907 2.5724 23.4278 3.33551L14.7633 11.999L23.4278 20.6634C24.1907 21.4265 24.1908 22.6647 23.4278 23.4278C22.6646 24.1908 21.4265 24.1907 20.6634 23.4278L11.9999 14.7633L3.33647 23.4278C2.57336 24.1908 1.33524 24.1907 0.572104 23.4278C-0.190535 22.6646 -0.190867 21.4264 0.572104 20.6634L9.23557 11.999L0.572104 3.33551C-0.190479 2.57236 -0.190845 1.33512 0.572104 0.572109C1.33511 -0.190851 2.57234 -0.190482 3.3355 0.572109L11.9999 9.23557L20.6634 0.572109Z" fill="currentColor"/>
</svg>
